%TF.GenerationSoftware,Altium Limited,Altium Designer,23.3.1 (30)*%
G04 Layer_Physical_Order=1*
G04 Layer_Color=255*
%FSLAX25Y25*%
%MOIN*%
%TF.SameCoordinates,A648DCE1-0FA2-4CCB-ABDB-414D2F473EA8*%
%TF.FilePolarity,Positive*%
%TF.FileFunction,Copper,L1,Top,Signal*%
%TF.Part,Single*%
G01*
G75*
%TA.AperFunction,Conductor*%
%ADD10C,0.00984*%
%TA.AperFunction,ComponentPad*%
%ADD11C,0.03661*%
%ADD12R,0.03661X0.03661*%
%ADD13R,0.25591X0.25591*%
%ADD14R,0.05118X0.05118*%
%ADD15C,0.05118*%
G36*
X7983Y162500D02*
X15947Y161912D01*
X23872Y160935D01*
X31740Y159570D01*
X39532Y157820D01*
X47228Y155690D01*
X54811Y153185D01*
X62261Y150311D01*
X69561Y147075D01*
X76694Y143485D01*
X83642Y139549D01*
X90389Y135277D01*
X96918Y130678D01*
X103213Y125766D01*
X109260Y120550D01*
X115043Y115043D01*
X120550Y109260D01*
X125766Y103213D01*
X130678Y96918D01*
X135277Y90389D01*
X139549Y83642D01*
X143485Y76694D01*
X147075Y69561D01*
X150311Y62261D01*
X153185Y54811D01*
X155690Y47228D01*
X157820Y39532D01*
X159570Y31740D01*
X160935Y23872D01*
X161912Y15947D01*
X162500Y7983D01*
X162693Y99D01*
X162674Y-0D01*
X162693Y-99D01*
X162500Y-7983D01*
X161912Y-15947D01*
X160935Y-23873D01*
X159570Y-31740D01*
X157820Y-39532D01*
X155690Y-47228D01*
X153185Y-54811D01*
X150311Y-62261D01*
X147075Y-69561D01*
X143485Y-76694D01*
X139549Y-83643D01*
X135277Y-90389D01*
X130678Y-96918D01*
X125766Y-103213D01*
X120550Y-109260D01*
X115043Y-115043D01*
X109260Y-120550D01*
X103213Y-125766D01*
X96918Y-130679D01*
X90389Y-135277D01*
X83642Y-139549D01*
X76694Y-143485D01*
X69561Y-147075D01*
X62261Y-150311D01*
X54811Y-153185D01*
X47228Y-155690D01*
X39532Y-157820D01*
X31740Y-159570D01*
X23872Y-160935D01*
X15947Y-161913D01*
X7983Y-162500D01*
X99Y-162694D01*
X-0Y-162674D01*
X-99Y-162694D01*
X-7983Y-162500D01*
X-15947Y-161913D01*
X-23873Y-160935D01*
X-31740Y-159570D01*
X-39532Y-157820D01*
X-47228Y-155690D01*
X-54811Y-153185D01*
X-62261Y-150311D01*
X-69561Y-147075D01*
X-76694Y-143485D01*
X-83643Y-139549D01*
X-90389Y-135277D01*
X-96918Y-130679D01*
X-103213Y-125766D01*
X-109260Y-120550D01*
X-115043Y-115043D01*
X-120550Y-109260D01*
X-125766Y-103213D01*
X-130679Y-96918D01*
X-135277Y-90389D01*
X-139549Y-83643D01*
X-143485Y-76694D01*
X-147075Y-69561D01*
X-150311Y-62261D01*
X-153185Y-54811D01*
X-155690Y-47228D01*
X-157820Y-39532D01*
X-159570Y-31740D01*
X-160935Y-23873D01*
X-161913Y-15947D01*
X-162500Y-7983D01*
X-162694Y-99D01*
X-162674Y-0D01*
X-162694Y99D01*
X-162500Y7983D01*
X-161913Y15947D01*
X-160935Y23872D01*
X-159570Y31740D01*
X-157820Y39532D01*
X-155690Y47228D01*
X-153185Y54811D01*
X-150311Y62261D01*
X-147075Y69561D01*
X-143485Y76694D01*
X-139549Y83642D01*
X-135277Y90389D01*
X-130679Y96918D01*
X-125766Y103213D01*
X-120550Y109260D01*
X-115043Y115043D01*
X-109260Y120550D01*
X-103213Y125766D01*
X-96918Y130678D01*
X-90389Y135277D01*
X-83643Y139549D01*
X-76694Y143485D01*
X-69561Y147075D01*
X-62261Y150311D01*
X-54811Y153185D01*
X-47228Y155690D01*
X-39532Y157820D01*
X-31740Y159570D01*
X-23873Y160935D01*
X-15947Y161912D01*
X-7983Y162500D01*
X-99Y162693D01*
X-0Y162674D01*
X99Y162693D01*
X7983Y162500D01*
D02*
G37*
%LPC*%
G36*
X13795Y160225D02*
X1000D01*
Y147430D01*
X13795D01*
Y160225D01*
D02*
G37*
G36*
X-1000D02*
X-13795D01*
Y147430D01*
X-1000D01*
Y160225D01*
D02*
G37*
G36*
X13795Y145430D02*
X1000D01*
Y132635D01*
X13795D01*
Y145430D01*
D02*
G37*
G36*
X-1000D02*
X-13795D01*
Y132635D01*
X-1000D01*
Y145430D01*
D02*
G37*
G36*
X2831Y121335D02*
X1000D01*
Y119504D01*
X2831D01*
Y121335D01*
D02*
G37*
G36*
X-1000D02*
X-2831D01*
Y119504D01*
X-1000D01*
Y121335D01*
D02*
G37*
G36*
X2831Y117504D02*
X-0D01*
X-2831D01*
Y115673D01*
X-2481D01*
X-2219Y115173D01*
X-2440Y114790D01*
X-2618Y114124D01*
Y113435D01*
X-2440Y112769D01*
X-2095Y112172D01*
X-1608Y111685D01*
X-1011Y111340D01*
X-345Y111161D01*
X345D01*
X1010Y111340D01*
X1608Y111685D01*
X2095Y112172D01*
X2440Y112769D01*
X2618Y113435D01*
Y114124D01*
X2440Y114790D01*
X2218Y115173D01*
X2481Y115673D01*
X2831D01*
Y117504D01*
D02*
G37*
G36*
X113402Y84268D02*
X110843D01*
Y81709D01*
X113402D01*
Y84268D01*
D02*
G37*
G36*
X-108843Y84125D02*
Y81709D01*
X-106426D01*
X-106526Y82082D01*
X-106995Y82894D01*
X-107657Y83557D01*
X-108469Y84025D01*
X-108843Y84125D01*
D02*
G37*
G36*
X-114157Y84268D02*
X-116717D01*
Y81709D01*
X-114157D01*
Y84268D01*
D02*
G37*
G36*
X-110843Y84125D02*
X-111216Y84025D01*
X-112028Y83557D01*
X-112690Y82894D01*
X-113159Y82082D01*
X-113259Y81709D01*
X-110843D01*
Y84125D01*
D02*
G37*
G36*
X108843Y84268D02*
X106283D01*
Y81709D01*
X108843D01*
Y84268D01*
D02*
G37*
G36*
X-118717Y84268D02*
X-121276D01*
Y81709D01*
X-118717D01*
Y84268D01*
D02*
G37*
G36*
X118717Y84125D02*
Y81709D01*
X121133D01*
X121033Y82082D01*
X120564Y82894D01*
X119902Y83557D01*
X119090Y84025D01*
X118717Y84125D01*
D02*
G37*
G36*
X116717Y84125D02*
X116343Y84025D01*
X115531Y83557D01*
X114869Y82894D01*
X114400Y82082D01*
X114300Y81709D01*
X116717D01*
Y84125D01*
D02*
G37*
G36*
Y79709D02*
X114300D01*
X114400Y79335D01*
X114869Y78523D01*
X115531Y77861D01*
X116343Y77392D01*
X116717Y77292D01*
Y79709D01*
D02*
G37*
G36*
X-110843Y79709D02*
X-113259D01*
X-113159Y79335D01*
X-112690Y78523D01*
X-112028Y77861D01*
X-111216Y77392D01*
X-110843Y77292D01*
Y79709D01*
D02*
G37*
G36*
X121133Y79709D02*
X118717D01*
Y77292D01*
X119090Y77392D01*
X119902Y77861D01*
X120564Y78523D01*
X121033Y79335D01*
X121133Y79709D01*
D02*
G37*
G36*
X-106426Y79709D02*
X-108843D01*
Y77292D01*
X-108469Y77392D01*
X-107657Y77861D01*
X-106995Y78523D01*
X-106526Y79335D01*
X-106426Y79709D01*
D02*
G37*
G36*
X113402D02*
X110843D01*
Y77150D01*
X113402D01*
Y79709D01*
D02*
G37*
G36*
X108843D02*
X106283D01*
Y77150D01*
X108843D01*
Y79709D01*
D02*
G37*
G36*
X-114157D02*
X-116717D01*
Y77150D01*
X-114157D01*
Y79709D01*
D02*
G37*
G36*
X-118717D02*
X-121276D01*
Y77150D01*
X-118717D01*
Y79709D01*
D02*
G37*
G36*
X118717Y76251D02*
Y73835D01*
X121133D01*
X121033Y74208D01*
X120564Y75020D01*
X119902Y75683D01*
X119090Y76151D01*
X118717Y76251D01*
D02*
G37*
G36*
X116717Y76251D02*
X116343Y76151D01*
X115531Y75683D01*
X114869Y75020D01*
X114400Y74208D01*
X114300Y73835D01*
X116717D01*
Y76251D01*
D02*
G37*
G36*
X-108843D02*
Y73835D01*
X-106426D01*
X-106526Y74208D01*
X-106995Y75020D01*
X-107657Y75683D01*
X-108469Y76151D01*
X-108843Y76251D01*
D02*
G37*
G36*
X-110843Y76251D02*
X-111216Y76151D01*
X-112028Y75683D01*
X-112690Y75020D01*
X-113159Y74208D01*
X-113259Y73835D01*
X-110843D01*
Y76251D01*
D02*
G37*
G36*
X110283Y76181D02*
X109402D01*
X108551Y75953D01*
X107788Y75512D01*
X107165Y74889D01*
X106724Y74126D01*
X106496Y73275D01*
Y72394D01*
X106724Y71543D01*
X107165Y70780D01*
X107788Y70157D01*
X108551Y69716D01*
X109402Y69488D01*
X110283D01*
X111134Y69716D01*
X111897Y70157D01*
X112520Y70780D01*
X112961Y71543D01*
X113189Y72394D01*
Y73275D01*
X112961Y74126D01*
X112520Y74889D01*
X111897Y75512D01*
X111134Y75953D01*
X110283Y76181D01*
D02*
G37*
G36*
X-117276Y76181D02*
X-118157D01*
X-119008Y75953D01*
X-119771Y75512D01*
X-120394Y74889D01*
X-120835Y74126D01*
X-121063Y73275D01*
Y72394D01*
X-120835Y71543D01*
X-120394Y70780D01*
X-119771Y70157D01*
X-119008Y69716D01*
X-118157Y69488D01*
X-117276D01*
X-116425Y69716D01*
X-115662Y70157D01*
X-115039Y70780D01*
X-114598Y71543D01*
X-114370Y72394D01*
Y73275D01*
X-114598Y74126D01*
X-115039Y74889D01*
X-115662Y75512D01*
X-116425Y75953D01*
X-117276Y76181D01*
D02*
G37*
G36*
X116717Y71835D02*
X114300D01*
X114400Y71461D01*
X114869Y70649D01*
X115531Y69987D01*
X116343Y69518D01*
X116717Y69418D01*
Y71835D01*
D02*
G37*
G36*
X-106426Y71835D02*
X-108843D01*
Y69418D01*
X-108469Y69518D01*
X-107657Y69987D01*
X-106995Y70649D01*
X-106526Y71461D01*
X-106426Y71835D01*
D02*
G37*
G36*
X121133Y71835D02*
X118717D01*
Y69418D01*
X119090Y69518D01*
X119902Y69987D01*
X120564Y70649D01*
X121033Y71461D01*
X121133Y71835D01*
D02*
G37*
G36*
X-110843Y71835D02*
X-113259D01*
X-113159Y71461D01*
X-112690Y70649D01*
X-112028Y69987D01*
X-111216Y69518D01*
X-110843Y69418D01*
Y71835D01*
D02*
G37*
G36*
X345Y67972D02*
X-345D01*
X-1011Y67794D01*
X-1608Y67449D01*
X-2095Y66962D01*
X-2440Y66365D01*
X-2618Y65699D01*
Y65010D01*
X-2440Y64344D01*
X-2219Y63961D01*
X-2481Y63461D01*
X-2831D01*
Y61630D01*
X-0D01*
X2831D01*
Y63461D01*
X2481D01*
X2218Y63961D01*
X2440Y64344D01*
X2618Y65010D01*
Y65699D01*
X2440Y66365D01*
X2095Y66962D01*
X1608Y67449D01*
X1010Y67794D01*
X345Y67972D01*
D02*
G37*
G36*
X-15403D02*
X-16093D01*
X-16759Y67794D01*
X-17356Y67449D01*
X-17843Y66962D01*
X-18188Y66365D01*
X-18366Y65699D01*
Y65010D01*
X-18188Y64344D01*
X-17967Y63961D01*
X-18229Y63461D01*
X-18579D01*
Y61630D01*
X-15748D01*
X-12917D01*
Y63461D01*
X-13267D01*
X-13530Y63961D01*
X-13308Y64344D01*
X-13130Y65010D01*
Y65699D01*
X-13308Y66365D01*
X-13653Y66962D01*
X-14141Y67449D01*
X-14738Y67794D01*
X-15403Y67972D01*
D02*
G37*
G36*
X16093D02*
X15403D01*
X14737Y67794D01*
X14140Y67449D01*
X13653Y66962D01*
X13308Y66365D01*
X13130Y65699D01*
Y65010D01*
X13308Y64344D01*
X13530Y63961D01*
X13267Y63461D01*
X12917D01*
Y61630D01*
X15748D01*
X18579D01*
Y63461D01*
X18229D01*
X17966Y63961D01*
X18188Y64344D01*
X18366Y65010D01*
Y65699D01*
X18188Y66365D01*
X17843Y66962D01*
X17356Y67449D01*
X16759Y67794D01*
X16093Y67972D01*
D02*
G37*
G36*
X118157Y68307D02*
X117276D01*
X116425Y68079D01*
X115662Y67638D01*
X115039Y67015D01*
X114598Y66252D01*
X114370Y65401D01*
Y64520D01*
X114598Y63669D01*
X115039Y62906D01*
X115662Y62283D01*
X116425Y61842D01*
X117276Y61614D01*
X118157D01*
X119008Y61842D01*
X119771Y62283D01*
X120394Y62906D01*
X120835Y63669D01*
X121063Y64520D01*
Y65401D01*
X120835Y66252D01*
X120394Y67015D01*
X119771Y67638D01*
X119008Y68079D01*
X118157Y68307D01*
D02*
G37*
G36*
X110283D02*
X109402D01*
X108551Y68079D01*
X107788Y67638D01*
X107165Y67015D01*
X106724Y66252D01*
X106496Y65401D01*
Y64520D01*
X106724Y63669D01*
X107165Y62906D01*
X107788Y62283D01*
X108551Y61842D01*
X109402Y61614D01*
X110283D01*
X111134Y61842D01*
X111897Y62283D01*
X112520Y62906D01*
X112961Y63669D01*
X113189Y64520D01*
Y65401D01*
X112961Y66252D01*
X112520Y67015D01*
X111897Y67638D01*
X111134Y68079D01*
X110283Y68307D01*
D02*
G37*
G36*
X-109402Y68307D02*
X-110283D01*
X-111134Y68079D01*
X-111897Y67638D01*
X-112520Y67015D01*
X-112961Y66252D01*
X-113189Y65401D01*
Y64520D01*
X-112961Y63669D01*
X-112520Y62906D01*
X-111897Y62283D01*
X-111134Y61842D01*
X-110283Y61614D01*
X-109402D01*
X-108551Y61842D01*
X-107788Y62283D01*
X-107165Y62906D01*
X-106724Y63669D01*
X-106496Y64520D01*
Y65401D01*
X-106724Y66252D01*
X-107165Y67015D01*
X-107788Y67638D01*
X-108551Y68079D01*
X-109402Y68307D01*
D02*
G37*
G36*
X-117276D02*
X-118157D01*
X-119008Y68079D01*
X-119771Y67638D01*
X-120394Y67015D01*
X-120835Y66252D01*
X-121063Y65401D01*
Y64520D01*
X-120835Y63669D01*
X-120394Y62906D01*
X-119771Y62283D01*
X-119008Y61842D01*
X-118157Y61614D01*
X-117276D01*
X-116425Y61842D01*
X-115662Y62283D01*
X-115039Y62906D01*
X-114598Y63669D01*
X-114370Y64520D01*
Y65401D01*
X-114598Y66252D01*
X-115039Y67015D01*
X-115662Y67638D01*
X-116425Y68079D01*
X-117276Y68307D01*
D02*
G37*
G36*
X-26354Y62328D02*
X-88583D01*
X-89082Y62229D01*
X-89505Y61946D01*
X-93060Y58391D01*
X-106732D01*
X-107165Y59141D01*
X-107788Y59764D01*
X-108551Y60205D01*
X-109402Y60433D01*
X-110283D01*
X-111134Y60205D01*
X-111897Y59764D01*
X-112520Y59141D01*
X-112961Y58378D01*
X-113189Y57527D01*
Y56646D01*
X-112961Y55795D01*
X-112520Y55032D01*
X-111897Y54409D01*
X-111134Y53968D01*
X-110283Y53740D01*
X-109402D01*
X-108551Y53968D01*
X-107788Y54409D01*
X-107165Y55032D01*
X-106732Y55782D01*
X-92520D01*
X-92020Y55881D01*
X-91597Y56164D01*
X-88042Y59719D01*
X-26894D01*
X-17899Y50724D01*
X-18188Y50223D01*
X-18366Y49557D01*
Y48868D01*
X-18188Y48202D01*
X-17967Y47819D01*
X-18229Y47319D01*
X-18579D01*
Y45488D01*
X-15748D01*
X-12917D01*
Y47319D01*
X-13267D01*
X-13530Y47819D01*
X-13308Y48202D01*
X-13130Y48868D01*
Y49557D01*
X-13308Y50223D01*
X-13653Y50820D01*
X-14141Y51308D01*
X-14738Y51652D01*
X-15306Y51805D01*
X-15338Y51853D01*
X-25431Y61946D01*
X-25855Y62229D01*
X-25937Y62245D01*
X-26354Y62328D01*
D02*
G37*
G36*
X18579Y59630D02*
X16748D01*
Y57799D01*
X18579D01*
Y59630D01*
D02*
G37*
G36*
X14748D02*
X12917D01*
Y57799D01*
X14748D01*
Y59630D01*
D02*
G37*
G36*
X2831D02*
X1000D01*
Y57799D01*
X2831D01*
Y59630D01*
D02*
G37*
G36*
X-1000D02*
X-2831D01*
Y57799D01*
X-1000D01*
Y59630D01*
D02*
G37*
G36*
X-12917D02*
X-14748D01*
Y57799D01*
X-12917D01*
Y59630D01*
D02*
G37*
G36*
X-16748D02*
X-18579D01*
Y57799D01*
X-16748D01*
Y59630D01*
D02*
G37*
G36*
X110283Y60433D02*
X109402D01*
X108551Y60205D01*
X107788Y59764D01*
X107165Y59141D01*
X106724Y58378D01*
X106496Y57527D01*
Y56646D01*
X106724Y55795D01*
X107153Y55053D01*
X107088Y54787D01*
X106991Y54553D01*
X65403D01*
X61946Y58009D01*
X61523Y58292D01*
X61024Y58391D01*
X41339D01*
X40839Y58292D01*
X40416Y58009D01*
X38448Y56041D01*
X38165Y55617D01*
X38065Y55118D01*
Y42801D01*
X35939Y40675D01*
X33465D01*
X32965Y40575D01*
X32542Y40293D01*
X30573Y38324D01*
X30291Y37901D01*
X30191Y37402D01*
Y36128D01*
X29888Y35953D01*
X29401Y35466D01*
X29056Y34869D01*
X28878Y34203D01*
Y33514D01*
X29056Y32848D01*
X29278Y32465D01*
X29015Y31964D01*
X28665D01*
Y30134D01*
X31496D01*
X34327D01*
Y31964D01*
X33977D01*
X33714Y32465D01*
X33936Y32848D01*
X34114Y33514D01*
Y34203D01*
X33936Y34869D01*
X33591Y35466D01*
X33103Y35953D01*
X32800Y36128D01*
Y36861D01*
X34005Y38065D01*
X36479D01*
X36978Y38165D01*
X37402Y38448D01*
X40293Y41339D01*
X40575Y41762D01*
X40675Y42261D01*
Y54578D01*
X41879Y55782D01*
X60483D01*
X63940Y52325D01*
X64363Y52043D01*
X64862Y51943D01*
X107134D01*
X107341Y51443D01*
X107165Y51267D01*
X106724Y50504D01*
X106496Y49653D01*
Y48772D01*
X106724Y47921D01*
X107165Y47158D01*
X107788Y46535D01*
X108551Y46094D01*
X109402Y45866D01*
X110283D01*
X111134Y46094D01*
X111897Y46535D01*
X112520Y47158D01*
X112961Y47921D01*
X113189Y48772D01*
Y49653D01*
X112961Y50504D01*
X112520Y51267D01*
X112344Y51443D01*
X112551Y51943D01*
X113141D01*
X114594Y50490D01*
X114370Y49653D01*
Y48772D01*
X114598Y47921D01*
X115039Y47158D01*
X115662Y46535D01*
X116425Y46094D01*
X117276Y45866D01*
X118157D01*
X119008Y46094D01*
X119771Y46535D01*
X120394Y47158D01*
X120835Y47921D01*
X121063Y48772D01*
Y49653D01*
X120835Y50504D01*
X120394Y51267D01*
X119771Y51890D01*
X119008Y52331D01*
X118157Y52559D01*
X117276D01*
X116439Y52335D01*
X114604Y54171D01*
X114180Y54453D01*
X113681Y54553D01*
X112694D01*
X112597Y54787D01*
X112532Y55053D01*
X112961Y55795D01*
X113189Y56646D01*
Y57527D01*
X112961Y58378D01*
X112520Y59141D01*
X111897Y59764D01*
X111134Y60205D01*
X110283Y60433D01*
D02*
G37*
G36*
X118157D02*
X117276D01*
X116425Y60205D01*
X115662Y59764D01*
X115039Y59141D01*
X114598Y58378D01*
X114370Y57527D01*
Y56646D01*
X114598Y55795D01*
X115039Y55032D01*
X115662Y54409D01*
X116425Y53968D01*
X117276Y53740D01*
X118157D01*
X119008Y53968D01*
X119771Y54409D01*
X120394Y55032D01*
X120835Y55795D01*
X121063Y56646D01*
Y57527D01*
X120835Y58378D01*
X120394Y59141D01*
X119771Y59764D01*
X119008Y60205D01*
X118157Y60433D01*
D02*
G37*
G36*
X-117276Y60433D02*
X-118157D01*
X-119008Y60205D01*
X-119771Y59764D01*
X-120394Y59141D01*
X-120835Y58378D01*
X-121063Y57527D01*
Y56646D01*
X-120835Y55795D01*
X-120394Y55032D01*
X-119771Y54409D01*
X-119008Y53968D01*
X-118157Y53740D01*
X-117276D01*
X-116425Y53968D01*
X-115662Y54409D01*
X-115039Y55032D01*
X-114598Y55795D01*
X-114370Y56646D01*
Y57527D01*
X-114598Y58378D01*
X-115039Y59141D01*
X-115662Y59764D01*
X-116425Y60205D01*
X-117276Y60433D01*
D02*
G37*
G36*
X345Y52618D02*
X-345D01*
X-1011Y52440D01*
X-1608Y52095D01*
X-2095Y51608D01*
X-2440Y51011D01*
X-2618Y50345D01*
Y49655D01*
X-2440Y48989D01*
X-2219Y48606D01*
X-2481Y48106D01*
X-2831D01*
Y46276D01*
X-0D01*
X2831D01*
Y48106D01*
X2481D01*
X2218Y48606D01*
X2440Y48989D01*
X2618Y49655D01*
Y50345D01*
X2440Y51011D01*
X2095Y51608D01*
X1608Y52095D01*
X1010Y52440D01*
X345Y52618D01*
D02*
G37*
G36*
X47589Y52224D02*
X46899D01*
X46233Y52046D01*
X45636Y51701D01*
X45149Y51214D01*
X44804Y50617D01*
X44626Y49951D01*
Y49262D01*
X44804Y48596D01*
X45026Y48213D01*
X44763Y47712D01*
X44413D01*
Y45882D01*
X47244D01*
X50075D01*
Y47712D01*
X49725D01*
X49463Y48213D01*
X49684Y48596D01*
X49862Y49262D01*
Y49951D01*
X49684Y50617D01*
X49339Y51214D01*
X48852Y51701D01*
X48255Y52046D01*
X47589Y52224D01*
D02*
G37*
G36*
X31841D02*
X31151D01*
X30485Y52046D01*
X29888Y51701D01*
X29401Y51214D01*
X29056Y50617D01*
X28878Y49951D01*
Y49262D01*
X29056Y48596D01*
X29278Y48213D01*
X29015Y47712D01*
X28665D01*
Y45882D01*
X31496D01*
X34327D01*
Y47712D01*
X33977D01*
X33714Y48213D01*
X33936Y48596D01*
X34114Y49262D01*
Y49951D01*
X33936Y50617D01*
X33591Y51214D01*
X33103Y51701D01*
X32506Y52046D01*
X31841Y52224D01*
D02*
G37*
G36*
X16093D02*
X15403D01*
X14737Y52046D01*
X14140Y51701D01*
X13653Y51214D01*
X13308Y50617D01*
X13130Y49951D01*
Y49262D01*
X13308Y48596D01*
X13530Y48213D01*
X13267Y47712D01*
X12917D01*
Y45882D01*
X15748D01*
X18579D01*
Y47712D01*
X18229D01*
X17966Y48213D01*
X18188Y48596D01*
X18366Y49262D01*
Y49951D01*
X18188Y50617D01*
X17843Y51214D01*
X17356Y51701D01*
X16759Y52046D01*
X16093Y52224D01*
D02*
G37*
G36*
X-109402Y52559D02*
X-110283D01*
X-111134Y52331D01*
X-111897Y51890D01*
X-112520Y51267D01*
X-112961Y50504D01*
X-113189Y49653D01*
Y48772D01*
X-112961Y47921D01*
X-112520Y47158D01*
X-111897Y46535D01*
X-111134Y46094D01*
X-110283Y45866D01*
X-109402D01*
X-108551Y46094D01*
X-107788Y46535D01*
X-107165Y47158D01*
X-106724Y47921D01*
X-106496Y48772D01*
Y49653D01*
X-106724Y50504D01*
X-107165Y51267D01*
X-107788Y51890D01*
X-108551Y52331D01*
X-109402Y52559D01*
D02*
G37*
G36*
X-117276D02*
X-118157D01*
X-119008Y52331D01*
X-119771Y51890D01*
X-120394Y51267D01*
X-120835Y50504D01*
X-121063Y49653D01*
Y48772D01*
X-120835Y47921D01*
X-120394Y47158D01*
X-119771Y46535D01*
X-119008Y46094D01*
X-118157Y45866D01*
X-117276D01*
X-116425Y46094D01*
X-115662Y46535D01*
X-115039Y47158D01*
X-114598Y47921D01*
X-114370Y48772D01*
Y49653D01*
X-114598Y50504D01*
X-115039Y51267D01*
X-115662Y51890D01*
X-116425Y52331D01*
X-117276Y52559D01*
D02*
G37*
G36*
X-31152Y51831D02*
X-31841D01*
X-32507Y51652D01*
X-33104Y51308D01*
X-33591Y50820D01*
X-33936Y50223D01*
X-34114Y49557D01*
Y48868D01*
X-33936Y48202D01*
X-33715Y47819D01*
X-33977Y47319D01*
X-34327D01*
Y45488D01*
X-31496D01*
X-28665D01*
Y47319D01*
X-29015D01*
X-29278Y47819D01*
X-29057Y48202D01*
X-28878Y48868D01*
Y49557D01*
X-29057Y50223D01*
X-29401Y50820D01*
X-29889Y51308D01*
X-30486Y51652D01*
X-31152Y51831D01*
D02*
G37*
G36*
X-46900D02*
X-47589D01*
X-48255Y51652D01*
X-48852Y51308D01*
X-49339Y50820D01*
X-49684Y50223D01*
X-49862Y49557D01*
Y48868D01*
X-49684Y48202D01*
X-49463Y47819D01*
X-49725Y47319D01*
X-50075D01*
Y45488D01*
X-47244D01*
X-44414D01*
Y47319D01*
X-44763D01*
X-45026Y47819D01*
X-44804Y48202D01*
X-44626Y48868D01*
Y49557D01*
X-44804Y50223D01*
X-45149Y50820D01*
X-45637Y51308D01*
X-46234Y51652D01*
X-46900Y51831D01*
D02*
G37*
G36*
X2831Y44276D02*
X1000D01*
Y42445D01*
X2831D01*
Y44276D01*
D02*
G37*
G36*
X-1000D02*
X-2831D01*
Y42445D01*
X-1000D01*
Y44276D01*
D02*
G37*
G36*
X50075Y43882D02*
X48244D01*
Y42051D01*
X50075D01*
Y43882D01*
D02*
G37*
G36*
X46244D02*
X44413D01*
Y42051D01*
X46244D01*
Y43882D01*
D02*
G37*
G36*
X34327D02*
X32496D01*
Y42051D01*
X34327D01*
Y43882D01*
D02*
G37*
G36*
X30496D02*
X28665D01*
Y42051D01*
X30496D01*
Y43882D01*
D02*
G37*
G36*
X18579D02*
X16748D01*
Y42051D01*
X18579D01*
Y43882D01*
D02*
G37*
G36*
X14748D02*
X12917D01*
Y42051D01*
X14748D01*
Y43882D01*
D02*
G37*
G36*
X-12917Y43488D02*
X-14748D01*
Y41658D01*
X-12917D01*
Y43488D01*
D02*
G37*
G36*
X-16748D02*
X-18579D01*
Y41658D01*
X-16748D01*
Y43488D01*
D02*
G37*
G36*
X-28665D02*
X-30496D01*
Y41658D01*
X-28665D01*
Y43488D01*
D02*
G37*
G36*
X-32496D02*
X-34327D01*
Y41658D01*
X-32496D01*
Y43488D01*
D02*
G37*
G36*
X-44414D02*
X-46244D01*
Y41658D01*
X-44414D01*
Y43488D01*
D02*
G37*
G36*
X-48244D02*
X-50075D01*
Y41658D01*
X-48244D01*
Y43488D01*
D02*
G37*
G36*
X118157Y44685D02*
X117276D01*
X116425Y44457D01*
X115662Y44016D01*
X115039Y43393D01*
X114598Y42630D01*
X114370Y41779D01*
Y40898D01*
X114598Y40047D01*
X115039Y39284D01*
X115662Y38661D01*
X116425Y38220D01*
X117276Y37992D01*
X118157D01*
X119008Y38220D01*
X119771Y38661D01*
X120394Y39284D01*
X120835Y40047D01*
X121063Y40898D01*
Y41779D01*
X120835Y42630D01*
X120394Y43393D01*
X119771Y44016D01*
X119008Y44457D01*
X118157Y44685D01*
D02*
G37*
G36*
X110283D02*
X109402D01*
X108551Y44457D01*
X107788Y44016D01*
X107165Y43393D01*
X106732Y42643D01*
X76772D01*
X76272Y42544D01*
X75849Y42261D01*
X74263Y40675D01*
X43183D01*
X42684Y40575D01*
X42261Y40293D01*
X38448Y36479D01*
X38165Y36056D01*
X38065Y35557D01*
Y26131D01*
X36861Y24927D01*
X33465D01*
X32965Y24827D01*
X32542Y24544D01*
X30573Y22576D01*
X30291Y22153D01*
X30191Y21653D01*
Y20380D01*
X29888Y20205D01*
X29401Y19718D01*
X29056Y19121D01*
X28878Y18455D01*
Y17765D01*
X29056Y17100D01*
X29278Y16716D01*
X29015Y16217D01*
X28665D01*
Y14386D01*
X31496D01*
X34327D01*
Y16217D01*
X33977D01*
X33714Y16716D01*
X33936Y17100D01*
X34114Y17765D01*
Y18455D01*
X33936Y19121D01*
X33591Y19718D01*
X33103Y20205D01*
X32800Y20380D01*
Y21113D01*
X34005Y22318D01*
X37402D01*
X37740Y22385D01*
X37838Y22331D01*
X37969Y22221D01*
X38079Y22090D01*
X38133Y21992D01*
X38065Y21654D01*
Y10383D01*
X36861Y9179D01*
X33465D01*
X32965Y9079D01*
X32542Y8796D01*
X30573Y6828D01*
X30291Y6405D01*
X30191Y5906D01*
Y4632D01*
X29888Y4457D01*
X29401Y3970D01*
X29056Y3373D01*
X28878Y2707D01*
Y2017D01*
X29056Y1352D01*
X29278Y968D01*
X29015Y468D01*
X28665D01*
Y-1362D01*
X31496D01*
Y-2362D01*
D01*
Y-1362D01*
X34327D01*
Y468D01*
X33977D01*
X33715Y968D01*
X33936Y1352D01*
X34114Y2017D01*
Y2707D01*
X33936Y3373D01*
X33591Y3970D01*
X33104Y4457D01*
X32801Y4632D01*
Y5365D01*
X34005Y6569D01*
X37402D01*
X37901Y6669D01*
X38324Y6951D01*
X40293Y8920D01*
X40575Y9343D01*
X40675Y9843D01*
Y21113D01*
X41879Y22318D01*
X55118D01*
X55617Y22417D01*
X56041Y22700D01*
X61564Y28223D01*
X107089D01*
X107280Y27761D01*
X107165Y27645D01*
X106732Y26895D01*
X103150D01*
X102650Y26796D01*
X102227Y26513D01*
X84893Y9179D01*
X52756D01*
X52257Y9079D01*
X51833Y8796D01*
X47927Y4890D01*
X47589Y4980D01*
X46899D01*
X46233Y4802D01*
X45636Y4457D01*
X45149Y3970D01*
X44804Y3373D01*
X44626Y2707D01*
Y2017D01*
X44804Y1352D01*
X45026Y968D01*
X44763Y468D01*
X44413D01*
Y-1362D01*
X47244D01*
X50075D01*
Y468D01*
X49725D01*
X49463Y968D01*
X49684Y1352D01*
X49862Y2017D01*
Y2707D01*
X49772Y3045D01*
X53296Y6569D01*
X85433D01*
X85932Y6669D01*
X86356Y6951D01*
X103690Y24286D01*
X106732D01*
X107165Y23536D01*
X107788Y22913D01*
X108551Y22472D01*
X109402Y22244D01*
X110283D01*
X111134Y22472D01*
X111897Y22913D01*
X112520Y23536D01*
X112961Y24299D01*
X113189Y25150D01*
Y26031D01*
X112961Y26882D01*
X112520Y27645D01*
X112405Y27761D01*
X112596Y28223D01*
X113239D01*
X114594Y26868D01*
X114370Y26031D01*
Y25150D01*
X114598Y24299D01*
X115039Y23536D01*
X115662Y22913D01*
X116425Y22472D01*
X117276Y22244D01*
X118157D01*
X119008Y22472D01*
X119771Y22913D01*
X120394Y23536D01*
X120835Y24299D01*
X121063Y25150D01*
Y26031D01*
X120835Y26882D01*
X120394Y27645D01*
X119771Y28268D01*
X119008Y28709D01*
X118157Y28937D01*
X117276D01*
X116439Y28713D01*
X114702Y30450D01*
X114279Y30733D01*
X113779Y30832D01*
X112596D01*
X112405Y31294D01*
X112520Y31410D01*
X112961Y32173D01*
X113189Y33024D01*
Y33905D01*
X112961Y34756D01*
X112520Y35519D01*
X111897Y36142D01*
X111134Y36583D01*
X110283Y36811D01*
X109402D01*
X108551Y36583D01*
X107788Y36142D01*
X107165Y35519D01*
X106724Y34756D01*
X106496Y33905D01*
Y33024D01*
X106724Y32173D01*
X107165Y31410D01*
X107280Y31294D01*
X107089Y30832D01*
X61024D01*
X60524Y30733D01*
X60101Y30450D01*
X54578Y24927D01*
X41339D01*
X41000Y24859D01*
X40902Y24913D01*
X40771Y25023D01*
X40661Y25154D01*
X40607Y25252D01*
X40675Y25591D01*
Y35016D01*
X43724Y38065D01*
X74803D01*
X75302Y38165D01*
X75726Y38448D01*
X77312Y40034D01*
X106732D01*
X107165Y39284D01*
X107788Y38661D01*
X108551Y38220D01*
X109402Y37992D01*
X110283D01*
X111134Y38220D01*
X111897Y38661D01*
X112520Y39284D01*
X112961Y40047D01*
X113189Y40898D01*
Y41779D01*
X112961Y42630D01*
X112520Y43393D01*
X111897Y44016D01*
X111134Y44457D01*
X110283Y44685D01*
D02*
G37*
G36*
X-117276Y44685D02*
X-118157D01*
X-119008Y44457D01*
X-119771Y44016D01*
X-120394Y43393D01*
X-120835Y42630D01*
X-121063Y41779D01*
Y40898D01*
X-120835Y40047D01*
X-120394Y39284D01*
X-119771Y38661D01*
X-119008Y38220D01*
X-118157Y37992D01*
X-117276D01*
X-116425Y38220D01*
X-115662Y38661D01*
X-115039Y39284D01*
X-114598Y40047D01*
X-114370Y40898D01*
Y41779D01*
X-114598Y42630D01*
X-115039Y43393D01*
X-115662Y44016D01*
X-116425Y44457D01*
X-117276Y44685D01*
D02*
G37*
G36*
X345Y36476D02*
X-345D01*
X-1011Y36298D01*
X-1608Y35953D01*
X-2095Y35466D01*
X-2440Y34869D01*
X-2618Y34203D01*
Y33514D01*
X-2440Y32848D01*
X-2219Y32465D01*
X-2481Y31964D01*
X-2831D01*
Y30134D01*
X-0D01*
X2831D01*
Y31964D01*
X2481D01*
X2218Y32465D01*
X2440Y32848D01*
X2618Y33514D01*
Y34203D01*
X2440Y34869D01*
X2095Y35466D01*
X1608Y35953D01*
X1010Y36298D01*
X345Y36476D01*
D02*
G37*
G36*
X-27829Y56423D02*
X-78740D01*
X-79239Y56323D01*
X-79663Y56041D01*
X-93060Y42643D01*
X-106732D01*
X-107165Y43393D01*
X-107788Y44016D01*
X-108551Y44457D01*
X-109402Y44685D01*
X-110283D01*
X-111134Y44457D01*
X-111897Y44016D01*
X-112520Y43393D01*
X-112961Y42630D01*
X-113189Y41779D01*
Y40898D01*
X-112961Y40047D01*
X-112520Y39284D01*
X-112344Y39108D01*
X-112551Y38608D01*
X-113878D01*
X-114377Y38508D01*
X-114801Y38226D01*
X-116439Y36587D01*
X-117276Y36811D01*
X-118157D01*
X-119008Y36583D01*
X-119771Y36142D01*
X-120394Y35519D01*
X-120835Y34756D01*
X-121063Y33905D01*
Y33024D01*
X-120835Y32173D01*
X-120394Y31410D01*
X-119771Y30787D01*
X-119008Y30346D01*
X-118157Y30118D01*
X-117276D01*
X-116425Y30346D01*
X-115662Y30787D01*
X-115039Y31410D01*
X-114598Y32173D01*
X-114370Y33024D01*
Y33905D01*
X-114594Y34742D01*
X-113338Y35999D01*
X-112694D01*
X-112597Y35764D01*
X-112532Y35499D01*
X-112961Y34756D01*
X-113189Y33905D01*
Y33024D01*
X-112961Y32173D01*
X-112520Y31410D01*
X-111897Y30787D01*
X-111134Y30346D01*
X-110283Y30118D01*
X-109402D01*
X-108551Y30346D01*
X-107788Y30787D01*
X-107165Y31410D01*
X-106724Y32173D01*
X-106496Y33024D01*
Y33905D01*
X-106724Y34756D01*
X-107153Y35499D01*
X-107088Y35764D01*
X-106991Y35999D01*
X-84744D01*
X-84245Y36098D01*
X-83822Y36381D01*
X-82137Y38065D01*
X-37549D01*
X-34024Y34541D01*
X-34114Y34203D01*
Y33514D01*
X-33936Y32848D01*
X-33715Y32465D01*
X-33977Y31964D01*
X-34327D01*
Y30134D01*
X-31496D01*
X-28665D01*
Y31964D01*
X-29015D01*
X-29278Y32465D01*
X-29057Y32848D01*
X-28878Y33514D01*
Y34203D01*
X-29057Y34869D01*
X-29401Y35466D01*
X-29889Y35953D01*
X-30486Y36298D01*
X-31152Y36476D01*
X-31841D01*
X-32179Y36386D01*
X-36086Y40293D01*
X-36509Y40575D01*
X-37008Y40675D01*
X-82677D01*
X-83176Y40575D01*
X-83600Y40293D01*
X-85285Y38608D01*
X-107134D01*
X-107341Y39108D01*
X-107165Y39284D01*
X-106732Y40034D01*
X-92520D01*
X-92020Y40133D01*
X-91597Y40416D01*
X-78200Y53813D01*
X-28370D01*
X-24927Y50371D01*
Y41732D01*
X-24827Y41233D01*
X-24544Y40810D01*
X-18276Y34541D01*
X-18366Y34203D01*
Y33514D01*
X-18188Y32848D01*
X-17967Y32465D01*
X-18229Y31964D01*
X-18579D01*
Y30134D01*
X-15748D01*
X-12917D01*
Y31964D01*
X-13267D01*
X-13530Y32465D01*
X-13308Y32848D01*
X-13130Y33514D01*
Y34203D01*
X-13308Y34869D01*
X-13653Y35466D01*
X-14141Y35953D01*
X-14738Y36298D01*
X-15403Y36476D01*
X-16093D01*
X-16431Y36386D01*
X-22318Y42272D01*
Y50911D01*
X-22417Y51410D01*
X-22700Y51833D01*
X-26907Y56041D01*
X-27330Y56323D01*
X-27413Y56340D01*
X-27829Y56423D01*
D02*
G37*
G36*
X47589Y36476D02*
X46899D01*
X46233Y36298D01*
X45636Y35953D01*
X45149Y35466D01*
X44804Y34869D01*
X44626Y34203D01*
Y33514D01*
X44804Y32848D01*
X45026Y32465D01*
X44763Y31964D01*
X44413D01*
Y30134D01*
X47244D01*
X50075D01*
Y31964D01*
X49725D01*
X49463Y32465D01*
X49684Y32848D01*
X49862Y33514D01*
Y34203D01*
X49684Y34869D01*
X49339Y35466D01*
X48852Y35953D01*
X48255Y36298D01*
X47589Y36476D01*
D02*
G37*
G36*
X-46900D02*
X-47589D01*
X-48255Y36298D01*
X-48852Y35953D01*
X-49339Y35466D01*
X-49684Y34869D01*
X-49862Y34203D01*
Y33514D01*
X-49684Y32848D01*
X-49463Y32465D01*
X-49725Y31964D01*
X-50075D01*
Y30134D01*
X-47244D01*
X-44414D01*
Y31964D01*
X-44763D01*
X-45026Y32465D01*
X-44804Y32848D01*
X-44626Y33514D01*
Y34203D01*
X-44804Y34869D01*
X-45149Y35466D01*
X-45637Y35953D01*
X-46234Y36298D01*
X-46900Y36476D01*
D02*
G37*
G36*
X16093D02*
X15403D01*
X14737Y36298D01*
X14140Y35953D01*
X13653Y35466D01*
X13308Y34869D01*
X13130Y34203D01*
Y33514D01*
X13308Y32848D01*
X13530Y32465D01*
X13267Y31964D01*
X12917D01*
Y30134D01*
X15748D01*
X18579D01*
Y31964D01*
X18229D01*
X17966Y32465D01*
X18188Y32848D01*
X18366Y33514D01*
Y34203D01*
X18188Y34869D01*
X17843Y35466D01*
X17356Y35953D01*
X16759Y36298D01*
X16093Y36476D01*
D02*
G37*
G36*
X118157Y36811D02*
X117276D01*
X116425Y36583D01*
X115662Y36142D01*
X115039Y35519D01*
X114598Y34756D01*
X114370Y33905D01*
Y33024D01*
X114598Y32173D01*
X115039Y31410D01*
X115662Y30787D01*
X116425Y30346D01*
X117276Y30118D01*
X118157D01*
X119008Y30346D01*
X119771Y30787D01*
X120394Y31410D01*
X120835Y32173D01*
X121063Y33024D01*
Y33905D01*
X120835Y34756D01*
X120394Y35519D01*
X119771Y36142D01*
X119008Y36583D01*
X118157Y36811D01*
D02*
G37*
G36*
X50075Y28134D02*
X48244D01*
Y26303D01*
X50075D01*
Y28134D01*
D02*
G37*
G36*
X46244D02*
X44413D01*
Y26303D01*
X46244D01*
Y28134D01*
D02*
G37*
G36*
X34327D02*
X32496D01*
Y26303D01*
X34327D01*
Y28134D01*
D02*
G37*
G36*
X30496D02*
X28665D01*
Y26303D01*
X30496D01*
Y28134D01*
D02*
G37*
G36*
X18579D02*
X16748D01*
Y26303D01*
X18579D01*
Y28134D01*
D02*
G37*
G36*
X14748D02*
X12917D01*
Y26303D01*
X14748D01*
Y28134D01*
D02*
G37*
G36*
X2831D02*
X1000D01*
Y26303D01*
X2831D01*
Y28134D01*
D02*
G37*
G36*
X-1000D02*
X-2831D01*
Y26303D01*
X-1000D01*
Y28134D01*
D02*
G37*
G36*
X-12917D02*
X-14748D01*
Y26303D01*
X-12917D01*
Y28134D01*
D02*
G37*
G36*
X-16748D02*
X-18579D01*
Y26303D01*
X-16748D01*
Y28134D01*
D02*
G37*
G36*
X-28665D02*
X-30496D01*
Y26303D01*
X-28665D01*
Y28134D01*
D02*
G37*
G36*
X-32496D02*
X-34327D01*
Y26303D01*
X-32496D01*
Y28134D01*
D02*
G37*
G36*
X-44414D02*
X-46244D01*
Y26303D01*
X-44414D01*
Y28134D01*
D02*
G37*
G36*
X-48244D02*
X-50075D01*
Y26303D01*
X-48244D01*
Y28134D01*
D02*
G37*
G36*
X-117276Y28937D02*
X-118157D01*
X-119008Y28709D01*
X-119771Y28268D01*
X-120394Y27645D01*
X-120835Y26882D01*
X-121063Y26031D01*
Y25150D01*
X-120835Y24299D01*
X-120394Y23536D01*
X-119771Y22913D01*
X-119008Y22472D01*
X-118157Y22244D01*
X-117276D01*
X-116425Y22472D01*
X-115662Y22913D01*
X-115039Y23536D01*
X-114598Y24299D01*
X-114370Y25150D01*
Y26031D01*
X-114598Y26882D01*
X-115039Y27645D01*
X-115662Y28268D01*
X-116425Y28709D01*
X-117276Y28937D01*
D02*
G37*
G36*
X-109402Y21063D02*
X-110283D01*
X-111134Y20835D01*
X-111897Y20394D01*
X-112520Y19771D01*
X-112961Y19008D01*
X-113189Y18157D01*
Y17276D01*
X-112961Y16425D01*
X-112520Y15662D01*
X-112344Y15486D01*
X-112551Y14986D01*
X-113141D01*
X-114594Y16439D01*
X-114370Y17276D01*
Y18157D01*
X-114598Y19008D01*
X-115039Y19771D01*
X-115662Y20394D01*
X-116425Y20835D01*
X-117276Y21063D01*
X-118157D01*
X-119008Y20835D01*
X-119771Y20394D01*
X-120394Y19771D01*
X-120835Y19008D01*
X-121063Y18157D01*
Y17276D01*
X-120835Y16425D01*
X-120394Y15662D01*
X-119771Y15039D01*
X-119008Y14598D01*
X-118157Y14370D01*
X-117276D01*
X-116439Y14594D01*
X-114604Y12759D01*
X-114180Y12476D01*
X-113681Y12376D01*
X-112694D01*
X-112597Y12142D01*
X-112532Y11876D01*
X-112961Y11134D01*
X-113189Y10283D01*
Y9402D01*
X-112961Y8551D01*
X-112520Y7788D01*
X-111897Y7165D01*
X-111134Y6724D01*
X-110283Y6496D01*
X-109402D01*
X-108551Y6724D01*
X-107788Y7165D01*
X-107165Y7788D01*
X-106724Y8551D01*
X-106496Y9402D01*
Y10283D01*
X-106724Y11134D01*
X-107153Y11876D01*
X-107088Y12142D01*
X-106991Y12376D01*
X-89025D01*
X-83600Y6951D01*
X-83176Y6669D01*
X-82677Y6569D01*
X-41339D01*
X-40839Y6669D01*
X-40416Y6951D01*
X-38448Y8920D01*
X-38165Y9343D01*
X-38065Y9843D01*
Y13239D01*
X-34893Y16412D01*
X-34233D01*
X-34179Y16323D01*
X-34327Y15823D01*
X-34327D01*
Y13992D01*
X-31496D01*
X-28665D01*
Y15823D01*
X-29015D01*
X-29278Y16323D01*
X-29057Y16706D01*
X-28878Y17372D01*
Y18061D01*
X-29057Y18727D01*
X-29401Y19324D01*
X-29889Y19812D01*
X-30486Y20156D01*
X-31152Y20335D01*
X-31841D01*
X-32507Y20156D01*
X-33104Y19812D01*
X-33591Y19324D01*
X-33766Y19021D01*
X-35433D01*
X-35932Y18922D01*
X-36356Y18639D01*
X-40293Y14702D01*
X-40575Y14279D01*
X-40675Y13780D01*
Y10383D01*
X-41879Y9179D01*
X-82137D01*
X-87562Y14604D01*
X-87985Y14886D01*
X-88484Y14986D01*
X-107134D01*
X-107341Y15486D01*
X-107165Y15662D01*
X-106724Y16425D01*
X-106496Y17276D01*
Y18157D01*
X-106724Y19008D01*
X-107165Y19771D01*
X-107788Y20394D01*
X-108551Y20835D01*
X-109402Y21063D01*
D02*
G37*
G36*
X345Y21122D02*
X-345D01*
X-1011Y20944D01*
X-1608Y20599D01*
X-2095Y20111D01*
X-2440Y19514D01*
X-2618Y18849D01*
Y18159D01*
X-2440Y17493D01*
X-2219Y17110D01*
X-2481Y16610D01*
X-2831D01*
Y14780D01*
X-0D01*
X2831D01*
Y16610D01*
X2481D01*
X2218Y17110D01*
X2440Y17493D01*
X2618Y18159D01*
Y18849D01*
X2440Y19514D01*
X2095Y20111D01*
X1608Y20599D01*
X1010Y20944D01*
X345Y21122D01*
D02*
G37*
G36*
X63337Y20728D02*
X62647D01*
X61981Y20550D01*
X61384Y20205D01*
X60897Y19718D01*
X60552Y19121D01*
X60374Y18455D01*
Y17765D01*
X60552Y17100D01*
X60774Y16716D01*
X60511Y16217D01*
X60161D01*
Y14386D01*
X62992D01*
X65823D01*
Y16217D01*
X65473D01*
X65210Y16716D01*
X65432Y17100D01*
X65610Y17765D01*
Y18455D01*
X65432Y19121D01*
X65087Y19718D01*
X64600Y20205D01*
X64003Y20550D01*
X63337Y20728D01*
D02*
G37*
G36*
X47589D02*
X46899D01*
X46233Y20550D01*
X45636Y20205D01*
X45149Y19718D01*
X44804Y19121D01*
X44626Y18455D01*
Y17765D01*
X44804Y17100D01*
X45026Y16716D01*
X44763Y16217D01*
X44413D01*
Y14386D01*
X47244D01*
X50075D01*
Y16217D01*
X49725D01*
X49463Y16716D01*
X49684Y17100D01*
X49862Y17765D01*
Y18455D01*
X49684Y19121D01*
X49339Y19718D01*
X48852Y20205D01*
X48255Y20550D01*
X47589Y20728D01*
D02*
G37*
G36*
X16093D02*
X15403D01*
X14737Y20550D01*
X14140Y20205D01*
X13653Y19718D01*
X13308Y19121D01*
X13130Y18455D01*
Y17765D01*
X13308Y17100D01*
X13530Y16716D01*
X13267Y16217D01*
X12917D01*
Y14386D01*
X15748D01*
X18579D01*
Y16217D01*
X18229D01*
X17966Y16716D01*
X18188Y17100D01*
X18366Y17765D01*
Y18455D01*
X18188Y19121D01*
X17843Y19718D01*
X17356Y20205D01*
X16759Y20550D01*
X16093Y20728D01*
D02*
G37*
G36*
X118157Y21063D02*
X117276D01*
X116425Y20835D01*
X115662Y20394D01*
X115039Y19771D01*
X114598Y19008D01*
X114370Y18157D01*
Y17276D01*
X114598Y16425D01*
X115039Y15662D01*
X115662Y15039D01*
X116425Y14598D01*
X117276Y14370D01*
X118157D01*
X119008Y14598D01*
X119771Y15039D01*
X120394Y15662D01*
X120835Y16425D01*
X121063Y17276D01*
Y18157D01*
X120835Y19008D01*
X120394Y19771D01*
X119771Y20394D01*
X119008Y20835D01*
X118157Y21063D01*
D02*
G37*
G36*
X110283D02*
X109402D01*
X108551Y20835D01*
X107788Y20394D01*
X107165Y19771D01*
X106724Y19008D01*
X106496Y18157D01*
Y17276D01*
X106724Y16425D01*
X107165Y15662D01*
X107788Y15039D01*
X108551Y14598D01*
X109402Y14370D01*
X110283D01*
X111134Y14598D01*
X111897Y15039D01*
X112520Y15662D01*
X112961Y16425D01*
X113189Y17276D01*
Y18157D01*
X112961Y19008D01*
X112520Y19771D01*
X111897Y20394D01*
X111134Y20835D01*
X110283Y21063D01*
D02*
G37*
G36*
X-62647Y20335D02*
X-63337D01*
X-64003Y20156D01*
X-64600Y19812D01*
X-65087Y19324D01*
X-65432Y18727D01*
X-65610Y18061D01*
Y17372D01*
X-65432Y16706D01*
X-65211Y16323D01*
X-65473Y15823D01*
X-65823D01*
Y13992D01*
X-62992D01*
X-60162D01*
Y15823D01*
X-60511D01*
X-60774Y16323D01*
X-60553Y16706D01*
X-60374Y17372D01*
Y18061D01*
X-60553Y18727D01*
X-60897Y19324D01*
X-61385Y19812D01*
X-61982Y20156D01*
X-62647Y20335D01*
D02*
G37*
G36*
X-46900D02*
X-47589D01*
X-48255Y20156D01*
X-48852Y19812D01*
X-49339Y19324D01*
X-49684Y18727D01*
X-49862Y18061D01*
Y17372D01*
X-49684Y16706D01*
X-49463Y16323D01*
X-49725Y15823D01*
X-50075D01*
Y13992D01*
X-47244D01*
X-44414D01*
Y15823D01*
X-44763D01*
X-45026Y16323D01*
X-44804Y16706D01*
X-44626Y17372D01*
Y18061D01*
X-44804Y18727D01*
X-45149Y19324D01*
X-45637Y19812D01*
X-46234Y20156D01*
X-46900Y20335D01*
D02*
G37*
G36*
X-109402Y28937D02*
X-110283D01*
X-111134Y28709D01*
X-111897Y28268D01*
X-112520Y27645D01*
X-112961Y26882D01*
X-113189Y26031D01*
Y25150D01*
X-112961Y24299D01*
X-112520Y23536D01*
X-111897Y22913D01*
X-111134Y22472D01*
X-110283Y22244D01*
X-109402D01*
X-108551Y22472D01*
X-107788Y22913D01*
X-107165Y23536D01*
X-106732Y24286D01*
X-57627D01*
X-56041Y22700D01*
X-55617Y22417D01*
X-55118Y22318D01*
X-22194D01*
X-18276Y18399D01*
X-18366Y18061D01*
Y17372D01*
X-18188Y16706D01*
X-17967Y16323D01*
X-18229Y15823D01*
X-18579D01*
Y13992D01*
X-15748D01*
X-12917D01*
Y15823D01*
X-13267D01*
X-13530Y16323D01*
X-13308Y16706D01*
X-13130Y17372D01*
Y18061D01*
X-13308Y18727D01*
X-13653Y19324D01*
X-14141Y19812D01*
X-14738Y20156D01*
X-15403Y20335D01*
X-16093D01*
X-16431Y20244D01*
X-20731Y24544D01*
X-21154Y24827D01*
X-21654Y24927D01*
X-54578D01*
X-56164Y26513D01*
X-56587Y26796D01*
X-57087Y26895D01*
X-106732D01*
X-107165Y27645D01*
X-107788Y28268D01*
X-108551Y28709D01*
X-109402Y28937D01*
D02*
G37*
G36*
X2831Y12780D02*
X1000D01*
Y10949D01*
X2831D01*
Y12780D01*
D02*
G37*
G36*
X-1000D02*
X-2831D01*
Y10949D01*
X-1000D01*
Y12780D01*
D02*
G37*
G36*
X110843Y13259D02*
Y10842D01*
X113259D01*
X113159Y11216D01*
X112690Y12028D01*
X112028Y12690D01*
X111216Y13159D01*
X110843Y13259D01*
D02*
G37*
G36*
X-116717Y13259D02*
Y10842D01*
X-114300D01*
X-114400Y11216D01*
X-114869Y12028D01*
X-115531Y12690D01*
X-116343Y13159D01*
X-116717Y13259D01*
D02*
G37*
G36*
X-118717D02*
X-119090Y13159D01*
X-119902Y12690D01*
X-120564Y12028D01*
X-121033Y11216D01*
X-121133Y10842D01*
X-118717D01*
Y13259D01*
D02*
G37*
G36*
X108843Y13259D02*
X108469Y13159D01*
X107657Y12690D01*
X106995Y12028D01*
X106526Y11216D01*
X106426Y10842D01*
X108843D01*
Y13259D01*
D02*
G37*
G36*
X65823Y12386D02*
X63992D01*
Y10555D01*
X65823D01*
Y12386D01*
D02*
G37*
G36*
X61992D02*
X60161D01*
Y10555D01*
X61992D01*
Y12386D01*
D02*
G37*
G36*
X50075D02*
X48244D01*
Y10555D01*
X50075D01*
Y12386D01*
D02*
G37*
G36*
X46244D02*
X44413D01*
Y10555D01*
X46244D01*
Y12386D01*
D02*
G37*
G36*
X34327D02*
X32496D01*
Y10555D01*
X34327D01*
Y12386D01*
D02*
G37*
G36*
X30496D02*
X28665D01*
Y10555D01*
X30496D01*
Y12386D01*
D02*
G37*
G36*
X18579D02*
X16748D01*
Y10555D01*
X18579D01*
Y12386D01*
D02*
G37*
G36*
X14748D02*
X12917D01*
Y10555D01*
X14748D01*
Y12386D01*
D02*
G37*
G36*
X-12917Y11992D02*
X-14748D01*
Y10161D01*
X-12917D01*
Y11992D01*
D02*
G37*
G36*
X-16748D02*
X-18579D01*
Y10161D01*
X-16748D01*
Y11992D01*
D02*
G37*
G36*
X-28665D02*
X-30496D01*
Y10161D01*
X-28665D01*
Y11992D01*
D02*
G37*
G36*
X-32496D02*
X-34327D01*
Y10161D01*
X-32496D01*
Y11992D01*
D02*
G37*
G36*
X-44414D02*
X-46244D01*
Y10161D01*
X-44414D01*
Y11992D01*
D02*
G37*
G36*
X-48244D02*
X-50075D01*
Y10161D01*
X-48244D01*
Y11992D01*
D02*
G37*
G36*
X-60162D02*
X-61992D01*
Y10161D01*
X-60162D01*
Y11992D01*
D02*
G37*
G36*
X-63992D02*
X-65823D01*
Y10161D01*
X-63992D01*
Y11992D01*
D02*
G37*
G36*
X118157Y13189D02*
X117276D01*
X116425Y12961D01*
X115662Y12520D01*
X115039Y11897D01*
X114598Y11134D01*
X114370Y10283D01*
Y9402D01*
X114598Y8551D01*
X115039Y7788D01*
X115662Y7165D01*
X116425Y6724D01*
X117276Y6496D01*
X118157D01*
X119008Y6724D01*
X119771Y7165D01*
X120394Y7788D01*
X120835Y8551D01*
X121063Y9402D01*
Y10283D01*
X120835Y11134D01*
X120394Y11897D01*
X119771Y12520D01*
X119008Y12961D01*
X118157Y13189D01*
D02*
G37*
G36*
X113259Y8843D02*
X110843D01*
Y6426D01*
X111216Y6526D01*
X112028Y6995D01*
X112690Y7657D01*
X113159Y8469D01*
X113259Y8843D01*
D02*
G37*
G36*
X108843D02*
X106426D01*
X106526Y8469D01*
X106995Y7657D01*
X107657Y6995D01*
X108469Y6526D01*
X108843Y6426D01*
Y8843D01*
D02*
G37*
G36*
X-114300D02*
X-116717D01*
Y6426D01*
X-116343Y6526D01*
X-115531Y6995D01*
X-114869Y7657D01*
X-114400Y8469D01*
X-114300Y8843D01*
D02*
G37*
G36*
X-118717D02*
X-121133D01*
X-121033Y8469D01*
X-120564Y7657D01*
X-119902Y6995D01*
X-119090Y6526D01*
X-118717Y6426D01*
Y8843D01*
D02*
G37*
G36*
X-44414Y5193D02*
X-46244D01*
Y3362D01*
X-44414D01*
Y5193D01*
D02*
G37*
G36*
X-60162D02*
X-61992D01*
Y3362D01*
X-60162D01*
Y5193D01*
D02*
G37*
G36*
X2831D02*
X1000D01*
Y3362D01*
X2831D01*
Y5193D01*
D02*
G37*
G36*
X-28665D02*
X-30496D01*
Y3362D01*
X-28665D01*
Y5193D01*
D02*
G37*
G36*
X-48244D02*
X-50075D01*
Y3362D01*
X-48244D01*
Y5193D01*
D02*
G37*
G36*
X-63992D02*
X-65823D01*
Y3362D01*
X-63992D01*
Y5193D01*
D02*
G37*
G36*
X-1000D02*
X-2831D01*
Y3362D01*
X-1000D01*
Y5193D01*
D02*
G37*
G36*
X-32496D02*
X-34327D01*
Y3362D01*
X-32496D01*
Y5193D01*
D02*
G37*
G36*
X160252Y13795D02*
X147457D01*
Y1000D01*
X160252D01*
Y13795D01*
D02*
G37*
G36*
X145457D02*
X132661D01*
Y1000D01*
X145457D01*
Y13795D01*
D02*
G37*
G36*
X-132661D02*
X-145457D01*
Y1000D01*
X-132661D01*
Y13795D01*
D02*
G37*
G36*
X-147457D02*
X-160252D01*
Y1000D01*
X-147457D01*
Y13795D01*
D02*
G37*
G36*
X-15403Y4980D02*
X-16093D01*
X-16759Y4802D01*
X-17356Y4457D01*
X-17843Y3970D01*
X-18188Y3373D01*
X-18366Y2707D01*
Y2017D01*
X-18188Y1352D01*
X-17967Y968D01*
X-18229Y468D01*
X-18579D01*
Y-1362D01*
X-15748D01*
X-12917D01*
Y468D01*
X-13267D01*
X-13530Y968D01*
X-13308Y1352D01*
X-13130Y2017D01*
Y2707D01*
X-13308Y3373D01*
X-13653Y3970D01*
X-14141Y4457D01*
X-14738Y4802D01*
X-15403Y4980D01*
D02*
G37*
G36*
X63337D02*
X62647D01*
X61981Y4802D01*
X61384Y4457D01*
X60897Y3970D01*
X60552Y3373D01*
X60374Y2707D01*
Y2017D01*
X60552Y1352D01*
X60774Y968D01*
X60511Y468D01*
X60161D01*
Y-1362D01*
X62992D01*
X65823D01*
Y468D01*
X65473D01*
X65210Y968D01*
X65432Y1352D01*
X65610Y2017D01*
Y2707D01*
X65432Y3373D01*
X65087Y3970D01*
X64600Y4457D01*
X64003Y4802D01*
X63337Y4980D01*
D02*
G37*
G36*
X16093D02*
X15403D01*
X14737Y4802D01*
X14140Y4457D01*
X13653Y3970D01*
X13308Y3373D01*
X13130Y2707D01*
Y2017D01*
X13308Y1352D01*
X13530Y968D01*
X13267Y468D01*
X12917D01*
Y-1362D01*
X15748D01*
X18579D01*
Y468D01*
X18229D01*
X17966Y968D01*
X18188Y1352D01*
X18366Y2017D01*
Y2707D01*
X18188Y3373D01*
X17843Y3970D01*
X17356Y4457D01*
X16759Y4802D01*
X16093Y4980D01*
D02*
G37*
G36*
X2831Y1362D02*
X-0D01*
X-2831D01*
Y-469D01*
X-2481D01*
X-2219Y-969D01*
X-2440Y-1352D01*
X-2618Y-2018D01*
Y-2707D01*
X-2440Y-3373D01*
X-2095Y-3970D01*
X-1608Y-4457D01*
X-1011Y-4802D01*
X-345Y-4980D01*
X345D01*
X1010Y-4802D01*
X1608Y-4457D01*
X2095Y-3970D01*
X2440Y-3373D01*
X2618Y-2707D01*
Y-2018D01*
X2440Y-1352D01*
X2218Y-969D01*
X2481Y-469D01*
X2831D01*
Y1362D01*
D02*
G37*
G36*
X-28665D02*
X-31496D01*
X-34327D01*
Y-469D01*
X-33977D01*
X-33715Y-969D01*
X-33936Y-1352D01*
X-34114Y-2018D01*
Y-2707D01*
X-33936Y-3373D01*
X-33591Y-3970D01*
X-33104Y-4457D01*
X-32507Y-4802D01*
X-31841Y-4980D01*
X-31151D01*
X-30486Y-4802D01*
X-29889Y-4457D01*
X-29401Y-3970D01*
X-29056Y-3373D01*
X-28878Y-2707D01*
Y-2018D01*
X-29056Y-1352D01*
X-29278Y-969D01*
X-29015Y-469D01*
X-28665D01*
Y1362D01*
D02*
G37*
G36*
X-44414D02*
X-47244D01*
X-50075D01*
Y-469D01*
X-49725D01*
X-49463Y-969D01*
X-49684Y-1352D01*
X-49862Y-2018D01*
Y-2707D01*
X-49772Y-3045D01*
X-53296Y-6569D01*
X-70866D01*
X-71365Y-6669D01*
X-71789Y-6951D01*
X-89123Y-24286D01*
X-106732D01*
X-107165Y-23536D01*
X-107788Y-22913D01*
X-108551Y-22472D01*
X-109402Y-22244D01*
X-110283D01*
X-111134Y-22472D01*
X-111897Y-22913D01*
X-112520Y-23536D01*
X-112961Y-24299D01*
X-113189Y-25150D01*
Y-26031D01*
X-112961Y-26882D01*
X-112520Y-27645D01*
X-111897Y-28268D01*
X-111134Y-28709D01*
X-110283Y-28937D01*
X-109402D01*
X-108551Y-28709D01*
X-107788Y-28268D01*
X-107165Y-27645D01*
X-106732Y-26895D01*
X-88583D01*
X-88083Y-26796D01*
X-87660Y-26513D01*
X-70326Y-9179D01*
X-52756D01*
X-52257Y-9079D01*
X-51833Y-8796D01*
X-47927Y-4890D01*
X-47589Y-4980D01*
X-46900D01*
X-46234Y-4802D01*
X-45637Y-4457D01*
X-45149Y-3970D01*
X-44804Y-3373D01*
X-44626Y-2707D01*
Y-2018D01*
X-44804Y-1352D01*
X-45026Y-969D01*
X-44763Y-469D01*
X-44414D01*
Y1362D01*
D02*
G37*
G36*
X-60162D02*
X-62992D01*
X-65823D01*
Y-469D01*
X-65473D01*
X-65211Y-969D01*
X-65432Y-1352D01*
X-65610Y-2018D01*
Y-2707D01*
X-65432Y-3373D01*
X-65087Y-3970D01*
X-64600Y-4457D01*
X-64003Y-4802D01*
X-63337Y-4980D01*
X-62647D01*
X-61982Y-4802D01*
X-61385Y-4457D01*
X-60897Y-3970D01*
X-60553Y-3373D01*
X-60374Y-2707D01*
Y-2018D01*
X-60553Y-1352D01*
X-60774Y-969D01*
X-60511Y-469D01*
X-60162D01*
Y1362D01*
D02*
G37*
G36*
X65823Y-3362D02*
X63992D01*
Y-5193D01*
X65823D01*
Y-3362D01*
D02*
G37*
G36*
X61992D02*
X60161D01*
Y-5193D01*
X61992D01*
Y-3362D01*
D02*
G37*
G36*
X50075D02*
X48244D01*
Y-5193D01*
X50075D01*
Y-3362D01*
D02*
G37*
G36*
X46244D02*
X44413D01*
Y-5193D01*
X46244D01*
Y-3362D01*
D02*
G37*
G36*
X34327Y-3362D02*
X32496D01*
Y-5193D01*
X34327D01*
Y-3362D01*
D02*
G37*
G36*
X30496D02*
X28665D01*
Y-5193D01*
X30496D01*
Y-3362D01*
D02*
G37*
G36*
X18579Y-3362D02*
X16748D01*
Y-5193D01*
X18579D01*
Y-3362D01*
D02*
G37*
G36*
X14748D02*
X12917D01*
Y-5193D01*
X14748D01*
Y-3362D01*
D02*
G37*
G36*
X-12917Y-3362D02*
X-14748D01*
Y-5193D01*
X-12917D01*
Y-3362D01*
D02*
G37*
G36*
X-16748D02*
X-18579D01*
Y-5193D01*
X-16748D01*
Y-3362D01*
D02*
G37*
G36*
X113402Y-6284D02*
X110843D01*
Y-8843D01*
X113402D01*
Y-6284D01*
D02*
G37*
G36*
X-108843Y-6426D02*
Y-8843D01*
X-106426D01*
X-106526Y-8469D01*
X-106995Y-7657D01*
X-107657Y-6995D01*
X-108469Y-6526D01*
X-108843Y-6426D01*
D02*
G37*
G36*
X-114157Y-6284D02*
X-116717D01*
Y-8843D01*
X-114157D01*
Y-6284D01*
D02*
G37*
G36*
X-110843Y-6426D02*
X-111216Y-6526D01*
X-112028Y-6995D01*
X-112690Y-7657D01*
X-113159Y-8469D01*
X-113259Y-8843D01*
X-110843D01*
Y-6426D01*
D02*
G37*
G36*
X108843Y-6284D02*
X106283D01*
Y-8843D01*
X108843D01*
Y-6284D01*
D02*
G37*
G36*
X-118717D02*
X-121276D01*
Y-8843D01*
X-118717D01*
Y-6284D01*
D02*
G37*
G36*
X118717Y-6426D02*
Y-8843D01*
X121133D01*
X121033Y-8469D01*
X120564Y-7657D01*
X119902Y-6995D01*
X119090Y-6526D01*
X118717Y-6426D01*
D02*
G37*
G36*
X116717Y-6426D02*
X116343Y-6526D01*
X115531Y-6995D01*
X114869Y-7657D01*
X114400Y-8469D01*
X114300Y-8843D01*
X116717D01*
Y-6426D01*
D02*
G37*
G36*
X65823Y-10555D02*
X63992D01*
Y-12386D01*
X65823D01*
Y-10555D01*
D02*
G37*
G36*
X50075D02*
X48244D01*
Y-12386D01*
X50075D01*
Y-10555D01*
D02*
G37*
G36*
X34327D02*
X32496D01*
Y-12386D01*
X34327D01*
Y-10555D01*
D02*
G37*
G36*
X2831D02*
X1000D01*
Y-12386D01*
X2831D01*
Y-10555D01*
D02*
G37*
G36*
X-12917D02*
X-14748D01*
Y-12386D01*
X-12917D01*
Y-10555D01*
D02*
G37*
G36*
X-28665D02*
X-30496D01*
Y-12386D01*
X-28665D01*
Y-10555D01*
D02*
G37*
G36*
X-44414D02*
X-46244D01*
Y-12386D01*
X-44414D01*
Y-10555D01*
D02*
G37*
G36*
X61992D02*
X60161D01*
Y-12386D01*
X61992D01*
Y-10555D01*
D02*
G37*
G36*
X46244D02*
X44413D01*
Y-12386D01*
X46244D01*
Y-10555D01*
D02*
G37*
G36*
X30496D02*
X28665D01*
Y-12386D01*
X30496D01*
Y-10555D01*
D02*
G37*
G36*
X-1000D02*
X-2831D01*
Y-12386D01*
X-1000D01*
Y-10555D01*
D02*
G37*
G36*
X-16748D02*
X-18579D01*
Y-12386D01*
X-16748D01*
Y-10555D01*
D02*
G37*
G36*
X-32496D02*
X-34327D01*
Y-12386D01*
X-32496D01*
Y-10555D01*
D02*
G37*
G36*
X-48244D02*
X-50075D01*
Y-12386D01*
X-48244D01*
Y-10555D01*
D02*
G37*
G36*
X116717Y-10842D02*
X114300D01*
X114400Y-11216D01*
X114869Y-12028D01*
X115531Y-12690D01*
X116343Y-13159D01*
X116717Y-13259D01*
Y-10842D01*
D02*
G37*
G36*
X-106426Y-10842D02*
X-108843D01*
Y-13259D01*
X-108469Y-13159D01*
X-107657Y-12690D01*
X-106995Y-12028D01*
X-106526Y-11216D01*
X-106426Y-10842D01*
D02*
G37*
G36*
X-110843D02*
X-113259D01*
X-113159Y-11216D01*
X-112690Y-12028D01*
X-112028Y-12690D01*
X-111216Y-13159D01*
X-110843Y-13259D01*
Y-10842D01*
D02*
G37*
G36*
X121133Y-10842D02*
X118717D01*
Y-13259D01*
X119090Y-13159D01*
X119902Y-12690D01*
X120564Y-12028D01*
X121033Y-11216D01*
X121133Y-10842D01*
D02*
G37*
G36*
X113402Y-10842D02*
X110843D01*
Y-13402D01*
X113402D01*
Y-10842D01*
D02*
G37*
G36*
X108843D02*
X106283D01*
Y-13402D01*
X108843D01*
Y-10842D01*
D02*
G37*
G36*
X-114157D02*
X-116717D01*
Y-13402D01*
X-114157D01*
Y-10842D01*
D02*
G37*
G36*
X-118717D02*
X-121276D01*
Y-13402D01*
X-118717D01*
Y-10842D01*
D02*
G37*
G36*
X160252Y-1000D02*
X147457D01*
Y-13795D01*
X160252D01*
Y-1000D01*
D02*
G37*
G36*
X145457D02*
X132661D01*
Y-13795D01*
X145457D01*
Y-1000D01*
D02*
G37*
G36*
X-132661D02*
X-145457D01*
Y-13795D01*
X-132661D01*
Y-1000D01*
D02*
G37*
G36*
X-147457D02*
X-160252D01*
Y-13795D01*
X-147457D01*
Y-1000D01*
D02*
G37*
G36*
X-108843Y-14300D02*
Y-16716D01*
X-106426D01*
X-106526Y-16343D01*
X-106995Y-15531D01*
X-107657Y-14869D01*
X-108469Y-14400D01*
X-108843Y-14300D01*
D02*
G37*
G36*
X-110843Y-14300D02*
X-111216Y-14400D01*
X-112028Y-14869D01*
X-112690Y-15531D01*
X-113159Y-16343D01*
X-113259Y-16716D01*
X-110843D01*
Y-14300D01*
D02*
G37*
G36*
X118717Y-14300D02*
Y-16716D01*
X121133D01*
X121033Y-16343D01*
X120564Y-15531D01*
X119902Y-14869D01*
X119090Y-14400D01*
X118717Y-14300D01*
D02*
G37*
G36*
X116717Y-14300D02*
X116343Y-14400D01*
X115531Y-14869D01*
X114869Y-15531D01*
X114400Y-16343D01*
X114300Y-16716D01*
X116717D01*
Y-14300D01*
D02*
G37*
G36*
X-62647Y-10768D02*
X-63337D01*
X-64003Y-10946D01*
X-64600Y-11291D01*
X-65087Y-11778D01*
X-65432Y-12375D01*
X-65610Y-13041D01*
Y-13731D01*
X-65432Y-14397D01*
X-65211Y-14780D01*
X-65473Y-15280D01*
X-65823D01*
Y-17110D01*
X-62992D01*
X-60162D01*
Y-15280D01*
X-60511D01*
X-60774Y-14780D01*
X-60553Y-14397D01*
X-60374Y-13731D01*
Y-13041D01*
X-60553Y-12375D01*
X-60897Y-11778D01*
X-61385Y-11291D01*
X-61982Y-10946D01*
X-62647Y-10768D01*
D02*
G37*
G36*
X65823Y-14386D02*
X62992D01*
X60161D01*
Y-16217D01*
X60511D01*
X60774Y-16717D01*
X60552Y-17100D01*
X60374Y-17766D01*
Y-18455D01*
X60552Y-19121D01*
X60897Y-19718D01*
X61384Y-20205D01*
X61981Y-20550D01*
X62647Y-20728D01*
X63337D01*
X64003Y-20550D01*
X64600Y-20205D01*
X65087Y-19718D01*
X65432Y-19121D01*
X65610Y-18455D01*
Y-17766D01*
X65432Y-17100D01*
X65210Y-16717D01*
X65473Y-16217D01*
X65823D01*
Y-14386D01*
D02*
G37*
G36*
X50075D02*
X47244D01*
X44413D01*
Y-16217D01*
X44763D01*
X45026Y-16717D01*
X44804Y-17100D01*
X44626Y-17766D01*
Y-18455D01*
X44804Y-19121D01*
X45149Y-19718D01*
X45636Y-20205D01*
X46233Y-20550D01*
X46899Y-20728D01*
X47589D01*
X48255Y-20550D01*
X48852Y-20205D01*
X49339Y-19718D01*
X49684Y-19121D01*
X49862Y-18455D01*
Y-17766D01*
X49684Y-17100D01*
X49463Y-16717D01*
X49725Y-16217D01*
X50075D01*
Y-14386D01*
D02*
G37*
G36*
X34327D02*
X31496D01*
X28665D01*
Y-16217D01*
X29015D01*
X29278Y-16717D01*
X29056Y-17100D01*
X28878Y-17766D01*
Y-18455D01*
X29056Y-19121D01*
X29401Y-19718D01*
X29888Y-20205D01*
X30485Y-20550D01*
X31151Y-20728D01*
X31841D01*
X32506Y-20550D01*
X33104Y-20205D01*
X33591Y-19718D01*
X33936Y-19121D01*
X34114Y-18455D01*
Y-17766D01*
X33936Y-17100D01*
X33715Y-16717D01*
X33977Y-16217D01*
X34327D01*
Y-14386D01*
D02*
G37*
G36*
X2831D02*
X-0D01*
X-2831D01*
Y-16217D01*
X-2481D01*
X-2219Y-16717D01*
X-2440Y-17100D01*
X-2618Y-17766D01*
Y-18455D01*
X-2528Y-18793D01*
X-8796Y-25062D01*
X-9079Y-25485D01*
X-9179Y-25984D01*
Y-52609D01*
X-10383Y-53813D01*
X-23622D01*
X-24121Y-53913D01*
X-24544Y-54196D01*
X-34005Y-63656D01*
X-106732D01*
X-107165Y-62906D01*
X-107788Y-62283D01*
X-108551Y-61842D01*
X-109402Y-61614D01*
X-110283D01*
X-111134Y-61842D01*
X-111897Y-62283D01*
X-112520Y-62906D01*
X-112961Y-63669D01*
X-113189Y-64520D01*
Y-65401D01*
X-112961Y-66252D01*
X-112520Y-67015D01*
X-111897Y-67638D01*
X-111134Y-68079D01*
X-110283Y-68307D01*
X-109402D01*
X-108551Y-68079D01*
X-107788Y-67638D01*
X-107165Y-67015D01*
X-106732Y-66265D01*
X-33465D01*
X-32965Y-66166D01*
X-32542Y-65883D01*
X-23082Y-56423D01*
X-9843D01*
X-9343Y-56323D01*
X-8920Y-56041D01*
X-6951Y-54072D01*
X-6669Y-53649D01*
X-6569Y-53150D01*
Y-26525D01*
X-683Y-20638D01*
X-345Y-20728D01*
X345D01*
X1010Y-20550D01*
X1608Y-20205D01*
X2095Y-19718D01*
X2440Y-19121D01*
X2618Y-18455D01*
Y-17766D01*
X2440Y-17100D01*
X2218Y-16717D01*
X2481Y-16217D01*
X2831D01*
Y-14386D01*
D02*
G37*
G36*
X-12917D02*
X-15748D01*
X-18579D01*
Y-16217D01*
X-18229D01*
X-17967Y-16717D01*
X-18188Y-17100D01*
X-18366Y-17766D01*
Y-18455D01*
X-18188Y-19121D01*
X-17843Y-19718D01*
X-17356Y-20205D01*
X-16759Y-20550D01*
X-16093Y-20728D01*
X-15403D01*
X-14738Y-20550D01*
X-14141Y-20205D01*
X-13653Y-19718D01*
X-13308Y-19121D01*
X-13130Y-18455D01*
Y-17766D01*
X-13308Y-17100D01*
X-13530Y-16717D01*
X-13267Y-16217D01*
X-12917D01*
Y-14386D01*
D02*
G37*
G36*
X-28665D02*
X-31496D01*
X-34327D01*
Y-16217D01*
X-33977D01*
X-33715Y-16717D01*
X-33936Y-17100D01*
X-34114Y-17766D01*
Y-18455D01*
X-34024Y-18793D01*
X-37548Y-22318D01*
X-52756D01*
X-53255Y-22417D01*
X-53678Y-22700D01*
X-74950Y-43971D01*
X-107089D01*
X-107280Y-43509D01*
X-107165Y-43393D01*
X-106724Y-42630D01*
X-106496Y-41779D01*
Y-40898D01*
X-106724Y-40047D01*
X-107165Y-39284D01*
X-107788Y-38661D01*
X-108551Y-38220D01*
X-109402Y-37992D01*
X-110283D01*
X-111134Y-38220D01*
X-111897Y-38661D01*
X-112520Y-39284D01*
X-112961Y-40047D01*
X-113189Y-40898D01*
Y-41779D01*
X-112961Y-42630D01*
X-112520Y-43393D01*
X-112405Y-43509D01*
X-112596Y-43971D01*
X-113239D01*
X-114594Y-42616D01*
X-114370Y-41779D01*
Y-40898D01*
X-114598Y-40047D01*
X-115039Y-39284D01*
X-115662Y-38661D01*
X-116425Y-38220D01*
X-117276Y-37992D01*
X-118157D01*
X-119008Y-38220D01*
X-119771Y-38661D01*
X-120394Y-39284D01*
X-120835Y-40047D01*
X-121063Y-40898D01*
Y-41779D01*
X-120835Y-42630D01*
X-120394Y-43393D01*
X-119771Y-44016D01*
X-119008Y-44457D01*
X-118157Y-44685D01*
X-117276D01*
X-116439Y-44461D01*
X-114702Y-46198D01*
X-114279Y-46481D01*
X-113779Y-46580D01*
X-112596D01*
X-112405Y-47042D01*
X-112520Y-47158D01*
X-112961Y-47921D01*
X-113189Y-48772D01*
Y-49653D01*
X-112961Y-50504D01*
X-112520Y-51267D01*
X-112405Y-51383D01*
X-112596Y-51845D01*
X-113239D01*
X-114594Y-50490D01*
X-114370Y-49653D01*
Y-48772D01*
X-114598Y-47921D01*
X-115039Y-47158D01*
X-115662Y-46535D01*
X-116425Y-46094D01*
X-117276Y-45866D01*
X-118157D01*
X-119008Y-46094D01*
X-119771Y-46535D01*
X-120394Y-47158D01*
X-120835Y-47921D01*
X-121063Y-48772D01*
Y-49653D01*
X-120835Y-50504D01*
X-120394Y-51267D01*
X-119771Y-51890D01*
X-119008Y-52331D01*
X-118157Y-52559D01*
X-117276D01*
X-116439Y-52335D01*
X-114702Y-54072D01*
X-114279Y-54355D01*
X-113779Y-54454D01*
X-112596D01*
X-112405Y-54916D01*
X-112520Y-55032D01*
X-112961Y-55795D01*
X-113189Y-56646D01*
Y-57527D01*
X-112961Y-58378D01*
X-112520Y-59141D01*
X-111897Y-59764D01*
X-111134Y-60205D01*
X-110283Y-60433D01*
X-109402D01*
X-108551Y-60205D01*
X-107788Y-59764D01*
X-107165Y-59141D01*
X-106724Y-58378D01*
X-106496Y-57527D01*
Y-56646D01*
X-106724Y-55795D01*
X-107165Y-55032D01*
X-107280Y-54916D01*
X-107089Y-54454D01*
X-70866D01*
X-70367Y-54355D01*
X-69944Y-54072D01*
X-56546Y-40675D01*
X-21260D01*
X-20761Y-40575D01*
X-20337Y-40293D01*
X-16431Y-36386D01*
X-16093Y-36476D01*
X-15403D01*
X-14738Y-36298D01*
X-14141Y-35953D01*
X-13653Y-35466D01*
X-13308Y-34869D01*
X-13130Y-34203D01*
Y-33514D01*
X-13308Y-32848D01*
X-13530Y-32465D01*
X-13267Y-31965D01*
X-12917D01*
Y-30134D01*
X-15748D01*
X-18579D01*
Y-31965D01*
X-18229D01*
X-17967Y-32465D01*
X-18188Y-32848D01*
X-18366Y-33514D01*
Y-34203D01*
X-18276Y-34541D01*
X-21800Y-38065D01*
X-57087D01*
X-57586Y-38165D01*
X-58009Y-38448D01*
X-71407Y-51845D01*
X-107089D01*
X-107280Y-51383D01*
X-107165Y-51267D01*
X-106724Y-50504D01*
X-106496Y-49653D01*
Y-48772D01*
X-106724Y-47921D01*
X-107165Y-47158D01*
X-107280Y-47042D01*
X-107089Y-46580D01*
X-74410D01*
X-73910Y-46481D01*
X-73487Y-46198D01*
X-52215Y-24927D01*
X-37008D01*
X-36509Y-24827D01*
X-36085Y-24544D01*
X-32179Y-20638D01*
X-31841Y-20728D01*
X-31151D01*
X-30486Y-20550D01*
X-29889Y-20205D01*
X-29401Y-19718D01*
X-29056Y-19121D01*
X-28878Y-18455D01*
Y-17766D01*
X-29056Y-17100D01*
X-29278Y-16717D01*
X-29015Y-16217D01*
X-28665D01*
Y-14386D01*
D02*
G37*
G36*
X-44414D02*
X-47244D01*
X-50075D01*
Y-16217D01*
X-49725D01*
X-49463Y-16717D01*
X-49684Y-17100D01*
X-49862Y-17766D01*
Y-18455D01*
X-49684Y-19121D01*
X-49339Y-19718D01*
X-48852Y-20205D01*
X-48255Y-20550D01*
X-47589Y-20728D01*
X-46900D01*
X-46234Y-20550D01*
X-45637Y-20205D01*
X-45149Y-19718D01*
X-44804Y-19121D01*
X-44626Y-18455D01*
Y-17766D01*
X-44804Y-17100D01*
X-45026Y-16717D01*
X-44763Y-16217D01*
X-44414D01*
Y-14386D01*
D02*
G37*
G36*
X18579Y-19110D02*
X16748D01*
Y-20941D01*
X18579D01*
Y-19110D01*
D02*
G37*
G36*
X14748D02*
X12917D01*
Y-20941D01*
X14748D01*
Y-19110D01*
D02*
G37*
G36*
X-60162D02*
X-61992D01*
Y-20941D01*
X-60162D01*
Y-19110D01*
D02*
G37*
G36*
X-63992D02*
X-65823D01*
Y-20941D01*
X-63992D01*
Y-19110D01*
D02*
G37*
G36*
X94488Y-6569D02*
X21260D01*
X20761Y-6669D01*
X20337Y-6951D01*
X16431Y-10858D01*
X16093Y-10768D01*
X15403D01*
X14737Y-10946D01*
X14140Y-11291D01*
X13653Y-11778D01*
X13308Y-12375D01*
X13130Y-13041D01*
Y-13731D01*
X13308Y-14397D01*
X13530Y-14780D01*
X13267Y-15280D01*
X12917D01*
Y-17110D01*
X15748D01*
X18579D01*
Y-15280D01*
X18229D01*
X17966Y-14780D01*
X18188Y-14397D01*
X18366Y-13731D01*
Y-13041D01*
X18275Y-12703D01*
X21800Y-9179D01*
X93948D01*
X103408Y-18639D01*
X103831Y-18922D01*
X104331Y-19021D01*
X106732D01*
X107165Y-19771D01*
X107788Y-20394D01*
X108551Y-20835D01*
X109402Y-21063D01*
X110283D01*
X111134Y-20835D01*
X111897Y-20394D01*
X112520Y-19771D01*
X112961Y-19008D01*
X113189Y-18157D01*
Y-17276D01*
X112961Y-16425D01*
X112520Y-15662D01*
X111897Y-15039D01*
X111134Y-14598D01*
X110283Y-14370D01*
X109402D01*
X108551Y-14598D01*
X107788Y-15039D01*
X107165Y-15662D01*
X106732Y-16412D01*
X104871D01*
X95411Y-6951D01*
X94987Y-6669D01*
X94905Y-6652D01*
X94488Y-6569D01*
D02*
G37*
G36*
X-117276Y-14370D02*
X-118157D01*
X-119008Y-14598D01*
X-119771Y-15039D01*
X-120394Y-15662D01*
X-120835Y-16425D01*
X-121063Y-17276D01*
Y-18157D01*
X-120835Y-19008D01*
X-120394Y-19771D01*
X-119771Y-20394D01*
X-119008Y-20835D01*
X-118157Y-21063D01*
X-117276D01*
X-116425Y-20835D01*
X-115662Y-20394D01*
X-115039Y-19771D01*
X-114598Y-19008D01*
X-114370Y-18157D01*
Y-17276D01*
X-114598Y-16425D01*
X-115039Y-15662D01*
X-115662Y-15039D01*
X-116425Y-14598D01*
X-117276Y-14370D01*
D02*
G37*
G36*
X116717Y-18717D02*
X114300D01*
X114400Y-19090D01*
X114869Y-19902D01*
X115531Y-20564D01*
X116343Y-21033D01*
X116717Y-21133D01*
Y-18717D01*
D02*
G37*
G36*
X-110843Y-18717D02*
X-113259D01*
X-113159Y-19090D01*
X-112690Y-19902D01*
X-112028Y-20564D01*
X-111216Y-21033D01*
X-110843Y-21133D01*
Y-18717D01*
D02*
G37*
G36*
X-106426D02*
X-108843D01*
Y-21133D01*
X-108469Y-21033D01*
X-107657Y-20564D01*
X-106995Y-19902D01*
X-106526Y-19090D01*
X-106426Y-18717D01*
D02*
G37*
G36*
X121133Y-18717D02*
X118717D01*
Y-21133D01*
X119090Y-21033D01*
X119902Y-20564D01*
X120564Y-19902D01*
X121033Y-19090D01*
X121133Y-18717D01*
D02*
G37*
G36*
X-44414Y-26303D02*
X-46244D01*
Y-28134D01*
X-44414D01*
Y-26303D01*
D02*
G37*
G36*
X-12917D02*
X-14748D01*
Y-28134D01*
X-12917D01*
Y-26303D01*
D02*
G37*
G36*
X-28665D02*
X-30496D01*
Y-28134D01*
X-28665D01*
Y-26303D01*
D02*
G37*
G36*
X50075D02*
X48244D01*
Y-28134D01*
X50075D01*
Y-26303D01*
D02*
G37*
G36*
X34327D02*
X32496D01*
Y-28134D01*
X34327D01*
Y-26303D01*
D02*
G37*
G36*
X18579D02*
X16748D01*
Y-28134D01*
X18579D01*
Y-26303D01*
D02*
G37*
G36*
X-48244D02*
X-50075D01*
Y-28134D01*
X-48244D01*
Y-26303D01*
D02*
G37*
G36*
X-16748D02*
X-18579D01*
Y-28134D01*
X-16748D01*
Y-26303D01*
D02*
G37*
G36*
X-32496D02*
X-34327D01*
Y-28134D01*
X-32496D01*
Y-26303D01*
D02*
G37*
G36*
X46244D02*
X44413D01*
Y-28134D01*
X46244D01*
Y-26303D01*
D02*
G37*
G36*
X30496D02*
X28665D01*
Y-28134D01*
X30496D01*
Y-26303D01*
D02*
G37*
G36*
X14748D02*
X12917D01*
Y-28134D01*
X14748D01*
Y-26303D01*
D02*
G37*
G36*
X118157Y-22244D02*
X117276D01*
X116425Y-22472D01*
X115662Y-22913D01*
X115039Y-23536D01*
X114598Y-24299D01*
X114370Y-25150D01*
Y-26031D01*
X114598Y-26882D01*
X115039Y-27645D01*
X115662Y-28268D01*
X116425Y-28709D01*
X117276Y-28937D01*
X118157D01*
X119008Y-28709D01*
X119771Y-28268D01*
X120394Y-27645D01*
X120835Y-26882D01*
X121063Y-26031D01*
Y-25150D01*
X120835Y-24299D01*
X120394Y-23536D01*
X119771Y-22913D01*
X119008Y-22472D01*
X118157Y-22244D01*
D02*
G37*
G36*
X110283D02*
X109402D01*
X108551Y-22472D01*
X107788Y-22913D01*
X107165Y-23536D01*
X106724Y-24299D01*
X106496Y-25150D01*
Y-26031D01*
X106724Y-26882D01*
X107165Y-27645D01*
X107788Y-28268D01*
X108551Y-28709D01*
X109402Y-28937D01*
X110283D01*
X111134Y-28709D01*
X111897Y-28268D01*
X112520Y-27645D01*
X112961Y-26882D01*
X113189Y-26031D01*
Y-25150D01*
X112961Y-24299D01*
X112520Y-23536D01*
X111897Y-22913D01*
X111134Y-22472D01*
X110283Y-22244D01*
D02*
G37*
G36*
X-117276D02*
X-118157D01*
X-119008Y-22472D01*
X-119771Y-22913D01*
X-120394Y-23536D01*
X-120835Y-24299D01*
X-121063Y-25150D01*
Y-26031D01*
X-120835Y-26882D01*
X-120394Y-27645D01*
X-119771Y-28268D01*
X-119008Y-28709D01*
X-118157Y-28937D01*
X-117276D01*
X-116425Y-28709D01*
X-115662Y-28268D01*
X-115039Y-27645D01*
X-114598Y-26882D01*
X-114370Y-26031D01*
Y-25150D01*
X-114598Y-24299D01*
X-115039Y-23536D01*
X-115662Y-22913D01*
X-116425Y-22472D01*
X-117276Y-22244D01*
D02*
G37*
G36*
X50075Y-30134D02*
X47244D01*
X44413D01*
Y-31965D01*
X44763D01*
X45026Y-32465D01*
X44804Y-32848D01*
X44626Y-33514D01*
Y-34203D01*
X44804Y-34869D01*
X45149Y-35466D01*
X45636Y-35953D01*
X46233Y-36298D01*
X46899Y-36476D01*
X47589D01*
X48255Y-36298D01*
X48852Y-35953D01*
X49339Y-35466D01*
X49684Y-34869D01*
X49862Y-34203D01*
Y-33514D01*
X49684Y-32848D01*
X49463Y-32465D01*
X49725Y-31965D01*
X50075D01*
Y-30134D01*
D02*
G37*
G36*
X18579D02*
X15748D01*
X12917D01*
Y-31965D01*
X13267D01*
X13530Y-32465D01*
X13308Y-32848D01*
X13130Y-33514D01*
Y-34203D01*
X13308Y-34869D01*
X13653Y-35466D01*
X14140Y-35953D01*
X14737Y-36298D01*
X15403Y-36476D01*
X16093D01*
X16759Y-36298D01*
X17356Y-35953D01*
X17843Y-35466D01*
X18188Y-34869D01*
X18366Y-34203D01*
Y-33514D01*
X18188Y-32848D01*
X17966Y-32465D01*
X18229Y-31965D01*
X18579D01*
Y-30134D01*
D02*
G37*
G36*
X-28665D02*
X-31496D01*
X-34327D01*
Y-31965D01*
X-33977D01*
X-33715Y-32465D01*
X-33936Y-32848D01*
X-34114Y-33514D01*
Y-34203D01*
X-33936Y-34869D01*
X-33591Y-35466D01*
X-33104Y-35953D01*
X-32507Y-36298D01*
X-31841Y-36476D01*
X-31151D01*
X-30486Y-36298D01*
X-29889Y-35953D01*
X-29401Y-35466D01*
X-29056Y-34869D01*
X-28878Y-34203D01*
Y-33514D01*
X-29056Y-32848D01*
X-29278Y-32465D01*
X-29015Y-31965D01*
X-28665D01*
Y-30134D01*
D02*
G37*
G36*
X-44414D02*
X-47244D01*
X-50075D01*
Y-31965D01*
X-49725D01*
X-49463Y-32465D01*
X-49684Y-32848D01*
X-49862Y-33514D01*
Y-34203D01*
X-49684Y-34869D01*
X-49339Y-35466D01*
X-48852Y-35953D01*
X-48255Y-36298D01*
X-47589Y-36476D01*
X-46900D01*
X-46234Y-36298D01*
X-45637Y-35953D01*
X-45149Y-35466D01*
X-44804Y-34869D01*
X-44626Y-34203D01*
Y-33514D01*
X-44804Y-32848D01*
X-45026Y-32465D01*
X-44763Y-31965D01*
X-44414D01*
Y-30134D01*
D02*
G37*
G36*
X2831Y-34858D02*
X1000D01*
Y-36689D01*
X2831D01*
Y-34858D01*
D02*
G37*
G36*
X-1000D02*
X-2831D01*
Y-36689D01*
X-1000D01*
Y-34858D01*
D02*
G37*
G36*
X118157Y-30118D02*
X117276D01*
X116425Y-30346D01*
X115662Y-30787D01*
X115039Y-31410D01*
X114598Y-32173D01*
X114370Y-33024D01*
Y-33905D01*
X114598Y-34756D01*
X115039Y-35519D01*
X115662Y-36142D01*
X116425Y-36583D01*
X117276Y-36811D01*
X118157D01*
X119008Y-36583D01*
X119771Y-36142D01*
X120394Y-35519D01*
X120835Y-34756D01*
X121063Y-33905D01*
Y-33024D01*
X120835Y-32173D01*
X120394Y-31410D01*
X119771Y-30787D01*
X119008Y-30346D01*
X118157Y-30118D01*
D02*
G37*
G36*
X92520Y-22318D02*
X5512D01*
X5013Y-22417D01*
X4589Y-22700D01*
X683Y-26606D01*
X345Y-26516D01*
X-345D01*
X-1011Y-26694D01*
X-1608Y-27039D01*
X-2095Y-27526D01*
X-2440Y-28123D01*
X-2618Y-28789D01*
Y-29479D01*
X-2440Y-30145D01*
X-2219Y-30528D01*
X-2481Y-31028D01*
X-2831D01*
Y-32858D01*
X-0D01*
X2831D01*
Y-31028D01*
X2481D01*
X2218Y-30528D01*
X2440Y-30145D01*
X2618Y-29479D01*
Y-28789D01*
X2527Y-28451D01*
X6052Y-24927D01*
X91979D01*
X101440Y-34387D01*
X101863Y-34670D01*
X102362Y-34769D01*
X106732D01*
X107165Y-35519D01*
X107788Y-36142D01*
X108551Y-36583D01*
X109402Y-36811D01*
X110283D01*
X111134Y-36583D01*
X111897Y-36142D01*
X112520Y-35519D01*
X112961Y-34756D01*
X113189Y-33905D01*
Y-33024D01*
X112961Y-32173D01*
X112520Y-31410D01*
X111897Y-30787D01*
X111134Y-30346D01*
X110283Y-30118D01*
X109402D01*
X108551Y-30346D01*
X107788Y-30787D01*
X107165Y-31410D01*
X106732Y-32160D01*
X102903D01*
X93442Y-22700D01*
X93019Y-22417D01*
X92936Y-22400D01*
X92520Y-22318D01*
D02*
G37*
G36*
X-109402Y-30118D02*
X-110283D01*
X-111134Y-30346D01*
X-111897Y-30787D01*
X-112520Y-31410D01*
X-112961Y-32173D01*
X-113189Y-33024D01*
Y-33905D01*
X-112961Y-34756D01*
X-112520Y-35519D01*
X-111897Y-36142D01*
X-111134Y-36583D01*
X-110283Y-36811D01*
X-109402D01*
X-108551Y-36583D01*
X-107788Y-36142D01*
X-107165Y-35519D01*
X-106724Y-34756D01*
X-106496Y-33905D01*
Y-33024D01*
X-106724Y-32173D01*
X-107165Y-31410D01*
X-107788Y-30787D01*
X-108551Y-30346D01*
X-109402Y-30118D01*
D02*
G37*
G36*
X-117276D02*
X-118157D01*
X-119008Y-30346D01*
X-119771Y-30787D01*
X-120394Y-31410D01*
X-120835Y-32173D01*
X-121063Y-33024D01*
Y-33905D01*
X-120835Y-34756D01*
X-120394Y-35519D01*
X-119771Y-36142D01*
X-119008Y-36583D01*
X-118157Y-36811D01*
X-117276D01*
X-116425Y-36583D01*
X-115662Y-36142D01*
X-115039Y-35519D01*
X-114598Y-34756D01*
X-114370Y-33905D01*
Y-33024D01*
X-114598Y-32173D01*
X-115039Y-31410D01*
X-115662Y-30787D01*
X-116425Y-30346D01*
X-117276Y-30118D01*
D02*
G37*
G36*
X-44414Y-41658D02*
X-46244D01*
Y-43488D01*
X-44414D01*
Y-41658D01*
D02*
G37*
G36*
X-12917D02*
X-14748D01*
Y-43488D01*
X-12917D01*
Y-41658D01*
D02*
G37*
G36*
X-28665D02*
X-30496D01*
Y-43488D01*
X-28665D01*
Y-41658D01*
D02*
G37*
G36*
X-48244D02*
X-50075D01*
Y-43488D01*
X-48244D01*
Y-41658D01*
D02*
G37*
G36*
X-32496D02*
X-34327D01*
Y-43488D01*
X-32496D01*
Y-41658D01*
D02*
G37*
G36*
X-16748D02*
X-18579D01*
Y-43488D01*
X-16748D01*
Y-41658D01*
D02*
G37*
G36*
X34327Y-42051D02*
X32496D01*
Y-43882D01*
X34327D01*
Y-42051D01*
D02*
G37*
G36*
X18579D02*
X16748D01*
Y-43882D01*
X18579D01*
Y-42051D01*
D02*
G37*
G36*
X2831D02*
X1000D01*
Y-43882D01*
X2831D01*
Y-42051D01*
D02*
G37*
G36*
X30496D02*
X28665D01*
Y-43882D01*
X30496D01*
Y-42051D01*
D02*
G37*
G36*
X14748D02*
X12917D01*
Y-43882D01*
X14748D01*
Y-42051D01*
D02*
G37*
G36*
X-1000D02*
X-2831D01*
Y-43882D01*
X-1000D01*
Y-42051D01*
D02*
G37*
G36*
X50075Y-42051D02*
X48244D01*
Y-43882D01*
X50075D01*
Y-42051D01*
D02*
G37*
G36*
X46244D02*
X44413D01*
Y-43882D01*
X46244D01*
Y-42051D01*
D02*
G37*
G36*
X118157Y-37992D02*
X117276D01*
X116425Y-38220D01*
X115662Y-38661D01*
X115039Y-39284D01*
X114598Y-40047D01*
X114370Y-40898D01*
Y-41779D01*
X114598Y-42630D01*
X115039Y-43393D01*
X115662Y-44016D01*
X116425Y-44457D01*
X117276Y-44685D01*
X118157D01*
X119008Y-44457D01*
X119771Y-44016D01*
X120394Y-43393D01*
X120835Y-42630D01*
X121063Y-41779D01*
Y-40898D01*
X120835Y-40047D01*
X120394Y-39284D01*
X119771Y-38661D01*
X119008Y-38220D01*
X118157Y-37992D01*
D02*
G37*
G36*
X34327Y-30134D02*
X31496D01*
X28665D01*
Y-31965D01*
X29015D01*
X29278Y-32465D01*
X29056Y-32848D01*
X28878Y-33514D01*
Y-34203D01*
X29056Y-34869D01*
X29401Y-35466D01*
X29888Y-35953D01*
X30485Y-36298D01*
X31151Y-36476D01*
X31841D01*
X32179Y-36386D01*
X36085Y-40293D01*
X36509Y-40575D01*
X37008Y-40675D01*
X80168D01*
X81755Y-42261D01*
X82178Y-42544D01*
X82677Y-42643D01*
X106732D01*
X107165Y-43393D01*
X107788Y-44016D01*
X108551Y-44457D01*
X109402Y-44685D01*
X110283D01*
X111134Y-44457D01*
X111897Y-44016D01*
X112520Y-43393D01*
X112961Y-42630D01*
X113189Y-41779D01*
Y-40898D01*
X112961Y-40047D01*
X112520Y-39284D01*
X111897Y-38661D01*
X111134Y-38220D01*
X110283Y-37992D01*
X109402D01*
X108551Y-38220D01*
X107788Y-38661D01*
X107165Y-39284D01*
X106732Y-40034D01*
X83218D01*
X81631Y-38448D01*
X81208Y-38165D01*
X80709Y-38065D01*
X37548D01*
X34024Y-34541D01*
X34114Y-34203D01*
Y-33514D01*
X33936Y-32848D01*
X33715Y-32465D01*
X33977Y-31965D01*
X34327D01*
Y-30134D01*
D02*
G37*
G36*
X-12917Y-45488D02*
X-15748D01*
X-18579D01*
Y-47319D01*
X-18229D01*
X-17967Y-47819D01*
X-18188Y-48202D01*
X-18366Y-48868D01*
Y-49557D01*
X-18188Y-50223D01*
X-17843Y-50820D01*
X-17356Y-51308D01*
X-16759Y-51652D01*
X-16093Y-51831D01*
X-15403D01*
X-14738Y-51652D01*
X-14141Y-51308D01*
X-13653Y-50820D01*
X-13308Y-50223D01*
X-13130Y-49557D01*
Y-48868D01*
X-13308Y-48202D01*
X-13530Y-47819D01*
X-13267Y-47319D01*
X-12917D01*
Y-45488D01*
D02*
G37*
G36*
X-28665D02*
X-31496D01*
X-34327D01*
Y-47319D01*
X-33977D01*
X-33715Y-47819D01*
X-33936Y-48202D01*
X-34114Y-48868D01*
Y-49557D01*
X-33936Y-50223D01*
X-33591Y-50820D01*
X-33104Y-51308D01*
X-32507Y-51652D01*
X-31841Y-51831D01*
X-31151D01*
X-30486Y-51652D01*
X-29889Y-51308D01*
X-29401Y-50820D01*
X-29056Y-50223D01*
X-28878Y-49557D01*
Y-48868D01*
X-29056Y-48202D01*
X-29278Y-47819D01*
X-29015Y-47319D01*
X-28665D01*
Y-45488D01*
D02*
G37*
G36*
X-44414D02*
X-47244D01*
X-50075D01*
Y-47319D01*
X-49725D01*
X-49463Y-47819D01*
X-49684Y-48202D01*
X-49862Y-48868D01*
Y-49557D01*
X-49684Y-50223D01*
X-49339Y-50820D01*
X-48852Y-51308D01*
X-48255Y-51652D01*
X-47589Y-51831D01*
X-46900D01*
X-46234Y-51652D01*
X-45637Y-51308D01*
X-45149Y-50820D01*
X-44804Y-50223D01*
X-44626Y-49557D01*
Y-48868D01*
X-44804Y-48202D01*
X-45026Y-47819D01*
X-44763Y-47319D01*
X-44414D01*
Y-45488D01*
D02*
G37*
G36*
X34327Y-45882D02*
X31496D01*
X28665D01*
Y-47713D01*
X29015D01*
X29278Y-48213D01*
X29056Y-48596D01*
X28878Y-49262D01*
Y-49951D01*
X29056Y-50617D01*
X29401Y-51214D01*
X29888Y-51701D01*
X30485Y-52046D01*
X31151Y-52224D01*
X31841D01*
X32506Y-52046D01*
X33104Y-51701D01*
X33591Y-51214D01*
X33936Y-50617D01*
X34114Y-49951D01*
Y-49262D01*
X33936Y-48596D01*
X33715Y-48213D01*
X33977Y-47713D01*
X34327D01*
Y-45882D01*
D02*
G37*
G36*
X2831D02*
X-0D01*
X-2831D01*
Y-47713D01*
X-2481D01*
X-2219Y-48213D01*
X-2440Y-48596D01*
X-2618Y-49262D01*
Y-49951D01*
X-2440Y-50617D01*
X-2095Y-51214D01*
X-1608Y-51701D01*
X-1011Y-52046D01*
X-345Y-52224D01*
X345D01*
X1010Y-52046D01*
X1608Y-51701D01*
X2095Y-51214D01*
X2440Y-50617D01*
X2618Y-49951D01*
Y-49262D01*
X2440Y-48596D01*
X2218Y-48213D01*
X2481Y-47713D01*
X2831D01*
Y-45882D01*
D02*
G37*
G36*
X50075Y-45882D02*
X47244D01*
X44413D01*
Y-47713D01*
X44763D01*
X45026Y-48213D01*
X44804Y-48596D01*
X44626Y-49262D01*
Y-49951D01*
X44804Y-50617D01*
X45149Y-51214D01*
X45636Y-51701D01*
X46233Y-52046D01*
X46899Y-52224D01*
X47589D01*
X48255Y-52046D01*
X48852Y-51701D01*
X49339Y-51214D01*
X49684Y-50617D01*
X49862Y-49951D01*
Y-49262D01*
X49684Y-48596D01*
X49463Y-48213D01*
X49725Y-47713D01*
X50075D01*
Y-45882D01*
D02*
G37*
G36*
X118157Y-45866D02*
X117276D01*
X116425Y-46094D01*
X115662Y-46535D01*
X115039Y-47158D01*
X114598Y-47921D01*
X114370Y-48772D01*
Y-49653D01*
X114598Y-50504D01*
X115039Y-51267D01*
X115662Y-51890D01*
X116425Y-52331D01*
X117276Y-52559D01*
X118157D01*
X119008Y-52331D01*
X119771Y-51890D01*
X120394Y-51267D01*
X120835Y-50504D01*
X121063Y-49653D01*
Y-48772D01*
X120835Y-47921D01*
X120394Y-47158D01*
X119771Y-46535D01*
X119008Y-46094D01*
X118157Y-45866D01*
D02*
G37*
G36*
X110283D02*
X109402D01*
X108551Y-46094D01*
X107788Y-46535D01*
X107165Y-47158D01*
X106724Y-47921D01*
X106496Y-48772D01*
Y-49653D01*
X106724Y-50504D01*
X107165Y-51267D01*
X107788Y-51890D01*
X108551Y-52331D01*
X109402Y-52559D01*
X110283D01*
X111134Y-52331D01*
X111897Y-51890D01*
X112520Y-51267D01*
X112961Y-50504D01*
X113189Y-49653D01*
Y-48772D01*
X112961Y-47921D01*
X112520Y-47158D01*
X111897Y-46535D01*
X111134Y-46094D01*
X110283Y-45866D01*
D02*
G37*
G36*
X18579Y-57799D02*
X16748D01*
Y-59630D01*
X18579D01*
Y-57799D01*
D02*
G37*
G36*
X2831D02*
X1000D01*
Y-59630D01*
X2831D01*
Y-57799D01*
D02*
G37*
G36*
X-12917D02*
X-14748D01*
Y-59630D01*
X-12917D01*
Y-57799D01*
D02*
G37*
G36*
X14748D02*
X12917D01*
Y-59630D01*
X14748D01*
Y-57799D01*
D02*
G37*
G36*
X-1000D02*
X-2831D01*
Y-59630D01*
X-1000D01*
Y-57799D01*
D02*
G37*
G36*
X-16748D02*
X-18579D01*
Y-59630D01*
X-16748D01*
Y-57799D01*
D02*
G37*
G36*
X18579Y-45882D02*
X15748D01*
X12917D01*
Y-47713D01*
X13267D01*
X13530Y-48213D01*
X13308Y-48596D01*
X13130Y-49262D01*
Y-49951D01*
X13308Y-50617D01*
X13653Y-51214D01*
X14140Y-51701D01*
X14737Y-52046D01*
X15403Y-52224D01*
X16093D01*
X16759Y-52046D01*
X17356Y-51701D01*
X17504Y-51552D01*
X18205Y-51546D01*
X28605Y-61946D01*
X29028Y-62229D01*
X29528Y-62328D01*
X107089D01*
X107280Y-62790D01*
X107165Y-62906D01*
X106724Y-63669D01*
X106496Y-64520D01*
Y-65401D01*
X106724Y-66252D01*
X107165Y-67015D01*
X107788Y-67638D01*
X108551Y-68079D01*
X109402Y-68307D01*
X110283D01*
X111134Y-68079D01*
X111897Y-67638D01*
X112520Y-67015D01*
X112961Y-66252D01*
X113189Y-65401D01*
Y-64520D01*
X112961Y-63669D01*
X112520Y-62906D01*
X112405Y-62790D01*
X112596Y-62328D01*
X113779D01*
X114279Y-62229D01*
X114702Y-61946D01*
X116439Y-60209D01*
X117276Y-60433D01*
X118157D01*
X119008Y-60205D01*
X119771Y-59764D01*
X120394Y-59141D01*
X120835Y-58378D01*
X121063Y-57527D01*
Y-56646D01*
X120835Y-55795D01*
X120394Y-55032D01*
X119771Y-54409D01*
X119008Y-53968D01*
X118157Y-53740D01*
X117276D01*
X116425Y-53968D01*
X115662Y-54409D01*
X115039Y-55032D01*
X114598Y-55795D01*
X114370Y-56646D01*
Y-57527D01*
X114594Y-58364D01*
X113239Y-59719D01*
X112596D01*
X112405Y-59257D01*
X112520Y-59141D01*
X112961Y-58378D01*
X113189Y-57527D01*
Y-56646D01*
X112961Y-55795D01*
X112520Y-55032D01*
X111897Y-54409D01*
X111134Y-53968D01*
X110283Y-53740D01*
X109402D01*
X108551Y-53968D01*
X107788Y-54409D01*
X107165Y-55032D01*
X106724Y-55795D01*
X106496Y-56646D01*
Y-57527D01*
X106724Y-58378D01*
X107165Y-59141D01*
X107280Y-59257D01*
X107089Y-59719D01*
X30068D01*
X19194Y-48845D01*
X18771Y-48562D01*
X18365Y-48482D01*
X18180Y-48210D01*
X18173Y-48189D01*
X18484Y-47713D01*
X18579D01*
Y-45882D01*
D02*
G37*
G36*
X-117276Y-53740D02*
X-118157D01*
X-119008Y-53968D01*
X-119771Y-54409D01*
X-120394Y-55032D01*
X-120835Y-55795D01*
X-121063Y-56646D01*
Y-57527D01*
X-120835Y-58378D01*
X-120394Y-59141D01*
X-119771Y-59764D01*
X-119008Y-60205D01*
X-118157Y-60433D01*
X-117276D01*
X-116425Y-60205D01*
X-115662Y-59764D01*
X-115039Y-59141D01*
X-114598Y-58378D01*
X-114370Y-57527D01*
Y-56646D01*
X-114598Y-55795D01*
X-115039Y-55032D01*
X-115662Y-54409D01*
X-116425Y-53968D01*
X-117276Y-53740D01*
D02*
G37*
G36*
X18579Y-61630D02*
X15748D01*
X12917D01*
Y-63461D01*
X13267D01*
X13530Y-63961D01*
X13308Y-64344D01*
X13130Y-65010D01*
Y-65699D01*
X13308Y-66365D01*
X13653Y-66962D01*
X14140Y-67449D01*
X14737Y-67794D01*
X15403Y-67972D01*
X16093D01*
X16759Y-67794D01*
X17356Y-67449D01*
X17843Y-66962D01*
X18188Y-66365D01*
X18366Y-65699D01*
Y-65010D01*
X18188Y-64344D01*
X17966Y-63961D01*
X18229Y-63461D01*
X18579D01*
Y-61630D01*
D02*
G37*
G36*
X2831D02*
X-0D01*
X-2831D01*
Y-63461D01*
X-2481D01*
X-2219Y-63961D01*
X-2440Y-64344D01*
X-2618Y-65010D01*
Y-65699D01*
X-2440Y-66365D01*
X-2095Y-66962D01*
X-1608Y-67449D01*
X-1011Y-67794D01*
X-345Y-67972D01*
X345D01*
X1010Y-67794D01*
X1608Y-67449D01*
X2095Y-66962D01*
X2440Y-66365D01*
X2618Y-65699D01*
Y-65010D01*
X2440Y-64344D01*
X2218Y-63961D01*
X2481Y-63461D01*
X2831D01*
Y-61630D01*
D02*
G37*
G36*
X-12917D02*
X-15748D01*
X-18579D01*
Y-63461D01*
X-18229D01*
X-17967Y-63961D01*
X-18188Y-64344D01*
X-18366Y-65010D01*
Y-65699D01*
X-18188Y-66365D01*
X-17843Y-66962D01*
X-17356Y-67449D01*
X-16759Y-67794D01*
X-16093Y-67972D01*
X-15403D01*
X-14738Y-67794D01*
X-14141Y-67449D01*
X-13653Y-66962D01*
X-13308Y-66365D01*
X-13130Y-65699D01*
Y-65010D01*
X-13308Y-64344D01*
X-13530Y-63961D01*
X-13267Y-63461D01*
X-12917D01*
Y-61630D01*
D02*
G37*
G36*
X118157Y-61614D02*
X117276D01*
X116425Y-61842D01*
X115662Y-62283D01*
X115039Y-62906D01*
X114598Y-63669D01*
X114370Y-64520D01*
Y-65401D01*
X114598Y-66252D01*
X115039Y-67015D01*
X115662Y-67638D01*
X116425Y-68079D01*
X117276Y-68307D01*
X118157D01*
X119008Y-68079D01*
X119771Y-67638D01*
X120394Y-67015D01*
X120835Y-66252D01*
X121063Y-65401D01*
Y-64520D01*
X120835Y-63669D01*
X120394Y-62906D01*
X119771Y-62283D01*
X119008Y-61842D01*
X118157Y-61614D01*
D02*
G37*
G36*
X-117276D02*
X-118157D01*
X-119008Y-61842D01*
X-119771Y-62283D01*
X-120394Y-62906D01*
X-120835Y-63669D01*
X-121063Y-64520D01*
Y-65401D01*
X-120835Y-66252D01*
X-120394Y-67015D01*
X-119771Y-67638D01*
X-119008Y-68079D01*
X-118157Y-68307D01*
X-117276D01*
X-116425Y-68079D01*
X-115662Y-67638D01*
X-115039Y-67015D01*
X-114598Y-66252D01*
X-114370Y-65401D01*
Y-64520D01*
X-114598Y-63669D01*
X-115039Y-62906D01*
X-115662Y-62283D01*
X-116425Y-61842D01*
X-117276Y-61614D01*
D02*
G37*
G36*
X118157Y-69488D02*
X117276D01*
X116425Y-69716D01*
X115662Y-70157D01*
X115039Y-70780D01*
X114598Y-71543D01*
X114370Y-72394D01*
Y-73275D01*
X114598Y-74126D01*
X115039Y-74889D01*
X115662Y-75512D01*
X116425Y-75953D01*
X117276Y-76181D01*
X118157D01*
X119008Y-75953D01*
X119771Y-75512D01*
X120394Y-74889D01*
X120835Y-74126D01*
X121063Y-73275D01*
Y-72394D01*
X120835Y-71543D01*
X120394Y-70780D01*
X119771Y-70157D01*
X119008Y-69716D01*
X118157Y-69488D01*
D02*
G37*
G36*
X110283D02*
X109402D01*
X108551Y-69716D01*
X107788Y-70157D01*
X107165Y-70780D01*
X106724Y-71543D01*
X106496Y-72394D01*
Y-73275D01*
X106724Y-74126D01*
X107165Y-74889D01*
X107788Y-75512D01*
X108551Y-75953D01*
X109402Y-76181D01*
X110283D01*
X111134Y-75953D01*
X111897Y-75512D01*
X112520Y-74889D01*
X112961Y-74126D01*
X113189Y-73275D01*
Y-72394D01*
X112961Y-71543D01*
X112520Y-70780D01*
X111897Y-70157D01*
X111134Y-69716D01*
X110283Y-69488D01*
D02*
G37*
G36*
X-109402D02*
X-110283D01*
X-111134Y-69716D01*
X-111897Y-70157D01*
X-112520Y-70780D01*
X-112961Y-71543D01*
X-113189Y-72394D01*
Y-73275D01*
X-112961Y-74126D01*
X-112520Y-74889D01*
X-111897Y-75512D01*
X-111134Y-75953D01*
X-110283Y-76181D01*
X-109402D01*
X-108551Y-75953D01*
X-107788Y-75512D01*
X-107165Y-74889D01*
X-106724Y-74126D01*
X-106496Y-73275D01*
Y-72394D01*
X-106724Y-71543D01*
X-107165Y-70780D01*
X-107788Y-70157D01*
X-108551Y-69716D01*
X-109402Y-69488D01*
D02*
G37*
G36*
X-117276D02*
X-118157D01*
X-119008Y-69716D01*
X-119771Y-70157D01*
X-120394Y-70780D01*
X-120835Y-71543D01*
X-121063Y-72394D01*
Y-73275D01*
X-120835Y-74126D01*
X-120394Y-74889D01*
X-119771Y-75512D01*
X-119008Y-75953D01*
X-118157Y-76181D01*
X-117276D01*
X-116425Y-75953D01*
X-115662Y-75512D01*
X-115039Y-74889D01*
X-114598Y-74126D01*
X-114370Y-73275D01*
Y-72394D01*
X-114598Y-71543D01*
X-115039Y-70780D01*
X-115662Y-70157D01*
X-116425Y-69716D01*
X-117276Y-69488D01*
D02*
G37*
G36*
X110843Y-77292D02*
Y-79709D01*
X113259D01*
X113159Y-79335D01*
X112690Y-78523D01*
X112028Y-77861D01*
X111216Y-77392D01*
X110843Y-77292D01*
D02*
G37*
G36*
X-116717D02*
Y-79709D01*
X-114300D01*
X-114400Y-79335D01*
X-114869Y-78523D01*
X-115531Y-77861D01*
X-116343Y-77392D01*
X-116717Y-77292D01*
D02*
G37*
G36*
X-118717D02*
X-119090Y-77392D01*
X-119902Y-77861D01*
X-120564Y-78523D01*
X-121033Y-79335D01*
X-121133Y-79709D01*
X-118717D01*
Y-77292D01*
D02*
G37*
G36*
X108843D02*
X108469Y-77392D01*
X107657Y-77861D01*
X106995Y-78523D01*
X106526Y-79335D01*
X106426Y-79709D01*
X108843D01*
Y-77292D01*
D02*
G37*
G36*
X118157Y-77362D02*
X117276D01*
X116425Y-77590D01*
X115662Y-78031D01*
X115039Y-78654D01*
X114598Y-79417D01*
X114370Y-80268D01*
Y-81149D01*
X114598Y-82000D01*
X115039Y-82763D01*
X115662Y-83386D01*
X116425Y-83827D01*
X117276Y-84055D01*
X118157D01*
X119008Y-83827D01*
X119771Y-83386D01*
X120394Y-82763D01*
X120835Y-82000D01*
X121063Y-81149D01*
Y-80268D01*
X120835Y-79417D01*
X120394Y-78654D01*
X119771Y-78031D01*
X119008Y-77590D01*
X118157Y-77362D01*
D02*
G37*
G36*
X-109402D02*
X-110283D01*
X-111134Y-77590D01*
X-111897Y-78031D01*
X-112520Y-78654D01*
X-112961Y-79417D01*
X-113189Y-80268D01*
Y-81149D01*
X-112961Y-82000D01*
X-112520Y-82763D01*
X-111897Y-83386D01*
X-111134Y-83827D01*
X-110283Y-84055D01*
X-109402D01*
X-108551Y-83827D01*
X-107788Y-83386D01*
X-107165Y-82763D01*
X-106724Y-82000D01*
X-106496Y-81149D01*
Y-80268D01*
X-106724Y-79417D01*
X-107165Y-78654D01*
X-107788Y-78031D01*
X-108551Y-77590D01*
X-109402Y-77362D01*
D02*
G37*
G36*
X113259Y-81709D02*
X110843D01*
Y-84125D01*
X111216Y-84025D01*
X112028Y-83557D01*
X112690Y-82894D01*
X113159Y-82082D01*
X113259Y-81709D01*
D02*
G37*
G36*
X-114300D02*
X-116717D01*
Y-84125D01*
X-116343Y-84025D01*
X-115531Y-83557D01*
X-114869Y-82894D01*
X-114400Y-82082D01*
X-114300Y-81709D01*
D02*
G37*
G36*
X-118717D02*
X-121133D01*
X-121033Y-82082D01*
X-120564Y-82894D01*
X-119902Y-83557D01*
X-119090Y-84025D01*
X-118717Y-84125D01*
Y-81709D01*
D02*
G37*
G36*
X108843D02*
X106426D01*
X106526Y-82082D01*
X106995Y-82894D01*
X107657Y-83557D01*
X108469Y-84025D01*
X108843Y-84125D01*
Y-81709D01*
D02*
G37*
G36*
X-99655Y-104469D02*
X-100345D01*
X-101011Y-104647D01*
X-101608Y-104992D01*
X-102095Y-105479D01*
X-102440Y-106076D01*
X-102618Y-106742D01*
Y-107431D01*
X-102440Y-108097D01*
X-102218Y-108480D01*
X-102481Y-108980D01*
X-102831D01*
Y-110811D01*
X-100000D01*
X-97169D01*
Y-108980D01*
X-97519D01*
X-97781Y-108480D01*
X-97560Y-108097D01*
X-97382Y-107431D01*
Y-106742D01*
X-97560Y-106076D01*
X-97905Y-105479D01*
X-98392Y-104992D01*
X-98989Y-104647D01*
X-99655Y-104469D01*
D02*
G37*
G36*
X100345D02*
X99655D01*
X98989Y-104647D01*
X98392Y-104992D01*
X97905Y-105479D01*
X97560Y-106076D01*
X97382Y-106742D01*
Y-107431D01*
X97560Y-108097D01*
X97781Y-108480D01*
X97519Y-108980D01*
X97169D01*
Y-110811D01*
X100000D01*
X102831D01*
Y-108980D01*
X102481D01*
X102218Y-108480D01*
X102440Y-108097D01*
X102618Y-107431D01*
Y-106742D01*
X102440Y-106076D01*
X102095Y-105479D01*
X101608Y-104992D01*
X101011Y-104647D01*
X100345Y-104469D01*
D02*
G37*
G36*
X102831Y-112811D02*
X101000D01*
Y-114642D01*
X102831D01*
Y-112811D01*
D02*
G37*
G36*
X99000D02*
X97169D01*
Y-114642D01*
X99000D01*
Y-112811D01*
D02*
G37*
G36*
X-97169D02*
X-99000D01*
Y-114642D01*
X-97169D01*
Y-112811D01*
D02*
G37*
G36*
X-101000D02*
X-102831D01*
Y-114642D01*
X-101000D01*
Y-112811D01*
D02*
G37*
G36*
X13402Y-132661D02*
X606D01*
Y-145457D01*
X13402D01*
Y-132661D01*
D02*
G37*
G36*
X-1394D02*
X-14189D01*
Y-145457D01*
X-1394D01*
Y-132661D01*
D02*
G37*
G36*
X13402Y-147457D02*
X606D01*
Y-160252D01*
X13402D01*
Y-147457D01*
D02*
G37*
G36*
X-1394D02*
X-14189D01*
Y-160252D01*
X-1394D01*
Y-147457D01*
D02*
G37*
%LPD*%
D10*
X85433Y7874D02*
X103150Y25591D01*
X109843D01*
X-16260Y49725D02*
Y50930D01*
X-26354Y61024D02*
X-16260Y50930D01*
X-88583Y61024D02*
X-26354D01*
X36479Y39370D02*
X39370Y42261D01*
X33465Y39370D02*
X36479D01*
X39370Y42261D02*
Y55118D01*
X43183Y39370D02*
X74803D01*
X39370Y25591D02*
Y35557D01*
X43183Y39370D01*
X-23622Y41732D02*
Y50911D01*
X-27829Y55118D02*
X-23622Y50911D01*
X-78740Y55118D02*
X-27829D01*
X64862Y53248D02*
X113681D01*
X61024Y57087D02*
X64862Y53248D01*
X41339Y57087D02*
X61024D01*
X37008Y-39370D02*
X80709D01*
X82677Y-41339D02*
X109843D01*
X80709Y-39370D02*
X82677Y-41339D01*
X113779Y-61024D02*
X117717Y-57087D01*
X18271Y-49767D02*
X29528Y-61024D01*
X113779D01*
X52756Y7874D02*
X85433D01*
X-117717Y-49213D02*
X-113779Y-53150D01*
X-70866D02*
X-57087Y-39370D01*
X-113779Y-53150D02*
X-70866D01*
X-113779Y-45276D02*
X-74410D01*
X-117717Y-41339D02*
X-113779Y-45276D01*
X-74410D02*
X-52756Y-23622D01*
X47244Y2362D02*
X52756Y7874D01*
X76772Y41339D02*
X109843D01*
X74803Y39370D02*
X76772Y41339D01*
X37402Y23622D02*
X39370Y25591D01*
X33465Y23622D02*
X37402D01*
X31496Y21653D02*
X33465Y23622D01*
X31496Y18110D02*
Y21653D01*
X113779Y29528D02*
X117717Y25591D01*
X61024Y29528D02*
X113779D01*
X55118Y23622D02*
X61024Y29528D01*
X41339Y23622D02*
X55118D01*
X39370Y21654D02*
X41339Y23622D01*
X39370Y9843D02*
Y21654D01*
X33465Y7874D02*
X37402D01*
X39370Y9843D01*
X31496Y5906D02*
X33465Y7874D01*
X31496Y2362D02*
Y5906D01*
X31496Y37402D02*
X33465Y39370D01*
X31496Y33858D02*
Y37402D01*
X39370Y55118D02*
X41339Y57087D01*
X113681Y53248D02*
X117717Y49213D01*
X-92520Y41339D02*
X-78740Y55118D01*
X-92520Y57087D02*
X-88583Y61024D01*
X-109843Y57087D02*
X-92520D01*
X-109843Y41339D02*
X-92520D01*
X-23622Y41732D02*
X-15748Y33858D01*
X-39370Y13780D02*
X-35433Y17717D01*
X-31496D01*
X-39370Y9843D02*
Y13780D01*
X-82677Y7874D02*
X-41339D01*
X-39370Y9843D01*
X-88484Y13681D02*
X-82677Y7874D01*
X-117717Y17717D02*
X-113681Y13681D01*
X-88484D01*
X-55118Y23622D02*
X-21654D01*
X-15748Y17717D01*
X-109843Y25591D02*
X-57087D01*
X-55118Y23622D01*
X-82677Y39370D02*
X-37008D01*
X-31496Y33858D01*
X-117717Y33465D02*
X-113878Y37303D01*
X-84744D01*
X-82677Y39370D01*
X15909Y-49767D02*
X18271D01*
X31496Y-33858D02*
X37008Y-39370D01*
X5512Y-23622D02*
X92520D01*
X-0Y-29134D02*
X5512Y-23622D01*
X-7874Y-25984D02*
X-0Y-18110D01*
X-7874Y-53150D02*
Y-25984D01*
X-23622Y-55118D02*
X-9843D01*
X-7874Y-53150D01*
X-52756Y-23622D02*
X-37008D01*
X-31496Y-18110D01*
X92520Y-23622D02*
X102362Y-33465D01*
X109843D01*
X21260Y-7874D02*
X94488D01*
X15748Y-13386D02*
X21260Y-7874D01*
X94488D02*
X104331Y-17717D01*
X109843D01*
X-21260Y-39370D02*
X-15748Y-33858D01*
X-57087Y-39370D02*
X-21260D01*
X-52756Y-7874D02*
X-47244Y-2362D01*
X-70866Y-7874D02*
X-52756D01*
X-88583Y-25591D02*
X-70866Y-7874D01*
X-109843Y-25591D02*
X-88583D01*
X-109843Y-64961D02*
X-33465D01*
X-23622Y-55118D01*
D11*
X62992Y-18110D02*
D03*
X15748Y65354D02*
D03*
X-0D02*
D03*
Y50000D02*
D03*
X-31496Y49213D02*
D03*
X-0Y33858D02*
D03*
X-31496D02*
D03*
X-0Y18504D02*
D03*
X-31496Y17717D02*
D03*
X-62992D02*
D03*
X-47244D02*
D03*
X-15748D02*
D03*
X-47244Y33858D02*
D03*
X-15748D02*
D03*
X-47244Y49213D02*
D03*
X-15748D02*
D03*
Y65354D02*
D03*
Y2362D02*
D03*
X-62992Y-2362D02*
D03*
X-31496D02*
D03*
Y-18110D02*
D03*
X-15748Y-33858D02*
D03*
X-31496D02*
D03*
X-47244Y-49213D02*
D03*
X-15748D02*
D03*
X-100000Y-107087D02*
D03*
X-31496Y-49213D02*
D03*
X-0Y-18110D02*
D03*
X-47244Y-33858D02*
D03*
X-15748Y-18110D02*
D03*
X-47244D02*
D03*
X-62992Y-13386D02*
D03*
X-47244Y-2362D02*
D03*
X-0Y113779D02*
D03*
X31496Y49606D02*
D03*
X15748Y33858D02*
D03*
X47244D02*
D03*
X31496Y18110D02*
D03*
X62992D02*
D03*
X47244Y2362D02*
D03*
X15748D02*
D03*
X-0Y-2362D02*
D03*
X62992Y2362D02*
D03*
X31496D02*
D03*
X47244Y18110D02*
D03*
X15748D02*
D03*
X31496Y33858D02*
D03*
X47244Y49606D02*
D03*
X15748D02*
D03*
Y-13386D02*
D03*
X47244Y-18110D02*
D03*
X-0Y-29134D02*
D03*
X31496Y-33858D02*
D03*
X47244Y-49606D02*
D03*
X31496Y-49606D02*
D03*
X15748Y-65354D02*
D03*
X-15748D02*
D03*
X100000Y-107087D02*
D03*
X-0Y-65354D02*
D03*
Y-49606D02*
D03*
X15748D02*
D03*
Y-33858D02*
D03*
X47244D02*
D03*
X31496Y-18110D02*
D03*
D12*
X62992Y-13386D02*
D03*
X15748Y60630D02*
D03*
X-0D02*
D03*
Y45276D02*
D03*
X-31496Y44488D02*
D03*
X-0Y29134D02*
D03*
X-31496D02*
D03*
X-0Y13780D02*
D03*
X-31496Y12992D02*
D03*
X-62992D02*
D03*
X-47244D02*
D03*
X-15748D02*
D03*
X-47244Y29134D02*
D03*
X-15748D02*
D03*
X-47244Y44488D02*
D03*
X-15748D02*
D03*
Y60630D02*
D03*
Y-2362D02*
D03*
X-62992Y2362D02*
D03*
X-31496D02*
D03*
Y-13386D02*
D03*
X-15748Y-29134D02*
D03*
X-31496D02*
D03*
X-47244Y-44488D02*
D03*
X-15748D02*
D03*
X-100000Y-111811D02*
D03*
X-31496Y-44488D02*
D03*
X-0Y-13386D02*
D03*
X-47244Y-29134D02*
D03*
X-15748Y-13386D02*
D03*
X-47244D02*
D03*
X-62992Y-18110D02*
D03*
X-47244Y2362D02*
D03*
X-0Y118504D02*
D03*
X31496Y44882D02*
D03*
X15748Y29134D02*
D03*
X47244D02*
D03*
X31496Y13386D02*
D03*
X62992D02*
D03*
X47244Y-2362D02*
D03*
X15748D02*
D03*
X-0Y2362D02*
D03*
X62992Y-2362D02*
D03*
X31496D02*
D03*
X47244Y13386D02*
D03*
X15748D02*
D03*
X31496Y29134D02*
D03*
X47244Y44882D02*
D03*
X15748D02*
D03*
Y-18110D02*
D03*
X47244Y-13386D02*
D03*
X-0Y-33858D02*
D03*
X31496Y-29134D02*
D03*
X47244Y-44882D02*
D03*
X31496Y-44882D02*
D03*
X15748Y-60630D02*
D03*
X-15748D02*
D03*
X100000Y-111811D02*
D03*
X-0Y-60630D02*
D03*
Y-44882D02*
D03*
X15748D02*
D03*
Y-29134D02*
D03*
X47244D02*
D03*
X31496Y-13386D02*
D03*
D13*
X-394Y-146457D02*
D03*
X-0Y146430D02*
D03*
X-146457Y0D02*
D03*
X146457D02*
D03*
D14*
X109843Y-9843D02*
D03*
X-117717Y80709D02*
D03*
Y-9843D02*
D03*
X109843Y80709D02*
D03*
D15*
Y-17717D02*
D03*
Y-25591D02*
D03*
Y-33465D02*
D03*
Y-41339D02*
D03*
Y-49213D02*
D03*
Y-57087D02*
D03*
Y-64961D02*
D03*
Y-72835D02*
D03*
Y-80709D02*
D03*
X117717Y-9843D02*
D03*
Y-17717D02*
D03*
Y-25591D02*
D03*
Y-33465D02*
D03*
Y-41339D02*
D03*
Y-49213D02*
D03*
Y-57087D02*
D03*
Y-64961D02*
D03*
Y-72835D02*
D03*
Y-80709D02*
D03*
X-117717Y72835D02*
D03*
Y64961D02*
D03*
Y57087D02*
D03*
Y49213D02*
D03*
Y41339D02*
D03*
Y33465D02*
D03*
Y25591D02*
D03*
Y17717D02*
D03*
Y9843D02*
D03*
X-109843Y80709D02*
D03*
Y72835D02*
D03*
Y64961D02*
D03*
Y57087D02*
D03*
Y49213D02*
D03*
Y41339D02*
D03*
Y33465D02*
D03*
Y25591D02*
D03*
Y17717D02*
D03*
Y9843D02*
D03*
X-117717Y-17717D02*
D03*
Y-25591D02*
D03*
Y-33465D02*
D03*
Y-41339D02*
D03*
Y-49213D02*
D03*
Y-57087D02*
D03*
Y-64961D02*
D03*
Y-72835D02*
D03*
Y-80709D02*
D03*
X-109843Y-9843D02*
D03*
Y-17717D02*
D03*
Y-25591D02*
D03*
Y-33465D02*
D03*
Y-41339D02*
D03*
Y-49213D02*
D03*
Y-57087D02*
D03*
Y-64961D02*
D03*
Y-72835D02*
D03*
Y-80709D02*
D03*
X109843Y72835D02*
D03*
Y64961D02*
D03*
Y57087D02*
D03*
Y49213D02*
D03*
Y41339D02*
D03*
Y33465D02*
D03*
Y25591D02*
D03*
Y17717D02*
D03*
Y9843D02*
D03*
X117717Y80709D02*
D03*
Y72835D02*
D03*
Y64961D02*
D03*
Y57087D02*
D03*
Y49213D02*
D03*
Y41339D02*
D03*
Y33465D02*
D03*
Y25591D02*
D03*
Y17717D02*
D03*
Y9843D02*
D03*
%TF.MD5,94841ff073f3af321619d3949dd6cf22*%
M02*
