%TF.GenerationSoftware,Altium Limited,Altium Designer,23.3.1 (30)*%
G04 Layer_Color=65535*
%FSLAX25Y25*%
%MOIN*%
%TF.SameCoordinates,A648DCE1-0FA2-4CCB-ABDB-414D2F473EA8*%
%TF.FilePolarity,Positive*%
%TF.FileFunction,Legend,Top*%
%TF.Part,Single*%
G01*
G75*
%TA.AperFunction,NonConductor*%
%ADD17C,0.00591*%
%ADD18C,0.00984*%
%ADD19C,0.00787*%
%ADD20C,0.00630*%
%ADD21C,0.01000*%
G36*
X24951Y142690D02*
X16781D01*
Y150269D01*
X24951D01*
Y142690D01*
D02*
G37*
G36*
X150443Y16929D02*
X142274D01*
Y24508D01*
X150443D01*
Y16929D01*
D02*
G37*
G36*
X41535Y-110728D02*
X-41634D01*
Y-98627D01*
X41535D01*
Y-110728D01*
D02*
G37*
G36*
X-92815Y-36909D02*
X-102264D01*
Y-6201D01*
X-92815D01*
Y-36909D01*
D02*
G37*
G36*
X133169Y82973D02*
Y52264D01*
X123721D01*
Y82973D01*
X133169D01*
D02*
G37*
G36*
X-93012Y51968D02*
X-102461D01*
Y82677D01*
X-93012D01*
Y51968D01*
D02*
G37*
G36*
X9805Y-118183D02*
X9893Y-118191D01*
X9987Y-118205D01*
X10082Y-118220D01*
X10177Y-118242D01*
X10191D01*
X10221Y-118256D01*
X10264Y-118271D01*
X10323Y-118293D01*
X10388Y-118322D01*
X10461Y-118358D01*
X10607Y-118446D01*
X10614Y-118453D01*
X10643Y-118475D01*
X10680Y-118504D01*
X10724Y-118548D01*
X10782Y-118606D01*
X10833Y-118665D01*
X10884Y-118737D01*
X10928Y-118818D01*
X10935Y-118825D01*
X10942Y-118854D01*
X10964Y-118905D01*
X10986Y-118963D01*
X11001Y-119036D01*
X11022Y-119124D01*
X11030Y-119219D01*
X11037Y-119328D01*
Y-119335D01*
Y-119343D01*
Y-119364D01*
X11030Y-119394D01*
X11022Y-119466D01*
X11008Y-119561D01*
X10971Y-119671D01*
X10928Y-119787D01*
X10862Y-119904D01*
X10775Y-120020D01*
X10760Y-120035D01*
X10731Y-120064D01*
X10672Y-120115D01*
X10600Y-120174D01*
X10512Y-120239D01*
X10403Y-120298D01*
X10286Y-120356D01*
X10155Y-120392D01*
Y-120436D01*
X10162D01*
X10184Y-120443D01*
X10213Y-120451D01*
X10250Y-120458D01*
X10301Y-120473D01*
X10352Y-120494D01*
X10476Y-120538D01*
X10483D01*
X10505Y-120553D01*
X10541Y-120567D01*
X10585Y-120589D01*
X10687Y-120655D01*
X10796Y-120742D01*
X10804Y-120749D01*
X10818Y-120764D01*
X10847Y-120800D01*
X10884Y-120837D01*
X10920Y-120888D01*
X10957Y-120954D01*
X11001Y-121019D01*
X11037Y-121099D01*
X11044Y-121107D01*
X11052Y-121136D01*
X11066Y-121180D01*
X11088Y-121245D01*
X11103Y-121318D01*
X11117Y-121413D01*
X11124Y-121515D01*
X11132Y-121624D01*
Y-121639D01*
Y-121675D01*
X11124Y-121741D01*
X11117Y-121821D01*
X11103Y-121909D01*
X11081Y-122011D01*
X11052Y-122113D01*
X11015Y-122215D01*
X11008Y-122229D01*
X10993Y-122258D01*
X10971Y-122310D01*
X10935Y-122375D01*
X10891Y-122448D01*
X10840Y-122528D01*
X10782Y-122608D01*
X10709Y-122689D01*
X10702Y-122696D01*
X10672Y-122725D01*
X10629Y-122761D01*
X10571Y-122813D01*
X10490Y-122864D01*
X10410Y-122922D01*
X10308Y-122973D01*
X10206Y-123017D01*
X10191Y-123024D01*
X10155Y-123031D01*
X10097Y-123053D01*
X10016Y-123068D01*
X9914Y-123090D01*
X9805Y-123111D01*
X9681Y-123119D01*
X9543Y-123126D01*
X9484D01*
X9411Y-123119D01*
X9317Y-123111D01*
X9215Y-123104D01*
X9091Y-123090D01*
X8959Y-123068D01*
X8828Y-123039D01*
X8821D01*
X8814Y-123031D01*
X8770Y-123024D01*
X8704Y-123009D01*
X8624Y-122980D01*
X8529Y-122951D01*
X8434Y-122922D01*
X8340Y-122878D01*
X8245Y-122834D01*
Y-122164D01*
X8289D01*
X8296Y-122171D01*
X8325Y-122193D01*
X8369Y-122222D01*
X8427Y-122258D01*
X8507Y-122302D01*
X8595Y-122346D01*
X8704Y-122397D01*
X8821Y-122448D01*
X8828D01*
X8835Y-122455D01*
X8879Y-122470D01*
X8945Y-122492D01*
X9032Y-122514D01*
X9134Y-122536D01*
X9251Y-122557D01*
X9375Y-122572D01*
X9499Y-122579D01*
X9572D01*
X9623Y-122572D01*
X9681Y-122565D01*
X9747Y-122557D01*
X9893Y-122521D01*
X9900D01*
X9929Y-122506D01*
X9965Y-122492D01*
X10009Y-122470D01*
X10111Y-122404D01*
X10221Y-122317D01*
X10228Y-122310D01*
X10242Y-122295D01*
X10264Y-122266D01*
X10293Y-122229D01*
X10323Y-122178D01*
X10352Y-122127D01*
X10410Y-122011D01*
Y-122003D01*
X10425Y-121982D01*
X10432Y-121938D01*
X10447Y-121887D01*
X10461Y-121828D01*
X10468Y-121756D01*
X10483Y-121668D01*
Y-121573D01*
Y-121559D01*
Y-121529D01*
X10476Y-121486D01*
Y-121428D01*
X10461Y-121355D01*
X10447Y-121289D01*
X10432Y-121216D01*
X10403Y-121151D01*
Y-121143D01*
X10388Y-121121D01*
X10374Y-121092D01*
X10352Y-121056D01*
X10286Y-120968D01*
X10199Y-120888D01*
X10191Y-120881D01*
X10177Y-120873D01*
X10148Y-120859D01*
X10104Y-120837D01*
X10060Y-120815D01*
X10002Y-120793D01*
X9878Y-120757D01*
X9871D01*
X9849Y-120749D01*
X9812Y-120742D01*
X9761Y-120735D01*
X9703Y-120728D01*
X9637Y-120720D01*
X9484Y-120713D01*
X9215D01*
Y-120188D01*
X9492D01*
X9572Y-120174D01*
X9667Y-120159D01*
X9776Y-120137D01*
X9893Y-120101D01*
X10009Y-120050D01*
X10119Y-119984D01*
X10133Y-119977D01*
X10162Y-119948D01*
X10206Y-119897D01*
X10257Y-119831D01*
X10301Y-119751D01*
X10345Y-119649D01*
X10374Y-119532D01*
X10388Y-119394D01*
Y-119386D01*
Y-119364D01*
Y-119328D01*
X10381Y-119284D01*
X10359Y-119182D01*
X10315Y-119080D01*
Y-119073D01*
X10301Y-119058D01*
X10286Y-119036D01*
X10264Y-119007D01*
X10206Y-118942D01*
X10133Y-118876D01*
X10126Y-118869D01*
X10111Y-118861D01*
X10089Y-118847D01*
X10060Y-118825D01*
X9973Y-118789D01*
X9871Y-118759D01*
X9863D01*
X9849Y-118752D01*
X9812Y-118745D01*
X9776Y-118737D01*
X9732D01*
X9674Y-118730D01*
X9557Y-118723D01*
X9492D01*
X9455Y-118730D01*
X9397D01*
X9346Y-118737D01*
X9215Y-118767D01*
X9207D01*
X9185Y-118774D01*
X9156Y-118781D01*
X9112Y-118796D01*
X9061Y-118810D01*
X9003Y-118832D01*
X8879Y-118876D01*
X8872D01*
X8857Y-118891D01*
X8828Y-118898D01*
X8792Y-118920D01*
X8704Y-118963D01*
X8609Y-119015D01*
X8602D01*
X8595Y-119022D01*
X8544Y-119051D01*
X8478Y-119095D01*
X8413Y-119138D01*
X8376D01*
Y-118475D01*
X8383Y-118468D01*
X8413Y-118453D01*
X8456Y-118431D01*
X8522Y-118402D01*
X8602Y-118373D01*
X8697Y-118336D01*
X8806Y-118307D01*
X8930Y-118271D01*
X8937D01*
X8945Y-118264D01*
X8988Y-118256D01*
X9061Y-118242D01*
X9149Y-118220D01*
X9258Y-118205D01*
X9368Y-118191D01*
X9492Y-118183D01*
X9616Y-118176D01*
X9732D01*
X9805Y-118183D01*
D02*
G37*
G36*
X-6947D02*
X-6860Y-118191D01*
X-6765Y-118205D01*
X-6670Y-118220D01*
X-6576Y-118242D01*
X-6561D01*
X-6532Y-118256D01*
X-6488Y-118271D01*
X-6430Y-118293D01*
X-6364Y-118322D01*
X-6291Y-118358D01*
X-6146Y-118446D01*
X-6138Y-118453D01*
X-6109Y-118475D01*
X-6073Y-118504D01*
X-6029Y-118548D01*
X-5971Y-118606D01*
X-5920Y-118665D01*
X-5869Y-118737D01*
X-5825Y-118818D01*
X-5818Y-118825D01*
X-5810Y-118854D01*
X-5788Y-118905D01*
X-5766Y-118963D01*
X-5752Y-119036D01*
X-5730Y-119124D01*
X-5723Y-119219D01*
X-5715Y-119328D01*
Y-119335D01*
Y-119343D01*
Y-119364D01*
X-5723Y-119394D01*
X-5730Y-119466D01*
X-5745Y-119561D01*
X-5781Y-119671D01*
X-5825Y-119787D01*
X-5890Y-119904D01*
X-5978Y-120020D01*
X-5992Y-120035D01*
X-6022Y-120064D01*
X-6080Y-120115D01*
X-6153Y-120174D01*
X-6240Y-120239D01*
X-6350Y-120298D01*
X-6466Y-120356D01*
X-6598Y-120392D01*
Y-120436D01*
X-6590D01*
X-6568Y-120443D01*
X-6539Y-120451D01*
X-6503Y-120458D01*
X-6452Y-120473D01*
X-6401Y-120494D01*
X-6277Y-120538D01*
X-6269D01*
X-6248Y-120553D01*
X-6211Y-120567D01*
X-6167Y-120589D01*
X-6065Y-120655D01*
X-5956Y-120742D01*
X-5949Y-120749D01*
X-5934Y-120764D01*
X-5905Y-120800D01*
X-5869Y-120837D01*
X-5832Y-120888D01*
X-5796Y-120954D01*
X-5752Y-121019D01*
X-5715Y-121099D01*
X-5708Y-121107D01*
X-5701Y-121136D01*
X-5686Y-121180D01*
X-5664Y-121245D01*
X-5650Y-121318D01*
X-5635Y-121413D01*
X-5628Y-121515D01*
X-5621Y-121624D01*
Y-121639D01*
Y-121675D01*
X-5628Y-121741D01*
X-5635Y-121821D01*
X-5650Y-121909D01*
X-5672Y-122011D01*
X-5701Y-122113D01*
X-5737Y-122215D01*
X-5745Y-122229D01*
X-5759Y-122258D01*
X-5781Y-122310D01*
X-5818Y-122375D01*
X-5861Y-122448D01*
X-5912Y-122528D01*
X-5971Y-122608D01*
X-6043Y-122689D01*
X-6051Y-122696D01*
X-6080Y-122725D01*
X-6124Y-122761D01*
X-6182Y-122813D01*
X-6262Y-122864D01*
X-6342Y-122922D01*
X-6444Y-122973D01*
X-6547Y-123017D01*
X-6561Y-123024D01*
X-6598Y-123031D01*
X-6656Y-123053D01*
X-6736Y-123068D01*
X-6838Y-123090D01*
X-6947Y-123111D01*
X-7071Y-123119D01*
X-7210Y-123126D01*
X-7268D01*
X-7341Y-123119D01*
X-7436Y-123111D01*
X-7538Y-123104D01*
X-7662Y-123090D01*
X-7793Y-123068D01*
X-7924Y-123039D01*
X-7932D01*
X-7939Y-123031D01*
X-7983Y-123024D01*
X-8048Y-123009D01*
X-8128Y-122980D01*
X-8223Y-122951D01*
X-8318Y-122922D01*
X-8413Y-122878D01*
X-8507Y-122834D01*
Y-122164D01*
X-8464D01*
X-8456Y-122171D01*
X-8427Y-122193D01*
X-8383Y-122222D01*
X-8325Y-122258D01*
X-8245Y-122302D01*
X-8157Y-122346D01*
X-8048Y-122397D01*
X-7932Y-122448D01*
X-7924D01*
X-7917Y-122455D01*
X-7873Y-122470D01*
X-7808Y-122492D01*
X-7720Y-122514D01*
X-7618Y-122536D01*
X-7501Y-122557D01*
X-7378Y-122572D01*
X-7254Y-122579D01*
X-7181D01*
X-7130Y-122572D01*
X-7071Y-122565D01*
X-7006Y-122557D01*
X-6860Y-122521D01*
X-6853D01*
X-6824Y-122506D01*
X-6787Y-122492D01*
X-6743Y-122470D01*
X-6641Y-122404D01*
X-6532Y-122317D01*
X-6525Y-122310D01*
X-6510Y-122295D01*
X-6488Y-122266D01*
X-6459Y-122229D01*
X-6430Y-122178D01*
X-6401Y-122127D01*
X-6342Y-122011D01*
Y-122003D01*
X-6328Y-121982D01*
X-6320Y-121938D01*
X-6306Y-121887D01*
X-6291Y-121828D01*
X-6284Y-121756D01*
X-6269Y-121668D01*
Y-121573D01*
Y-121559D01*
Y-121529D01*
X-6277Y-121486D01*
Y-121428D01*
X-6291Y-121355D01*
X-6306Y-121289D01*
X-6320Y-121216D01*
X-6350Y-121151D01*
Y-121143D01*
X-6364Y-121121D01*
X-6379Y-121092D01*
X-6401Y-121056D01*
X-6466Y-120968D01*
X-6554Y-120888D01*
X-6561Y-120881D01*
X-6576Y-120873D01*
X-6605Y-120859D01*
X-6649Y-120837D01*
X-6692Y-120815D01*
X-6751Y-120793D01*
X-6875Y-120757D01*
X-6882D01*
X-6904Y-120749D01*
X-6940Y-120742D01*
X-6991Y-120735D01*
X-7050Y-120728D01*
X-7115Y-120720D01*
X-7268Y-120713D01*
X-7538D01*
Y-120188D01*
X-7261D01*
X-7181Y-120174D01*
X-7086Y-120159D01*
X-6977Y-120137D01*
X-6860Y-120101D01*
X-6743Y-120050D01*
X-6634Y-119984D01*
X-6619Y-119977D01*
X-6590Y-119948D01*
X-6547Y-119897D01*
X-6495Y-119831D01*
X-6452Y-119751D01*
X-6408Y-119649D01*
X-6379Y-119532D01*
X-6364Y-119394D01*
Y-119386D01*
Y-119364D01*
Y-119328D01*
X-6372Y-119284D01*
X-6393Y-119182D01*
X-6437Y-119080D01*
Y-119073D01*
X-6452Y-119058D01*
X-6466Y-119036D01*
X-6488Y-119007D01*
X-6547Y-118942D01*
X-6619Y-118876D01*
X-6627Y-118869D01*
X-6641Y-118861D01*
X-6663Y-118847D01*
X-6692Y-118825D01*
X-6780Y-118789D01*
X-6882Y-118759D01*
X-6889D01*
X-6904Y-118752D01*
X-6940Y-118745D01*
X-6977Y-118737D01*
X-7020D01*
X-7079Y-118730D01*
X-7195Y-118723D01*
X-7261D01*
X-7297Y-118730D01*
X-7356D01*
X-7407Y-118737D01*
X-7538Y-118767D01*
X-7545D01*
X-7567Y-118774D01*
X-7596Y-118781D01*
X-7640Y-118796D01*
X-7691Y-118810D01*
X-7749Y-118832D01*
X-7873Y-118876D01*
X-7880D01*
X-7895Y-118891D01*
X-7924Y-118898D01*
X-7961Y-118920D01*
X-8048Y-118963D01*
X-8143Y-119015D01*
X-8150D01*
X-8157Y-119022D01*
X-8209Y-119051D01*
X-8274Y-119095D01*
X-8340Y-119138D01*
X-8376D01*
Y-118475D01*
X-8369Y-118468D01*
X-8340Y-118453D01*
X-8296Y-118431D01*
X-8230Y-118402D01*
X-8150Y-118373D01*
X-8055Y-118336D01*
X-7946Y-118307D01*
X-7822Y-118271D01*
X-7815D01*
X-7808Y-118264D01*
X-7764Y-118256D01*
X-7691Y-118242D01*
X-7604Y-118220D01*
X-7494Y-118205D01*
X-7385Y-118191D01*
X-7261Y-118183D01*
X-7137Y-118176D01*
X-7020D01*
X-6947Y-118183D01*
D02*
G37*
G36*
X6145D02*
X6204D01*
X6269Y-118198D01*
X6415Y-118220D01*
X6583Y-118264D01*
X6758Y-118329D01*
X6845Y-118366D01*
X6926Y-118417D01*
X7006Y-118468D01*
X7079Y-118533D01*
X7086Y-118541D01*
X7093Y-118548D01*
X7115Y-118570D01*
X7137Y-118599D01*
X7166Y-118635D01*
X7195Y-118679D01*
X7232Y-118723D01*
X7268Y-118781D01*
X7341Y-118920D01*
X7399Y-119080D01*
X7443Y-119277D01*
X7450Y-119379D01*
X7458Y-119488D01*
Y-119503D01*
Y-119532D01*
Y-119590D01*
X7450Y-119656D01*
X7443Y-119736D01*
X7429Y-119824D01*
X7392Y-120006D01*
Y-120013D01*
X7378Y-120042D01*
X7363Y-120093D01*
X7348Y-120144D01*
X7319Y-120210D01*
X7290Y-120283D01*
X7210Y-120436D01*
X7203Y-120443D01*
X7188Y-120473D01*
X7166Y-120516D01*
X7130Y-120567D01*
X7086Y-120633D01*
X7042Y-120698D01*
X6926Y-120852D01*
X6918Y-120859D01*
X6896Y-120888D01*
X6860Y-120924D01*
X6816Y-120975D01*
X6765Y-121041D01*
X6707Y-121107D01*
X6576Y-121253D01*
X6561Y-121267D01*
X6525Y-121311D01*
X6459Y-121369D01*
X6379Y-121457D01*
X6284Y-121559D01*
X6167Y-121675D01*
X6043Y-121799D01*
X5905Y-121931D01*
X5898Y-121938D01*
X5890Y-121945D01*
X5847Y-121989D01*
X5774Y-122054D01*
X5694Y-122127D01*
X5599Y-122215D01*
X5497Y-122310D01*
X5402Y-122397D01*
X5314Y-122477D01*
X7655D01*
Y-123024D01*
X4724D01*
Y-122361D01*
X4731Y-122353D01*
X4738Y-122346D01*
X4775Y-122310D01*
X4840Y-122251D01*
X4913Y-122178D01*
X5008Y-122091D01*
X5103Y-121989D01*
X5314Y-121785D01*
X5329Y-121770D01*
X5365Y-121734D01*
X5416Y-121683D01*
X5489Y-121610D01*
X5577Y-121522D01*
X5672Y-121428D01*
X5766Y-121325D01*
X5868Y-121216D01*
X5876Y-121209D01*
X5890Y-121187D01*
X5919Y-121158D01*
X5956Y-121114D01*
X6000Y-121063D01*
X6051Y-121005D01*
X6160Y-120873D01*
X6284Y-120720D01*
X6408Y-120560D01*
X6517Y-120407D01*
X6561Y-120334D01*
X6605Y-120261D01*
Y-120254D01*
X6612Y-120247D01*
X6627Y-120225D01*
X6634Y-120195D01*
X6670Y-120123D01*
X6707Y-120028D01*
X6743Y-119918D01*
X6780Y-119794D01*
X6802Y-119656D01*
X6809Y-119518D01*
Y-119510D01*
Y-119481D01*
Y-119445D01*
X6802Y-119401D01*
X6780Y-119284D01*
X6743Y-119168D01*
Y-119160D01*
X6729Y-119138D01*
X6714Y-119116D01*
X6700Y-119080D01*
X6648Y-119000D01*
X6576Y-118920D01*
X6568Y-118912D01*
X6554Y-118905D01*
X6532Y-118883D01*
X6503Y-118869D01*
X6415Y-118818D01*
X6313Y-118774D01*
X6306D01*
X6291Y-118767D01*
X6255Y-118759D01*
X6218Y-118745D01*
X6175Y-118737D01*
X6116Y-118730D01*
X5992Y-118723D01*
X5927D01*
X5890Y-118730D01*
X5832D01*
X5781Y-118737D01*
X5650Y-118767D01*
X5642D01*
X5621Y-118774D01*
X5584Y-118781D01*
X5540Y-118796D01*
X5489Y-118810D01*
X5438Y-118832D01*
X5314Y-118876D01*
X5307D01*
X5293Y-118883D01*
X5263Y-118898D01*
X5234Y-118912D01*
X5154Y-118956D01*
X5059Y-119015D01*
X5052D01*
X5037Y-119029D01*
X5015Y-119044D01*
X4986Y-119058D01*
X4921Y-119095D01*
X4855Y-119138D01*
X4826D01*
Y-118468D01*
X4833Y-118460D01*
X4862Y-118453D01*
X4906Y-118431D01*
X4972Y-118402D01*
X5045Y-118373D01*
X5139Y-118344D01*
X5249Y-118307D01*
X5373Y-118271D01*
X5380D01*
X5387Y-118264D01*
X5431Y-118256D01*
X5497Y-118242D01*
X5584Y-118220D01*
X5686Y-118205D01*
X5803Y-118191D01*
X5919Y-118183D01*
X6036Y-118176D01*
X6102D01*
X6145Y-118183D01*
D02*
G37*
G36*
X-984D02*
X-926D01*
X-860Y-118198D01*
X-714Y-118220D01*
X-547Y-118264D01*
X-372Y-118329D01*
X-284Y-118366D01*
X-204Y-118417D01*
X-124Y-118468D01*
X-51Y-118533D01*
X-44Y-118541D01*
X-37Y-118548D01*
X-15Y-118570D01*
X7Y-118599D01*
X36Y-118635D01*
X66Y-118679D01*
X102Y-118723D01*
X138Y-118781D01*
X211Y-118920D01*
X270Y-119080D01*
X313Y-119277D01*
X321Y-119379D01*
X328Y-119488D01*
Y-119503D01*
Y-119532D01*
Y-119590D01*
X321Y-119656D01*
X313Y-119736D01*
X299Y-119824D01*
X262Y-120006D01*
Y-120013D01*
X248Y-120042D01*
X233Y-120093D01*
X219Y-120144D01*
X189Y-120210D01*
X160Y-120283D01*
X80Y-120436D01*
X73Y-120443D01*
X58Y-120473D01*
X36Y-120516D01*
X-0Y-120567D01*
X-44Y-120633D01*
X-88Y-120698D01*
X-204Y-120852D01*
X-211Y-120859D01*
X-233Y-120888D01*
X-270Y-120924D01*
X-313Y-120975D01*
X-365Y-121041D01*
X-423Y-121107D01*
X-554Y-121253D01*
X-569Y-121267D01*
X-605Y-121311D01*
X-671Y-121369D01*
X-751Y-121457D01*
X-846Y-121559D01*
X-962Y-121675D01*
X-1086Y-121799D01*
X-1225Y-121931D01*
X-1232Y-121938D01*
X-1239Y-121945D01*
X-1283Y-121989D01*
X-1356Y-122054D01*
X-1436Y-122127D01*
X-1531Y-122215D01*
X-1633Y-122310D01*
X-1728Y-122397D01*
X-1815Y-122477D01*
X525D01*
Y-123024D01*
X-2406D01*
Y-122361D01*
X-2398Y-122353D01*
X-2391Y-122346D01*
X-2355Y-122310D01*
X-2289Y-122251D01*
X-2216Y-122178D01*
X-2121Y-122091D01*
X-2027Y-121989D01*
X-1815Y-121785D01*
X-1801Y-121770D01*
X-1764Y-121734D01*
X-1713Y-121683D01*
X-1640Y-121610D01*
X-1553Y-121522D01*
X-1458Y-121428D01*
X-1363Y-121325D01*
X-1261Y-121216D01*
X-1254Y-121209D01*
X-1239Y-121187D01*
X-1210Y-121158D01*
X-1174Y-121114D01*
X-1130Y-121063D01*
X-1079Y-121005D01*
X-970Y-120873D01*
X-846Y-120720D01*
X-722Y-120560D01*
X-612Y-120407D01*
X-569Y-120334D01*
X-525Y-120261D01*
Y-120254D01*
X-518Y-120247D01*
X-503Y-120225D01*
X-496Y-120195D01*
X-459Y-120123D01*
X-423Y-120028D01*
X-386Y-119918D01*
X-350Y-119794D01*
X-328Y-119656D01*
X-321Y-119518D01*
Y-119510D01*
Y-119481D01*
Y-119445D01*
X-328Y-119401D01*
X-350Y-119284D01*
X-386Y-119168D01*
Y-119160D01*
X-401Y-119138D01*
X-416Y-119116D01*
X-430Y-119080D01*
X-481Y-119000D01*
X-554Y-118920D01*
X-561Y-118912D01*
X-576Y-118905D01*
X-598Y-118883D01*
X-627Y-118869D01*
X-714Y-118818D01*
X-817Y-118774D01*
X-824D01*
X-838Y-118767D01*
X-875Y-118759D01*
X-911Y-118745D01*
X-955Y-118737D01*
X-1013Y-118730D01*
X-1137Y-118723D01*
X-1203D01*
X-1239Y-118730D01*
X-1298D01*
X-1349Y-118737D01*
X-1480Y-118767D01*
X-1487D01*
X-1509Y-118774D01*
X-1546Y-118781D01*
X-1589Y-118796D01*
X-1640Y-118810D01*
X-1691Y-118832D01*
X-1815Y-118876D01*
X-1822D01*
X-1837Y-118883D01*
X-1866Y-118898D01*
X-1895Y-118912D01*
X-1976Y-118956D01*
X-2070Y-119015D01*
X-2078D01*
X-2092Y-119029D01*
X-2114Y-119044D01*
X-2143Y-119058D01*
X-2209Y-119095D01*
X-2275Y-119138D01*
X-2304D01*
Y-118468D01*
X-2296Y-118460D01*
X-2267Y-118453D01*
X-2224Y-118431D01*
X-2158Y-118402D01*
X-2085Y-118373D01*
X-1990Y-118344D01*
X-1881Y-118307D01*
X-1757Y-118271D01*
X-1750D01*
X-1742Y-118264D01*
X-1699Y-118256D01*
X-1633Y-118242D01*
X-1546Y-118220D01*
X-1443Y-118205D01*
X-1327Y-118191D01*
X-1210Y-118183D01*
X-1094Y-118176D01*
X-1028D01*
X-984Y-118183D01*
D02*
G37*
G36*
X2661D02*
X2719D01*
X2778Y-118198D01*
X2858Y-118205D01*
X2938Y-118227D01*
X3025Y-118256D01*
X3113Y-118286D01*
X3208Y-118329D01*
X3302Y-118380D01*
X3397Y-118439D01*
X3492Y-118511D01*
X3579Y-118592D01*
X3660Y-118686D01*
X3732Y-118796D01*
X3740Y-118803D01*
X3747Y-118825D01*
X3769Y-118861D01*
X3791Y-118912D01*
X3820Y-118978D01*
X3849Y-119058D01*
X3886Y-119153D01*
X3922Y-119262D01*
X3951Y-119386D01*
X3988Y-119525D01*
X4017Y-119671D01*
X4046Y-119838D01*
X4068Y-120020D01*
X4090Y-120217D01*
X4097Y-120429D01*
X4104Y-120655D01*
Y-120669D01*
Y-120713D01*
Y-120779D01*
X4097Y-120866D01*
X4090Y-120968D01*
X4082Y-121092D01*
X4075Y-121223D01*
X4061Y-121369D01*
X4017Y-121675D01*
X3951Y-121982D01*
X3907Y-122135D01*
X3856Y-122273D01*
X3798Y-122412D01*
X3732Y-122528D01*
X3725Y-122536D01*
X3718Y-122550D01*
X3696Y-122587D01*
X3660Y-122623D01*
X3623Y-122667D01*
X3572Y-122718D01*
X3514Y-122769D01*
X3448Y-122827D01*
X3375Y-122886D01*
X3288Y-122936D01*
X3193Y-122987D01*
X3091Y-123031D01*
X2982Y-123068D01*
X2858Y-123097D01*
X2726Y-123119D01*
X2588Y-123126D01*
X2551D01*
X2515Y-123119D01*
X2457D01*
X2391Y-123104D01*
X2318Y-123097D01*
X2238Y-123075D01*
X2151Y-123053D01*
X2056Y-123017D01*
X1961Y-122980D01*
X1866Y-122929D01*
X1771Y-122871D01*
X1677Y-122798D01*
X1589Y-122718D01*
X1509Y-122630D01*
X1436Y-122521D01*
X1429Y-122514D01*
X1421Y-122492D01*
X1400Y-122455D01*
X1378Y-122404D01*
X1349Y-122339D01*
X1319Y-122258D01*
X1290Y-122164D01*
X1254Y-122054D01*
X1217Y-121938D01*
X1188Y-121799D01*
X1159Y-121646D01*
X1130Y-121478D01*
X1108Y-121289D01*
X1086Y-121092D01*
X1079Y-120881D01*
X1072Y-120655D01*
Y-120647D01*
Y-120640D01*
Y-120596D01*
Y-120531D01*
X1079Y-120443D01*
X1086Y-120341D01*
X1094Y-120217D01*
X1101Y-120086D01*
X1115Y-119940D01*
X1159Y-119634D01*
X1225Y-119321D01*
X1268Y-119168D01*
X1319Y-119029D01*
X1371Y-118891D01*
X1436Y-118774D01*
X1443Y-118767D01*
X1451Y-118745D01*
X1473Y-118716D01*
X1509Y-118679D01*
X1545Y-118635D01*
X1596Y-118584D01*
X1655Y-118533D01*
X1720Y-118475D01*
X1793Y-118417D01*
X1881Y-118366D01*
X1976Y-118315D01*
X2078Y-118271D01*
X2194Y-118234D01*
X2318Y-118198D01*
X2449Y-118183D01*
X2588Y-118176D01*
X2624D01*
X2661Y-118183D01*
D02*
G37*
G36*
X-10527D02*
X-10469D01*
X-10410Y-118198D01*
X-10330Y-118205D01*
X-10250Y-118227D01*
X-10162Y-118256D01*
X-10075Y-118286D01*
X-9980Y-118329D01*
X-9885Y-118380D01*
X-9791Y-118439D01*
X-9696Y-118511D01*
X-9608Y-118592D01*
X-9528Y-118686D01*
X-9455Y-118796D01*
X-9448Y-118803D01*
X-9441Y-118825D01*
X-9419Y-118861D01*
X-9397Y-118912D01*
X-9368Y-118978D01*
X-9339Y-119058D01*
X-9302Y-119153D01*
X-9266Y-119262D01*
X-9236Y-119386D01*
X-9200Y-119525D01*
X-9171Y-119671D01*
X-9142Y-119838D01*
X-9120Y-120020D01*
X-9098Y-120217D01*
X-9091Y-120429D01*
X-9083Y-120655D01*
Y-120669D01*
Y-120713D01*
Y-120779D01*
X-9091Y-120866D01*
X-9098Y-120968D01*
X-9105Y-121092D01*
X-9112Y-121223D01*
X-9127Y-121369D01*
X-9171Y-121675D01*
X-9236Y-121982D01*
X-9280Y-122135D01*
X-9331Y-122273D01*
X-9390Y-122412D01*
X-9455Y-122528D01*
X-9462Y-122536D01*
X-9470Y-122550D01*
X-9492Y-122587D01*
X-9528Y-122623D01*
X-9565Y-122667D01*
X-9616Y-122718D01*
X-9674Y-122769D01*
X-9740Y-122827D01*
X-9812Y-122886D01*
X-9900Y-122936D01*
X-9995Y-122987D01*
X-10097Y-123031D01*
X-10206Y-123068D01*
X-10330Y-123097D01*
X-10461Y-123119D01*
X-10600Y-123126D01*
X-10636D01*
X-10673Y-123119D01*
X-10731D01*
X-10796Y-123104D01*
X-10869Y-123097D01*
X-10950Y-123075D01*
X-11037Y-123053D01*
X-11132Y-123017D01*
X-11227Y-122980D01*
X-11321Y-122929D01*
X-11416Y-122871D01*
X-11511Y-122798D01*
X-11598Y-122718D01*
X-11679Y-122630D01*
X-11751Y-122521D01*
X-11759Y-122514D01*
X-11766Y-122492D01*
X-11788Y-122455D01*
X-11810Y-122404D01*
X-11839Y-122339D01*
X-11868Y-122258D01*
X-11897Y-122164D01*
X-11934Y-122054D01*
X-11970Y-121938D01*
X-11999Y-121799D01*
X-12028Y-121646D01*
X-12058Y-121478D01*
X-12080Y-121289D01*
X-12101Y-121092D01*
X-12109Y-120881D01*
X-12116Y-120655D01*
Y-120647D01*
Y-120640D01*
Y-120596D01*
Y-120531D01*
X-12109Y-120443D01*
X-12101Y-120341D01*
X-12094Y-120217D01*
X-12087Y-120086D01*
X-12072Y-119940D01*
X-12028Y-119634D01*
X-11963Y-119321D01*
X-11919Y-119168D01*
X-11868Y-119029D01*
X-11817Y-118891D01*
X-11751Y-118774D01*
X-11744Y-118767D01*
X-11737Y-118745D01*
X-11715Y-118716D01*
X-11679Y-118679D01*
X-11642Y-118635D01*
X-11591Y-118584D01*
X-11533Y-118533D01*
X-11467Y-118475D01*
X-11394Y-118417D01*
X-11307Y-118366D01*
X-11212Y-118315D01*
X-11110Y-118271D01*
X-10993Y-118234D01*
X-10869Y-118198D01*
X-10738Y-118183D01*
X-10600Y-118176D01*
X-10563D01*
X-10527Y-118183D01*
D02*
G37*
G36*
X-4790Y-124059D02*
X-5322D01*
X-3470Y-118067D01*
X-2923D01*
X-4790Y-124059D01*
D02*
G37*
G36*
X69390Y-80761D02*
Y-97047D01*
X-69882D01*
Y-80761D01*
X69390D01*
D02*
G37*
G36*
X24557Y-150197D02*
X16388D01*
Y-142618D01*
X24557D01*
Y-150197D01*
D02*
G37*
G36*
X-142471Y16929D02*
X-150640D01*
Y24508D01*
X-142471D01*
Y16929D01*
D02*
G37*
G36*
X132677Y-7874D02*
Y-38583D01*
X123228D01*
Y-7874D01*
X132677D01*
D02*
G37*
%LPC*%
G36*
X21354Y149112D02*
X20808D01*
Y146816D01*
X18934D01*
X18278Y144279D01*
X18825D01*
X19357Y146277D01*
X20800D01*
X20261Y144279D01*
X20815D01*
X21347Y146277D01*
X22783D01*
X22251Y144279D01*
X22798D01*
X23454Y146816D01*
X21354D01*
Y149112D01*
D02*
G37*
G36*
X146847Y23352D02*
X146300D01*
Y21055D01*
X144426D01*
X143770Y18518D01*
X144317D01*
X144849Y20516D01*
X146293D01*
X145753Y18518D01*
X146307D01*
X146839Y20516D01*
X148275D01*
X147743Y18518D01*
X148290D01*
X148946Y21055D01*
X146847D01*
Y23352D01*
D02*
G37*
G36*
X37643Y-102781D02*
X33610D01*
Y-108388D01*
D01*
Y-102781D01*
X37588D01*
X37424Y-102792D01*
X37260Y-102836D01*
X37096Y-102891D01*
X36954Y-102967D01*
X36801Y-103055D01*
X36670Y-103153D01*
X36419Y-103372D01*
X36309Y-103481D01*
X36211Y-103590D01*
X36124Y-103689D01*
X36047Y-103776D01*
X35993Y-103852D01*
X35949Y-103907D01*
X35927Y-103951D01*
X35916Y-103962D01*
X36135Y-102902D01*
X34757D01*
X33610Y-108388D01*
X38277D01*
X35074D01*
X35435Y-106673D01*
X35479Y-106487D01*
X35511Y-106301D01*
X35555Y-106137D01*
X35599Y-105995D01*
X35632Y-105853D01*
X35665Y-105722D01*
X35708Y-105612D01*
X35741Y-105514D01*
X35763Y-105426D01*
X35796Y-105350D01*
X35818Y-105284D01*
X35839Y-105230D01*
X35850Y-105197D01*
X35861Y-105164D01*
X35872Y-105142D01*
X35960Y-104967D01*
X36058Y-104814D01*
X36167Y-104683D01*
X36266Y-104574D01*
X36353Y-104497D01*
X36419Y-104432D01*
X36463Y-104388D01*
X36484Y-104377D01*
X36637Y-104279D01*
X36779Y-104202D01*
X36911Y-104159D01*
X37031Y-104115D01*
X37129Y-104093D01*
X37206Y-104082D01*
X37271D01*
X37435Y-104093D01*
X37577Y-104115D01*
X37632Y-104137D01*
X37676Y-104148D01*
X37697Y-104159D01*
X37709D01*
X38277Y-102945D01*
X38146Y-102891D01*
X38015Y-102847D01*
X37894Y-102825D01*
X37796Y-102803D01*
X37709Y-102792D01*
X37643Y-102781D01*
D02*
G37*
G36*
X-31293Y-100825D02*
X-33107D01*
X-34167Y-102355D01*
X-34889Y-103361D01*
X-35063Y-103623D01*
X-35140Y-103743D01*
X-35206Y-103852D01*
X-35249Y-103940D01*
X-35293Y-104006D01*
X-35315Y-104049D01*
X-35326Y-104060D01*
X-35380Y-103918D01*
X-35446Y-103743D01*
X-35522Y-103557D01*
X-35599Y-103383D01*
X-35665Y-103219D01*
X-35697Y-103142D01*
X-35719Y-103077D01*
X-35741Y-103033D01*
X-35763Y-102989D01*
X-35774Y-102967D01*
Y-102956D01*
X-36714Y-100825D01*
X-38375D01*
Y-108388D01*
D01*
Y-100825D01*
X-36288Y-105437D01*
X-36900Y-108388D01*
X-38375D01*
X-35359D01*
X-34768Y-105590D01*
X-31293Y-100825D01*
D02*
G37*
G36*
X23827Y-102781D02*
X18220D01*
Y-108531D01*
D01*
Y-106869D01*
D01*
D01*
Y-102781D01*
X21532D01*
X21292Y-102792D01*
X21062Y-102814D01*
X20854Y-102847D01*
X20658Y-102880D01*
X20472Y-102934D01*
X20308Y-102989D01*
X20166Y-103055D01*
X20024Y-103109D01*
X19904Y-103175D01*
X19805Y-103241D01*
X19718Y-103295D01*
X19652Y-103339D01*
X19598Y-103383D01*
X19554Y-103415D01*
X19532Y-103437D01*
X19521Y-103448D01*
X19433Y-103536D01*
X19368Y-103634D01*
X19248Y-103820D01*
X19160Y-104006D01*
X19106Y-104180D01*
X19062Y-104333D01*
X19051Y-104454D01*
X19040Y-104497D01*
Y-104530D01*
Y-104552D01*
Y-104563D01*
X19051Y-104683D01*
X19062Y-104792D01*
X19117Y-105000D01*
X19193Y-105186D01*
X19291Y-105339D01*
X19379Y-105459D01*
X19455Y-105547D01*
X19510Y-105601D01*
X19532Y-105623D01*
X19608Y-105667D01*
X19696Y-105722D01*
X19805Y-105776D01*
X19936Y-105842D01*
X20210Y-105951D01*
X20494Y-106071D01*
X20767Y-106170D01*
X20887Y-106213D01*
X20986Y-106246D01*
X21073Y-106279D01*
X21149Y-106301D01*
X21193Y-106323D01*
X21204D01*
X21379Y-106377D01*
X21510Y-106432D01*
X21620Y-106487D01*
X21707Y-106530D01*
X21762Y-106563D01*
X21805Y-106585D01*
X21816Y-106596D01*
X21827Y-106607D01*
X21893Y-106694D01*
X21926Y-106782D01*
X21937Y-106847D01*
Y-106858D01*
Y-106869D01*
X21926Y-106957D01*
X21904Y-107022D01*
X21827Y-107142D01*
X21783Y-107186D01*
X21751Y-107219D01*
X21729Y-107241D01*
X21718Y-107252D01*
X21598Y-107328D01*
X21466Y-107383D01*
X21324Y-107416D01*
X21193Y-107438D01*
X21073Y-107459D01*
X20986Y-107470D01*
X20898D01*
X20723Y-107459D01*
X20570Y-107438D01*
X20439Y-107416D01*
X20330Y-107372D01*
X20242Y-107339D01*
X20177Y-107317D01*
X20133Y-107296D01*
X20122Y-107284D01*
X20024Y-107208D01*
X19925Y-107110D01*
X19849Y-107000D01*
X19783Y-106891D01*
X19729Y-106793D01*
X19685Y-106716D01*
X19663Y-106661D01*
X19652Y-106640D01*
X18220Y-106869D01*
D01*
X18319Y-107153D01*
X18450Y-107394D01*
X18603Y-107612D01*
X18745Y-107787D01*
X18876Y-107919D01*
X18985Y-108028D01*
X19029Y-108061D01*
X19062Y-108082D01*
X19084Y-108104D01*
X19095D01*
X19226Y-108181D01*
X19357Y-108246D01*
X19652Y-108356D01*
X19958Y-108421D01*
X20253Y-108476D01*
X20395Y-108498D01*
X20516Y-108509D01*
X20636Y-108520D01*
X20734D01*
X20822Y-108531D01*
X20931D01*
X21149Y-108520D01*
X21357Y-108509D01*
X21543Y-108476D01*
X21718Y-108443D01*
X21893Y-108399D01*
X22035Y-108356D01*
X22177Y-108301D01*
X22297Y-108246D01*
X22407Y-108192D01*
X22505Y-108137D01*
X22592Y-108093D01*
X22658Y-108050D01*
X22713Y-108017D01*
X22745Y-107984D01*
X22767Y-107973D01*
X22778Y-107962D01*
X22898Y-107853D01*
X22997Y-107733D01*
X23084Y-107623D01*
X23161Y-107503D01*
X23226Y-107394D01*
X23281Y-107274D01*
X23357Y-107066D01*
X23412Y-106880D01*
X23423Y-106804D01*
X23434Y-106738D01*
X23445Y-106683D01*
Y-106640D01*
Y-106618D01*
Y-106607D01*
X23434Y-106498D01*
X23423Y-106388D01*
X23368Y-106192D01*
X23281Y-106017D01*
X23182Y-105864D01*
X23084Y-105743D01*
X23008Y-105645D01*
X22942Y-105590D01*
X22931Y-105569D01*
X22920D01*
X22844Y-105514D01*
X22756Y-105459D01*
X22647Y-105405D01*
X22538Y-105350D01*
X22297Y-105241D01*
X22057Y-105153D01*
X21827Y-105077D01*
X21729Y-105044D01*
X21641Y-105011D01*
X21565Y-104989D01*
X21510Y-104967D01*
X21477Y-104956D01*
X21466D01*
X21335Y-104924D01*
X21226Y-104880D01*
X21128Y-104847D01*
X21040Y-104825D01*
X20953Y-104792D01*
X20887Y-104771D01*
X20778Y-104727D01*
X20701Y-104705D01*
X20658Y-104683D01*
X20636Y-104661D01*
X20625D01*
X20559Y-104607D01*
X20516Y-104552D01*
X20472Y-104497D01*
X20450Y-104443D01*
X20439Y-104399D01*
X20428Y-104355D01*
Y-104333D01*
Y-104323D01*
X20439Y-104246D01*
X20461Y-104180D01*
X20527Y-104071D01*
X20559Y-104027D01*
X20592Y-103995D01*
X20614Y-103984D01*
X20625Y-103973D01*
X20712Y-103918D01*
X20822Y-103874D01*
X20931Y-103852D01*
X21040Y-103831D01*
X21139Y-103820D01*
X21226Y-103809D01*
X21303D01*
X21477Y-103820D01*
X21630Y-103842D01*
X21762Y-103874D01*
X21882Y-103907D01*
X21969Y-103951D01*
X22046Y-103984D01*
X22090Y-104006D01*
X22100Y-104016D01*
X22188Y-104071D01*
X22264Y-104148D01*
X22330Y-104213D01*
X22374Y-104290D01*
X22417Y-104355D01*
X22439Y-104410D01*
X22461Y-104443D01*
Y-104454D01*
X23827Y-104224D01*
D01*
X23751Y-103984D01*
X23652Y-103776D01*
X23543Y-103601D01*
X23423Y-103448D01*
X23314Y-103328D01*
X23215Y-103241D01*
X23150Y-103197D01*
X23139Y-103175D01*
X23128D01*
X23019Y-103109D01*
X22909Y-103044D01*
X22658Y-102945D01*
X22385Y-102880D01*
X22133Y-102825D01*
X21893Y-102803D01*
X21794Y-102792D01*
X21707D01*
X21630Y-102781D01*
X23827D01*
D02*
G37*
G36*
X-20822Y-102781D02*
X-26429D01*
Y-108531D01*
D01*
Y-106869D01*
D01*
D01*
Y-102781D01*
X-23117D01*
X-23357Y-102792D01*
X-23587Y-102814D01*
X-23795Y-102847D01*
X-23991Y-102880D01*
X-24177Y-102934D01*
X-24341Y-102989D01*
X-24483Y-103055D01*
X-24625Y-103109D01*
X-24746Y-103175D01*
X-24844Y-103241D01*
X-24931Y-103295D01*
X-24997Y-103339D01*
X-25052Y-103383D01*
X-25095Y-103415D01*
X-25117Y-103437D01*
X-25128Y-103448D01*
X-25216Y-103536D01*
X-25281Y-103634D01*
X-25401Y-103820D01*
X-25489Y-104006D01*
X-25543Y-104180D01*
X-25587Y-104333D01*
X-25598Y-104454D01*
X-25609Y-104497D01*
Y-104530D01*
Y-104552D01*
Y-104563D01*
X-25598Y-104683D01*
X-25587Y-104792D01*
X-25532Y-105000D01*
X-25456Y-105186D01*
X-25358Y-105339D01*
X-25270Y-105459D01*
X-25194Y-105547D01*
X-25139Y-105601D01*
X-25117Y-105623D01*
X-25041Y-105667D01*
X-24953Y-105722D01*
X-24844Y-105776D01*
X-24713Y-105842D01*
X-24440Y-105951D01*
X-24155Y-106071D01*
X-23882Y-106170D01*
X-23762Y-106213D01*
X-23663Y-106246D01*
X-23576Y-106279D01*
X-23499Y-106301D01*
X-23456Y-106323D01*
X-23445D01*
X-23270Y-106377D01*
X-23139Y-106432D01*
X-23030Y-106487D01*
X-22942Y-106530D01*
X-22887Y-106563D01*
X-22844Y-106585D01*
X-22833Y-106596D01*
X-22822Y-106607D01*
X-22756Y-106694D01*
X-22724Y-106782D01*
X-22713Y-106847D01*
Y-106858D01*
Y-106869D01*
X-22724Y-106957D01*
X-22745Y-107022D01*
X-22822Y-107142D01*
X-22866Y-107186D01*
X-22898Y-107219D01*
X-22920Y-107241D01*
X-22931Y-107252D01*
X-23051Y-107328D01*
X-23183Y-107383D01*
X-23325Y-107416D01*
X-23456Y-107438D01*
X-23576Y-107459D01*
X-23663Y-107470D01*
X-23751D01*
X-23926Y-107459D01*
X-24079Y-107438D01*
X-24210Y-107416D01*
X-24319Y-107372D01*
X-24407Y-107339D01*
X-24472Y-107317D01*
X-24516Y-107296D01*
X-24527Y-107285D01*
X-24625Y-107208D01*
X-24724Y-107110D01*
X-24800Y-107000D01*
X-24866Y-106891D01*
X-24920Y-106793D01*
X-24964Y-106716D01*
X-24986Y-106662D01*
X-24997Y-106640D01*
X-26429Y-106869D01*
D01*
X-26330Y-107153D01*
X-26199Y-107394D01*
X-26046Y-107613D01*
X-25904Y-107787D01*
X-25773Y-107919D01*
X-25664Y-108028D01*
X-25620Y-108061D01*
X-25587Y-108082D01*
X-25565Y-108104D01*
X-25554D01*
X-25423Y-108181D01*
X-25292Y-108246D01*
X-24997Y-108356D01*
X-24691Y-108421D01*
X-24396Y-108476D01*
X-24254Y-108498D01*
X-24134Y-108509D01*
X-24013Y-108520D01*
X-23915D01*
X-23827Y-108531D01*
X-23718D01*
X-23499Y-108520D01*
X-23292Y-108509D01*
X-23106Y-108476D01*
X-22931Y-108443D01*
X-22756Y-108399D01*
X-22614Y-108356D01*
X-22472Y-108301D01*
X-22352Y-108246D01*
X-22243Y-108192D01*
X-22144Y-108137D01*
X-22057Y-108093D01*
X-21991Y-108050D01*
X-21937Y-108017D01*
X-21904Y-107984D01*
X-21882Y-107973D01*
X-21871Y-107962D01*
X-21751Y-107853D01*
X-21652Y-107733D01*
X-21565Y-107623D01*
X-21488Y-107503D01*
X-21423Y-107394D01*
X-21368Y-107274D01*
X-21292Y-107066D01*
X-21237Y-106880D01*
X-21226Y-106804D01*
X-21215Y-106738D01*
X-21204Y-106683D01*
Y-106640D01*
Y-106618D01*
Y-106607D01*
X-21215Y-106498D01*
X-21226Y-106388D01*
X-21281Y-106192D01*
X-21368Y-106017D01*
X-21467Y-105864D01*
X-21565Y-105743D01*
X-21641Y-105645D01*
X-21707Y-105590D01*
X-21718Y-105569D01*
X-21729D01*
X-21805Y-105514D01*
X-21893Y-105459D01*
X-22002Y-105405D01*
X-22111Y-105350D01*
X-22352Y-105241D01*
X-22592Y-105153D01*
X-22822Y-105077D01*
X-22920Y-105044D01*
X-23008Y-105011D01*
X-23084Y-104989D01*
X-23139Y-104967D01*
X-23172Y-104956D01*
X-23183D01*
X-23314Y-104924D01*
X-23423Y-104880D01*
X-23521Y-104847D01*
X-23609Y-104825D01*
X-23696Y-104792D01*
X-23762Y-104771D01*
X-23871Y-104727D01*
X-23948Y-104705D01*
X-23991Y-104683D01*
X-24013Y-104661D01*
X-24024D01*
X-24090Y-104607D01*
X-24134Y-104552D01*
X-24177Y-104497D01*
X-24199Y-104443D01*
X-24210Y-104399D01*
X-24221Y-104355D01*
Y-104333D01*
Y-104323D01*
X-24210Y-104246D01*
X-24188Y-104180D01*
X-24123Y-104071D01*
X-24090Y-104027D01*
X-24057Y-103995D01*
X-24035Y-103984D01*
X-24024Y-103973D01*
X-23937Y-103918D01*
X-23827Y-103874D01*
X-23718Y-103852D01*
X-23609Y-103831D01*
X-23510Y-103820D01*
X-23423Y-103809D01*
X-23347D01*
X-23172Y-103820D01*
X-23019Y-103842D01*
X-22887Y-103874D01*
X-22767Y-103907D01*
X-22680Y-103951D01*
X-22603Y-103984D01*
X-22559Y-104006D01*
X-22549Y-104016D01*
X-22461Y-104071D01*
X-22385Y-104148D01*
X-22319Y-104213D01*
X-22275Y-104290D01*
X-22232Y-104355D01*
X-22210Y-104410D01*
X-22188Y-104443D01*
Y-104454D01*
X-20822Y-104224D01*
D01*
X-20898Y-103984D01*
X-20997Y-103776D01*
X-21106Y-103601D01*
X-21226Y-103448D01*
X-21335Y-103328D01*
X-21434Y-103241D01*
X-21499Y-103197D01*
X-21510Y-103175D01*
X-21521D01*
X-21631Y-103109D01*
X-21740Y-103044D01*
X-21991Y-102945D01*
X-22264Y-102880D01*
X-22516Y-102825D01*
X-22756Y-102803D01*
X-22855Y-102792D01*
X-22942D01*
X-23019Y-102781D01*
X-20822D01*
D02*
G37*
G36*
X-9793Y-100825D02*
X-11225D01*
X-12296Y-105886D01*
X-14351Y-100825D01*
X-17368D01*
Y-108388D01*
D01*
Y-100825D01*
X-15783D01*
X-17368Y-108388D01*
X-14004D01*
X-15936D01*
X-14865Y-103306D01*
X-12810Y-108388D01*
X-9793D01*
X-11378D01*
X-9793Y-100825D01*
D01*
D02*
G37*
G36*
X17739Y-102781D02*
X12580D01*
Y-108531D01*
D01*
Y-106935D01*
X12602Y-107186D01*
X12646Y-107416D01*
X12722Y-107612D01*
X12799Y-107776D01*
X12876Y-107919D01*
X12952Y-108017D01*
X12996Y-108071D01*
X13018Y-108093D01*
X13193Y-108236D01*
X13378Y-108345D01*
X13575Y-108421D01*
X13750Y-108476D01*
X13903Y-108509D01*
X14034Y-108520D01*
X14078Y-108531D01*
X14143D01*
D01*
X17739D01*
X14143D01*
X14307Y-108520D01*
X14460Y-108498D01*
X14602Y-108465D01*
X14734Y-108432D01*
X14843Y-108399D01*
X14919Y-108367D01*
X14974Y-108345D01*
X14996Y-108334D01*
X15149Y-108257D01*
X15291Y-108159D01*
X15422Y-108071D01*
X15531Y-107984D01*
X15619Y-107897D01*
X15695Y-107831D01*
X15739Y-107787D01*
X15750Y-107776D01*
X15772Y-108006D01*
X15794Y-108104D01*
X15805Y-108203D01*
X15827Y-108279D01*
X15848Y-108334D01*
X15859Y-108378D01*
Y-108388D01*
X17291D01*
X17247Y-108236D01*
X17226Y-108082D01*
X17204Y-107951D01*
X17182Y-107842D01*
Y-107744D01*
X17171Y-107678D01*
Y-107623D01*
Y-107612D01*
Y-107536D01*
X17182Y-107438D01*
X17204Y-107230D01*
X17237Y-107011D01*
X17280Y-106782D01*
X17313Y-106574D01*
X17335Y-106487D01*
X17346Y-106399D01*
X17357Y-106334D01*
X17368Y-106290D01*
X17379Y-106257D01*
Y-106246D01*
X17422Y-106038D01*
X17466Y-105842D01*
X17510Y-105667D01*
X17543Y-105514D01*
X17564Y-105383D01*
X17586Y-105262D01*
X17608Y-105153D01*
X17630Y-105066D01*
X17641Y-104989D01*
X17663Y-104935D01*
Y-104880D01*
X17674Y-104847D01*
X17685Y-104792D01*
Y-104782D01*
X17718Y-104574D01*
X17728Y-104487D01*
Y-104410D01*
X17739Y-104344D01*
Y-104137D01*
X17718Y-104027D01*
X17663Y-103831D01*
X17575Y-103656D01*
X17488Y-103503D01*
X17390Y-103372D01*
X17302Y-103284D01*
X17247Y-103229D01*
X17237Y-103208D01*
X17226D01*
X17127Y-103131D01*
X17018Y-103066D01*
X16767Y-102956D01*
X16515Y-102880D01*
X16253Y-102836D01*
X16023Y-102803D01*
X15925Y-102792D01*
X15837D01*
X15761Y-102781D01*
X17739D01*
D02*
G37*
G36*
X6678Y-100825D02*
X710D01*
X459Y-102093D01*
X2667D01*
X1355Y-108388D01*
X459D01*
Y-100825D01*
D01*
Y-108388D01*
X6296D01*
X2907D01*
X4219Y-102093D01*
X6427D01*
X6678Y-100825D01*
D01*
D02*
G37*
G36*
X28003Y-101011D02*
X24669D01*
Y-108531D01*
D01*
Y-101011D01*
X27478D01*
X25795Y-102027D01*
X25620Y-102902D01*
X24899D01*
X24669Y-104006D01*
X25401D01*
X24931Y-106213D01*
X24899Y-106377D01*
X24866Y-106530D01*
X24844Y-106661D01*
X24822Y-106782D01*
X24800Y-106891D01*
X24778Y-106989D01*
X24767Y-107066D01*
X24756Y-107142D01*
X24746Y-107252D01*
X24735Y-107328D01*
Y-107372D01*
Y-107383D01*
X24746Y-107580D01*
X24789Y-107744D01*
X24844Y-107897D01*
X24909Y-108017D01*
X24975Y-108104D01*
X25030Y-108181D01*
X25073Y-108224D01*
X25084Y-108236D01*
X25237Y-108334D01*
X25412Y-108410D01*
X25609Y-108454D01*
X25795Y-108498D01*
X25970Y-108520D01*
X26035D01*
X26101Y-108531D01*
X24669D01*
X33260D01*
D01*
X30495D01*
X30790Y-108509D01*
X31052Y-108465D01*
X31304Y-108410D01*
X31511Y-108334D01*
X31697Y-108257D01*
X31762Y-108224D01*
X31828Y-108203D01*
X31872Y-108170D01*
X31905Y-108159D01*
X31927Y-108137D01*
X31937D01*
X32167Y-107973D01*
X32375Y-107776D01*
X32560Y-107580D01*
X32713Y-107383D01*
X32823Y-107197D01*
X32877Y-107121D01*
X32910Y-107055D01*
X32943Y-107000D01*
X32965Y-106957D01*
X32987Y-106935D01*
Y-106924D01*
X31664Y-106705D01*
X31588Y-106836D01*
X31500Y-106957D01*
X31402Y-107055D01*
X31304Y-107142D01*
X31216Y-107219D01*
X31118Y-107284D01*
X31019Y-107339D01*
X30932Y-107372D01*
X30768Y-107427D01*
X30691Y-107448D01*
X30626Y-107459D01*
X30582Y-107470D01*
X30506D01*
X30342Y-107459D01*
X30189Y-107416D01*
X30057Y-107361D01*
X29948Y-107306D01*
X29850Y-107241D01*
X29784Y-107197D01*
X29741Y-107153D01*
X29730Y-107142D01*
X29631Y-107011D01*
X29555Y-106858D01*
X29500Y-106716D01*
X29467Y-106574D01*
X29445Y-106443D01*
X29423Y-106345D01*
Y-106279D01*
Y-106268D01*
Y-106257D01*
Y-106213D01*
X29434Y-106170D01*
Y-106126D01*
Y-106115D01*
X33151D01*
X33216Y-105787D01*
X33238Y-105623D01*
X33249Y-105470D01*
X33260Y-105350D01*
Y-105153D01*
X33249Y-104946D01*
X33238Y-104760D01*
X33205Y-104574D01*
X33162Y-104410D01*
X33118Y-104246D01*
X33074Y-104104D01*
X33020Y-103973D01*
X32965Y-103852D01*
X32899Y-103754D01*
X32845Y-103656D01*
X32801Y-103579D01*
X32757Y-103514D01*
X32713Y-103470D01*
X32681Y-103437D01*
X32670Y-103415D01*
X32659Y-103404D01*
X32539Y-103295D01*
X32418Y-103197D01*
X32287Y-103120D01*
X32156Y-103044D01*
X32025Y-102978D01*
X31894Y-102934D01*
X31631Y-102858D01*
X31511Y-102836D01*
X31402Y-102814D01*
X31304Y-102803D01*
X31216Y-102792D01*
X31150Y-102781D01*
X31052D01*
X30768Y-102792D01*
X30495Y-102836D01*
X30243Y-102891D01*
X30014Y-102967D01*
X29795Y-103055D01*
X29598Y-103153D01*
X29413Y-103262D01*
X29249Y-103372D01*
X29107Y-103492D01*
X28975Y-103590D01*
X28877Y-103700D01*
X28779Y-103787D01*
X28713Y-103864D01*
X28669Y-103918D01*
X28637Y-103962D01*
X28626Y-103973D01*
X28516Y-104137D01*
X28418Y-104312D01*
X28341Y-104487D01*
X28265Y-104661D01*
X28210Y-104836D01*
X28156Y-105000D01*
X28079Y-105306D01*
X28057Y-105448D01*
X28035Y-105579D01*
X28025Y-105700D01*
X28014Y-105798D01*
X28003Y-105875D01*
Y-105929D01*
Y-105973D01*
Y-105984D01*
X28014Y-106192D01*
X28035Y-106388D01*
X28068Y-106585D01*
X28112Y-106760D01*
X28167Y-106924D01*
X28221Y-107077D01*
X28287Y-107208D01*
X28352Y-107339D01*
X28407Y-107448D01*
X28473Y-107547D01*
X28527Y-107634D01*
X28582Y-107700D01*
X28626Y-107755D01*
X28658Y-107798D01*
X28680Y-107820D01*
X28691Y-107831D01*
X28822Y-107951D01*
X28964Y-108061D01*
X29118Y-108159D01*
X29260Y-108236D01*
X29413Y-108301D01*
X29566Y-108356D01*
X29850Y-108443D01*
X29981Y-108476D01*
X30101Y-108498D01*
X30211Y-108509D01*
X30309Y-108520D01*
X30385Y-108531D01*
X28003D01*
X26232D01*
X26527Y-108520D01*
X26658Y-108498D01*
X26779Y-108487D01*
X26877Y-108465D01*
X26953Y-108454D01*
X26997Y-108443D01*
X27019D01*
X27248Y-107350D01*
X27117Y-107361D01*
X27008Y-107372D01*
X26921Y-107383D01*
X26855D01*
X26811Y-107394D01*
X26658D01*
X26571Y-107383D01*
X26494Y-107361D01*
X26440Y-107339D01*
X26407Y-107328D01*
X26374Y-107306D01*
X26363Y-107296D01*
X26352D01*
X26298Y-107208D01*
X26265Y-107132D01*
X26254Y-107055D01*
Y-107044D01*
Y-107033D01*
Y-107011D01*
X26265Y-106978D01*
X26276Y-106880D01*
X26298Y-106771D01*
X26319Y-106640D01*
X26341Y-106519D01*
X26363Y-106421D01*
X26374Y-106377D01*
X26385Y-106345D01*
Y-106334D01*
Y-106323D01*
X26866Y-104006D01*
X27773D01*
X28003Y-102902D01*
X27095D01*
X27478Y-101011D01*
X28003D01*
D02*
G37*
G36*
X14078Y-108531D02*
X12580D01*
X14078D01*
D01*
D02*
G37*
G36*
X11990Y-102781D02*
X9411D01*
X9159Y-102792D01*
X8908Y-102825D01*
X8678Y-102869D01*
X8471Y-102924D01*
X8263Y-102989D01*
X8077Y-103077D01*
X7913Y-103153D01*
X7760Y-103241D01*
X7618Y-103328D01*
X7498Y-103404D01*
X7389Y-103481D01*
X7301Y-103557D01*
X7236Y-103612D01*
X7192Y-103656D01*
X7159Y-103689D01*
X7148Y-103700D01*
X6995Y-103874D01*
X6864Y-104060D01*
X6755Y-104257D01*
X6656Y-104465D01*
X6569Y-104661D01*
X6503Y-104869D01*
X6449Y-105066D01*
X6405Y-105252D01*
X6372Y-105426D01*
X6339Y-105601D01*
X6318Y-105743D01*
X6307Y-105875D01*
Y-105984D01*
X6296Y-106060D01*
Y-106104D01*
Y-106126D01*
X6307Y-106366D01*
X6339Y-106596D01*
X6383Y-106804D01*
X6438Y-106978D01*
X6492Y-107132D01*
X6536Y-107252D01*
X6558Y-107296D01*
X6569Y-107328D01*
X6580Y-107339D01*
Y-107350D01*
X6678Y-107511D01*
D01*
X6700Y-107547D01*
X6842Y-107722D01*
X6995Y-107875D01*
X7137Y-107995D01*
X7268Y-108093D01*
X7378Y-108170D01*
X7421Y-108192D01*
X7454Y-108214D01*
X7465Y-108224D01*
X7476D01*
X7706Y-108323D01*
X7946Y-108399D01*
X8176Y-108454D01*
X8394Y-108487D01*
X8580Y-108509D01*
X8657Y-108520D01*
X8722Y-108531D01*
X8853D01*
X9116Y-108520D01*
X9367Y-108487D01*
X9596Y-108443D01*
X9815Y-108378D01*
X10023Y-108312D01*
X10209Y-108224D01*
X10373Y-108137D01*
X10537Y-108050D01*
X10668Y-107962D01*
X10788Y-107875D01*
X10897Y-107787D01*
X10985Y-107722D01*
X11050Y-107656D01*
X11094Y-107612D01*
X11127Y-107580D01*
X11138Y-107569D01*
X11291Y-107383D01*
X11422Y-107186D01*
X11531Y-106989D01*
X11630Y-106793D01*
X11717Y-106607D01*
X11783Y-106410D01*
X11837Y-106224D01*
X11881Y-106050D01*
X11914Y-105886D01*
X11947Y-105733D01*
X11968Y-105601D01*
X11979Y-105481D01*
X11990Y-105394D01*
Y-105262D01*
X11979Y-105055D01*
X11957Y-104858D01*
X11925Y-104672D01*
X11881Y-104497D01*
X11826Y-104344D01*
X11772Y-104191D01*
X11706Y-104060D01*
X11651Y-103929D01*
X11586Y-103820D01*
X11520Y-103732D01*
X11466Y-103645D01*
X11411Y-103579D01*
X11367Y-103525D01*
X11334Y-103492D01*
X11312Y-103470D01*
X11302Y-103459D01*
X11170Y-103339D01*
X11028Y-103241D01*
X10875Y-103142D01*
X10722Y-103066D01*
X10558Y-103000D01*
X10405Y-102945D01*
X10099Y-102869D01*
X9957Y-102836D01*
X9826Y-102814D01*
X9717Y-102803D01*
X9607Y-102792D01*
X9531Y-102781D01*
X11990D01*
D02*
G37*
G36*
X6296Y-108388D02*
D01*
Y-108531D01*
D01*
Y-108388D01*
D02*
G37*
G36*
X-3869Y-102781D02*
X-9564D01*
Y-108531D01*
D01*
Y-106126D01*
X-9553Y-106366D01*
X-9520Y-106596D01*
X-9476Y-106804D01*
X-9422Y-106978D01*
X-9367Y-107132D01*
X-9323Y-107252D01*
X-9302Y-107296D01*
X-9290Y-107328D01*
X-9280Y-107339D01*
Y-107350D01*
X-9159Y-107547D01*
X-9017Y-107722D01*
X-8864Y-107875D01*
X-8722Y-107995D01*
X-8591Y-108093D01*
X-8482Y-108170D01*
X-8438Y-108192D01*
X-8405Y-108214D01*
X-8394Y-108224D01*
X-8383D01*
X-8154Y-108323D01*
X-7913Y-108399D01*
X-7684Y-108454D01*
X-7465Y-108487D01*
X-7279Y-108509D01*
X-7203Y-108520D01*
X-7137Y-108531D01*
X-7006D01*
X-6744Y-108520D01*
X-6492Y-108487D01*
X-6263Y-108443D01*
X-6044Y-108378D01*
X-5837Y-108312D01*
X-5651Y-108224D01*
X-5487Y-108137D01*
X-5323Y-108050D01*
X-5192Y-107962D01*
X-5071Y-107875D01*
X-4962Y-107787D01*
X-4875Y-107722D01*
X-4809Y-107656D01*
X-4766Y-107612D01*
X-4733Y-107580D01*
X-4722Y-107569D01*
X-4569Y-107383D01*
X-4438Y-107186D01*
X-4328Y-106989D01*
X-4230Y-106793D01*
X-4143Y-106607D01*
X-4077Y-106410D01*
X-4022Y-106224D01*
X-3979Y-106050D01*
X-3946Y-105886D01*
X-3913Y-105733D01*
X-3891Y-105601D01*
X-3880Y-105481D01*
X-3869Y-105394D01*
Y-105262D01*
X-3880Y-105055D01*
X-3902Y-104858D01*
X-3935Y-104672D01*
X-3979Y-104497D01*
X-4033Y-104344D01*
X-4088Y-104191D01*
X-4153Y-104060D01*
X-4208Y-103929D01*
X-4274Y-103820D01*
X-4339Y-103732D01*
X-4394Y-103645D01*
X-4448Y-103579D01*
X-4492Y-103525D01*
X-4525Y-103492D01*
X-4547Y-103470D01*
X-4558Y-103459D01*
X-4689Y-103339D01*
X-4831Y-103241D01*
X-4984Y-103142D01*
X-5137Y-103066D01*
X-5301Y-103000D01*
X-5454Y-102945D01*
X-5760Y-102869D01*
X-5902Y-102836D01*
X-6033Y-102814D01*
X-6143Y-102803D01*
X-6252Y-102792D01*
X-6329Y-102781D01*
X-3869D01*
D02*
G37*
G36*
X-26669Y-108531D02*
X-29293D01*
X-26669D01*
D01*
D02*
G37*
G36*
X-28779Y-102781D02*
X-28877D01*
X-29161Y-102792D01*
X-29434Y-102836D01*
X-29686Y-102891D01*
X-29915Y-102967D01*
X-30134Y-103055D01*
X-30331Y-103153D01*
X-30517Y-103262D01*
X-30681Y-103372D01*
X-30823Y-103492D01*
X-30954Y-103590D01*
X-31052Y-103700D01*
X-31150Y-103787D01*
X-31216Y-103864D01*
X-31260Y-103918D01*
X-31293Y-103962D01*
X-31304Y-103973D01*
X-31413Y-104137D01*
X-31511Y-104312D01*
X-31588Y-104487D01*
X-31664Y-104661D01*
X-31719Y-104836D01*
X-31773Y-105000D01*
X-31850Y-105306D01*
X-31872Y-105448D01*
X-31894Y-105579D01*
X-31905Y-105700D01*
X-31914Y-105787D01*
X-31916Y-105798D01*
X-31927Y-105875D01*
Y-105929D01*
Y-105973D01*
Y-105984D01*
D01*
D01*
X-31916Y-106192D01*
X-31894Y-106388D01*
X-31861Y-106585D01*
X-31817Y-106760D01*
X-31763Y-106924D01*
X-31708Y-107077D01*
X-31642Y-107208D01*
X-31577Y-107339D01*
X-31522Y-107448D01*
X-31457Y-107547D01*
X-31402Y-107634D01*
X-31347Y-107700D01*
X-31304Y-107755D01*
X-31271Y-107798D01*
X-31249Y-107820D01*
X-31238Y-107831D01*
X-31107Y-107951D01*
X-30965Y-108061D01*
X-30812Y-108159D01*
X-30670Y-108236D01*
X-30517Y-108301D01*
X-30364Y-108356D01*
X-30079Y-108443D01*
X-29948Y-108476D01*
X-29828Y-108498D01*
X-29719Y-108509D01*
X-29620Y-108520D01*
X-29544Y-108531D01*
X-31927D01*
X-29434D01*
X-29139Y-108509D01*
X-28877Y-108465D01*
X-28626Y-108410D01*
X-28418Y-108334D01*
X-28232Y-108257D01*
X-28167Y-108224D01*
X-28101Y-108203D01*
X-28057Y-108170D01*
X-28025Y-108159D01*
X-28003Y-108137D01*
X-27992D01*
X-27762Y-107973D01*
X-27555Y-107776D01*
X-27369Y-107580D01*
X-27216Y-107383D01*
X-27106Y-107197D01*
X-27052Y-107121D01*
X-27019Y-107055D01*
X-26986Y-107000D01*
X-26964Y-106957D01*
X-26943Y-106935D01*
Y-106924D01*
X-28265Y-106705D01*
X-28341Y-106836D01*
X-28429Y-106957D01*
X-28527Y-107055D01*
X-28626Y-107142D01*
X-28713Y-107219D01*
X-28811Y-107285D01*
X-28910Y-107339D01*
X-28997Y-107372D01*
X-29161Y-107427D01*
X-29238Y-107448D01*
X-29303Y-107459D01*
X-29347Y-107470D01*
X-29424D01*
X-29588Y-107459D01*
X-29741Y-107416D01*
X-29872Y-107361D01*
X-29981Y-107306D01*
X-30079Y-107241D01*
X-30145Y-107197D01*
X-30189Y-107153D01*
X-30200Y-107142D01*
X-30298Y-107011D01*
X-30375Y-106858D01*
X-30429Y-106716D01*
X-30462Y-106574D01*
X-30484Y-106443D01*
X-30506Y-106345D01*
Y-106279D01*
Y-106268D01*
Y-106257D01*
Y-106213D01*
X-30495Y-106170D01*
Y-106126D01*
Y-106115D01*
X-26779D01*
X-26713Y-105787D01*
X-26691Y-105623D01*
X-26680Y-105470D01*
X-26669Y-105350D01*
Y-105153D01*
X-26680Y-104946D01*
X-26691Y-104760D01*
X-26724Y-104574D01*
X-26768Y-104410D01*
X-26811Y-104246D01*
X-26855Y-104104D01*
X-26910Y-103973D01*
X-26964Y-103852D01*
X-27030Y-103754D01*
X-27085Y-103656D01*
X-27128Y-103579D01*
X-27172Y-103514D01*
X-27216Y-103470D01*
X-27248Y-103437D01*
X-27259Y-103415D01*
X-27270Y-103404D01*
X-27391Y-103295D01*
X-27511Y-103197D01*
X-27642Y-103120D01*
X-27773Y-103044D01*
X-27904Y-102978D01*
X-28036Y-102934D01*
X-28298Y-102858D01*
X-28418Y-102836D01*
X-28527Y-102814D01*
X-28626Y-102803D01*
X-28713Y-102792D01*
X-28779Y-102781D01*
D02*
G37*
G36*
X-31927Y-108388D02*
D01*
Y-108531D01*
D01*
Y-108388D01*
D02*
G37*
%LPD*%
G36*
X15302Y-102803D02*
X14974Y-102847D01*
X14832Y-102880D01*
X14701Y-102913D01*
X14570Y-102945D01*
X14460Y-102989D01*
X14362Y-103033D01*
X14275Y-103066D01*
X14198Y-103098D01*
X14132Y-103131D01*
X14089Y-103153D01*
X14056Y-103175D01*
X14034Y-103197D01*
X14023D01*
X13815Y-103361D01*
X13630Y-103547D01*
X13488Y-103743D01*
X13367Y-103918D01*
X13280Y-104082D01*
X13214Y-104213D01*
X13193Y-104268D01*
X13182Y-104301D01*
X13171Y-104323D01*
Y-104333D01*
X14613Y-104454D01*
X14646Y-104355D01*
X14690Y-104268D01*
X14744Y-104191D01*
X14799Y-104126D01*
X14843Y-104071D01*
X14887Y-104038D01*
X14909Y-104016D01*
X14919Y-104006D01*
X15018Y-103951D01*
X15116Y-103907D01*
X15225Y-103885D01*
X15324Y-103864D01*
X15411Y-103852D01*
X15488Y-103842D01*
X15553D01*
X15685Y-103852D01*
X15805Y-103864D01*
X15892Y-103896D01*
X15980Y-103918D01*
X16045Y-103951D01*
X16089Y-103984D01*
X16111Y-103995D01*
X16122Y-104006D01*
X16187Y-104071D01*
X16231Y-104137D01*
X16275Y-104202D01*
X16297Y-104268D01*
X16308Y-104323D01*
X16319Y-104355D01*
Y-104388D01*
Y-104399D01*
Y-104475D01*
X16308Y-104552D01*
X16275Y-104716D01*
X16253Y-104782D01*
X16231Y-104836D01*
X16220Y-104880D01*
Y-104891D01*
X16144Y-104913D01*
X16056Y-104935D01*
X15958Y-104956D01*
X15848Y-104978D01*
X15619Y-105022D01*
X15379Y-105044D01*
X15160Y-105077D01*
X15062Y-105088D01*
X14985Y-105099D01*
X14909D01*
X14854Y-105110D01*
X14810D01*
X14581Y-105131D01*
X14373Y-105164D01*
X14187Y-105197D01*
X14012Y-105241D01*
X13848Y-105284D01*
X13706Y-105328D01*
X13575Y-105383D01*
X13466Y-105426D01*
X13367Y-105481D01*
X13280Y-105525D01*
X13214Y-105569D01*
X13160Y-105601D01*
X13116Y-105634D01*
X13083Y-105656D01*
X13072Y-105667D01*
X13061Y-105678D01*
X12974Y-105765D01*
X12908Y-105864D01*
X12788Y-106071D01*
X12701Y-106279D01*
X12646Y-106487D01*
X12602Y-106661D01*
X12591Y-106738D01*
Y-106804D01*
X12580Y-106858D01*
Y-102781D01*
X15663D01*
X15302Y-102803D01*
D02*
G37*
G36*
X15980Y-106038D02*
X15936Y-106224D01*
X15892Y-106388D01*
X15848Y-106530D01*
X15805Y-106640D01*
X15772Y-106727D01*
X15739Y-106782D01*
X15728Y-106825D01*
X15717Y-106836D01*
X15663Y-106935D01*
X15586Y-107011D01*
X15510Y-107088D01*
X15444Y-107142D01*
X15379Y-107197D01*
X15324Y-107230D01*
X15280Y-107252D01*
X15269Y-107263D01*
X15160Y-107317D01*
X15051Y-107350D01*
X14941Y-107383D01*
X14843Y-107394D01*
X14766Y-107405D01*
X14701Y-107416D01*
X14646D01*
X14537Y-107405D01*
X14438Y-107383D01*
X14351Y-107361D01*
X14286Y-107328D01*
X14231Y-107296D01*
X14187Y-107263D01*
X14165Y-107252D01*
X14154Y-107241D01*
X14089Y-107175D01*
X14045Y-107099D01*
X14012Y-107022D01*
X13990Y-106957D01*
X13979Y-106891D01*
X13969Y-106847D01*
Y-106815D01*
Y-106804D01*
X13979Y-106694D01*
X14001Y-106596D01*
X14045Y-106509D01*
X14089Y-106432D01*
X14132Y-106377D01*
X14176Y-106334D01*
X14198Y-106312D01*
X14209Y-106301D01*
X14286Y-106257D01*
X14373Y-106213D01*
X14471Y-106170D01*
X14581Y-106126D01*
X14821Y-106060D01*
X15062Y-106006D01*
X15291Y-105962D01*
X15389Y-105940D01*
X15488Y-105929D01*
X15553Y-105918D01*
X15619D01*
X15652Y-105907D01*
X15663D01*
X15816Y-105886D01*
X15925Y-105853D01*
X15969Y-105842D01*
X16002D01*
X16012Y-105831D01*
X16023D01*
X15980Y-106038D01*
D02*
G37*
G36*
X31063Y-103852D02*
X31205Y-103885D01*
X31336Y-103940D01*
X31435Y-103995D01*
X31522Y-104049D01*
X31577Y-104104D01*
X31620Y-104137D01*
X31631Y-104148D01*
X31719Y-104279D01*
X31784Y-104421D01*
X31839Y-104574D01*
X31872Y-104716D01*
X31894Y-104858D01*
X31905Y-104967D01*
Y-105011D01*
Y-105044D01*
Y-105055D01*
Y-105066D01*
Y-105110D01*
Y-105153D01*
Y-105197D01*
Y-105208D01*
X29577D01*
X29631Y-104967D01*
X29708Y-104771D01*
X29795Y-104596D01*
X29872Y-104454D01*
X29948Y-104333D01*
X30014Y-104257D01*
X30057Y-104202D01*
X30068Y-104191D01*
X30211Y-104071D01*
X30353Y-103984D01*
X30495Y-103929D01*
X30626Y-103885D01*
X30735Y-103864D01*
X30823Y-103842D01*
X30899D01*
X31063Y-103852D01*
D02*
G37*
G36*
X9586Y-103907D02*
X9739Y-103951D01*
X9870Y-103995D01*
X9990Y-104060D01*
X10077Y-104115D01*
X10143Y-104169D01*
X10187Y-104213D01*
X10198Y-104224D01*
X10307Y-104355D01*
X10384Y-104487D01*
X10438Y-104629D01*
X10471Y-104760D01*
X10504Y-104880D01*
X10515Y-104978D01*
Y-105044D01*
Y-105055D01*
Y-105066D01*
X10504Y-105262D01*
X10493Y-105448D01*
X10427Y-105798D01*
X10384Y-105951D01*
X10329Y-106104D01*
X10274Y-106235D01*
X10220Y-106366D01*
X10165Y-106476D01*
X10110Y-106574D01*
X10067Y-106661D01*
X10012Y-106738D01*
X9979Y-106793D01*
X9946Y-106836D01*
X9935Y-106858D01*
X9924Y-106869D01*
X9848Y-106957D01*
X9760Y-107033D01*
X9586Y-107164D01*
X9422Y-107252D01*
X9258Y-107317D01*
X9116Y-107350D01*
X8995Y-107372D01*
X8952Y-107383D01*
X8897D01*
X8722Y-107372D01*
X8569Y-107328D01*
X8438Y-107274D01*
X8318Y-107208D01*
X8230Y-107153D01*
X8154Y-107099D01*
X8110Y-107055D01*
X8099Y-107044D01*
X7990Y-106902D01*
X7913Y-106749D01*
X7859Y-106596D01*
X7826Y-106443D01*
X7804Y-106312D01*
X7782Y-106202D01*
Y-106159D01*
Y-106126D01*
Y-106115D01*
Y-106104D01*
X7793Y-105929D01*
X7815Y-105743D01*
X7848Y-105569D01*
X7880Y-105405D01*
X7913Y-105273D01*
X7946Y-105164D01*
X7957Y-105120D01*
X7968Y-105088D01*
X7979Y-105077D01*
Y-105066D01*
X8066Y-104869D01*
X8154Y-104694D01*
X8252Y-104541D01*
X8350Y-104421D01*
X8427Y-104323D01*
X8493Y-104257D01*
X8547Y-104213D01*
X8558Y-104202D01*
X8700Y-104104D01*
X8853Y-104027D01*
X8995Y-103973D01*
X9127Y-103929D01*
X9236Y-103907D01*
X9334Y-103896D01*
X9411D01*
X9586Y-103907D01*
D02*
G37*
G36*
X-6700Y-102792D02*
X-6951Y-102825D01*
X-7181Y-102869D01*
X-7389Y-102924D01*
X-7596Y-102989D01*
X-7782Y-103077D01*
X-7946Y-103153D01*
X-8099Y-103241D01*
X-8241Y-103328D01*
X-8361Y-103404D01*
X-8471Y-103481D01*
X-8558Y-103557D01*
X-8624Y-103612D01*
X-8668Y-103656D01*
X-8700Y-103689D01*
X-8711Y-103700D01*
X-8864Y-103874D01*
X-8995Y-104060D01*
X-9105Y-104257D01*
X-9203Y-104465D01*
X-9290Y-104661D01*
X-9356Y-104869D01*
X-9411Y-105066D01*
X-9454Y-105252D01*
X-9487Y-105426D01*
X-9520Y-105601D01*
X-9542Y-105743D01*
X-9553Y-105875D01*
Y-105984D01*
X-9564Y-106060D01*
Y-102781D01*
X-6449D01*
X-6700Y-102792D01*
D02*
G37*
G36*
X-6274Y-103907D02*
X-6121Y-103951D01*
X-5990Y-103995D01*
X-5869Y-104060D01*
X-5782Y-104115D01*
X-5716Y-104169D01*
X-5673Y-104213D01*
X-5662Y-104224D01*
X-5553Y-104355D01*
X-5476Y-104487D01*
X-5421Y-104629D01*
X-5389Y-104760D01*
X-5356Y-104880D01*
X-5345Y-104978D01*
Y-105044D01*
Y-105055D01*
Y-105066D01*
X-5356Y-105262D01*
X-5367Y-105448D01*
X-5432Y-105798D01*
X-5476Y-105951D01*
X-5531Y-106104D01*
X-5585Y-106235D01*
X-5640Y-106366D01*
X-5695Y-106476D01*
X-5749Y-106574D01*
X-5793Y-106661D01*
X-5848Y-106738D01*
X-5880Y-106793D01*
X-5913Y-106836D01*
X-5924Y-106858D01*
X-5935Y-106869D01*
X-6011Y-106957D01*
X-6099Y-107033D01*
X-6274Y-107164D01*
X-6438Y-107252D01*
X-6602Y-107317D01*
X-6744Y-107350D01*
X-6864Y-107372D01*
X-6908Y-107383D01*
X-6962D01*
X-7137Y-107372D01*
X-7290Y-107328D01*
X-7422Y-107274D01*
X-7542Y-107208D01*
X-7629Y-107153D01*
X-7706Y-107099D01*
X-7749Y-107055D01*
X-7760Y-107044D01*
X-7870Y-106902D01*
X-7946Y-106749D01*
X-8001Y-106596D01*
X-8034Y-106443D01*
X-8055Y-106312D01*
X-8077Y-106202D01*
Y-106159D01*
Y-106126D01*
Y-106115D01*
Y-106104D01*
X-8066Y-105929D01*
X-8044Y-105743D01*
X-8012Y-105569D01*
X-7979Y-105405D01*
X-7946Y-105273D01*
X-7913Y-105164D01*
X-7902Y-105120D01*
X-7891Y-105088D01*
X-7881Y-105077D01*
Y-105066D01*
X-7793Y-104869D01*
X-7706Y-104694D01*
X-7607Y-104541D01*
X-7509Y-104421D01*
X-7432Y-104323D01*
X-7367Y-104257D01*
X-7312Y-104213D01*
X-7301Y-104202D01*
X-7159Y-104104D01*
X-7006Y-104027D01*
X-6864Y-103973D01*
X-6733Y-103929D01*
X-6624Y-103907D01*
X-6525Y-103896D01*
X-6449D01*
X-6274Y-103907D01*
D02*
G37*
G36*
X-28866Y-103852D02*
X-28724Y-103885D01*
X-28593Y-103940D01*
X-28495Y-103995D01*
X-28407Y-104049D01*
X-28352Y-104104D01*
X-28309Y-104137D01*
X-28298Y-104148D01*
X-28210Y-104279D01*
X-28145Y-104421D01*
X-28090Y-104574D01*
X-28057Y-104716D01*
X-28036Y-104858D01*
X-28025Y-104967D01*
Y-105011D01*
Y-105044D01*
Y-105055D01*
Y-105066D01*
Y-105110D01*
Y-105153D01*
Y-105197D01*
Y-105208D01*
X-30353D01*
X-30298Y-104967D01*
X-30222Y-104771D01*
X-30134Y-104596D01*
X-30057Y-104454D01*
X-29981Y-104333D01*
X-29915Y-104257D01*
X-29872Y-104202D01*
X-29861Y-104191D01*
X-29719Y-104071D01*
X-29577Y-103984D01*
X-29434Y-103929D01*
X-29303Y-103885D01*
X-29194Y-103864D01*
X-29107Y-103842D01*
X-29030D01*
X-28866Y-103852D01*
D02*
G37*
%LPC*%
G36*
X-93668Y-7448D02*
Y-8678D01*
X-99525D01*
X-99370Y-8505D01*
X-99234Y-8305D01*
X-99097Y-8104D01*
X-98979Y-7904D01*
X-98879Y-7722D01*
X-98842Y-7649D01*
X-98806Y-7576D01*
X-98778Y-7521D01*
X-98760Y-7485D01*
X-98751Y-7457D01*
X-98742Y-7448D01*
X-93668D01*
X-100700D01*
X-99052D01*
X-99234Y-7649D01*
X-99407Y-7831D01*
X-99553Y-7977D01*
X-99680Y-8104D01*
X-99780Y-8195D01*
X-99862Y-8268D01*
X-99908Y-8305D01*
X-99926Y-8323D01*
X-100063Y-8423D01*
X-100208Y-8523D01*
X-100336Y-8605D01*
X-100454Y-8669D01*
X-100555Y-8733D01*
X-100637Y-8769D01*
X-100682Y-8797D01*
X-100700Y-8806D01*
Y-10318D01*
Y-8988D01*
X-100573Y-9052D01*
X-100436Y-9115D01*
X-100318Y-9197D01*
X-100199Y-9261D01*
X-100108Y-9334D01*
X-100026Y-9389D01*
X-99981Y-9425D01*
X-99972Y-9434D01*
X-99963D01*
X-99817Y-9562D01*
X-99662Y-9698D01*
X-99507Y-9844D01*
X-99361Y-9990D01*
X-99243Y-10118D01*
X-99143Y-10218D01*
X-99106Y-10263D01*
X-99079Y-10291D01*
X-99061Y-10309D01*
X-99052Y-10318D01*
X-98742D01*
X-98824Y-10154D01*
X-98897Y-10017D01*
X-98961Y-9899D01*
X-99006Y-9808D01*
X-99052Y-9744D01*
X-99079Y-9698D01*
X-99088Y-9671D01*
X-99097Y-9662D01*
X-99152Y-9580D01*
X-99216Y-9489D01*
X-99352Y-9307D01*
X-99425Y-9216D01*
X-99480Y-9152D01*
X-99516Y-9106D01*
X-99525Y-9088D01*
X-93668D01*
Y-7448D01*
D02*
G37*
G36*
Y-13916D02*
D01*
Y-15146D01*
X-99525D01*
X-99370Y-14973D01*
X-99234Y-14773D01*
X-99097Y-14572D01*
X-98979Y-14372D01*
X-98879Y-14190D01*
X-98842Y-14117D01*
X-98806Y-14044D01*
X-98778Y-13989D01*
X-98760Y-13953D01*
X-98751Y-13926D01*
X-98742Y-13916D01*
X-93668D01*
X-100700D01*
X-99052D01*
X-99234Y-14117D01*
X-99407Y-14299D01*
X-99553Y-14445D01*
X-99680Y-14572D01*
X-99780Y-14663D01*
X-99862Y-14736D01*
X-99908Y-14773D01*
X-99926Y-14791D01*
X-100063Y-14891D01*
X-100208Y-14991D01*
X-100336Y-15073D01*
X-100454Y-15137D01*
X-100555Y-15201D01*
X-100637Y-15237D01*
X-100682Y-15265D01*
X-100700Y-15274D01*
Y-15456D01*
X-100573Y-15520D01*
X-100436Y-15584D01*
X-100318Y-15665D01*
X-100199Y-15729D01*
X-100108Y-15802D01*
X-100026Y-15857D01*
X-99981Y-15893D01*
X-99972Y-15902D01*
X-99963D01*
X-99817Y-16030D01*
X-99662Y-16166D01*
X-99507Y-16312D01*
X-99361Y-16458D01*
X-99243Y-16586D01*
X-99143Y-16686D01*
X-99106Y-16731D01*
X-99079Y-16759D01*
X-99061Y-16777D01*
X-99052Y-16786D01*
X-98742D01*
X-98824Y-16622D01*
X-98897Y-16485D01*
X-98961Y-16367D01*
X-99006Y-16276D01*
X-99052Y-16212D01*
X-99079Y-16166D01*
X-99088Y-16139D01*
X-99097Y-16130D01*
X-99152Y-16048D01*
X-99216Y-15957D01*
X-99352Y-15775D01*
X-99425Y-15684D01*
X-99480Y-15620D01*
X-99516Y-15574D01*
X-99525Y-15556D01*
X-93668D01*
Y-16786D01*
D01*
Y-13916D01*
D02*
G37*
G36*
X-95371Y-17651D02*
X-101302D01*
D01*
X-98323D01*
X-98633Y-17670D01*
X-98924Y-17706D01*
X-99179Y-17761D01*
X-99288Y-17788D01*
X-99398Y-17825D01*
X-99489Y-17861D01*
X-99571Y-17888D01*
X-99644Y-17916D01*
X-99708Y-17943D01*
X-99753Y-17961D01*
X-99790Y-17979D01*
X-99808Y-17998D01*
X-99817D01*
X-100045Y-18134D01*
X-100245Y-18280D01*
X-100418Y-18435D01*
X-100564Y-18581D01*
X-100673Y-18717D01*
X-100764Y-18817D01*
X-100792Y-18863D01*
X-100810Y-18890D01*
X-100828Y-18909D01*
Y-18918D01*
X-100937Y-19100D01*
X-101019Y-19282D01*
X-101092Y-19455D01*
X-101138Y-19610D01*
X-101174Y-19747D01*
X-101192Y-19801D01*
X-101201Y-19856D01*
X-101211Y-19893D01*
X-101220Y-19920D01*
Y-19947D01*
X-101247Y-20157D01*
X-101265Y-20357D01*
X-101284Y-20558D01*
X-101293Y-20731D01*
X-101302Y-20886D01*
Y-22953D01*
X-95371D01*
Y-20876D01*
X-95380Y-20658D01*
X-95398Y-20467D01*
X-95417Y-20293D01*
X-95426Y-20148D01*
X-95435Y-20093D01*
X-95444Y-20038D01*
Y-20002D01*
X-95453Y-19974D01*
Y-19947D01*
X-95490Y-19747D01*
X-95544Y-19556D01*
X-95608Y-19382D01*
X-95672Y-19237D01*
X-95736Y-19109D01*
X-95790Y-19018D01*
X-95808Y-18981D01*
X-95827Y-18954D01*
X-95836Y-18945D01*
Y-18936D01*
X-95982Y-18736D01*
X-96145Y-18553D01*
X-96310Y-18398D01*
X-96473Y-18271D01*
X-96619Y-18162D01*
X-96674Y-18116D01*
X-96728Y-18080D01*
X-96774Y-18052D01*
X-96811Y-18034D01*
X-96829Y-18016D01*
X-96838D01*
X-97093Y-17897D01*
X-97348Y-17806D01*
X-97594Y-17743D01*
X-97831Y-17697D01*
X-97931Y-17679D01*
X-98022Y-17670D01*
X-98113Y-17661D01*
X-98186D01*
X-98241Y-17651D01*
X-95371D01*
D01*
D02*
G37*
G36*
Y-24156D02*
X-101302D01*
Y-29239D01*
X-95371D01*
Y-27882D01*
X-99498D01*
X-95371Y-25586D01*
Y-27417D01*
D01*
Y-24156D01*
D02*
G37*
G36*
X-95244Y-30360D02*
X-101411D01*
X-98623D01*
Y-32956D01*
X-97503D01*
Y-31799D01*
X-96337D01*
X-96328Y-31863D01*
Y-32182D01*
X-96337Y-32346D01*
X-96346Y-32501D01*
X-96373Y-32647D01*
X-96400Y-32783D01*
X-96446Y-32911D01*
X-96482Y-33029D01*
X-96528Y-33138D01*
X-96574Y-33230D01*
X-96619Y-33312D01*
X-96665Y-33393D01*
X-96710Y-33457D01*
X-96747Y-33512D01*
X-96774Y-33548D01*
X-96801Y-33576D01*
X-96811Y-33594D01*
X-96820Y-33603D01*
X-96920Y-33694D01*
X-97029Y-33776D01*
X-97148Y-33840D01*
X-97266Y-33904D01*
X-97394Y-33949D01*
X-97521Y-33995D01*
X-97767Y-34059D01*
X-97886Y-34077D01*
X-97995Y-34095D01*
X-98095Y-34104D01*
X-98177Y-34113D01*
X-98250Y-34122D01*
X-98304D01*
X-98341D01*
X-98350D01*
X-98523Y-34113D01*
X-98687Y-34104D01*
X-98833Y-34077D01*
X-98951Y-34049D01*
X-99061Y-34031D01*
X-99134Y-34004D01*
X-99179Y-33995D01*
X-99197Y-33986D01*
X-99334Y-33931D01*
X-99452Y-33867D01*
X-99553Y-33813D01*
X-99644Y-33749D01*
X-99717Y-33703D01*
X-99762Y-33658D01*
X-99799Y-33630D01*
X-99808Y-33621D01*
X-99899Y-33530D01*
X-99972Y-33430D01*
X-100035Y-33339D01*
X-100081Y-33248D01*
X-100117Y-33175D01*
X-100154Y-33120D01*
X-100163Y-33075D01*
X-100172Y-33066D01*
X-100218Y-32947D01*
X-100245Y-32820D01*
X-100272Y-32701D01*
X-100281Y-32592D01*
X-100291Y-32501D01*
X-100300Y-32428D01*
Y-32246D01*
X-100281Y-32127D01*
X-100272Y-32027D01*
X-100254Y-31927D01*
X-100236Y-31854D01*
X-100227Y-31799D01*
X-100208Y-31754D01*
Y-31745D01*
X-100172Y-31635D01*
X-100136Y-31544D01*
X-100099Y-31453D01*
X-100063Y-31371D01*
X-100035Y-31317D01*
X-100008Y-31262D01*
X-99999Y-31234D01*
X-99990Y-31225D01*
X-99899Y-31080D01*
X-99817Y-30961D01*
X-99780Y-30907D01*
X-99753Y-30870D01*
X-99735Y-30843D01*
X-99726Y-30834D01*
X-99625Y-30697D01*
X-99589Y-30651D01*
X-99562Y-30606D01*
X-99534Y-30569D01*
X-99516Y-30542D01*
X-99498Y-30533D01*
Y-30387D01*
X-100883D01*
X-100974Y-30569D01*
X-101047Y-30752D01*
X-101110Y-30916D01*
X-101165Y-31061D01*
X-101211Y-31180D01*
X-101238Y-31271D01*
X-101247Y-31307D01*
X-101256Y-31335D01*
X-101265Y-31344D01*
Y-31353D01*
X-101311Y-31535D01*
X-101347Y-31736D01*
X-101375Y-31936D01*
X-101393Y-32136D01*
X-101402Y-32300D01*
X-101411Y-32373D01*
Y-32564D01*
X-101402Y-32829D01*
X-101375Y-33075D01*
X-101329Y-33312D01*
X-101284Y-33530D01*
X-101211Y-33731D01*
X-101147Y-33913D01*
X-101065Y-34086D01*
X-100992Y-34241D01*
X-100910Y-34377D01*
X-100828Y-34496D01*
X-100764Y-34596D01*
X-100700Y-34678D01*
X-100646Y-34751D01*
X-100600Y-34797D01*
X-100573Y-34824D01*
X-100564Y-34833D01*
X-100400Y-34979D01*
X-100227Y-35106D01*
X-100045Y-35216D01*
X-99862Y-35316D01*
X-99671Y-35389D01*
X-99489Y-35462D01*
X-99307Y-35516D01*
X-99134Y-35562D01*
X-98970Y-35589D01*
X-98815Y-35616D01*
X-98678Y-35635D01*
X-98560Y-35653D01*
X-98469D01*
X-98396Y-35662D01*
X-98332D01*
X-98068Y-35653D01*
X-97813Y-35625D01*
X-97576Y-35589D01*
X-97348Y-35534D01*
X-97148Y-35471D01*
X-96956Y-35398D01*
X-96792Y-35325D01*
X-96637Y-35243D01*
X-96501Y-35170D01*
X-96382Y-35097D01*
X-96282Y-35024D01*
X-96191Y-34960D01*
X-96127Y-34906D01*
X-96082Y-34869D01*
X-96054Y-34842D01*
X-96045Y-34833D01*
X-95909Y-34669D01*
X-95781Y-34496D01*
X-95672Y-34323D01*
X-95581Y-34132D01*
X-95508Y-33949D01*
X-95444Y-33767D01*
X-95389Y-33585D01*
X-95344Y-33412D01*
X-95307Y-33248D01*
X-95289Y-33093D01*
X-95271Y-32956D01*
X-95253Y-32838D01*
Y-32747D01*
X-95244Y-32674D01*
Y-35170D01*
Y-31954D01*
Y-32610D01*
X-95253Y-32382D01*
X-95271Y-32164D01*
X-95289Y-31954D01*
X-95316Y-31763D01*
X-95344Y-31608D01*
X-95353Y-31544D01*
X-95371Y-31490D01*
X-95380Y-31444D01*
Y-31408D01*
X-95389Y-31389D01*
Y-31380D01*
X-95444Y-31152D01*
X-95508Y-30952D01*
X-95553Y-30779D01*
X-95599Y-30633D01*
X-95644Y-30515D01*
X-95672Y-30433D01*
X-95690Y-30378D01*
X-95699Y-30360D01*
X-95244D01*
D01*
D02*
G37*
%LPD*%
G36*
X-98131Y-19200D02*
X-97940Y-19218D01*
X-97767Y-19255D01*
X-97630Y-19282D01*
X-97512Y-19319D01*
X-97421Y-19355D01*
X-97366Y-19373D01*
X-97357Y-19382D01*
X-97348D01*
X-97202Y-19464D01*
X-97084Y-19556D01*
X-96974Y-19647D01*
X-96883Y-19738D01*
X-96811Y-19820D01*
X-96765Y-19883D01*
X-96728Y-19929D01*
X-96719Y-19947D01*
X-96656Y-20066D01*
X-96601Y-20184D01*
X-96565Y-20293D01*
X-96537Y-20394D01*
X-96519Y-20476D01*
X-96510Y-20539D01*
X-96501Y-20585D01*
Y-20740D01*
X-96492Y-20876D01*
Y-21469D01*
X-100199D01*
Y-21122D01*
X-100190Y-20995D01*
Y-20785D01*
X-100181Y-20712D01*
Y-20658D01*
X-100172Y-20530D01*
X-100145Y-20412D01*
X-100117Y-20312D01*
X-100081Y-20211D01*
X-100054Y-20129D01*
X-100026Y-20075D01*
X-100008Y-20029D01*
X-99999Y-20020D01*
X-99899Y-19874D01*
X-99799Y-19747D01*
X-99689Y-19637D01*
X-99580Y-19556D01*
X-99489Y-19483D01*
X-99416Y-19437D01*
X-99361Y-19410D01*
X-99352Y-19401D01*
X-99343D01*
X-99179Y-19328D01*
X-99015Y-19282D01*
X-98842Y-19246D01*
X-98687Y-19218D01*
X-98550Y-19200D01*
X-98487D01*
X-98441Y-19191D01*
X-98396D01*
X-98368D01*
X-98350D01*
X-98341D01*
X-98131Y-19200D01*
D02*
G37*
G36*
X-101302Y-27417D02*
Y-25513D01*
X-97904D01*
X-101302Y-27417D01*
D02*
G37*
%LPC*%
G36*
X132317Y81725D02*
X126933D01*
X126750Y81524D01*
X126577Y81342D01*
X126432Y81197D01*
X126304Y81069D01*
X126204Y80978D01*
X126122Y80905D01*
X126076Y80869D01*
X126058Y80850D01*
X125921Y80750D01*
X125776Y80650D01*
X125648Y80568D01*
X125530Y80504D01*
X125429Y80440D01*
X125347Y80404D01*
X125302Y80377D01*
X125284Y80368D01*
Y81725D01*
D01*
Y78855D01*
Y80185D01*
X125411Y80122D01*
X125548Y80058D01*
X125666Y79976D01*
X125785Y79912D01*
X125876Y79839D01*
X125958Y79785D01*
X126003Y79748D01*
X126013Y79739D01*
X126022D01*
X126167Y79611D01*
X126322Y79475D01*
X126477Y79329D01*
X126623Y79183D01*
X126741Y79056D01*
X126841Y78956D01*
X126878Y78910D01*
X126905Y78883D01*
X126924Y78864D01*
X126933Y78855D01*
X125284D01*
X127242D01*
X127160Y79019D01*
X127087Y79156D01*
X127024Y79274D01*
X126978Y79365D01*
X126933Y79429D01*
X126905Y79475D01*
X126896Y79502D01*
X126887Y79511D01*
X126832Y79593D01*
X126769Y79684D01*
X126632Y79866D01*
X126559Y79958D01*
X126504Y80021D01*
X126468Y80067D01*
X126459Y80085D01*
X132317D01*
Y79866D01*
Y80504D01*
Y80495D01*
X126459D01*
X126614Y80668D01*
X126750Y80869D01*
X126887Y81069D01*
X127006Y81269D01*
X127106Y81452D01*
X127142Y81524D01*
X127179Y81597D01*
X127206Y81652D01*
X127224Y81688D01*
X127233Y81716D01*
X127242Y81725D01*
X132317D01*
D02*
G37*
G36*
Y75257D02*
X126933D01*
X126750Y75056D01*
X126577Y74874D01*
X126432Y74729D01*
X126304Y74601D01*
X126204Y74510D01*
X126122Y74437D01*
X126076Y74401D01*
X126058Y74382D01*
X125921Y74282D01*
X125776Y74182D01*
X125648Y74100D01*
X125530Y74036D01*
X125429Y73972D01*
X125347Y73936D01*
X125302Y73909D01*
X125284Y73900D01*
Y75257D01*
D01*
Y72387D01*
Y73717D01*
X125411Y73654D01*
X125548Y73590D01*
X125666Y73508D01*
X125785Y73444D01*
X125876Y73371D01*
X125958Y73316D01*
X126003Y73280D01*
X126013Y73271D01*
X126022D01*
X126167Y73143D01*
X126322Y73007D01*
X126477Y72861D01*
X126623Y72715D01*
X126741Y72588D01*
X126841Y72487D01*
X126878Y72442D01*
X126905Y72414D01*
X126924Y72396D01*
X126933Y72387D01*
X125284D01*
X127242D01*
X127160Y72551D01*
X127087Y72688D01*
X127024Y72806D01*
X126978Y72897D01*
X126933Y72961D01*
X126905Y73007D01*
X126896Y73034D01*
X126887Y73043D01*
X126832Y73125D01*
X126769Y73216D01*
X126632Y73398D01*
X126559Y73489D01*
X126504Y73553D01*
X126468Y73599D01*
X126459Y73617D01*
X132317D01*
Y73398D01*
Y74036D01*
Y74027D01*
X126459D01*
X126614Y74200D01*
X126750Y74401D01*
X126887Y74601D01*
X127006Y74801D01*
X127106Y74984D01*
X127142Y75056D01*
X127179Y75129D01*
X127206Y75184D01*
X127224Y75220D01*
X127233Y75248D01*
X127242Y75257D01*
X132317D01*
D02*
G37*
G36*
X130613Y71522D02*
D01*
Y68297D01*
X130604Y68515D01*
X130586Y68707D01*
X130568Y68880D01*
X130558Y69026D01*
X130549Y69080D01*
X130540Y69135D01*
Y69171D01*
X130531Y69199D01*
Y69226D01*
X130495Y69426D01*
X130440Y69618D01*
X130376Y69791D01*
X130312Y69937D01*
X130249Y70064D01*
X130194Y70155D01*
X130176Y70192D01*
X130158Y70219D01*
X130148Y70228D01*
Y70237D01*
X130003Y70438D01*
X129839Y70620D01*
X129675Y70775D01*
X129511Y70902D01*
X129365Y71012D01*
X129310Y71057D01*
X129256Y71094D01*
X129210Y71121D01*
X129174Y71139D01*
X129156Y71157D01*
X129146D01*
X128891Y71276D01*
X128636Y71367D01*
X128390Y71431D01*
X128153Y71476D01*
X128053Y71494D01*
X127962Y71504D01*
X127871Y71513D01*
X127798D01*
X127743Y71522D01*
X130613D01*
X124682D01*
X127661D01*
X127352Y71504D01*
X127060Y71467D01*
X126805Y71412D01*
X126696Y71385D01*
X126586Y71349D01*
X126495Y71312D01*
X126413Y71285D01*
X126340Y71258D01*
X126277Y71230D01*
X126231Y71212D01*
X126195Y71194D01*
X126177Y71176D01*
X126167D01*
X125940Y71039D01*
X125739Y70893D01*
X125566Y70738D01*
X125420Y70592D01*
X125311Y70456D01*
X125220Y70356D01*
X125193Y70310D01*
X125174Y70283D01*
X125156Y70265D01*
Y70256D01*
X125047Y70073D01*
X124965Y69891D01*
X124892Y69718D01*
X124846Y69563D01*
X124810Y69426D01*
X124792Y69372D01*
X124783Y69317D01*
X124774Y69281D01*
X124764Y69253D01*
Y69226D01*
X124737Y69016D01*
X124719Y68816D01*
X124701Y68616D01*
X124692Y68443D01*
X124682Y68288D01*
Y66220D01*
X130613D01*
Y71522D01*
D02*
G37*
G36*
Y65017D02*
X124682D01*
Y63660D01*
X128080D01*
X124682Y61756D01*
Y59934D01*
X130613D01*
Y65017D01*
D02*
G37*
G36*
X130285Y58813D02*
X127361D01*
Y56217D01*
X128481D01*
Y57374D01*
X129647D01*
X129657Y57310D01*
Y56991D01*
X129647Y56827D01*
X129638Y56673D01*
X129611Y56527D01*
X129584Y56390D01*
X129538Y56262D01*
X129502Y56144D01*
X129456Y56035D01*
X129411Y55944D01*
X129365Y55862D01*
X129319Y55780D01*
X129274Y55716D01*
X129237Y55661D01*
X129210Y55625D01*
X129183Y55598D01*
X129174Y55579D01*
X129165Y55570D01*
X129064Y55479D01*
X128955Y55397D01*
X128837Y55333D01*
X128718Y55269D01*
X128591Y55224D01*
X128463Y55178D01*
X128217Y55115D01*
X128099Y55096D01*
X127989Y55078D01*
X127889Y55069D01*
X127807Y55060D01*
X127734Y55051D01*
X127680D01*
X127643D01*
X127634D01*
X127461Y55060D01*
X127297Y55069D01*
X127151Y55096D01*
X127033Y55124D01*
X126924Y55142D01*
X126851Y55169D01*
X126805Y55178D01*
X126787Y55187D01*
X126650Y55242D01*
X126532Y55306D01*
X126432Y55361D01*
X126340Y55424D01*
X126268Y55470D01*
X126222Y55515D01*
X126186Y55543D01*
X126177Y55552D01*
X126085Y55643D01*
X126013Y55743D01*
X125949Y55834D01*
X125903Y55925D01*
X125867Y55998D01*
X125830Y56053D01*
X125821Y56099D01*
X125812Y56108D01*
X125767Y56226D01*
X125739Y56354D01*
X125712Y56472D01*
X125703Y56581D01*
X125694Y56673D01*
X125684Y56745D01*
Y56928D01*
X125703Y57046D01*
X125712Y57146D01*
X125730Y57246D01*
X125748Y57319D01*
X125757Y57374D01*
X125776Y57420D01*
Y57429D01*
X125812Y57538D01*
X125848Y57629D01*
X125885Y57720D01*
X125921Y57802D01*
X125949Y57857D01*
X125976Y57911D01*
X125985Y57939D01*
X125994Y57948D01*
X126085Y58094D01*
X126167Y58212D01*
X126204Y58267D01*
X126231Y58303D01*
X126249Y58331D01*
X126259Y58340D01*
X126359Y58476D01*
X126395Y58522D01*
X126423Y58567D01*
X126450Y58604D01*
X126468Y58631D01*
X126486Y58640D01*
Y58786D01*
X125101D01*
X125010Y58604D01*
X124937Y58422D01*
X124874Y58258D01*
X124819Y58112D01*
X124774Y57993D01*
X124746Y57902D01*
X124737Y57866D01*
X124728Y57838D01*
X124719Y57829D01*
Y57820D01*
X124673Y57638D01*
X124637Y57438D01*
X124610Y57237D01*
X124591Y57037D01*
X124582Y56873D01*
X124573Y56800D01*
Y56827D01*
Y53511D01*
Y56609D01*
X124582Y56344D01*
X124610Y56099D01*
X124655Y55862D01*
X124701Y55643D01*
X124774Y55443D01*
X124837Y55260D01*
X124919Y55087D01*
X124992Y54932D01*
X125074Y54796D01*
X125156Y54677D01*
X125220Y54577D01*
X125284Y54495D01*
X125338Y54422D01*
X125384Y54377D01*
X125411Y54349D01*
X125420Y54340D01*
X125584Y54194D01*
X125757Y54067D01*
X125940Y53958D01*
X126122Y53857D01*
X126313Y53785D01*
X126495Y53712D01*
X126678Y53657D01*
X126851Y53611D01*
X127015Y53584D01*
X127170Y53557D01*
X127306Y53539D01*
X127425Y53520D01*
X127516D01*
X127588Y53511D01*
X124573D01*
X127652D01*
X127917Y53520D01*
X128172Y53548D01*
X128408Y53584D01*
X128636Y53639D01*
X128837Y53703D01*
X129028Y53776D01*
X129192Y53848D01*
X129347Y53930D01*
X129483Y54003D01*
X129602Y54076D01*
X129702Y54149D01*
X129793Y54213D01*
X129857Y54267D01*
X129903Y54304D01*
X129930Y54331D01*
X129939Y54340D01*
X130076Y54504D01*
X130203Y54677D01*
X130312Y54851D01*
X130403Y55042D01*
X130476Y55224D01*
X130540Y55406D01*
X130595Y55588D01*
X130640Y55761D01*
X130677Y55925D01*
X130695Y56080D01*
X130713Y56217D01*
X130731Y56335D01*
Y56427D01*
X130741Y56499D01*
Y56563D01*
X130731Y56791D01*
X130713Y57010D01*
X130695Y57219D01*
X130668Y57410D01*
X130640Y57565D01*
X130631Y57629D01*
X130613Y57684D01*
X130604Y57729D01*
Y57766D01*
X130595Y57784D01*
Y57793D01*
X130540Y58021D01*
X130476Y58221D01*
X130431Y58394D01*
X130385Y58540D01*
X130340Y58658D01*
X130312Y58740D01*
X130294Y58795D01*
X130285Y58813D01*
D02*
G37*
G36*
X130741Y53511D02*
X128064D01*
X130741D01*
D01*
D02*
G37*
%LPD*%
G36*
X127853Y69973D02*
X128044Y69955D01*
X128217Y69918D01*
X128354Y69891D01*
X128472Y69855D01*
X128563Y69818D01*
X128618Y69800D01*
X128627Y69791D01*
X128636D01*
X128782Y69709D01*
X128900Y69618D01*
X129010Y69527D01*
X129101Y69436D01*
X129174Y69354D01*
X129219Y69290D01*
X129256Y69244D01*
X129265Y69226D01*
X129329Y69108D01*
X129383Y68989D01*
X129420Y68880D01*
X129447Y68780D01*
X129465Y68698D01*
X129474Y68634D01*
X129483Y68588D01*
Y68433D01*
X129492Y68297D01*
Y67705D01*
X125785D01*
Y68051D01*
X125794Y68178D01*
Y68388D01*
X125803Y68461D01*
Y68515D01*
X125812Y68643D01*
X125839Y68761D01*
X125867Y68862D01*
X125903Y68962D01*
X125931Y69044D01*
X125958Y69099D01*
X125976Y69144D01*
X125985Y69153D01*
X126085Y69299D01*
X126186Y69426D01*
X126295Y69536D01*
X126404Y69618D01*
X126495Y69691D01*
X126568Y69736D01*
X126623Y69763D01*
X126632Y69773D01*
X126641D01*
X126805Y69845D01*
X126969Y69891D01*
X127142Y69928D01*
X127297Y69955D01*
X127434Y69973D01*
X127497D01*
X127543Y69982D01*
X127588D01*
X127616D01*
X127634D01*
X127643D01*
X127853Y69973D01*
D02*
G37*
G36*
X130613Y61291D02*
X126486D01*
X130613Y63587D01*
Y61291D01*
D02*
G37*
%LPC*%
G36*
X-93865Y81430D02*
Y80200D01*
X-99722D01*
X-99567Y80373D01*
X-99431Y80573D01*
X-99294Y80774D01*
X-99176Y80974D01*
X-99075Y81156D01*
X-99039Y81229D01*
X-99002Y81302D01*
X-98975Y81357D01*
X-98957Y81393D01*
X-98948Y81421D01*
X-98939Y81430D01*
X-93865D01*
X-99248D01*
X-99431Y81229D01*
X-99604Y81047D01*
X-99749Y80901D01*
X-99877Y80774D01*
X-99977Y80683D01*
X-100059Y80610D01*
X-100105Y80573D01*
X-100123Y80555D01*
X-100260Y80455D01*
X-100405Y80355D01*
X-100533Y80273D01*
X-100651Y80209D01*
X-100752Y80145D01*
X-100834Y80109D01*
X-100879Y80081D01*
X-100897Y80072D01*
Y78560D01*
Y79890D01*
X-100770Y79826D01*
X-100633Y79763D01*
X-100515Y79681D01*
X-100396Y79617D01*
X-100305Y79544D01*
X-100223Y79489D01*
X-100178Y79453D01*
X-100169Y79444D01*
X-100160D01*
X-100014Y79316D01*
X-99859Y79180D01*
X-99704Y79034D01*
X-99558Y78888D01*
X-99440Y78760D01*
X-99340Y78660D01*
X-99303Y78615D01*
X-99276Y78587D01*
X-99258Y78569D01*
X-99248Y78560D01*
X-100897D01*
X-98939D01*
X-99021Y78724D01*
X-99094Y78861D01*
X-99157Y78979D01*
X-99203Y79070D01*
X-99248Y79134D01*
X-99276Y79180D01*
X-99285Y79207D01*
X-99294Y79216D01*
X-99349Y79298D01*
X-99413Y79389D01*
X-99549Y79571D01*
X-99622Y79662D01*
X-99677Y79726D01*
X-99713Y79772D01*
X-99722Y79790D01*
X-93865D01*
Y81430D01*
D02*
G37*
G36*
Y74962D02*
Y73732D01*
X-99722D01*
X-99567Y73905D01*
X-99431Y74105D01*
X-99294Y74306D01*
X-99176Y74506D01*
X-99075Y74688D01*
X-99039Y74761D01*
X-99002Y74834D01*
X-98975Y74889D01*
X-98957Y74925D01*
X-98948Y74953D01*
X-98939Y74962D01*
X-93865D01*
X-99248D01*
X-99431Y74761D01*
X-99604Y74579D01*
X-99749Y74433D01*
X-99877Y74306D01*
X-99977Y74215D01*
X-100059Y74142D01*
X-100105Y74105D01*
X-100123Y74087D01*
X-100260Y73987D01*
X-100405Y73887D01*
X-100533Y73805D01*
X-100651Y73741D01*
X-100752Y73677D01*
X-100834Y73641D01*
X-100879Y73613D01*
X-100897Y73604D01*
Y72092D01*
Y73422D01*
X-100770Y73358D01*
X-100633Y73294D01*
X-100515Y73212D01*
X-100396Y73149D01*
X-100305Y73076D01*
X-100223Y73021D01*
X-100178Y72985D01*
X-100169Y72976D01*
X-100160D01*
X-100014Y72848D01*
X-99859Y72711D01*
X-99704Y72566D01*
X-99558Y72420D01*
X-99440Y72292D01*
X-99340Y72192D01*
X-99303Y72147D01*
X-99276Y72119D01*
X-99258Y72101D01*
X-99248Y72092D01*
X-100897D01*
X-98939D01*
X-99021Y72256D01*
X-99094Y72393D01*
X-99157Y72511D01*
X-99203Y72602D01*
X-99248Y72666D01*
X-99276Y72711D01*
X-99285Y72739D01*
X-99294Y72748D01*
X-99349Y72830D01*
X-99413Y72921D01*
X-99549Y73103D01*
X-99622Y73194D01*
X-99677Y73258D01*
X-99713Y73304D01*
X-99722Y73322D01*
X-93865D01*
Y74962D01*
D02*
G37*
G36*
X-95568Y71227D02*
X-101499D01*
Y65925D01*
X-95568D01*
Y68002D01*
X-95577Y68220D01*
X-95595Y68411D01*
X-95614Y68585D01*
X-95623Y68730D01*
X-95632Y68785D01*
X-95641Y68840D01*
Y68876D01*
X-95650Y68903D01*
Y68931D01*
X-95687Y69131D01*
X-95741Y69323D01*
X-95805Y69496D01*
X-95869Y69641D01*
X-95932Y69769D01*
X-95987Y69860D01*
X-96005Y69896D01*
X-96023Y69924D01*
X-96033Y69933D01*
Y69942D01*
X-96178Y70142D01*
X-96342Y70325D01*
X-96506Y70479D01*
X-96670Y70607D01*
X-96816Y70716D01*
X-96871Y70762D01*
X-96925Y70798D01*
X-96971Y70826D01*
X-97007Y70844D01*
X-97026Y70862D01*
X-97035D01*
X-97290Y70981D01*
X-97545Y71072D01*
X-97791Y71135D01*
X-98028Y71181D01*
X-98128Y71199D01*
X-98219Y71208D01*
X-98310Y71217D01*
X-98383D01*
X-98438Y71227D01*
X-95568D01*
D02*
G37*
G36*
Y64722D02*
X-101499D01*
Y59639D01*
X-95568D01*
Y60996D01*
X-99695D01*
X-95568Y63292D01*
D01*
Y64722D01*
D02*
G37*
G36*
X-95896Y58518D02*
X-98820D01*
Y55922D01*
X-97700D01*
Y57079D01*
X-96534D01*
X-96525Y57015D01*
Y56696D01*
X-96534Y56532D01*
X-96543Y56377D01*
X-96570Y56231D01*
X-96597Y56095D01*
X-96643Y55967D01*
X-96680Y55849D01*
X-96725Y55739D01*
X-96771Y55648D01*
X-96816Y55566D01*
X-96862Y55484D01*
X-96907Y55421D01*
X-96944Y55366D01*
X-96971Y55330D01*
X-96998Y55302D01*
X-97007Y55284D01*
X-97017Y55275D01*
X-97117Y55184D01*
X-97226Y55102D01*
X-97344Y55038D01*
X-97463Y54974D01*
X-97591Y54929D01*
X-97718Y54883D01*
X-97964Y54819D01*
X-98082Y54801D01*
X-98192Y54783D01*
X-98292Y54774D01*
X-98374Y54765D01*
X-98447Y54756D01*
X-98501D01*
X-98538D01*
X-98547D01*
X-98720Y54765D01*
X-98884Y54774D01*
X-99030Y54801D01*
X-99148Y54829D01*
X-99258Y54847D01*
X-99331Y54874D01*
X-99376Y54883D01*
X-99394Y54892D01*
X-99531Y54947D01*
X-99649Y55011D01*
X-99749Y55065D01*
X-99841Y55129D01*
X-99914Y55175D01*
X-99959Y55220D01*
X-99995Y55247D01*
X-100005Y55257D01*
X-100096Y55348D01*
X-100169Y55448D01*
X-100232Y55539D01*
X-100278Y55630D01*
X-100314Y55703D01*
X-100351Y55758D01*
X-100360Y55803D01*
X-100369Y55812D01*
X-100415Y55931D01*
X-100442Y56058D01*
X-100469Y56177D01*
X-100478Y56286D01*
X-100487Y56377D01*
X-100497Y56450D01*
Y56632D01*
X-100478Y56751D01*
X-100469Y56851D01*
X-100451Y56951D01*
X-100433Y57024D01*
X-100424Y57079D01*
X-100405Y57124D01*
Y57133D01*
X-100369Y57243D01*
X-100333Y57334D01*
X-100296Y57425D01*
X-100260Y57507D01*
X-100232Y57561D01*
X-100205Y57616D01*
X-100196Y57644D01*
X-100187Y57653D01*
X-100096Y57798D01*
X-100014Y57917D01*
X-99977Y57971D01*
X-99950Y58008D01*
X-99932Y58035D01*
X-99923Y58044D01*
X-99822Y58181D01*
X-99786Y58227D01*
X-99759Y58272D01*
X-99731Y58309D01*
X-99713Y58336D01*
X-99695Y58345D01*
Y58491D01*
X-101080D01*
X-101171Y58309D01*
X-101244Y58126D01*
X-101307Y57962D01*
X-101362Y57816D01*
X-101408Y57698D01*
X-101435Y57607D01*
X-101444Y57571D01*
X-101453Y57543D01*
X-101462Y57534D01*
Y57525D01*
X-101508Y57343D01*
X-101544Y57142D01*
X-101572Y56942D01*
X-101590Y56742D01*
X-101599Y56578D01*
X-101608Y56505D01*
Y58518D01*
D01*
D01*
Y53216D01*
D01*
Y56313D01*
X-101599Y56049D01*
X-101572Y55803D01*
X-101526Y55566D01*
X-101480Y55348D01*
X-101408Y55147D01*
X-101344Y54965D01*
X-101262Y54792D01*
X-101189Y54637D01*
X-101107Y54501D01*
X-101025Y54382D01*
X-100961Y54282D01*
X-100897Y54200D01*
X-100843Y54127D01*
X-100797Y54081D01*
X-100770Y54054D01*
X-100761Y54045D01*
X-100597Y53899D01*
X-100424Y53772D01*
X-100241Y53662D01*
X-100059Y53562D01*
X-99868Y53489D01*
X-99686Y53416D01*
X-99504Y53362D01*
X-99331Y53316D01*
X-99167Y53289D01*
X-99012Y53262D01*
X-98875Y53243D01*
X-98756Y53225D01*
X-98665D01*
X-98593Y53216D01*
X-101608D01*
X-98529D01*
X-98265Y53225D01*
X-98010Y53252D01*
X-97773Y53289D01*
X-97545Y53343D01*
X-97344Y53407D01*
X-97153Y53480D01*
X-96989Y53553D01*
X-96834Y53635D01*
X-96698Y53708D01*
X-96579Y53781D01*
X-96479Y53854D01*
X-96388Y53917D01*
X-96324Y53972D01*
X-96279Y54009D01*
X-96251Y54036D01*
X-96242Y54045D01*
X-96105Y54209D01*
X-95978Y54382D01*
X-95869Y54555D01*
X-95778Y54747D01*
X-95705Y54929D01*
X-95641Y55111D01*
X-95586Y55293D01*
X-95541Y55466D01*
X-95504Y55630D01*
X-95486Y55785D01*
X-95468Y55922D01*
X-95450Y56040D01*
Y56131D01*
X-95441Y56204D01*
Y56268D01*
X-95450Y56496D01*
X-95468Y56714D01*
X-95486Y56924D01*
X-95513Y57115D01*
X-95541Y57270D01*
X-95550Y57334D01*
X-95568Y57388D01*
X-95577Y57434D01*
Y57470D01*
X-95586Y57489D01*
Y57498D01*
X-95641Y57726D01*
X-95705Y57926D01*
X-95750Y58099D01*
X-95796Y58245D01*
X-95841Y58363D01*
X-95869Y58445D01*
X-95887Y58500D01*
X-95896Y58518D01*
D02*
G37*
G36*
X-95441Y53216D02*
X-98118D01*
X-95441D01*
D01*
D02*
G37*
%LPD*%
G36*
X-98829Y71208D02*
X-99121Y71172D01*
X-99376Y71117D01*
X-99485Y71090D01*
X-99595Y71053D01*
X-99686Y71017D01*
X-99768Y70990D01*
X-99841Y70962D01*
X-99904Y70935D01*
X-99950Y70917D01*
X-99986Y70898D01*
X-100005Y70880D01*
X-100014D01*
X-100241Y70744D01*
X-100442Y70598D01*
X-100615Y70443D01*
X-100761Y70297D01*
X-100870Y70161D01*
X-100961Y70060D01*
X-100988Y70015D01*
X-101007Y69987D01*
X-101025Y69969D01*
Y69960D01*
X-101134Y69778D01*
X-101216Y69596D01*
X-101289Y69423D01*
X-101335Y69268D01*
X-101371Y69131D01*
X-101389Y69077D01*
X-101398Y69022D01*
X-101408Y68985D01*
X-101417Y68958D01*
Y68931D01*
X-101444Y68721D01*
X-101462Y68521D01*
X-101480Y68320D01*
X-101489Y68147D01*
X-101499Y67992D01*
Y71227D01*
X-98520D01*
X-98829Y71208D01*
D02*
G37*
G36*
X-98328Y69678D02*
X-98137Y69660D01*
X-97964Y69623D01*
X-97827Y69596D01*
X-97709Y69559D01*
X-97618Y69523D01*
X-97563Y69505D01*
X-97554Y69496D01*
X-97545D01*
X-97399Y69414D01*
X-97281Y69323D01*
X-97171Y69231D01*
X-97080Y69140D01*
X-97007Y69058D01*
X-96962Y68994D01*
X-96925Y68949D01*
X-96916Y68931D01*
X-96852Y68812D01*
X-96798Y68694D01*
X-96762Y68585D01*
X-96734Y68484D01*
X-96716Y68402D01*
X-96707Y68339D01*
X-96698Y68293D01*
Y68138D01*
X-96689Y68002D01*
Y67409D01*
X-100396D01*
Y67756D01*
X-100387Y67883D01*
Y68093D01*
X-100378Y68165D01*
Y68220D01*
X-100369Y68348D01*
X-100342Y68466D01*
X-100314Y68566D01*
X-100278Y68667D01*
X-100251Y68749D01*
X-100223Y68803D01*
X-100205Y68849D01*
X-100196Y68858D01*
X-100096Y69004D01*
X-99995Y69131D01*
X-99886Y69240D01*
X-99777Y69323D01*
X-99686Y69395D01*
X-99613Y69441D01*
X-99558Y69468D01*
X-99549Y69477D01*
X-99540D01*
X-99376Y69550D01*
X-99212Y69596D01*
X-99039Y69632D01*
X-98884Y69660D01*
X-98747Y69678D01*
X-98684D01*
X-98638Y69687D01*
X-98593D01*
X-98565D01*
X-98547D01*
X-98538D01*
X-98328Y69678D01*
D02*
G37*
G36*
X-101499Y61461D02*
Y63364D01*
X-98101D01*
X-101499Y61461D01*
D02*
G37*
%LPC*%
G36*
X2588Y-118701D02*
X2544D01*
X2493Y-118708D01*
X2435Y-118716D01*
X2362Y-118730D01*
X2289Y-118759D01*
X2216Y-118789D01*
X2151Y-118832D01*
X2143Y-118840D01*
X2121Y-118854D01*
X2092Y-118883D01*
X2056Y-118927D01*
X2012Y-118978D01*
X1968Y-119044D01*
X1925Y-119116D01*
X1881Y-119204D01*
X1874Y-119219D01*
X1866Y-119248D01*
X1852Y-119299D01*
X1830Y-119372D01*
X1808Y-119466D01*
X1786Y-119569D01*
X1764Y-119693D01*
X1750Y-119824D01*
Y-119831D01*
Y-119838D01*
Y-119860D01*
X1742Y-119889D01*
Y-119962D01*
X1735Y-120064D01*
X1728Y-120188D01*
Y-120327D01*
X1720Y-120487D01*
Y-120655D01*
Y-120662D01*
Y-120677D01*
Y-120706D01*
Y-120735D01*
Y-120779D01*
Y-120830D01*
X1728Y-120946D01*
Y-121078D01*
X1735Y-121223D01*
X1742Y-121362D01*
X1750Y-121493D01*
Y-121508D01*
X1757Y-121551D01*
X1764Y-121610D01*
X1779Y-121690D01*
X1793Y-121785D01*
X1815Y-121887D01*
X1881Y-122091D01*
X1888Y-122098D01*
X1895Y-122135D01*
X1917Y-122178D01*
X1946Y-122229D01*
X1983Y-122295D01*
X2027Y-122353D01*
X2078Y-122419D01*
X2136Y-122470D01*
X2143Y-122477D01*
X2165Y-122492D01*
X2209Y-122514D01*
X2260Y-122536D01*
X2325Y-122557D01*
X2398Y-122579D01*
X2486Y-122594D01*
X2588Y-122601D01*
X2632D01*
X2683Y-122594D01*
X2741Y-122587D01*
X2807Y-122572D01*
X2880Y-122550D01*
X2952Y-122521D01*
X3018Y-122477D01*
X3025Y-122470D01*
X3047Y-122455D01*
X3076Y-122426D01*
X3113Y-122382D01*
X3156Y-122331D01*
X3200Y-122266D01*
X3244Y-122193D01*
X3280Y-122105D01*
X3288Y-122091D01*
X3295Y-122062D01*
X3310Y-122011D01*
X3331Y-121938D01*
X3353Y-121850D01*
X3375Y-121748D01*
X3397Y-121639D01*
X3412Y-121508D01*
Y-121500D01*
Y-121493D01*
X3419Y-121471D01*
Y-121442D01*
X3426Y-121369D01*
X3434Y-121267D01*
X3441Y-121136D01*
X3448Y-120997D01*
X3455Y-120830D01*
Y-120655D01*
Y-120647D01*
Y-120633D01*
Y-120604D01*
Y-120574D01*
Y-120531D01*
Y-120480D01*
X3448Y-120363D01*
Y-120232D01*
X3441Y-120086D01*
X3426Y-119940D01*
X3412Y-119802D01*
Y-119794D01*
Y-119787D01*
X3404Y-119744D01*
X3397Y-119671D01*
X3382Y-119590D01*
X3361Y-119496D01*
X3339Y-119394D01*
X3317Y-119291D01*
X3280Y-119197D01*
X3273Y-119189D01*
X3266Y-119160D01*
X3244Y-119116D01*
X3215Y-119058D01*
X3178Y-119000D01*
X3127Y-118942D01*
X3076Y-118883D01*
X3018Y-118832D01*
X3011Y-118825D01*
X2989Y-118810D01*
X2952Y-118789D01*
X2901Y-118767D01*
X2843Y-118745D01*
X2763Y-118723D01*
X2683Y-118708D01*
X2588Y-118701D01*
D02*
G37*
G36*
X-10600D02*
X-10643D01*
X-10695Y-118708D01*
X-10753Y-118716D01*
X-10826Y-118730D01*
X-10899Y-118759D01*
X-10971Y-118789D01*
X-11037Y-118832D01*
X-11044Y-118840D01*
X-11066Y-118854D01*
X-11095Y-118883D01*
X-11132Y-118927D01*
X-11176Y-118978D01*
X-11219Y-119044D01*
X-11263Y-119116D01*
X-11307Y-119204D01*
X-11314Y-119219D01*
X-11321Y-119248D01*
X-11336Y-119299D01*
X-11358Y-119372D01*
X-11380Y-119466D01*
X-11402Y-119569D01*
X-11423Y-119693D01*
X-11438Y-119824D01*
Y-119831D01*
Y-119838D01*
Y-119860D01*
X-11445Y-119889D01*
Y-119962D01*
X-11453Y-120064D01*
X-11460Y-120188D01*
Y-120327D01*
X-11467Y-120487D01*
Y-120655D01*
Y-120662D01*
Y-120677D01*
Y-120706D01*
Y-120735D01*
Y-120779D01*
Y-120830D01*
X-11460Y-120946D01*
Y-121078D01*
X-11453Y-121223D01*
X-11445Y-121362D01*
X-11438Y-121493D01*
Y-121508D01*
X-11431Y-121551D01*
X-11423Y-121610D01*
X-11409Y-121690D01*
X-11394Y-121785D01*
X-11372Y-121887D01*
X-11307Y-122091D01*
X-11299Y-122098D01*
X-11292Y-122135D01*
X-11270Y-122178D01*
X-11241Y-122229D01*
X-11205Y-122295D01*
X-11161Y-122353D01*
X-11110Y-122419D01*
X-11052Y-122470D01*
X-11044Y-122477D01*
X-11022Y-122492D01*
X-10979Y-122514D01*
X-10928Y-122536D01*
X-10862Y-122557D01*
X-10789Y-122579D01*
X-10702Y-122594D01*
X-10600Y-122601D01*
X-10556D01*
X-10505Y-122594D01*
X-10447Y-122587D01*
X-10381Y-122572D01*
X-10308Y-122550D01*
X-10235Y-122521D01*
X-10170Y-122477D01*
X-10162Y-122470D01*
X-10140Y-122455D01*
X-10111Y-122426D01*
X-10075Y-122382D01*
X-10031Y-122331D01*
X-9987Y-122266D01*
X-9944Y-122193D01*
X-9907Y-122105D01*
X-9900Y-122091D01*
X-9893Y-122062D01*
X-9878Y-122011D01*
X-9856Y-121938D01*
X-9834Y-121850D01*
X-9812Y-121748D01*
X-9791Y-121639D01*
X-9776Y-121508D01*
Y-121500D01*
Y-121493D01*
X-9769Y-121471D01*
Y-121442D01*
X-9761Y-121369D01*
X-9754Y-121267D01*
X-9747Y-121136D01*
X-9740Y-120997D01*
X-9732Y-120830D01*
Y-120655D01*
Y-120647D01*
Y-120633D01*
Y-120604D01*
Y-120574D01*
Y-120531D01*
Y-120480D01*
X-9740Y-120363D01*
Y-120232D01*
X-9747Y-120086D01*
X-9761Y-119940D01*
X-9776Y-119802D01*
Y-119794D01*
Y-119787D01*
X-9783Y-119744D01*
X-9791Y-119671D01*
X-9805Y-119590D01*
X-9827Y-119496D01*
X-9849Y-119394D01*
X-9871Y-119291D01*
X-9907Y-119197D01*
X-9914Y-119189D01*
X-9922Y-119160D01*
X-9944Y-119116D01*
X-9973Y-119058D01*
X-10009Y-119000D01*
X-10060Y-118942D01*
X-10111Y-118883D01*
X-10170Y-118832D01*
X-10177Y-118825D01*
X-10199Y-118810D01*
X-10235Y-118789D01*
X-10286Y-118767D01*
X-10345Y-118745D01*
X-10425Y-118723D01*
X-10505Y-118708D01*
X-10600Y-118701D01*
D02*
G37*
G36*
X27330Y-82975D02*
X25756D01*
X24674Y-84527D01*
X25658D01*
X27330Y-82975D01*
D02*
G37*
G36*
X-16521Y-85183D02*
X-18729D01*
D01*
X-16521D01*
D02*
G37*
G36*
X44162Y-85183D02*
X42698D01*
X42414Y-86516D01*
X43889D01*
X44162Y-85183D01*
D02*
G37*
G36*
X-23866Y-85041D02*
X-27210D01*
X-27025D01*
X-27265Y-85052D01*
X-27495Y-85073D01*
X-27724Y-85106D01*
X-27932Y-85150D01*
X-28139Y-85194D01*
X-28325Y-85259D01*
X-28500Y-85314D01*
X-28653Y-85379D01*
X-28806Y-85445D01*
X-28926Y-85500D01*
X-29047Y-85565D01*
X-29134Y-85609D01*
X-29211Y-85653D01*
X-29265Y-85685D01*
X-29298Y-85707D01*
X-29309Y-85718D01*
X-29484Y-85849D01*
X-29648Y-85992D01*
X-29943Y-86298D01*
X-30085Y-86462D01*
X-30205Y-86615D01*
X-30314Y-86768D01*
X-30413Y-86920D01*
X-30500Y-87063D01*
X-30577Y-87194D01*
X-30642Y-87303D01*
X-30697Y-87412D01*
X-30741Y-87489D01*
X-30774Y-87555D01*
X-30784Y-87598D01*
X-30795Y-87609D01*
X-30937Y-87992D01*
X-31047Y-88374D01*
X-31123Y-88735D01*
X-31156Y-88899D01*
X-31178Y-89052D01*
X-31200Y-89205D01*
X-31211Y-89336D01*
X-31222Y-89445D01*
Y-89555D01*
X-31233Y-89631D01*
Y-89598D01*
Y-89741D01*
X-31222Y-90036D01*
X-31189Y-90320D01*
X-31134Y-90582D01*
X-31069Y-90833D01*
X-30992Y-91052D01*
X-30916Y-91260D01*
X-30817Y-91446D01*
X-30719Y-91620D01*
X-30632Y-91763D01*
X-30533Y-91894D01*
X-30457Y-92003D01*
X-30369Y-92090D01*
X-30314Y-92167D01*
X-30260Y-92211D01*
X-30227Y-92243D01*
X-30216Y-92254D01*
X-30063Y-92364D01*
X-29910Y-92462D01*
X-29735Y-92550D01*
X-29560Y-92615D01*
X-29385Y-92681D01*
X-29200Y-92735D01*
X-28861Y-92812D01*
X-28697Y-92834D01*
X-28544Y-92856D01*
X-28413Y-92866D01*
X-28293Y-92877D01*
X-28194Y-92888D01*
X-31233D01*
D01*
X-23866D01*
X-28063D01*
X-27724Y-92877D01*
X-27407Y-92845D01*
X-27101Y-92801D01*
X-26839Y-92757D01*
X-26719Y-92735D01*
X-26609Y-92713D01*
X-26522Y-92692D01*
X-26445Y-92670D01*
X-26380Y-92648D01*
X-26336Y-92637D01*
X-26303Y-92626D01*
X-26292D01*
X-25975Y-92517D01*
X-25691Y-92407D01*
X-25440Y-92298D01*
X-25221Y-92200D01*
X-25134Y-92145D01*
X-25057Y-92101D01*
X-24981Y-92069D01*
X-24926Y-92036D01*
X-24882Y-92003D01*
X-24839Y-91992D01*
X-24828Y-91970D01*
X-24817D01*
X-24139Y-88702D01*
X-27516D01*
X-27779Y-89970D01*
X-25844D01*
X-26085Y-91107D01*
X-26238Y-91172D01*
X-26391Y-91238D01*
X-26544Y-91303D01*
X-26686Y-91347D01*
X-26806Y-91391D01*
X-26904Y-91424D01*
X-26970Y-91435D01*
X-26981Y-91446D01*
X-26992D01*
X-27189Y-91489D01*
X-27374Y-91522D01*
X-27549Y-91555D01*
X-27702Y-91566D01*
X-27833Y-91577D01*
X-27932Y-91588D01*
X-28019D01*
X-28314Y-91566D01*
X-28577Y-91522D01*
X-28795Y-91446D01*
X-28970Y-91358D01*
X-29112Y-91282D01*
X-29221Y-91205D01*
X-29276Y-91161D01*
X-29298Y-91140D01*
X-29375Y-91052D01*
X-29440Y-90943D01*
X-29549Y-90724D01*
X-29615Y-90484D01*
X-29670Y-90254D01*
X-29702Y-90047D01*
X-29713Y-89959D01*
Y-89872D01*
X-29724Y-89806D01*
Y-89762D01*
Y-89729D01*
Y-89719D01*
X-29713Y-89358D01*
X-29670Y-89030D01*
X-29615Y-88724D01*
X-29582Y-88582D01*
X-29549Y-88462D01*
X-29517Y-88341D01*
X-29484Y-88232D01*
X-29451Y-88145D01*
X-29429Y-88068D01*
X-29407Y-88003D01*
X-29385Y-87959D01*
X-29375Y-87937D01*
Y-87926D01*
X-29232Y-87631D01*
X-29068Y-87380D01*
X-28905Y-87172D01*
X-28752Y-86997D01*
X-28609Y-86866D01*
X-28489Y-86778D01*
X-28446Y-86746D01*
X-28413Y-86724D01*
X-28402Y-86702D01*
X-28391D01*
X-28150Y-86571D01*
X-27910Y-86472D01*
X-27680Y-86396D01*
X-27462Y-86352D01*
X-27287Y-86319D01*
X-27210Y-86308D01*
X-27134D01*
X-27090Y-86298D01*
X-27014D01*
X-26784Y-86308D01*
X-26576Y-86352D01*
X-26391Y-86396D01*
X-26238Y-86462D01*
X-26107Y-86516D01*
X-26019Y-86571D01*
X-25964Y-86615D01*
X-25943Y-86625D01*
X-25789Y-86757D01*
X-25669Y-86910D01*
X-25560Y-87074D01*
X-25473Y-87227D01*
X-25407Y-87369D01*
X-25352Y-87478D01*
X-25341Y-87522D01*
X-25330Y-87555D01*
X-25319Y-87576D01*
Y-87587D01*
X-23866Y-87423D01*
X-23920Y-87216D01*
X-23986Y-87019D01*
X-24062Y-86833D01*
X-24139Y-86658D01*
X-24227Y-86494D01*
X-24314Y-86352D01*
X-24401Y-86221D01*
X-24489Y-86101D01*
X-24576Y-86002D01*
X-24664Y-85904D01*
X-24729Y-85827D01*
X-24795Y-85762D01*
X-24849Y-85718D01*
X-24893Y-85685D01*
X-24915Y-85664D01*
X-24926Y-85653D01*
X-25079Y-85543D01*
X-25243Y-85445D01*
X-25407Y-85369D01*
X-25582Y-85303D01*
X-25932Y-85194D01*
X-26270Y-85117D01*
X-26423Y-85095D01*
X-26566Y-85073D01*
X-26697Y-85062D01*
X-26806Y-85052D01*
X-26893Y-85041D01*
X-23866D01*
D02*
G37*
G36*
X50032Y-87139D02*
X48108D01*
X47944Y-87150D01*
X47780Y-87161D01*
X47638Y-87194D01*
X47507Y-87216D01*
X47409Y-87248D01*
X47321Y-87281D01*
X47278Y-87292D01*
X47256Y-87303D01*
X47103Y-87369D01*
X46961Y-87456D01*
X46819Y-87543D01*
X46687Y-87631D01*
X46578Y-87708D01*
X46491Y-87773D01*
X46436Y-87817D01*
X46414Y-87839D01*
X46523Y-87259D01*
X45135D01*
X44162Y-91941D01*
D01*
X44118Y-92156D01*
X43561Y-94834D01*
X50032D01*
X45026D01*
X45605Y-92014D01*
X45715Y-92167D01*
X45835Y-92298D01*
X45966Y-92418D01*
X46108Y-92517D01*
X46239Y-92604D01*
X46381Y-92670D01*
X46512Y-92735D01*
X46655Y-92779D01*
X46775Y-92812D01*
X46895Y-92845D01*
X46993Y-92866D01*
X47092Y-92877D01*
X47157D01*
X47223Y-92888D01*
X47267D01*
X47463Y-92877D01*
X47649Y-92856D01*
X47835Y-92812D01*
X48010Y-92757D01*
X48174Y-92692D01*
X48327Y-92615D01*
X48458Y-92538D01*
X48589Y-92451D01*
X48709Y-92375D01*
X48808Y-92298D01*
X48906Y-92222D01*
X48972Y-92156D01*
X49037Y-92101D01*
X49081Y-92058D01*
X49103Y-92036D01*
X49114Y-92025D01*
X49278Y-91828D01*
X49420Y-91620D01*
X49540Y-91413D01*
X49649Y-91194D01*
X49737Y-90987D01*
X49813Y-90779D01*
X49868Y-90571D01*
X49923Y-90385D01*
X49955Y-90200D01*
X49988Y-90036D01*
X49999Y-89883D01*
X50021Y-89762D01*
Y-89653D01*
X50032Y-89577D01*
Y-89511D01*
D01*
X50021Y-89292D01*
X50010Y-89096D01*
X49988Y-88910D01*
X49944Y-88735D01*
X49912Y-88582D01*
X49868Y-88429D01*
X49813Y-88298D01*
X49770Y-88178D01*
X49715Y-88079D01*
X49671Y-87992D01*
X49617Y-87915D01*
X49584Y-87850D01*
X49551Y-87806D01*
X49518Y-87762D01*
X49507Y-87751D01*
X49496Y-87740D01*
X49398Y-87631D01*
X49289Y-87543D01*
X49169Y-87456D01*
X49059Y-87391D01*
X48830Y-87281D01*
X48611Y-87216D01*
X48414Y-87172D01*
X48327Y-87161D01*
X48250Y-87150D01*
X48196Y-87139D01*
X50032D01*
D02*
G37*
G36*
X-8815Y-85183D02*
X-10367D01*
X-10979Y-88101D01*
X-13919D01*
X-13307Y-85183D01*
X-14860D01*
X-16444Y-92746D01*
D01*
X-8815D01*
X-10411D01*
X-8815Y-85183D01*
D02*
G37*
G36*
X53847Y-87139D02*
X53748D01*
X53464Y-87150D01*
X53191Y-87194D01*
X52939Y-87248D01*
X52710Y-87325D01*
X52491Y-87412D01*
X52294Y-87511D01*
X52109Y-87620D01*
X51945Y-87729D01*
X51803Y-87850D01*
X51671Y-87948D01*
X51573Y-88057D01*
X51475Y-88145D01*
X51409Y-88221D01*
X51365Y-88276D01*
X51333Y-88320D01*
X51322Y-88331D01*
X51212Y-88494D01*
X51114Y-88669D01*
X51038Y-88844D01*
X50961Y-89019D01*
X50906Y-89194D01*
X50852Y-89358D01*
X50775Y-89664D01*
X50753Y-89806D01*
X50731Y-89937D01*
X50721Y-90057D01*
X50710Y-90156D01*
X50699Y-90232D01*
Y-90200D01*
Y-92888D01*
X55956D01*
D01*
X53191D01*
X53486Y-92866D01*
X53748Y-92823D01*
X54000Y-92768D01*
X54207Y-92692D01*
X54393Y-92615D01*
X54459Y-92582D01*
X54524Y-92560D01*
X54568Y-92528D01*
X54601Y-92517D01*
X54623Y-92495D01*
X54633D01*
X54863Y-92331D01*
X55071Y-92134D01*
X55256Y-91937D01*
X55409Y-91741D01*
X55519Y-91555D01*
X55573Y-91478D01*
X55606Y-91413D01*
X55639Y-91358D01*
X55661Y-91314D01*
X55683Y-91293D01*
Y-91282D01*
X54360Y-91063D01*
X54284Y-91194D01*
X54196Y-91314D01*
X54098Y-91413D01*
X54000Y-91500D01*
X53912Y-91577D01*
X53814Y-91642D01*
X53715Y-91697D01*
X53628Y-91730D01*
X53464Y-91784D01*
X53387Y-91806D01*
X53322Y-91817D01*
X53278Y-91828D01*
X53202D01*
X53038Y-91817D01*
X52885Y-91773D01*
X52754Y-91719D01*
X52644Y-91664D01*
X52546Y-91599D01*
X52480Y-91555D01*
X52437Y-91511D01*
X52426Y-91500D01*
X52327Y-91369D01*
X52251Y-91216D01*
X52196Y-91074D01*
X52163Y-90932D01*
X52141Y-90801D01*
X52120Y-90702D01*
Y-90637D01*
Y-90626D01*
Y-90615D01*
Y-90571D01*
X52131Y-90527D01*
Y-90484D01*
Y-90473D01*
X55847D01*
X55912Y-90145D01*
X55934Y-89981D01*
X55945Y-89828D01*
X55956Y-89708D01*
Y-89500D01*
Y-89511D01*
X55945Y-89303D01*
X55934Y-89117D01*
X55901Y-88932D01*
X55858Y-88768D01*
X55814Y-88604D01*
X55770Y-88462D01*
X55716Y-88331D01*
X55661Y-88210D01*
X55595Y-88112D01*
X55541Y-88013D01*
X55497Y-87937D01*
X55453Y-87871D01*
X55409Y-87828D01*
X55377Y-87795D01*
X55366Y-87773D01*
X55355Y-87762D01*
X55235Y-87653D01*
X55114Y-87555D01*
X54983Y-87478D01*
X54852Y-87401D01*
X54721Y-87336D01*
X54590Y-87292D01*
X54327Y-87216D01*
X54207Y-87194D01*
X54098Y-87172D01*
X54000Y-87161D01*
X53912Y-87150D01*
X53847Y-87139D01*
D02*
G37*
G36*
X-5678Y-89303D02*
X-8553D01*
X-8837Y-90735D01*
X-8815D01*
X-5678D01*
D01*
X-5962D01*
X-5678Y-89303D01*
D02*
G37*
G36*
X-43267Y-87259D02*
X-43452D01*
X-44862D01*
X-46229Y-89587D01*
X-46261Y-89653D01*
X-46316Y-89751D01*
X-46382Y-89861D01*
X-46447Y-89981D01*
X-46513Y-90101D01*
X-46567Y-90200D01*
X-46611Y-90265D01*
X-46622Y-90276D01*
Y-90287D01*
X-46677Y-90385D01*
X-46731Y-90484D01*
X-46808Y-90637D01*
X-46874Y-90746D01*
X-46917Y-90833D01*
X-46950Y-90888D01*
X-46972Y-90921D01*
X-46983Y-90943D01*
X-46994Y-90877D01*
X-47005Y-90801D01*
X-47027Y-90615D01*
X-47059Y-90407D01*
X-47092Y-90189D01*
X-47125Y-89992D01*
X-47147Y-89894D01*
X-47158Y-89817D01*
X-47169Y-89751D01*
Y-89708D01*
X-47179Y-89675D01*
Y-89664D01*
X-47551Y-87259D01*
X-47145D01*
X-49005D01*
X-47912Y-92746D01*
X-49005D01*
X-43452D01*
D01*
X-46644D01*
X-43267Y-87259D01*
D02*
G37*
G36*
X-61421Y-85183D02*
X-62973D01*
X-63848Y-89325D01*
X-63892Y-89511D01*
X-63924Y-89675D01*
X-63968Y-89828D01*
X-64012Y-89970D01*
X-64044Y-90101D01*
X-64077Y-90221D01*
X-64121Y-90320D01*
X-64143Y-90418D01*
X-64176Y-90495D01*
X-64208Y-90571D01*
X-64230Y-90626D01*
X-64252Y-90670D01*
X-64274Y-90735D01*
X-64285Y-90757D01*
X-64372Y-90899D01*
X-64471Y-91030D01*
X-64580Y-91140D01*
X-64678Y-91227D01*
X-64766Y-91293D01*
X-64842Y-91336D01*
X-64886Y-91369D01*
X-64908Y-91380D01*
X-65061Y-91446D01*
X-65236Y-91500D01*
X-65400Y-91533D01*
X-65553Y-91566D01*
X-65695Y-91577D01*
X-65815Y-91588D01*
X-65913D01*
X-66154Y-91577D01*
X-66362Y-91544D01*
X-66536Y-91500D01*
X-66689Y-91457D01*
X-66799Y-91413D01*
X-66886Y-91369D01*
X-66930Y-91336D01*
X-66952Y-91325D01*
X-67072Y-91216D01*
X-67149Y-91107D01*
X-67214Y-90987D01*
X-67258Y-90877D01*
X-67280Y-90779D01*
X-67291Y-90702D01*
X-67302Y-90659D01*
Y-90637D01*
X-67280Y-90506D01*
X-67269Y-90396D01*
X-67258Y-90331D01*
Y-90320D01*
Y-90309D01*
X-67028Y-89303D01*
X-66132Y-85183D01*
X-67673D01*
X-68569Y-89172D01*
X-68602Y-89314D01*
X-68624Y-89434D01*
X-68646Y-89544D01*
X-68668Y-89642D01*
X-68690Y-89730D01*
X-68701Y-89806D01*
X-68722Y-89937D01*
X-68744Y-90014D01*
Y-90079D01*
X-68755Y-90101D01*
Y-90112D01*
X-68777Y-90287D01*
X-68788Y-90364D01*
X-68799Y-90440D01*
Y-90495D01*
X-68810Y-90538D01*
Y-90571D01*
X-68799Y-90757D01*
X-68777Y-90932D01*
X-68744Y-91107D01*
X-68701Y-91260D01*
X-68646Y-91413D01*
X-68580Y-91544D01*
X-68515Y-91675D01*
X-68449Y-91784D01*
X-68384Y-91894D01*
X-68318Y-91981D01*
X-68252Y-92058D01*
X-68198Y-92123D01*
X-68154Y-92178D01*
X-68121Y-92211D01*
X-68099Y-92233D01*
X-68089Y-92243D01*
X-67946Y-92353D01*
X-67782Y-92451D01*
X-67619Y-92539D01*
X-67455Y-92615D01*
X-67280Y-92681D01*
X-67094Y-92735D01*
X-66755Y-92812D01*
X-66602Y-92834D01*
X-66449Y-92856D01*
X-66318Y-92866D01*
X-66209Y-92877D01*
X-66110Y-92888D01*
X-68810D01*
D01*
X-61421D01*
X-65979D01*
X-65575Y-92866D01*
X-65378Y-92845D01*
X-65203Y-92823D01*
X-65039Y-92790D01*
X-64886Y-92757D01*
X-64744Y-92724D01*
X-64613Y-92681D01*
X-64493Y-92637D01*
X-64394Y-92604D01*
X-64307Y-92571D01*
X-64230Y-92539D01*
X-64176Y-92506D01*
X-64132Y-92495D01*
X-64110Y-92473D01*
X-64099D01*
X-63837Y-92309D01*
X-63607Y-92123D01*
X-63411Y-91948D01*
X-63257Y-91773D01*
X-63126Y-91620D01*
X-63039Y-91500D01*
X-63017Y-91457D01*
X-62995Y-91424D01*
X-62973Y-91402D01*
Y-91391D01*
X-62908Y-91260D01*
X-62842Y-91118D01*
X-62711Y-90812D01*
X-62602Y-90484D01*
X-62514Y-90178D01*
X-62471Y-90036D01*
X-62438Y-89904D01*
X-62405Y-89784D01*
X-62372Y-89675D01*
X-62350Y-89587D01*
X-62339Y-89522D01*
X-62328Y-89478D01*
Y-89467D01*
X-61673Y-86370D01*
X-61421Y-85183D01*
D02*
G37*
G36*
X-1853Y-85139D02*
X-1951D01*
X-2137Y-85150D01*
X-2312Y-85172D01*
X-2487Y-85204D01*
X-2651Y-85248D01*
X-2946Y-85358D01*
X-3066Y-85412D01*
X-3186Y-85478D01*
X-3295Y-85543D01*
X-3394Y-85598D01*
X-3470Y-85664D01*
X-3547Y-85707D01*
X-3591Y-85751D01*
X-3634Y-85784D01*
X-3656Y-85806D01*
X-3667Y-85817D01*
X-3831Y-86002D01*
X-3973Y-86210D01*
X-4093Y-86418D01*
X-4192Y-86625D01*
X-4268Y-86811D01*
X-4301Y-86888D01*
X-4334Y-86953D01*
X-4356Y-87019D01*
X-4367Y-87063D01*
X-4378Y-87085D01*
Y-87095D01*
X-3022Y-87358D01*
X-2968Y-87161D01*
X-2902Y-86997D01*
X-2836Y-86855D01*
X-2771Y-86746D01*
X-2716Y-86669D01*
X-2672Y-86604D01*
X-2640Y-86571D01*
X-2629Y-86560D01*
X-2530Y-86483D01*
X-2432Y-86418D01*
X-2334Y-86374D01*
X-2246Y-86352D01*
X-2170Y-86330D01*
X-2115Y-86319D01*
X-2060D01*
X-1940Y-86330D01*
X-1831Y-86352D01*
X-1743Y-86385D01*
X-1656Y-86429D01*
X-1601Y-86472D01*
X-1547Y-86505D01*
X-1525Y-86527D01*
X-1514Y-86538D01*
X-1437Y-86625D01*
X-1383Y-86724D01*
X-1350Y-86822D01*
X-1317Y-86910D01*
X-1306Y-86997D01*
X-1295Y-87063D01*
Y-87106D01*
Y-87128D01*
X-1306Y-87314D01*
X-1339Y-87478D01*
X-1394Y-87620D01*
X-1448Y-87740D01*
X-1514Y-87839D01*
X-1558Y-87904D01*
X-1601Y-87948D01*
X-1612Y-87959D01*
X-1743Y-88057D01*
X-1886Y-88134D01*
X-2028Y-88178D01*
X-2170Y-88221D01*
X-2301Y-88243D01*
X-2410Y-88254D01*
X-2662D01*
X-2913Y-89478D01*
X-2826Y-89467D01*
X-2749Y-89456D01*
X-2684D01*
X-2520Y-89467D01*
X-2377Y-89500D01*
X-2246Y-89544D01*
X-2148Y-89587D01*
X-2060Y-89642D01*
X-2006Y-89686D01*
X-1962Y-89719D01*
X-1951Y-89729D01*
X-1864Y-89839D01*
X-1798Y-89959D01*
X-1743Y-90079D01*
X-1711Y-90200D01*
X-1689Y-90309D01*
X-1678Y-90396D01*
Y-90451D01*
Y-90462D01*
Y-90473D01*
X-1689Y-90659D01*
X-1733Y-90833D01*
X-1787Y-90987D01*
X-1842Y-91107D01*
X-1907Y-91216D01*
X-1962Y-91282D01*
X-2006Y-91336D01*
X-2017Y-91347D01*
X-2148Y-91457D01*
X-2290Y-91544D01*
X-2432Y-91599D01*
X-2563Y-91642D01*
X-2684Y-91664D01*
X-2771Y-91675D01*
X-2836Y-91686D01*
X-2858D01*
X-2990Y-91675D01*
X-3110Y-91653D01*
X-3219Y-91610D01*
X-3306Y-91566D01*
X-3372Y-91533D01*
X-3427Y-91489D01*
X-3460Y-91467D01*
X-3470Y-91457D01*
X-3547Y-91358D01*
X-3613Y-91227D01*
X-3667Y-91085D01*
X-3711Y-90954D01*
X-3744Y-90823D01*
X-3765Y-90713D01*
X-3777Y-90670D01*
X-3787Y-90637D01*
Y-90626D01*
Y-90615D01*
X-5208Y-90790D01*
X-5175Y-90976D01*
X-5143Y-91140D01*
X-5088Y-91303D01*
X-5033Y-91457D01*
X-4979Y-91599D01*
X-4913Y-91719D01*
X-4848Y-91839D01*
X-4782Y-91937D01*
X-4716Y-92036D01*
X-4662Y-92112D01*
X-4607Y-92189D01*
X-4552Y-92243D01*
X-4509Y-92287D01*
X-4476Y-92320D01*
X-4465Y-92331D01*
X-4454Y-92342D01*
X-4334Y-92440D01*
X-4203Y-92517D01*
X-4072Y-92593D01*
X-3940Y-92659D01*
X-3678Y-92757D01*
X-3427Y-92823D01*
X-3317Y-92845D01*
X-3208Y-92856D01*
X-3110Y-92866D01*
X-3033Y-92877D01*
X-2957Y-92888D01*
X-5208D01*
X180D01*
D01*
X-2869D01*
X-2640Y-92877D01*
X-2410Y-92845D01*
X-2203Y-92801D01*
X-2006Y-92735D01*
X-1820Y-92670D01*
X-1645Y-92582D01*
X-1492Y-92495D01*
X-1350Y-92407D01*
X-1219Y-92320D01*
X-1110Y-92233D01*
X-1011Y-92145D01*
X-924Y-92080D01*
X-869Y-92014D01*
X-814Y-91970D01*
X-793Y-91937D01*
X-782Y-91926D01*
X-672Y-91795D01*
X-585Y-91664D01*
X-497Y-91522D01*
X-432Y-91391D01*
X-323Y-91129D01*
X-257Y-90888D01*
X-235Y-90790D01*
X-213Y-90691D01*
X-202Y-90604D01*
X-191Y-90527D01*
X-181Y-90462D01*
Y-90418D01*
Y-90396D01*
Y-90385D01*
X-191Y-90221D01*
X-213Y-90068D01*
X-257Y-89926D01*
X-290Y-89795D01*
X-334Y-89697D01*
X-377Y-89609D01*
X-399Y-89566D01*
X-410Y-89544D01*
X-508Y-89402D01*
X-618Y-89271D01*
X-738Y-89161D01*
X-847Y-89063D01*
X-957Y-88986D01*
X-1044Y-88932D01*
X-1099Y-88899D01*
X-1110Y-88888D01*
X-1120D01*
X-902Y-88790D01*
X-716Y-88691D01*
X-552Y-88571D01*
X-421Y-88451D01*
X-312Y-88352D01*
X-235Y-88265D01*
X-181Y-88210D01*
X-170Y-88188D01*
X-49Y-88003D01*
X38Y-87817D01*
X93Y-87642D01*
X137Y-87467D01*
X158Y-87325D01*
X180Y-87216D01*
Y-87117D01*
D01*
X169Y-86964D01*
X158Y-86822D01*
X93Y-86560D01*
X5Y-86319D01*
X-93Y-86123D01*
X-191Y-85959D01*
X-235Y-85893D01*
X-279Y-85827D01*
X-312Y-85784D01*
X-344Y-85751D01*
X-355Y-85740D01*
X-366Y-85729D01*
X-476Y-85620D01*
X-596Y-85532D01*
X-716Y-85456D01*
X-847Y-85390D01*
X-1110Y-85281D01*
X-1361Y-85216D01*
X-1591Y-85172D01*
X-1689Y-85161D01*
X-1776Y-85150D01*
X-1853Y-85139D01*
D02*
G37*
G36*
X40578Y-87259D02*
X39102D01*
X38512Y-89883D01*
X38468Y-90057D01*
X38435Y-90200D01*
X38402Y-90331D01*
X38370Y-90429D01*
X38348Y-90517D01*
X38326Y-90571D01*
X38315Y-90604D01*
Y-90615D01*
X38271Y-90735D01*
X38217Y-90844D01*
X38173Y-90932D01*
X38129Y-91019D01*
X38096Y-91074D01*
X38064Y-91129D01*
X38053Y-91150D01*
X38042Y-91161D01*
X37932Y-91303D01*
X37823Y-91413D01*
X37779Y-91457D01*
X37747Y-91489D01*
X37725Y-91511D01*
X37714Y-91522D01*
X37583Y-91620D01*
X37473Y-91697D01*
X37430Y-91719D01*
X37397Y-91741D01*
X37375Y-91752D01*
X37364D01*
X37244Y-91795D01*
X37135Y-91817D01*
X37091Y-91828D01*
X37025D01*
X36938Y-91817D01*
X36861Y-91806D01*
X36796Y-91773D01*
X36730Y-91741D01*
X36686Y-91719D01*
X36654Y-91686D01*
X36632Y-91675D01*
X36621Y-91664D01*
X36566Y-91599D01*
X36533Y-91522D01*
X36490Y-91391D01*
X36479Y-91336D01*
X36468Y-91293D01*
Y-91260D01*
Y-91249D01*
X36479Y-91172D01*
X36490Y-91074D01*
X36511Y-90954D01*
X36533Y-90833D01*
X36555Y-90713D01*
X36577Y-90615D01*
X36599Y-90549D01*
Y-90538D01*
Y-90527D01*
X37331Y-87259D01*
X35834D01*
X35145Y-90320D01*
X35113Y-90473D01*
X35080Y-90615D01*
X35058Y-90746D01*
X35036Y-90855D01*
X35025Y-90965D01*
X35003Y-91052D01*
X34981Y-91205D01*
X34970Y-91325D01*
X34960Y-91402D01*
Y-91457D01*
X34970Y-91686D01*
X35014Y-91894D01*
X35069Y-92080D01*
X35134Y-92222D01*
X35200Y-92342D01*
X35255Y-92429D01*
X35298Y-92484D01*
X35309Y-92506D01*
X35451Y-92637D01*
X35615Y-92724D01*
X35779Y-92790D01*
X35932Y-92845D01*
X36074Y-92866D01*
X36195Y-92877D01*
X36238Y-92888D01*
X34960D01*
X40578D01*
X36293D01*
X36479Y-92877D01*
X36654Y-92856D01*
X36829Y-92812D01*
X36992Y-92757D01*
X37299Y-92626D01*
X37441Y-92550D01*
X37572Y-92462D01*
X37692Y-92386D01*
X37790Y-92309D01*
X37889Y-92243D01*
X37965Y-92178D01*
X38020Y-92123D01*
X38074Y-92080D01*
X38096Y-92058D01*
X38107Y-92047D01*
X37954Y-92746D01*
X39342D01*
X40578Y-87259D01*
D02*
G37*
G36*
X68296Y-85183D02*
X66744D01*
X65159Y-92746D01*
X63760D01*
X65159Y-86115D01*
D01*
X65356Y-85183D01*
X63804D01*
X62219Y-92746D01*
X60820D01*
X62219Y-86115D01*
D01*
X62416Y-85183D01*
X60864D01*
X59279Y-92746D01*
X68296D01*
X66700D01*
X68296Y-85183D01*
D02*
G37*
G36*
X43736Y-87259D02*
X43561D01*
X42261D01*
X41113Y-92746D01*
X43561D01*
X42578D01*
X43736Y-87259D01*
D02*
G37*
G36*
X28347Y-85183D02*
X22740D01*
X21155Y-92746D01*
X28347D01*
D01*
X27057D01*
X27330Y-91478D01*
X22926D01*
X23374Y-89424D01*
X27319D01*
X27582Y-88156D01*
X23658D01*
X24029Y-86450D01*
X28084D01*
X28347Y-85183D01*
D01*
D02*
G37*
G36*
X11405Y-85139D02*
X7274D01*
X10509D01*
X10301Y-85347D01*
X10083Y-85543D01*
X9842Y-85729D01*
X9602Y-85915D01*
X9361Y-86079D01*
X9110Y-86243D01*
X8869Y-86396D01*
X8640Y-86527D01*
X8421Y-86658D01*
X8214Y-86768D01*
X8028Y-86855D01*
X7875Y-86932D01*
X7744Y-86997D01*
X7645Y-87052D01*
X7580Y-87074D01*
X7569Y-87085D01*
X7558D01*
X7274Y-88407D01*
X7460Y-88363D01*
X7634Y-88309D01*
X7820Y-88254D01*
X7984Y-88199D01*
X8126Y-88145D01*
X8247Y-88112D01*
X8290Y-88090D01*
X8323Y-88079D01*
X8334Y-88068D01*
X8345D01*
X8563Y-87970D01*
X8771Y-87871D01*
X8957Y-87784D01*
X9110Y-87697D01*
X9241Y-87620D01*
X9340Y-87565D01*
X9394Y-87522D01*
X9416Y-87511D01*
X8323Y-92746D01*
X9809D01*
X11405Y-85139D01*
D02*
G37*
G36*
X5525D02*
X4629D01*
X4421Y-85347D01*
X4202Y-85543D01*
X3962Y-85729D01*
X3721Y-85915D01*
X3481Y-86079D01*
X3230Y-86243D01*
X2989Y-86396D01*
X2760Y-86527D01*
X2541Y-86658D01*
X2333Y-86768D01*
X2148Y-86855D01*
X1995Y-86932D01*
X1863Y-86997D01*
X1765Y-87052D01*
X1699Y-87074D01*
X1688Y-87085D01*
X1678D01*
X1393Y-88407D01*
X1579Y-88363D01*
X1754Y-88309D01*
X1940Y-88254D01*
X2104Y-88199D01*
X2246Y-88145D01*
X2366Y-88112D01*
X2410Y-88090D01*
X2443Y-88079D01*
X2454Y-88068D01*
X2465D01*
X2683Y-87970D01*
X2891Y-87871D01*
X3077Y-87784D01*
X3230Y-87697D01*
X3361Y-87620D01*
X3459Y-87565D01*
X3514Y-87522D01*
X3536Y-87511D01*
X2443Y-92746D01*
X1393D01*
X5525D01*
D01*
X3929D01*
X5525Y-85139D01*
D02*
G37*
G36*
X-18729Y-85183D02*
X-21931D01*
X-23516Y-92746D01*
X-16521D01*
Y-87085D01*
D01*
X-16532Y-86866D01*
X-16565Y-86658D01*
X-16608Y-86483D01*
X-16663Y-86319D01*
X-16718Y-86199D01*
X-16761Y-86101D01*
X-16794Y-86046D01*
X-16805Y-86024D01*
X-16914Y-85871D01*
X-17045Y-85729D01*
X-17177Y-85620D01*
X-17297Y-85532D01*
X-17406Y-85467D01*
X-17494Y-85412D01*
X-17548Y-85390D01*
X-17559Y-85379D01*
X-17570D01*
X-17756Y-85314D01*
X-17975Y-85270D01*
X-18182Y-85226D01*
X-18390Y-85204D01*
X-18576Y-85194D01*
X-18652D01*
X-18729Y-85183D01*
D02*
G37*
G36*
X-34577D02*
D01*
Y-92746D01*
X-36162D01*
X-34577Y-85183D01*
X-36042D01*
X-37627Y-92746D01*
D01*
X-34577D01*
Y-85183D01*
D02*
G37*
G36*
X-55989Y-85183D02*
D01*
Y-92746D01*
X-56251D01*
X-55989Y-91478D01*
X-59858D01*
X-58536Y-85183D01*
X-55989D01*
X-60088D01*
X-61673Y-92746D01*
X-61421D01*
X-55989D01*
Y-85183D01*
D02*
G37*
G36*
X15919Y-85139D02*
X15832Y-85139D01*
X15657Y-85150D01*
X15493Y-85172D01*
X15340Y-85204D01*
X15187Y-85248D01*
X14903Y-85358D01*
X14662Y-85489D01*
X14553Y-85554D01*
X14455Y-85620D01*
X14367Y-85675D01*
X14302Y-85729D01*
X14247Y-85773D01*
X14203Y-85806D01*
X14182Y-85827D01*
X14171Y-85839D01*
X14039Y-85981D01*
X13908Y-86134D01*
X13777Y-86298D01*
X13668Y-86472D01*
X13460Y-86822D01*
X13285Y-87172D01*
X13209Y-87336D01*
X13143Y-87489D01*
X13078Y-87620D01*
X13034Y-87740D01*
X13001Y-87839D01*
X12968Y-87915D01*
X12957Y-87959D01*
X12946Y-87981D01*
X12815Y-88418D01*
X12728Y-88833D01*
X12662Y-89227D01*
X12630Y-89413D01*
X12608Y-89577D01*
X12597Y-89729D01*
X12586Y-89872D01*
X12575Y-89992D01*
Y-90101D01*
X12564Y-90189D01*
Y-90298D01*
X12575Y-90527D01*
X12586Y-90746D01*
X12618Y-90943D01*
X12651Y-91129D01*
X12706Y-91303D01*
X12750Y-91457D01*
X12804Y-91599D01*
X12859Y-91730D01*
X12914Y-91850D01*
X12968Y-91948D01*
X13023Y-92025D01*
X13067Y-92101D01*
X13100Y-92156D01*
X13132Y-92189D01*
X13143Y-92211D01*
X13154Y-92222D01*
X13274Y-92342D01*
X13395Y-92440D01*
X13515Y-92528D01*
X13646Y-92604D01*
X13777Y-92670D01*
X13897Y-92724D01*
X14138Y-92801D01*
X14356Y-92856D01*
X14444Y-92866D01*
X14520Y-92877D01*
X14586Y-92888D01*
X12564D01*
X17942Y-92888D01*
X14673Y-92888D01*
X14848Y-92877D01*
X15012Y-92856D01*
X15176Y-92823D01*
X15329Y-92779D01*
X15602Y-92670D01*
X15854Y-92539D01*
X15963Y-92484D01*
X16051Y-92418D01*
X16138Y-92364D01*
X16204Y-92309D01*
X16258Y-92265D01*
X16302Y-92233D01*
X16324Y-92211D01*
X16335Y-92200D01*
X16466Y-92069D01*
X16597Y-91916D01*
X16827Y-91599D01*
X17023Y-91271D01*
X17198Y-90954D01*
X17264Y-90801D01*
X17329Y-90670D01*
X17384Y-90538D01*
X17428Y-90429D01*
X17460Y-90342D01*
X17482Y-90276D01*
X17504Y-90232D01*
Y-90221D01*
X17646Y-89741D01*
X17756Y-89281D01*
X17799Y-89074D01*
X17832Y-88866D01*
X17865Y-88680D01*
X17887Y-88494D01*
X17909Y-88331D01*
X17920Y-88188D01*
X17931Y-88057D01*
Y-87959D01*
X17942Y-87871D01*
Y-87740D01*
Y-87751D01*
X17931Y-87522D01*
X17920Y-87303D01*
X17887Y-87106D01*
X17843Y-86910D01*
X17799Y-86746D01*
X17756Y-86582D01*
X17701Y-86440D01*
X17646Y-86308D01*
X17581Y-86188D01*
X17526Y-86090D01*
X17482Y-86013D01*
X17439Y-85937D01*
X17395Y-85882D01*
X17362Y-85849D01*
X17351Y-85827D01*
X17340Y-85817D01*
X17231Y-85696D01*
X17111Y-85598D01*
X16980Y-85500D01*
X16859Y-85423D01*
X16728Y-85357D01*
X16608Y-85303D01*
X16367Y-85226D01*
X16149Y-85172D01*
X16061Y-85161D01*
X15985Y-85150D01*
X15919Y-85139D01*
D02*
G37*
G36*
X-38293Y-87139D02*
X-43452Y-87139D01*
X-40370Y-87139D01*
X-40731Y-87161D01*
X-41059Y-87205D01*
X-41201Y-87238D01*
X-41332Y-87270D01*
X-41463Y-87303D01*
X-41572Y-87347D01*
X-41671Y-87391D01*
X-41758Y-87423D01*
X-41835Y-87456D01*
X-41900Y-87489D01*
X-41944Y-87511D01*
X-41977Y-87533D01*
X-41999Y-87555D01*
X-42010D01*
X-42217Y-87718D01*
X-42403Y-87904D01*
X-42545Y-88101D01*
X-42665Y-88276D01*
X-42753Y-88440D01*
X-42818Y-88571D01*
X-42840Y-88626D01*
X-42851Y-88658D01*
X-42862Y-88680D01*
Y-88691D01*
X-41419Y-88811D01*
X-41387Y-88713D01*
X-41343Y-88626D01*
X-41288Y-88549D01*
X-41234Y-88484D01*
X-41190Y-88429D01*
X-41146Y-88396D01*
X-41124Y-88374D01*
X-41113Y-88363D01*
X-41015Y-88309D01*
X-40917Y-88265D01*
X-40807Y-88243D01*
X-40709Y-88221D01*
X-40622Y-88210D01*
X-40545Y-88199D01*
X-40479D01*
X-40348Y-88210D01*
X-40228Y-88221D01*
X-40141Y-88254D01*
X-40053Y-88276D01*
X-39987Y-88309D01*
X-39944Y-88341D01*
X-39922Y-88352D01*
X-39911Y-88363D01*
X-39845Y-88429D01*
X-39802Y-88494D01*
X-39758Y-88560D01*
X-39736Y-88626D01*
X-39725Y-88680D01*
X-39714Y-88713D01*
Y-88746D01*
Y-88757D01*
Y-88833D01*
X-39725Y-88910D01*
X-39758Y-89074D01*
X-39780Y-89139D01*
X-39802Y-89194D01*
X-39813Y-89238D01*
Y-89249D01*
X-39889Y-89271D01*
X-39977Y-89292D01*
X-40075Y-89314D01*
X-40184Y-89336D01*
X-40414Y-89380D01*
X-40654Y-89402D01*
X-40873Y-89434D01*
X-40971Y-89445D01*
X-41048Y-89456D01*
X-41124D01*
X-41179Y-89467D01*
X-41223D01*
X-41452Y-89489D01*
X-41660Y-89522D01*
X-41846Y-89555D01*
X-42020Y-89598D01*
X-42184Y-89642D01*
X-42327Y-89686D01*
X-42458Y-89741D01*
X-42567Y-89784D01*
X-42665Y-89839D01*
X-42753Y-89883D01*
X-42818Y-89926D01*
X-42873Y-89959D01*
X-42917Y-89992D01*
X-42950Y-90014D01*
X-42961Y-90025D01*
X-42971Y-90036D01*
X-43059Y-90123D01*
X-43124Y-90221D01*
X-43245Y-90429D01*
X-43267Y-90481D01*
X-43323Y-90615D01*
X-43332Y-90637D01*
X-43387Y-90844D01*
X-43431Y-91019D01*
X-43441Y-91096D01*
Y-91161D01*
X-43452Y-91216D01*
Y-91260D01*
Y-91282D01*
Y-91293D01*
X-43431Y-91544D01*
X-43393Y-91741D01*
X-43387Y-91773D01*
X-43310Y-91970D01*
X-43234Y-92134D01*
X-43157Y-92276D01*
X-43081Y-92375D01*
X-43037Y-92429D01*
X-43015Y-92451D01*
X-42840Y-92593D01*
X-42654Y-92703D01*
X-42458Y-92779D01*
X-42283Y-92834D01*
X-42130Y-92866D01*
X-41999Y-92877D01*
X-41955Y-92888D01*
X-43452D01*
X-38293Y-92888D01*
Y-88494D01*
X-38315Y-88385D01*
X-38370Y-88188D01*
X-38457Y-88013D01*
X-38545Y-87861D01*
X-38643Y-87729D01*
X-38731Y-87642D01*
X-38785Y-87587D01*
X-38796Y-87565D01*
X-38807D01*
X-38906Y-87489D01*
X-39015Y-87423D01*
X-39266Y-87314D01*
X-39518Y-87238D01*
X-39780Y-87194D01*
X-40009Y-87161D01*
X-40108Y-87150D01*
X-40195D01*
X-40272Y-87139D01*
X-38293D01*
D02*
G37*
G36*
X-52032Y-87139D02*
X-52131D01*
X-52491Y-87161D01*
X-52819Y-87205D01*
X-52961Y-87238D01*
X-53093Y-87270D01*
X-53224Y-87303D01*
X-53333Y-87347D01*
X-53431Y-87391D01*
X-53519Y-87423D01*
X-53595Y-87456D01*
X-53661Y-87489D01*
X-53705Y-87511D01*
X-53737Y-87533D01*
X-53759Y-87555D01*
X-53770D01*
X-53978Y-87718D01*
X-54164Y-87904D01*
X-54306Y-88101D01*
X-54426Y-88276D01*
X-54514Y-88440D01*
X-54579Y-88571D01*
X-54601Y-88626D01*
X-54612Y-88658D01*
X-54623Y-88680D01*
Y-88691D01*
X-53180Y-88811D01*
X-53147Y-88713D01*
X-53104Y-88626D01*
X-53049Y-88549D01*
X-52994Y-88484D01*
X-52951Y-88429D01*
X-52907Y-88396D01*
X-52885Y-88374D01*
X-52874Y-88363D01*
X-52776Y-88309D01*
X-52677Y-88265D01*
X-52568Y-88243D01*
X-52470Y-88221D01*
X-52382Y-88210D01*
X-52306Y-88199D01*
X-52240D01*
X-52109Y-88210D01*
X-51989Y-88221D01*
X-51901Y-88254D01*
X-51814Y-88276D01*
X-51748Y-88309D01*
X-51705Y-88341D01*
X-51683Y-88352D01*
X-51672Y-88363D01*
X-51606Y-88429D01*
X-51562Y-88494D01*
X-51519Y-88560D01*
X-51497Y-88626D01*
X-51486Y-88680D01*
X-51475Y-88713D01*
Y-88746D01*
Y-88757D01*
Y-88833D01*
X-51486Y-88910D01*
X-51519Y-89074D01*
X-51541Y-89139D01*
X-51562Y-89194D01*
X-51573Y-89238D01*
Y-89249D01*
X-51650Y-89271D01*
X-51737Y-89292D01*
X-51836Y-89314D01*
X-51945Y-89336D01*
X-52175Y-89380D01*
X-52415Y-89402D01*
X-52634Y-89434D01*
X-52732Y-89445D01*
X-52808Y-89456D01*
X-52885D01*
X-52940Y-89467D01*
X-52983D01*
X-53213Y-89489D01*
X-53421Y-89522D01*
X-53606Y-89555D01*
X-53781Y-89598D01*
X-53945Y-89642D01*
X-54087Y-89686D01*
X-54218Y-89741D01*
X-54328Y-89784D01*
X-54426Y-89839D01*
X-54514Y-89883D01*
X-54579Y-89926D01*
X-54634Y-89959D01*
X-54677Y-89992D01*
X-54710Y-90014D01*
X-54721Y-90025D01*
X-54732Y-90036D01*
X-54820Y-90123D01*
X-54885Y-90221D01*
X-55005Y-90429D01*
X-55093Y-90637D01*
X-55147Y-90844D01*
X-55191Y-91019D01*
X-55202Y-91096D01*
Y-91161D01*
X-55213Y-91216D01*
Y-91293D01*
X-55191Y-91544D01*
X-55147Y-91773D01*
X-55071Y-91970D01*
X-54994Y-92134D01*
X-54918Y-92276D01*
X-54841Y-92375D01*
X-54798Y-92429D01*
X-54776Y-92451D01*
X-54601Y-92593D01*
X-54415Y-92703D01*
X-54218Y-92779D01*
X-54044Y-92834D01*
X-53891Y-92866D01*
X-53759Y-92877D01*
X-53716Y-92888D01*
X-55213D01*
X-50054D01*
Y-88494D01*
D01*
X-50076Y-88385D01*
X-50131Y-88188D01*
X-50218Y-88013D01*
X-50305Y-87861D01*
X-50404Y-87729D01*
X-50491Y-87642D01*
X-50546Y-87587D01*
X-50557Y-87565D01*
X-50568D01*
X-50666Y-87489D01*
X-50775Y-87423D01*
X-51027Y-87314D01*
X-51278Y-87238D01*
X-51541Y-87194D01*
X-51770Y-87161D01*
X-51868Y-87150D01*
X-51956D01*
X-52032Y-87139D01*
D02*
G37*
G36*
X31167Y-87139D02*
X31112D01*
X30839Y-87161D01*
X30588Y-87216D01*
X30347Y-87281D01*
X30150Y-87369D01*
X29975Y-87456D01*
X29910Y-87489D01*
X29844Y-87522D01*
X29801Y-87555D01*
X29768Y-87576D01*
X29746Y-87587D01*
X29735Y-87598D01*
X29516Y-87784D01*
X29320Y-87992D01*
X29156Y-88199D01*
X29013Y-88407D01*
X28893Y-88593D01*
X28850Y-88680D01*
X28817Y-88746D01*
X28784Y-88811D01*
X28773Y-88855D01*
X28751Y-88877D01*
Y-88888D01*
X28631Y-89205D01*
X28554Y-89511D01*
X28489Y-89795D01*
X28445Y-90057D01*
X28434Y-90178D01*
X28423Y-90287D01*
X28412Y-90374D01*
Y-90451D01*
X28401Y-90517D01*
Y-94834D01*
Y-90604D01*
X28412Y-90812D01*
X28423Y-90997D01*
X28445Y-91183D01*
X28489Y-91347D01*
X28522Y-91500D01*
X28565Y-91642D01*
X28620Y-91763D01*
X28664Y-91883D01*
X28718Y-91981D01*
X28762Y-92069D01*
X28806Y-92145D01*
X28850Y-92200D01*
X28882Y-92243D01*
X28904Y-92276D01*
X28915Y-92298D01*
X28926Y-92309D01*
X29024Y-92407D01*
X29134Y-92495D01*
X29254Y-92582D01*
X29363Y-92648D01*
X29604Y-92746D01*
X29822Y-92812D01*
X30019Y-92856D01*
X30106Y-92866D01*
X30183Y-92877D01*
X30238Y-92888D01*
X30325D01*
X30489Y-92877D01*
X30631Y-92866D01*
X30762Y-92845D01*
X30883Y-92812D01*
X30981Y-92790D01*
X31047Y-92768D01*
X31101Y-92757D01*
X31112Y-92746D01*
X31243Y-92692D01*
X31374Y-92615D01*
X31495Y-92550D01*
X31615Y-92473D01*
X31702Y-92407D01*
X31779Y-92353D01*
X31823Y-92309D01*
X31844Y-92298D01*
X31320Y-94834D01*
X28401D01*
X34369D01*
D01*
X32795D01*
X34369Y-87259D01*
X33014D01*
X32828Y-88134D01*
X32719Y-87959D01*
X32599Y-87806D01*
X32467Y-87675D01*
X32336Y-87555D01*
X32194Y-87467D01*
X32052Y-87380D01*
X31910Y-87314D01*
X31768Y-87259D01*
X31637Y-87227D01*
X31517Y-87194D01*
X31407Y-87172D01*
X31309Y-87150D01*
X31221D01*
X31167Y-87139D01*
D02*
G37*
%LPD*%
G36*
X47693Y-88210D02*
X47846Y-88254D01*
X47966Y-88309D01*
X48076Y-88363D01*
X48163Y-88429D01*
X48228Y-88484D01*
X48272Y-88527D01*
X48283Y-88538D01*
X48382Y-88669D01*
X48458Y-88822D01*
X48513Y-88975D01*
X48556Y-89128D01*
X48578Y-89271D01*
X48589Y-89380D01*
Y-89424D01*
Y-89456D01*
Y-89467D01*
Y-89478D01*
X48578Y-89675D01*
X48556Y-89883D01*
X48513Y-90068D01*
X48480Y-90243D01*
X48436Y-90396D01*
X48392Y-90517D01*
X48382Y-90560D01*
X48371Y-90593D01*
X48360Y-90615D01*
Y-90626D01*
X48272Y-90844D01*
X48174Y-91030D01*
X48076Y-91183D01*
X47988Y-91303D01*
X47901Y-91391D01*
X47835Y-91457D01*
X47791Y-91500D01*
X47780Y-91511D01*
X47649Y-91599D01*
X47529Y-91664D01*
X47409Y-91708D01*
X47299Y-91741D01*
X47201Y-91763D01*
X47135Y-91773D01*
X47070D01*
X46917Y-91763D01*
X46764Y-91719D01*
X46644Y-91664D01*
X46534Y-91599D01*
X46436Y-91533D01*
X46370Y-91478D01*
X46327Y-91435D01*
X46316Y-91424D01*
X46206Y-91271D01*
X46130Y-91118D01*
X46075Y-90943D01*
X46042Y-90779D01*
X46021Y-90637D01*
X45999Y-90517D01*
Y-90473D01*
Y-90440D01*
Y-90418D01*
Y-90407D01*
X46010Y-90232D01*
X46031Y-90068D01*
X46064Y-89894D01*
X46097Y-89729D01*
X46130Y-89598D01*
X46163Y-89489D01*
X46174Y-89445D01*
X46185Y-89413D01*
X46196Y-89402D01*
Y-89391D01*
X46272Y-89183D01*
X46359Y-89008D01*
X46458Y-88855D01*
X46545Y-88735D01*
X46622Y-88636D01*
X46687Y-88560D01*
X46731Y-88516D01*
X46742Y-88505D01*
X46884Y-88407D01*
X47015Y-88331D01*
X47146Y-88276D01*
X47267Y-88232D01*
X47376Y-88210D01*
X47452Y-88199D01*
X47529D01*
X47693Y-88210D01*
D02*
G37*
G36*
X-11952Y-92746D02*
X-14903D01*
X-14193Y-89369D01*
X-11253D01*
X-11952Y-92746D01*
D02*
G37*
G36*
X53759Y-88210D02*
X53901Y-88243D01*
X54032Y-88298D01*
X54131Y-88352D01*
X54218Y-88407D01*
X54273Y-88462D01*
X54317Y-88494D01*
X54327Y-88505D01*
X54415Y-88636D01*
X54480Y-88779D01*
X54535Y-88932D01*
X54568Y-89074D01*
X54590Y-89216D01*
X54601Y-89325D01*
Y-89369D01*
Y-89402D01*
Y-89413D01*
Y-89424D01*
Y-89467D01*
Y-89511D01*
Y-89555D01*
Y-89566D01*
X52273D01*
X52327Y-89325D01*
X52404Y-89128D01*
X52491Y-88954D01*
X52568Y-88811D01*
X52644Y-88691D01*
X52710Y-88615D01*
X52754Y-88560D01*
X52764Y-88549D01*
X52907Y-88429D01*
X53049Y-88341D01*
X53191Y-88287D01*
X53322Y-88243D01*
X53431Y-88221D01*
X53519Y-88199D01*
X53595D01*
X53759Y-88210D01*
D02*
G37*
G36*
X50710Y-90549D02*
X50731Y-90746D01*
X50764Y-90943D01*
X50808Y-91118D01*
X50863Y-91282D01*
X50917Y-91435D01*
X50983Y-91566D01*
X51048Y-91697D01*
X51103Y-91806D01*
X51169Y-91905D01*
X51223Y-91992D01*
X51278Y-92058D01*
X51322Y-92112D01*
X51354Y-92156D01*
X51376Y-92178D01*
X51387Y-92189D01*
X51518Y-92309D01*
X51661Y-92418D01*
X51814Y-92517D01*
X51956Y-92593D01*
X52109Y-92659D01*
X52262Y-92713D01*
X52546Y-92801D01*
X52677Y-92834D01*
X52797Y-92856D01*
X52907Y-92866D01*
X53005Y-92877D01*
X53081Y-92888D01*
X50699D01*
Y-90342D01*
X50710Y-90549D01*
D02*
G37*
G36*
X-19155Y-86440D02*
X-19057D01*
X-18882Y-86450D01*
X-18762Y-86472D01*
X-18663Y-86483D01*
X-18598Y-86505D01*
X-18565Y-86516D01*
X-18554D01*
X-18412Y-86593D01*
X-18302Y-86669D01*
X-18237Y-86735D01*
X-18215Y-86757D01*
Y-86768D01*
X-18171Y-86833D01*
X-18138Y-86910D01*
X-18095Y-87052D01*
Y-87117D01*
X-18084Y-87172D01*
Y-87205D01*
Y-87216D01*
X-18095Y-87369D01*
X-18117Y-87500D01*
X-18160Y-87631D01*
X-18204Y-87740D01*
X-18248Y-87828D01*
X-18292Y-87904D01*
X-18313Y-87948D01*
X-18324Y-87959D01*
X-18423Y-88068D01*
X-18532Y-88167D01*
X-18641Y-88254D01*
X-18740Y-88320D01*
X-18838Y-88374D01*
X-18914Y-88407D01*
X-18958Y-88429D01*
X-18980Y-88440D01*
X-19068Y-88462D01*
X-19166Y-88494D01*
X-19286Y-88505D01*
X-19406Y-88527D01*
X-19680Y-88560D01*
X-19953Y-88571D01*
X-20204Y-88582D01*
X-20324Y-88593D01*
X-21101D01*
X-20641Y-86429D01*
X-19264D01*
X-19155Y-86440D01*
D02*
G37*
G36*
X-16521Y-92746D02*
X-21975D01*
X-21363Y-89861D01*
X-19865D01*
X-19723Y-89850D01*
X-19494D01*
X-19395Y-89839D01*
X-19231D01*
X-19166Y-89828D01*
X-19068D01*
X-19013Y-89817D01*
X-18991D01*
X-18762Y-89784D01*
X-18565Y-89741D01*
X-18390Y-89697D01*
X-18248Y-89653D01*
X-18138Y-89620D01*
X-18051Y-89587D01*
X-18007Y-89577D01*
X-17986Y-89566D01*
X-17843Y-89489D01*
X-17723Y-89413D01*
X-17603Y-89336D01*
X-17504Y-89249D01*
X-17417Y-89183D01*
X-17352Y-89128D01*
X-17308Y-89085D01*
X-17297Y-89074D01*
X-17177Y-88943D01*
X-17067Y-88801D01*
X-16980Y-88658D01*
X-16903Y-88516D01*
X-16838Y-88396D01*
X-16794Y-88298D01*
X-16761Y-88232D01*
X-16750Y-88221D01*
Y-88210D01*
X-16674Y-88003D01*
X-16619Y-87806D01*
X-16576Y-87609D01*
X-16554Y-87445D01*
X-16532Y-87292D01*
X-16521Y-87183D01*
Y-92746D01*
D02*
G37*
G36*
X15887Y-86330D02*
X15996Y-86363D01*
X16083Y-86407D01*
X16149Y-86450D01*
X16215Y-86494D01*
X16258Y-86538D01*
X16280Y-86571D01*
X16291Y-86582D01*
X16357Y-86691D01*
X16411Y-86811D01*
X16444Y-86953D01*
X16477Y-87085D01*
X16488Y-87205D01*
X16499Y-87303D01*
Y-87380D01*
Y-87391D01*
Y-87401D01*
Y-87533D01*
X16488Y-87686D01*
X16455Y-87992D01*
X16411Y-88309D01*
X16367Y-88615D01*
X16335Y-88757D01*
X16313Y-88888D01*
X16291Y-89008D01*
X16269Y-89107D01*
X16247Y-89183D01*
X16236Y-89249D01*
X16225Y-89292D01*
Y-89303D01*
X16160Y-89577D01*
X16094Y-89828D01*
X16029Y-90047D01*
X15963Y-90254D01*
X15898Y-90440D01*
X15832Y-90604D01*
X15777Y-90757D01*
X15712Y-90877D01*
X15657Y-90987D01*
X15613Y-91085D01*
X15570Y-91161D01*
X15537Y-91216D01*
X15504Y-91271D01*
X15482Y-91303D01*
X15460Y-91314D01*
Y-91325D01*
X15329Y-91457D01*
X15209Y-91544D01*
X15078Y-91610D01*
X14968Y-91664D01*
X14870Y-91686D01*
X14783Y-91697D01*
X14739Y-91708D01*
X14717D01*
X14608Y-91697D01*
X14499Y-91675D01*
X14411Y-91631D01*
X14345Y-91588D01*
X14280Y-91544D01*
X14236Y-91500D01*
X14214Y-91478D01*
X14203Y-91467D01*
X14138Y-91358D01*
X14094Y-91227D01*
X14050Y-91085D01*
X14029Y-90943D01*
X14018Y-90812D01*
X14007Y-90702D01*
Y-90659D01*
Y-90626D01*
Y-90615D01*
Y-90604D01*
X14018Y-90298D01*
X14050Y-89970D01*
X14094Y-89653D01*
X14149Y-89336D01*
X14171Y-89194D01*
X14193Y-89063D01*
X14214Y-88943D01*
X14236Y-88844D01*
X14258Y-88757D01*
X14269Y-88702D01*
X14280Y-88658D01*
Y-88648D01*
X14345Y-88396D01*
X14411Y-88167D01*
X14477Y-87948D01*
X14542Y-87762D01*
X14608Y-87576D01*
X14673Y-87423D01*
X14739Y-87281D01*
X14805Y-87150D01*
X14859Y-87041D01*
X14903Y-86953D01*
X14958Y-86877D01*
X14990Y-86811D01*
X15023Y-86768D01*
X15045Y-86724D01*
X15067Y-86713D01*
Y-86702D01*
X15187Y-86571D01*
X15307Y-86483D01*
X15428Y-86418D01*
X15537Y-86363D01*
X15635Y-86341D01*
X15712Y-86330D01*
X15755Y-86319D01*
X15777D01*
X15887Y-86330D01*
D02*
G37*
G36*
X-40053Y-90396D02*
X-40097Y-90582D01*
X-40141Y-90746D01*
X-40184Y-90888D01*
X-40228Y-90997D01*
X-40261Y-91085D01*
X-40294Y-91140D01*
X-40304Y-91183D01*
X-40315Y-91194D01*
X-40370Y-91293D01*
X-40447Y-91369D01*
X-40523Y-91446D01*
X-40589Y-91500D01*
X-40654Y-91555D01*
X-40709Y-91588D01*
X-40753Y-91610D01*
X-40764Y-91620D01*
X-40873Y-91675D01*
X-40982Y-91708D01*
X-41091Y-91741D01*
X-41190Y-91752D01*
X-41266Y-91763D01*
X-41332Y-91773D01*
X-41387D01*
X-41496Y-91763D01*
X-41594Y-91741D01*
X-41682Y-91719D01*
X-41747Y-91686D01*
X-41802Y-91653D01*
X-41846Y-91620D01*
X-41868Y-91610D01*
X-41878Y-91599D01*
X-41944Y-91533D01*
X-41988Y-91457D01*
X-42020Y-91380D01*
X-42042Y-91314D01*
X-42053Y-91249D01*
X-42064Y-91205D01*
Y-91172D01*
Y-91161D01*
X-42053Y-91052D01*
X-42031Y-90954D01*
X-41988Y-90866D01*
X-41944Y-90790D01*
X-41900Y-90735D01*
X-41857Y-90691D01*
X-41835Y-90670D01*
X-41824Y-90659D01*
X-41747Y-90615D01*
X-41660Y-90571D01*
X-41561Y-90527D01*
X-41452Y-90484D01*
X-41212Y-90418D01*
X-40971Y-90364D01*
X-40742Y-90320D01*
X-40643Y-90298D01*
X-40545Y-90287D01*
X-40479Y-90276D01*
X-40414D01*
X-40381Y-90265D01*
X-40370D01*
X-40217Y-90243D01*
X-40108Y-90210D01*
X-40064Y-90200D01*
X-40031D01*
X-40020Y-90189D01*
X-40009D01*
X-40053Y-90396D01*
D02*
G37*
G36*
X-38293Y-92888D02*
X-41889Y-92888D01*
X-41725Y-92877D01*
X-41572Y-92856D01*
X-41430Y-92823D01*
X-41299Y-92790D01*
X-41190Y-92757D01*
X-41113Y-92724D01*
X-41059Y-92703D01*
X-41037Y-92692D01*
X-40884Y-92615D01*
X-40742Y-92517D01*
X-40611Y-92429D01*
X-40501Y-92342D01*
X-40414Y-92254D01*
X-40337Y-92189D01*
X-40294Y-92145D01*
X-40283Y-92134D01*
X-40261Y-92364D01*
X-40239Y-92462D01*
X-40228Y-92560D01*
X-40206Y-92637D01*
X-40184Y-92692D01*
X-40173Y-92735D01*
Y-92746D01*
X-38741D01*
X-38785Y-92593D01*
X-38807Y-92440D01*
X-38829Y-92309D01*
X-38851Y-92200D01*
Y-92101D01*
X-38862Y-92036D01*
Y-91981D01*
Y-91970D01*
Y-91894D01*
X-38851Y-91795D01*
X-38829Y-91588D01*
X-38796Y-91369D01*
X-38752Y-91140D01*
X-38720Y-90932D01*
X-38698Y-90844D01*
X-38687Y-90757D01*
X-38676Y-90691D01*
X-38665Y-90648D01*
X-38654Y-90615D01*
Y-90604D01*
X-38610Y-90396D01*
X-38567Y-90200D01*
X-38523Y-90025D01*
X-38490Y-89872D01*
X-38468Y-89741D01*
X-38446Y-89620D01*
X-38425Y-89511D01*
X-38403Y-89424D01*
X-38392Y-89347D01*
X-38370Y-89292D01*
Y-89238D01*
X-38359Y-89205D01*
X-38348Y-89150D01*
Y-89139D01*
X-38315Y-88932D01*
X-38304Y-88844D01*
Y-88768D01*
X-38293Y-88702D01*
Y-92888D01*
D02*
G37*
G36*
X-51814Y-90396D02*
X-51858Y-90582D01*
X-51901Y-90746D01*
X-51945Y-90888D01*
X-51989Y-90997D01*
X-52021Y-91085D01*
X-52054Y-91140D01*
X-52065Y-91183D01*
X-52076Y-91194D01*
X-52131Y-91293D01*
X-52207Y-91369D01*
X-52284Y-91446D01*
X-52349Y-91500D01*
X-52415Y-91555D01*
X-52470Y-91588D01*
X-52513Y-91610D01*
X-52524Y-91620D01*
X-52634Y-91675D01*
X-52743Y-91708D01*
X-52852Y-91741D01*
X-52951Y-91752D01*
X-53027Y-91763D01*
X-53093Y-91773D01*
X-53147D01*
X-53257Y-91763D01*
X-53355Y-91741D01*
X-53442Y-91719D01*
X-53508Y-91686D01*
X-53563Y-91653D01*
X-53606Y-91620D01*
X-53628Y-91610D01*
X-53639Y-91599D01*
X-53705Y-91533D01*
X-53748Y-91457D01*
X-53781Y-91380D01*
X-53803Y-91314D01*
X-53814Y-91249D01*
X-53825Y-91205D01*
Y-91172D01*
Y-91161D01*
X-53814Y-91052D01*
X-53792Y-90954D01*
X-53748Y-90866D01*
X-53705Y-90790D01*
X-53661Y-90735D01*
X-53617Y-90691D01*
X-53595Y-90670D01*
X-53584Y-90659D01*
X-53508Y-90615D01*
X-53421Y-90571D01*
X-53322Y-90527D01*
X-53213Y-90484D01*
X-52972Y-90418D01*
X-52732Y-90364D01*
X-52502Y-90320D01*
X-52404Y-90298D01*
X-52306Y-90287D01*
X-52240Y-90276D01*
X-52175D01*
X-52142Y-90265D01*
X-52131D01*
X-51978Y-90243D01*
X-51868Y-90210D01*
X-51825Y-90200D01*
X-51792D01*
X-51781Y-90189D01*
X-51770D01*
X-51814Y-90396D01*
D02*
G37*
G36*
X-50054Y-92888D02*
X-53650D01*
X-53486Y-92877D01*
X-53333Y-92856D01*
X-53191Y-92823D01*
X-53060Y-92790D01*
X-52951Y-92757D01*
X-52874Y-92724D01*
X-52819Y-92703D01*
X-52798Y-92692D01*
X-52644Y-92615D01*
X-52502Y-92517D01*
X-52371Y-92429D01*
X-52262Y-92342D01*
X-52175Y-92254D01*
X-52098Y-92189D01*
X-52054Y-92145D01*
X-52043Y-92134D01*
X-52021Y-92364D01*
X-52000Y-92462D01*
X-51989Y-92560D01*
X-51967Y-92637D01*
X-51945Y-92692D01*
X-51934Y-92735D01*
Y-92746D01*
X-50502D01*
X-50546Y-92593D01*
X-50568Y-92440D01*
X-50590Y-92309D01*
X-50612Y-92200D01*
Y-92101D01*
X-50622Y-92036D01*
Y-91981D01*
Y-91970D01*
Y-91894D01*
X-50612Y-91795D01*
X-50590Y-91588D01*
X-50557Y-91369D01*
X-50513Y-91140D01*
X-50480Y-90932D01*
X-50459Y-90844D01*
X-50448Y-90757D01*
X-50437Y-90691D01*
X-50426Y-90648D01*
X-50415Y-90615D01*
Y-90604D01*
X-50371Y-90396D01*
X-50327Y-90200D01*
X-50284Y-90025D01*
X-50251Y-89872D01*
X-50229Y-89741D01*
X-50207Y-89620D01*
X-50185Y-89511D01*
X-50163Y-89424D01*
X-50152Y-89347D01*
X-50131Y-89292D01*
Y-89238D01*
X-50120Y-89205D01*
X-50109Y-89150D01*
Y-89139D01*
X-50076Y-88932D01*
X-50065Y-88844D01*
Y-88768D01*
X-50054Y-88702D01*
Y-92888D01*
D02*
G37*
G36*
X31473Y-88243D02*
X31615Y-88287D01*
X31735Y-88341D01*
X31844Y-88407D01*
X31932Y-88473D01*
X31997Y-88527D01*
X32041Y-88571D01*
X32052Y-88582D01*
X32161Y-88724D01*
X32238Y-88877D01*
X32293Y-89041D01*
X32325Y-89194D01*
X32358Y-89336D01*
X32369Y-89445D01*
Y-89489D01*
Y-89511D01*
Y-89533D01*
Y-89544D01*
X32358Y-89751D01*
X32336Y-89948D01*
X32304Y-90145D01*
X32260Y-90320D01*
X32216Y-90462D01*
X32183Y-90582D01*
X32172Y-90626D01*
X32161Y-90659D01*
X32151Y-90670D01*
Y-90680D01*
X32063Y-90888D01*
X31965Y-91063D01*
X31866Y-91205D01*
X31779Y-91325D01*
X31702Y-91413D01*
X31637Y-91478D01*
X31582Y-91511D01*
X31571Y-91522D01*
X31440Y-91610D01*
X31309Y-91664D01*
X31189Y-91708D01*
X31079Y-91741D01*
X30981Y-91763D01*
X30915Y-91773D01*
X30850D01*
X30697Y-91763D01*
X30555Y-91719D01*
X30434Y-91675D01*
X30325Y-91610D01*
X30249Y-91555D01*
X30183Y-91500D01*
X30139Y-91467D01*
X30128Y-91457D01*
X30030Y-91325D01*
X29954Y-91183D01*
X29910Y-91030D01*
X29866Y-90888D01*
X29844Y-90768D01*
X29833Y-90659D01*
Y-90593D01*
Y-90582D01*
Y-90571D01*
X29844Y-90352D01*
X29866Y-90145D01*
X29899Y-89948D01*
X29943Y-89762D01*
X29986Y-89609D01*
X30019Y-89500D01*
X30030Y-89445D01*
X30041Y-89413D01*
X30052Y-89402D01*
Y-89391D01*
X30139Y-89172D01*
X30238Y-88997D01*
X30336Y-88844D01*
X30424Y-88713D01*
X30511Y-88626D01*
X30577Y-88560D01*
X30620Y-88516D01*
X30631Y-88505D01*
X30762Y-88418D01*
X30883Y-88352D01*
X31003Y-88298D01*
X31112Y-88265D01*
X31199Y-88243D01*
X31265Y-88232D01*
X31320D01*
X31473Y-88243D01*
D02*
G37*
%LPC*%
G36*
X20961Y-143774D02*
X20414D01*
Y-146071D01*
X18541D01*
X17885Y-148608D01*
X18431D01*
X18963Y-146610D01*
X20407D01*
X19867Y-148608D01*
X20421D01*
X20954Y-146610D01*
X22390D01*
X21858Y-148608D01*
X22404D01*
X23060Y-146071D01*
X20961D01*
Y-143774D01*
D02*
G37*
G36*
X-146067Y23352D02*
X-146613D01*
Y21055D01*
X-148487D01*
X-149143Y18518D01*
X-148596D01*
X-148064Y20516D01*
X-146621D01*
X-147160Y18518D01*
X-146606D01*
X-146074Y20516D01*
X-144638D01*
X-145170Y18518D01*
X-144623D01*
X-143967Y21055D01*
X-146067D01*
Y23352D01*
D02*
G37*
G36*
X126750Y-9121D02*
X126441D01*
X126258Y-9322D01*
X126085Y-9504D01*
X125940Y-9650D01*
X125812Y-9777D01*
X125712Y-9868D01*
X125630Y-9941D01*
X125584Y-9978D01*
X125566Y-9996D01*
X125429Y-10096D01*
X125284Y-10197D01*
X125156Y-10278D01*
X125038Y-10342D01*
X124937Y-10406D01*
X124855Y-10442D01*
X124810Y-10470D01*
X124792Y-10479D01*
Y-9121D01*
D01*
Y-11991D01*
X131825D01*
Y-10889D01*
Y-11991D01*
X126750D01*
X126668Y-11827D01*
X126595Y-11690D01*
X126532Y-11572D01*
X126486Y-11481D01*
X126441Y-11417D01*
X126413Y-11372D01*
X126404Y-11344D01*
X126395Y-11335D01*
X126340Y-11253D01*
X126277Y-11162D01*
X126140Y-10980D01*
X126067Y-10889D01*
X126012Y-10825D01*
X125976Y-10780D01*
X125967Y-10761D01*
X131825D01*
Y-10889D01*
Y-10761D01*
Y-10342D01*
Y-10351D01*
X125967D01*
X126122Y-10178D01*
X126258Y-9978D01*
X126395Y-9777D01*
X126513Y-9577D01*
X126614Y-9395D01*
X126650Y-9322D01*
X126687Y-9249D01*
X126714Y-9194D01*
X126732Y-9158D01*
X126741Y-9131D01*
X126750Y-9121D01*
D02*
G37*
G36*
Y-15590D02*
X126441D01*
X126258Y-15790D01*
X126085Y-15972D01*
X125940Y-16118D01*
X125812Y-16246D01*
X125712Y-16337D01*
X125630Y-16409D01*
X125584Y-16446D01*
X125566Y-16464D01*
X125429Y-16564D01*
X125284Y-16665D01*
X125156Y-16747D01*
X125038Y-16810D01*
X124937Y-16874D01*
X124855Y-16911D01*
X124810Y-16938D01*
X124792Y-16947D01*
Y-15590D01*
D01*
Y-18459D01*
X131825D01*
Y-17357D01*
Y-18459D01*
X126750D01*
X126668Y-18295D01*
X126595Y-18159D01*
X126532Y-18040D01*
X126486Y-17949D01*
X126441Y-17885D01*
X126413Y-17840D01*
X126404Y-17812D01*
X126395Y-17803D01*
X126340Y-17721D01*
X126277Y-17630D01*
X126140Y-17448D01*
X126067Y-17357D01*
X126012Y-17293D01*
X125976Y-17248D01*
X125967Y-17229D01*
X131825D01*
Y-17357D01*
Y-17229D01*
Y-16810D01*
Y-16819D01*
X125967D01*
X126122Y-16646D01*
X126258Y-16446D01*
X126395Y-16246D01*
X126513Y-16045D01*
X126614Y-15863D01*
X126650Y-15790D01*
X126687Y-15717D01*
X126714Y-15663D01*
X126732Y-15626D01*
X126741Y-15599D01*
X126750Y-15590D01*
D02*
G37*
G36*
X130121Y-19325D02*
D01*
Y-22550D01*
X130112Y-22331D01*
X130094Y-22140D01*
X130075Y-21967D01*
X130066Y-21821D01*
X130057Y-21766D01*
X130048Y-21711D01*
Y-21675D01*
X130039Y-21648D01*
Y-21620D01*
X130002Y-21420D01*
X129948Y-21229D01*
X129884Y-21056D01*
X129820Y-20910D01*
X129756Y-20782D01*
X129702Y-20691D01*
X129684Y-20655D01*
X129665Y-20627D01*
X129656Y-20618D01*
Y-20609D01*
X129511Y-20409D01*
X129347Y-20227D01*
X129183Y-20072D01*
X129019Y-19944D01*
X128873Y-19835D01*
X128818Y-19789D01*
X128764Y-19753D01*
X128718Y-19726D01*
X128682Y-19707D01*
X128663Y-19689D01*
X128654D01*
X128399Y-19571D01*
X128144Y-19480D01*
X127898Y-19416D01*
X127661Y-19370D01*
X127561Y-19352D01*
X127470Y-19343D01*
X127379Y-19334D01*
X127306D01*
X127251Y-19325D01*
X124190D01*
X127169D01*
X126860Y-19343D01*
X126568Y-19379D01*
X126313Y-19434D01*
X126204Y-19461D01*
X126094Y-19498D01*
X126003Y-19534D01*
X125921Y-19562D01*
X125848Y-19589D01*
X125785Y-19616D01*
X125739Y-19635D01*
X125703Y-19653D01*
X125684Y-19671D01*
X125675D01*
X125447Y-19807D01*
X125247Y-19953D01*
X125074Y-20108D01*
X124928Y-20254D01*
X124819Y-20391D01*
X124728Y-20491D01*
X124700Y-20536D01*
X124682Y-20564D01*
X124664Y-20582D01*
Y-20591D01*
X124555Y-20773D01*
X124473Y-20955D01*
X124400Y-21128D01*
X124354Y-21283D01*
X124318Y-21420D01*
X124300Y-21475D01*
X124291Y-21529D01*
X124281Y-21566D01*
X124272Y-21593D01*
Y-21620D01*
X124245Y-21830D01*
X124227Y-22030D01*
X124208Y-22231D01*
X124199Y-22404D01*
X124190Y-22559D01*
Y-24627D01*
X130121D01*
Y-19325D01*
D02*
G37*
G36*
Y-25829D02*
X124190D01*
Y-30913D01*
X130121D01*
Y-29555D01*
X125994D01*
X130121Y-27259D01*
Y-25829D01*
D02*
G37*
G36*
X129793Y-32033D02*
X126869D01*
Y-34629D01*
X127989D01*
Y-33472D01*
X129155D01*
X129164Y-33536D01*
Y-33855D01*
X129155Y-34019D01*
X129146Y-34174D01*
X129119Y-34320D01*
X129092Y-34456D01*
X129046Y-34584D01*
X129009Y-34702D01*
X128964Y-34812D01*
X128918Y-34903D01*
X128873Y-34985D01*
X128827Y-35067D01*
X128782Y-35131D01*
X128745Y-35185D01*
X128718Y-35222D01*
X128691Y-35249D01*
X128682Y-35267D01*
X128673Y-35276D01*
X128572Y-35367D01*
X128463Y-35449D01*
X128345Y-35513D01*
X128226Y-35577D01*
X128098Y-35623D01*
X127971Y-35668D01*
X127725Y-35732D01*
X127607Y-35750D01*
X127497Y-35768D01*
X127397Y-35777D01*
X127315Y-35787D01*
X127242Y-35796D01*
X127188D01*
X127151D01*
X127142D01*
X126969Y-35787D01*
X126805Y-35777D01*
X126659Y-35750D01*
X126541Y-35723D01*
X126431Y-35704D01*
X126358Y-35677D01*
X126313Y-35668D01*
X126295Y-35659D01*
X126158Y-35604D01*
X126040Y-35541D01*
X125940Y-35486D01*
X125848Y-35422D01*
X125776Y-35377D01*
X125730Y-35331D01*
X125694Y-35304D01*
X125684Y-35294D01*
X125593Y-35203D01*
X125520Y-35103D01*
X125457Y-35012D01*
X125411Y-34921D01*
X125375Y-34848D01*
X125338Y-34793D01*
X125329Y-34748D01*
X125320Y-34739D01*
X125274Y-34620D01*
X125247Y-34493D01*
X125220Y-34374D01*
X125211Y-34265D01*
X125201Y-34174D01*
X125192Y-34101D01*
Y-33919D01*
X125211Y-33801D01*
X125220Y-33700D01*
X125238Y-33600D01*
X125256Y-33527D01*
X125265Y-33472D01*
X125284Y-33427D01*
Y-33418D01*
X125320Y-33309D01*
X125356Y-33217D01*
X125393Y-33126D01*
X125429Y-33044D01*
X125457Y-32990D01*
X125484Y-32935D01*
X125493Y-32908D01*
X125502Y-32899D01*
X125593Y-32753D01*
X125675Y-32634D01*
X125712Y-32580D01*
X125739Y-32543D01*
X125757Y-32516D01*
X125766Y-32507D01*
X125867Y-32370D01*
X125903Y-32325D01*
X125930Y-32279D01*
X125958Y-32243D01*
X125976Y-32215D01*
X125994Y-32206D01*
Y-32061D01*
X124609D01*
X124518Y-32243D01*
X124445Y-32425D01*
X124382Y-32589D01*
X124327Y-32735D01*
X124281Y-32853D01*
X124254Y-32944D01*
X124245Y-32981D01*
X124236Y-33008D01*
X124227Y-33017D01*
Y-33026D01*
X124181Y-33208D01*
X124145Y-33409D01*
X124118Y-33609D01*
X124099Y-33810D01*
X124090Y-33974D01*
X124081Y-34047D01*
Y-34019D01*
Y-37335D01*
X130248D01*
X127160D01*
X127424Y-37326D01*
X127680Y-37299D01*
X127916Y-37262D01*
X128144Y-37208D01*
X128345Y-37144D01*
X128536Y-37071D01*
X128700Y-36998D01*
X128855Y-36916D01*
X128991Y-36843D01*
X129110Y-36770D01*
X129210Y-36698D01*
X129301Y-36634D01*
X129365Y-36579D01*
X129410Y-36543D01*
X129438Y-36515D01*
X129447Y-36506D01*
X129583Y-36342D01*
X129711Y-36169D01*
X129820Y-35996D01*
X129911Y-35805D01*
X129984Y-35623D01*
X130048Y-35440D01*
X130103Y-35258D01*
X130148Y-35085D01*
X130185Y-34921D01*
X130203Y-34766D01*
X130221Y-34629D01*
X130239Y-34511D01*
Y-34420D01*
X130248Y-34347D01*
Y-34283D01*
X130239Y-34056D01*
X130221Y-33837D01*
X130203Y-33627D01*
X130176Y-33436D01*
X130148Y-33281D01*
X130139Y-33217D01*
X130121Y-33163D01*
X130112Y-33117D01*
Y-33081D01*
X130103Y-33063D01*
Y-33053D01*
X130048Y-32826D01*
X129984Y-32625D01*
X129939Y-32452D01*
X129893Y-32307D01*
X129848Y-32188D01*
X129820Y-32106D01*
X129802Y-32051D01*
X129793Y-32033D01*
D02*
G37*
%LPD*%
G36*
X124919Y-10725D02*
X125056Y-10789D01*
X125174Y-10871D01*
X125293Y-10934D01*
X125384Y-11007D01*
X125466Y-11062D01*
X125511Y-11098D01*
X125520Y-11107D01*
X125530D01*
X125675Y-11235D01*
X125830Y-11372D01*
X125985Y-11517D01*
X126131Y-11663D01*
X126249Y-11791D01*
X126349Y-11891D01*
X126386Y-11936D01*
X126413Y-11964D01*
X126431Y-11982D01*
X126441Y-11991D01*
X124792D01*
Y-10661D01*
X124919Y-10725D01*
D02*
G37*
G36*
Y-17193D02*
X125056Y-17257D01*
X125174Y-17339D01*
X125293Y-17402D01*
X125384Y-17475D01*
X125466Y-17530D01*
X125511Y-17567D01*
X125520Y-17576D01*
X125530D01*
X125675Y-17703D01*
X125830Y-17840D01*
X125985Y-17986D01*
X126131Y-18131D01*
X126249Y-18259D01*
X126349Y-18359D01*
X126386Y-18405D01*
X126413Y-18432D01*
X126431Y-18450D01*
X126441Y-18459D01*
X124792D01*
Y-17129D01*
X124919Y-17193D01*
D02*
G37*
G36*
X127361Y-20873D02*
X127552Y-20892D01*
X127725Y-20928D01*
X127862Y-20955D01*
X127980Y-20992D01*
X128071Y-21028D01*
X128126Y-21046D01*
X128135Y-21056D01*
X128144D01*
X128290Y-21138D01*
X128408Y-21229D01*
X128518Y-21320D01*
X128609Y-21411D01*
X128682Y-21493D01*
X128727Y-21557D01*
X128764Y-21602D01*
X128773Y-21620D01*
X128836Y-21739D01*
X128891Y-21857D01*
X128928Y-21967D01*
X128955Y-22067D01*
X128973Y-22149D01*
X128982Y-22213D01*
X128991Y-22258D01*
Y-22413D01*
X129000Y-22550D01*
Y-23142D01*
X125293D01*
Y-22796D01*
X125302Y-22668D01*
Y-22458D01*
X125311Y-22386D01*
Y-22331D01*
X125320Y-22204D01*
X125347Y-22085D01*
X125375Y-21985D01*
X125411Y-21885D01*
X125438Y-21803D01*
X125466Y-21748D01*
X125484Y-21702D01*
X125493Y-21693D01*
X125593Y-21548D01*
X125694Y-21420D01*
X125803Y-21311D01*
X125912Y-21229D01*
X126003Y-21156D01*
X126076Y-21110D01*
X126131Y-21083D01*
X126140Y-21074D01*
X126149D01*
X126313Y-21001D01*
X126477Y-20955D01*
X126650Y-20919D01*
X126805Y-20892D01*
X126942Y-20873D01*
X127005D01*
X127051Y-20864D01*
X127096D01*
X127124D01*
X127142D01*
X127151D01*
X127361Y-20873D01*
D02*
G37*
G36*
X124190Y-29091D02*
Y-27187D01*
X127588D01*
X124190Y-29091D01*
D02*
G37*
G36*
X124090Y-34502D02*
X124118Y-34748D01*
X124163Y-34985D01*
X124208Y-35203D01*
X124281Y-35404D01*
X124345Y-35586D01*
X124427Y-35759D01*
X124500Y-35914D01*
X124582Y-36051D01*
X124664Y-36169D01*
X124728Y-36269D01*
X124792Y-36351D01*
X124846Y-36424D01*
X124892Y-36470D01*
X124919Y-36497D01*
X124928Y-36506D01*
X125092Y-36652D01*
X125265Y-36779D01*
X125447Y-36889D01*
X125630Y-36989D01*
X125821Y-37062D01*
X126003Y-37135D01*
X126185Y-37189D01*
X126358Y-37235D01*
X126523Y-37262D01*
X126677Y-37290D01*
X126814Y-37308D01*
X126932Y-37326D01*
X127023D01*
X127096Y-37335D01*
X124081D01*
Y-34238D01*
X124090Y-34502D01*
D02*
G37*
D17*
X68898Y-15748D02*
G03*
X68898Y-15748I-5906J0D01*
G01*
X21654Y62992D02*
G03*
X21654Y62992I-5906J0D01*
G01*
X5905D02*
G03*
X5905Y62992I-5906J0D01*
G01*
Y47638D02*
G03*
X5905Y47638I-5906J0D01*
G01*
X-25591Y46850D02*
G03*
X-25591Y46850I-5906J0D01*
G01*
X5905Y31496D02*
G03*
X5905Y31496I-5906J0D01*
G01*
X-25591D02*
G03*
X-25591Y31496I-5906J0D01*
G01*
X5905Y16142D02*
G03*
X5905Y16142I-5906J0D01*
G01*
X-25591Y15354D02*
G03*
X-25591Y15354I-5906J0D01*
G01*
X-57087D02*
G03*
X-57087Y15354I-5906J0D01*
G01*
X-41339D02*
G03*
X-41339Y15354I-5906J0D01*
G01*
X-9843D02*
G03*
X-9843Y15354I-5906J0D01*
G01*
X-41339Y31496D02*
G03*
X-41339Y31496I-5906J0D01*
G01*
X-9843D02*
G03*
X-9843Y31496I-5906J0D01*
G01*
X-41339Y46850D02*
G03*
X-41339Y46850I-5906J0D01*
G01*
X-9843D02*
G03*
X-9843Y46850I-5906J0D01*
G01*
Y62992D02*
G03*
X-9843Y62992I-5906J0D01*
G01*
Y-0D02*
G03*
X-9843Y-0I-5906J0D01*
G01*
X-57087D02*
G03*
X-57087Y-0I-5906J0D01*
G01*
X-25591D02*
G03*
X-25591Y-0I-5906J0D01*
G01*
Y-15748D02*
G03*
X-25591Y-15748I-5906J0D01*
G01*
X-9843Y-31496D02*
G03*
X-9843Y-31496I-5906J0D01*
G01*
X-25591D02*
G03*
X-25591Y-31496I-5906J0D01*
G01*
X-41339Y-46850D02*
G03*
X-41339Y-46850I-5906J0D01*
G01*
X-9843D02*
G03*
X-9843Y-46850I-5906J0D01*
G01*
X-25591D02*
G03*
X-25591Y-46850I-5906J0D01*
G01*
X5905Y-15748D02*
G03*
X5905Y-15748I-5906J0D01*
G01*
X-41339Y-31496D02*
G03*
X-41339Y-31496I-5906J0D01*
G01*
X-9843Y-15748D02*
G03*
X-9843Y-15748I-5906J0D01*
G01*
X-41339D02*
G03*
X-41339Y-15748I-5906J0D01*
G01*
X-57087D02*
G03*
X-57087Y-15748I-5906J0D01*
G01*
X-41339Y-0D02*
G03*
X-41339Y-0I-5906J0D01*
G01*
X37402Y47244D02*
G03*
X37402Y47244I-5906J0D01*
G01*
X21654Y31496D02*
G03*
X21654Y31496I-5906J0D01*
G01*
X53149D02*
G03*
X53149Y31496I-5906J0D01*
G01*
X37402Y15748D02*
G03*
X37402Y15748I-5906J0D01*
G01*
X68898D02*
G03*
X68898Y15748I-5906J0D01*
G01*
X53149Y-0D02*
G03*
X53149Y-0I-5906J0D01*
G01*
X21654D02*
G03*
X21654Y-0I-5906J0D01*
G01*
X5905D02*
G03*
X5905Y-0I-5906J0D01*
G01*
X68898D02*
G03*
X68898Y-0I-5906J0D01*
G01*
X37402D02*
G03*
X37402Y-0I-5906J0D01*
G01*
X53149Y15748D02*
G03*
X53149Y15748I-5906J0D01*
G01*
X21654D02*
G03*
X21654Y15748I-5906J0D01*
G01*
X37402Y31496D02*
G03*
X37402Y31496I-5906J0D01*
G01*
X53149Y47244D02*
G03*
X53149Y47244I-5906J0D01*
G01*
X21654D02*
G03*
X21654Y47244I-5906J0D01*
G01*
Y-15748D02*
G03*
X21654Y-15748I-5906J0D01*
G01*
X53149D02*
G03*
X53149Y-15748I-5906J0D01*
G01*
X5905Y-31496D02*
G03*
X5905Y-31496I-5906J0D01*
G01*
X37402D02*
G03*
X37402Y-31496I-5906J0D01*
G01*
X53149Y-47244D02*
G03*
X53149Y-47244I-5906J0D01*
G01*
X37402Y-47244D02*
G03*
X37402Y-47244I-5906J0D01*
G01*
X21654Y-62992D02*
G03*
X21654Y-62992I-5906J0D01*
G01*
X-9843D02*
G03*
X-9843Y-62992I-5906J0D01*
G01*
X5905D02*
G03*
X5905Y-62992I-5906J0D01*
G01*
Y-47244D02*
G03*
X5905Y-47244I-5906J0D01*
G01*
X21654D02*
G03*
X21654Y-47244I-5906J0D01*
G01*
Y-31496D02*
G03*
X21654Y-31496I-5906J0D01*
G01*
X53149D02*
G03*
X53149Y-31496I-5906J0D01*
G01*
X37402Y-15748D02*
G03*
X37402Y-15748I-5906J0D01*
G01*
D18*
X110335Y-1673D02*
G03*
X110335Y-1673I-492J0D01*
G01*
X-117224Y88878D02*
G03*
X-117224Y88878I-492J0D01*
G01*
Y-1673D02*
G03*
X-117224Y-1673I-492J0D01*
G01*
X110335Y88878D02*
G03*
X110335Y88878I-492J0D01*
G01*
D19*
X122047Y-86516D02*
Y-4035D01*
X105512Y-86516D02*
X122047D01*
X105512Y-4035D02*
X122047D01*
X105512Y-86516D02*
Y-4035D01*
X-105512Y4035D02*
Y86516D01*
X-122047Y4035D02*
X-105512D01*
X-122047Y86516D02*
X-105512D01*
X-122047Y4035D02*
Y86516D01*
X-105512Y-86516D02*
Y-4035D01*
X-122047Y-86516D02*
X-105512D01*
X-122047Y-4035D02*
X-105512D01*
X-122047Y-86516D02*
Y-4035D01*
X122047Y4035D02*
Y86516D01*
X105512Y4035D02*
X122047D01*
X105512Y86516D02*
X122047D01*
X105512Y4035D02*
Y86516D01*
D20*
X128124Y-42064D02*
X126812D01*
X127468D01*
Y-45344D01*
X126812Y-46000D01*
X126156D01*
X125500Y-45344D01*
X131404Y-46000D02*
Y-42064D01*
X129436Y-44032D01*
X132060D01*
X-128076Y48536D02*
X-129388D01*
X-128732D01*
Y45256D01*
X-129388Y44600D01*
X-130044D01*
X-130700Y45256D01*
X-126764Y44600D02*
X-125452D01*
X-126108D01*
Y48536D01*
X-126764Y47880D01*
X-129376Y-42064D02*
X-130688D01*
X-130032D01*
Y-45344D01*
X-130688Y-46000D01*
X-131344D01*
X-132000Y-45344D01*
X-125440Y-46000D02*
X-128064D01*
X-125440Y-43376D01*
Y-42720D01*
X-126096Y-42064D01*
X-127408D01*
X-128064Y-42720D01*
X128124Y48536D02*
X126812D01*
X127468D01*
Y45256D01*
X126812Y44600D01*
X126156D01*
X125500Y45256D01*
X129436Y47880D02*
X130092Y48536D01*
X131404D01*
X132060Y47880D01*
Y47224D01*
X131404Y46568D01*
X130748D01*
X131404D01*
X132060Y45912D01*
Y45256D01*
X131404Y44600D01*
X130092D01*
X129436Y45256D01*
D21*
X-7858Y101197D02*
Y107195D01*
X-4859D01*
X-3860Y106195D01*
Y104196D01*
X-4859Y103196D01*
X-7858D01*
X-5859D02*
X-3860Y101197D01*
X-1860Y106195D02*
X-860Y107195D01*
X1139D01*
X2138Y106195D01*
Y105196D01*
X1139Y104196D01*
X139D01*
X1139D01*
X2138Y103196D01*
Y102197D01*
X1139Y101197D01*
X-860D01*
X-1860Y102197D01*
X4138Y106195D02*
X5138Y107195D01*
X7137D01*
X8137Y106195D01*
Y105196D01*
X7137Y104196D01*
X6137D01*
X7137D01*
X8137Y103196D01*
Y102197D01*
X7137Y101197D01*
X5138D01*
X4138Y102197D01*
X91945Y-101067D02*
Y-95069D01*
X94944D01*
X95944Y-96069D01*
Y-98068D01*
X94944Y-99068D01*
X91945D01*
X93944D02*
X95944Y-101067D01*
X101942Y-95069D02*
X97943D01*
Y-98068D01*
X99942Y-97068D01*
X100942D01*
X101942Y-98068D01*
Y-100067D01*
X100942Y-101067D01*
X98943D01*
X97943Y-100067D01*
X103941Y-95069D02*
X107940D01*
Y-96069D01*
X103941Y-100067D01*
Y-101067D01*
X-107957Y-101362D02*
Y-95364D01*
X-104958D01*
X-103958Y-96364D01*
Y-98363D01*
X-104958Y-99363D01*
X-107957D01*
X-105957D02*
X-103958Y-101362D01*
X-97960D02*
X-101959D01*
X-97960Y-97364D01*
Y-96364D01*
X-98960Y-95364D01*
X-100959D01*
X-101959Y-96364D01*
X-91962Y-95364D02*
X-95961D01*
Y-98363D01*
X-93961Y-97364D01*
X-92962D01*
X-91962Y-98363D01*
Y-100363D01*
X-92962Y-101362D01*
X-94961D01*
X-95961Y-100363D01*
%TF.MD5,0bee96c3295719fcd203b5551e513cbe*%
M02*
