%TF.GenerationSoftware,Altium Limited,Altium Designer,23.3.1 (30)*%
G04 Layer_Color=16711935*
%FSLAX25Y25*%
%MOIN*%
%TF.SameCoordinates,891D3A3A-43D5-49D6-AFC7-0964E08A728C*%
%TF.FilePolarity,Negative*%
%TF.FileFunction,Soldermask,Bot*%
%TF.Part,Single*%
G01*
G75*
%TA.AperFunction,SMDPad,CuDef*%
%ADD17R,0.03381X0.03591*%
%ADD28R,0.03543X0.03150*%
%ADD29R,0.07087X0.11811*%
%ADD31R,0.03591X0.04166*%
%ADD33R,0.04166X0.03591*%
%ADD34R,0.01657X0.07699*%
G04:AMPARAMS|DCode=35|XSize=76.99mil|YSize=16.57mil|CornerRadius=8.28mil|HoleSize=0mil|Usage=FLASHONLY|Rotation=90.000|XOffset=0mil|YOffset=0mil|HoleType=Round|Shape=RoundedRectangle|*
%AMROUNDEDRECTD35*
21,1,0.07699,0.00000,0,0,90.0*
21,1,0.06042,0.01657,0,0,90.0*
1,1,0.01657,0.00000,0.03021*
1,1,0.01657,0.00000,-0.03021*
1,1,0.01657,0.00000,-0.03021*
1,1,0.01657,0.00000,0.03021*
%
%ADD35ROUNDEDRECTD35*%
%ADD38R,0.03591X0.03381*%
%TA.AperFunction,ComponentPad*%
%ADD44C,0.05906*%
%ADD47C,0.06299*%
%ADD50R,0.05512X0.05512*%
%TA.AperFunction,SMDPad,CuDef*%
%ADD58R,0.03378X0.03900*%
G04:AMPARAMS|DCode=59|XSize=9.94mil|YSize=65.17mil|CornerRadius=4.97mil|HoleSize=0mil|Usage=FLASHONLY|Rotation=180.000|XOffset=0mil|YOffset=0mil|HoleType=Round|Shape=RoundedRectangle|*
%AMROUNDEDRECTD59*
21,1,0.00994,0.05523,0,0,180.0*
21,1,0.00000,0.06517,0,0,180.0*
1,1,0.00994,0.00000,0.02761*
1,1,0.00994,0.00000,0.02761*
1,1,0.00994,0.00000,-0.02761*
1,1,0.00994,0.00000,-0.02761*
%
%ADD59ROUNDEDRECTD59*%
G04:AMPARAMS|DCode=60|XSize=65.17mil|YSize=9.94mil|CornerRadius=4.97mil|HoleSize=0mil|Usage=FLASHONLY|Rotation=180.000|XOffset=0mil|YOffset=0mil|HoleType=Round|Shape=RoundedRectangle|*
%AMROUNDEDRECTD60*
21,1,0.06517,0.00000,0,0,180.0*
21,1,0.05523,0.00994,0,0,180.0*
1,1,0.00994,-0.02761,0.00000*
1,1,0.00994,0.02761,0.00000*
1,1,0.00994,0.02761,0.00000*
1,1,0.00994,-0.02761,0.00000*
%
%ADD60ROUNDEDRECTD60*%
%ADD61R,0.06517X0.00994*%
%ADD73R,0.05906X0.01378*%
%ADD74O,0.05906X0.01378*%
%ADD77R,0.04528X0.02756*%
%ADD78O,0.04528X0.02756*%
%ADD79O,0.06496X0.02756*%
%ADD80R,0.06496X0.02756*%
%TA.AperFunction,ComponentPad*%
%ADD81C,0.03937*%
%ADD82O,0.05512X0.08268*%
%ADD83R,0.06693X0.06693*%
%ADD84C,0.06693*%
%ADD85R,0.25984X0.25984*%
%ADD86R,0.05906X0.05906*%
%ADD87C,0.12992*%
%ADD88O,0.14567X0.08268*%
%ADD89O,0.08268X0.14567*%
%ADD90R,0.05512X0.05512*%
%TA.AperFunction,SMDPad,CuDef*%
%ADD91R,0.02854X0.03661*%
%ADD92R,0.07874X0.05906*%
D17*
X13477Y-56988D02*
D03*
X19593D02*
D03*
X19495Y86024D02*
D03*
X13379D02*
D03*
X13379Y77854D02*
D03*
X19495D02*
D03*
X13477Y28424D02*
D03*
X19593D02*
D03*
Y19882D02*
D03*
X13477D02*
D03*
X13379Y-6496D02*
D03*
X19495D02*
D03*
X13379Y-13976D02*
D03*
X19495D02*
D03*
X13576Y-49016D02*
D03*
X19692D02*
D03*
D28*
X83465Y68307D02*
D03*
Y74213D02*
D03*
Y19291D02*
D03*
Y25197D02*
D03*
X82579Y-28543D02*
D03*
Y-22638D02*
D03*
X82776Y-74606D02*
D03*
Y-80512D02*
D03*
D29*
X-68012Y102264D02*
D03*
X-54429D02*
D03*
X-54823Y53150D02*
D03*
X-68405D02*
D03*
X-54626Y4626D02*
D03*
X-68209D02*
D03*
X-54626Y-49803D02*
D03*
X-68209D02*
D03*
D31*
X64075Y-112508D02*
D03*
Y-107177D02*
D03*
X-43406Y90543D02*
D03*
Y95874D02*
D03*
X-78642Y49795D02*
D03*
Y55126D02*
D03*
X-43996Y45382D02*
D03*
Y40051D02*
D03*
X-79134Y3937D02*
D03*
Y-1394D02*
D03*
X-43406Y205D02*
D03*
Y-5126D02*
D03*
X-80118Y-54240D02*
D03*
Y-48910D02*
D03*
X-43406Y-59654D02*
D03*
Y-54323D02*
D03*
X31004Y-103437D02*
D03*
Y-108768D02*
D03*
X23917Y-103437D02*
D03*
Y-108768D02*
D03*
X56201Y-107177D02*
D03*
Y-112508D02*
D03*
D33*
X33358Y-91043D02*
D03*
X38689D02*
D03*
X-50189Y-139173D02*
D03*
X-55520D02*
D03*
X-83030Y94488D02*
D03*
X-77699D02*
D03*
X-18610Y97933D02*
D03*
X-13280D02*
D03*
X-18709Y40650D02*
D03*
X-13378D02*
D03*
X-13083Y5413D02*
D03*
X-18413D02*
D03*
X-19791Y-36713D02*
D03*
X-14461D02*
D03*
X38689Y-81595D02*
D03*
X33358D02*
D03*
D34*
X77362Y-36124D02*
D03*
Y61510D02*
D03*
Y12302D02*
D03*
Y-87697D02*
D03*
D35*
X74803Y-36124D02*
D03*
X72244D02*
D03*
X69685D02*
D03*
X67126D02*
D03*
X64567D02*
D03*
X62008D02*
D03*
X59449D02*
D03*
Y-13483D02*
D03*
X62008D02*
D03*
X64567D02*
D03*
X67126D02*
D03*
X69685D02*
D03*
X72244D02*
D03*
X74803D02*
D03*
X77362D02*
D03*
X74803Y61510D02*
D03*
X72244D02*
D03*
X69685D02*
D03*
X67126D02*
D03*
X64567D02*
D03*
X62008D02*
D03*
X59449D02*
D03*
Y84151D02*
D03*
X62008D02*
D03*
X64567D02*
D03*
X67126D02*
D03*
X69685D02*
D03*
X72244D02*
D03*
X74803D02*
D03*
X77362D02*
D03*
Y34942D02*
D03*
X74803D02*
D03*
X72244D02*
D03*
X69685D02*
D03*
X67126D02*
D03*
X64567D02*
D03*
X62008D02*
D03*
X59449D02*
D03*
Y12302D02*
D03*
X62008D02*
D03*
X64567D02*
D03*
X67126D02*
D03*
X69685D02*
D03*
X72244D02*
D03*
X74803D02*
D03*
X77362Y-65056D02*
D03*
X74803D02*
D03*
X72244D02*
D03*
X69685D02*
D03*
X67126D02*
D03*
X64567D02*
D03*
X62008D02*
D03*
X59449D02*
D03*
Y-87697D02*
D03*
X62008D02*
D03*
X64567D02*
D03*
X67126D02*
D03*
X69685D02*
D03*
X72244D02*
D03*
X74803D02*
D03*
D38*
X4035Y92218D02*
D03*
Y86102D02*
D03*
Y28386D02*
D03*
Y34502D02*
D03*
Y-6496D02*
D03*
Y-380D02*
D03*
X4036Y-49016D02*
D03*
Y-42900D02*
D03*
D44*
X-117717Y-25688D02*
D03*
X-109843D02*
D03*
X-117717Y-17813D02*
D03*
X-109843D02*
D03*
Y-9939D02*
D03*
X-117717Y-80806D02*
D03*
X-109843D02*
D03*
X-117717Y-72932D02*
D03*
X-109843D02*
D03*
X-117717Y-65057D02*
D03*
X-109843D02*
D03*
Y-57183D02*
D03*
X-117717Y-49310D02*
D03*
X-109843D02*
D03*
X-117717Y-41436D02*
D03*
X-109843D02*
D03*
X-117717Y-33562D02*
D03*
X-109843D02*
D03*
X-117717Y-57183D02*
D03*
X109843Y64953D02*
D03*
X117717D02*
D03*
X109843Y72827D02*
D03*
X117717D02*
D03*
Y80701D02*
D03*
X109843Y9835D02*
D03*
X117717D02*
D03*
X109843Y17709D02*
D03*
X117717D02*
D03*
X109843Y25583D02*
D03*
X117717D02*
D03*
Y33457D02*
D03*
X109843Y41331D02*
D03*
X117717D02*
D03*
X109843Y49205D02*
D03*
X117717D02*
D03*
X109843Y57079D02*
D03*
X117717D02*
D03*
X109843Y33457D02*
D03*
Y-25688D02*
D03*
X117717D02*
D03*
X109843Y-17813D02*
D03*
X117717D02*
D03*
Y-9939D02*
D03*
X109843Y-80806D02*
D03*
X117717D02*
D03*
X109843Y-72932D02*
D03*
X117717D02*
D03*
X109843Y-65057D02*
D03*
X117717D02*
D03*
Y-57183D02*
D03*
X109843Y-49310D02*
D03*
X117717D02*
D03*
X109843Y-41436D02*
D03*
X117717D02*
D03*
X109843Y-33562D02*
D03*
X117717D02*
D03*
X109843Y-57183D02*
D03*
X-117717Y64967D02*
D03*
X-109843D02*
D03*
X-117717Y72841D02*
D03*
X-109843D02*
D03*
Y80715D02*
D03*
X-117717Y9849D02*
D03*
X-109843D02*
D03*
X-117717Y17722D02*
D03*
X-109843D02*
D03*
X-117717Y25596D02*
D03*
X-109843D02*
D03*
Y33470D02*
D03*
X-117717Y41345D02*
D03*
X-109843D02*
D03*
X-117717Y49219D02*
D03*
X-109843D02*
D03*
X-117717Y57093D02*
D03*
X-109843D02*
D03*
X-117717Y33470D02*
D03*
D47*
X-12205Y146850D02*
D03*
Y138976D02*
D03*
Y131102D02*
D03*
X-31890Y146850D02*
D03*
Y138976D02*
D03*
Y131102D02*
D03*
D50*
X-38780Y27854D02*
D03*
X41339Y106398D02*
D03*
X-54035Y145177D02*
D03*
X39764Y66339D02*
D03*
X-38091Y81102D02*
D03*
X39764Y12302D02*
D03*
X51181Y-89075D02*
D03*
X-38287Y-69980D02*
D03*
X-38091Y61509D02*
D03*
X84153Y-118602D02*
D03*
X39764Y53228D02*
D03*
X39764Y23424D02*
D03*
Y-18602D02*
D03*
X41043Y-68012D02*
D03*
X-38287Y-81595D02*
D03*
X38386Y-129331D02*
D03*
X77428Y136024D02*
D03*
X-38287Y-12622D02*
D03*
X49723Y-129331D02*
D03*
X-36811Y-92222D02*
D03*
X-21852D02*
D03*
D58*
X38386Y-121457D02*
D03*
X31908D02*
D03*
X56201Y-121457D02*
D03*
X49723D02*
D03*
D59*
X5217Y-92222D02*
D03*
X3248D02*
D03*
X1280D02*
D03*
X-689D02*
D03*
X-2657D02*
D03*
X-4626D02*
D03*
X-6594D02*
D03*
X-8563D02*
D03*
X-10531D02*
D03*
X-12500D02*
D03*
X-14469D02*
D03*
X-16437D02*
D03*
Y-124707D02*
D03*
X-14469D02*
D03*
X-12500D02*
D03*
X-10531D02*
D03*
X-8563D02*
D03*
X-6594D02*
D03*
X-4626D02*
D03*
X-2657D02*
D03*
X-689D02*
D03*
X1280D02*
D03*
X3248D02*
D03*
X5217D02*
D03*
D60*
X-21852Y-97638D02*
D03*
Y-99606D02*
D03*
Y-101575D02*
D03*
Y-103543D02*
D03*
Y-105512D02*
D03*
Y-107480D02*
D03*
Y-109449D02*
D03*
Y-111417D02*
D03*
Y-113386D02*
D03*
Y-115354D02*
D03*
Y-117323D02*
D03*
Y-119291D02*
D03*
X10632D02*
D03*
Y-117323D02*
D03*
Y-115354D02*
D03*
Y-113386D02*
D03*
Y-111417D02*
D03*
Y-109449D02*
D03*
Y-107480D02*
D03*
Y-105512D02*
D03*
Y-103543D02*
D03*
Y-101575D02*
D03*
Y-99606D02*
D03*
D61*
Y-97638D02*
D03*
D73*
X-54626Y89434D02*
D03*
Y40200D02*
D03*
Y-8686D02*
D03*
Y-62115D02*
D03*
D74*
Y87465D02*
D03*
X-71949Y89434D02*
D03*
Y87465D02*
D03*
Y81560D02*
D03*
X-54626Y83528D02*
D03*
Y81560D02*
D03*
X-71949Y83528D02*
D03*
X-54626Y85497D02*
D03*
X-71949D02*
D03*
X-54626Y38232D02*
D03*
X-71949Y40200D02*
D03*
Y38232D02*
D03*
Y32326D02*
D03*
X-54626Y34295D02*
D03*
Y32326D02*
D03*
X-71949Y34295D02*
D03*
X-54626Y36263D02*
D03*
X-71949D02*
D03*
Y-12623D02*
D03*
X-54626D02*
D03*
X-71949Y-14591D02*
D03*
X-54626Y-16560D02*
D03*
Y-14591D02*
D03*
X-71949Y-16560D02*
D03*
Y-10654D02*
D03*
Y-8686D02*
D03*
X-54626Y-10654D02*
D03*
Y-64083D02*
D03*
X-71949Y-62115D02*
D03*
Y-64083D02*
D03*
Y-69989D02*
D03*
X-54626Y-68020D02*
D03*
Y-69989D02*
D03*
X-71949Y-68020D02*
D03*
X-54626Y-66052D02*
D03*
X-71949D02*
D03*
D77*
X38386Y-110917D02*
D03*
D78*
X48819Y-103437D02*
D03*
Y-110917D02*
D03*
Y-107177D02*
D03*
X38386Y-103437D02*
D03*
Y-107177D02*
D03*
D79*
X-5610Y-6358D02*
D03*
Y-11358D02*
D03*
X-28051D02*
D03*
X-5610Y-16358D02*
D03*
X-28051D02*
D03*
Y-1358D02*
D03*
Y-6358D02*
D03*
X-5906Y86102D02*
D03*
Y81102D02*
D03*
X-28346D02*
D03*
X-5906Y76102D02*
D03*
X-28346D02*
D03*
Y91102D02*
D03*
Y86102D02*
D03*
X-28346Y28386D02*
D03*
Y33386D02*
D03*
Y18386D02*
D03*
X-5906D02*
D03*
X-28346Y23386D02*
D03*
X-5906D02*
D03*
Y28386D02*
D03*
X-5709Y-48976D02*
D03*
Y-53976D02*
D03*
X-28150D02*
D03*
X-5709Y-58976D02*
D03*
X-28150D02*
D03*
Y-43976D02*
D03*
Y-48976D02*
D03*
D80*
X-5610Y-1358D02*
D03*
X-5906Y91102D02*
D03*
X-5906Y33386D02*
D03*
X-5709Y-43976D02*
D03*
D81*
X-50295Y-132087D02*
D03*
X-55413D02*
D03*
X-57972Y-128150D02*
D03*
X-52854D02*
D03*
X-47736D02*
D03*
D82*
X-66929Y-129016D02*
D03*
X-38780D02*
D03*
D83*
X52074Y142087D02*
D03*
D84*
Y132087D02*
D03*
D85*
X-146457Y0D02*
D03*
X146457D02*
D03*
D86*
X-117717Y-9939D02*
D03*
X109843Y80701D02*
D03*
Y-9939D02*
D03*
X-117717Y80715D02*
D03*
D87*
X18504Y137795D02*
D03*
D88*
X8661Y126772D02*
D03*
X23228Y116929D02*
D03*
D89*
X394Y143701D02*
D03*
D90*
X43257Y-36124D02*
D03*
X-38091D02*
D03*
X-38780Y12302D02*
D03*
D91*
X-48474Y-115945D02*
D03*
X-57234D02*
D03*
D92*
X21457Y-91043D02*
D03*
Y-81595D02*
D03*
%TF.MD5,2beb19b3f4c9ab94f960f25a7d21b53d*%
M02*
