%TF.GenerationSoftware,Altium Limited,Altium Designer,23.3.1 (30)*%
G04 Layer_Color=8388736*
%FSLAX25Y25*%
%MOIN*%
%TF.SameCoordinates,891D3A3A-43D5-49D6-AFC7-0964E08A728C*%
%TF.FilePolarity,Negative*%
%TF.FileFunction,Soldermask,Top*%
%TF.Part,Single*%
G01*
G75*
%TA.AperFunction,SMDPad,CuDef*%
%ADD15R,0.02362X0.02756*%
%ADD16R,0.03937X0.02756*%
%ADD17R,0.03381X0.03591*%
%ADD18R,0.03788X0.03681*%
%ADD19O,0.03300X0.01600*%
%ADD20R,0.03300X0.01600*%
G04:AMPARAMS|DCode=25|XSize=73.79mil|YSize=24.1mil|CornerRadius=12.05mil|HoleSize=0mil|Usage=FLASHONLY|Rotation=180.000|XOffset=0mil|YOffset=0mil|HoleType=Round|Shape=RoundedRectangle|*
%AMROUNDEDRECTD25*
21,1,0.07379,0.00000,0,0,180.0*
21,1,0.04969,0.02410,0,0,180.0*
1,1,0.02410,-0.02485,0.00000*
1,1,0.02410,0.02485,0.00000*
1,1,0.02410,0.02485,0.00000*
1,1,0.02410,-0.02485,0.00000*
%
%ADD25ROUNDEDRECTD25*%
%ADD26R,0.07379X0.02410*%
%ADD27R,0.03500X0.04000*%
%ADD28R,0.03543X0.03150*%
%ADD29R,0.07087X0.11811*%
%ADD30R,0.03591X0.03970*%
%ADD31R,0.03591X0.04166*%
%ADD32R,0.03591X0.03775*%
%ADD33R,0.04166X0.03591*%
%ADD34R,0.01657X0.07699*%
G04:AMPARAMS|DCode=35|XSize=76.99mil|YSize=16.57mil|CornerRadius=8.28mil|HoleSize=0mil|Usage=FLASHONLY|Rotation=90.000|XOffset=0mil|YOffset=0mil|HoleType=Round|Shape=RoundedRectangle|*
%AMROUNDEDRECTD35*
21,1,0.07699,0.00000,0,0,90.0*
21,1,0.06042,0.01657,0,0,90.0*
1,1,0.01657,0.00000,0.03021*
1,1,0.01657,0.00000,-0.03021*
1,1,0.01657,0.00000,-0.03021*
1,1,0.01657,0.00000,0.03021*
%
%ADD35ROUNDEDRECTD35*%
%ADD38R,0.03591X0.03381*%
%TA.AperFunction,ComponentPad*%
%ADD44C,0.05906*%
%ADD47C,0.06299*%
%ADD50R,0.05512X0.05512*%
%TA.AperFunction,SMDPad,CuDef*%
%ADD73R,0.05906X0.01378*%
%ADD74O,0.05906X0.01378*%
%ADD75O,0.05118X0.02756*%
%ADD76R,0.05118X0.02756*%
%ADD77R,0.04528X0.02756*%
%ADD78O,0.04528X0.02756*%
%ADD79O,0.06496X0.02756*%
%ADD80R,0.06496X0.02756*%
%TA.AperFunction,ComponentPad*%
%ADD81C,0.03937*%
%ADD82O,0.05512X0.08268*%
%ADD83R,0.06693X0.06693*%
%ADD84C,0.06693*%
%ADD85R,0.25984X0.25984*%
%ADD86R,0.05906X0.05906*%
%ADD87C,0.12992*%
%ADD88O,0.14567X0.08268*%
%ADD89O,0.08268X0.14567*%
%ADD90R,0.05512X0.05512*%
D15*
X-10236Y101181D02*
D03*
X-17717Y109055D02*
D03*
X-10236D02*
D03*
D16*
X-16929Y101181D02*
D03*
D17*
X-81384Y126378D02*
D03*
X-87500D02*
D03*
X45958Y123425D02*
D03*
X52074D02*
D03*
X59646D02*
D03*
X65762D02*
D03*
X-16233Y64967D02*
D03*
X-22349D02*
D03*
Y53228D02*
D03*
X-16233D02*
D03*
X-22349Y28424D02*
D03*
X-16233D02*
D03*
X-16233Y19193D02*
D03*
X-22349D02*
D03*
Y-22441D02*
D03*
X-16233D02*
D03*
Y-30807D02*
D03*
X-22349D02*
D03*
X-22358Y-69350D02*
D03*
X-16242D02*
D03*
X-16233Y-78701D02*
D03*
X-22349D02*
D03*
D18*
X-87500Y117808D02*
D03*
Y112175D02*
D03*
D19*
X-56504Y-117815D02*
D03*
X-49204Y-120415D02*
D03*
X-56504D02*
D03*
X-49204Y-117815D02*
D03*
Y-115215D02*
D03*
D20*
X-56504D02*
D03*
D25*
X-17972Y123425D02*
D03*
X-25335Y119685D02*
D03*
D26*
X-17972Y115945D02*
D03*
D27*
X-45669Y104524D02*
D03*
Y111024D02*
D03*
X-54035Y127659D02*
D03*
Y121160D02*
D03*
D28*
X-78051Y-75197D02*
D03*
Y-81102D02*
D03*
X-77165Y68105D02*
D03*
Y74011D02*
D03*
X-78051Y18898D02*
D03*
Y24803D02*
D03*
Y-29528D02*
D03*
Y-23622D02*
D03*
D29*
X59646Y101870D02*
D03*
X73228D02*
D03*
X73130Y52854D02*
D03*
X59547D02*
D03*
X59744Y4232D02*
D03*
X73327D02*
D03*
X59547Y-50492D02*
D03*
X73130D02*
D03*
D30*
X-95768Y112175D02*
D03*
Y117702D02*
D03*
D31*
X49606Y-61130D02*
D03*
Y-55799D02*
D03*
X95866Y121661D02*
D03*
Y116331D02*
D03*
X8202Y99508D02*
D03*
Y104839D02*
D03*
X48720Y95480D02*
D03*
Y90150D02*
D03*
X84252Y52075D02*
D03*
Y46744D02*
D03*
X49606Y46661D02*
D03*
Y41331D02*
D03*
X84252Y-1386D02*
D03*
Y3945D02*
D03*
X47638Y-189D02*
D03*
Y-5520D02*
D03*
X83760Y-49894D02*
D03*
Y-55224D02*
D03*
D32*
X-45669Y127270D02*
D03*
Y121548D02*
D03*
D33*
X-69004Y134646D02*
D03*
X-63673D02*
D03*
X89673Y93307D02*
D03*
X84343D02*
D03*
X16823Y-11220D02*
D03*
X22153D02*
D03*
X16791Y-59193D02*
D03*
X22121D02*
D03*
X16429Y71082D02*
D03*
X21760D02*
D03*
X16921Y40650D02*
D03*
X22252D02*
D03*
D34*
X-71063Y61509D02*
D03*
X-71949Y12302D02*
D03*
Y-36124D02*
D03*
Y-87698D02*
D03*
D35*
X-68504Y61509D02*
D03*
X-65945D02*
D03*
X-63386D02*
D03*
X-60827D02*
D03*
X-58268D02*
D03*
X-55709D02*
D03*
X-53150D02*
D03*
Y84150D02*
D03*
X-55709D02*
D03*
X-58268D02*
D03*
X-60827D02*
D03*
X-63386D02*
D03*
X-65945D02*
D03*
X-68504D02*
D03*
X-71063D02*
D03*
X-71949Y34942D02*
D03*
X-69390D02*
D03*
X-66831D02*
D03*
X-64272D02*
D03*
X-61713D02*
D03*
X-59153D02*
D03*
X-56595D02*
D03*
X-54035D02*
D03*
Y12302D02*
D03*
X-56595D02*
D03*
X-59153D02*
D03*
X-61713D02*
D03*
X-64272D02*
D03*
X-66831D02*
D03*
X-69390D02*
D03*
Y-36124D02*
D03*
X-66831D02*
D03*
X-64272D02*
D03*
X-61713D02*
D03*
X-59153D02*
D03*
X-56595D02*
D03*
X-54035D02*
D03*
Y-13483D02*
D03*
X-56595D02*
D03*
X-59153D02*
D03*
X-61713D02*
D03*
X-64272D02*
D03*
X-66831D02*
D03*
X-69390D02*
D03*
X-71949D02*
D03*
Y-65057D02*
D03*
X-69390D02*
D03*
X-66831D02*
D03*
X-64272D02*
D03*
X-61713D02*
D03*
X-59153D02*
D03*
X-56595D02*
D03*
X-54035D02*
D03*
Y-87698D02*
D03*
X-56595D02*
D03*
X-59153D02*
D03*
X-61713D02*
D03*
X-64272D02*
D03*
X-66831D02*
D03*
X-69390D02*
D03*
D38*
X-98Y71082D02*
D03*
Y64967D02*
D03*
X-2953Y34540D02*
D03*
Y28424D02*
D03*
X-2953Y-22395D02*
D03*
Y-16280D02*
D03*
X295Y-63235D02*
D03*
Y-69350D02*
D03*
D44*
X-117717Y-25688D02*
D03*
X-109843D02*
D03*
X-117717Y-17813D02*
D03*
X-109843D02*
D03*
Y-9939D02*
D03*
X-117717Y-80806D02*
D03*
X-109843D02*
D03*
X-117717Y-72932D02*
D03*
X-109843D02*
D03*
X-117717Y-65057D02*
D03*
X-109843D02*
D03*
Y-57183D02*
D03*
X-117717Y-49310D02*
D03*
X-109843D02*
D03*
X-117717Y-41436D02*
D03*
X-109843D02*
D03*
X-117717Y-33562D02*
D03*
X-109843D02*
D03*
X-117717Y-57183D02*
D03*
X109843Y64953D02*
D03*
X117717D02*
D03*
X109843Y72827D02*
D03*
X117717D02*
D03*
Y80701D02*
D03*
X109843Y9835D02*
D03*
X117717D02*
D03*
X109843Y17709D02*
D03*
X117717D02*
D03*
X109843Y25583D02*
D03*
X117717D02*
D03*
Y33457D02*
D03*
X109843Y41331D02*
D03*
X117717D02*
D03*
X109843Y49205D02*
D03*
X117717D02*
D03*
X109843Y57079D02*
D03*
X117717D02*
D03*
X109843Y33457D02*
D03*
Y-25688D02*
D03*
X117717D02*
D03*
X109843Y-17813D02*
D03*
X117717D02*
D03*
Y-9939D02*
D03*
X109843Y-80806D02*
D03*
X117717D02*
D03*
X109843Y-72932D02*
D03*
X117717D02*
D03*
X109843Y-65057D02*
D03*
X117717D02*
D03*
Y-57183D02*
D03*
X109843Y-49310D02*
D03*
X117717D02*
D03*
X109843Y-41436D02*
D03*
X117717D02*
D03*
X109843Y-33562D02*
D03*
X117717D02*
D03*
X109843Y-57183D02*
D03*
X-117717Y64967D02*
D03*
X-109843D02*
D03*
X-117717Y72841D02*
D03*
X-109843D02*
D03*
Y80715D02*
D03*
X-117717Y9849D02*
D03*
X-109843D02*
D03*
X-117717Y17722D02*
D03*
X-109843D02*
D03*
X-117717Y25596D02*
D03*
X-109843D02*
D03*
Y33470D02*
D03*
X-117717Y41345D02*
D03*
X-109843D02*
D03*
X-117717Y49219D02*
D03*
X-109843D02*
D03*
X-117717Y57093D02*
D03*
X-109843D02*
D03*
X-117717Y33470D02*
D03*
D47*
X-12205Y146850D02*
D03*
Y138976D02*
D03*
Y131102D02*
D03*
X-31890Y146850D02*
D03*
Y138976D02*
D03*
Y131102D02*
D03*
D50*
X-38780Y27854D02*
D03*
X41339Y106398D02*
D03*
X-54035Y145177D02*
D03*
X39764Y66339D02*
D03*
X-38091Y81102D02*
D03*
X39764Y12302D02*
D03*
X51181Y-89075D02*
D03*
X-38287Y-69980D02*
D03*
X-38091Y61509D02*
D03*
X84153Y-118602D02*
D03*
X39764Y53228D02*
D03*
X39764Y23424D02*
D03*
Y-18602D02*
D03*
X41043Y-68012D02*
D03*
X-38287Y-81595D02*
D03*
X38386Y-129331D02*
D03*
X77428Y136024D02*
D03*
X-38287Y-12622D02*
D03*
X49723Y-129331D02*
D03*
X-36811Y-92222D02*
D03*
X-21852D02*
D03*
D73*
X59744Y-62106D02*
D03*
Y89433D02*
D03*
Y40201D02*
D03*
Y-8685D02*
D03*
D74*
Y-64075D02*
D03*
Y-66043D02*
D03*
Y-68012D02*
D03*
Y-69980D02*
D03*
X77067Y-62106D02*
D03*
Y-64075D02*
D03*
Y-66043D02*
D03*
Y-68012D02*
D03*
Y-69980D02*
D03*
Y81559D02*
D03*
Y83528D02*
D03*
Y85496D02*
D03*
Y87465D02*
D03*
Y89433D02*
D03*
X59744Y81559D02*
D03*
Y83528D02*
D03*
Y85496D02*
D03*
Y87465D02*
D03*
Y38232D02*
D03*
Y36264D02*
D03*
Y34295D02*
D03*
Y32327D02*
D03*
X77067Y40201D02*
D03*
Y38232D02*
D03*
Y36264D02*
D03*
Y34295D02*
D03*
Y32327D02*
D03*
Y-16559D02*
D03*
Y-14591D02*
D03*
Y-12622D02*
D03*
Y-10654D02*
D03*
Y-8685D02*
D03*
X59744Y-16559D02*
D03*
Y-14591D02*
D03*
Y-12622D02*
D03*
Y-10654D02*
D03*
D75*
X-61614Y120276D02*
D03*
Y124016D02*
D03*
Y127756D02*
D03*
X-71457Y120276D02*
D03*
Y124016D02*
D03*
D76*
Y127756D02*
D03*
D77*
X77461Y122933D02*
D03*
X26378Y98433D02*
D03*
D78*
X87894Y115453D02*
D03*
Y122933D02*
D03*
X77461Y119193D02*
D03*
Y115453D02*
D03*
X87894Y119193D02*
D03*
X15945Y105913D02*
D03*
Y98433D02*
D03*
X26378Y102173D02*
D03*
Y105913D02*
D03*
X15945Y102173D02*
D03*
D79*
X30283Y48228D02*
D03*
Y53228D02*
D03*
Y58228D02*
D03*
Y63228D02*
D03*
X7842Y48228D02*
D03*
Y53228D02*
D03*
Y58228D02*
D03*
Y28424D02*
D03*
Y23424D02*
D03*
Y18424D02*
D03*
X30283Y33424D02*
D03*
Y28424D02*
D03*
Y23424D02*
D03*
Y18424D02*
D03*
Y-33898D02*
D03*
Y-28898D02*
D03*
Y-23898D02*
D03*
Y-18898D02*
D03*
X7842Y-33898D02*
D03*
Y-28898D02*
D03*
Y-23898D02*
D03*
X30676Y-81260D02*
D03*
Y-76260D02*
D03*
Y-71260D02*
D03*
Y-66260D02*
D03*
X8235Y-81260D02*
D03*
Y-76260D02*
D03*
Y-71260D02*
D03*
D80*
X7842Y63228D02*
D03*
Y33424D02*
D03*
Y-18898D02*
D03*
X8235Y-66260D02*
D03*
D81*
X-50295Y-132087D02*
D03*
X-55413D02*
D03*
X-57972Y-128150D02*
D03*
X-52854D02*
D03*
X-47736D02*
D03*
D82*
X-66929Y-129016D02*
D03*
X-38780D02*
D03*
D83*
X52074Y142087D02*
D03*
D84*
Y132087D02*
D03*
D85*
X-146457Y0D02*
D03*
X146457D02*
D03*
D86*
X-117717Y-9939D02*
D03*
X109843Y80701D02*
D03*
Y-9939D02*
D03*
X-117717Y80715D02*
D03*
D87*
X18504Y137795D02*
D03*
D88*
X8661Y126772D02*
D03*
X23228Y116929D02*
D03*
D89*
X394Y143701D02*
D03*
D90*
X43257Y-36124D02*
D03*
X-38091D02*
D03*
X-38780Y12302D02*
D03*
%TF.MD5,5a3c4707f7956e87edc6b8e9db71d4de*%
M02*
