G04*
G04 #@! TF.GenerationSoftware,Altium Limited,Altium Designer,23.3.1 (30)*
G04*
G04 Layer_Physical_Order=2*
G04 Layer_Color=16711680*
%FSLAX25Y25*%
%MOIN*%
G70*
G04*
G04 #@! TF.SameCoordinates,4AB93319-1172-440E-AE3B-729AD693B432*
G04*
G04*
G04 #@! TF.FilePolarity,Positive*
G04*
G01*
G75*
%ADD11C,0.00984*%
%ADD12C,0.00787*%
%ADD15C,0.03661*%
%ADD16R,0.03661X0.03661*%
%ADD18R,0.05118X0.05118*%
%ADD19C,0.05118*%
%ADD20R,0.25591X0.25591*%
G36*
X7983Y162500D02*
X15947Y161912D01*
X23872Y160935D01*
X31740Y159570D01*
X39532Y157820D01*
X47228Y155690D01*
X54811Y153185D01*
X62261Y150311D01*
X69561Y147075D01*
X76694Y143485D01*
X83642Y139549D01*
X90389Y135277D01*
X96918Y130678D01*
X103213Y125766D01*
X109260Y120550D01*
X115043Y115043D01*
X120550Y109260D01*
X125766Y103213D01*
X130678Y96918D01*
X135277Y90389D01*
X139549Y83642D01*
X143485Y76694D01*
X147075Y69561D01*
X150311Y62261D01*
X153185Y54811D01*
X155690Y47228D01*
X157820Y39532D01*
X159570Y31740D01*
X160935Y23872D01*
X161912Y15947D01*
X162500Y7983D01*
X162693Y99D01*
X162674Y-0D01*
X162693Y-99D01*
X162500Y-7983D01*
X161912Y-15947D01*
X160935Y-23873D01*
X159570Y-31740D01*
X157820Y-39532D01*
X155690Y-47228D01*
X153185Y-54811D01*
X150311Y-62261D01*
X147075Y-69561D01*
X143485Y-76694D01*
X139549Y-83643D01*
X135277Y-90389D01*
X130678Y-96918D01*
X125766Y-103213D01*
X120550Y-109260D01*
X115043Y-115043D01*
X109260Y-120550D01*
X103213Y-125766D01*
X96918Y-130679D01*
X90389Y-135277D01*
X83642Y-139549D01*
X76694Y-143485D01*
X69561Y-147075D01*
X62261Y-150311D01*
X54811Y-153185D01*
X47228Y-155690D01*
X39532Y-157820D01*
X31740Y-159570D01*
X23872Y-160935D01*
X15947Y-161913D01*
X7983Y-162500D01*
X99Y-162694D01*
X-0Y-162674D01*
X-99Y-162694D01*
X-7983Y-162500D01*
X-15947Y-161913D01*
X-23873Y-160935D01*
X-31740Y-159570D01*
X-39532Y-157820D01*
X-47228Y-155690D01*
X-54811Y-153185D01*
X-62261Y-150311D01*
X-69561Y-147075D01*
X-76694Y-143485D01*
X-83643Y-139549D01*
X-90389Y-135277D01*
X-96918Y-130679D01*
X-103213Y-125766D01*
X-109260Y-120550D01*
X-115043Y-115043D01*
X-120550Y-109260D01*
X-125766Y-103213D01*
X-130679Y-96918D01*
X-135277Y-90389D01*
X-139549Y-83643D01*
X-143485Y-76694D01*
X-147075Y-69561D01*
X-150311Y-62261D01*
X-153185Y-54811D01*
X-155690Y-47228D01*
X-157820Y-39532D01*
X-159570Y-31740D01*
X-160935Y-23873D01*
X-161913Y-15947D01*
X-162500Y-7983D01*
X-162694Y-99D01*
X-162674Y-0D01*
X-162694Y99D01*
X-162500Y7983D01*
X-161913Y15947D01*
X-160935Y23872D01*
X-159570Y31740D01*
X-157820Y39532D01*
X-155690Y47228D01*
X-153185Y54811D01*
X-150311Y62261D01*
X-147075Y69561D01*
X-143485Y76694D01*
X-139549Y83642D01*
X-135277Y90389D01*
X-130679Y96918D01*
X-125766Y103213D01*
X-120550Y109260D01*
X-115043Y115043D01*
X-109260Y120550D01*
X-103213Y125766D01*
X-96918Y130678D01*
X-90389Y135277D01*
X-83643Y139549D01*
X-76694Y143485D01*
X-69561Y147075D01*
X-62261Y150311D01*
X-54811Y153185D01*
X-47228Y155690D01*
X-39532Y157820D01*
X-31740Y159570D01*
X-23873Y160935D01*
X-15947Y161912D01*
X-7983Y162500D01*
X-99Y162693D01*
X-0Y162674D01*
X99Y162693D01*
X7983Y162500D01*
D02*
G37*
%LPC*%
G36*
X13795Y160225D02*
X1000D01*
Y147430D01*
X13795D01*
Y160225D01*
D02*
G37*
G36*
X-1000D02*
X-13795D01*
Y147430D01*
X-1000D01*
Y160225D01*
D02*
G37*
G36*
X13795Y145430D02*
X1000D01*
Y132635D01*
X13795D01*
Y145430D01*
D02*
G37*
G36*
X-1000D02*
X-13795D01*
Y132635D01*
X-1000D01*
Y145430D01*
D02*
G37*
G36*
X2831Y121335D02*
X1000D01*
Y119504D01*
X2831D01*
Y121335D01*
D02*
G37*
G36*
X-1000D02*
X-2831D01*
Y119504D01*
X-1000D01*
Y121335D01*
D02*
G37*
G36*
X113402Y84268D02*
X110843D01*
Y81709D01*
X113402D01*
Y84268D01*
D02*
G37*
G36*
X-108843Y84125D02*
Y81709D01*
X-106426D01*
X-106526Y82082D01*
X-106995Y82894D01*
X-107657Y83557D01*
X-108469Y84025D01*
X-108843Y84125D01*
D02*
G37*
G36*
X-114157Y84268D02*
X-116717D01*
Y81709D01*
X-114157D01*
Y84268D01*
D02*
G37*
G36*
X-110843Y84125D02*
X-111216Y84025D01*
X-112028Y83557D01*
X-112690Y82894D01*
X-113159Y82082D01*
X-113259Y81709D01*
X-110843D01*
Y84125D01*
D02*
G37*
G36*
X108843Y84268D02*
X106283D01*
Y81709D01*
X108843D01*
Y84268D01*
D02*
G37*
G36*
X-118717Y84268D02*
X-121276D01*
Y81709D01*
X-118717D01*
Y84268D01*
D02*
G37*
G36*
X118717Y84125D02*
Y81709D01*
X121133D01*
X121033Y82082D01*
X120564Y82894D01*
X119902Y83557D01*
X119090Y84025D01*
X118717Y84125D01*
D02*
G37*
G36*
X116717Y84125D02*
X116343Y84025D01*
X115531Y83557D01*
X114869Y82894D01*
X114400Y82082D01*
X114300Y81709D01*
X116717D01*
Y84125D01*
D02*
G37*
G36*
Y79709D02*
X114300D01*
X114400Y79335D01*
X114869Y78523D01*
X115531Y77861D01*
X116343Y77392D01*
X116717Y77292D01*
Y79709D01*
D02*
G37*
G36*
X121133D02*
X118717D01*
Y77292D01*
X119090Y77392D01*
X119902Y77861D01*
X120564Y78523D01*
X121033Y79335D01*
X121133Y79709D01*
D02*
G37*
G36*
X113402Y79709D02*
X110843D01*
Y77150D01*
X113402D01*
Y79709D01*
D02*
G37*
G36*
X108843D02*
X106283D01*
Y77150D01*
X108843D01*
Y79709D01*
D02*
G37*
G36*
X-118717D02*
X-121276D01*
Y77150D01*
X-118717D01*
Y79709D01*
D02*
G37*
G36*
X-114157D02*
X-116717D01*
Y77150D01*
X-115900D01*
X-115708Y76688D01*
X-116439Y75957D01*
X-117276Y76181D01*
X-118157D01*
X-119008Y75953D01*
X-119771Y75512D01*
X-120394Y74889D01*
X-120835Y74126D01*
X-121063Y73275D01*
Y72394D01*
X-120835Y71543D01*
X-120394Y70780D01*
X-119771Y70157D01*
X-119008Y69716D01*
X-118157Y69488D01*
X-117276D01*
X-116425Y69716D01*
X-115662Y70157D01*
X-115039Y70780D01*
X-114598Y71543D01*
X-114370Y72394D01*
Y73275D01*
X-114594Y74112D01*
X-113338Y75369D01*
X-113212Y75375D01*
X-113008Y75329D01*
X-112807Y74819D01*
X-113159Y74208D01*
X-113259Y73835D01*
X-109843D01*
X-106426D01*
X-106526Y74208D01*
X-106964Y74967D01*
X-106840Y75393D01*
X-106809Y75467D01*
X3790D01*
X13220Y66037D01*
X13130Y65699D01*
Y65010D01*
X13308Y64344D01*
X13530Y63961D01*
X13267Y63461D01*
X12917D01*
Y61630D01*
X15748D01*
X18579D01*
Y63461D01*
X18229D01*
X17966Y63961D01*
X18188Y64344D01*
X18366Y65010D01*
Y65699D01*
X18188Y66365D01*
X17843Y66962D01*
X17356Y67449D01*
X16759Y67794D01*
X16093Y67972D01*
X15403D01*
X15065Y67882D01*
X5253Y77694D01*
X4830Y77977D01*
X4331Y78076D01*
X-106809D01*
X-106840Y78150D01*
X-106964Y78576D01*
X-106526Y79335D01*
X-106426Y79709D01*
X-109843D01*
X-113259D01*
X-113159Y79335D01*
X-112721Y78576D01*
X-112845Y78150D01*
X-112876Y78076D01*
X-113779D01*
X-114157Y78386D01*
Y79709D01*
D02*
G37*
G36*
X118717Y76251D02*
Y73835D01*
X121133D01*
X121033Y74208D01*
X120564Y75020D01*
X119902Y75683D01*
X119090Y76151D01*
X118717Y76251D01*
D02*
G37*
G36*
X116717Y76251D02*
X116343Y76151D01*
X115531Y75683D01*
X114869Y75020D01*
X114400Y74208D01*
X114300Y73835D01*
X116717D01*
Y76251D01*
D02*
G37*
G36*
X-7480Y74139D02*
X-100394D01*
X-100893Y74040D01*
X-101316Y73757D01*
X-104773Y70301D01*
X-106690D01*
X-106907Y70801D01*
X-106526Y71461D01*
X-106426Y71835D01*
X-109843D01*
X-113259D01*
X-113159Y71461D01*
X-112778Y70801D01*
X-112995Y70301D01*
X-113681D01*
X-114180Y70201D01*
X-114604Y69919D01*
X-116439Y68083D01*
X-117276Y68307D01*
X-118157D01*
X-119008Y68079D01*
X-119771Y67638D01*
X-120394Y67015D01*
X-120835Y66252D01*
X-121063Y65401D01*
Y64520D01*
X-120835Y63669D01*
X-120394Y62906D01*
X-119771Y62283D01*
X-119008Y61842D01*
X-118157Y61614D01*
X-117276D01*
X-116425Y61842D01*
X-115662Y62283D01*
X-115039Y62906D01*
X-114598Y63669D01*
X-114370Y64520D01*
Y65401D01*
X-114594Y66238D01*
X-113141Y67691D01*
X-112551D01*
X-112344Y67191D01*
X-112520Y67015D01*
X-112961Y66252D01*
X-113189Y65401D01*
Y64520D01*
X-112961Y63669D01*
X-112520Y62906D01*
X-112405Y62790D01*
X-112596Y62328D01*
X-113779D01*
X-114279Y62229D01*
X-114702Y61946D01*
X-116439Y60209D01*
X-117276Y60433D01*
X-118157D01*
X-119008Y60205D01*
X-119771Y59764D01*
X-120394Y59141D01*
X-120835Y58378D01*
X-121063Y57527D01*
Y56646D01*
X-120835Y55795D01*
X-120394Y55032D01*
X-119771Y54409D01*
X-119008Y53968D01*
X-118157Y53740D01*
X-117276D01*
X-116425Y53968D01*
X-115662Y54409D01*
X-115039Y55032D01*
X-114598Y55795D01*
X-114370Y56646D01*
Y57527D01*
X-114594Y58364D01*
X-113239Y59719D01*
X-112596D01*
X-112405Y59257D01*
X-112520Y59141D01*
X-112961Y58378D01*
X-113189Y57527D01*
Y56646D01*
X-112961Y55795D01*
X-112703Y55348D01*
X-112991Y54848D01*
X-113386D01*
X-113885Y54749D01*
X-114308Y54466D01*
X-116439Y52335D01*
X-117276Y52559D01*
X-118157D01*
X-119008Y52331D01*
X-119771Y51890D01*
X-120394Y51267D01*
X-120835Y50504D01*
X-121063Y49653D01*
Y48772D01*
X-120835Y47921D01*
X-120394Y47158D01*
X-119771Y46535D01*
X-119008Y46094D01*
X-118157Y45866D01*
X-117276D01*
X-116425Y46094D01*
X-115662Y46535D01*
X-115039Y47158D01*
X-114598Y47921D01*
X-114370Y48772D01*
Y49653D01*
X-114594Y50490D01*
X-112914Y52170D01*
X-112450Y51986D01*
X-112299Y51489D01*
X-112520Y51267D01*
X-112961Y50504D01*
X-113189Y49653D01*
Y48772D01*
X-112961Y47921D01*
X-112520Y47158D01*
X-112344Y46982D01*
X-112551Y46482D01*
X-113878D01*
X-114377Y46382D01*
X-114801Y46100D01*
X-116439Y44461D01*
X-117276Y44685D01*
X-118157D01*
X-119008Y44457D01*
X-119771Y44016D01*
X-120394Y43393D01*
X-120835Y42630D01*
X-121063Y41779D01*
Y40898D01*
X-120835Y40047D01*
X-120394Y39284D01*
X-119771Y38661D01*
X-119008Y38220D01*
X-118157Y37992D01*
X-117276D01*
X-116425Y38220D01*
X-115662Y38661D01*
X-115039Y39284D01*
X-114598Y40047D01*
X-114370Y40898D01*
Y41779D01*
X-114594Y42616D01*
X-113338Y43873D01*
X-112694D01*
X-112597Y43638D01*
X-112532Y43373D01*
X-112961Y42630D01*
X-113189Y41779D01*
Y40898D01*
X-112961Y40047D01*
X-112520Y39284D01*
X-111897Y38661D01*
X-111134Y38220D01*
X-110283Y37992D01*
X-109402D01*
X-108551Y38220D01*
X-107788Y38661D01*
X-107165Y39284D01*
X-106724Y40047D01*
X-106496Y40898D01*
Y41779D01*
X-106724Y42630D01*
X-107153Y43373D01*
X-107088Y43638D01*
X-106991Y43873D01*
X-103198D01*
X-97773Y38448D01*
X-97350Y38165D01*
X-96850Y38065D01*
X-6052D01*
X-2528Y34541D01*
X-2618Y34203D01*
Y33514D01*
X-2440Y32848D01*
X-2219Y32465D01*
X-2481Y31964D01*
X-2831D01*
Y30134D01*
X-0D01*
X2831D01*
Y31964D01*
X2481D01*
X2218Y32465D01*
X2440Y32848D01*
X2618Y33514D01*
Y34203D01*
X2440Y34869D01*
X2095Y35466D01*
X1608Y35953D01*
X1010Y36298D01*
X345Y36476D01*
X-345D01*
X-683Y36386D01*
X-4589Y40293D01*
X-5013Y40575D01*
X-5512Y40675D01*
X-96310D01*
X-101735Y46100D01*
X-102158Y46382D01*
X-102657Y46482D01*
X-107134D01*
X-107341Y46982D01*
X-107165Y47158D01*
X-106732Y47908D01*
X-49981D01*
X-49927Y47819D01*
X-50075Y47319D01*
X-50075D01*
Y45488D01*
X-47244D01*
X-44414D01*
Y47319D01*
X-44763D01*
X-45026Y47819D01*
X-44804Y48202D01*
X-44626Y48868D01*
Y49557D01*
X-44804Y50223D01*
X-45149Y50820D01*
X-45637Y51308D01*
X-46234Y51652D01*
X-46900Y51831D01*
X-47589D01*
X-48255Y51652D01*
X-48852Y51308D01*
X-49339Y50820D01*
X-49514Y50517D01*
X-106732D01*
X-107165Y51267D01*
X-107341Y51443D01*
X-107134Y51943D01*
X-104028D01*
X-103529Y52043D01*
X-103106Y52325D01*
X-101618Y53813D01*
X-37942D01*
X-34024Y49895D01*
X-34114Y49557D01*
Y48868D01*
X-33936Y48202D01*
X-33715Y47819D01*
X-33977Y47319D01*
X-34327D01*
Y45488D01*
X-31496D01*
X-28665D01*
Y47319D01*
X-29015D01*
X-29278Y47819D01*
X-29057Y48202D01*
X-28878Y48868D01*
Y49557D01*
X-29057Y50223D01*
X-29401Y50820D01*
X-29889Y51308D01*
X-30486Y51652D01*
X-31152Y51831D01*
X-31841D01*
X-32179Y51740D01*
X-36479Y56041D01*
X-36902Y56323D01*
X-37402Y56423D01*
X-102158D01*
X-102657Y56323D01*
X-103081Y56041D01*
X-104569Y54553D01*
X-106991D01*
X-107088Y54787D01*
X-107153Y55053D01*
X-106724Y55795D01*
X-106496Y56646D01*
Y57527D01*
X-106724Y58378D01*
X-107165Y59141D01*
X-107280Y59257D01*
X-107089Y59719D01*
X-31643D01*
X-26119Y54196D01*
X-25696Y53913D01*
X-25197Y53813D01*
X-5659D01*
X-2528Y50683D01*
X-2618Y50345D01*
Y49655D01*
X-2440Y48989D01*
X-2219Y48606D01*
X-2481Y48106D01*
X-2831D01*
Y46276D01*
X-0D01*
X2831D01*
Y48106D01*
X2481D01*
X2218Y48606D01*
X2440Y48989D01*
X2618Y49655D01*
Y50345D01*
X2440Y51011D01*
X2095Y51608D01*
X1608Y52095D01*
X1010Y52440D01*
X345Y52618D01*
X-345D01*
X-683Y52528D01*
X-4196Y56041D01*
X-4619Y56323D01*
X-5118Y56423D01*
X-24656D01*
X-30180Y61946D01*
X-30603Y62229D01*
X-31102Y62328D01*
X-107089D01*
X-107280Y62790D01*
X-107165Y62906D01*
X-106724Y63669D01*
X-106675Y63853D01*
X-18839D01*
X-18579Y63460D01*
Y61630D01*
X-15748D01*
X-12917D01*
Y63461D01*
X-13267D01*
X-13530Y63961D01*
X-13308Y64344D01*
X-13130Y65010D01*
Y65699D01*
X-13308Y66365D01*
X-13653Y66962D01*
X-14141Y67449D01*
X-14738Y67794D01*
X-15403Y67972D01*
X-16093D01*
X-16759Y67794D01*
X-17356Y67449D01*
X-17843Y66962D01*
X-18132Y66462D01*
X-106845D01*
X-107165Y67015D01*
X-107341Y67191D01*
X-107134Y67691D01*
X-104232D01*
X-103733Y67791D01*
X-103310Y68074D01*
X-99853Y71530D01*
X-8021D01*
X-2528Y66037D01*
X-2618Y65699D01*
Y65010D01*
X-2440Y64344D01*
X-2219Y63961D01*
X-2481Y63461D01*
X-2831D01*
Y61630D01*
X-0D01*
X2831D01*
Y63461D01*
X2481D01*
X2218Y63961D01*
X2440Y64344D01*
X2618Y65010D01*
Y65699D01*
X2440Y66365D01*
X2095Y66962D01*
X1608Y67449D01*
X1010Y67794D01*
X345Y67972D01*
X-345D01*
X-683Y67882D01*
X-6558Y73757D01*
X-6981Y74040D01*
X-7480Y74139D01*
D02*
G37*
G36*
X116717Y71835D02*
X114300D01*
X114400Y71461D01*
X114869Y70649D01*
X115531Y69987D01*
X116343Y69518D01*
X116717Y69418D01*
Y71835D01*
D02*
G37*
G36*
X121133D02*
X118717D01*
Y69418D01*
X119090Y69518D01*
X119902Y69987D01*
X120564Y70649D01*
X121033Y71461D01*
X121133Y71835D01*
D02*
G37*
G36*
X2831Y117504D02*
X-0D01*
X-2831D01*
Y115673D01*
X-2481D01*
X-2219Y115173D01*
X-2440Y114790D01*
X-2618Y114124D01*
Y113435D01*
X-2440Y112769D01*
X-2095Y112172D01*
X-1608Y111685D01*
X-1011Y111340D01*
X-345Y111161D01*
X345D01*
X1010Y111340D01*
X1608Y111685D01*
X2095Y112172D01*
X2270Y112475D01*
X58908D01*
X99471Y71912D01*
X99894Y71629D01*
X100394Y71530D01*
X106732D01*
X107165Y70780D01*
X107341Y70604D01*
X107134Y70104D01*
X34941D01*
X34442Y70004D01*
X34018Y69722D01*
X16431Y52134D01*
X16093Y52224D01*
X15403D01*
X14737Y52046D01*
X14140Y51701D01*
X13653Y51214D01*
X13308Y50617D01*
X13130Y49951D01*
Y49262D01*
X13308Y48596D01*
X13530Y48213D01*
X13267Y47712D01*
X12917D01*
Y45882D01*
X15748D01*
Y44882D01*
D01*
Y45882D01*
X18579D01*
Y47712D01*
X18229D01*
X17966Y48213D01*
X18188Y48596D01*
X18366Y49262D01*
Y49951D01*
X18275Y50289D01*
X35481Y67495D01*
X106991D01*
X107088Y67260D01*
X107153Y66995D01*
X106732Y66265D01*
X46850D01*
X46351Y66166D01*
X45928Y65883D01*
X32179Y52134D01*
X31841Y52224D01*
X31151D01*
X30485Y52046D01*
X29888Y51701D01*
X29401Y51214D01*
X29056Y50617D01*
X28878Y49951D01*
Y49262D01*
X29056Y48596D01*
X29278Y48213D01*
X29015Y47712D01*
X28665D01*
Y45882D01*
X31496D01*
X34327D01*
Y47712D01*
X33977D01*
X33714Y48213D01*
X33936Y48596D01*
X34114Y49262D01*
Y49951D01*
X34023Y50289D01*
X47391Y63656D01*
X106732D01*
X107165Y62906D01*
X107280Y62790D01*
X107089Y62328D01*
X58661D01*
X58162Y62229D01*
X57739Y61946D01*
X47927Y52134D01*
X47589Y52224D01*
X46899D01*
X46233Y52046D01*
X45636Y51701D01*
X45149Y51214D01*
X44804Y50617D01*
X44626Y49951D01*
Y49262D01*
X44804Y48596D01*
X45026Y48213D01*
X44763Y47712D01*
X44413D01*
Y45882D01*
X47244D01*
X50075D01*
Y47712D01*
X49725D01*
X49463Y48213D01*
X49684Y48596D01*
X49862Y49262D01*
Y49951D01*
X49772Y50289D01*
X59202Y59719D01*
X107089D01*
X107280Y59257D01*
X107165Y59141D01*
X106732Y58391D01*
X69648D01*
X69149Y58292D01*
X68726Y58009D01*
X51392Y40675D01*
X21260D01*
X20761Y40575D01*
X20337Y40293D01*
X16431Y36386D01*
X16093Y36476D01*
X15403D01*
X14737Y36298D01*
X14140Y35953D01*
X13653Y35466D01*
X13308Y34869D01*
X13130Y34203D01*
Y33514D01*
X13308Y32848D01*
X13530Y32465D01*
X13267Y31964D01*
X12917D01*
Y30134D01*
X15748D01*
X18579D01*
Y31964D01*
X18229D01*
X17966Y32465D01*
X18188Y32848D01*
X18366Y33514D01*
Y34203D01*
X18275Y34541D01*
X21800Y38065D01*
X51932D01*
X52431Y38165D01*
X52854Y38448D01*
X70189Y55782D01*
X106732D01*
X107165Y55032D01*
X107788Y54409D01*
X108551Y53968D01*
X109402Y53740D01*
X110283D01*
X111134Y53968D01*
X111897Y54409D01*
X112520Y55032D01*
X112961Y55795D01*
X113189Y56646D01*
Y57527D01*
X112961Y58378D01*
X112520Y59141D01*
X112405Y59257D01*
X112596Y59719D01*
X113239D01*
X114594Y58364D01*
X114370Y57527D01*
Y56646D01*
X114598Y55795D01*
X115039Y55032D01*
X115662Y54409D01*
X116425Y53968D01*
X117276Y53740D01*
X118157D01*
X119008Y53968D01*
X119771Y54409D01*
X120394Y55032D01*
X120835Y55795D01*
X121063Y56646D01*
Y57527D01*
X120835Y58378D01*
X120394Y59141D01*
X119771Y59764D01*
X119008Y60205D01*
X118157Y60433D01*
X117276D01*
X116439Y60209D01*
X114702Y61946D01*
X114279Y62229D01*
X113779Y62328D01*
X112596D01*
X112405Y62790D01*
X112520Y62906D01*
X112961Y63669D01*
X113189Y64520D01*
Y65401D01*
X112961Y66252D01*
X112532Y66995D01*
X112597Y67260D01*
X112694Y67495D01*
X113338D01*
X114594Y66238D01*
X114370Y65401D01*
Y64520D01*
X114598Y63669D01*
X115039Y62906D01*
X115662Y62283D01*
X116425Y61842D01*
X117276Y61614D01*
X118157D01*
X119008Y61842D01*
X119771Y62283D01*
X120394Y62906D01*
X120835Y63669D01*
X121063Y64520D01*
Y65401D01*
X120835Y66252D01*
X120394Y67015D01*
X119771Y67638D01*
X119008Y68079D01*
X118157Y68307D01*
X117276D01*
X116439Y68083D01*
X114800Y69722D01*
X114377Y70004D01*
X113878Y70104D01*
X112551D01*
X112344Y70604D01*
X112520Y70780D01*
X112961Y71543D01*
X113189Y72394D01*
Y73275D01*
X112961Y74126D01*
X112520Y74889D01*
X111897Y75512D01*
X111134Y75953D01*
X110283Y76181D01*
X109402D01*
X108551Y75953D01*
X107788Y75512D01*
X107165Y74889D01*
X106732Y74139D01*
X100934D01*
X60371Y114702D01*
X59948Y114985D01*
X59449Y115084D01*
X2736D01*
X2682Y115173D01*
X2831Y115673D01*
X2831D01*
Y117504D01*
D02*
G37*
G36*
X18579Y59630D02*
X16748D01*
Y57799D01*
X18579D01*
Y59630D01*
D02*
G37*
G36*
X14748D02*
X12917D01*
Y57799D01*
X14748D01*
Y59630D01*
D02*
G37*
G36*
X2831D02*
X1000D01*
Y57799D01*
X2831D01*
Y59630D01*
D02*
G37*
G36*
X-1000D02*
X-2831D01*
Y57799D01*
X-1000D01*
Y59630D01*
D02*
G37*
G36*
X-12917D02*
X-14748D01*
Y57799D01*
X-12917D01*
Y59630D01*
D02*
G37*
G36*
X-16748D02*
X-18579D01*
Y57799D01*
X-16748D01*
Y59630D01*
D02*
G37*
G36*
X118157Y52559D02*
X117276D01*
X116425Y52331D01*
X115662Y51890D01*
X115039Y51267D01*
X114598Y50504D01*
X114370Y49653D01*
Y48772D01*
X114598Y47921D01*
X115039Y47158D01*
X115662Y46535D01*
X116425Y46094D01*
X117276Y45866D01*
X118157D01*
X119008Y46094D01*
X119771Y46535D01*
X120394Y47158D01*
X120835Y47921D01*
X121063Y48772D01*
Y49653D01*
X120835Y50504D01*
X120394Y51267D01*
X119771Y51890D01*
X119008Y52331D01*
X118157Y52559D01*
D02*
G37*
G36*
X-15403Y51831D02*
X-16093D01*
X-16759Y51652D01*
X-17356Y51308D01*
X-17843Y50820D01*
X-18188Y50223D01*
X-18366Y49557D01*
Y48868D01*
X-18188Y48202D01*
X-17967Y47819D01*
X-18229Y47319D01*
X-18579D01*
Y45488D01*
X-15748D01*
X-12917D01*
Y47319D01*
X-13267D01*
X-13530Y47819D01*
X-13308Y48202D01*
X-13130Y48868D01*
Y49557D01*
X-13308Y50223D01*
X-13653Y50820D01*
X-14141Y51308D01*
X-14738Y51652D01*
X-15403Y51831D01*
D02*
G37*
G36*
X2831Y44276D02*
X1000D01*
Y42445D01*
X2831D01*
Y44276D01*
D02*
G37*
G36*
X-1000D02*
X-2831D01*
Y42445D01*
X-1000D01*
Y44276D01*
D02*
G37*
G36*
X50075Y43882D02*
X48244D01*
Y42051D01*
X50075D01*
Y43882D01*
D02*
G37*
G36*
X46244D02*
X44413D01*
Y42051D01*
X46244D01*
Y43882D01*
D02*
G37*
G36*
X34327D02*
X32496D01*
Y42051D01*
X34327D01*
Y43882D01*
D02*
G37*
G36*
X30496D02*
X28665D01*
Y42051D01*
X30496D01*
Y43882D01*
D02*
G37*
G36*
X18579D02*
X16748D01*
Y42051D01*
X18579D01*
Y43882D01*
D02*
G37*
G36*
X14748D02*
X12917D01*
Y42051D01*
X14748D01*
Y43882D01*
D02*
G37*
G36*
X-12917Y43488D02*
X-14748D01*
Y41658D01*
X-12917D01*
Y43488D01*
D02*
G37*
G36*
X-16748D02*
X-18579D01*
Y41658D01*
X-16748D01*
Y43488D01*
D02*
G37*
G36*
X-28665D02*
X-30496D01*
Y41658D01*
X-28665D01*
Y43488D01*
D02*
G37*
G36*
X-32496D02*
X-34327D01*
Y41658D01*
X-32496D01*
Y43488D01*
D02*
G37*
G36*
X-44414D02*
X-46244D01*
Y41658D01*
X-44414D01*
Y43488D01*
D02*
G37*
G36*
X-48244D02*
X-50075D01*
Y41658D01*
X-48244D01*
Y43488D01*
D02*
G37*
G36*
X110283Y52559D02*
X109402D01*
X108551Y52331D01*
X107788Y51890D01*
X107165Y51267D01*
X106732Y50517D01*
X69907D01*
X69408Y50418D01*
X68985Y50135D01*
X54012Y35163D01*
X49514D01*
X49339Y35466D01*
X48852Y35953D01*
X48255Y36298D01*
X47589Y36476D01*
X46899D01*
X46233Y36298D01*
X45636Y35953D01*
X45149Y35466D01*
X44804Y34869D01*
X44626Y34203D01*
Y33514D01*
X44804Y32848D01*
X45026Y32465D01*
X44763Y31964D01*
X44413D01*
Y30134D01*
X47244D01*
X50075D01*
Y31964D01*
X50075D01*
X49927Y32465D01*
X49980Y32554D01*
X54553D01*
X55052Y32653D01*
X55475Y32936D01*
X70447Y47908D01*
X106732D01*
X107165Y47158D01*
X107341Y46982D01*
X107134Y46482D01*
X72704D01*
X72204Y46382D01*
X71781Y46100D01*
X50608Y24927D01*
X21260D01*
X20761Y24827D01*
X20337Y24544D01*
X16431Y20638D01*
X16093Y20728D01*
X15403D01*
X14737Y20550D01*
X14140Y20205D01*
X13653Y19718D01*
X13308Y19121D01*
X13130Y18455D01*
Y17765D01*
X13308Y17100D01*
X13530Y16716D01*
X13267Y16217D01*
X12917D01*
Y14386D01*
X15748D01*
X18579D01*
Y16217D01*
X18229D01*
X17966Y16716D01*
X18188Y17100D01*
X18366Y17765D01*
Y18455D01*
X18275Y18793D01*
X21800Y22318D01*
X51148D01*
X51648Y22417D01*
X52071Y22700D01*
X73244Y43873D01*
X106991D01*
X107088Y43638D01*
X107153Y43373D01*
X106724Y42630D01*
X106496Y41779D01*
Y40898D01*
X106724Y40047D01*
X107165Y39284D01*
X107280Y39168D01*
X107089Y38706D01*
X72421D01*
X71922Y38607D01*
X71499Y38324D01*
X52589Y19415D01*
X49514D01*
X49339Y19718D01*
X48852Y20205D01*
X48255Y20550D01*
X47589Y20728D01*
X46899D01*
X46233Y20550D01*
X45636Y20205D01*
X45149Y19718D01*
X44804Y19121D01*
X44626Y18455D01*
Y17765D01*
X44804Y17100D01*
X45026Y16716D01*
X44763Y16217D01*
X44413D01*
Y14386D01*
X47244D01*
X50075D01*
Y16217D01*
X50075D01*
X49927Y16716D01*
X49980Y16806D01*
X53130D01*
X53629Y16905D01*
X54052Y17188D01*
X72962Y36097D01*
X107089D01*
X107280Y35635D01*
X107165Y35519D01*
X106732Y34769D01*
X85039D01*
X84540Y34670D01*
X84117Y34387D01*
X69145Y19415D01*
X65262D01*
X65087Y19718D01*
X64600Y20205D01*
X64003Y20550D01*
X63337Y20728D01*
X62647D01*
X61981Y20550D01*
X61384Y20205D01*
X60897Y19718D01*
X60552Y19121D01*
X60374Y18455D01*
Y17765D01*
X60552Y17100D01*
X60774Y16716D01*
X60511Y16217D01*
X60161D01*
Y14386D01*
X62992D01*
X65823D01*
Y16217D01*
X65823D01*
X65675Y16716D01*
X65728Y16806D01*
X69685D01*
X70184Y16905D01*
X70608Y17188D01*
X85580Y32160D01*
X106732D01*
X107165Y31410D01*
X107788Y30787D01*
X108551Y30346D01*
X109402Y30118D01*
X110283D01*
X111134Y30346D01*
X111897Y30787D01*
X112520Y31410D01*
X112961Y32173D01*
X113189Y33024D01*
Y33905D01*
X112961Y34756D01*
X112520Y35519D01*
X112405Y35635D01*
X112596Y36097D01*
X113239D01*
X114594Y34742D01*
X114370Y33905D01*
Y33024D01*
X114598Y32173D01*
X115039Y31410D01*
X115662Y30787D01*
X116425Y30346D01*
X117276Y30118D01*
X118157D01*
X119008Y30346D01*
X119771Y30787D01*
X120394Y31410D01*
X120835Y32173D01*
X121063Y33024D01*
Y33905D01*
X120835Y34756D01*
X120394Y35519D01*
X119771Y36142D01*
X119008Y36583D01*
X118157Y36811D01*
X117276D01*
X116439Y36587D01*
X114702Y38324D01*
X114279Y38607D01*
X113779Y38706D01*
X112596D01*
X112405Y39168D01*
X112520Y39284D01*
X112961Y40047D01*
X113189Y40898D01*
Y41779D01*
X112961Y42630D01*
X112532Y43373D01*
X112597Y43638D01*
X112694Y43873D01*
X113338D01*
X114594Y42616D01*
X114370Y41779D01*
Y40898D01*
X114598Y40047D01*
X115039Y39284D01*
X115662Y38661D01*
X116425Y38220D01*
X117276Y37992D01*
X118157D01*
X119008Y38220D01*
X119771Y38661D01*
X120394Y39284D01*
X120835Y40047D01*
X121063Y40898D01*
Y41779D01*
X120835Y42630D01*
X120394Y43393D01*
X119771Y44016D01*
X119008Y44457D01*
X118157Y44685D01*
X117276D01*
X116439Y44461D01*
X114800Y46100D01*
X114377Y46382D01*
X113878Y46482D01*
X112551D01*
X112344Y46982D01*
X112520Y47158D01*
X112961Y47921D01*
X113189Y48772D01*
Y49653D01*
X112961Y50504D01*
X112520Y51267D01*
X111897Y51890D01*
X111134Y52331D01*
X110283Y52559D01*
D02*
G37*
G36*
X-15403Y36476D02*
X-16093D01*
X-16759Y36298D01*
X-17356Y35953D01*
X-17843Y35466D01*
X-18188Y34869D01*
X-18366Y34203D01*
Y33514D01*
X-18188Y32848D01*
X-17967Y32465D01*
X-18229Y31964D01*
X-18579D01*
Y30134D01*
X-15748D01*
X-12917D01*
Y31964D01*
X-13267D01*
X-13530Y32465D01*
X-13308Y32848D01*
X-13130Y33514D01*
Y34203D01*
X-13308Y34869D01*
X-13653Y35466D01*
X-14141Y35953D01*
X-14738Y36298D01*
X-15403Y36476D01*
D02*
G37*
G36*
X31841D02*
X31151D01*
X30485Y36298D01*
X29888Y35953D01*
X29401Y35466D01*
X29056Y34869D01*
X28878Y34203D01*
Y33514D01*
X29056Y32848D01*
X29278Y32465D01*
X29015Y31964D01*
X28665D01*
Y30134D01*
X31496D01*
X34327D01*
Y31964D01*
X33977D01*
X33714Y32465D01*
X33936Y32848D01*
X34114Y33514D01*
Y34203D01*
X33936Y34869D01*
X33591Y35466D01*
X33103Y35953D01*
X32506Y36298D01*
X31841Y36476D01*
D02*
G37*
G36*
X-31152D02*
X-31841D01*
X-32507Y36298D01*
X-33104Y35953D01*
X-33591Y35466D01*
X-33936Y34869D01*
X-34114Y34203D01*
Y33514D01*
X-33936Y32848D01*
X-33715Y32465D01*
X-33977Y31964D01*
X-34327D01*
Y30134D01*
X-31496D01*
X-28665D01*
Y31964D01*
X-29015D01*
X-29278Y32465D01*
X-29057Y32848D01*
X-28878Y33514D01*
Y34203D01*
X-29057Y34869D01*
X-29401Y35466D01*
X-29889Y35953D01*
X-30486Y36298D01*
X-31152Y36476D01*
D02*
G37*
G36*
X-109402Y36811D02*
X-110283D01*
X-111134Y36583D01*
X-111897Y36142D01*
X-112520Y35519D01*
X-112961Y34756D01*
X-113189Y33905D01*
Y33024D01*
X-112961Y32173D01*
X-112520Y31410D01*
X-112344Y31234D01*
X-112551Y30734D01*
X-113878D01*
X-114377Y30634D01*
X-114801Y30352D01*
X-116439Y28713D01*
X-117276Y28937D01*
X-118157D01*
X-119008Y28709D01*
X-119771Y28268D01*
X-120394Y27645D01*
X-120835Y26882D01*
X-121063Y26031D01*
Y25150D01*
X-120835Y24299D01*
X-120394Y23536D01*
X-119771Y22913D01*
X-119008Y22472D01*
X-118157Y22244D01*
X-117276D01*
X-116425Y22472D01*
X-115662Y22913D01*
X-115039Y23536D01*
X-114598Y24299D01*
X-114370Y25150D01*
Y26031D01*
X-114594Y26868D01*
X-113338Y28124D01*
X-112694D01*
X-112597Y27890D01*
X-112532Y27624D01*
X-112961Y26882D01*
X-113189Y26031D01*
Y25150D01*
X-112961Y24299D01*
X-112520Y23536D01*
X-111897Y22913D01*
X-111134Y22472D01*
X-110283Y22244D01*
X-109402D01*
X-108551Y22472D01*
X-107788Y22913D01*
X-107165Y23536D01*
X-106724Y24299D01*
X-106496Y25150D01*
Y26031D01*
X-106724Y26882D01*
X-107153Y27624D01*
X-107088Y27890D01*
X-106991Y28124D01*
X-59103D01*
X-53678Y22700D01*
X-53255Y22417D01*
X-52756Y22318D01*
X-5658D01*
X-2528Y19187D01*
X-2618Y18849D01*
Y18159D01*
X-2440Y17493D01*
X-2219Y17110D01*
X-2481Y16610D01*
X-2831D01*
Y14780D01*
X-0D01*
X2831D01*
Y16610D01*
X2481D01*
X2218Y17110D01*
X2440Y17493D01*
X2618Y18159D01*
Y18849D01*
X2440Y19514D01*
X2095Y20111D01*
X1608Y20599D01*
X1010Y20944D01*
X345Y21122D01*
X-345D01*
X-683Y21032D01*
X-4196Y24544D01*
X-4619Y24827D01*
X-5118Y24927D01*
X-52215D01*
X-57640Y30352D01*
X-58064Y30634D01*
X-58563Y30734D01*
X-107134D01*
X-107341Y31234D01*
X-107165Y31410D01*
X-106724Y32173D01*
X-106675Y32357D01*
X-50335D01*
X-50075Y31964D01*
Y30134D01*
X-47244D01*
X-44414D01*
Y31964D01*
X-44763D01*
X-45026Y32465D01*
X-44804Y32848D01*
X-44626Y33514D01*
Y34203D01*
X-44804Y34869D01*
X-45149Y35466D01*
X-45637Y35953D01*
X-46234Y36298D01*
X-46900Y36476D01*
X-47589D01*
X-48255Y36298D01*
X-48852Y35953D01*
X-49339Y35466D01*
X-49628Y34966D01*
X-106845D01*
X-107165Y35519D01*
X-107788Y36142D01*
X-108551Y36583D01*
X-109402Y36811D01*
D02*
G37*
G36*
X-117276D02*
X-118157D01*
X-119008Y36583D01*
X-119771Y36142D01*
X-120394Y35519D01*
X-120835Y34756D01*
X-121063Y33905D01*
Y33024D01*
X-120835Y32173D01*
X-120394Y31410D01*
X-119771Y30787D01*
X-119008Y30346D01*
X-118157Y30118D01*
X-117276D01*
X-116425Y30346D01*
X-115662Y30787D01*
X-115039Y31410D01*
X-114598Y32173D01*
X-114370Y33024D01*
Y33905D01*
X-114598Y34756D01*
X-115039Y35519D01*
X-115662Y36142D01*
X-116425Y36583D01*
X-117276Y36811D01*
D02*
G37*
G36*
X50075Y28134D02*
X48244D01*
Y26303D01*
X50075D01*
Y28134D01*
D02*
G37*
G36*
X46244D02*
X44413D01*
Y26303D01*
X46244D01*
Y28134D01*
D02*
G37*
G36*
X34327D02*
X32496D01*
Y26303D01*
X34327D01*
Y28134D01*
D02*
G37*
G36*
X30496D02*
X28665D01*
Y26303D01*
X30496D01*
Y28134D01*
D02*
G37*
G36*
X18579D02*
X16748D01*
Y26303D01*
X18579D01*
Y28134D01*
D02*
G37*
G36*
X14748D02*
X12917D01*
Y26303D01*
X14748D01*
Y28134D01*
D02*
G37*
G36*
X2831D02*
X1000D01*
Y26303D01*
X2831D01*
Y28134D01*
D02*
G37*
G36*
X-1000D02*
X-2831D01*
Y26303D01*
X-1000D01*
Y28134D01*
D02*
G37*
G36*
X-12917D02*
X-14748D01*
Y26303D01*
X-12917D01*
Y28134D01*
D02*
G37*
G36*
X-16748D02*
X-18579D01*
Y26303D01*
X-16748D01*
Y28134D01*
D02*
G37*
G36*
X-28665D02*
X-30496D01*
Y26303D01*
X-28665D01*
Y28134D01*
D02*
G37*
G36*
X-32496D02*
X-34327D01*
Y26303D01*
X-32496D01*
Y28134D01*
D02*
G37*
G36*
X-44414D02*
X-46244D01*
Y26303D01*
X-44414D01*
Y28134D01*
D02*
G37*
G36*
X-48244D02*
X-50075D01*
Y26303D01*
X-48244D01*
Y28134D01*
D02*
G37*
G36*
X118157Y28937D02*
X117276D01*
X116425Y28709D01*
X115662Y28268D01*
X115039Y27645D01*
X114598Y26882D01*
X114370Y26031D01*
Y25150D01*
X114598Y24299D01*
X115039Y23536D01*
X115662Y22913D01*
X116425Y22472D01*
X117276Y22244D01*
X118157D01*
X119008Y22472D01*
X119771Y22913D01*
X120394Y23536D01*
X120835Y24299D01*
X121063Y25150D01*
Y26031D01*
X120835Y26882D01*
X120394Y27645D01*
X119771Y28268D01*
X119008Y28709D01*
X118157Y28937D01*
D02*
G37*
G36*
X110283D02*
X109402D01*
X108551Y28709D01*
X107788Y28268D01*
X107165Y27645D01*
X106724Y26882D01*
X106496Y26031D01*
Y25150D01*
X106724Y24299D01*
X107165Y23536D01*
X107788Y22913D01*
X108551Y22472D01*
X109402Y22244D01*
X110283D01*
X111134Y22472D01*
X111897Y22913D01*
X112520Y23536D01*
X112961Y24299D01*
X113189Y25150D01*
Y26031D01*
X112961Y26882D01*
X112520Y27645D01*
X111897Y28268D01*
X111134Y28709D01*
X110283Y28937D01*
D02*
G37*
G36*
X118157Y21063D02*
X117276D01*
X116425Y20835D01*
X115662Y20394D01*
X115039Y19771D01*
X114598Y19008D01*
X114370Y18157D01*
Y17276D01*
X114594Y16439D01*
X113141Y14986D01*
X112551D01*
X112344Y15486D01*
X112520Y15662D01*
X112961Y16425D01*
X113189Y17276D01*
Y18157D01*
X112961Y19008D01*
X112520Y19771D01*
X111897Y20394D01*
X111134Y20835D01*
X110283Y21063D01*
X109402D01*
X108551Y20835D01*
X107788Y20394D01*
X107165Y19771D01*
X106732Y19021D01*
X84646D01*
X84146Y18922D01*
X83723Y18639D01*
X74263Y9179D01*
X21260D01*
X20761Y9079D01*
X20337Y8796D01*
X16431Y4890D01*
X16093Y4980D01*
X15403D01*
X14737Y4802D01*
X14140Y4457D01*
X13653Y3970D01*
X13308Y3373D01*
X13130Y2707D01*
Y2017D01*
X13308Y1352D01*
X13530Y968D01*
X13267Y468D01*
X12917D01*
Y-1362D01*
X15748D01*
Y-2362D01*
D01*
Y-1362D01*
X18579D01*
Y468D01*
X18229D01*
X17966Y968D01*
X18188Y1352D01*
X18366Y2017D01*
Y2707D01*
X18275Y3045D01*
X21800Y6569D01*
X74803D01*
X75302Y6669D01*
X75726Y6951D01*
X85186Y16412D01*
X106732D01*
X107165Y15662D01*
X107341Y15486D01*
X107134Y14986D01*
X104232D01*
X103733Y14886D01*
X103310Y14604D01*
X92373Y3667D01*
X65262D01*
X65087Y3970D01*
X64600Y4457D01*
X64003Y4802D01*
X63337Y4980D01*
X62647D01*
X61981Y4802D01*
X61384Y4457D01*
X60897Y3970D01*
X60552Y3373D01*
X60374Y2707D01*
Y2017D01*
X60552Y1352D01*
X60774Y968D01*
X60511Y468D01*
X60161D01*
Y-1362D01*
X62992D01*
X65823D01*
Y468D01*
X65823D01*
X65675Y968D01*
X65728Y1058D01*
X92913D01*
X93413Y1157D01*
X93836Y1440D01*
X104773Y12376D01*
X106690D01*
X106907Y11876D01*
X106526Y11216D01*
X106426Y10842D01*
X109843D01*
X113259D01*
X113159Y11216D01*
X112778Y11876D01*
X112995Y12376D01*
X113681D01*
X114180Y12476D01*
X114604Y12759D01*
X116439Y14594D01*
X117276Y14370D01*
X118157D01*
X119008Y14598D01*
X119771Y15039D01*
X120394Y15662D01*
X120835Y16425D01*
X121063Y17276D01*
Y18157D01*
X120835Y19008D01*
X120394Y19771D01*
X119771Y20394D01*
X119008Y20835D01*
X118157Y21063D01*
D02*
G37*
G36*
X31841Y20728D02*
X31151D01*
X30485Y20550D01*
X29888Y20205D01*
X29401Y19718D01*
X29056Y19121D01*
X28878Y18455D01*
Y17765D01*
X29056Y17100D01*
X29278Y16716D01*
X29015Y16217D01*
X28665D01*
Y14386D01*
X31496D01*
X34327D01*
Y16217D01*
X33977D01*
X33714Y16716D01*
X33936Y17100D01*
X34114Y17765D01*
Y18455D01*
X33936Y19121D01*
X33591Y19718D01*
X33103Y20205D01*
X32506Y20550D01*
X31841Y20728D01*
D02*
G37*
G36*
X-117276Y21063D02*
X-118157D01*
X-119008Y20835D01*
X-119771Y20394D01*
X-120394Y19771D01*
X-120835Y19008D01*
X-121063Y18157D01*
Y17276D01*
X-120835Y16425D01*
X-120394Y15662D01*
X-119771Y15039D01*
X-119008Y14598D01*
X-118157Y14370D01*
X-117276D01*
X-116425Y14598D01*
X-115662Y15039D01*
X-115039Y15662D01*
X-114598Y16425D01*
X-114370Y17276D01*
Y18157D01*
X-114598Y19008D01*
X-115039Y19771D01*
X-115662Y20394D01*
X-116425Y20835D01*
X-117276Y21063D01*
D02*
G37*
G36*
X-62647Y20335D02*
X-63337D01*
X-64003Y20156D01*
X-64600Y19812D01*
X-65087Y19324D01*
X-65262Y19021D01*
X-98425D01*
X-98924Y18922D01*
X-99348Y18639D01*
X-106410Y11577D01*
X-107018Y11644D01*
X-107165Y11897D01*
X-107788Y12520D01*
X-108551Y12961D01*
X-109402Y13189D01*
X-110283D01*
X-111134Y12961D01*
X-111897Y12520D01*
X-112520Y11897D01*
X-112961Y11134D01*
X-113189Y10283D01*
Y9402D01*
X-112961Y8551D01*
X-112520Y7788D01*
X-111897Y7165D01*
X-111134Y6724D01*
X-110283Y6496D01*
X-109402D01*
X-108551Y6724D01*
X-107788Y7165D01*
X-107165Y7788D01*
X-106724Y8551D01*
X-106675Y8735D01*
X-106102D01*
X-105603Y8834D01*
X-105180Y9117D01*
X-97885Y16412D01*
X-65729D01*
X-65675Y16323D01*
X-65823Y15823D01*
X-65823D01*
Y13992D01*
X-62992D01*
X-60162D01*
Y15823D01*
X-60511D01*
X-60774Y16323D01*
X-60553Y16706D01*
X-60374Y17372D01*
Y18061D01*
X-60553Y18727D01*
X-60897Y19324D01*
X-61385Y19812D01*
X-61982Y20156D01*
X-62647Y20335D01*
D02*
G37*
G36*
X-60532Y25591D02*
X-99730D01*
X-100229Y25491D01*
X-100652Y25208D01*
X-106410Y19451D01*
X-107018Y19518D01*
X-107165Y19771D01*
X-107788Y20394D01*
X-108551Y20835D01*
X-109402Y21063D01*
X-110283D01*
X-111134Y20835D01*
X-111897Y20394D01*
X-112520Y19771D01*
X-112961Y19008D01*
X-113189Y18157D01*
Y17276D01*
X-112961Y16425D01*
X-112520Y15662D01*
X-111897Y15039D01*
X-111134Y14598D01*
X-110283Y14370D01*
X-109402D01*
X-108551Y14598D01*
X-107788Y15039D01*
X-107165Y15662D01*
X-106724Y16425D01*
X-106675Y16609D01*
X-106102D01*
X-105603Y16708D01*
X-105180Y16991D01*
X-99189Y22981D01*
X-61072D01*
X-54884Y16794D01*
X-54461Y16511D01*
X-53962Y16412D01*
X-49981D01*
X-49927Y16323D01*
X-50075Y15823D01*
X-50075D01*
Y13992D01*
X-47244D01*
X-44414D01*
Y15823D01*
X-44763D01*
X-45026Y16323D01*
X-44804Y16706D01*
X-44626Y17372D01*
Y18061D01*
X-44804Y18727D01*
X-45149Y19324D01*
X-45637Y19812D01*
X-46234Y20156D01*
X-46900Y20335D01*
X-47589D01*
X-48255Y20156D01*
X-48852Y19812D01*
X-49339Y19324D01*
X-49514Y19021D01*
X-53422D01*
X-59609Y25208D01*
X-60032Y25491D01*
X-60115Y25508D01*
X-60532Y25591D01*
D02*
G37*
G36*
X-15403Y20335D02*
X-16093D01*
X-16759Y20156D01*
X-17356Y19812D01*
X-17843Y19324D01*
X-18188Y18727D01*
X-18366Y18061D01*
Y17372D01*
X-18188Y16706D01*
X-17967Y16323D01*
X-18229Y15823D01*
X-18579D01*
Y13992D01*
X-15748D01*
X-12917D01*
Y15823D01*
X-13267D01*
X-13530Y16323D01*
X-13308Y16706D01*
X-13130Y17372D01*
Y18061D01*
X-13308Y18727D01*
X-13653Y19324D01*
X-14141Y19812D01*
X-14738Y20156D01*
X-15403Y20335D01*
D02*
G37*
G36*
X-31152D02*
X-31841D01*
X-32507Y20156D01*
X-33104Y19812D01*
X-33591Y19324D01*
X-33936Y18727D01*
X-34114Y18061D01*
Y17372D01*
X-33936Y16706D01*
X-33715Y16323D01*
X-33977Y15823D01*
X-34327D01*
Y13992D01*
X-31496D01*
X-28665D01*
Y15823D01*
X-29015D01*
X-29278Y16323D01*
X-29057Y16706D01*
X-28878Y17372D01*
Y18061D01*
X-29057Y18727D01*
X-29401Y19324D01*
X-29889Y19812D01*
X-30486Y20156D01*
X-31152Y20335D01*
D02*
G37*
G36*
X2831Y12780D02*
X1000D01*
Y10949D01*
X2831D01*
Y12780D01*
D02*
G37*
G36*
X-1000D02*
X-2831D01*
Y10949D01*
X-1000D01*
Y12780D01*
D02*
G37*
G36*
X-116717Y13259D02*
Y10842D01*
X-114300D01*
X-114400Y11216D01*
X-114869Y12028D01*
X-115531Y12690D01*
X-116343Y13159D01*
X-116717Y13259D01*
D02*
G37*
G36*
X-118717D02*
X-119090Y13159D01*
X-119902Y12690D01*
X-120564Y12028D01*
X-121033Y11216D01*
X-121133Y10842D01*
X-118717D01*
Y13259D01*
D02*
G37*
G36*
X65823Y12386D02*
X63992D01*
Y10555D01*
X65823D01*
Y12386D01*
D02*
G37*
G36*
X61992D02*
X60161D01*
Y10555D01*
X61992D01*
Y12386D01*
D02*
G37*
G36*
X50075D02*
X48244D01*
Y10555D01*
X50075D01*
Y12386D01*
D02*
G37*
G36*
X46244D02*
X44413D01*
Y10555D01*
X46244D01*
Y12386D01*
D02*
G37*
G36*
X34327D02*
X32496D01*
Y10555D01*
X34327D01*
Y12386D01*
D02*
G37*
G36*
X30496D02*
X28665D01*
Y10555D01*
X30496D01*
Y12386D01*
D02*
G37*
G36*
X18579D02*
X16748D01*
Y10555D01*
X18579D01*
Y12386D01*
D02*
G37*
G36*
X14748D02*
X12917D01*
Y10555D01*
X14748D01*
Y12386D01*
D02*
G37*
G36*
X-12917Y11992D02*
X-14748D01*
Y10161D01*
X-12917D01*
Y11992D01*
D02*
G37*
G36*
X-16748D02*
X-18579D01*
Y10161D01*
X-16748D01*
Y11992D01*
D02*
G37*
G36*
X-28665D02*
X-30496D01*
Y10161D01*
X-28665D01*
Y11992D01*
D02*
G37*
G36*
X-32496D02*
X-34327D01*
Y10161D01*
X-32496D01*
Y11992D01*
D02*
G37*
G36*
X-44414D02*
X-46244D01*
Y10161D01*
X-44414D01*
Y11992D01*
D02*
G37*
G36*
X-48244D02*
X-50075D01*
Y10161D01*
X-48244D01*
Y11992D01*
D02*
G37*
G36*
X-60162D02*
X-61992D01*
Y10161D01*
X-60162D01*
Y11992D01*
D02*
G37*
G36*
X-63992D02*
X-65823D01*
Y10161D01*
X-63992D01*
Y11992D01*
D02*
G37*
G36*
X113259Y8843D02*
X110843D01*
Y6426D01*
X111216Y6526D01*
X112028Y6995D01*
X112690Y7657D01*
X113159Y8469D01*
X113259Y8843D01*
D02*
G37*
G36*
X108843D02*
X106426D01*
X106526Y8469D01*
X106995Y7657D01*
X107657Y6995D01*
X108469Y6526D01*
X108843Y6426D01*
Y8843D01*
D02*
G37*
G36*
X-114300D02*
X-116717D01*
Y6426D01*
X-116343Y6526D01*
X-115531Y6995D01*
X-114869Y7657D01*
X-114400Y8469D01*
X-114300Y8843D01*
D02*
G37*
G36*
X-118717D02*
X-121133D01*
X-121033Y8469D01*
X-120564Y7657D01*
X-119902Y6995D01*
X-119090Y6526D01*
X-118717Y6426D01*
Y8843D01*
D02*
G37*
G36*
X-44414Y5193D02*
X-46244D01*
Y3362D01*
X-44414D01*
Y5193D01*
D02*
G37*
G36*
X-60162D02*
X-61992D01*
Y3362D01*
X-60162D01*
Y5193D01*
D02*
G37*
G36*
X2831D02*
X1000D01*
Y3362D01*
X2831D01*
Y5193D01*
D02*
G37*
G36*
X-28665D02*
X-30496D01*
Y3362D01*
X-28665D01*
Y5193D01*
D02*
G37*
G36*
X-48244D02*
X-50075D01*
Y3362D01*
X-48244D01*
Y5193D01*
D02*
G37*
G36*
X-63992D02*
X-65823D01*
Y3362D01*
X-63992D01*
Y5193D01*
D02*
G37*
G36*
X-1000D02*
X-2831D01*
Y3362D01*
X-1000D01*
Y5193D01*
D02*
G37*
G36*
X-32496D02*
X-34327D01*
Y3362D01*
X-32496D01*
Y5193D01*
D02*
G37*
G36*
X160252Y13795D02*
X147457D01*
Y1000D01*
X160252D01*
Y13795D01*
D02*
G37*
G36*
X145457D02*
X132661D01*
Y1000D01*
X145457D01*
Y13795D01*
D02*
G37*
G36*
X-132661D02*
X-145457D01*
Y1000D01*
X-132661D01*
Y13795D01*
D02*
G37*
G36*
X-147457D02*
X-160252D01*
Y1000D01*
X-147457D01*
Y13795D01*
D02*
G37*
G36*
X-21260Y9078D02*
X-21260Y9078D01*
X-82677D01*
X-83138Y8987D01*
X-83529Y8726D01*
X-83529Y8726D01*
X-104731Y-12477D01*
X-106809D01*
X-106849Y-12379D01*
X-106965Y-11977D01*
X-106526Y-11216D01*
X-106426Y-10842D01*
X-109843D01*
X-113259D01*
X-113159Y-11216D01*
X-112720Y-11977D01*
X-112836Y-12379D01*
X-112876Y-12477D01*
X-113091D01*
X-113091Y-12477D01*
X-113551Y-12569D01*
X-113657Y-12639D01*
X-114157Y-12372D01*
Y-10842D01*
X-116717D01*
Y-13402D01*
X-115167D01*
X-114976Y-13863D01*
X-115972Y-14860D01*
X-116425Y-14598D01*
X-117276Y-14370D01*
X-118157D01*
X-119008Y-14598D01*
X-119771Y-15039D01*
X-120394Y-15662D01*
X-120835Y-16425D01*
X-121063Y-17276D01*
Y-18157D01*
X-120835Y-19008D01*
X-120394Y-19771D01*
X-119771Y-20394D01*
X-119008Y-20835D01*
X-118157Y-21063D01*
X-117276D01*
X-116425Y-20835D01*
X-115662Y-20394D01*
X-115039Y-19771D01*
X-114598Y-19008D01*
X-114370Y-18157D01*
Y-17276D01*
X-114499Y-16793D01*
X-113309Y-15603D01*
X-112909Y-15910D01*
X-113159Y-16343D01*
X-113259Y-16716D01*
X-109843D01*
X-106426D01*
X-106526Y-16343D01*
X-106995Y-15531D01*
X-107178Y-15347D01*
X-106987Y-14885D01*
X-104232D01*
X-104232Y-14885D01*
X-103771Y-14794D01*
X-103381Y-14533D01*
X-82178Y6670D01*
X-21759D01*
X-18246Y3157D01*
X-18366Y2707D01*
Y2017D01*
X-18188Y1352D01*
X-17967Y968D01*
X-18229Y468D01*
X-18579D01*
Y-1362D01*
X-15748D01*
X-12917D01*
Y468D01*
X-13267D01*
X-13530Y968D01*
X-13308Y1352D01*
X-13130Y2017D01*
Y2707D01*
X-13308Y3373D01*
X-13653Y3970D01*
X-14141Y4457D01*
X-14738Y4802D01*
X-15403Y4980D01*
X-16093D01*
X-16543Y4860D01*
X-20409Y8726D01*
X-20799Y8987D01*
X-21260Y9078D01*
D02*
G37*
G36*
X47589Y4980D02*
X46899D01*
X46233Y4802D01*
X45636Y4457D01*
X45149Y3970D01*
X44804Y3373D01*
X44626Y2707D01*
Y2017D01*
X44804Y1352D01*
X45026Y968D01*
X44763Y468D01*
X44413D01*
Y-1362D01*
X47244D01*
X50075D01*
Y468D01*
X49725D01*
X49463Y968D01*
X49684Y1352D01*
X49862Y2017D01*
Y2707D01*
X49684Y3373D01*
X49339Y3970D01*
X48852Y4457D01*
X48255Y4802D01*
X47589Y4980D01*
D02*
G37*
G36*
X31841D02*
X31151D01*
X30485Y4802D01*
X29888Y4457D01*
X29401Y3970D01*
X29056Y3373D01*
X28878Y2707D01*
Y2017D01*
X29056Y1352D01*
X29278Y968D01*
X29015Y468D01*
X28665D01*
Y-1362D01*
X31496D01*
X34327D01*
Y468D01*
X33977D01*
X33715Y968D01*
X33936Y1352D01*
X34114Y2017D01*
Y2707D01*
X33936Y3373D01*
X33591Y3970D01*
X33104Y4457D01*
X32507Y4802D01*
X31841Y4980D01*
D02*
G37*
G36*
X-60162Y1362D02*
X-62992D01*
X-65823D01*
Y-469D01*
X-65823D01*
X-65675Y-969D01*
X-65729Y-1058D01*
X-83071D01*
X-83570Y-1157D01*
X-83993Y-1440D01*
X-102903Y-20349D01*
X-106809D01*
X-106840Y-20275D01*
X-106964Y-19849D01*
X-106526Y-19090D01*
X-106426Y-18717D01*
X-109843D01*
X-113259D01*
X-113159Y-19090D01*
X-112721Y-19849D01*
X-112845Y-20275D01*
X-112876Y-20349D01*
X-113779D01*
X-114279Y-20448D01*
X-114702Y-20731D01*
X-116439Y-22468D01*
X-117276Y-22244D01*
X-118157D01*
X-119008Y-22472D01*
X-119771Y-22913D01*
X-120394Y-23536D01*
X-120835Y-24299D01*
X-121063Y-25150D01*
Y-26031D01*
X-120835Y-26882D01*
X-120394Y-27645D01*
X-119771Y-28268D01*
X-119008Y-28709D01*
X-118157Y-28937D01*
X-117276D01*
X-116425Y-28709D01*
X-115662Y-28268D01*
X-115039Y-27645D01*
X-114598Y-26882D01*
X-114370Y-26031D01*
Y-25150D01*
X-114594Y-24313D01*
X-113239Y-22958D01*
X-112596D01*
X-112405Y-23420D01*
X-112520Y-23536D01*
X-112961Y-24299D01*
X-113189Y-25150D01*
Y-26031D01*
X-112961Y-26882D01*
X-112520Y-27645D01*
X-112405Y-27761D01*
X-112596Y-28223D01*
X-113779D01*
X-114279Y-28322D01*
X-114702Y-28605D01*
X-116439Y-30342D01*
X-117276Y-30118D01*
X-118157D01*
X-119008Y-30346D01*
X-119771Y-30787D01*
X-120394Y-31410D01*
X-120835Y-32173D01*
X-121063Y-33024D01*
Y-33905D01*
X-120835Y-34756D01*
X-120394Y-35519D01*
X-119771Y-36142D01*
X-119008Y-36583D01*
X-118157Y-36811D01*
X-117276D01*
X-116425Y-36583D01*
X-115662Y-36142D01*
X-115039Y-35519D01*
X-114598Y-34756D01*
X-114370Y-33905D01*
Y-33024D01*
X-114594Y-32187D01*
X-113239Y-30832D01*
X-112596D01*
X-112405Y-31294D01*
X-112520Y-31410D01*
X-112961Y-32173D01*
X-113189Y-33024D01*
Y-33905D01*
X-112961Y-34756D01*
X-112520Y-35519D01*
X-111897Y-36142D01*
X-111134Y-36583D01*
X-110283Y-36811D01*
X-109402D01*
X-108551Y-36583D01*
X-107788Y-36142D01*
X-107165Y-35519D01*
X-106732Y-34769D01*
X-94488D01*
X-93989Y-34670D01*
X-93566Y-34387D01*
X-73869Y-14691D01*
X-65729D01*
X-65675Y-14780D01*
X-65823Y-15280D01*
X-65823D01*
Y-17110D01*
X-62992D01*
X-60162D01*
Y-15280D01*
X-60511D01*
X-60774Y-14780D01*
X-60553Y-14397D01*
X-60374Y-13731D01*
Y-13041D01*
X-60553Y-12375D01*
X-60897Y-11778D01*
X-61385Y-11291D01*
X-61982Y-10946D01*
X-62647Y-10768D01*
X-63337D01*
X-64003Y-10946D01*
X-64600Y-11291D01*
X-65087Y-11778D01*
X-65262Y-12081D01*
X-74410D01*
X-74909Y-12181D01*
X-75332Y-12463D01*
X-95029Y-32160D01*
X-106732D01*
X-107165Y-31410D01*
X-107280Y-31294D01*
X-107089Y-30832D01*
X-102362D01*
X-101863Y-30733D01*
X-101440Y-30450D01*
X-80168Y-9179D01*
X-37008D01*
X-36509Y-9079D01*
X-36085Y-8796D01*
X-32179Y-4890D01*
X-31841Y-4980D01*
X-31151D01*
X-30486Y-4802D01*
X-29889Y-4457D01*
X-29401Y-3970D01*
X-29056Y-3373D01*
X-28878Y-2707D01*
Y-2018D01*
X-29056Y-1352D01*
X-29278Y-969D01*
X-29015Y-469D01*
X-28665D01*
Y1362D01*
X-31496D01*
X-34327D01*
Y-469D01*
X-33977D01*
X-33715Y-969D01*
X-33936Y-1352D01*
X-34114Y-2018D01*
Y-2707D01*
X-34024Y-3045D01*
X-37548Y-6569D01*
X-80709D01*
X-81208Y-6669D01*
X-81631Y-6951D01*
X-102903Y-28223D01*
X-107089D01*
X-107280Y-27761D01*
X-107165Y-27645D01*
X-106724Y-26882D01*
X-106496Y-26031D01*
Y-25150D01*
X-106724Y-24299D01*
X-107165Y-23536D01*
X-107280Y-23420D01*
X-107089Y-22958D01*
X-102362D01*
X-101863Y-22859D01*
X-101440Y-22576D01*
X-82531Y-3667D01*
X-65262D01*
X-65087Y-3970D01*
X-64600Y-4457D01*
X-64003Y-4802D01*
X-63337Y-4980D01*
X-62647D01*
X-61982Y-4802D01*
X-61385Y-4457D01*
X-60897Y-3970D01*
X-60553Y-3373D01*
X-60374Y-2707D01*
Y-2018D01*
X-60553Y-1352D01*
X-60774Y-969D01*
X-60511Y-469D01*
X-60162D01*
Y1362D01*
D02*
G37*
G36*
X-44414D02*
X-47244D01*
X-50075D01*
Y-469D01*
X-49725D01*
X-49463Y-969D01*
X-49684Y-1352D01*
X-49862Y-2018D01*
Y-2707D01*
X-49684Y-3373D01*
X-49339Y-3970D01*
X-48852Y-4457D01*
X-48255Y-4802D01*
X-47589Y-4980D01*
X-46900D01*
X-46234Y-4802D01*
X-45637Y-4457D01*
X-45149Y-3970D01*
X-44804Y-3373D01*
X-44626Y-2707D01*
Y-2018D01*
X-44804Y-1352D01*
X-45026Y-969D01*
X-44763Y-469D01*
X-44414D01*
Y1362D01*
D02*
G37*
G36*
X65823Y-3362D02*
X63992D01*
Y-5193D01*
X65823D01*
Y-3362D01*
D02*
G37*
G36*
X61992D02*
X60161D01*
Y-5193D01*
X61992D01*
Y-3362D01*
D02*
G37*
G36*
X50075D02*
X48244D01*
Y-5193D01*
X50075D01*
Y-3362D01*
D02*
G37*
G36*
X46244D02*
X44413D01*
Y-5193D01*
X46244D01*
Y-3362D01*
D02*
G37*
G36*
X34327Y-3362D02*
X32496D01*
Y-5193D01*
X34327D01*
Y-3362D01*
D02*
G37*
G36*
X30496D02*
X28665D01*
Y-5193D01*
X30496D01*
Y-3362D01*
D02*
G37*
G36*
X18579Y-3362D02*
X16748D01*
Y-5193D01*
X18579D01*
Y-3362D01*
D02*
G37*
G36*
X14748D02*
X12917D01*
Y-5193D01*
X14748D01*
Y-3362D01*
D02*
G37*
G36*
X-12917Y-3362D02*
X-14748D01*
Y-5193D01*
X-12917D01*
Y-3362D01*
D02*
G37*
G36*
X-16748D02*
X-18579D01*
Y-5193D01*
X-16748D01*
Y-3362D01*
D02*
G37*
G36*
X118157Y13189D02*
X117276D01*
X116425Y12961D01*
X115662Y12520D01*
X115039Y11897D01*
X114598Y11134D01*
X114370Y10283D01*
Y9402D01*
X114598Y8551D01*
X115039Y7788D01*
X115662Y7165D01*
X116412Y6732D01*
Y4084D01*
X113633Y1305D01*
X100394D01*
X99894Y1205D01*
X99471Y922D01*
X91979Y-6569D01*
X6052D01*
X2527Y-3045D01*
X2618Y-2707D01*
Y-2018D01*
X2440Y-1352D01*
X2218Y-969D01*
X2481Y-469D01*
X2831D01*
Y1362D01*
X-0D01*
X-2831D01*
Y-469D01*
X-2481D01*
X-2219Y-969D01*
X-2440Y-1352D01*
X-2618Y-2018D01*
Y-2707D01*
X-2440Y-3373D01*
X-2095Y-3970D01*
X-1608Y-4457D01*
X-1011Y-4802D01*
X-345Y-4980D01*
X345D01*
X683Y-4890D01*
X4589Y-8796D01*
X5012Y-9079D01*
X5512Y-9179D01*
X92520D01*
X93019Y-9079D01*
X93442Y-8796D01*
X100934Y-1305D01*
X114173D01*
X114673Y-1205D01*
X115096Y-922D01*
X118639Y2621D01*
X118922Y3044D01*
X119021Y3543D01*
Y6732D01*
X119771Y7165D01*
X120394Y7788D01*
X120835Y8551D01*
X121063Y9402D01*
Y10283D01*
X120835Y11134D01*
X120394Y11897D01*
X119771Y12520D01*
X119008Y12961D01*
X118157Y13189D01*
D02*
G37*
G36*
X113402Y-6284D02*
X110843D01*
Y-8843D01*
X113402D01*
Y-6284D01*
D02*
G37*
G36*
X-108843Y-6426D02*
Y-8843D01*
X-106426D01*
X-106526Y-8469D01*
X-106995Y-7657D01*
X-107657Y-6995D01*
X-108469Y-6526D01*
X-108843Y-6426D01*
D02*
G37*
G36*
X-114157Y-6284D02*
X-116717D01*
Y-8843D01*
X-114157D01*
Y-6284D01*
D02*
G37*
G36*
X-110843Y-6426D02*
X-111216Y-6526D01*
X-112028Y-6995D01*
X-112690Y-7657D01*
X-113159Y-8469D01*
X-113259Y-8843D01*
X-110843D01*
Y-6426D01*
D02*
G37*
G36*
X108843Y-6284D02*
X106283D01*
Y-8843D01*
X108843D01*
Y-6284D01*
D02*
G37*
G36*
X-118717D02*
X-121276D01*
Y-8843D01*
X-118717D01*
Y-6284D01*
D02*
G37*
G36*
X118717Y-6426D02*
Y-8843D01*
X121133D01*
X121033Y-8469D01*
X120564Y-7657D01*
X119902Y-6995D01*
X119090Y-6526D01*
X118717Y-6426D01*
D02*
G37*
G36*
X116717Y-6426D02*
X116343Y-6526D01*
X115531Y-6995D01*
X114869Y-7657D01*
X114400Y-8469D01*
X114300Y-8843D01*
X116717D01*
Y-6426D01*
D02*
G37*
G36*
X65823Y-10555D02*
X63992D01*
Y-12386D01*
X65823D01*
Y-10555D01*
D02*
G37*
G36*
X50075D02*
X48244D01*
Y-12386D01*
X50075D01*
Y-10555D01*
D02*
G37*
G36*
X34327D02*
X32496D01*
Y-12386D01*
X34327D01*
Y-10555D01*
D02*
G37*
G36*
X2831D02*
X1000D01*
Y-12386D01*
X2831D01*
Y-10555D01*
D02*
G37*
G36*
X-12917D02*
X-14748D01*
Y-12386D01*
X-12917D01*
Y-10555D01*
D02*
G37*
G36*
X-28665D02*
X-30496D01*
Y-12386D01*
X-28665D01*
Y-10555D01*
D02*
G37*
G36*
X-44414D02*
X-46244D01*
Y-12386D01*
X-44414D01*
Y-10555D01*
D02*
G37*
G36*
X61992D02*
X60161D01*
Y-12386D01*
X61992D01*
Y-10555D01*
D02*
G37*
G36*
X46244D02*
X44413D01*
Y-12386D01*
X46244D01*
Y-10555D01*
D02*
G37*
G36*
X30496D02*
X28665D01*
Y-12386D01*
X30496D01*
Y-10555D01*
D02*
G37*
G36*
X-1000D02*
X-2831D01*
Y-12386D01*
X-1000D01*
Y-10555D01*
D02*
G37*
G36*
X-16748D02*
X-18579D01*
Y-12386D01*
X-16748D01*
Y-10555D01*
D02*
G37*
G36*
X-32496D02*
X-34327D01*
Y-12386D01*
X-32496D01*
Y-10555D01*
D02*
G37*
G36*
X-48244D02*
X-50075D01*
Y-12386D01*
X-48244D01*
Y-10555D01*
D02*
G37*
G36*
X116717Y-10842D02*
X114300D01*
X114400Y-11216D01*
X114869Y-12028D01*
X115531Y-12690D01*
X116343Y-13159D01*
X116717Y-13259D01*
Y-10842D01*
D02*
G37*
G36*
X121133D02*
X118717D01*
Y-13259D01*
X119090Y-13159D01*
X119902Y-12690D01*
X120564Y-12028D01*
X121033Y-11216D01*
X121133Y-10842D01*
D02*
G37*
G36*
X113402Y-10842D02*
X110843D01*
Y-13402D01*
X113402D01*
Y-10842D01*
D02*
G37*
G36*
X108843D02*
X106283D01*
Y-13402D01*
X108843D01*
Y-10842D01*
D02*
G37*
G36*
X-118717D02*
X-121276D01*
Y-13402D01*
X-118717D01*
Y-10842D01*
D02*
G37*
G36*
X160252Y-1000D02*
X147457D01*
Y-13795D01*
X160252D01*
Y-1000D01*
D02*
G37*
G36*
X145457D02*
X132661D01*
Y-13795D01*
X145457D01*
Y-1000D01*
D02*
G37*
G36*
X-132661D02*
X-145457D01*
Y-13795D01*
X-132661D01*
Y-1000D01*
D02*
G37*
G36*
X-147457D02*
X-160252D01*
Y-13795D01*
X-147457D01*
Y-1000D01*
D02*
G37*
G36*
X118717Y-14300D02*
Y-16716D01*
X121133D01*
X121033Y-16343D01*
X120564Y-15531D01*
X119902Y-14869D01*
X119090Y-14400D01*
X118717Y-14300D01*
D02*
G37*
G36*
X116717Y-14300D02*
X116343Y-14400D01*
X115531Y-14869D01*
X114869Y-15531D01*
X114400Y-16343D01*
X114300Y-16716D01*
X116717D01*
Y-14300D01*
D02*
G37*
G36*
X16093Y-10768D02*
X15403D01*
X14737Y-10946D01*
X14140Y-11291D01*
X13653Y-11778D01*
X13308Y-12375D01*
X13130Y-13041D01*
Y-13731D01*
X13308Y-14397D01*
X13530Y-14780D01*
X13267Y-15280D01*
X12917D01*
Y-17110D01*
X15748D01*
X18579D01*
Y-15280D01*
X18229D01*
X17966Y-14780D01*
X18188Y-14397D01*
X18366Y-13731D01*
Y-13041D01*
X18188Y-12375D01*
X17843Y-11778D01*
X17356Y-11291D01*
X16759Y-10946D01*
X16093Y-10768D01*
D02*
G37*
G36*
X110283Y-14370D02*
X109402D01*
X108551Y-14598D01*
X107788Y-15039D01*
X107165Y-15662D01*
X106724Y-16425D01*
X106496Y-17276D01*
Y-18157D01*
X106724Y-19008D01*
X106908Y-19326D01*
X106676Y-19924D01*
X106648Y-19933D01*
X106586Y-19921D01*
X103852Y-17188D01*
X103429Y-16905D01*
X102930Y-16806D01*
X65728D01*
X65675Y-16717D01*
X65823Y-16217D01*
X65823D01*
Y-14386D01*
X62992D01*
X60161D01*
Y-16217D01*
X60511D01*
X60774Y-16717D01*
X60552Y-17100D01*
X60374Y-17766D01*
Y-18455D01*
X60552Y-19121D01*
X60897Y-19718D01*
X61384Y-20205D01*
X61981Y-20550D01*
X62647Y-20728D01*
X63337D01*
X64003Y-20550D01*
X64600Y-20205D01*
X65087Y-19718D01*
X65262Y-19415D01*
X102389D01*
X105452Y-22478D01*
X105875Y-22760D01*
X106374Y-22860D01*
X106683D01*
X106950Y-23360D01*
X106857Y-23499D01*
X59989D01*
X53679Y-17188D01*
X53255Y-16905D01*
X52756Y-16806D01*
X49980D01*
X49927Y-16717D01*
X50075Y-16217D01*
X50075D01*
Y-14386D01*
X47244D01*
X44413D01*
Y-16217D01*
X44763D01*
X45026Y-16717D01*
X44804Y-17100D01*
X44626Y-17766D01*
Y-18455D01*
X44804Y-19121D01*
X45149Y-19718D01*
X45636Y-20205D01*
X46233Y-20550D01*
X46899Y-20728D01*
X47589D01*
X48255Y-20550D01*
X48852Y-20205D01*
X49339Y-19718D01*
X49514Y-19415D01*
X52216D01*
X58526Y-25726D01*
X58950Y-26008D01*
X59449Y-26108D01*
X106517D01*
X106724Y-26882D01*
X107165Y-27645D01*
X107280Y-27761D01*
X107089Y-28223D01*
X57339D01*
X51815Y-22700D01*
X51392Y-22417D01*
X50893Y-22318D01*
X37548D01*
X34024Y-18793D01*
X34114Y-18455D01*
Y-17766D01*
X33936Y-17100D01*
X33715Y-16717D01*
X33977Y-16217D01*
X34327D01*
Y-14386D01*
X31496D01*
X28665D01*
Y-16217D01*
X29015D01*
X29278Y-16717D01*
X29056Y-17100D01*
X28878Y-17766D01*
Y-18455D01*
X29056Y-19121D01*
X29401Y-19718D01*
X29888Y-20205D01*
X30485Y-20550D01*
X31151Y-20728D01*
X31841D01*
X32179Y-20638D01*
X36085Y-24544D01*
X36509Y-24827D01*
X37008Y-24927D01*
X50353D01*
X55876Y-30450D01*
X56299Y-30733D01*
X56798Y-30832D01*
X107089D01*
X107280Y-31294D01*
X107165Y-31410D01*
X106724Y-32173D01*
X106496Y-33024D01*
Y-33905D01*
X106724Y-34756D01*
X107165Y-35519D01*
X107280Y-35635D01*
X107089Y-36097D01*
X64595D01*
X61434Y-32936D01*
X61010Y-32653D01*
X60511Y-32554D01*
X49980D01*
X49927Y-32465D01*
X50075Y-31965D01*
X50075D01*
Y-30134D01*
X47244D01*
X44413D01*
Y-31965D01*
X44763D01*
X45026Y-32465D01*
X44804Y-32848D01*
X44626Y-33514D01*
Y-34203D01*
X44804Y-34869D01*
X45149Y-35466D01*
X45636Y-35953D01*
X46233Y-36298D01*
X46899Y-36476D01*
X47589D01*
X48255Y-36298D01*
X48852Y-35953D01*
X49339Y-35466D01*
X49514Y-35163D01*
X59971D01*
X63132Y-38324D01*
X63555Y-38607D01*
X64054Y-38706D01*
X107089D01*
X107280Y-39168D01*
X107165Y-39284D01*
X106724Y-40047D01*
X106496Y-40898D01*
Y-41779D01*
X106724Y-42630D01*
X107165Y-43393D01*
X107280Y-43509D01*
X107089Y-43971D01*
X61564D01*
X56041Y-38448D01*
X55617Y-38165D01*
X55118Y-38065D01*
X21800D01*
X18275Y-34541D01*
X18366Y-34203D01*
Y-33514D01*
X18188Y-32848D01*
X17966Y-32465D01*
X18229Y-31965D01*
X18579D01*
Y-30134D01*
X15748D01*
X12917D01*
Y-31965D01*
X13267D01*
X13530Y-32465D01*
X13308Y-32848D01*
X13130Y-33514D01*
Y-34203D01*
X13308Y-34869D01*
X13653Y-35466D01*
X14140Y-35953D01*
X14737Y-36298D01*
X15403Y-36476D01*
X16093D01*
X16431Y-36386D01*
X20337Y-40293D01*
X20761Y-40575D01*
X21260Y-40675D01*
X54578D01*
X60101Y-46198D01*
X60524Y-46481D01*
X61024Y-46580D01*
X107089D01*
X107280Y-47042D01*
X107165Y-47158D01*
X106724Y-47921D01*
X106675Y-48105D01*
X50335D01*
X50075Y-47713D01*
Y-45882D01*
X47244D01*
X44413D01*
Y-47713D01*
X44763D01*
X45026Y-48213D01*
X44804Y-48596D01*
X44626Y-49262D01*
Y-49951D01*
X44804Y-50617D01*
X45149Y-51214D01*
X45636Y-51701D01*
X46233Y-52046D01*
X46899Y-52224D01*
X47589D01*
X48255Y-52046D01*
X48852Y-51701D01*
X49339Y-51214D01*
X49628Y-50714D01*
X106845D01*
X107165Y-51267D01*
X107788Y-51890D01*
X108551Y-52331D01*
X109402Y-52559D01*
X110283D01*
X111134Y-52331D01*
X111897Y-51890D01*
X112520Y-51267D01*
X112961Y-50504D01*
X113189Y-49653D01*
Y-48772D01*
X112961Y-47921D01*
X112520Y-47158D01*
X112405Y-47042D01*
X112596Y-46580D01*
X113239D01*
X114594Y-47935D01*
X114370Y-48772D01*
Y-49653D01*
X114598Y-50504D01*
X115039Y-51267D01*
X115662Y-51890D01*
X116425Y-52331D01*
X117276Y-52559D01*
X118157D01*
X119008Y-52331D01*
X119771Y-51890D01*
X120394Y-51267D01*
X120835Y-50504D01*
X121063Y-49653D01*
Y-48772D01*
X120835Y-47921D01*
X120394Y-47158D01*
X119771Y-46535D01*
X119008Y-46094D01*
X118157Y-45866D01*
X117276D01*
X116439Y-46090D01*
X114702Y-44353D01*
X114279Y-44070D01*
X113779Y-43971D01*
X112596D01*
X112405Y-43509D01*
X112520Y-43393D01*
X112961Y-42630D01*
X113189Y-41779D01*
Y-40898D01*
X112961Y-40047D01*
X112520Y-39284D01*
X112405Y-39168D01*
X112596Y-38706D01*
X113239D01*
X114594Y-40061D01*
X114370Y-40898D01*
Y-41779D01*
X114598Y-42630D01*
X115039Y-43393D01*
X115662Y-44016D01*
X116425Y-44457D01*
X117276Y-44685D01*
X118157D01*
X119008Y-44457D01*
X119771Y-44016D01*
X120394Y-43393D01*
X120835Y-42630D01*
X121063Y-41779D01*
Y-40898D01*
X120835Y-40047D01*
X120394Y-39284D01*
X119771Y-38661D01*
X119008Y-38220D01*
X118157Y-37992D01*
X117276D01*
X116439Y-38216D01*
X114702Y-36479D01*
X114279Y-36196D01*
X113779Y-36097D01*
X112596D01*
X112405Y-35635D01*
X112520Y-35519D01*
X112961Y-34756D01*
X113189Y-33905D01*
Y-33024D01*
X112961Y-32173D01*
X112520Y-31410D01*
X112405Y-31294D01*
X112596Y-30832D01*
X113239D01*
X114594Y-32187D01*
X114370Y-33024D01*
Y-33905D01*
X114598Y-34756D01*
X115039Y-35519D01*
X115662Y-36142D01*
X116425Y-36583D01*
X117276Y-36811D01*
X118157D01*
X119008Y-36583D01*
X119771Y-36142D01*
X120394Y-35519D01*
X120835Y-34756D01*
X121063Y-33905D01*
Y-33024D01*
X120835Y-32173D01*
X120394Y-31410D01*
X119771Y-30787D01*
X119008Y-30346D01*
X118157Y-30118D01*
X117276D01*
X116439Y-30342D01*
X114702Y-28605D01*
X114279Y-28322D01*
X113779Y-28223D01*
X112596D01*
X112405Y-27761D01*
X112520Y-27645D01*
X112961Y-26882D01*
X113189Y-26031D01*
Y-25150D01*
X112961Y-24299D01*
X112520Y-23536D01*
X112344Y-23360D01*
X112551Y-22860D01*
X113141D01*
X114594Y-24313D01*
X114370Y-25150D01*
Y-26031D01*
X114598Y-26882D01*
X115039Y-27645D01*
X115662Y-28268D01*
X116425Y-28709D01*
X117276Y-28937D01*
X118157D01*
X119008Y-28709D01*
X119771Y-28268D01*
X120394Y-27645D01*
X120835Y-26882D01*
X121063Y-26031D01*
Y-25150D01*
X120835Y-24299D01*
X120394Y-23536D01*
X119771Y-22913D01*
X119008Y-22472D01*
X118157Y-22244D01*
X117276D01*
X116439Y-22468D01*
X114604Y-20633D01*
X114180Y-20350D01*
X113681Y-20251D01*
X112694D01*
X112597Y-20016D01*
X112532Y-19750D01*
X112961Y-19008D01*
X113189Y-18157D01*
Y-17276D01*
X112961Y-16425D01*
X112520Y-15662D01*
X111897Y-15039D01*
X111134Y-14598D01*
X110283Y-14370D01*
D02*
G37*
G36*
X2831Y-14386D02*
X-0D01*
X-2831D01*
Y-16217D01*
X-2481D01*
X-2219Y-16717D01*
X-2440Y-17100D01*
X-2618Y-17766D01*
Y-18455D01*
X-2440Y-19121D01*
X-2095Y-19718D01*
X-1608Y-20205D01*
X-1011Y-20550D01*
X-345Y-20728D01*
X345D01*
X1010Y-20550D01*
X1608Y-20205D01*
X2095Y-19718D01*
X2440Y-19121D01*
X2618Y-18455D01*
Y-17766D01*
X2440Y-17100D01*
X2218Y-16717D01*
X2481Y-16217D01*
X2831D01*
Y-14386D01*
D02*
G37*
G36*
X-12917D02*
X-15748D01*
X-18579D01*
Y-16217D01*
X-18229D01*
X-17967Y-16717D01*
X-18188Y-17100D01*
X-18366Y-17766D01*
Y-18455D01*
X-18276Y-18793D01*
X-21800Y-22318D01*
X-51983D01*
X-52482Y-22417D01*
X-52905Y-22700D01*
X-58035Y-27829D01*
X-66536D01*
X-67035Y-27929D01*
X-67458Y-28212D01*
X-87155Y-47908D01*
X-106732D01*
X-107165Y-47158D01*
X-107788Y-46535D01*
X-108551Y-46094D01*
X-109402Y-45866D01*
X-110283D01*
X-111134Y-46094D01*
X-111897Y-46535D01*
X-112520Y-47158D01*
X-112961Y-47921D01*
X-113189Y-48772D01*
Y-49653D01*
X-112961Y-50504D01*
X-112520Y-51267D01*
X-111897Y-51890D01*
X-111134Y-52331D01*
X-110283Y-52559D01*
X-109402D01*
X-108551Y-52331D01*
X-107788Y-51890D01*
X-107165Y-51267D01*
X-106732Y-50517D01*
X-86614D01*
X-86115Y-50418D01*
X-85692Y-50135D01*
X-65995Y-30439D01*
X-57495D01*
X-56995Y-30339D01*
X-56572Y-30056D01*
X-51442Y-24927D01*
X-21260D01*
X-20761Y-24827D01*
X-20337Y-24544D01*
X-16431Y-20638D01*
X-16093Y-20728D01*
X-15403D01*
X-14738Y-20550D01*
X-14141Y-20205D01*
X-13653Y-19718D01*
X-13308Y-19121D01*
X-13130Y-18455D01*
Y-17766D01*
X-13308Y-17100D01*
X-13530Y-16717D01*
X-13267Y-16217D01*
X-12917D01*
Y-14386D01*
D02*
G37*
G36*
X-28665D02*
X-31496D01*
X-34327D01*
Y-16217D01*
X-33977D01*
X-33715Y-16717D01*
X-33936Y-17100D01*
X-34114Y-17766D01*
Y-18455D01*
X-33936Y-19121D01*
X-33591Y-19718D01*
X-33104Y-20205D01*
X-32507Y-20550D01*
X-31841Y-20728D01*
X-31151D01*
X-30486Y-20550D01*
X-29889Y-20205D01*
X-29401Y-19718D01*
X-29056Y-19121D01*
X-28878Y-18455D01*
Y-17766D01*
X-29056Y-17100D01*
X-29278Y-16717D01*
X-29015Y-16217D01*
X-28665D01*
Y-14386D01*
D02*
G37*
G36*
X-44414D02*
X-47244D01*
X-50075D01*
Y-16217D01*
X-50075D01*
X-49927Y-16717D01*
X-49981Y-16806D01*
X-53287D01*
X-53787Y-16905D01*
X-54210Y-17188D01*
X-59339Y-22318D01*
X-72835D01*
X-73334Y-22417D01*
X-73757Y-22700D01*
X-91092Y-40034D01*
X-106732D01*
X-107165Y-39284D01*
X-107788Y-38661D01*
X-108551Y-38220D01*
X-109402Y-37992D01*
X-110283D01*
X-111134Y-38220D01*
X-111897Y-38661D01*
X-112520Y-39284D01*
X-112961Y-40047D01*
X-113189Y-40898D01*
Y-41779D01*
X-112961Y-42630D01*
X-112520Y-43393D01*
X-111897Y-44016D01*
X-111134Y-44457D01*
X-110283Y-44685D01*
X-109402D01*
X-108551Y-44457D01*
X-107788Y-44016D01*
X-107165Y-43393D01*
X-106732Y-42643D01*
X-90551D01*
X-90052Y-42544D01*
X-89629Y-42261D01*
X-72294Y-24927D01*
X-58799D01*
X-58300Y-24827D01*
X-57877Y-24544D01*
X-52747Y-19415D01*
X-49514D01*
X-49339Y-19718D01*
X-48852Y-20205D01*
X-48255Y-20550D01*
X-47589Y-20728D01*
X-46900D01*
X-46234Y-20550D01*
X-45637Y-20205D01*
X-45149Y-19718D01*
X-44804Y-19121D01*
X-44626Y-18455D01*
Y-17766D01*
X-44804Y-17100D01*
X-45026Y-16717D01*
X-44763Y-16217D01*
X-44414D01*
Y-14386D01*
D02*
G37*
G36*
X18579Y-19110D02*
X16748D01*
Y-20941D01*
X18579D01*
Y-19110D01*
D02*
G37*
G36*
X14748D02*
X12917D01*
Y-20941D01*
X14748D01*
Y-19110D01*
D02*
G37*
G36*
X-60162D02*
X-61992D01*
Y-20941D01*
X-60162D01*
Y-19110D01*
D02*
G37*
G36*
X-63992D02*
X-65823D01*
Y-20941D01*
X-63992D01*
Y-19110D01*
D02*
G37*
G36*
X116717Y-18717D02*
X114300D01*
X114400Y-19090D01*
X114869Y-19902D01*
X115531Y-20564D01*
X116343Y-21033D01*
X116717Y-21133D01*
Y-18717D01*
D02*
G37*
G36*
X121133D02*
X118717D01*
Y-21133D01*
X119090Y-21033D01*
X119902Y-20564D01*
X120564Y-19902D01*
X121033Y-19090D01*
X121133Y-18717D01*
D02*
G37*
G36*
X-44414Y-26303D02*
X-46244D01*
Y-28134D01*
X-44414D01*
Y-26303D01*
D02*
G37*
G36*
X-12917D02*
X-14748D01*
Y-28134D01*
X-12917D01*
Y-26303D01*
D02*
G37*
G36*
X-28665D02*
X-30496D01*
Y-28134D01*
X-28665D01*
Y-26303D01*
D02*
G37*
G36*
X50075D02*
X48244D01*
Y-28134D01*
X50075D01*
Y-26303D01*
D02*
G37*
G36*
X34327D02*
X32496D01*
Y-28134D01*
X34327D01*
Y-26303D01*
D02*
G37*
G36*
X18579D02*
X16748D01*
Y-28134D01*
X18579D01*
Y-26303D01*
D02*
G37*
G36*
X-48244D02*
X-50075D01*
Y-28134D01*
X-48244D01*
Y-26303D01*
D02*
G37*
G36*
X-16748D02*
X-18579D01*
Y-28134D01*
X-16748D01*
Y-26303D01*
D02*
G37*
G36*
X-32496D02*
X-34327D01*
Y-28134D01*
X-32496D01*
Y-26303D01*
D02*
G37*
G36*
X46244D02*
X44413D01*
Y-28134D01*
X46244D01*
Y-26303D01*
D02*
G37*
G36*
X30496D02*
X28665D01*
Y-28134D01*
X30496D01*
Y-26303D01*
D02*
G37*
G36*
X14748D02*
X12917D01*
Y-28134D01*
X14748D01*
Y-26303D01*
D02*
G37*
G36*
X345Y-26516D02*
X-345D01*
X-1011Y-26694D01*
X-1608Y-27039D01*
X-2095Y-27526D01*
X-2440Y-28123D01*
X-2618Y-28789D01*
Y-29479D01*
X-2440Y-30145D01*
X-2219Y-30528D01*
X-2481Y-31028D01*
X-2831D01*
Y-32858D01*
X-0D01*
X2831D01*
Y-31028D01*
X2481D01*
X2218Y-30528D01*
X2440Y-30145D01*
X2618Y-29479D01*
Y-28789D01*
X2440Y-28123D01*
X2095Y-27526D01*
X1608Y-27039D01*
X1010Y-26694D01*
X345Y-26516D01*
D02*
G37*
G36*
X34327Y-30134D02*
X31496D01*
X28665D01*
Y-31965D01*
X29015D01*
X29278Y-32465D01*
X29056Y-32848D01*
X28878Y-33514D01*
Y-34203D01*
X29056Y-34869D01*
X29401Y-35466D01*
X29888Y-35953D01*
X30485Y-36298D01*
X31151Y-36476D01*
X31841D01*
X32506Y-36298D01*
X33104Y-35953D01*
X33591Y-35466D01*
X33936Y-34869D01*
X34114Y-34203D01*
Y-33514D01*
X33936Y-32848D01*
X33715Y-32465D01*
X33977Y-31965D01*
X34327D01*
Y-30134D01*
D02*
G37*
G36*
X-12917D02*
X-15748D01*
X-18579D01*
Y-31965D01*
X-18229D01*
X-17967Y-32465D01*
X-18188Y-32848D01*
X-18366Y-33514D01*
Y-34203D01*
X-18188Y-34869D01*
X-17843Y-35466D01*
X-17356Y-35953D01*
X-16759Y-36298D01*
X-16093Y-36476D01*
X-15403D01*
X-14738Y-36298D01*
X-14141Y-35953D01*
X-13653Y-35466D01*
X-13308Y-34869D01*
X-13130Y-34203D01*
Y-33514D01*
X-13308Y-32848D01*
X-13530Y-32465D01*
X-13267Y-31965D01*
X-12917D01*
Y-30134D01*
D02*
G37*
G36*
X-44414D02*
X-47244D01*
X-50075D01*
Y-31965D01*
X-50075D01*
X-49927Y-32465D01*
X-49981Y-32554D01*
X-57480D01*
X-57980Y-32653D01*
X-58403Y-32936D01*
X-81249Y-55782D01*
X-106732D01*
X-107165Y-55032D01*
X-107788Y-54409D01*
X-108551Y-53968D01*
X-109402Y-53740D01*
X-110283D01*
X-111134Y-53968D01*
X-111897Y-54409D01*
X-112520Y-55032D01*
X-112961Y-55795D01*
X-113189Y-56646D01*
Y-57527D01*
X-112961Y-58378D01*
X-112520Y-59141D01*
X-112405Y-59257D01*
X-112596Y-59719D01*
X-113239D01*
X-114594Y-58364D01*
X-114370Y-57527D01*
Y-56646D01*
X-114598Y-55795D01*
X-115039Y-55032D01*
X-115662Y-54409D01*
X-116425Y-53968D01*
X-117276Y-53740D01*
X-118157D01*
X-119008Y-53968D01*
X-119771Y-54409D01*
X-120394Y-55032D01*
X-120835Y-55795D01*
X-121063Y-56646D01*
Y-57527D01*
X-120835Y-58378D01*
X-120394Y-59141D01*
X-119771Y-59764D01*
X-119008Y-60205D01*
X-118157Y-60433D01*
X-117276D01*
X-116439Y-60209D01*
X-114702Y-61946D01*
X-114279Y-62229D01*
X-113779Y-62328D01*
X-112596D01*
X-112405Y-62790D01*
X-112520Y-62906D01*
X-112961Y-63669D01*
X-113189Y-64520D01*
Y-65401D01*
X-112961Y-66252D01*
X-112520Y-67015D01*
X-112405Y-67131D01*
X-112596Y-67593D01*
X-113239D01*
X-114594Y-66238D01*
X-114370Y-65401D01*
Y-64520D01*
X-114598Y-63669D01*
X-115039Y-62906D01*
X-115662Y-62283D01*
X-116425Y-61842D01*
X-117276Y-61614D01*
X-118157D01*
X-119008Y-61842D01*
X-119771Y-62283D01*
X-120394Y-62906D01*
X-120835Y-63669D01*
X-121063Y-64520D01*
Y-65401D01*
X-120835Y-66252D01*
X-120394Y-67015D01*
X-119771Y-67638D01*
X-119008Y-68079D01*
X-118157Y-68307D01*
X-117276D01*
X-116439Y-68083D01*
X-114702Y-69820D01*
X-114279Y-70103D01*
X-113779Y-70202D01*
X-112596D01*
X-112405Y-70664D01*
X-112520Y-70780D01*
X-112961Y-71543D01*
X-113189Y-72394D01*
Y-73275D01*
X-112961Y-74126D01*
X-112520Y-74889D01*
X-112405Y-75005D01*
X-112596Y-75467D01*
X-113239D01*
X-114594Y-74112D01*
X-114370Y-73275D01*
Y-72394D01*
X-114598Y-71543D01*
X-115039Y-70780D01*
X-115662Y-70157D01*
X-116425Y-69716D01*
X-117276Y-69488D01*
X-118157D01*
X-119008Y-69716D01*
X-119771Y-70157D01*
X-120394Y-70780D01*
X-120835Y-71543D01*
X-121063Y-72394D01*
Y-73275D01*
X-120835Y-74126D01*
X-120394Y-74889D01*
X-119771Y-75512D01*
X-119008Y-75953D01*
X-118157Y-76181D01*
X-117276D01*
X-116439Y-75957D01*
X-114702Y-77694D01*
X-114279Y-77977D01*
X-113779Y-78076D01*
X-112596D01*
X-112405Y-78538D01*
X-112520Y-78654D01*
X-112961Y-79417D01*
X-113189Y-80268D01*
Y-81149D01*
X-112961Y-82000D01*
X-112520Y-82763D01*
X-111897Y-83386D01*
X-111147Y-83820D01*
Y-89899D01*
X-111048Y-90398D01*
X-110765Y-90821D01*
X-101305Y-100282D01*
Y-104817D01*
X-101608Y-104992D01*
X-102095Y-105479D01*
X-102440Y-106076D01*
X-102618Y-106742D01*
Y-107431D01*
X-102440Y-108097D01*
X-102218Y-108480D01*
X-102481Y-108980D01*
X-102831D01*
Y-110811D01*
X-100000D01*
X-97169D01*
Y-108980D01*
X-97519D01*
X-97781Y-108480D01*
X-97560Y-108097D01*
X-97382Y-107431D01*
Y-106742D01*
X-97560Y-106076D01*
X-97905Y-105479D01*
X-98392Y-104992D01*
X-98695Y-104817D01*
Y-99741D01*
X-98795Y-99242D01*
X-99077Y-98819D01*
X-108538Y-89359D01*
Y-83820D01*
X-107788Y-83386D01*
X-107165Y-82763D01*
X-106724Y-82000D01*
X-106496Y-81149D01*
Y-80268D01*
X-106724Y-79417D01*
X-107165Y-78654D01*
X-107280Y-78538D01*
X-107089Y-78076D01*
X-43307D01*
X-42808Y-77977D01*
X-42385Y-77694D01*
X-16431Y-51740D01*
X-16093Y-51831D01*
X-15403D01*
X-14738Y-51652D01*
X-14141Y-51308D01*
X-13653Y-50820D01*
X-13308Y-50223D01*
X-13130Y-49557D01*
Y-48868D01*
X-13308Y-48202D01*
X-13530Y-47819D01*
X-13267Y-47319D01*
X-12917D01*
Y-45488D01*
X-15748D01*
X-18579D01*
Y-47319D01*
X-18229D01*
X-17967Y-47819D01*
X-18188Y-48202D01*
X-18366Y-48868D01*
Y-49557D01*
X-18276Y-49895D01*
X-43848Y-75467D01*
X-107089D01*
X-107280Y-75005D01*
X-107165Y-74889D01*
X-106732Y-74139D01*
X-55118D01*
X-54619Y-74040D01*
X-54196Y-73757D01*
X-32179Y-51740D01*
X-31841Y-51831D01*
X-31151D01*
X-30486Y-51652D01*
X-29889Y-51308D01*
X-29401Y-50820D01*
X-29056Y-50223D01*
X-28878Y-49557D01*
Y-48868D01*
X-29056Y-48202D01*
X-29278Y-47819D01*
X-29015Y-47319D01*
X-28665D01*
Y-45488D01*
X-31496D01*
X-34327D01*
Y-47319D01*
X-33977D01*
X-33715Y-47819D01*
X-33936Y-48202D01*
X-34114Y-48868D01*
Y-49557D01*
X-34024Y-49895D01*
X-55659Y-71530D01*
X-106732D01*
X-107165Y-70780D01*
X-107280Y-70664D01*
X-107089Y-70202D01*
X-66929D01*
X-66430Y-70103D01*
X-66007Y-69820D01*
X-47927Y-51740D01*
X-47589Y-51831D01*
X-46900D01*
X-46234Y-51652D01*
X-45637Y-51308D01*
X-45149Y-50820D01*
X-44804Y-50223D01*
X-44626Y-49557D01*
Y-48868D01*
X-44804Y-48202D01*
X-45026Y-47819D01*
X-44763Y-47319D01*
X-44414D01*
Y-45488D01*
X-47244D01*
X-50075D01*
Y-47319D01*
X-49725D01*
X-49463Y-47819D01*
X-49684Y-48202D01*
X-49862Y-48868D01*
Y-49557D01*
X-49772Y-49895D01*
X-67470Y-67593D01*
X-107089D01*
X-107280Y-67131D01*
X-107165Y-67015D01*
X-106724Y-66252D01*
X-106496Y-65401D01*
Y-64520D01*
X-106724Y-63669D01*
X-107165Y-62906D01*
X-107280Y-62790D01*
X-107089Y-62328D01*
X-75016D01*
X-74516Y-62229D01*
X-74093Y-61946D01*
X-52822Y-40675D01*
X-37008D01*
X-36509Y-40575D01*
X-36085Y-40293D01*
X-32179Y-36386D01*
X-31841Y-36476D01*
X-31151D01*
X-30486Y-36298D01*
X-29889Y-35953D01*
X-29401Y-35466D01*
X-29056Y-34869D01*
X-28878Y-34203D01*
Y-33514D01*
X-29056Y-32848D01*
X-29278Y-32465D01*
X-29015Y-31965D01*
X-28665D01*
Y-30134D01*
X-31496D01*
X-34327D01*
Y-31965D01*
X-33977D01*
X-33715Y-32465D01*
X-33936Y-32848D01*
X-34114Y-33514D01*
Y-34203D01*
X-34024Y-34541D01*
X-37548Y-38065D01*
X-53362D01*
X-53861Y-38165D01*
X-54285Y-38448D01*
X-75556Y-59719D01*
X-107089D01*
X-107280Y-59257D01*
X-107165Y-59141D01*
X-106732Y-58391D01*
X-80709D01*
X-80209Y-58292D01*
X-79786Y-58009D01*
X-56940Y-35163D01*
X-49514D01*
X-49339Y-35466D01*
X-48852Y-35953D01*
X-48255Y-36298D01*
X-47589Y-36476D01*
X-46900D01*
X-46234Y-36298D01*
X-45637Y-35953D01*
X-45149Y-35466D01*
X-44804Y-34869D01*
X-44626Y-34203D01*
Y-33514D01*
X-44804Y-32848D01*
X-45026Y-32465D01*
X-44763Y-31965D01*
X-44414D01*
Y-30134D01*
D02*
G37*
G36*
X2831Y-34858D02*
X1000D01*
Y-36689D01*
X2831D01*
Y-34858D01*
D02*
G37*
G36*
X-1000D02*
X-2831D01*
Y-36689D01*
X-1000D01*
Y-34858D01*
D02*
G37*
G36*
X-44414Y-41658D02*
X-46244D01*
Y-43488D01*
X-44414D01*
Y-41658D01*
D02*
G37*
G36*
X-12917D02*
X-14748D01*
Y-43488D01*
X-12917D01*
Y-41658D01*
D02*
G37*
G36*
X-28665D02*
X-30496D01*
Y-43488D01*
X-28665D01*
Y-41658D01*
D02*
G37*
G36*
X-48244D02*
X-50075D01*
Y-43488D01*
X-48244D01*
Y-41658D01*
D02*
G37*
G36*
X-32496D02*
X-34327D01*
Y-43488D01*
X-32496D01*
Y-41658D01*
D02*
G37*
G36*
X-16748D02*
X-18579D01*
Y-43488D01*
X-16748D01*
Y-41658D01*
D02*
G37*
G36*
X34327Y-42051D02*
X32496D01*
Y-43882D01*
X34327D01*
Y-42051D01*
D02*
G37*
G36*
X18579D02*
X16748D01*
Y-43882D01*
X18579D01*
Y-42051D01*
D02*
G37*
G36*
X2831D02*
X1000D01*
Y-43882D01*
X2831D01*
Y-42051D01*
D02*
G37*
G36*
X30496D02*
X28665D01*
Y-43882D01*
X30496D01*
Y-42051D01*
D02*
G37*
G36*
X14748D02*
X12917D01*
Y-43882D01*
X14748D01*
Y-42051D01*
D02*
G37*
G36*
X-1000D02*
X-2831D01*
Y-43882D01*
X-1000D01*
Y-42051D01*
D02*
G37*
G36*
X50075Y-42051D02*
X48244D01*
Y-43882D01*
X50075D01*
Y-42051D01*
D02*
G37*
G36*
X46244D02*
X44413D01*
Y-43882D01*
X46244D01*
Y-42051D01*
D02*
G37*
G36*
X-117276Y-37992D02*
X-118157D01*
X-119008Y-38220D01*
X-119771Y-38661D01*
X-120394Y-39284D01*
X-120835Y-40047D01*
X-121063Y-40898D01*
Y-41779D01*
X-120835Y-42630D01*
X-120394Y-43393D01*
X-119771Y-44016D01*
X-119008Y-44457D01*
X-118157Y-44685D01*
X-117276D01*
X-116425Y-44457D01*
X-115662Y-44016D01*
X-115039Y-43393D01*
X-114598Y-42630D01*
X-114370Y-41779D01*
Y-40898D01*
X-114598Y-40047D01*
X-115039Y-39284D01*
X-115662Y-38661D01*
X-116425Y-38220D01*
X-117276Y-37992D01*
D02*
G37*
G36*
X18579Y-45882D02*
X15748D01*
X12917D01*
Y-47713D01*
X13267D01*
X13530Y-48213D01*
X13308Y-48596D01*
X13130Y-49262D01*
Y-49951D01*
X13308Y-50617D01*
X13653Y-51214D01*
X14140Y-51701D01*
X14737Y-52046D01*
X15403Y-52224D01*
X16093D01*
X16759Y-52046D01*
X17356Y-51701D01*
X17843Y-51214D01*
X18188Y-50617D01*
X18366Y-49951D01*
Y-49262D01*
X18188Y-48596D01*
X17966Y-48213D01*
X18229Y-47713D01*
X18579D01*
Y-45882D01*
D02*
G37*
G36*
X-117276Y-45866D02*
X-118157D01*
X-119008Y-46094D01*
X-119771Y-46535D01*
X-120394Y-47158D01*
X-120835Y-47921D01*
X-121063Y-48772D01*
Y-49653D01*
X-120835Y-50504D01*
X-120394Y-51267D01*
X-119771Y-51890D01*
X-119008Y-52331D01*
X-118157Y-52559D01*
X-117276D01*
X-116425Y-52331D01*
X-115662Y-51890D01*
X-115039Y-51267D01*
X-114598Y-50504D01*
X-114370Y-49653D01*
Y-48772D01*
X-114598Y-47921D01*
X-115039Y-47158D01*
X-115662Y-46535D01*
X-116425Y-46094D01*
X-117276Y-45866D01*
D02*
G37*
G36*
X18579Y-57799D02*
X16748D01*
Y-59630D01*
X18579D01*
Y-57799D01*
D02*
G37*
G36*
X2831D02*
X1000D01*
Y-59630D01*
X2831D01*
Y-57799D01*
D02*
G37*
G36*
X-12917D02*
X-14748D01*
Y-59630D01*
X-12917D01*
Y-57799D01*
D02*
G37*
G36*
X14748D02*
X12917D01*
Y-59630D01*
X14748D01*
Y-57799D01*
D02*
G37*
G36*
X-1000D02*
X-2831D01*
Y-59630D01*
X-1000D01*
Y-57799D01*
D02*
G37*
G36*
X-16748D02*
X-18579D01*
Y-59630D01*
X-16748D01*
Y-57799D01*
D02*
G37*
G36*
X34327Y-45882D02*
X31496D01*
X28665D01*
Y-47713D01*
X29015D01*
X29278Y-48213D01*
X29056Y-48596D01*
X28878Y-49262D01*
Y-49951D01*
X29056Y-50617D01*
X29401Y-51214D01*
X29888Y-51701D01*
X30485Y-52046D01*
X31151Y-52224D01*
X31841D01*
X32179Y-52134D01*
X38054Y-58009D01*
X38477Y-58292D01*
X38976Y-58391D01*
X106732D01*
X107165Y-59141D01*
X107280Y-59257D01*
X107089Y-59719D01*
X30068D01*
X24544Y-54196D01*
X24121Y-53913D01*
X23622Y-53813D01*
X6052D01*
X2527Y-50289D01*
X2618Y-49951D01*
Y-49262D01*
X2440Y-48596D01*
X2218Y-48213D01*
X2481Y-47713D01*
X2831D01*
Y-45882D01*
X-0D01*
X-2831D01*
Y-47713D01*
X-2481D01*
X-2219Y-48213D01*
X-2440Y-48596D01*
X-2618Y-49262D01*
Y-49951D01*
X-2440Y-50617D01*
X-2095Y-51214D01*
X-1608Y-51701D01*
X-1011Y-52046D01*
X-345Y-52224D01*
X345D01*
X683Y-52134D01*
X4589Y-56041D01*
X5012Y-56323D01*
X5512Y-56423D01*
X23082D01*
X28605Y-61946D01*
X29028Y-62229D01*
X29528Y-62328D01*
X107089D01*
X107280Y-62790D01*
X107165Y-62906D01*
X106724Y-63669D01*
X106675Y-63853D01*
X18839D01*
X18579Y-63461D01*
Y-61630D01*
X15748D01*
X12917D01*
Y-63461D01*
X13267D01*
X13530Y-63961D01*
X13308Y-64344D01*
X13130Y-65010D01*
Y-65699D01*
X13308Y-66365D01*
X13653Y-66962D01*
X14140Y-67449D01*
X14737Y-67794D01*
X15403Y-67972D01*
X16093D01*
X16759Y-67794D01*
X17356Y-67449D01*
X17843Y-66962D01*
X18132Y-66462D01*
X106845D01*
X107165Y-67015D01*
X107280Y-67131D01*
X107089Y-67593D01*
X25591D01*
X25091Y-67692D01*
X24668Y-67975D01*
X23082Y-69561D01*
X6052D01*
X2527Y-66037D01*
X2618Y-65699D01*
Y-65010D01*
X2440Y-64344D01*
X2218Y-63961D01*
X2481Y-63461D01*
X2831D01*
Y-61630D01*
X-0D01*
X-2831D01*
Y-63461D01*
X-2481D01*
X-2219Y-63961D01*
X-2440Y-64344D01*
X-2618Y-65010D01*
Y-65699D01*
X-2440Y-66365D01*
X-2095Y-66962D01*
X-1608Y-67449D01*
X-1011Y-67794D01*
X-345Y-67972D01*
X345D01*
X683Y-67882D01*
X4589Y-71789D01*
X5012Y-72071D01*
X5512Y-72171D01*
X23622D01*
X24121Y-72071D01*
X24544Y-71789D01*
X26131Y-70202D01*
X107089D01*
X107280Y-70664D01*
X107165Y-70780D01*
X106732Y-71530D01*
X102362D01*
X101863Y-71629D01*
X101440Y-71912D01*
X99853Y-73499D01*
X-5759D01*
X-13221Y-66037D01*
X-13130Y-65699D01*
Y-65010D01*
X-13308Y-64344D01*
X-13530Y-63961D01*
X-13267Y-63461D01*
X-12917D01*
Y-61630D01*
X-15748D01*
X-18579D01*
Y-63461D01*
X-18229D01*
X-17967Y-63961D01*
X-18188Y-64344D01*
X-18366Y-65010D01*
Y-65699D01*
X-18188Y-66365D01*
X-17843Y-66962D01*
X-17356Y-67449D01*
X-16759Y-67794D01*
X-16093Y-67972D01*
X-15403D01*
X-15066Y-67882D01*
X-7222Y-75726D01*
X-6799Y-76008D01*
X-6299Y-76108D01*
X100394D01*
X100893Y-76008D01*
X101316Y-75726D01*
X102903Y-74139D01*
X106732D01*
X107165Y-74889D01*
X107788Y-75512D01*
X108551Y-75953D01*
X109402Y-76181D01*
X110283D01*
X111134Y-75953D01*
X111897Y-75512D01*
X112520Y-74889D01*
X112961Y-74126D01*
X113189Y-73275D01*
Y-72394D01*
X112961Y-71543D01*
X112520Y-70780D01*
X112875Y-70428D01*
X114470Y-72023D01*
X114370Y-72394D01*
Y-73275D01*
X114598Y-74126D01*
X115039Y-74889D01*
X115662Y-75512D01*
X116425Y-75953D01*
X117276Y-76181D01*
X118157D01*
X119008Y-75953D01*
X119771Y-75512D01*
X120394Y-74889D01*
X120835Y-74126D01*
X121063Y-73275D01*
Y-72394D01*
X120835Y-71543D01*
X120394Y-70780D01*
X119771Y-70157D01*
X119008Y-69716D01*
X118157Y-69488D01*
X117276D01*
X116425Y-69716D01*
X116062Y-69926D01*
X114111Y-67975D01*
X113688Y-67692D01*
X113189Y-67593D01*
X112596D01*
X112405Y-67131D01*
X112520Y-67015D01*
X112961Y-66252D01*
X113189Y-65401D01*
Y-64520D01*
X112961Y-63669D01*
X112520Y-62906D01*
X112405Y-62790D01*
X112596Y-62328D01*
X113239D01*
X114594Y-63683D01*
X114370Y-64520D01*
Y-65401D01*
X114598Y-66252D01*
X115039Y-67015D01*
X115662Y-67638D01*
X116425Y-68079D01*
X117276Y-68307D01*
X118157D01*
X119008Y-68079D01*
X119771Y-67638D01*
X120394Y-67015D01*
X120835Y-66252D01*
X121063Y-65401D01*
Y-64520D01*
X120835Y-63669D01*
X120394Y-62906D01*
X119771Y-62283D01*
X119008Y-61842D01*
X118157Y-61614D01*
X117276D01*
X116439Y-61838D01*
X114702Y-60101D01*
X114279Y-59818D01*
X113779Y-59719D01*
X112596D01*
X112405Y-59257D01*
X112520Y-59141D01*
X112961Y-58378D01*
X113189Y-57527D01*
Y-56646D01*
X112961Y-55795D01*
X112520Y-55032D01*
X111897Y-54409D01*
X111134Y-53968D01*
X110283Y-53740D01*
X109402D01*
X108551Y-53968D01*
X107788Y-54409D01*
X107165Y-55032D01*
X106732Y-55782D01*
X39517D01*
X34024Y-50289D01*
X34114Y-49951D01*
Y-49262D01*
X33936Y-48596D01*
X33715Y-48213D01*
X33977Y-47713D01*
X34327D01*
Y-45882D01*
D02*
G37*
G36*
X118157Y-53740D02*
X117276D01*
X116425Y-53968D01*
X115662Y-54409D01*
X115039Y-55032D01*
X114598Y-55795D01*
X114370Y-56646D01*
Y-57527D01*
X114598Y-58378D01*
X115039Y-59141D01*
X115662Y-59764D01*
X116425Y-60205D01*
X117276Y-60433D01*
X118157D01*
X119008Y-60205D01*
X119771Y-59764D01*
X120394Y-59141D01*
X120835Y-58378D01*
X121063Y-57527D01*
Y-56646D01*
X120835Y-55795D01*
X120394Y-55032D01*
X119771Y-54409D01*
X119008Y-53968D01*
X118157Y-53740D01*
D02*
G37*
G36*
X110843Y-77292D02*
Y-79709D01*
X113259D01*
X113159Y-79335D01*
X112690Y-78523D01*
X112028Y-77861D01*
X111216Y-77392D01*
X110843Y-77292D01*
D02*
G37*
G36*
X-116717D02*
Y-79709D01*
X-114300D01*
X-114400Y-79335D01*
X-114869Y-78523D01*
X-115531Y-77861D01*
X-116343Y-77392D01*
X-116717Y-77292D01*
D02*
G37*
G36*
X-118717D02*
X-119090Y-77392D01*
X-119902Y-77861D01*
X-120564Y-78523D01*
X-121033Y-79335D01*
X-121133Y-79709D01*
X-118717D01*
Y-77292D01*
D02*
G37*
G36*
X108843D02*
X108469Y-77392D01*
X107657Y-77861D01*
X106995Y-78523D01*
X106526Y-79335D01*
X106426Y-79709D01*
X108843D01*
Y-77292D01*
D02*
G37*
G36*
X113259Y-81709D02*
X110843D01*
Y-84125D01*
X111216Y-84025D01*
X112028Y-83557D01*
X112690Y-82894D01*
X113159Y-82082D01*
X113259Y-81709D01*
D02*
G37*
G36*
X-114300D02*
X-116717D01*
Y-84125D01*
X-116343Y-84025D01*
X-115531Y-83557D01*
X-114869Y-82894D01*
X-114400Y-82082D01*
X-114300Y-81709D01*
D02*
G37*
G36*
X-118717D02*
X-121133D01*
X-121033Y-82082D01*
X-120564Y-82894D01*
X-119902Y-83557D01*
X-119090Y-84025D01*
X-118717Y-84125D01*
Y-81709D01*
D02*
G37*
G36*
X108843D02*
X106426D01*
X106526Y-82082D01*
X106995Y-82894D01*
X107657Y-83557D01*
X108469Y-84025D01*
X108843Y-84125D01*
Y-81709D01*
D02*
G37*
G36*
X118157Y-77362D02*
X117276D01*
X116425Y-77590D01*
X115662Y-78031D01*
X115039Y-78654D01*
X114598Y-79417D01*
X114370Y-80268D01*
Y-81149D01*
X114598Y-82000D01*
X115039Y-82763D01*
X115662Y-83386D01*
X116412Y-83820D01*
Y-88830D01*
X100683Y-104559D01*
X100345Y-104469D01*
X99655D01*
X98989Y-104647D01*
X98392Y-104992D01*
X97905Y-105479D01*
X97560Y-106076D01*
X97382Y-106742D01*
Y-107431D01*
X97560Y-108097D01*
X97781Y-108480D01*
X97519Y-108980D01*
X97169D01*
Y-110811D01*
X100000D01*
X102831D01*
Y-108980D01*
X102481D01*
X102218Y-108480D01*
X102440Y-108097D01*
X102618Y-107431D01*
Y-106742D01*
X102528Y-106404D01*
X118639Y-90293D01*
X118922Y-89869D01*
X119021Y-89370D01*
Y-83820D01*
X119771Y-83386D01*
X120394Y-82763D01*
X120835Y-82000D01*
X121063Y-81149D01*
Y-80268D01*
X120835Y-79417D01*
X120394Y-78654D01*
X119771Y-78031D01*
X119008Y-77590D01*
X118157Y-77362D01*
D02*
G37*
G36*
X102831Y-112811D02*
X101000D01*
Y-114642D01*
X102831D01*
Y-112811D01*
D02*
G37*
G36*
X99000D02*
X97169D01*
Y-114642D01*
X99000D01*
Y-112811D01*
D02*
G37*
G36*
X-97169D02*
X-99000D01*
Y-114642D01*
X-97169D01*
Y-112811D01*
D02*
G37*
G36*
X-101000D02*
X-102831D01*
Y-114642D01*
X-101000D01*
Y-112811D01*
D02*
G37*
G36*
X13402Y-132661D02*
X606D01*
Y-145457D01*
X13402D01*
Y-132661D01*
D02*
G37*
G36*
X-1394D02*
X-14189D01*
Y-145457D01*
X-1394D01*
Y-132661D01*
D02*
G37*
G36*
X13402Y-147457D02*
X606D01*
Y-160252D01*
X13402D01*
Y-147457D01*
D02*
G37*
G36*
X-1394D02*
X-14189D01*
Y-160252D01*
X-1394D01*
Y-147457D01*
D02*
G37*
%LPD*%
D11*
X34941Y68799D02*
X113878D01*
X15748Y49606D02*
X34941Y68799D01*
X-43307Y-76772D02*
X-15748Y-49213D01*
X-113779Y-76772D02*
X-43307D01*
X-113779Y-61024D02*
X-75016D01*
X-53362Y-39370D01*
X-37008D01*
X-66536Y-29134D02*
X-57495D01*
X-51983Y-23622D02*
X-21260D01*
X-57495Y-29134D02*
X-51983Y-23622D01*
X-72835D02*
X-58799D01*
X-53287Y-18110D02*
X-47244D01*
X-58799Y-23622D02*
X-53287Y-18110D01*
X-86614Y-49213D02*
X-66536Y-29134D01*
X-90551Y-41339D02*
X-72835Y-23622D01*
X-109843Y-41339D02*
X-90551D01*
X-109843Y-49213D02*
X-86614D01*
X-57480Y-33858D02*
X-47244D01*
X-80709Y-57087D02*
X-57480Y-33858D01*
X-109843Y-57087D02*
X-80709D01*
X-55118Y-72835D02*
X-31496Y-49213D01*
X47244Y-33858D02*
X60511D01*
X64054Y-37402D02*
X113779D01*
X60511Y-33858D02*
X64054Y-37402D01*
X62992Y-18110D02*
X102930D01*
X106374Y-21555D01*
X113681D01*
X52756Y-18110D02*
X59449Y-24803D01*
X109055D01*
X113681Y-21555D02*
X117717Y-25591D01*
X-25197Y55118D02*
X-5118D01*
X-31102Y61024D02*
X-25197Y55118D01*
X-113779Y61024D02*
X-31102D01*
X-104028Y53248D02*
X-102158Y55118D01*
X-112318Y53543D02*
X-112023Y53248D01*
X-102158Y55118D02*
X-37402D01*
X-112023Y53248D02*
X-104028D01*
X-113386Y53543D02*
X-112318D01*
X-117717Y49213D02*
X-113386Y53543D01*
X-37402Y55118D02*
X-31496Y49213D01*
X-106102Y17913D02*
X-99730Y24286D01*
X-60532D02*
X-53962Y17717D01*
X-99730Y24286D02*
X-60532D01*
X-53962Y17717D02*
X-47244D01*
X85039Y33465D02*
X109843D01*
X69685Y18110D02*
X85039Y33465D01*
X62992Y18110D02*
X69685D01*
X53130Y18110D02*
X72421Y37402D01*
X113779D01*
X47244Y18110D02*
X53130D01*
X51148Y23622D02*
X72704Y45177D01*
X21260Y23622D02*
X51148D01*
X72704Y45177D02*
X113878D01*
X47244Y33858D02*
X54553D01*
X69907Y49213D02*
X109843D01*
X54553Y33858D02*
X69907Y49213D01*
X21260Y39370D02*
X51932D01*
X69648Y57087D01*
X109843D01*
X37008Y-23622D02*
X50893D01*
X56798Y-29528D02*
X113779D01*
X50893Y-23622D02*
X56798Y-29528D01*
X-109843Y-89899D02*
X-100000Y-99741D01*
Y-107087D02*
Y-99741D01*
X-109843Y-89899D02*
Y-80709D01*
X-0Y113779D02*
X59449D01*
X100394Y72835D01*
X109843D01*
X113779Y-45276D02*
X117717Y-49213D01*
X61024Y-45276D02*
X113779D01*
X55118Y-39370D02*
X61024Y-45276D01*
X-0Y-65354D02*
X5512Y-70866D01*
X-6299Y-74803D02*
X100394D01*
X102362Y-72835D02*
X109843D01*
X100394Y-74803D02*
X102362Y-72835D01*
X-15748Y-65354D02*
X-6299Y-74803D01*
X113189Y-68898D02*
X117126Y-72835D01*
X23622Y-70866D02*
X25591Y-68898D01*
X113189D01*
X5512Y-70866D02*
X23622D01*
X5512Y-7874D02*
X92520D01*
X100394Y0D01*
X114173D01*
X117717Y3543D01*
Y9843D01*
X84646Y17717D02*
X109843D01*
X21260Y7874D02*
X74803D01*
X84646Y17717D01*
X104232Y13681D02*
X113681D01*
X62992Y2362D02*
X92913D01*
X104232Y13681D01*
X47244Y49606D02*
X58661Y61024D01*
X113779D02*
X117717Y57087D01*
X58661Y61024D02*
X113779D01*
X-113878Y45177D02*
X-102657D01*
X-96850Y39370D02*
X-5512D01*
X-102657Y45177D02*
X-96850Y39370D01*
X-117717Y57087D02*
X-113779Y61024D01*
X-109843Y-72835D02*
X-55118D01*
X-66929Y-68898D02*
X-47244Y-49213D01*
X-113779Y-68898D02*
X-66929D01*
X-117717Y-64961D02*
X-113779Y-68898D01*
X-94488Y-33465D02*
X-74410Y-13386D01*
X-62992D01*
X-109843Y-33465D02*
X-94488D01*
X-102362Y-29528D02*
X-80709Y-7874D01*
X-113779Y-29528D02*
X-102362D01*
X-80709Y-7874D02*
X-37008D01*
X-102362Y-21654D02*
X-83071Y-2362D01*
X-62992D01*
X-113779Y-21654D02*
X-102362D01*
X-117717Y-33465D02*
X-113779Y-29528D01*
X-117717Y-25591D02*
X-113779Y-21654D01*
X-117717Y-57087D02*
X-113779Y-61024D01*
X-117717Y-72835D02*
X-113779Y-76772D01*
X15748Y2362D02*
X21260Y7874D01*
X113779Y37402D02*
X117717Y33465D01*
X113878Y45177D02*
X117717Y41339D01*
X15748Y18110D02*
X21260Y23622D01*
X31496Y49606D02*
X46850Y64961D01*
X109843D01*
X15748Y33858D02*
X21260Y39370D01*
X113878Y68799D02*
X117717Y64961D01*
X113681Y13681D02*
X117717Y17717D01*
X-0Y-2362D02*
X5512Y-7874D01*
X-98425Y17717D02*
X-62992D01*
X-109646Y10039D02*
X-106102D01*
X-98425Y17717D01*
X-109646Y17913D02*
X-106102D01*
X-52756Y23622D02*
X-5118D01*
X-58563Y29429D02*
X-52756Y23622D01*
X-113878Y29429D02*
X-58563D01*
X-5118Y23622D02*
X-0Y18504D01*
X-117717Y25591D02*
X-113878Y29429D01*
X-109646Y33661D02*
X-47441D01*
X-5512Y39370D02*
X-0Y33858D01*
X-117717Y41339D02*
X-113878Y45177D01*
X-109843Y49213D02*
X-47244D01*
X-5118Y55118D02*
X-0Y50000D01*
X-109646Y65157D02*
X-15945D01*
X-100394Y72835D02*
X-7480D01*
X-104232Y68996D02*
X-100394Y72835D01*
X-7480D02*
X-0Y65354D01*
X-117717Y72835D02*
X-113779Y76772D01*
X4331D01*
X15748Y65354D01*
X-113681Y68996D02*
X-104232D01*
X-117717Y64961D02*
X-113681Y68996D01*
X100000Y-107087D02*
X117717Y-89370D01*
Y-80709D01*
X5512Y-55118D02*
X23622D01*
X29528Y-61024D02*
X113779D01*
X23622Y-55118D02*
X29528Y-61024D01*
X38976Y-57087D02*
X109843D01*
X31496Y-49606D02*
X38976Y-57087D01*
X21260Y-39370D02*
X55118D01*
X15748Y-33858D02*
X21260Y-39370D01*
X47441Y-49409D02*
X109646D01*
X113779Y-61024D02*
X117717Y-64961D01*
X-0Y-49606D02*
X5512Y-55118D01*
X15945Y-65158D02*
X109646D01*
X113779Y-37402D02*
X117717Y-41339D01*
X31496Y-18110D02*
X37008Y-23622D01*
X113779Y-29528D02*
X117717Y-33465D01*
X47244Y-18110D02*
X52756D01*
X-37008Y-7874D02*
X-31496Y-2362D01*
X-21260Y-23622D02*
X-15748Y-18110D01*
X-37008Y-39370D02*
X-31496Y-33858D01*
D12*
X-113091Y-13681D02*
X-104232D01*
X-117126Y-17717D02*
X-113091Y-13681D01*
X-82677Y7874D02*
X-21260D01*
X-15748Y2362D01*
X-104232Y-13681D02*
X-82677Y7874D01*
D15*
X62992Y-18110D02*
D03*
X15748Y65354D02*
D03*
X-0D02*
D03*
Y50000D02*
D03*
X-31496Y49213D02*
D03*
X-0Y33858D02*
D03*
X-31496D02*
D03*
X-0Y18504D02*
D03*
X-31496Y17717D02*
D03*
X-62992D02*
D03*
X-47244D02*
D03*
X-15748D02*
D03*
X-47244Y33858D02*
D03*
X-15748D02*
D03*
X-47244Y49213D02*
D03*
X-15748D02*
D03*
Y65354D02*
D03*
Y2362D02*
D03*
X-62992Y-2362D02*
D03*
X-31496D02*
D03*
Y-18110D02*
D03*
X-15748Y-33858D02*
D03*
X-31496D02*
D03*
X-47244Y-49213D02*
D03*
X-15748D02*
D03*
X-100000Y-107087D02*
D03*
X-31496Y-49213D02*
D03*
X-0Y-18110D02*
D03*
X-47244Y-33858D02*
D03*
X-15748Y-18110D02*
D03*
X-47244D02*
D03*
X-62992Y-13386D02*
D03*
X-47244Y-2362D02*
D03*
X-0Y113779D02*
D03*
X31496Y49606D02*
D03*
X15748Y33858D02*
D03*
X47244D02*
D03*
X31496Y18110D02*
D03*
X62992D02*
D03*
X47244Y2362D02*
D03*
X15748D02*
D03*
X-0Y-2362D02*
D03*
X62992Y2362D02*
D03*
X31496D02*
D03*
X47244Y18110D02*
D03*
X15748D02*
D03*
X31496Y33858D02*
D03*
X47244Y49606D02*
D03*
X15748D02*
D03*
Y-13386D02*
D03*
X47244Y-18110D02*
D03*
X-0Y-29134D02*
D03*
X31496Y-33858D02*
D03*
X47244Y-49606D02*
D03*
X31496Y-49606D02*
D03*
X15748Y-65354D02*
D03*
X-15748D02*
D03*
X100000Y-107087D02*
D03*
X-0Y-65354D02*
D03*
Y-49606D02*
D03*
X15748D02*
D03*
Y-33858D02*
D03*
X47244D02*
D03*
X31496Y-18110D02*
D03*
D16*
X62992Y-13386D02*
D03*
X15748Y60630D02*
D03*
X-0D02*
D03*
Y45276D02*
D03*
X-31496Y44488D02*
D03*
X-0Y29134D02*
D03*
X-31496D02*
D03*
X-0Y13780D02*
D03*
X-31496Y12992D02*
D03*
X-62992D02*
D03*
X-47244D02*
D03*
X-15748D02*
D03*
X-47244Y29134D02*
D03*
X-15748D02*
D03*
X-47244Y44488D02*
D03*
X-15748D02*
D03*
Y60630D02*
D03*
Y-2362D02*
D03*
X-62992Y2362D02*
D03*
X-31496D02*
D03*
Y-13386D02*
D03*
X-15748Y-29134D02*
D03*
X-31496D02*
D03*
X-47244Y-44488D02*
D03*
X-15748D02*
D03*
X-100000Y-111811D02*
D03*
X-31496Y-44488D02*
D03*
X-0Y-13386D02*
D03*
X-47244Y-29134D02*
D03*
X-15748Y-13386D02*
D03*
X-47244D02*
D03*
X-62992Y-18110D02*
D03*
X-47244Y2362D02*
D03*
X-0Y118504D02*
D03*
X31496Y44882D02*
D03*
X15748Y29134D02*
D03*
X47244D02*
D03*
X31496Y13386D02*
D03*
X62992D02*
D03*
X47244Y-2362D02*
D03*
X15748D02*
D03*
X-0Y2362D02*
D03*
X62992Y-2362D02*
D03*
X31496D02*
D03*
X47244Y13386D02*
D03*
X15748D02*
D03*
X31496Y29134D02*
D03*
X47244Y44882D02*
D03*
X15748D02*
D03*
Y-18110D02*
D03*
X47244Y-13386D02*
D03*
X-0Y-33858D02*
D03*
X31496Y-29134D02*
D03*
X47244Y-44882D02*
D03*
X31496Y-44882D02*
D03*
X15748Y-60630D02*
D03*
X-15748D02*
D03*
X100000Y-111811D02*
D03*
X-0Y-60630D02*
D03*
Y-44882D02*
D03*
X15748D02*
D03*
Y-29134D02*
D03*
X47244D02*
D03*
X31496Y-13386D02*
D03*
D18*
X109843Y-9843D02*
D03*
X-117717Y80709D02*
D03*
Y-9843D02*
D03*
X109843Y80709D02*
D03*
D19*
Y-17717D02*
D03*
Y-25591D02*
D03*
Y-33465D02*
D03*
Y-41339D02*
D03*
Y-49213D02*
D03*
Y-57087D02*
D03*
Y-64961D02*
D03*
Y-72835D02*
D03*
Y-80709D02*
D03*
X117717Y-9843D02*
D03*
Y-17717D02*
D03*
Y-25591D02*
D03*
Y-33465D02*
D03*
Y-41339D02*
D03*
Y-49213D02*
D03*
Y-57087D02*
D03*
Y-64961D02*
D03*
Y-72835D02*
D03*
Y-80709D02*
D03*
X-117717Y72835D02*
D03*
Y64961D02*
D03*
Y57087D02*
D03*
Y49213D02*
D03*
Y41339D02*
D03*
Y33465D02*
D03*
Y25591D02*
D03*
Y17717D02*
D03*
Y9843D02*
D03*
X-109843Y80709D02*
D03*
Y72835D02*
D03*
Y64961D02*
D03*
Y57087D02*
D03*
Y49213D02*
D03*
Y41339D02*
D03*
Y33465D02*
D03*
Y25591D02*
D03*
Y17717D02*
D03*
Y9843D02*
D03*
X-117717Y-17717D02*
D03*
Y-25591D02*
D03*
Y-33465D02*
D03*
Y-41339D02*
D03*
Y-49213D02*
D03*
Y-57087D02*
D03*
Y-64961D02*
D03*
Y-72835D02*
D03*
Y-80709D02*
D03*
X-109843Y-9843D02*
D03*
Y-17717D02*
D03*
Y-25591D02*
D03*
Y-33465D02*
D03*
Y-41339D02*
D03*
Y-49213D02*
D03*
Y-57087D02*
D03*
Y-64961D02*
D03*
Y-72835D02*
D03*
Y-80709D02*
D03*
X109843Y72835D02*
D03*
Y64961D02*
D03*
Y57087D02*
D03*
Y49213D02*
D03*
Y41339D02*
D03*
Y33465D02*
D03*
Y25591D02*
D03*
Y17717D02*
D03*
Y9843D02*
D03*
X117717Y80709D02*
D03*
Y72835D02*
D03*
Y64961D02*
D03*
Y57087D02*
D03*
Y49213D02*
D03*
Y41339D02*
D03*
Y33465D02*
D03*
Y25591D02*
D03*
Y17717D02*
D03*
Y9843D02*
D03*
D20*
X-394Y-146457D02*
D03*
X-0Y146430D02*
D03*
X-146457Y0D02*
D03*
X146457D02*
D03*
M02*
