G04*
G04 #@! TF.GenerationSoftware,Altium Limited,Altium Designer,23.3.1 (30)*
G04*
G04 Layer_Color=39423*
%FSLAX25Y25*%
%MOIN*%
G70*
G04*
G04 #@! TF.SameCoordinates,4AB93319-1172-440E-AE3B-729AD693B432*
G04*
G04*
G04 #@! TF.FilePolarity,Positive*
G04*
G01*
G75*
%ADD10C,0.00591*%
%ADD13C,0.00630*%
G36*
X5883Y-118183D02*
X6007Y-118191D01*
X6116Y-118205D01*
X6226Y-118220D01*
X6313Y-118242D01*
X6386Y-118256D01*
X6430Y-118264D01*
X6437Y-118271D01*
X6444D01*
X6568Y-118307D01*
X6678Y-118336D01*
X6772Y-118373D01*
X6853Y-118402D01*
X6918Y-118431D01*
X6962Y-118453D01*
X6991Y-118468D01*
X6998Y-118475D01*
Y-119138D01*
X6962D01*
X6896Y-119095D01*
X6831Y-119051D01*
X6780Y-119022D01*
X6772Y-119015D01*
X6765D01*
X6670Y-118963D01*
X6583Y-118920D01*
X6546Y-118898D01*
X6517Y-118891D01*
X6503Y-118876D01*
X6495D01*
X6371Y-118832D01*
X6313Y-118810D01*
X6262Y-118796D01*
X6218Y-118781D01*
X6189Y-118774D01*
X6167Y-118767D01*
X6160D01*
X6029Y-118737D01*
X5978Y-118730D01*
X5919D01*
X5883Y-118723D01*
X5817D01*
X5701Y-118730D01*
X5642Y-118737D01*
X5599D01*
X5562Y-118745D01*
X5526Y-118752D01*
X5511Y-118759D01*
X5504D01*
X5402Y-118789D01*
X5314Y-118825D01*
X5285Y-118847D01*
X5263Y-118861D01*
X5249Y-118869D01*
X5241Y-118876D01*
X5169Y-118942D01*
X5110Y-119007D01*
X5088Y-119036D01*
X5074Y-119058D01*
X5059Y-119073D01*
Y-119080D01*
X5015Y-119182D01*
X4994Y-119284D01*
X4986Y-119328D01*
Y-119364D01*
Y-119386D01*
Y-119394D01*
X5001Y-119532D01*
X5030Y-119649D01*
X5074Y-119751D01*
X5117Y-119831D01*
X5169Y-119897D01*
X5212Y-119948D01*
X5241Y-119977D01*
X5256Y-119984D01*
X5365Y-120050D01*
X5482Y-120101D01*
X5599Y-120137D01*
X5708Y-120159D01*
X5803Y-120174D01*
X5883Y-120188D01*
X6160D01*
Y-120713D01*
X5890D01*
X5737Y-120720D01*
X5672Y-120728D01*
X5613Y-120735D01*
X5562Y-120742D01*
X5526Y-120749D01*
X5504Y-120757D01*
X5497D01*
X5373Y-120793D01*
X5314Y-120815D01*
X5271Y-120837D01*
X5227Y-120859D01*
X5198Y-120873D01*
X5183Y-120881D01*
X5176Y-120888D01*
X5088Y-120968D01*
X5023Y-121056D01*
X5001Y-121092D01*
X4986Y-121121D01*
X4972Y-121143D01*
Y-121151D01*
X4942Y-121216D01*
X4928Y-121289D01*
X4913Y-121355D01*
X4899Y-121428D01*
Y-121486D01*
X4891Y-121529D01*
Y-121559D01*
Y-121573D01*
Y-121668D01*
X4906Y-121756D01*
X4913Y-121828D01*
X4928Y-121887D01*
X4942Y-121938D01*
X4950Y-121982D01*
X4964Y-122003D01*
Y-122011D01*
X5023Y-122127D01*
X5052Y-122178D01*
X5081Y-122229D01*
X5110Y-122266D01*
X5132Y-122295D01*
X5147Y-122310D01*
X5154Y-122317D01*
X5263Y-122404D01*
X5365Y-122470D01*
X5409Y-122492D01*
X5446Y-122506D01*
X5475Y-122521D01*
X5482D01*
X5628Y-122557D01*
X5693Y-122565D01*
X5752Y-122572D01*
X5803Y-122579D01*
X5876D01*
X6000Y-122572D01*
X6123Y-122557D01*
X6240Y-122536D01*
X6342Y-122514D01*
X6430Y-122492D01*
X6495Y-122470D01*
X6539Y-122455D01*
X6546Y-122448D01*
X6554D01*
X6670Y-122397D01*
X6780Y-122346D01*
X6867Y-122302D01*
X6947Y-122258D01*
X7006Y-122222D01*
X7049Y-122193D01*
X7079Y-122171D01*
X7086Y-122164D01*
X7130D01*
Y-122834D01*
X7035Y-122878D01*
X6940Y-122922D01*
X6845Y-122951D01*
X6750Y-122980D01*
X6670Y-123009D01*
X6605Y-123024D01*
X6561Y-123031D01*
X6554Y-123039D01*
X6546D01*
X6415Y-123068D01*
X6284Y-123090D01*
X6160Y-123104D01*
X6058Y-123111D01*
X5963Y-123119D01*
X5890Y-123126D01*
X5832D01*
X5693Y-123119D01*
X5570Y-123111D01*
X5460Y-123090D01*
X5358Y-123068D01*
X5278Y-123053D01*
X5220Y-123031D01*
X5183Y-123024D01*
X5169Y-123017D01*
X5066Y-122973D01*
X4964Y-122922D01*
X4884Y-122864D01*
X4804Y-122813D01*
X4746Y-122761D01*
X4702Y-122725D01*
X4673Y-122696D01*
X4665Y-122689D01*
X4593Y-122608D01*
X4534Y-122528D01*
X4483Y-122448D01*
X4439Y-122375D01*
X4403Y-122310D01*
X4381Y-122258D01*
X4367Y-122229D01*
X4359Y-122215D01*
X4323Y-122113D01*
X4294Y-122011D01*
X4272Y-121909D01*
X4257Y-121821D01*
X4250Y-121741D01*
X4243Y-121675D01*
Y-121639D01*
Y-121624D01*
X4250Y-121515D01*
X4257Y-121413D01*
X4272Y-121318D01*
X4286Y-121245D01*
X4308Y-121180D01*
X4323Y-121136D01*
X4330Y-121107D01*
X4338Y-121099D01*
X4374Y-121019D01*
X4418Y-120954D01*
X4454Y-120888D01*
X4491Y-120837D01*
X4527Y-120800D01*
X4556Y-120764D01*
X4571Y-120749D01*
X4578Y-120742D01*
X4687Y-120655D01*
X4789Y-120589D01*
X4833Y-120567D01*
X4870Y-120553D01*
X4891Y-120538D01*
X4899D01*
X5023Y-120494D01*
X5074Y-120473D01*
X5125Y-120458D01*
X5161Y-120451D01*
X5190Y-120443D01*
X5212Y-120436D01*
X5220D01*
Y-120392D01*
X5088Y-120356D01*
X4972Y-120298D01*
X4862Y-120239D01*
X4775Y-120174D01*
X4702Y-120115D01*
X4644Y-120064D01*
X4614Y-120035D01*
X4600Y-120020D01*
X4512Y-119904D01*
X4447Y-119787D01*
X4403Y-119671D01*
X4367Y-119561D01*
X4352Y-119466D01*
X4345Y-119394D01*
X4338Y-119364D01*
Y-119343D01*
Y-119335D01*
Y-119328D01*
X4345Y-119219D01*
X4352Y-119124D01*
X4374Y-119036D01*
X4389Y-118963D01*
X4410Y-118905D01*
X4432Y-118854D01*
X4439Y-118825D01*
X4447Y-118818D01*
X4491Y-118737D01*
X4542Y-118665D01*
X4593Y-118606D01*
X4651Y-118548D01*
X4695Y-118504D01*
X4731Y-118475D01*
X4760Y-118453D01*
X4768Y-118446D01*
X4913Y-118358D01*
X4986Y-118322D01*
X5052Y-118293D01*
X5110Y-118271D01*
X5154Y-118256D01*
X5183Y-118242D01*
X5198D01*
X5293Y-118220D01*
X5387Y-118205D01*
X5482Y-118191D01*
X5570Y-118183D01*
X5642Y-118176D01*
X5759D01*
X5883Y-118183D01*
D02*
G37*
G36*
X-168D02*
X-51Y-118191D01*
X65Y-118205D01*
X168Y-118220D01*
X255Y-118242D01*
X321Y-118256D01*
X364Y-118264D01*
X372Y-118271D01*
X379D01*
X503Y-118307D01*
X612Y-118344D01*
X707Y-118373D01*
X780Y-118402D01*
X846Y-118431D01*
X889Y-118453D01*
X918Y-118460D01*
X926Y-118468D01*
Y-119138D01*
X897D01*
X831Y-119095D01*
X765Y-119058D01*
X736Y-119044D01*
X714Y-119029D01*
X700Y-119015D01*
X692D01*
X598Y-118956D01*
X518Y-118912D01*
X488Y-118898D01*
X459Y-118883D01*
X445Y-118876D01*
X437D01*
X313Y-118832D01*
X262Y-118810D01*
X211Y-118796D01*
X168Y-118781D01*
X131Y-118774D01*
X109Y-118767D01*
X102D01*
X-29Y-118737D01*
X-80Y-118730D01*
X-139D01*
X-175Y-118723D01*
X-241D01*
X-365Y-118730D01*
X-423Y-118737D01*
X-467Y-118745D01*
X-503Y-118759D01*
X-540Y-118767D01*
X-554Y-118774D01*
X-561D01*
X-663Y-118818D01*
X-751Y-118869D01*
X-780Y-118883D01*
X-802Y-118905D01*
X-817Y-118912D01*
X-824Y-118920D01*
X-897Y-119000D01*
X-948Y-119080D01*
X-962Y-119116D01*
X-977Y-119138D01*
X-991Y-119160D01*
Y-119168D01*
X-1028Y-119284D01*
X-1050Y-119401D01*
X-1057Y-119445D01*
Y-119481D01*
Y-119510D01*
Y-119518D01*
X-1050Y-119656D01*
X-1028Y-119794D01*
X-991Y-119918D01*
X-955Y-120028D01*
X-919Y-120123D01*
X-882Y-120195D01*
X-875Y-120225D01*
X-860Y-120247D01*
X-853Y-120254D01*
Y-120261D01*
X-809Y-120334D01*
X-765Y-120407D01*
X-656Y-120560D01*
X-532Y-120720D01*
X-408Y-120873D01*
X-299Y-121005D01*
X-248Y-121063D01*
X-204Y-121114D01*
X-168Y-121158D01*
X-139Y-121187D01*
X-124Y-121209D01*
X-117Y-121216D01*
X-15Y-121325D01*
X80Y-121428D01*
X175Y-121522D01*
X262Y-121610D01*
X335Y-121683D01*
X386Y-121734D01*
X423Y-121770D01*
X437Y-121785D01*
X649Y-121989D01*
X744Y-122091D01*
X838Y-122178D01*
X911Y-122251D01*
X977Y-122310D01*
X1013Y-122346D01*
X1020Y-122353D01*
X1028Y-122361D01*
Y-123024D01*
X-1903D01*
Y-122477D01*
X437D01*
X350Y-122397D01*
X255Y-122310D01*
X153Y-122215D01*
X58Y-122127D01*
X-22Y-122054D01*
X-95Y-121989D01*
X-139Y-121945D01*
X-146Y-121938D01*
X-153Y-121931D01*
X-292Y-121799D01*
X-416Y-121675D01*
X-532Y-121559D01*
X-627Y-121457D01*
X-707Y-121369D01*
X-773Y-121311D01*
X-809Y-121267D01*
X-824Y-121253D01*
X-955Y-121107D01*
X-1013Y-121041D01*
X-1064Y-120975D01*
X-1108Y-120924D01*
X-1145Y-120888D01*
X-1166Y-120859D01*
X-1174Y-120852D01*
X-1290Y-120698D01*
X-1334Y-120633D01*
X-1378Y-120567D01*
X-1414Y-120516D01*
X-1436Y-120473D01*
X-1451Y-120443D01*
X-1458Y-120436D01*
X-1538Y-120283D01*
X-1567Y-120210D01*
X-1597Y-120144D01*
X-1611Y-120093D01*
X-1626Y-120042D01*
X-1640Y-120013D01*
Y-120006D01*
X-1677Y-119824D01*
X-1691Y-119736D01*
X-1699Y-119656D01*
X-1706Y-119590D01*
Y-119532D01*
Y-119503D01*
Y-119488D01*
X-1699Y-119379D01*
X-1691Y-119277D01*
X-1648Y-119080D01*
X-1589Y-118920D01*
X-1516Y-118781D01*
X-1480Y-118723D01*
X-1443Y-118679D01*
X-1414Y-118635D01*
X-1385Y-118599D01*
X-1363Y-118570D01*
X-1342Y-118548D01*
X-1334Y-118541D01*
X-1327Y-118533D01*
X-1254Y-118468D01*
X-1174Y-118417D01*
X-1094Y-118366D01*
X-1006Y-118329D01*
X-831Y-118264D01*
X-663Y-118220D01*
X-518Y-118198D01*
X-452Y-118183D01*
X-394D01*
X-350Y-118176D01*
X-284D01*
X-168Y-118183D01*
D02*
G37*
G36*
X-7297D02*
X-7181Y-118191D01*
X-7064Y-118205D01*
X-6962Y-118220D01*
X-6875Y-118242D01*
X-6809Y-118256D01*
X-6765Y-118264D01*
X-6758Y-118271D01*
X-6751D01*
X-6627Y-118307D01*
X-6517Y-118344D01*
X-6423Y-118373D01*
X-6350Y-118402D01*
X-6284Y-118431D01*
X-6240Y-118453D01*
X-6211Y-118460D01*
X-6204Y-118468D01*
Y-119138D01*
X-6233D01*
X-6299Y-119095D01*
X-6364Y-119058D01*
X-6393Y-119044D01*
X-6415Y-119029D01*
X-6430Y-119015D01*
X-6437D01*
X-6532Y-118956D01*
X-6612Y-118912D01*
X-6641Y-118898D01*
X-6670Y-118883D01*
X-6685Y-118876D01*
X-6692D01*
X-6816Y-118832D01*
X-6867Y-118810D01*
X-6918Y-118796D01*
X-6962Y-118781D01*
X-6999Y-118774D01*
X-7020Y-118767D01*
X-7028D01*
X-7159Y-118737D01*
X-7210Y-118730D01*
X-7268D01*
X-7305Y-118723D01*
X-7370D01*
X-7494Y-118730D01*
X-7553Y-118737D01*
X-7596Y-118745D01*
X-7633Y-118759D01*
X-7669Y-118767D01*
X-7684Y-118774D01*
X-7691D01*
X-7793Y-118818D01*
X-7881Y-118869D01*
X-7910Y-118883D01*
X-7932Y-118905D01*
X-7946Y-118912D01*
X-7954Y-118920D01*
X-8026Y-119000D01*
X-8077Y-119080D01*
X-8092Y-119116D01*
X-8107Y-119138D01*
X-8121Y-119160D01*
Y-119168D01*
X-8158Y-119284D01*
X-8179Y-119401D01*
X-8187Y-119445D01*
Y-119481D01*
Y-119510D01*
Y-119518D01*
X-8179Y-119656D01*
X-8158Y-119794D01*
X-8121Y-119918D01*
X-8085Y-120028D01*
X-8048Y-120123D01*
X-8012Y-120195D01*
X-8004Y-120225D01*
X-7990Y-120247D01*
X-7983Y-120254D01*
Y-120261D01*
X-7939Y-120334D01*
X-7895Y-120407D01*
X-7786Y-120560D01*
X-7662Y-120720D01*
X-7538Y-120873D01*
X-7429Y-121005D01*
X-7378Y-121063D01*
X-7334Y-121114D01*
X-7297Y-121158D01*
X-7268Y-121187D01*
X-7254Y-121209D01*
X-7246Y-121216D01*
X-7144Y-121325D01*
X-7050Y-121428D01*
X-6955Y-121522D01*
X-6867Y-121610D01*
X-6794Y-121683D01*
X-6743Y-121734D01*
X-6707Y-121770D01*
X-6692Y-121785D01*
X-6481Y-121989D01*
X-6386Y-122091D01*
X-6291Y-122178D01*
X-6219Y-122251D01*
X-6153Y-122310D01*
X-6116Y-122346D01*
X-6109Y-122353D01*
X-6102Y-122361D01*
Y-123024D01*
X-9032D01*
Y-122477D01*
X-6692D01*
X-6780Y-122397D01*
X-6875Y-122310D01*
X-6977Y-122215D01*
X-7071Y-122127D01*
X-7152Y-122054D01*
X-7225Y-121989D01*
X-7268Y-121945D01*
X-7276Y-121938D01*
X-7283Y-121931D01*
X-7421Y-121799D01*
X-7545Y-121675D01*
X-7662Y-121559D01*
X-7757Y-121457D01*
X-7837Y-121369D01*
X-7903Y-121311D01*
X-7939Y-121267D01*
X-7954Y-121253D01*
X-8085Y-121107D01*
X-8143Y-121041D01*
X-8194Y-120975D01*
X-8238Y-120924D01*
X-8274Y-120888D01*
X-8296Y-120859D01*
X-8303Y-120852D01*
X-8420Y-120698D01*
X-8464Y-120633D01*
X-8507Y-120567D01*
X-8544Y-120516D01*
X-8566Y-120473D01*
X-8580Y-120443D01*
X-8588Y-120436D01*
X-8668Y-120283D01*
X-8697Y-120210D01*
X-8726Y-120144D01*
X-8741Y-120093D01*
X-8755Y-120042D01*
X-8770Y-120013D01*
Y-120006D01*
X-8806Y-119824D01*
X-8821Y-119736D01*
X-8828Y-119656D01*
X-8836Y-119590D01*
Y-119532D01*
Y-119503D01*
Y-119488D01*
X-8828Y-119379D01*
X-8821Y-119277D01*
X-8777Y-119080D01*
X-8719Y-118920D01*
X-8646Y-118781D01*
X-8610Y-118723D01*
X-8573Y-118679D01*
X-8544Y-118635D01*
X-8515Y-118599D01*
X-8493Y-118570D01*
X-8471Y-118548D01*
X-8464Y-118541D01*
X-8456Y-118533D01*
X-8384Y-118468D01*
X-8303Y-118417D01*
X-8223Y-118366D01*
X-8136Y-118329D01*
X-7961Y-118264D01*
X-7793Y-118220D01*
X-7647Y-118198D01*
X-7582Y-118183D01*
X-7523D01*
X-7480Y-118176D01*
X-7414D01*
X-7297Y-118183D01*
D02*
G37*
G36*
X-10870D02*
X-10746Y-118191D01*
X-10636Y-118205D01*
X-10527Y-118220D01*
X-10439Y-118242D01*
X-10367Y-118256D01*
X-10323Y-118264D01*
X-10315Y-118271D01*
X-10308D01*
X-10184Y-118307D01*
X-10075Y-118336D01*
X-9980Y-118373D01*
X-9900Y-118402D01*
X-9834Y-118431D01*
X-9791Y-118453D01*
X-9761Y-118468D01*
X-9754Y-118475D01*
Y-119138D01*
X-9791D01*
X-9856Y-119095D01*
X-9922Y-119051D01*
X-9973Y-119022D01*
X-9980Y-119015D01*
X-9987D01*
X-10082Y-118963D01*
X-10170Y-118920D01*
X-10206Y-118898D01*
X-10235Y-118891D01*
X-10250Y-118876D01*
X-10257D01*
X-10381Y-118832D01*
X-10439Y-118810D01*
X-10490Y-118796D01*
X-10534Y-118781D01*
X-10563Y-118774D01*
X-10585Y-118767D01*
X-10593D01*
X-10724Y-118737D01*
X-10775Y-118730D01*
X-10833D01*
X-10870Y-118723D01*
X-10935D01*
X-11052Y-118730D01*
X-11110Y-118737D01*
X-11154D01*
X-11190Y-118745D01*
X-11227Y-118752D01*
X-11241Y-118759D01*
X-11249D01*
X-11351Y-118789D01*
X-11438Y-118825D01*
X-11467Y-118847D01*
X-11489Y-118861D01*
X-11504Y-118869D01*
X-11511Y-118876D01*
X-11584Y-118942D01*
X-11642Y-119007D01*
X-11664Y-119036D01*
X-11679Y-119058D01*
X-11693Y-119073D01*
Y-119080D01*
X-11737Y-119182D01*
X-11759Y-119284D01*
X-11766Y-119328D01*
Y-119364D01*
Y-119386D01*
Y-119394D01*
X-11752Y-119532D01*
X-11722Y-119649D01*
X-11679Y-119751D01*
X-11635Y-119831D01*
X-11584Y-119897D01*
X-11540Y-119948D01*
X-11511Y-119977D01*
X-11496Y-119984D01*
X-11387Y-120050D01*
X-11270Y-120101D01*
X-11154Y-120137D01*
X-11044Y-120159D01*
X-10950Y-120174D01*
X-10870Y-120188D01*
X-10593D01*
Y-120713D01*
X-10862D01*
X-11015Y-120720D01*
X-11081Y-120728D01*
X-11139Y-120735D01*
X-11190Y-120742D01*
X-11227Y-120749D01*
X-11249Y-120757D01*
X-11256D01*
X-11380Y-120793D01*
X-11438Y-120815D01*
X-11482Y-120837D01*
X-11526Y-120859D01*
X-11555Y-120873D01*
X-11569Y-120881D01*
X-11577Y-120888D01*
X-11664Y-120968D01*
X-11730Y-121056D01*
X-11752Y-121092D01*
X-11766Y-121121D01*
X-11781Y-121143D01*
Y-121151D01*
X-11810Y-121216D01*
X-11824Y-121289D01*
X-11839Y-121355D01*
X-11854Y-121428D01*
Y-121486D01*
X-11861Y-121529D01*
Y-121559D01*
Y-121573D01*
Y-121668D01*
X-11846Y-121756D01*
X-11839Y-121828D01*
X-11824Y-121887D01*
X-11810Y-121938D01*
X-11803Y-121982D01*
X-11788Y-122003D01*
Y-122011D01*
X-11730Y-122127D01*
X-11700Y-122178D01*
X-11671Y-122229D01*
X-11642Y-122266D01*
X-11620Y-122295D01*
X-11606Y-122310D01*
X-11598Y-122317D01*
X-11489Y-122404D01*
X-11387Y-122470D01*
X-11343Y-122492D01*
X-11307Y-122506D01*
X-11278Y-122521D01*
X-11270D01*
X-11125Y-122557D01*
X-11059Y-122565D01*
X-11001Y-122572D01*
X-10950Y-122579D01*
X-10877D01*
X-10753Y-122572D01*
X-10629Y-122557D01*
X-10512Y-122536D01*
X-10410Y-122514D01*
X-10323Y-122492D01*
X-10257Y-122470D01*
X-10213Y-122455D01*
X-10206Y-122448D01*
X-10199D01*
X-10082Y-122397D01*
X-9973Y-122346D01*
X-9885Y-122302D01*
X-9805Y-122258D01*
X-9747Y-122222D01*
X-9703Y-122193D01*
X-9674Y-122171D01*
X-9667Y-122164D01*
X-9623D01*
Y-122834D01*
X-9718Y-122878D01*
X-9812Y-122922D01*
X-9907Y-122951D01*
X-10002Y-122980D01*
X-10082Y-123009D01*
X-10148Y-123024D01*
X-10192Y-123031D01*
X-10199Y-123039D01*
X-10206D01*
X-10337Y-123068D01*
X-10469Y-123090D01*
X-10593Y-123104D01*
X-10695Y-123111D01*
X-10789Y-123119D01*
X-10862Y-123126D01*
X-10921D01*
X-11059Y-123119D01*
X-11183Y-123111D01*
X-11292Y-123090D01*
X-11394Y-123068D01*
X-11475Y-123053D01*
X-11533Y-123031D01*
X-11569Y-123024D01*
X-11584Y-123017D01*
X-11686Y-122973D01*
X-11788Y-122922D01*
X-11868Y-122864D01*
X-11948Y-122813D01*
X-12007Y-122761D01*
X-12050Y-122725D01*
X-12080Y-122696D01*
X-12087Y-122689D01*
X-12160Y-122608D01*
X-12218Y-122528D01*
X-12269Y-122448D01*
X-12313Y-122375D01*
X-12349Y-122310D01*
X-12371Y-122258D01*
X-12386Y-122229D01*
X-12393Y-122215D01*
X-12430Y-122113D01*
X-12459Y-122011D01*
X-12481Y-121909D01*
X-12495Y-121821D01*
X-12502Y-121741D01*
X-12510Y-121675D01*
Y-121639D01*
Y-121624D01*
X-12502Y-121515D01*
X-12495Y-121413D01*
X-12481Y-121318D01*
X-12466Y-121245D01*
X-12444Y-121180D01*
X-12430Y-121136D01*
X-12422Y-121107D01*
X-12415Y-121099D01*
X-12378Y-121019D01*
X-12335Y-120954D01*
X-12298Y-120888D01*
X-12262Y-120837D01*
X-12225Y-120800D01*
X-12196Y-120764D01*
X-12182Y-120749D01*
X-12174Y-120742D01*
X-12065Y-120655D01*
X-11963Y-120589D01*
X-11919Y-120567D01*
X-11883Y-120553D01*
X-11861Y-120538D01*
X-11854D01*
X-11730Y-120494D01*
X-11679Y-120473D01*
X-11628Y-120458D01*
X-11591Y-120451D01*
X-11562Y-120443D01*
X-11540Y-120436D01*
X-11533D01*
Y-120392D01*
X-11664Y-120356D01*
X-11781Y-120298D01*
X-11890Y-120239D01*
X-11978Y-120174D01*
X-12050Y-120115D01*
X-12109Y-120064D01*
X-12138Y-120035D01*
X-12152Y-120020D01*
X-12240Y-119904D01*
X-12306Y-119787D01*
X-12349Y-119671D01*
X-12386Y-119561D01*
X-12400Y-119466D01*
X-12408Y-119394D01*
X-12415Y-119364D01*
Y-119343D01*
Y-119335D01*
Y-119328D01*
X-12408Y-119219D01*
X-12400Y-119124D01*
X-12378Y-119036D01*
X-12364Y-118963D01*
X-12342Y-118905D01*
X-12320Y-118854D01*
X-12313Y-118825D01*
X-12306Y-118818D01*
X-12262Y-118737D01*
X-12211Y-118665D01*
X-12160Y-118606D01*
X-12101Y-118548D01*
X-12058Y-118504D01*
X-12021Y-118475D01*
X-11992Y-118453D01*
X-11985Y-118446D01*
X-11839Y-118358D01*
X-11766Y-118322D01*
X-11700Y-118293D01*
X-11642Y-118271D01*
X-11598Y-118256D01*
X-11569Y-118242D01*
X-11555D01*
X-11460Y-118220D01*
X-11365Y-118205D01*
X-11270Y-118191D01*
X-11183Y-118183D01*
X-11110Y-118176D01*
X-10993D01*
X-10870Y-118183D01*
D02*
G37*
G36*
X9360D02*
X9492Y-118198D01*
X9615Y-118234D01*
X9732Y-118271D01*
X9834Y-118315D01*
X9929Y-118366D01*
X10016Y-118417D01*
X10089Y-118475D01*
X10155Y-118533D01*
X10213Y-118584D01*
X10264Y-118635D01*
X10301Y-118679D01*
X10337Y-118716D01*
X10359Y-118745D01*
X10366Y-118767D01*
X10374Y-118774D01*
X10439Y-118891D01*
X10490Y-119029D01*
X10541Y-119168D01*
X10585Y-119321D01*
X10651Y-119634D01*
X10694Y-119940D01*
X10709Y-120086D01*
X10716Y-120217D01*
X10723Y-120341D01*
X10731Y-120443D01*
X10738Y-120531D01*
Y-120596D01*
Y-120640D01*
Y-120647D01*
Y-120655D01*
X10731Y-120881D01*
X10723Y-121092D01*
X10702Y-121289D01*
X10680Y-121478D01*
X10651Y-121646D01*
X10621Y-121799D01*
X10592Y-121938D01*
X10556Y-122054D01*
X10519Y-122164D01*
X10490Y-122258D01*
X10461Y-122339D01*
X10432Y-122404D01*
X10410Y-122455D01*
X10388Y-122492D01*
X10381Y-122514D01*
X10374Y-122521D01*
X10301Y-122630D01*
X10221Y-122718D01*
X10133Y-122798D01*
X10038Y-122871D01*
X9944Y-122929D01*
X9849Y-122980D01*
X9754Y-123017D01*
X9659Y-123053D01*
X9572Y-123075D01*
X9492Y-123097D01*
X9419Y-123104D01*
X9353Y-123119D01*
X9295D01*
X9258Y-123126D01*
X9222D01*
X9083Y-123119D01*
X8952Y-123097D01*
X8828Y-123068D01*
X8719Y-123031D01*
X8617Y-122987D01*
X8522Y-122936D01*
X8434Y-122886D01*
X8361Y-122827D01*
X8296Y-122769D01*
X8238Y-122718D01*
X8187Y-122667D01*
X8150Y-122623D01*
X8114Y-122587D01*
X8092Y-122550D01*
X8084Y-122536D01*
X8077Y-122528D01*
X8012Y-122412D01*
X7953Y-122273D01*
X7902Y-122135D01*
X7858Y-121982D01*
X7793Y-121675D01*
X7749Y-121369D01*
X7735Y-121223D01*
X7727Y-121092D01*
X7720Y-120968D01*
X7713Y-120866D01*
X7705Y-120779D01*
Y-120713D01*
Y-120669D01*
Y-120655D01*
X7713Y-120429D01*
X7720Y-120217D01*
X7742Y-120020D01*
X7764Y-119838D01*
X7793Y-119671D01*
X7822Y-119525D01*
X7858Y-119386D01*
X7888Y-119262D01*
X7924Y-119153D01*
X7961Y-119058D01*
X7990Y-118978D01*
X8019Y-118912D01*
X8041Y-118861D01*
X8063Y-118825D01*
X8070Y-118803D01*
X8077Y-118796D01*
X8150Y-118686D01*
X8230Y-118592D01*
X8318Y-118511D01*
X8413Y-118439D01*
X8507Y-118380D01*
X8602Y-118329D01*
X8697Y-118286D01*
X8784Y-118256D01*
X8872Y-118227D01*
X8952Y-118205D01*
X9032Y-118198D01*
X9091Y-118183D01*
X9149D01*
X9185Y-118176D01*
X9222D01*
X9360Y-118183D01*
D02*
G37*
G36*
X-3827D02*
X-3696Y-118198D01*
X-3572Y-118234D01*
X-3456Y-118271D01*
X-3353Y-118315D01*
X-3259Y-118366D01*
X-3171Y-118417D01*
X-3098Y-118475D01*
X-3033Y-118533D01*
X-2974Y-118584D01*
X-2923Y-118635D01*
X-2887Y-118679D01*
X-2850Y-118716D01*
X-2829Y-118745D01*
X-2821Y-118767D01*
X-2814Y-118774D01*
X-2748Y-118891D01*
X-2697Y-119029D01*
X-2646Y-119168D01*
X-2603Y-119321D01*
X-2537Y-119634D01*
X-2493Y-119940D01*
X-2479Y-120086D01*
X-2471Y-120217D01*
X-2464Y-120341D01*
X-2457Y-120443D01*
X-2450Y-120531D01*
Y-120596D01*
Y-120640D01*
Y-120647D01*
Y-120655D01*
X-2457Y-120881D01*
X-2464Y-121092D01*
X-2486Y-121289D01*
X-2508Y-121478D01*
X-2537Y-121646D01*
X-2566Y-121799D01*
X-2595Y-121938D01*
X-2632Y-122054D01*
X-2668Y-122164D01*
X-2697Y-122258D01*
X-2726Y-122339D01*
X-2756Y-122404D01*
X-2778Y-122455D01*
X-2799Y-122492D01*
X-2807Y-122514D01*
X-2814Y-122521D01*
X-2887Y-122630D01*
X-2967Y-122718D01*
X-3055Y-122798D01*
X-3149Y-122871D01*
X-3244Y-122929D01*
X-3339Y-122980D01*
X-3434Y-123017D01*
X-3528Y-123053D01*
X-3616Y-123075D01*
X-3696Y-123097D01*
X-3769Y-123104D01*
X-3835Y-123119D01*
X-3893D01*
X-3929Y-123126D01*
X-3966D01*
X-4104Y-123119D01*
X-4236Y-123097D01*
X-4360Y-123068D01*
X-4469Y-123031D01*
X-4571Y-122987D01*
X-4666Y-122936D01*
X-4753Y-122886D01*
X-4826Y-122827D01*
X-4892Y-122769D01*
X-4950Y-122718D01*
X-5001Y-122667D01*
X-5037Y-122623D01*
X-5074Y-122587D01*
X-5096Y-122550D01*
X-5103Y-122536D01*
X-5110Y-122528D01*
X-5176Y-122412D01*
X-5234Y-122273D01*
X-5285Y-122135D01*
X-5329Y-121982D01*
X-5395Y-121675D01*
X-5438Y-121369D01*
X-5453Y-121223D01*
X-5460Y-121092D01*
X-5468Y-120968D01*
X-5475Y-120866D01*
X-5482Y-120779D01*
Y-120713D01*
Y-120669D01*
Y-120655D01*
X-5475Y-120429D01*
X-5468Y-120217D01*
X-5446Y-120020D01*
X-5424Y-119838D01*
X-5395Y-119671D01*
X-5365Y-119525D01*
X-5329Y-119386D01*
X-5300Y-119262D01*
X-5263Y-119153D01*
X-5227Y-119058D01*
X-5198Y-118978D01*
X-5169Y-118912D01*
X-5147Y-118861D01*
X-5125Y-118825D01*
X-5118Y-118803D01*
X-5110Y-118796D01*
X-5037Y-118686D01*
X-4957Y-118592D01*
X-4870Y-118511D01*
X-4775Y-118439D01*
X-4680Y-118380D01*
X-4586Y-118329D01*
X-4491Y-118286D01*
X-4403Y-118256D01*
X-4316Y-118227D01*
X-4236Y-118205D01*
X-4155Y-118198D01*
X-4097Y-118183D01*
X-4039D01*
X-4002Y-118176D01*
X-3966D01*
X-3827Y-118183D01*
D02*
G37*
G36*
X3944Y-124059D02*
X3412D01*
X1545Y-118067D01*
X2092D01*
X3944Y-124059D01*
D02*
G37*
G36*
X133169Y52362D02*
X123721D01*
Y83071D01*
X133169D01*
Y52362D01*
D02*
G37*
G36*
X132677Y-38583D02*
X123228D01*
Y-7874D01*
X132677D01*
Y-38583D01*
D02*
G37*
G36*
X-142372Y16929D02*
X-150541D01*
Y24508D01*
X-142372D01*
Y16929D01*
D02*
G37*
G36*
X68996Y-97047D02*
X-70276D01*
Y-80761D01*
X68996D01*
Y-97047D01*
D02*
G37*
G36*
X-93110Y51968D02*
X-102559D01*
Y82677D01*
X-93110D01*
Y51968D01*
D02*
G37*
G36*
X150541Y16929D02*
X142372D01*
Y24508D01*
X150541D01*
Y16929D01*
D02*
G37*
G36*
X24951Y142618D02*
X16781D01*
Y150197D01*
X24951D01*
Y142618D01*
D02*
G37*
G36*
X-92913Y-36909D02*
X-102362D01*
Y-6201D01*
X-92913D01*
Y-36909D01*
D02*
G37*
G36*
X41535Y-110531D02*
X-41634D01*
Y-98430D01*
X41535D01*
Y-110531D01*
D02*
G37*
%LPC*%
G36*
X9266Y-118701D02*
X9222D01*
X9127Y-118708D01*
X9047Y-118723D01*
X8967Y-118745D01*
X8908Y-118767D01*
X8857Y-118789D01*
X8821Y-118810D01*
X8799Y-118825D01*
X8792Y-118832D01*
X8733Y-118883D01*
X8682Y-118942D01*
X8631Y-119000D01*
X8595Y-119058D01*
X8566Y-119116D01*
X8544Y-119160D01*
X8536Y-119189D01*
X8529Y-119197D01*
X8493Y-119291D01*
X8471Y-119394D01*
X8449Y-119496D01*
X8427Y-119590D01*
X8413Y-119671D01*
X8405Y-119744D01*
X8398Y-119787D01*
Y-119794D01*
Y-119802D01*
X8383Y-119940D01*
X8369Y-120086D01*
X8361Y-120232D01*
Y-120363D01*
X8354Y-120480D01*
Y-120531D01*
Y-120574D01*
Y-120604D01*
Y-120633D01*
Y-120647D01*
Y-120655D01*
Y-120830D01*
X8361Y-120997D01*
X8369Y-121136D01*
X8376Y-121267D01*
X8383Y-121369D01*
X8391Y-121442D01*
Y-121471D01*
X8398Y-121493D01*
Y-121500D01*
Y-121508D01*
X8413Y-121639D01*
X8434Y-121748D01*
X8456Y-121850D01*
X8478Y-121938D01*
X8500Y-122011D01*
X8515Y-122062D01*
X8522Y-122091D01*
X8529Y-122105D01*
X8566Y-122193D01*
X8609Y-122266D01*
X8653Y-122331D01*
X8697Y-122382D01*
X8733Y-122426D01*
X8762Y-122455D01*
X8784Y-122470D01*
X8792Y-122477D01*
X8857Y-122521D01*
X8930Y-122550D01*
X9003Y-122572D01*
X9069Y-122587D01*
X9127Y-122594D01*
X9178Y-122601D01*
X9222D01*
X9324Y-122594D01*
X9411Y-122579D01*
X9484Y-122557D01*
X9550Y-122536D01*
X9601Y-122514D01*
X9645Y-122492D01*
X9667Y-122477D01*
X9674Y-122470D01*
X9732Y-122419D01*
X9783Y-122353D01*
X9827Y-122295D01*
X9863Y-122229D01*
X9892Y-122178D01*
X9914Y-122135D01*
X9922Y-122098D01*
X9929Y-122091D01*
X9995Y-121887D01*
X10016Y-121785D01*
X10031Y-121690D01*
X10046Y-121610D01*
X10053Y-121551D01*
X10060Y-121508D01*
Y-121493D01*
X10067Y-121362D01*
X10075Y-121223D01*
X10082Y-121078D01*
Y-120946D01*
X10089Y-120830D01*
Y-120779D01*
Y-120735D01*
Y-120706D01*
Y-120677D01*
Y-120662D01*
Y-120655D01*
Y-120487D01*
X10082Y-120327D01*
Y-120188D01*
X10075Y-120064D01*
X10067Y-119962D01*
Y-119889D01*
X10060Y-119860D01*
Y-119838D01*
Y-119831D01*
Y-119824D01*
X10046Y-119693D01*
X10024Y-119569D01*
X10002Y-119466D01*
X9980Y-119372D01*
X9958Y-119299D01*
X9944Y-119248D01*
X9936Y-119219D01*
X9929Y-119204D01*
X9885Y-119116D01*
X9841Y-119044D01*
X9798Y-118978D01*
X9754Y-118927D01*
X9718Y-118883D01*
X9688Y-118854D01*
X9667Y-118840D01*
X9659Y-118832D01*
X9594Y-118789D01*
X9521Y-118759D01*
X9448Y-118730D01*
X9375Y-118716D01*
X9317Y-118708D01*
X9266Y-118701D01*
D02*
G37*
G36*
X-3922D02*
X-3966D01*
X-4061Y-118708D01*
X-4141Y-118723D01*
X-4221Y-118745D01*
X-4279Y-118767D01*
X-4330Y-118789D01*
X-4367Y-118810D01*
X-4389Y-118825D01*
X-4396Y-118832D01*
X-4454Y-118883D01*
X-4505Y-118942D01*
X-4556Y-119000D01*
X-4593Y-119058D01*
X-4622Y-119116D01*
X-4644Y-119160D01*
X-4651Y-119189D01*
X-4658Y-119197D01*
X-4695Y-119291D01*
X-4717Y-119394D01*
X-4739Y-119496D01*
X-4761Y-119590D01*
X-4775Y-119671D01*
X-4782Y-119744D01*
X-4790Y-119787D01*
Y-119794D01*
Y-119802D01*
X-4804Y-119940D01*
X-4819Y-120086D01*
X-4826Y-120232D01*
Y-120363D01*
X-4833Y-120480D01*
Y-120531D01*
Y-120574D01*
Y-120604D01*
Y-120633D01*
Y-120647D01*
Y-120655D01*
Y-120830D01*
X-4826Y-120997D01*
X-4819Y-121136D01*
X-4812Y-121267D01*
X-4804Y-121369D01*
X-4797Y-121442D01*
Y-121471D01*
X-4790Y-121493D01*
Y-121500D01*
Y-121508D01*
X-4775Y-121639D01*
X-4753Y-121748D01*
X-4731Y-121850D01*
X-4709Y-121938D01*
X-4688Y-122011D01*
X-4673Y-122062D01*
X-4666Y-122091D01*
X-4658Y-122105D01*
X-4622Y-122193D01*
X-4578Y-122266D01*
X-4535Y-122331D01*
X-4491Y-122382D01*
X-4454Y-122426D01*
X-4425Y-122455D01*
X-4403Y-122470D01*
X-4396Y-122477D01*
X-4330Y-122521D01*
X-4258Y-122550D01*
X-4185Y-122572D01*
X-4119Y-122587D01*
X-4061Y-122594D01*
X-4010Y-122601D01*
X-3966D01*
X-3864Y-122594D01*
X-3776Y-122579D01*
X-3703Y-122557D01*
X-3638Y-122536D01*
X-3587Y-122514D01*
X-3543Y-122492D01*
X-3521Y-122477D01*
X-3514Y-122470D01*
X-3456Y-122419D01*
X-3404Y-122353D01*
X-3361Y-122295D01*
X-3324Y-122229D01*
X-3295Y-122178D01*
X-3273Y-122135D01*
X-3266Y-122098D01*
X-3259Y-122091D01*
X-3193Y-121887D01*
X-3171Y-121785D01*
X-3157Y-121690D01*
X-3142Y-121610D01*
X-3135Y-121551D01*
X-3128Y-121508D01*
Y-121493D01*
X-3120Y-121362D01*
X-3113Y-121223D01*
X-3106Y-121078D01*
Y-120946D01*
X-3098Y-120830D01*
Y-120779D01*
Y-120735D01*
Y-120706D01*
Y-120677D01*
Y-120662D01*
Y-120655D01*
Y-120487D01*
X-3106Y-120327D01*
Y-120188D01*
X-3113Y-120064D01*
X-3120Y-119962D01*
Y-119889D01*
X-3128Y-119860D01*
Y-119838D01*
Y-119831D01*
Y-119824D01*
X-3142Y-119693D01*
X-3164Y-119569D01*
X-3186Y-119466D01*
X-3208Y-119372D01*
X-3230Y-119299D01*
X-3244Y-119248D01*
X-3251Y-119219D01*
X-3259Y-119204D01*
X-3303Y-119116D01*
X-3346Y-119044D01*
X-3390Y-118978D01*
X-3434Y-118927D01*
X-3470Y-118883D01*
X-3499Y-118854D01*
X-3521Y-118840D01*
X-3528Y-118832D01*
X-3594Y-118789D01*
X-3667Y-118759D01*
X-3740Y-118730D01*
X-3813Y-118716D01*
X-3871Y-118708D01*
X-3922Y-118701D01*
D02*
G37*
G36*
X131606Y81823D02*
X126523D01*
D01*
X131606D01*
D02*
G37*
G36*
X126523D02*
X126231D01*
X126222Y81814D01*
X126213Y81796D01*
X126186Y81769D01*
X126149Y81732D01*
X126049Y81623D01*
X125931Y81495D01*
X125785Y81359D01*
X125639Y81213D01*
X125493Y81076D01*
X125347Y80949D01*
X125329Y80940D01*
X125284Y80903D01*
X125211Y80849D01*
X125111Y80776D01*
X124992Y80703D01*
X124865Y80621D01*
X124719Y80539D01*
X124573Y80466D01*
Y81823D01*
Y78954D01*
D01*
Y80284D01*
X124591Y80275D01*
X124637Y80256D01*
X124701Y80220D01*
X124792Y80174D01*
X124910Y80111D01*
X125029Y80038D01*
X125165Y79947D01*
X125311Y79837D01*
X125329Y79819D01*
X125384Y79783D01*
X125457Y79710D01*
X125566Y79619D01*
X125703Y79491D01*
X125858Y79336D01*
X126031Y79163D01*
X126222Y78954D01*
X124573D01*
X126523D01*
Y78963D01*
X126514Y78972D01*
X126486Y79027D01*
X126441Y79118D01*
X126386Y79218D01*
X126331Y79318D01*
X126277Y79427D01*
X126213Y79528D01*
X126167Y79610D01*
X126158Y79619D01*
X126140Y79646D01*
X126113Y79692D01*
X126067Y79755D01*
X126013Y79837D01*
X125940Y79928D01*
X125848Y80047D01*
X125748Y80184D01*
X131606D01*
Y80594D01*
X125748D01*
X125757Y80603D01*
X125767Y80612D01*
X125785Y80639D01*
X125821Y80676D01*
X125858Y80721D01*
X125894Y80776D01*
X125949Y80840D01*
X126003Y80912D01*
X126058Y80994D01*
X126122Y81085D01*
X126186Y81186D01*
X126249Y81295D01*
X126386Y81541D01*
X126523Y81823D01*
D02*
G37*
G36*
X131606Y75355D02*
X126523D01*
D01*
X131606D01*
D02*
G37*
G36*
X126523D02*
X126231D01*
X126222Y75346D01*
X126213Y75328D01*
X126186Y75301D01*
X126149Y75264D01*
X126049Y75155D01*
X125931Y75027D01*
X125785Y74891D01*
X125639Y74745D01*
X125493Y74608D01*
X125347Y74481D01*
X125329Y74472D01*
X125284Y74435D01*
X125211Y74380D01*
X125111Y74308D01*
X124992Y74235D01*
X124865Y74153D01*
X124719Y74071D01*
X124573Y73998D01*
Y75355D01*
Y72486D01*
D01*
Y73816D01*
X124591Y73807D01*
X124637Y73788D01*
X124701Y73752D01*
X124792Y73706D01*
X124910Y73643D01*
X125029Y73570D01*
X125165Y73479D01*
X125311Y73369D01*
X125329Y73351D01*
X125384Y73315D01*
X125457Y73242D01*
X125566Y73151D01*
X125703Y73023D01*
X125858Y72868D01*
X126031Y72695D01*
X126222Y72486D01*
X124573D01*
X126523D01*
Y72495D01*
X126514Y72504D01*
X126486Y72558D01*
X126441Y72650D01*
X126386Y72750D01*
X126331Y72850D01*
X126277Y72959D01*
X126213Y73060D01*
X126167Y73142D01*
X126158Y73151D01*
X126140Y73178D01*
X126113Y73224D01*
X126067Y73287D01*
X126013Y73369D01*
X125940Y73460D01*
X125848Y73579D01*
X125748Y73716D01*
X131606D01*
Y74125D01*
X125748D01*
X125757Y74135D01*
X125767Y74144D01*
X125785Y74171D01*
X125821Y74207D01*
X125858Y74253D01*
X125894Y74308D01*
X125949Y74371D01*
X126003Y74444D01*
X126058Y74526D01*
X126122Y74617D01*
X126186Y74718D01*
X126249Y74827D01*
X126386Y75073D01*
X126523Y75355D01*
D02*
G37*
G36*
X129228Y71620D02*
X126277D01*
X129146D01*
X129092Y71611D01*
X129019D01*
X128928Y71602D01*
X128837Y71593D01*
X128736Y71575D01*
X128499Y71529D01*
X128254Y71465D01*
X127998Y71374D01*
X127743Y71256D01*
X127734D01*
X127716Y71238D01*
X127680Y71219D01*
X127634Y71192D01*
X127579Y71156D01*
X127525Y71110D01*
X127379Y71001D01*
X127215Y70873D01*
X127051Y70718D01*
X126887Y70536D01*
X126741Y70336D01*
Y70327D01*
X126732Y70318D01*
X126714Y70290D01*
X126696Y70254D01*
X126641Y70163D01*
X126577Y70035D01*
X126514Y69889D01*
X126450Y69716D01*
X126395Y69525D01*
X126359Y69324D01*
Y69297D01*
X126350Y69270D01*
Y69233D01*
X126340Y69179D01*
X126331Y69124D01*
X126322Y68978D01*
X126304Y68805D01*
X126286Y68614D01*
X126277Y68395D01*
Y66318D01*
X132207D01*
Y68386D01*
X132198Y68541D01*
X132189Y68714D01*
X132171Y68915D01*
X132153Y69115D01*
X132125Y69324D01*
Y69352D01*
X132116Y69379D01*
X132107Y69416D01*
X132098Y69470D01*
X132080Y69525D01*
X132043Y69661D01*
X131998Y69816D01*
X131925Y69990D01*
X131843Y70172D01*
X131734Y70354D01*
Y70363D01*
X131715Y70381D01*
X131697Y70409D01*
X131670Y70454D01*
X131579Y70554D01*
X131469Y70691D01*
X131324Y70837D01*
X131150Y70992D01*
X130950Y71137D01*
X130722Y71274D01*
X130713D01*
X130695Y71292D01*
X130659Y71311D01*
X130613Y71329D01*
X130549Y71356D01*
X130476Y71383D01*
X130394Y71411D01*
X130303Y71447D01*
X130194Y71484D01*
X130085Y71511D01*
X129830Y71566D01*
X129538Y71602D01*
X129228Y71620D01*
D02*
G37*
G36*
X132207Y65116D02*
X126277D01*
Y63685D01*
X130403Y61390D01*
X126277D01*
Y60032D01*
X132207D01*
Y65116D01*
D02*
G37*
G36*
X129529Y58912D02*
X126149D01*
X126605D01*
X126596Y58894D01*
X126577Y58839D01*
X126550Y58757D01*
X126504Y58639D01*
X126459Y58493D01*
X126413Y58320D01*
X126350Y58119D01*
X126295Y57891D01*
Y57882D01*
X126286Y57864D01*
Y57828D01*
X126277Y57782D01*
X126259Y57727D01*
X126249Y57664D01*
X126222Y57509D01*
X126195Y57318D01*
X126177Y57108D01*
X126158Y56889D01*
X126149Y56662D01*
Y56598D01*
X126158Y56525D01*
Y56434D01*
X126177Y56315D01*
X126195Y56179D01*
X126213Y56024D01*
X126249Y55860D01*
X126295Y55687D01*
X126350Y55505D01*
X126413Y55322D01*
X126486Y55140D01*
X126577Y54949D01*
X126687Y54776D01*
X126814Y54603D01*
X126951Y54439D01*
X126960Y54430D01*
X126987Y54402D01*
X127033Y54366D01*
X127097Y54311D01*
X127188Y54247D01*
X127288Y54175D01*
X127406Y54102D01*
X127543Y54029D01*
X127698Y53947D01*
X127862Y53874D01*
X128053Y53801D01*
X128254Y53737D01*
X128481Y53683D01*
X128718Y53646D01*
X128973Y53619D01*
X129237Y53610D01*
X132317D01*
Y56898D01*
X132308Y56971D01*
X132298Y57135D01*
X132280Y57336D01*
X132253Y57536D01*
X132216Y57737D01*
X132171Y57919D01*
Y57928D01*
X132162Y57937D01*
X132153Y57964D01*
X132143Y58001D01*
X132116Y58092D01*
X132071Y58210D01*
X132016Y58356D01*
X131952Y58520D01*
X131879Y58702D01*
X131788Y58884D01*
X130403D01*
Y58739D01*
X130422Y58729D01*
X130440Y58702D01*
X130467Y58666D01*
X130495Y58620D01*
X130531Y58575D01*
X130631Y58438D01*
X130640Y58429D01*
X130659Y58402D01*
X130686Y58365D01*
X130722Y58311D01*
X130804Y58192D01*
X130895Y58046D01*
X130905Y58037D01*
X130914Y58010D01*
X130941Y57955D01*
X130968Y57901D01*
X131005Y57819D01*
X131041Y57727D01*
X131078Y57636D01*
X131114Y57527D01*
Y57518D01*
X131132Y57472D01*
X131141Y57418D01*
X131160Y57345D01*
X131178Y57245D01*
X131187Y57144D01*
X131205Y57026D01*
Y56844D01*
X131196Y56771D01*
X131187Y56680D01*
X131178Y56571D01*
X131150Y56452D01*
X131123Y56324D01*
X131078Y56206D01*
X131069Y56197D01*
X131059Y56151D01*
X131023Y56097D01*
X130987Y56024D01*
X130941Y55933D01*
X130877Y55842D01*
X130804Y55742D01*
X130713Y55650D01*
X130704Y55641D01*
X130668Y55614D01*
X130622Y55568D01*
X130549Y55523D01*
X130458Y55459D01*
X130358Y55404D01*
X130240Y55341D01*
X130103Y55286D01*
X130085Y55277D01*
X130039Y55268D01*
X129966Y55240D01*
X129857Y55222D01*
X129738Y55195D01*
X129593Y55168D01*
X129429Y55158D01*
X129256Y55149D01*
X129247D01*
X129210D01*
X129156D01*
X129083Y55158D01*
X129001Y55168D01*
X128900Y55177D01*
X128791Y55195D01*
X128673Y55213D01*
X128427Y55277D01*
X128299Y55322D01*
X128172Y55368D01*
X128053Y55432D01*
X127935Y55496D01*
X127825Y55577D01*
X127725Y55669D01*
X127716Y55678D01*
X127707Y55696D01*
X127680Y55723D01*
X127652Y55760D01*
X127616Y55814D01*
X127570Y55878D01*
X127525Y55960D01*
X127479Y56042D01*
X127434Y56133D01*
X127388Y56243D01*
X127352Y56361D01*
X127306Y56489D01*
X127279Y56625D01*
X127252Y56771D01*
X127242Y56926D01*
X127233Y57090D01*
Y57409D01*
X127242Y57472D01*
X128408D01*
Y56315D01*
X129529D01*
Y58912D01*
D02*
G37*
%LPD*%
G36*
X129392Y70072D02*
X129456D01*
X129593Y70053D01*
X129748Y70026D01*
X129921Y69990D01*
X130085Y69944D01*
X130249Y69871D01*
X130258D01*
X130267Y69862D01*
X130322Y69835D01*
X130394Y69789D01*
X130485Y69716D01*
X130595Y69634D01*
X130704Y69525D01*
X130804Y69397D01*
X130905Y69252D01*
X130914Y69243D01*
X130932Y69197D01*
X130959Y69142D01*
X130987Y69060D01*
X131023Y68960D01*
X131050Y68860D01*
X131078Y68741D01*
X131087Y68614D01*
Y68559D01*
X131096Y68486D01*
Y68277D01*
X131105Y68149D01*
Y67803D01*
X127397D01*
Y68395D01*
X127406Y68532D01*
Y68687D01*
X127416Y68732D01*
X127425Y68796D01*
X127443Y68878D01*
X127470Y68978D01*
X127506Y69088D01*
X127561Y69206D01*
X127625Y69324D01*
X127634Y69343D01*
X127671Y69388D01*
X127716Y69452D01*
X127789Y69534D01*
X127880Y69625D01*
X127989Y69716D01*
X128108Y69807D01*
X128254Y69889D01*
X128263D01*
X128272Y69898D01*
X128326Y69917D01*
X128418Y69953D01*
X128536Y69990D01*
X128673Y70017D01*
X128846Y70053D01*
X129037Y70072D01*
X129247Y70081D01*
X129256D01*
X129274D01*
X129301D01*
X129347D01*
X129392Y70072D01*
D02*
G37*
G36*
X132207Y61854D02*
X128809Y63758D01*
X132207D01*
Y61854D01*
D02*
G37*
G36*
X132317Y53610D02*
X129301D01*
X129374Y53619D01*
X129465D01*
X129584Y53637D01*
X129720Y53655D01*
X129875Y53683D01*
X130039Y53710D01*
X130212Y53755D01*
X130394Y53810D01*
X130577Y53883D01*
X130768Y53956D01*
X130950Y54056D01*
X131132Y54165D01*
X131305Y54293D01*
X131469Y54439D01*
X131479Y54448D01*
X131506Y54475D01*
X131551Y54521D01*
X131606Y54594D01*
X131670Y54676D01*
X131734Y54776D01*
X131816Y54894D01*
X131898Y55031D01*
X131971Y55186D01*
X132052Y55359D01*
X132116Y55541D01*
X132189Y55742D01*
X132235Y55960D01*
X132280Y56197D01*
X132308Y56443D01*
X132317Y56707D01*
Y53610D01*
D02*
G37*
%LPC*%
G36*
X126031Y-9121D02*
X125739D01*
X125730Y-9131D01*
X125721Y-9149D01*
X125694Y-9176D01*
X125657Y-9213D01*
X125557Y-9322D01*
X125438Y-9449D01*
X125293Y-9586D01*
X125147Y-9732D01*
X125001Y-9868D01*
X124855Y-9996D01*
X124837Y-10005D01*
X124792Y-10042D01*
X124719Y-10096D01*
X124618Y-10169D01*
X124500Y-10242D01*
X124372Y-10324D01*
X124227Y-10406D01*
X124081Y-10479D01*
Y-9121D01*
Y-11991D01*
X131114D01*
X126031D01*
Y-11982D01*
X126021Y-11973D01*
X125994Y-11918D01*
X125949Y-11827D01*
X125894Y-11727D01*
X125839Y-11627D01*
X125785Y-11517D01*
X125721Y-11417D01*
X125675Y-11335D01*
X125666Y-11326D01*
X125648Y-11299D01*
X125621Y-11253D01*
X125575Y-11190D01*
X125520Y-11107D01*
X125447Y-11016D01*
X125356Y-10898D01*
X125256Y-10761D01*
X131114D01*
Y-10351D01*
X125256D01*
X125265Y-10342D01*
X125274Y-10333D01*
X125293Y-10306D01*
X125329Y-10269D01*
X125365Y-10224D01*
X125402Y-10169D01*
X125457Y-10105D01*
X125511Y-10033D01*
X125566Y-9950D01*
X125630Y-9859D01*
X125694Y-9759D01*
X125757Y-9650D01*
X125894Y-9404D01*
X126031Y-9121D01*
D02*
G37*
G36*
X131114Y-15590D02*
D01*
Y-16819D01*
X125256D01*
X125265Y-16810D01*
X125274Y-16801D01*
X125293Y-16774D01*
X125329Y-16737D01*
X125365Y-16692D01*
X125402Y-16637D01*
X125457Y-16574D01*
X125511Y-16501D01*
X125566Y-16419D01*
X125630Y-16328D01*
X125694Y-16227D01*
X125757Y-16118D01*
X125894Y-15872D01*
X126031Y-15590D01*
X125739D01*
X125730Y-15599D01*
X125721Y-15617D01*
X125694Y-15644D01*
X125657Y-15681D01*
X125557Y-15790D01*
X125438Y-15918D01*
X125293Y-16054D01*
X125147Y-16200D01*
X125001Y-16337D01*
X124855Y-16464D01*
X124837Y-16473D01*
X124792Y-16510D01*
X124719Y-16564D01*
X124618Y-16637D01*
X124500Y-16710D01*
X124372Y-16792D01*
X124227Y-16874D01*
X124081Y-16947D01*
Y-17129D01*
X124099Y-17138D01*
X124145Y-17156D01*
X124208Y-17193D01*
X124300Y-17239D01*
X124418Y-17302D01*
X124537Y-17375D01*
X124673Y-17466D01*
X124819Y-17576D01*
X124837Y-17594D01*
X124892Y-17630D01*
X124965Y-17703D01*
X125074Y-17794D01*
X125211Y-17922D01*
X125365Y-18077D01*
X125539Y-18250D01*
X125730Y-18459D01*
X126031D01*
Y-18450D01*
X126021Y-18441D01*
X125994Y-18386D01*
X125949Y-18295D01*
X125894Y-18195D01*
X125839Y-18095D01*
X125785Y-17986D01*
X125721Y-17885D01*
X125675Y-17803D01*
X125666Y-17794D01*
X125648Y-17767D01*
X125621Y-17721D01*
X125575Y-17658D01*
X125520Y-17576D01*
X125447Y-17484D01*
X125356Y-17366D01*
X125256Y-17229D01*
X131114D01*
Y-18386D01*
Y-15590D01*
D02*
G37*
G36*
X128736Y-19325D02*
X125785D01*
X128654D01*
X128600Y-19334D01*
X128527D01*
X128436Y-19343D01*
X128345Y-19352D01*
X128244Y-19370D01*
X128007Y-19416D01*
X127761Y-19480D01*
X127506Y-19571D01*
X127251Y-19689D01*
X127242D01*
X127224Y-19707D01*
X127188Y-19726D01*
X127142Y-19753D01*
X127087Y-19789D01*
X127033Y-19835D01*
X126887Y-19944D01*
X126723Y-20072D01*
X126559Y-20227D01*
X126395Y-20409D01*
X126249Y-20609D01*
Y-20618D01*
X126240Y-20627D01*
X126222Y-20655D01*
X126204Y-20691D01*
X126149Y-20782D01*
X126085Y-20910D01*
X126021Y-21056D01*
X125958Y-21229D01*
X125903Y-21420D01*
X125867Y-21620D01*
Y-21648D01*
X125857Y-21675D01*
Y-21711D01*
X125848Y-21766D01*
X125839Y-21821D01*
X125830Y-21967D01*
X125812Y-22140D01*
X125794Y-22331D01*
X125785Y-22550D01*
Y-24627D01*
X131715D01*
Y-22559D01*
X131706Y-22404D01*
X131697Y-22231D01*
X131679Y-22030D01*
X131660Y-21830D01*
X131633Y-21620D01*
Y-21593D01*
X131624Y-21566D01*
X131615Y-21529D01*
X131606Y-21475D01*
X131588Y-21420D01*
X131551Y-21283D01*
X131506Y-21128D01*
X131433Y-20955D01*
X131351Y-20773D01*
X131242Y-20591D01*
Y-20582D01*
X131223Y-20564D01*
X131205Y-20536D01*
X131178Y-20491D01*
X131087Y-20391D01*
X130977Y-20254D01*
X130832Y-20108D01*
X130658Y-19953D01*
X130458Y-19807D01*
X130230Y-19671D01*
X130221D01*
X130203Y-19653D01*
X130166Y-19635D01*
X130121Y-19616D01*
X130057Y-19589D01*
X129984Y-19562D01*
X129902Y-19534D01*
X129811Y-19498D01*
X129702Y-19461D01*
X129593Y-19434D01*
X129338Y-19379D01*
X129046Y-19343D01*
X128736Y-19325D01*
D02*
G37*
G36*
X131715Y-25829D02*
X125785D01*
Y-27259D01*
X129911Y-29555D01*
X125785D01*
Y-30913D01*
X131715D01*
Y-25829D01*
D02*
G37*
G36*
X129037Y-32033D02*
X126112D01*
X126103Y-32051D01*
X126085Y-32106D01*
X126058Y-32188D01*
X126012Y-32307D01*
X125967Y-32452D01*
X125921Y-32625D01*
X125857Y-32826D01*
X125803Y-33053D01*
Y-33063D01*
X125794Y-33081D01*
Y-33117D01*
X125785Y-33163D01*
X125766Y-33217D01*
X125757Y-33281D01*
X125730Y-33436D01*
X125703Y-33627D01*
X125684Y-33837D01*
X125666Y-34056D01*
X125657Y-34283D01*
Y-34347D01*
X125666Y-34420D01*
Y-34511D01*
X125684Y-34629D01*
X125703Y-34766D01*
X125721Y-34921D01*
X125757Y-35085D01*
X125803Y-35258D01*
X125857Y-35440D01*
X125921Y-35623D01*
X125994Y-35805D01*
X126085Y-35996D01*
X126195Y-36169D01*
X126322Y-36342D01*
X126459Y-36506D01*
X126468Y-36515D01*
X126495Y-36543D01*
X126541Y-36579D01*
X126604Y-36634D01*
X126696Y-36698D01*
X126796Y-36770D01*
X126914Y-36843D01*
X127051Y-36916D01*
X127206Y-36998D01*
X127370Y-37071D01*
X127561Y-37144D01*
X127761Y-37208D01*
X127989Y-37262D01*
X128226Y-37299D01*
X128481Y-37326D01*
X128745Y-37335D01*
X125657D01*
D01*
X131825D01*
Y-34047D01*
X131815Y-33974D01*
X131806Y-33810D01*
X131788Y-33609D01*
X131761Y-33409D01*
X131724Y-33208D01*
X131679Y-33026D01*
Y-33017D01*
X131670Y-33008D01*
X131660Y-32981D01*
X131651Y-32944D01*
X131624Y-32853D01*
X131579Y-32735D01*
X131524Y-32589D01*
X131460Y-32425D01*
X131387Y-32243D01*
X131296Y-32061D01*
X129911D01*
Y-32206D01*
X129930Y-32215D01*
X129948Y-32243D01*
X129975Y-32279D01*
X130002Y-32325D01*
X130039Y-32370D01*
X130139Y-32507D01*
X130148Y-32516D01*
X130166Y-32543D01*
X130194Y-32580D01*
X130230Y-32634D01*
X130312Y-32753D01*
X130403Y-32899D01*
X130412Y-32908D01*
X130422Y-32935D01*
X130449Y-32990D01*
X130476Y-33044D01*
X130513Y-33126D01*
X130549Y-33217D01*
X130586Y-33309D01*
X130622Y-33418D01*
Y-33427D01*
X130640Y-33472D01*
X130649Y-33527D01*
X130667Y-33600D01*
X130686Y-33700D01*
X130695Y-33801D01*
X130713Y-33919D01*
Y-34101D01*
X130704Y-34174D01*
X130695Y-34265D01*
X130686Y-34374D01*
X130658Y-34493D01*
X130631Y-34620D01*
X130586Y-34739D01*
X130576Y-34748D01*
X130567Y-34793D01*
X130531Y-34848D01*
X130494Y-34921D01*
X130449Y-35012D01*
X130385Y-35103D01*
X130312Y-35203D01*
X130221Y-35294D01*
X130212Y-35304D01*
X130176Y-35331D01*
X130130Y-35377D01*
X130057Y-35422D01*
X129966Y-35486D01*
X129866Y-35541D01*
X129747Y-35604D01*
X129611Y-35659D01*
X129593Y-35668D01*
X129547Y-35677D01*
X129474Y-35704D01*
X129365Y-35723D01*
X129246Y-35750D01*
X129101Y-35777D01*
X128937Y-35787D01*
X128764Y-35796D01*
X128754D01*
X128718D01*
X128663D01*
X128591Y-35787D01*
X128508Y-35777D01*
X128408Y-35768D01*
X128299Y-35750D01*
X128181Y-35732D01*
X127935Y-35668D01*
X127807Y-35623D01*
X127680Y-35577D01*
X127561Y-35513D01*
X127443Y-35449D01*
X127333Y-35367D01*
X127233Y-35276D01*
X127224Y-35267D01*
X127215Y-35249D01*
X127188Y-35222D01*
X127160Y-35185D01*
X127124Y-35131D01*
X127078Y-35067D01*
X127033Y-34985D01*
X126987Y-34903D01*
X126942Y-34812D01*
X126896Y-34702D01*
X126860Y-34584D01*
X126814Y-34456D01*
X126787Y-34320D01*
X126759Y-34174D01*
X126750Y-34019D01*
X126741Y-33855D01*
Y-33536D01*
X126750Y-33472D01*
X127916D01*
Y-34629D01*
X129037D01*
Y-32033D01*
D02*
G37*
%LPD*%
G36*
X124099Y-10670D02*
X124145Y-10688D01*
X124208Y-10725D01*
X124300Y-10770D01*
X124418Y-10834D01*
X124537Y-10907D01*
X124673Y-10998D01*
X124819Y-11107D01*
X124837Y-11126D01*
X124892Y-11162D01*
X124965Y-11235D01*
X125074Y-11326D01*
X125211Y-11454D01*
X125365Y-11609D01*
X125539Y-11782D01*
X125730Y-11991D01*
X124081D01*
Y-10661D01*
X124099Y-10670D01*
D02*
G37*
G36*
X128900Y-20873D02*
X128964D01*
X129101Y-20892D01*
X129255Y-20919D01*
X129429Y-20955D01*
X129593Y-21001D01*
X129756Y-21074D01*
X129766D01*
X129775Y-21083D01*
X129829Y-21110D01*
X129902Y-21156D01*
X129993Y-21229D01*
X130103Y-21311D01*
X130212Y-21420D01*
X130312Y-21548D01*
X130412Y-21693D01*
X130422Y-21702D01*
X130440Y-21748D01*
X130467Y-21803D01*
X130494Y-21885D01*
X130531Y-21985D01*
X130558Y-22085D01*
X130586Y-22204D01*
X130595Y-22331D01*
Y-22386D01*
X130604Y-22458D01*
Y-22668D01*
X130613Y-22796D01*
Y-23142D01*
X126905D01*
Y-22550D01*
X126914Y-22413D01*
Y-22258D01*
X126923Y-22213D01*
X126932Y-22149D01*
X126951Y-22067D01*
X126978Y-21967D01*
X127014Y-21857D01*
X127069Y-21739D01*
X127133Y-21620D01*
X127142Y-21602D01*
X127178Y-21557D01*
X127224Y-21493D01*
X127297Y-21411D01*
X127388Y-21320D01*
X127497Y-21229D01*
X127616Y-21138D01*
X127761Y-21056D01*
X127771D01*
X127780Y-21046D01*
X127834Y-21028D01*
X127925Y-20992D01*
X128044Y-20955D01*
X128181Y-20928D01*
X128354Y-20892D01*
X128545Y-20873D01*
X128754Y-20864D01*
X128764D01*
X128782D01*
X128809D01*
X128855D01*
X128900Y-20873D01*
D02*
G37*
G36*
X131715Y-29091D02*
X128317Y-27187D01*
X131715D01*
Y-29091D01*
D02*
G37*
G36*
X131825Y-37335D02*
X128809D01*
X128882Y-37326D01*
X128973D01*
X129092Y-37308D01*
X129228Y-37290D01*
X129383Y-37262D01*
X129547Y-37235D01*
X129720Y-37189D01*
X129902Y-37135D01*
X130085Y-37062D01*
X130276Y-36989D01*
X130458Y-36889D01*
X130640Y-36779D01*
X130813Y-36652D01*
X130977Y-36506D01*
X130986Y-36497D01*
X131014Y-36470D01*
X131059Y-36424D01*
X131114Y-36351D01*
X131178Y-36269D01*
X131242Y-36169D01*
X131324Y-36051D01*
X131405Y-35914D01*
X131478Y-35759D01*
X131560Y-35586D01*
X131624Y-35404D01*
X131697Y-35203D01*
X131743Y-34985D01*
X131788Y-34748D01*
X131815Y-34502D01*
X131825Y-34238D01*
Y-37335D01*
D02*
G37*
%LPC*%
G36*
X-146398Y23352D02*
X-146945D01*
Y21055D01*
X-149045D01*
X-148389Y18518D01*
X-147842D01*
X-148374Y20516D01*
X-146938D01*
X-146406Y18518D01*
X-145852D01*
X-146391Y20516D01*
X-144948D01*
X-144415Y18518D01*
X-143869D01*
X-144525Y21055D01*
X-146398D01*
Y23352D01*
D02*
G37*
G36*
X-22041Y-82975D02*
X-29233D01*
Y-92746D01*
D01*
Y-82975D01*
X-28216D01*
X-26544Y-84527D01*
X-25560D01*
X-26642Y-82975D01*
X-22041D01*
D02*
G37*
G36*
X30347Y-85041D02*
X26324D01*
X30347D01*
D01*
D02*
G37*
G36*
X-41999Y-85183D02*
X-45048D01*
Y-87139D01*
X-49082D01*
X-49136Y-87150D01*
X-49213Y-87161D01*
X-49300Y-87172D01*
X-49497Y-87216D01*
X-49716Y-87281D01*
X-49945Y-87391D01*
X-50054Y-87456D01*
X-50174Y-87544D01*
X-50284Y-87631D01*
X-50382Y-87740D01*
X-50393Y-87751D01*
X-50404Y-87762D01*
X-50437Y-87806D01*
X-50470Y-87850D01*
X-50502Y-87915D01*
X-50557Y-87992D01*
X-50601Y-88079D01*
X-50655Y-88178D01*
X-50699Y-88298D01*
X-50754Y-88429D01*
X-50797Y-88582D01*
X-50830Y-88735D01*
X-50874Y-88910D01*
X-50896Y-89096D01*
X-50907Y-89292D01*
X-50918Y-89511D01*
Y-87139D01*
D01*
D01*
Y-94834D01*
D01*
Y-89577D01*
X-50907Y-89653D01*
Y-89762D01*
X-50885Y-89883D01*
X-50874Y-90036D01*
X-50841Y-90200D01*
X-50809Y-90385D01*
X-50754Y-90571D01*
X-50699Y-90779D01*
X-50623Y-90987D01*
X-50535Y-91194D01*
X-50426Y-91413D01*
X-50306Y-91620D01*
X-50164Y-91828D01*
X-50000Y-92025D01*
X-49989Y-92036D01*
X-49967Y-92058D01*
X-49923Y-92101D01*
X-49858Y-92156D01*
X-49792Y-92222D01*
X-49694Y-92298D01*
X-49595Y-92375D01*
X-49475Y-92451D01*
X-49344Y-92539D01*
X-49213Y-92615D01*
X-49060Y-92692D01*
X-48896Y-92757D01*
X-48721Y-92812D01*
X-48535Y-92856D01*
X-48349Y-92877D01*
X-48153Y-92888D01*
X-48109D01*
X-48043Y-92877D01*
X-47978D01*
X-47879Y-92866D01*
X-47781Y-92845D01*
X-47661Y-92812D01*
X-47540Y-92779D01*
X-47398Y-92735D01*
X-47267Y-92670D01*
X-47125Y-92604D01*
X-46994Y-92517D01*
X-46852Y-92418D01*
X-46721Y-92298D01*
X-46600Y-92167D01*
X-46491Y-92014D01*
X-45912Y-94834D01*
X-44447D01*
D01*
X-46021Y-87259D01*
X-47409D01*
X-47300Y-87839D01*
X-47322Y-87817D01*
X-47376Y-87773D01*
X-47464Y-87708D01*
X-47573Y-87631D01*
X-47704Y-87544D01*
X-47846Y-87456D01*
X-47989Y-87369D01*
X-48142Y-87303D01*
X-48163Y-87292D01*
X-48207Y-87281D01*
X-48295Y-87248D01*
X-48393Y-87216D01*
X-48524Y-87194D01*
X-48666Y-87161D01*
X-48830Y-87150D01*
X-48994Y-87139D01*
X-45048D01*
Y-85183D01*
X-44775Y-86516D01*
X-43299D01*
X-43584Y-85183D01*
X-41999D01*
D02*
G37*
G36*
X22630Y-85183D02*
X17843D01*
X17766Y-85194D01*
X17690D01*
X17504Y-85204D01*
X17296Y-85226D01*
X17089Y-85270D01*
X16870Y-85314D01*
X16684Y-85379D01*
X16673D01*
X16662Y-85390D01*
X16608Y-85412D01*
X16520Y-85467D01*
X16411Y-85532D01*
X16291Y-85620D01*
X16160Y-85729D01*
X16028Y-85871D01*
X15919Y-86024D01*
X15908Y-86046D01*
X15876Y-86101D01*
X15832Y-86199D01*
X15777Y-86319D01*
X15722Y-86483D01*
X15679Y-86658D01*
X15646Y-86866D01*
X15635Y-87085D01*
Y-85183D01*
X15635D01*
X15635D01*
Y-92746D01*
D01*
Y-87183D01*
X15646Y-87292D01*
X15668Y-87445D01*
X15690Y-87609D01*
X15733Y-87806D01*
X15788Y-88003D01*
X15865Y-88210D01*
Y-88221D01*
X15876Y-88232D01*
X15908Y-88298D01*
X15952Y-88396D01*
X16018Y-88516D01*
X16094Y-88658D01*
X16182Y-88801D01*
X16291Y-88943D01*
X16411Y-89074D01*
X16422Y-89085D01*
X16466Y-89128D01*
X16531Y-89183D01*
X16619Y-89249D01*
X16717Y-89336D01*
X16837Y-89413D01*
X16958Y-89489D01*
X17100Y-89566D01*
X17121Y-89577D01*
X17165Y-89587D01*
X17253Y-89620D01*
X17362Y-89653D01*
X17504Y-89697D01*
X17679Y-89741D01*
X17876Y-89784D01*
X18105Y-89817D01*
X18127D01*
X18182Y-89828D01*
X18280D01*
X18346Y-89839D01*
X18510D01*
X18608Y-89850D01*
X18837D01*
X18980Y-89861D01*
X20477D01*
X21089Y-92746D01*
X22630D01*
D01*
X21045Y-85183D01*
X22630D01*
D02*
G37*
G36*
X4323Y-85139D02*
X-1066D01*
Y-92888D01*
D01*
Y-87216D01*
X-1044Y-87325D01*
X-1022Y-87467D01*
X-979Y-87642D01*
X-924Y-87817D01*
X-836Y-88003D01*
X-716Y-88188D01*
X-705Y-88210D01*
X-651Y-88265D01*
X-574Y-88352D01*
X-465Y-88451D01*
X-334Y-88571D01*
X-170Y-88691D01*
X16Y-88790D01*
X235Y-88888D01*
X224D01*
X213Y-88899D01*
X158Y-88932D01*
X71Y-88986D01*
X-39Y-89063D01*
X-148Y-89161D01*
X-268Y-89271D01*
X-377Y-89402D01*
X-476Y-89544D01*
X-487Y-89566D01*
X-509Y-89609D01*
X-552Y-89697D01*
X-596Y-89795D01*
X-629Y-89926D01*
X-673Y-90068D01*
X-694Y-90221D01*
X-705Y-90385D01*
Y-90396D01*
Y-90418D01*
Y-90462D01*
X-694Y-90527D01*
X-684Y-90604D01*
X-673Y-90691D01*
X-651Y-90790D01*
X-629Y-90888D01*
X-563Y-91129D01*
X-454Y-91391D01*
X-388Y-91522D01*
X-301Y-91664D01*
X-213Y-91795D01*
X-104Y-91926D01*
X-93Y-91937D01*
X-71Y-91970D01*
X-17Y-92014D01*
X38Y-92080D01*
X125Y-92145D01*
X224Y-92233D01*
X333Y-92320D01*
X464Y-92407D01*
X606Y-92495D01*
X759Y-92582D01*
X934Y-92670D01*
X1120Y-92735D01*
X1317Y-92801D01*
X1524Y-92845D01*
X1754Y-92877D01*
X1983Y-92888D01*
X2071D01*
X2147Y-92877D01*
X2224Y-92866D01*
X2322Y-92856D01*
X2432Y-92845D01*
X2541Y-92823D01*
X2792Y-92757D01*
X3055Y-92659D01*
X3186Y-92593D01*
X3317Y-92517D01*
X3448Y-92440D01*
X3568Y-92342D01*
X3579Y-92331D01*
X3590Y-92320D01*
X3623Y-92287D01*
X3667Y-92243D01*
X3721Y-92189D01*
X3776Y-92112D01*
X3831Y-92036D01*
X3896Y-91937D01*
X3962Y-91839D01*
X4027Y-91719D01*
X4093Y-91599D01*
X4148Y-91457D01*
X4202Y-91303D01*
X4257Y-91140D01*
X4290Y-90976D01*
X4323Y-90790D01*
D01*
X2902Y-90615D01*
Y-90626D01*
Y-90637D01*
X2891Y-90670D01*
X2880Y-90713D01*
X2858Y-90823D01*
X2825Y-90954D01*
X2781Y-91085D01*
X2727Y-91227D01*
X2661Y-91358D01*
X2585Y-91457D01*
X2574Y-91467D01*
X2541Y-91489D01*
X2486Y-91533D01*
X2421Y-91566D01*
X2333Y-91610D01*
X2224Y-91653D01*
X2104Y-91675D01*
X1973Y-91686D01*
X1951D01*
X1885Y-91675D01*
X1798Y-91664D01*
X1677Y-91642D01*
X1546Y-91599D01*
X1404Y-91544D01*
X1262Y-91457D01*
X1131Y-91347D01*
X1120Y-91336D01*
X1076Y-91282D01*
X1022Y-91216D01*
X956Y-91107D01*
X901Y-90987D01*
X847Y-90833D01*
X803Y-90659D01*
X792Y-90473D01*
Y-90462D01*
Y-90451D01*
Y-90396D01*
X803Y-90309D01*
X825Y-90200D01*
X858Y-90079D01*
X912Y-89959D01*
X978Y-89839D01*
X1065Y-89730D01*
X1076Y-89719D01*
X1120Y-89686D01*
X1175Y-89642D01*
X1262Y-89587D01*
X1360Y-89544D01*
X1492Y-89500D01*
X1634Y-89467D01*
X1798Y-89456D01*
X1863D01*
X1940Y-89467D01*
X2027Y-89478D01*
X1776Y-88254D01*
X1524D01*
X1415Y-88243D01*
X1284Y-88221D01*
X1142Y-88178D01*
X1000Y-88134D01*
X858Y-88057D01*
X727Y-87959D01*
X716Y-87948D01*
X672Y-87904D01*
X628Y-87839D01*
X563Y-87740D01*
X508Y-87620D01*
X453Y-87478D01*
X421Y-87314D01*
X410Y-87128D01*
Y-87106D01*
Y-87063D01*
X421Y-86997D01*
X431Y-86910D01*
X464Y-86822D01*
X497Y-86724D01*
X552Y-86625D01*
X628Y-86538D01*
X639Y-86527D01*
X661Y-86505D01*
X716Y-86472D01*
X770Y-86429D01*
X858Y-86385D01*
X945Y-86352D01*
X1054Y-86330D01*
X1175Y-86319D01*
X1229D01*
X1284Y-86330D01*
X1360Y-86352D01*
X1448Y-86374D01*
X1546Y-86418D01*
X1645Y-86483D01*
X1743Y-86560D01*
X1754Y-86571D01*
X1787Y-86604D01*
X1830Y-86669D01*
X1885Y-86746D01*
X1951Y-86855D01*
X2016Y-86997D01*
X2082Y-87161D01*
X2136Y-87358D01*
X3492Y-87095D01*
Y-87085D01*
X3481Y-87063D01*
X3470Y-87019D01*
X3448Y-86953D01*
X3415Y-86888D01*
X3382Y-86811D01*
X3306Y-86625D01*
X3208Y-86418D01*
X3087Y-86210D01*
X2945Y-86002D01*
X2781Y-85817D01*
X2770Y-85806D01*
X2748Y-85784D01*
X2705Y-85751D01*
X2661Y-85707D01*
X2585Y-85664D01*
X2508Y-85598D01*
X2410Y-85543D01*
X2300Y-85478D01*
X2180Y-85412D01*
X2060Y-85358D01*
X1765Y-85248D01*
X1601Y-85204D01*
X1426Y-85172D01*
X1251Y-85150D01*
X1065Y-85139D01*
X4323D01*
D02*
G37*
G36*
X-16718D02*
X-16805Y-85139D01*
X-16871Y-85150D01*
X-16947Y-85161D01*
X-17035Y-85172D01*
X-17253Y-85226D01*
X-17494Y-85303D01*
X-17614Y-85358D01*
X-17745Y-85423D01*
X-17865Y-85500D01*
X-17997Y-85598D01*
X-18117Y-85696D01*
X-18226Y-85817D01*
X-18237Y-85828D01*
X-18248Y-85849D01*
X-18281Y-85882D01*
X-18325Y-85937D01*
X-18368Y-86013D01*
X-18412Y-86090D01*
X-18467Y-86188D01*
X-18532Y-86308D01*
X-18587Y-86440D01*
X-18642Y-86582D01*
X-18685Y-86746D01*
X-18729Y-86910D01*
X-18773Y-87106D01*
X-18805Y-87303D01*
X-18816Y-87522D01*
X-18827Y-87751D01*
Y-85139D01*
D01*
Y-92888D01*
X-13450Y-92888D01*
D01*
X-15472D01*
X-15406Y-92877D01*
X-15330Y-92866D01*
X-15242Y-92856D01*
X-15024Y-92801D01*
X-14783Y-92724D01*
X-14663Y-92670D01*
X-14532Y-92604D01*
X-14401Y-92528D01*
X-14280Y-92440D01*
X-14160Y-92342D01*
X-14040Y-92222D01*
X-14029Y-92211D01*
X-14018Y-92189D01*
X-13985Y-92156D01*
X-13952Y-92101D01*
X-13909Y-92025D01*
X-13854Y-91948D01*
X-13800Y-91850D01*
X-13745Y-91730D01*
X-13690Y-91599D01*
X-13635Y-91457D01*
X-13592Y-91303D01*
X-13537Y-91129D01*
X-13504Y-90943D01*
X-13472Y-90746D01*
X-13461Y-90527D01*
X-13450Y-90298D01*
Y-90189D01*
X-13461Y-90101D01*
Y-89992D01*
X-13472Y-89872D01*
X-13483Y-89730D01*
X-13493Y-89577D01*
X-13515Y-89413D01*
X-13548Y-89227D01*
X-13614Y-88833D01*
X-13701Y-88418D01*
X-13832Y-87981D01*
X-13843Y-87959D01*
X-13854Y-87915D01*
X-13887Y-87839D01*
X-13920Y-87740D01*
X-13963Y-87620D01*
X-14029Y-87489D01*
X-14095Y-87336D01*
X-14171Y-87172D01*
X-14346Y-86822D01*
X-14554Y-86472D01*
X-14663Y-86298D01*
X-14794Y-86134D01*
X-14925Y-85981D01*
X-15056Y-85839D01*
X-15067Y-85828D01*
X-15089Y-85806D01*
X-15133Y-85773D01*
X-15188Y-85729D01*
X-15253Y-85675D01*
X-15341Y-85620D01*
X-15439Y-85554D01*
X-15548Y-85489D01*
X-15789Y-85358D01*
X-16073Y-85248D01*
X-16226Y-85204D01*
X-16379Y-85172D01*
X-16543Y-85150D01*
X-16718Y-85139D01*
D02*
G37*
G36*
X-29287Y-87139D02*
X-35255D01*
Y-94834D01*
D01*
Y-87139D01*
X-32053D01*
X-32107Y-87150D01*
X-32195D01*
X-32293Y-87172D01*
X-32402Y-87194D01*
X-32523Y-87227D01*
X-32654Y-87259D01*
X-32796Y-87314D01*
X-32938Y-87380D01*
X-33080Y-87467D01*
X-33222Y-87555D01*
X-33353Y-87675D01*
X-33484Y-87806D01*
X-33605Y-87959D01*
X-33714Y-88134D01*
X-33900Y-87259D01*
X-35255D01*
X-33681Y-94834D01*
X-32206D01*
X-32730Y-92298D01*
X-32708Y-92309D01*
X-32665Y-92353D01*
X-32588Y-92407D01*
X-32501Y-92473D01*
X-32381Y-92550D01*
X-32260Y-92615D01*
X-32129Y-92692D01*
X-31998Y-92746D01*
X-31987Y-92757D01*
X-31932Y-92768D01*
X-31867Y-92790D01*
X-31768Y-92812D01*
X-31648Y-92845D01*
X-31517Y-92866D01*
X-31375Y-92877D01*
X-31211Y-92888D01*
X-31124D01*
X-31069Y-92877D01*
X-30992Y-92866D01*
X-30905Y-92856D01*
X-30708Y-92812D01*
X-30490Y-92746D01*
X-30249Y-92648D01*
X-30140Y-92582D01*
X-30020Y-92495D01*
X-29910Y-92407D01*
X-29812Y-92309D01*
X-29801Y-92298D01*
X-29790Y-92276D01*
X-29768Y-92243D01*
X-29735Y-92200D01*
X-29692Y-92145D01*
X-29648Y-92069D01*
X-29604Y-91981D01*
X-29550Y-91883D01*
X-29506Y-91763D01*
X-29451Y-91642D01*
X-29408Y-91500D01*
X-29375Y-91347D01*
X-29331Y-91183D01*
X-29309Y-90997D01*
X-29298Y-90812D01*
X-29287Y-90604D01*
Y-90517D01*
X-29298Y-90451D01*
Y-90374D01*
X-29309Y-90287D01*
X-29320Y-90178D01*
X-29331Y-90057D01*
X-29375Y-89795D01*
X-29440Y-89511D01*
X-29517Y-89205D01*
X-29637Y-88888D01*
Y-88877D01*
X-29659Y-88855D01*
X-29670Y-88811D01*
X-29703Y-88746D01*
X-29735Y-88680D01*
X-29779Y-88593D01*
X-29899Y-88407D01*
X-30042Y-88199D01*
X-30205Y-87992D01*
X-30402Y-87784D01*
X-30621Y-87598D01*
X-30632Y-87587D01*
X-30654Y-87576D01*
X-30686Y-87555D01*
X-30730Y-87522D01*
X-30796Y-87489D01*
X-30861Y-87456D01*
X-31036Y-87369D01*
X-31233Y-87281D01*
X-31473Y-87216D01*
X-31725Y-87161D01*
X-31998Y-87139D01*
X-29287D01*
D02*
G37*
G36*
X-2279Y-85139D02*
X-6411D01*
Y-92746D01*
D01*
Y-85139D01*
X-4815Y-92746D01*
X-3328D01*
X-4422Y-87511D01*
X-4400Y-87522D01*
X-4345Y-87565D01*
X-4247Y-87620D01*
X-4115Y-87697D01*
X-3963Y-87784D01*
X-3777Y-87871D01*
X-3569Y-87970D01*
X-3350Y-88068D01*
X-3339D01*
X-3328Y-88079D01*
X-3296Y-88090D01*
X-3252Y-88112D01*
X-3132Y-88145D01*
X-2990Y-88199D01*
X-2826Y-88254D01*
X-2640Y-88309D01*
X-2465Y-88363D01*
X-2279Y-88407D01*
D01*
X-2563Y-87085D01*
X-2574D01*
X-2585Y-87074D01*
X-2651Y-87052D01*
X-2749Y-86997D01*
X-2880Y-86932D01*
X-3033Y-86855D01*
X-3219Y-86768D01*
X-3427Y-86658D01*
X-3646Y-86527D01*
X-3875Y-86396D01*
X-4115Y-86243D01*
X-4367Y-86079D01*
X-4607Y-85915D01*
X-4848Y-85729D01*
X-5088Y-85543D01*
X-5307Y-85347D01*
X-5514Y-85139D01*
X-2279D01*
D02*
G37*
G36*
X-11395D02*
X-12291D01*
Y-92746D01*
D01*
Y-85139D01*
X-10695Y-92746D01*
X-9209D01*
D01*
X-8160D01*
X-9209D01*
X-10302Y-87511D01*
X-10280Y-87522D01*
X-10225Y-87565D01*
X-10127Y-87620D01*
X-9996Y-87697D01*
X-9843Y-87784D01*
X-9657Y-87871D01*
X-9449Y-87970D01*
X-9231Y-88068D01*
X-9220D01*
X-9209Y-88079D01*
X-9176Y-88090D01*
X-9132Y-88112D01*
X-9012Y-88145D01*
X-8870Y-88199D01*
X-8706Y-88254D01*
X-8520Y-88309D01*
X-8345Y-88363D01*
X-8160Y-88407D01*
D01*
X-8444Y-87085D01*
X-8455D01*
X-8466Y-87074D01*
X-8531Y-87052D01*
X-8630Y-86997D01*
X-8761Y-86932D01*
X-8914Y-86855D01*
X-9100Y-86768D01*
X-9307Y-86658D01*
X-9526Y-86527D01*
X-9755Y-86396D01*
X-9996Y-86243D01*
X-10247Y-86079D01*
X-10488Y-85915D01*
X-10728Y-85729D01*
X-10969Y-85543D01*
X-11187Y-85347D01*
X-11395Y-85139D01*
D02*
G37*
G36*
X39484Y-87139D02*
X39386D01*
X39309Y-87150D01*
X39222D01*
X39124Y-87161D01*
X38894Y-87194D01*
X38632Y-87238D01*
X38380Y-87314D01*
X38129Y-87423D01*
X38020Y-87489D01*
X37921Y-87565D01*
X37910D01*
X37899Y-87587D01*
X37845Y-87642D01*
X37757Y-87729D01*
X37659Y-87861D01*
X37571Y-88014D01*
X37484Y-88188D01*
X37429Y-88385D01*
X37408Y-88494D01*
Y-87139D01*
D01*
D01*
Y-92888D01*
D01*
Y-88702D01*
X37418Y-88768D01*
Y-88844D01*
X37429Y-88932D01*
X37462Y-89139D01*
Y-89150D01*
X37473Y-89205D01*
X37484Y-89238D01*
Y-89292D01*
X37506Y-89347D01*
X37517Y-89424D01*
X37539Y-89511D01*
X37561Y-89620D01*
X37582Y-89741D01*
X37604Y-89872D01*
X37637Y-90025D01*
X37681Y-90200D01*
X37725Y-90396D01*
X37768Y-90604D01*
Y-90615D01*
X37779Y-90648D01*
X37790Y-90691D01*
X37801Y-90757D01*
X37812Y-90844D01*
X37834Y-90932D01*
X37867Y-91140D01*
X37910Y-91369D01*
X37943Y-91588D01*
X37965Y-91795D01*
X37976Y-91894D01*
Y-91970D01*
Y-91981D01*
Y-92036D01*
X37965Y-92101D01*
Y-92200D01*
X37943Y-92309D01*
X37921Y-92440D01*
X37899Y-92593D01*
X37856Y-92746D01*
X39287D01*
Y-92735D01*
X39298Y-92692D01*
X39320Y-92637D01*
X39342Y-92560D01*
X39353Y-92462D01*
X39375Y-92364D01*
X39397Y-92134D01*
X39408Y-92145D01*
X39452Y-92189D01*
X39528Y-92254D01*
X39615Y-92342D01*
X39725Y-92429D01*
X39856Y-92517D01*
X39998Y-92615D01*
X40151Y-92692D01*
X40173Y-92703D01*
X40227Y-92724D01*
X40304Y-92757D01*
X40413Y-92790D01*
X40545Y-92823D01*
X40687Y-92856D01*
X40840Y-92877D01*
X41004Y-92888D01*
X41069D01*
X41113Y-92877D01*
X41244Y-92866D01*
X41397Y-92834D01*
X41572Y-92779D01*
X41769Y-92703D01*
X41954Y-92593D01*
X42129Y-92451D01*
X42151Y-92429D01*
X42195Y-92375D01*
X42271Y-92276D01*
X42348Y-92134D01*
X42381Y-92064D01*
X42424Y-91970D01*
X42501Y-91773D01*
X42545Y-91544D01*
X42566Y-91293D01*
Y-91282D01*
Y-91260D01*
Y-91216D01*
X42556Y-91161D01*
Y-91096D01*
X42545Y-91019D01*
X42501Y-90844D01*
X42446Y-90637D01*
X42423Y-90582D01*
X42359Y-90429D01*
X42239Y-90221D01*
X42173Y-90123D01*
X42086Y-90036D01*
X42075Y-90025D01*
X42064Y-90014D01*
X42031Y-89992D01*
X41987Y-89959D01*
X41933Y-89926D01*
X41867Y-89883D01*
X41780Y-89839D01*
X41681Y-89784D01*
X41572Y-89741D01*
X41441Y-89686D01*
X41299Y-89642D01*
X41135Y-89598D01*
X40960Y-89555D01*
X40774Y-89522D01*
X40566Y-89489D01*
X40337Y-89467D01*
X40293D01*
X40238Y-89456D01*
X40162D01*
X40085Y-89445D01*
X39987Y-89434D01*
X39768Y-89402D01*
X39528Y-89380D01*
X39298Y-89336D01*
X39189Y-89314D01*
X39091Y-89292D01*
X39003Y-89271D01*
X38927Y-89249D01*
Y-89238D01*
X38916Y-89194D01*
X38894Y-89139D01*
X38872Y-89074D01*
X38839Y-88910D01*
X38829Y-88833D01*
Y-88757D01*
Y-88746D01*
Y-88713D01*
X38839Y-88680D01*
X38850Y-88626D01*
X38872Y-88560D01*
X38916Y-88494D01*
X38960Y-88429D01*
X39025Y-88363D01*
X39036Y-88352D01*
X39058Y-88341D01*
X39102Y-88309D01*
X39167Y-88276D01*
X39255Y-88254D01*
X39342Y-88221D01*
X39462Y-88210D01*
X39594Y-88199D01*
X39659D01*
X39736Y-88210D01*
X39823Y-88221D01*
X39922Y-88243D01*
X40031Y-88265D01*
X40129Y-88309D01*
X40227Y-88363D01*
X40238Y-88374D01*
X40260Y-88396D01*
X40304Y-88429D01*
X40348Y-88484D01*
X40402Y-88549D01*
X40457Y-88626D01*
X40501Y-88713D01*
X40534Y-88811D01*
X41976Y-88691D01*
Y-88680D01*
X41965Y-88658D01*
X41954Y-88626D01*
X41933Y-88571D01*
X41867Y-88440D01*
X41780Y-88276D01*
X41659Y-88101D01*
X41517Y-87904D01*
X41331Y-87718D01*
X41124Y-87555D01*
X41113D01*
X41091Y-87533D01*
X41058Y-87511D01*
X41015Y-87489D01*
X40949Y-87456D01*
X40872Y-87423D01*
X40785Y-87391D01*
X40687Y-87347D01*
X40577Y-87303D01*
X40446Y-87270D01*
X40315Y-87238D01*
X40173Y-87205D01*
X39845Y-87161D01*
X39484Y-87139D01*
D02*
G37*
G36*
X54327Y-87139D02*
X49168D01*
Y-92888D01*
D01*
Y-88702D01*
X49179Y-88768D01*
Y-88844D01*
X49190Y-88932D01*
X49223Y-89139D01*
Y-89150D01*
X49234Y-89205D01*
X49245Y-89238D01*
Y-89292D01*
X49267Y-89347D01*
X49278Y-89424D01*
X49299Y-89511D01*
X49321Y-89620D01*
X49343Y-89741D01*
X49365Y-89872D01*
X49398Y-90025D01*
X49441Y-90200D01*
X49485Y-90396D01*
X49529Y-90604D01*
Y-90615D01*
X49540Y-90648D01*
X49551Y-90691D01*
X49562Y-90757D01*
X49573Y-90844D01*
X49595Y-90932D01*
X49627Y-91140D01*
X49671Y-91369D01*
X49704Y-91588D01*
X49726Y-91795D01*
X49737Y-91894D01*
Y-91970D01*
Y-91981D01*
Y-92036D01*
X49726Y-92101D01*
Y-92200D01*
X49704Y-92309D01*
X49682Y-92440D01*
X49660Y-92593D01*
X49616Y-92746D01*
X51048D01*
Y-92735D01*
X51059Y-92692D01*
X51081Y-92637D01*
X51103Y-92560D01*
X51114Y-92462D01*
X51136Y-92364D01*
X51157Y-92134D01*
X51168Y-92145D01*
X51212Y-92189D01*
X51289Y-92254D01*
X51376Y-92342D01*
X51485Y-92429D01*
X51617Y-92517D01*
X51759Y-92615D01*
X51912Y-92692D01*
X51933Y-92703D01*
X51988Y-92724D01*
X52065Y-92757D01*
X52174Y-92790D01*
X52305Y-92823D01*
X52447Y-92856D01*
X52600Y-92877D01*
X52764Y-92888D01*
X52830D01*
X52873Y-92877D01*
X53005Y-92866D01*
X53158Y-92834D01*
X53333Y-92779D01*
X53529Y-92703D01*
X53715Y-92593D01*
X53890Y-92451D01*
X53912Y-92429D01*
X53956Y-92375D01*
X54032Y-92276D01*
X54109Y-92134D01*
X54185Y-91970D01*
X54262Y-91773D01*
X54305Y-91544D01*
X54327Y-91293D01*
Y-91216D01*
X54316Y-91161D01*
Y-91096D01*
X54305Y-91019D01*
X54262Y-90844D01*
X54207Y-90637D01*
X54119Y-90429D01*
X53999Y-90221D01*
X53934Y-90123D01*
X53846Y-90036D01*
X53835Y-90025D01*
X53824Y-90014D01*
X53792Y-89992D01*
X53748Y-89959D01*
X53693Y-89926D01*
X53628Y-89883D01*
X53540Y-89839D01*
X53442Y-89784D01*
X53333Y-89741D01*
X53201Y-89686D01*
X53059Y-89642D01*
X52895Y-89598D01*
X52720Y-89555D01*
X52535Y-89522D01*
X52327Y-89489D01*
X52097Y-89467D01*
X52054D01*
X51999Y-89456D01*
X51923D01*
X51846Y-89445D01*
X51748Y-89434D01*
X51529Y-89402D01*
X51289Y-89380D01*
X51059Y-89336D01*
X50950Y-89314D01*
X50852Y-89292D01*
X50764Y-89271D01*
X50687Y-89249D01*
Y-89238D01*
X50677Y-89194D01*
X50655Y-89139D01*
X50633Y-89074D01*
X50600Y-88910D01*
X50589Y-88833D01*
Y-88757D01*
Y-88746D01*
Y-88713D01*
X50600Y-88680D01*
X50611Y-88626D01*
X50633Y-88560D01*
X50677Y-88494D01*
X50720Y-88429D01*
X50786Y-88363D01*
X50797Y-88352D01*
X50819Y-88341D01*
X50862Y-88309D01*
X50928Y-88276D01*
X51015Y-88254D01*
X51103Y-88221D01*
X51223Y-88210D01*
X51354Y-88199D01*
X51420D01*
X51496Y-88210D01*
X51584Y-88221D01*
X51682Y-88243D01*
X51791Y-88265D01*
X51890Y-88309D01*
X51988Y-88363D01*
X51999Y-88374D01*
X52021Y-88396D01*
X52065Y-88429D01*
X52108Y-88484D01*
X52163Y-88549D01*
X52218Y-88626D01*
X52261Y-88713D01*
X52294Y-88811D01*
X53737Y-88691D01*
Y-88680D01*
X53726Y-88658D01*
X53715Y-88626D01*
X53693Y-88571D01*
X53628Y-88440D01*
X53540Y-88276D01*
X53420Y-88101D01*
X53278Y-87904D01*
X53092Y-87718D01*
X52885Y-87555D01*
X52873D01*
X52852Y-87533D01*
X52819Y-87511D01*
X52775Y-87489D01*
X52710Y-87456D01*
X52633Y-87423D01*
X52546Y-87391D01*
X52447Y-87347D01*
X52338Y-87303D01*
X52207Y-87270D01*
X52076Y-87238D01*
X51933Y-87205D01*
X51606Y-87161D01*
X51245Y-87139D01*
X54327D01*
D02*
G37*
G36*
X-54634Y-87139D02*
X-54732D01*
X-54798Y-87150D01*
X-54885Y-87161D01*
X-54984Y-87172D01*
X-55093Y-87194D01*
X-55213Y-87216D01*
X-55476Y-87292D01*
X-55607Y-87336D01*
X-55738Y-87401D01*
X-55869Y-87478D01*
X-56000Y-87555D01*
X-56120Y-87653D01*
X-56241Y-87762D01*
X-56252Y-87773D01*
X-56262Y-87795D01*
X-56295Y-87828D01*
X-56339Y-87871D01*
X-56383Y-87937D01*
X-56427Y-88014D01*
X-56481Y-88112D01*
X-56547Y-88210D01*
X-56601Y-88331D01*
X-56656Y-88462D01*
X-56700Y-88604D01*
X-56743Y-88768D01*
X-56787Y-88932D01*
X-56820Y-89117D01*
X-56831Y-89303D01*
X-56842Y-89511D01*
Y-87139D01*
D01*
D01*
Y-92888D01*
D01*
Y-89708D01*
X-56831Y-89828D01*
X-56820Y-89981D01*
X-56798Y-90145D01*
X-56732Y-90473D01*
X-53016D01*
Y-90484D01*
Y-90527D01*
X-53005Y-90571D01*
Y-90615D01*
Y-90626D01*
Y-90637D01*
Y-90702D01*
X-53027Y-90801D01*
X-53049Y-90932D01*
X-53082Y-91074D01*
X-53136Y-91216D01*
X-53213Y-91369D01*
X-53311Y-91500D01*
X-53322Y-91511D01*
X-53366Y-91555D01*
X-53432Y-91599D01*
X-53530Y-91664D01*
X-53639Y-91719D01*
X-53771Y-91773D01*
X-53923Y-91817D01*
X-54088Y-91828D01*
X-54164D01*
X-54208Y-91817D01*
X-54273Y-91806D01*
X-54350Y-91784D01*
X-54514Y-91730D01*
X-54601Y-91697D01*
X-54699Y-91642D01*
X-54798Y-91577D01*
X-54885Y-91500D01*
X-54984Y-91413D01*
X-55082Y-91314D01*
X-55169Y-91194D01*
X-55246Y-91063D01*
X-56569Y-91282D01*
Y-91293D01*
X-56547Y-91314D01*
X-56525Y-91358D01*
X-56492Y-91413D01*
X-56459Y-91478D01*
X-56405Y-91555D01*
X-56295Y-91741D01*
X-56142Y-91937D01*
X-55957Y-92134D01*
X-55749Y-92331D01*
X-55519Y-92495D01*
X-55508D01*
X-55487Y-92517D01*
X-55454Y-92528D01*
X-55410Y-92560D01*
X-55344Y-92582D01*
X-55279Y-92615D01*
X-55093Y-92692D01*
X-54885Y-92768D01*
X-54634Y-92823D01*
X-54372Y-92866D01*
X-54076Y-92888D01*
X-56842D01*
X-53967D01*
X-53891Y-92877D01*
X-53792Y-92866D01*
X-53683Y-92856D01*
X-53563Y-92834D01*
X-53432Y-92801D01*
X-53148Y-92713D01*
X-52995Y-92659D01*
X-52841Y-92593D01*
X-52699Y-92517D01*
X-52546Y-92418D01*
X-52404Y-92309D01*
X-52273Y-92189D01*
X-52262Y-92178D01*
X-52240Y-92156D01*
X-52207Y-92112D01*
X-52164Y-92058D01*
X-52109Y-91992D01*
X-52055Y-91905D01*
X-51989Y-91806D01*
X-51934Y-91697D01*
X-51869Y-91566D01*
X-51803Y-91435D01*
X-51748Y-91282D01*
X-51694Y-91118D01*
X-51650Y-90943D01*
X-51617Y-90746D01*
X-51595Y-90549D01*
X-51585Y-90342D01*
Y-90232D01*
X-51595Y-90156D01*
X-51606Y-90057D01*
X-51617Y-89937D01*
X-51639Y-89806D01*
X-51661Y-89664D01*
X-51737Y-89358D01*
X-51792Y-89194D01*
X-51847Y-89019D01*
X-51923Y-88844D01*
X-52000Y-88669D01*
X-52098Y-88494D01*
X-52207Y-88331D01*
X-52218Y-88320D01*
X-52251Y-88276D01*
X-52295Y-88221D01*
X-52360Y-88145D01*
X-52459Y-88057D01*
X-52557Y-87948D01*
X-52688Y-87850D01*
X-52830Y-87729D01*
X-52995Y-87620D01*
X-53180Y-87511D01*
X-53377Y-87412D01*
X-53596Y-87325D01*
X-53825Y-87248D01*
X-54076Y-87194D01*
X-54350Y-87150D01*
X-54634Y-87139D01*
D02*
G37*
G36*
X48119Y-87259D02*
X46665D01*
X46294Y-89664D01*
Y-89675D01*
X46283Y-89708D01*
Y-89751D01*
X46272Y-89817D01*
X46261Y-89894D01*
X46239Y-89992D01*
X46206Y-90189D01*
X46173Y-90407D01*
X46141Y-90615D01*
X46119Y-90801D01*
X46108Y-90877D01*
X46097Y-90943D01*
X46086Y-90921D01*
X46064Y-90888D01*
X46031Y-90833D01*
X45988Y-90746D01*
X45922Y-90637D01*
X45845Y-90484D01*
X45791Y-90385D01*
X45736Y-90287D01*
Y-90276D01*
X45725Y-90265D01*
X45682Y-90200D01*
X45627Y-90101D01*
X45561Y-89981D01*
X45496Y-89861D01*
X45430Y-89751D01*
X45375Y-89653D01*
X45343Y-89587D01*
X43977Y-87259D01*
X46259D01*
X42566D01*
X42381D01*
X45758Y-92746D01*
X47026D01*
X48119Y-87259D01*
D01*
D02*
G37*
G36*
X26139Y-85041D02*
X26008D01*
X25920Y-85052D01*
X25811Y-85062D01*
X25680Y-85073D01*
X25538Y-85095D01*
X25385Y-85117D01*
X25046Y-85194D01*
X24696Y-85303D01*
X24521Y-85369D01*
X24357Y-85445D01*
X24193Y-85543D01*
X24040Y-85653D01*
X24029Y-85664D01*
X24007Y-85685D01*
X23964Y-85718D01*
X23909Y-85762D01*
X23843Y-85828D01*
X23778Y-85904D01*
X23690Y-86002D01*
X23603Y-86101D01*
X23516Y-86221D01*
X23428Y-86352D01*
X23341Y-86494D01*
X23253Y-86658D01*
X23177Y-86833D01*
X23100Y-87019D01*
X23035Y-87216D01*
X22980Y-87423D01*
X24434Y-87587D01*
Y-87576D01*
X24445Y-87555D01*
X24455Y-87522D01*
X24466Y-87478D01*
X24521Y-87369D01*
X24587Y-87227D01*
X24674Y-87074D01*
X24783Y-86910D01*
X24904Y-86757D01*
X25057Y-86625D01*
X25078Y-86615D01*
X25133Y-86571D01*
X25221Y-86516D01*
X25352Y-86462D01*
X25505Y-86396D01*
X25691Y-86352D01*
X25898Y-86308D01*
X26128Y-86298D01*
X26204D01*
X26248Y-86308D01*
X26324D01*
X26401Y-86319D01*
X26576Y-86352D01*
X26794Y-86396D01*
X27024Y-86472D01*
X27264Y-86571D01*
X27505Y-86702D01*
X27516D01*
X27527Y-86724D01*
X27560Y-86746D01*
X27603Y-86778D01*
X27724Y-86866D01*
X27866Y-86997D01*
X28019Y-87172D01*
X28183Y-87380D01*
X28347Y-87631D01*
X28489Y-87926D01*
Y-87937D01*
X28500Y-87959D01*
X28521Y-88003D01*
X28543Y-88068D01*
X28565Y-88145D01*
X28598Y-88232D01*
X28631Y-88341D01*
X28664Y-88462D01*
X28696Y-88582D01*
X28729Y-88724D01*
X28784Y-89030D01*
X28828Y-89358D01*
X28839Y-89719D01*
Y-89730D01*
Y-89762D01*
Y-89806D01*
X28828Y-89872D01*
Y-89959D01*
X28817Y-90047D01*
X28784Y-90254D01*
X28729Y-90484D01*
X28664Y-90724D01*
X28554Y-90943D01*
X28489Y-91052D01*
X28412Y-91140D01*
X28390Y-91161D01*
X28336Y-91205D01*
X28226Y-91282D01*
X28084Y-91358D01*
X27909Y-91446D01*
X27691Y-91522D01*
X27428Y-91566D01*
X27133Y-91588D01*
X27046D01*
X26948Y-91577D01*
X26816Y-91566D01*
X26663Y-91555D01*
X26489Y-91522D01*
X26303Y-91489D01*
X26106Y-91446D01*
X26095D01*
X26084Y-91435D01*
X26019Y-91424D01*
X25920Y-91391D01*
X25800Y-91347D01*
X25658Y-91303D01*
X25505Y-91238D01*
X25352Y-91172D01*
X25199Y-91107D01*
X24958Y-89970D01*
X26893D01*
X26631Y-88702D01*
X23253D01*
X23931Y-91970D01*
X23942D01*
X23953Y-91992D01*
X23997Y-92003D01*
X24040Y-92036D01*
X24095Y-92069D01*
X24171Y-92101D01*
X24248Y-92145D01*
X24335Y-92200D01*
X24554Y-92298D01*
X24805Y-92407D01*
X25089Y-92517D01*
X25406Y-92626D01*
X25417D01*
X25450Y-92637D01*
X25494Y-92648D01*
X25559Y-92670D01*
X25636Y-92692D01*
X25723Y-92713D01*
X25833Y-92735D01*
X25953Y-92757D01*
X26215Y-92801D01*
X26521Y-92845D01*
X26838Y-92877D01*
X27177Y-92888D01*
X27308D01*
X27407Y-92877D01*
X27527Y-92866D01*
X27658Y-92856D01*
X27811Y-92834D01*
X27975Y-92812D01*
X28314Y-92735D01*
X28500Y-92681D01*
X28675Y-92615D01*
X28849Y-92550D01*
X29024Y-92462D01*
X29177Y-92364D01*
X29330Y-92254D01*
X29341Y-92243D01*
X29374Y-92211D01*
X29429Y-92167D01*
X29483Y-92090D01*
X29571Y-92003D01*
X29647Y-91894D01*
X29746Y-91763D01*
X29833Y-91620D01*
X29932Y-91446D01*
X30030Y-91260D01*
X30106Y-91052D01*
X30183Y-90833D01*
X30248Y-90582D01*
X30303Y-90320D01*
X30336Y-90036D01*
X30347Y-89741D01*
Y-89631D01*
X30336Y-89555D01*
Y-89445D01*
X30325Y-89336D01*
X30314Y-89205D01*
X30292Y-89052D01*
X30270Y-88899D01*
X30237Y-88735D01*
X30161Y-88374D01*
X30052Y-87992D01*
X29910Y-87609D01*
X29899Y-87598D01*
X29888Y-87555D01*
X29855Y-87489D01*
X29811Y-87412D01*
X29757Y-87303D01*
X29691Y-87194D01*
X29614Y-87063D01*
X29527Y-86921D01*
X29429Y-86768D01*
X29319Y-86615D01*
X29199Y-86462D01*
X29057Y-86298D01*
X28762Y-85992D01*
X28598Y-85849D01*
X28423Y-85718D01*
X28412Y-85707D01*
X28379Y-85685D01*
X28325Y-85653D01*
X28248Y-85609D01*
X28161Y-85565D01*
X28041Y-85500D01*
X27920Y-85445D01*
X27767Y-85379D01*
X27614Y-85314D01*
X27439Y-85259D01*
X27254Y-85194D01*
X27046Y-85150D01*
X26838Y-85106D01*
X26609Y-85073D01*
X26379Y-85052D01*
X26139Y-85041D01*
D02*
G37*
G36*
X59202Y-85183D02*
X57650D01*
X58973Y-91478D01*
X55103D01*
X55366Y-92746D01*
X55103D01*
Y-85183D01*
D01*
Y-92746D01*
X60536D01*
Y-92888D01*
D01*
Y-92746D01*
X60787D01*
X60536Y-91546D01*
X59202Y-85183D01*
D02*
G37*
G36*
X36741Y-85183D02*
X33691D01*
Y-92746D01*
D01*
Y-85183D01*
X35276Y-92746D01*
X36741D01*
D01*
X35156Y-85183D01*
X36741D01*
D01*
D02*
G37*
G36*
X15559D02*
X7929D01*
Y-89303D01*
X4792D01*
Y-90735D01*
D01*
Y-89303D01*
X5077Y-90735D01*
X7929D01*
Y-92746D01*
D01*
Y-90735D01*
X7951D01*
X7929Y-90625D01*
D01*
X7667Y-89303D01*
X7929D01*
Y-85183D01*
X9525Y-92746D01*
X11066D01*
X10367Y-89369D01*
X13307D01*
X14017Y-92746D01*
X15559D01*
D01*
X13974Y-85183D01*
X15559D01*
D01*
D02*
G37*
G36*
X-10695Y-92746D02*
X-12291D01*
X-10695D01*
D01*
D02*
G37*
G36*
X-23626Y-85183D02*
X-29233D01*
X-28970Y-86451D01*
X-24915D01*
X-24544Y-88156D01*
X-28468D01*
X-28205Y-89424D01*
X-24260D01*
X-23811Y-91478D01*
X-28216D01*
X-27943Y-92746D01*
X-22041D01*
D01*
X-23626Y-85183D01*
D02*
G37*
G36*
X-43146Y-87259D02*
X-44622D01*
X-44447Y-88088D01*
D01*
X-43464Y-92746D01*
X-41999D01*
D01*
X-43146Y-87259D01*
D02*
G37*
G36*
X-61749Y-85183D02*
X-63301D01*
X-61706Y-92746D01*
X-60164D01*
D01*
X-61749Y-85183D01*
D02*
G37*
G36*
X-64690D02*
X-66242D01*
X-64646Y-92746D01*
X-63105D01*
X-64690Y-85183D01*
D02*
G37*
G36*
X-67035D02*
X-69182D01*
Y-92746D01*
D01*
Y-85183D01*
X-67586Y-92746D01*
X-66045D01*
X-67630Y-85183D01*
X-67035D01*
D02*
G37*
G36*
X67924Y-85183D02*
X60536D01*
X61443Y-89467D01*
Y-89478D01*
X61454Y-89522D01*
X61465Y-89587D01*
X61486Y-89675D01*
X61519Y-89784D01*
X61552Y-89904D01*
X61585Y-90036D01*
X61628Y-90178D01*
X61716Y-90484D01*
X61825Y-90812D01*
X61956Y-91118D01*
X62022Y-91260D01*
X62088Y-91391D01*
Y-91402D01*
X62109Y-91424D01*
X62131Y-91457D01*
X62153Y-91500D01*
X62240Y-91620D01*
X62372Y-91773D01*
X62525Y-91948D01*
X62722Y-92123D01*
X62951Y-92309D01*
X63213Y-92473D01*
X63224D01*
X63246Y-92495D01*
X63290Y-92506D01*
X63345Y-92539D01*
X63421Y-92571D01*
X63508Y-92604D01*
X63607Y-92637D01*
X63727Y-92681D01*
X63858Y-92724D01*
X64000Y-92757D01*
X64153Y-92790D01*
X64317Y-92823D01*
X64492Y-92845D01*
X64689Y-92866D01*
X65093Y-92888D01*
X65224D01*
X65323Y-92877D01*
X65432Y-92866D01*
X65563Y-92856D01*
X65716Y-92834D01*
X65869Y-92812D01*
X66208Y-92735D01*
X66394Y-92681D01*
X66569Y-92615D01*
X66733Y-92539D01*
X66897Y-92451D01*
X67061Y-92353D01*
X67203Y-92243D01*
X67214Y-92233D01*
X67235Y-92211D01*
X67268Y-92178D01*
X67312Y-92123D01*
X67367Y-92058D01*
X67432Y-91981D01*
X67498Y-91894D01*
X67563Y-91784D01*
X67629Y-91675D01*
X67695Y-91544D01*
X67760Y-91413D01*
X67815Y-91260D01*
X67859Y-91107D01*
X67891Y-90932D01*
X67913Y-90757D01*
X67924Y-90571D01*
Y-90538D01*
X67913Y-90495D01*
Y-90440D01*
X67902Y-90364D01*
X67891Y-90287D01*
X67870Y-90112D01*
Y-90101D01*
X67859Y-90079D01*
Y-90014D01*
X67837Y-89937D01*
X67815Y-89806D01*
X67804Y-89730D01*
X67782Y-89642D01*
X67760Y-89544D01*
X67738Y-89434D01*
X67716Y-89314D01*
X67684Y-89172D01*
X66787Y-85183D01*
X67924D01*
D01*
D02*
G37*
G36*
X22980Y-85041D02*
D01*
Y-92888D01*
D01*
Y-85041D01*
D01*
D02*
G37*
G36*
X-35845Y-87259D02*
X-41463D01*
Y-92888D01*
D01*
Y-87259D01*
X-40228Y-92746D01*
X-38840D01*
X-38993Y-92047D01*
X-38982Y-92058D01*
X-38960Y-92080D01*
X-38906Y-92123D01*
X-38851Y-92178D01*
X-38774Y-92243D01*
X-38676Y-92309D01*
X-38578Y-92386D01*
X-38458Y-92462D01*
X-38326Y-92550D01*
X-38184Y-92626D01*
X-37878Y-92757D01*
X-37714Y-92812D01*
X-37539Y-92856D01*
X-37365Y-92877D01*
X-37179Y-92888D01*
X-37124D01*
X-37080Y-92877D01*
X-36960Y-92866D01*
X-36818Y-92845D01*
X-36665Y-92790D01*
X-36501Y-92724D01*
X-36337Y-92637D01*
X-36195Y-92506D01*
X-36184Y-92484D01*
X-36140Y-92429D01*
X-36086Y-92342D01*
X-36020Y-92222D01*
X-35955Y-92080D01*
X-35900Y-91894D01*
X-35856Y-91686D01*
X-35845Y-91457D01*
Y-91402D01*
X-35856Y-91325D01*
X-35867Y-91205D01*
X-35889Y-91052D01*
X-35911Y-90965D01*
X-35922Y-90855D01*
X-35944Y-90746D01*
X-35965Y-90615D01*
X-35998Y-90473D01*
X-36031Y-90320D01*
X-36720Y-87259D01*
X-35845D01*
D02*
G37*
%LPD*%
G36*
X-48262Y-88210D02*
X-48153Y-88232D01*
X-48032Y-88276D01*
X-47901Y-88331D01*
X-47770Y-88407D01*
X-47628Y-88505D01*
X-47617Y-88516D01*
X-47573Y-88560D01*
X-47508Y-88637D01*
X-47431Y-88735D01*
X-47344Y-88855D01*
X-47245Y-89008D01*
X-47158Y-89183D01*
X-47081Y-89391D01*
Y-89402D01*
X-47070Y-89413D01*
X-47060Y-89445D01*
X-47049Y-89489D01*
X-47016Y-89598D01*
X-46983Y-89730D01*
X-46950Y-89894D01*
X-46917Y-90068D01*
X-46896Y-90232D01*
X-46885Y-90407D01*
Y-90418D01*
Y-90440D01*
Y-90473D01*
Y-90517D01*
X-46907Y-90637D01*
X-46928Y-90779D01*
X-46961Y-90943D01*
X-47016Y-91118D01*
X-47092Y-91271D01*
X-47202Y-91424D01*
X-47212Y-91435D01*
X-47256Y-91478D01*
X-47322Y-91533D01*
X-47420Y-91599D01*
X-47530Y-91664D01*
X-47650Y-91719D01*
X-47803Y-91763D01*
X-47956Y-91773D01*
X-48021D01*
X-48087Y-91763D01*
X-48185Y-91741D01*
X-48295Y-91708D01*
X-48415Y-91664D01*
X-48535Y-91599D01*
X-48666Y-91511D01*
X-48677Y-91500D01*
X-48721Y-91457D01*
X-48786Y-91391D01*
X-48874Y-91303D01*
X-48961Y-91183D01*
X-49060Y-91030D01*
X-49158Y-90844D01*
X-49246Y-90626D01*
Y-90615D01*
X-49256Y-90593D01*
X-49267Y-90560D01*
X-49278Y-90517D01*
X-49322Y-90396D01*
X-49366Y-90243D01*
X-49398Y-90068D01*
X-49442Y-89883D01*
X-49464Y-89675D01*
X-49475Y-89478D01*
Y-89467D01*
Y-89456D01*
Y-89424D01*
Y-89380D01*
X-49464Y-89271D01*
X-49442Y-89128D01*
X-49398Y-88975D01*
X-49344Y-88822D01*
X-49267Y-88669D01*
X-49169Y-88538D01*
X-49158Y-88527D01*
X-49114Y-88484D01*
X-49049Y-88429D01*
X-48961Y-88363D01*
X-48852Y-88309D01*
X-48732Y-88254D01*
X-48579Y-88210D01*
X-48415Y-88199D01*
X-48338D01*
X-48262Y-88210D01*
D02*
G37*
G36*
X20215Y-88593D02*
X19439D01*
X19318Y-88582D01*
X19067Y-88571D01*
X18794Y-88560D01*
X18520Y-88527D01*
X18400Y-88505D01*
X18280Y-88494D01*
X18182Y-88462D01*
X18094Y-88440D01*
X18072Y-88429D01*
X18029Y-88407D01*
X17952Y-88374D01*
X17854Y-88320D01*
X17755Y-88254D01*
X17646Y-88167D01*
X17537Y-88068D01*
X17438Y-87959D01*
X17427Y-87948D01*
X17406Y-87904D01*
X17362Y-87828D01*
X17318Y-87740D01*
X17275Y-87631D01*
X17231Y-87500D01*
X17209Y-87369D01*
X17198Y-87216D01*
Y-87205D01*
Y-87172D01*
X17209Y-87117D01*
Y-87052D01*
X17253Y-86910D01*
X17285Y-86833D01*
X17329Y-86768D01*
Y-86757D01*
X17351Y-86735D01*
X17417Y-86669D01*
X17526Y-86593D01*
X17668Y-86516D01*
X17679D01*
X17712Y-86505D01*
X17777Y-86483D01*
X17876Y-86472D01*
X17996Y-86451D01*
X18171Y-86440D01*
X18269D01*
X18378Y-86429D01*
X19756D01*
X20215Y-88593D01*
D02*
G37*
G36*
X890Y-85150D02*
X803Y-85161D01*
X705Y-85172D01*
X475Y-85216D01*
X224Y-85281D01*
X-39Y-85390D01*
X-170Y-85456D01*
X-290Y-85532D01*
X-410Y-85620D01*
X-520Y-85729D01*
X-531Y-85740D01*
X-541Y-85751D01*
X-574Y-85784D01*
X-607Y-85828D01*
X-651Y-85893D01*
X-694Y-85959D01*
X-793Y-86123D01*
X-891Y-86319D01*
X-979Y-86560D01*
X-1044Y-86822D01*
X-1055Y-86964D01*
X-1066Y-87117D01*
Y-85139D01*
X967D01*
X890Y-85150D01*
D02*
G37*
G36*
X-16598Y-86330D02*
X-16521Y-86341D01*
X-16423Y-86363D01*
X-16313Y-86418D01*
X-16193Y-86483D01*
X-16073Y-86571D01*
X-15953Y-86702D01*
Y-86713D01*
X-15931Y-86724D01*
X-15909Y-86768D01*
X-15876Y-86811D01*
X-15843Y-86877D01*
X-15789Y-86953D01*
X-15745Y-87041D01*
X-15690Y-87150D01*
X-15625Y-87281D01*
X-15559Y-87423D01*
X-15494Y-87576D01*
X-15428Y-87762D01*
X-15362Y-87948D01*
X-15297Y-88167D01*
X-15231Y-88396D01*
X-15166Y-88648D01*
Y-88658D01*
X-15155Y-88702D01*
X-15144Y-88757D01*
X-15122Y-88844D01*
X-15100Y-88943D01*
X-15078Y-89063D01*
X-15056Y-89194D01*
X-15035Y-89336D01*
X-14980Y-89653D01*
X-14936Y-89970D01*
X-14903Y-90298D01*
X-14893Y-90604D01*
Y-90615D01*
Y-90626D01*
Y-90659D01*
Y-90702D01*
X-14903Y-90812D01*
X-14914Y-90943D01*
X-14936Y-91085D01*
X-14980Y-91227D01*
X-15024Y-91358D01*
X-15089Y-91467D01*
X-15100Y-91478D01*
X-15122Y-91500D01*
X-15166Y-91544D01*
X-15231Y-91588D01*
X-15297Y-91631D01*
X-15384Y-91675D01*
X-15494Y-91697D01*
X-15603Y-91708D01*
X-15625D01*
X-15668Y-91697D01*
X-15756Y-91686D01*
X-15854Y-91664D01*
X-15964Y-91610D01*
X-16095Y-91544D01*
X-16215Y-91457D01*
X-16346Y-91325D01*
Y-91314D01*
X-16368Y-91303D01*
X-16390Y-91271D01*
X-16423Y-91216D01*
X-16455Y-91161D01*
X-16499Y-91085D01*
X-16543Y-90987D01*
X-16598Y-90877D01*
X-16663Y-90757D01*
X-16718Y-90604D01*
X-16783Y-90440D01*
X-16849Y-90254D01*
X-16915Y-90047D01*
X-16980Y-89828D01*
X-17046Y-89577D01*
X-17111Y-89303D01*
Y-89292D01*
X-17122Y-89249D01*
X-17133Y-89183D01*
X-17155Y-89107D01*
X-17177Y-89008D01*
X-17199Y-88888D01*
X-17221Y-88757D01*
X-17253Y-88615D01*
X-17297Y-88309D01*
X-17341Y-87992D01*
X-17374Y-87686D01*
X-17384Y-87533D01*
Y-87401D01*
Y-87391D01*
Y-87380D01*
Y-87303D01*
X-17374Y-87205D01*
X-17363Y-87085D01*
X-17330Y-86953D01*
X-17297Y-86811D01*
X-17242Y-86691D01*
X-17177Y-86582D01*
X-17166Y-86571D01*
X-17144Y-86538D01*
X-17100Y-86494D01*
X-17035Y-86451D01*
X-16969Y-86407D01*
X-16882Y-86363D01*
X-16772Y-86330D01*
X-16663Y-86319D01*
X-16641D01*
X-16598Y-86330D01*
D02*
G37*
G36*
X-18816Y-87959D02*
Y-88057D01*
X-18805Y-88188D01*
X-18794Y-88331D01*
X-18773Y-88494D01*
X-18751Y-88680D01*
X-18718Y-88866D01*
X-18685Y-89074D01*
X-18642Y-89281D01*
X-18532Y-89741D01*
X-18390Y-90221D01*
Y-90232D01*
X-18368Y-90276D01*
X-18346Y-90342D01*
X-18314Y-90429D01*
X-18270Y-90538D01*
X-18215Y-90670D01*
X-18150Y-90801D01*
X-18084Y-90954D01*
X-17909Y-91271D01*
X-17712Y-91599D01*
X-17483Y-91916D01*
X-17352Y-92069D01*
X-17221Y-92200D01*
X-17210Y-92211D01*
X-17188Y-92233D01*
X-17144Y-92265D01*
X-17089Y-92309D01*
X-17024Y-92364D01*
X-16936Y-92418D01*
X-16849Y-92484D01*
X-16740Y-92539D01*
X-16488Y-92670D01*
X-16215Y-92779D01*
X-16062Y-92823D01*
X-15898Y-92856D01*
X-15734Y-92877D01*
X-15559Y-92888D01*
X-18827Y-92888D01*
Y-87871D01*
X-18816Y-87959D01*
D02*
G37*
G36*
X-32085Y-88243D02*
X-31998Y-88265D01*
X-31889Y-88298D01*
X-31768Y-88352D01*
X-31648Y-88418D01*
X-31517Y-88505D01*
X-31506Y-88516D01*
X-31462Y-88560D01*
X-31397Y-88626D01*
X-31309Y-88713D01*
X-31222Y-88844D01*
X-31124Y-88997D01*
X-31025Y-89172D01*
X-30938Y-89391D01*
Y-89402D01*
X-30927Y-89413D01*
X-30916Y-89445D01*
X-30905Y-89500D01*
X-30872Y-89609D01*
X-30828Y-89762D01*
X-30785Y-89948D01*
X-30752Y-90145D01*
X-30730Y-90353D01*
X-30719Y-90571D01*
Y-90582D01*
Y-90593D01*
Y-90659D01*
X-30730Y-90768D01*
X-30752Y-90888D01*
X-30796Y-91030D01*
X-30839Y-91183D01*
X-30916Y-91325D01*
X-31014Y-91457D01*
X-31025Y-91467D01*
X-31069Y-91500D01*
X-31135Y-91555D01*
X-31211Y-91610D01*
X-31320Y-91675D01*
X-31440Y-91719D01*
X-31583Y-91763D01*
X-31736Y-91773D01*
X-31801D01*
X-31867Y-91763D01*
X-31965Y-91741D01*
X-32074Y-91708D01*
X-32195Y-91664D01*
X-32326Y-91610D01*
X-32457Y-91522D01*
X-32468Y-91511D01*
X-32523Y-91478D01*
X-32588Y-91413D01*
X-32665Y-91325D01*
X-32752Y-91205D01*
X-32851Y-91063D01*
X-32949Y-90888D01*
X-33036Y-90680D01*
Y-90670D01*
X-33047Y-90659D01*
X-33058Y-90626D01*
X-33069Y-90582D01*
X-33102Y-90462D01*
X-33146Y-90320D01*
X-33189Y-90145D01*
X-33222Y-89948D01*
X-33244Y-89751D01*
X-33255Y-89544D01*
Y-89533D01*
Y-89511D01*
Y-89489D01*
Y-89445D01*
X-33244Y-89336D01*
X-33211Y-89194D01*
X-33178Y-89041D01*
X-33124Y-88877D01*
X-33047Y-88724D01*
X-32938Y-88582D01*
X-32927Y-88571D01*
X-32883Y-88527D01*
X-32818Y-88473D01*
X-32730Y-88407D01*
X-32621Y-88341D01*
X-32501Y-88287D01*
X-32359Y-88243D01*
X-32206Y-88232D01*
X-32151D01*
X-32085Y-88243D01*
D02*
G37*
G36*
X39145Y-90200D02*
X39178D01*
X39222Y-90210D01*
X39331Y-90243D01*
X39484Y-90265D01*
X39495D01*
X39528Y-90276D01*
X39594D01*
X39659Y-90287D01*
X39757Y-90298D01*
X39856Y-90320D01*
X40085Y-90364D01*
X40326Y-90418D01*
X40566Y-90484D01*
X40676Y-90527D01*
X40774Y-90571D01*
X40861Y-90615D01*
X40938Y-90659D01*
X40949Y-90670D01*
X40971Y-90691D01*
X41015Y-90735D01*
X41058Y-90790D01*
X41102Y-90866D01*
X41146Y-90954D01*
X41168Y-91052D01*
X41178Y-91161D01*
Y-91172D01*
Y-91205D01*
X41168Y-91249D01*
X41157Y-91314D01*
X41135Y-91380D01*
X41102Y-91457D01*
X41058Y-91533D01*
X40993Y-91599D01*
X40982Y-91610D01*
X40960Y-91620D01*
X40916Y-91653D01*
X40861Y-91686D01*
X40796Y-91719D01*
X40708Y-91741D01*
X40610Y-91763D01*
X40501Y-91773D01*
X40446D01*
X40380Y-91763D01*
X40304Y-91752D01*
X40206Y-91741D01*
X40096Y-91708D01*
X39987Y-91675D01*
X39878Y-91620D01*
X39867Y-91610D01*
X39823Y-91588D01*
X39768Y-91555D01*
X39703Y-91500D01*
X39637Y-91446D01*
X39561Y-91369D01*
X39484Y-91293D01*
X39430Y-91194D01*
X39419Y-91183D01*
X39408Y-91140D01*
X39375Y-91085D01*
X39342Y-90997D01*
X39298Y-90888D01*
X39255Y-90746D01*
X39211Y-90582D01*
X39167Y-90396D01*
X39124Y-90189D01*
X39134D01*
X39145Y-90200D01*
D02*
G37*
G36*
X51070Y-87150D02*
X50983D01*
X50884Y-87161D01*
X50655Y-87194D01*
X50392Y-87238D01*
X50141Y-87314D01*
X49890Y-87423D01*
X49780Y-87489D01*
X49682Y-87565D01*
X49671D01*
X49660Y-87587D01*
X49606Y-87642D01*
X49518Y-87729D01*
X49420Y-87861D01*
X49332Y-88013D01*
X49245Y-88188D01*
X49190Y-88385D01*
X49168Y-88494D01*
Y-87139D01*
X51147D01*
X51070Y-87150D01*
D02*
G37*
G36*
X50906Y-90200D02*
X50939D01*
X50983Y-90210D01*
X51092Y-90243D01*
X51245Y-90265D01*
X51256D01*
X51289Y-90276D01*
X51354D01*
X51420Y-90287D01*
X51518Y-90298D01*
X51617Y-90320D01*
X51846Y-90364D01*
X52087Y-90418D01*
X52327Y-90484D01*
X52436Y-90527D01*
X52535Y-90571D01*
X52622Y-90615D01*
X52699Y-90659D01*
X52710Y-90670D01*
X52731Y-90691D01*
X52775Y-90735D01*
X52819Y-90790D01*
X52863Y-90866D01*
X52906Y-90954D01*
X52928Y-91052D01*
X52939Y-91161D01*
Y-91172D01*
Y-91205D01*
X52928Y-91249D01*
X52917Y-91314D01*
X52895Y-91380D01*
X52863Y-91457D01*
X52819Y-91533D01*
X52753Y-91599D01*
X52742Y-91610D01*
X52720Y-91620D01*
X52677Y-91653D01*
X52622Y-91686D01*
X52557Y-91719D01*
X52469Y-91741D01*
X52371Y-91763D01*
X52261Y-91773D01*
X52207D01*
X52141Y-91763D01*
X52065Y-91752D01*
X51966Y-91741D01*
X51857Y-91708D01*
X51748Y-91675D01*
X51638Y-91620D01*
X51627Y-91610D01*
X51584Y-91588D01*
X51529Y-91555D01*
X51464Y-91500D01*
X51398Y-91446D01*
X51322Y-91369D01*
X51245Y-91293D01*
X51190Y-91194D01*
X51179Y-91183D01*
X51168Y-91140D01*
X51136Y-91085D01*
X51103Y-90997D01*
X51059Y-90888D01*
X51015Y-90746D01*
X50972Y-90582D01*
X50928Y-90396D01*
X50884Y-90189D01*
X50895D01*
X50906Y-90200D01*
D02*
G37*
G36*
X-54317Y-88221D02*
X-54208Y-88243D01*
X-54076Y-88287D01*
X-53934Y-88341D01*
X-53792Y-88429D01*
X-53650Y-88549D01*
X-53639Y-88560D01*
X-53596Y-88615D01*
X-53530Y-88691D01*
X-53453Y-88811D01*
X-53377Y-88954D01*
X-53290Y-89128D01*
X-53213Y-89325D01*
X-53158Y-89566D01*
X-55487D01*
Y-89555D01*
Y-89511D01*
Y-89467D01*
Y-89424D01*
Y-89413D01*
Y-89402D01*
Y-89369D01*
Y-89325D01*
X-55476Y-89216D01*
X-55454Y-89074D01*
X-55421Y-88932D01*
X-55366Y-88779D01*
X-55301Y-88637D01*
X-55213Y-88505D01*
X-55202Y-88494D01*
X-55159Y-88462D01*
X-55104Y-88407D01*
X-55016Y-88352D01*
X-54918Y-88298D01*
X-54787Y-88243D01*
X-54645Y-88210D01*
X-54481Y-88199D01*
X-54404D01*
X-54317Y-88221D01*
D02*
G37*
G36*
X13034Y-88101D02*
X10093D01*
X9481Y-85183D01*
X12422D01*
X13034Y-88101D01*
D02*
G37*
G36*
X66142Y-89303D02*
X66372Y-90309D01*
Y-90320D01*
Y-90331D01*
X66383Y-90396D01*
X66394Y-90506D01*
X66416Y-90637D01*
Y-90659D01*
X66405Y-90702D01*
X66394Y-90779D01*
X66372Y-90877D01*
X66328Y-90987D01*
X66263Y-91107D01*
X66186Y-91216D01*
X66066Y-91325D01*
X66044Y-91336D01*
X66000Y-91369D01*
X65913Y-91413D01*
X65804Y-91457D01*
X65651Y-91500D01*
X65476Y-91544D01*
X65268Y-91577D01*
X65028Y-91588D01*
X64929D01*
X64809Y-91577D01*
X64667Y-91566D01*
X64514Y-91533D01*
X64350Y-91500D01*
X64175Y-91446D01*
X64022Y-91380D01*
X64000Y-91369D01*
X63956Y-91336D01*
X63880Y-91293D01*
X63793Y-91227D01*
X63694Y-91140D01*
X63585Y-91030D01*
X63486Y-90899D01*
X63399Y-90757D01*
X63388Y-90735D01*
X63366Y-90670D01*
X63345Y-90626D01*
X63323Y-90571D01*
X63290Y-90495D01*
X63257Y-90418D01*
X63235Y-90320D01*
X63191Y-90221D01*
X63159Y-90101D01*
X63126Y-89970D01*
X63082Y-89828D01*
X63038Y-89675D01*
X63006Y-89511D01*
X62962Y-89325D01*
X62088Y-85183D01*
X65246D01*
X66142Y-89303D01*
D02*
G37*
G36*
X-37485Y-90527D02*
Y-90538D01*
Y-90549D01*
X-37463Y-90615D01*
X-37441Y-90713D01*
X-37419Y-90833D01*
X-37397Y-90954D01*
X-37376Y-91074D01*
X-37365Y-91172D01*
X-37354Y-91249D01*
Y-91260D01*
Y-91293D01*
X-37365Y-91336D01*
X-37376Y-91391D01*
X-37419Y-91522D01*
X-37452Y-91599D01*
X-37507Y-91664D01*
X-37518Y-91675D01*
X-37539Y-91686D01*
X-37572Y-91719D01*
X-37616Y-91741D01*
X-37681Y-91773D01*
X-37747Y-91806D01*
X-37824Y-91817D01*
X-37911Y-91828D01*
X-37977D01*
X-38020Y-91817D01*
X-38130Y-91795D01*
X-38250Y-91752D01*
X-38261D01*
X-38283Y-91741D01*
X-38315Y-91719D01*
X-38359Y-91697D01*
X-38469Y-91620D01*
X-38600Y-91522D01*
X-38611Y-91511D01*
X-38632Y-91489D01*
X-38665Y-91457D01*
X-38709Y-91413D01*
X-38818Y-91303D01*
X-38928Y-91161D01*
X-38939Y-91150D01*
X-38949Y-91129D01*
X-38982Y-91074D01*
X-39015Y-91019D01*
X-39059Y-90932D01*
X-39102Y-90844D01*
X-39157Y-90735D01*
X-39201Y-90615D01*
Y-90604D01*
X-39212Y-90571D01*
X-39234Y-90517D01*
X-39255Y-90429D01*
X-39288Y-90331D01*
X-39321Y-90200D01*
X-39354Y-90057D01*
X-39397Y-89883D01*
X-39988Y-87259D01*
X-38217D01*
X-37485Y-90527D01*
D02*
G37*
%LPC*%
G36*
X-94674Y81430D02*
X-99757D01*
D01*
X-94674D01*
D02*
G37*
G36*
X-99757D02*
X-100048D01*
X-100057Y81421D01*
X-100067Y81402D01*
X-100094Y81375D01*
X-100130Y81339D01*
X-100231Y81229D01*
X-100349Y81102D01*
X-100495Y80965D01*
X-100640Y80819D01*
X-100786Y80683D01*
X-100932Y80555D01*
X-100950Y80546D01*
X-100996Y80510D01*
X-101069Y80455D01*
X-101169Y80382D01*
X-101287Y80309D01*
X-101415Y80227D01*
X-101561Y80145D01*
X-101706Y80072D01*
Y81430D01*
D01*
Y78560D01*
Y79890D01*
X-101688Y79881D01*
X-101643Y79863D01*
X-101579Y79826D01*
X-101488Y79781D01*
X-101369Y79717D01*
X-101251Y79644D01*
X-101114Y79553D01*
X-100969Y79444D01*
X-100950Y79426D01*
X-100896Y79389D01*
X-100823Y79316D01*
X-100713Y79225D01*
X-100577Y79097D01*
X-100422Y78943D01*
X-100249Y78770D01*
X-100057Y78560D01*
X-101706D01*
X-99757D01*
Y78569D01*
X-99766Y78578D01*
X-99793Y78633D01*
X-99839Y78724D01*
X-99893Y78824D01*
X-99948Y78924D01*
X-100003Y79034D01*
X-100067Y79134D01*
X-100112Y79216D01*
X-100121Y79225D01*
X-100139Y79252D01*
X-100167Y79298D01*
X-100212Y79362D01*
X-100267Y79444D01*
X-100340Y79535D01*
X-100431Y79653D01*
X-100531Y79790D01*
X-94674D01*
Y80209D01*
Y80200D01*
X-100531D01*
X-100522Y80209D01*
X-100513Y80218D01*
X-100495Y80245D01*
X-100458Y80282D01*
X-100422Y80327D01*
X-100385Y80382D01*
X-100331Y80446D01*
X-100276Y80519D01*
X-100222Y80601D01*
X-100158Y80692D01*
X-100094Y80792D01*
X-100030Y80901D01*
X-99893Y81147D01*
X-99757Y81430D01*
D02*
G37*
G36*
X-94674Y74962D02*
X-99757D01*
D01*
X-94674D01*
D02*
G37*
G36*
D02*
Y73732D01*
X-100531D01*
X-100522Y73741D01*
X-100513Y73750D01*
X-100495Y73777D01*
X-100458Y73814D01*
X-100422Y73859D01*
X-100385Y73914D01*
X-100331Y73978D01*
X-100276Y74051D01*
X-100222Y74133D01*
X-100158Y74224D01*
X-100094Y74324D01*
X-100030Y74433D01*
X-99893Y74679D01*
X-99757Y74962D01*
X-100048D01*
X-100057Y74953D01*
X-100067Y74934D01*
X-100094Y74907D01*
X-100130Y74871D01*
X-100231Y74761D01*
X-100349Y74634D01*
X-100495Y74497D01*
X-100640Y74351D01*
X-100786Y74215D01*
X-100932Y74087D01*
X-100950Y74078D01*
X-100996Y74041D01*
X-101069Y73987D01*
X-101169Y73914D01*
X-101287Y73841D01*
X-101415Y73759D01*
X-101561Y73677D01*
X-101706Y73604D01*
Y73422D01*
X-101688Y73413D01*
X-101643Y73395D01*
X-101579Y73358D01*
X-101488Y73313D01*
X-101369Y73249D01*
X-101251Y73176D01*
X-101114Y73085D01*
X-100969Y72976D01*
X-100950Y72957D01*
X-100896Y72921D01*
X-100823Y72848D01*
X-100713Y72757D01*
X-100577Y72629D01*
X-100422Y72475D01*
X-100249Y72302D01*
X-100057Y72092D01*
X-101706D01*
X-99757D01*
Y72101D01*
X-99766Y72110D01*
X-99793Y72165D01*
X-99839Y72256D01*
X-99893Y72356D01*
X-99948Y72456D01*
X-100003Y72566D01*
X-100067Y72666D01*
X-100112Y72748D01*
X-100121Y72757D01*
X-100139Y72784D01*
X-100167Y72830D01*
X-100212Y72894D01*
X-100267Y72976D01*
X-100340Y73067D01*
X-100431Y73185D01*
X-100531Y73322D01*
X-94674D01*
Y74962D01*
D02*
G37*
G36*
X-94072Y71227D02*
D01*
Y67992D01*
X-94081Y68147D01*
X-94090Y68320D01*
X-94109Y68521D01*
X-94127Y68721D01*
X-94154Y68931D01*
Y68958D01*
X-94163Y68985D01*
X-94172Y69022D01*
X-94182Y69077D01*
X-94200Y69131D01*
X-94236Y69268D01*
X-94282Y69423D01*
X-94355Y69596D01*
X-94437Y69778D01*
X-94546Y69960D01*
Y69969D01*
X-94564Y69987D01*
X-94582Y70015D01*
X-94610Y70060D01*
X-94701Y70161D01*
X-94810Y70297D01*
X-94956Y70443D01*
X-95129Y70598D01*
X-95329Y70744D01*
X-95557Y70880D01*
X-95566D01*
X-95584Y70898D01*
X-95621Y70917D01*
X-95666Y70935D01*
X-95730Y70962D01*
X-95803Y70990D01*
X-95885Y71017D01*
X-95976Y71053D01*
X-96086Y71090D01*
X-96195Y71117D01*
X-96450Y71172D01*
X-96741Y71208D01*
X-97051Y71227D01*
X-100003D01*
X-97133D01*
X-97188Y71217D01*
X-97261D01*
X-97352Y71208D01*
X-97443Y71199D01*
X-97543Y71181D01*
X-97780Y71135D01*
X-98026Y71072D01*
X-98281Y70981D01*
X-98536Y70862D01*
X-98545D01*
X-98563Y70844D01*
X-98600Y70826D01*
X-98646Y70798D01*
X-98700Y70762D01*
X-98755Y70716D01*
X-98901Y70607D01*
X-99064Y70480D01*
X-99229Y70325D01*
X-99392Y70142D01*
X-99538Y69942D01*
Y69933D01*
X-99547Y69924D01*
X-99566Y69896D01*
X-99584Y69860D01*
X-99638Y69769D01*
X-99702Y69641D01*
X-99766Y69496D01*
X-99830Y69323D01*
X-99884Y69131D01*
X-99921Y68931D01*
Y68903D01*
X-99930Y68876D01*
Y68840D01*
X-99939Y68785D01*
X-99948Y68730D01*
X-99957Y68585D01*
X-99976Y68411D01*
X-99994Y68220D01*
X-100003Y68002D01*
Y65925D01*
X-94072D01*
Y71227D01*
D02*
G37*
G36*
Y64722D02*
X-100003D01*
Y59639D01*
X-94072D01*
Y61461D01*
X-97470Y63365D01*
X-94072D01*
Y64722D01*
D02*
G37*
G36*
X-93963Y58518D02*
D01*
Y56505D01*
X-93972Y56578D01*
X-93981Y56742D01*
X-93999Y56942D01*
X-94027Y57142D01*
X-94063Y57343D01*
X-94109Y57525D01*
Y57534D01*
X-94118Y57543D01*
X-94127Y57571D01*
X-94136Y57607D01*
X-94163Y57698D01*
X-94209Y57817D01*
X-94263Y57962D01*
X-94327Y58126D01*
X-94400Y58309D01*
X-94491Y58491D01*
X-95876D01*
Y58345D01*
X-95858Y58336D01*
X-95840Y58309D01*
X-95812Y58272D01*
X-95785Y58227D01*
X-95749Y58181D01*
X-95648Y58044D01*
X-95639Y58035D01*
X-95621Y58008D01*
X-95594Y57971D01*
X-95557Y57917D01*
X-95475Y57798D01*
X-95384Y57653D01*
X-95375Y57644D01*
X-95366Y57616D01*
X-95338Y57561D01*
X-95311Y57507D01*
X-95275Y57425D01*
X-95238Y57334D01*
X-95202Y57243D01*
X-95165Y57133D01*
Y57124D01*
X-95147Y57079D01*
X-95138Y57024D01*
X-95120Y56951D01*
X-95102Y56851D01*
X-95093Y56751D01*
X-95074Y56632D01*
Y56450D01*
X-95083Y56377D01*
X-95093Y56286D01*
X-95102Y56177D01*
X-95129Y56058D01*
X-95156Y55931D01*
X-95202Y55812D01*
X-95211Y55803D01*
X-95220Y55758D01*
X-95257Y55703D01*
X-95293Y55630D01*
X-95338Y55539D01*
X-95402Y55448D01*
X-95475Y55348D01*
X-95566Y55257D01*
X-95575Y55248D01*
X-95612Y55220D01*
X-95657Y55175D01*
X-95730Y55129D01*
X-95821Y55065D01*
X-95922Y55011D01*
X-96040Y54947D01*
X-96177Y54892D01*
X-96195Y54883D01*
X-96240Y54874D01*
X-96313Y54847D01*
X-96423Y54829D01*
X-96541Y54801D01*
X-96687Y54774D01*
X-96851Y54765D01*
X-97024Y54756D01*
X-97033D01*
X-97069D01*
X-97124D01*
X-97197Y54765D01*
X-97279Y54774D01*
X-97379Y54783D01*
X-97488Y54801D01*
X-97607Y54819D01*
X-97853Y54883D01*
X-97980Y54929D01*
X-98108Y54974D01*
X-98226Y55038D01*
X-98345Y55102D01*
X-98454Y55184D01*
X-98554Y55275D01*
X-98563Y55284D01*
X-98573Y55302D01*
X-98600Y55330D01*
X-98627Y55366D01*
X-98664Y55421D01*
X-98709Y55484D01*
X-98755Y55566D01*
X-98800Y55648D01*
X-98846Y55739D01*
X-98891Y55849D01*
X-98928Y55967D01*
X-98973Y56095D01*
X-99001Y56231D01*
X-99028Y56377D01*
X-99037Y56532D01*
X-99046Y56696D01*
Y57015D01*
X-99037Y57079D01*
X-97871D01*
Y55922D01*
X-96751D01*
Y58518D01*
X-100130D01*
X-99675D01*
X-99684Y58500D01*
X-99702Y58445D01*
X-99730Y58363D01*
X-99775Y58245D01*
X-99821Y58099D01*
X-99866Y57926D01*
X-99930Y57726D01*
X-99985Y57498D01*
Y57489D01*
X-99994Y57470D01*
Y57434D01*
X-100003Y57388D01*
X-100021Y57334D01*
X-100030Y57270D01*
X-100057Y57115D01*
X-100085Y56924D01*
X-100103Y56714D01*
X-100121Y56496D01*
X-100130Y56268D01*
Y56204D01*
X-100121Y56131D01*
Y56040D01*
X-100103Y55922D01*
X-100085Y55785D01*
X-100067Y55630D01*
X-100030Y55466D01*
X-99985Y55293D01*
X-99930Y55111D01*
X-99866Y54929D01*
X-99793Y54747D01*
X-99702Y54555D01*
X-99593Y54382D01*
X-99465Y54209D01*
X-99329Y54045D01*
X-99320Y54036D01*
X-99292Y54009D01*
X-99247Y53972D01*
X-99183Y53917D01*
X-99092Y53854D01*
X-98992Y53781D01*
X-98873Y53708D01*
X-98737Y53635D01*
X-98582Y53553D01*
X-98418Y53480D01*
X-98226Y53407D01*
X-98026Y53344D01*
X-97798Y53289D01*
X-97561Y53253D01*
X-97306Y53225D01*
X-97042Y53216D01*
X-93963D01*
Y58518D01*
D02*
G37*
%LPD*%
G36*
X-96887Y69678D02*
X-96824D01*
X-96687Y69660D01*
X-96532Y69632D01*
X-96359Y69596D01*
X-96195Y69550D01*
X-96031Y69477D01*
X-96022D01*
X-96013Y69468D01*
X-95958Y69441D01*
X-95885Y69395D01*
X-95794Y69323D01*
X-95685Y69240D01*
X-95575Y69131D01*
X-95475Y69004D01*
X-95375Y68858D01*
X-95366Y68849D01*
X-95348Y68803D01*
X-95320Y68749D01*
X-95293Y68667D01*
X-95257Y68566D01*
X-95229Y68466D01*
X-95202Y68348D01*
X-95193Y68220D01*
Y68165D01*
X-95184Y68093D01*
Y67883D01*
X-95174Y67756D01*
Y67409D01*
X-98882D01*
Y68002D01*
X-98873Y68138D01*
Y68293D01*
X-98864Y68339D01*
X-98855Y68402D01*
X-98837Y68484D01*
X-98809Y68585D01*
X-98773Y68694D01*
X-98718Y68812D01*
X-98655Y68931D01*
X-98646Y68949D01*
X-98609Y68994D01*
X-98563Y69058D01*
X-98491Y69140D01*
X-98400Y69231D01*
X-98290Y69323D01*
X-98172Y69414D01*
X-98026Y69496D01*
X-98017D01*
X-98008Y69505D01*
X-97953Y69523D01*
X-97862Y69559D01*
X-97744Y69596D01*
X-97607Y69623D01*
X-97434Y69660D01*
X-97242Y69678D01*
X-97033Y69687D01*
X-97024D01*
X-97006D01*
X-96978D01*
X-96933D01*
X-96887Y69678D01*
D02*
G37*
G36*
X-95876Y60996D02*
X-100003D01*
Y63292D01*
X-95876Y60996D01*
D02*
G37*
G36*
X-93963Y53216D02*
X-96978D01*
X-96905Y53225D01*
X-96814D01*
X-96696Y53243D01*
X-96559Y53262D01*
X-96404Y53289D01*
X-96240Y53316D01*
X-96067Y53362D01*
X-95885Y53416D01*
X-95703Y53489D01*
X-95512Y53562D01*
X-95329Y53662D01*
X-95147Y53772D01*
X-94974Y53899D01*
X-94810Y54045D01*
X-94801Y54054D01*
X-94774Y54081D01*
X-94728Y54127D01*
X-94674Y54200D01*
X-94610Y54282D01*
X-94546Y54382D01*
X-94464Y54501D01*
X-94382Y54637D01*
X-94309Y54792D01*
X-94227Y54965D01*
X-94163Y55147D01*
X-94090Y55348D01*
X-94045Y55566D01*
X-93999Y55803D01*
X-93972Y56049D01*
X-93963Y56313D01*
Y53216D01*
D02*
G37*
%LPC*%
G36*
X146515Y23352D02*
X145968D01*
Y21055D01*
X143869D01*
X144525Y18518D01*
X145072D01*
X144539Y20516D01*
X145975D01*
X146508Y18518D01*
X147062D01*
X146522Y20516D01*
X147966D01*
X148498Y18518D01*
X149045D01*
X148389Y21055D01*
X146515D01*
Y23352D01*
D02*
G37*
G36*
X20924Y149041D02*
X20378D01*
Y146744D01*
X18278D01*
X18934Y144207D01*
X19481D01*
X18949Y146205D01*
X20385D01*
X20917Y144207D01*
X21471D01*
X20932Y146205D01*
X22375D01*
X22907Y144207D01*
X23454D01*
X22798Y146744D01*
X20924D01*
Y149041D01*
D02*
G37*
G36*
X-94477Y-7448D02*
Y-8678D01*
X-100334D01*
X-100325Y-8669D01*
X-100316Y-8660D01*
X-100298Y-8633D01*
X-100261Y-8596D01*
X-100225Y-8551D01*
X-100189Y-8496D01*
X-100134Y-8432D01*
X-100079Y-8359D01*
X-100025Y-8277D01*
X-99961Y-8186D01*
X-99897Y-8086D01*
X-99833Y-7977D01*
X-99697Y-7731D01*
X-99560Y-7448D01*
X-99852D01*
X-99861Y-7457D01*
X-99870Y-7476D01*
X-99897Y-7503D01*
X-99933Y-7539D01*
X-100034Y-7649D01*
X-100152Y-7776D01*
X-100298Y-7913D01*
X-100444Y-8059D01*
X-100589Y-8195D01*
X-100735Y-8323D01*
X-100753Y-8332D01*
X-100799Y-8368D01*
X-100872Y-8423D01*
X-100972Y-8496D01*
X-101091Y-8569D01*
X-101218Y-8651D01*
X-101364Y-8733D01*
X-101509Y-8806D01*
Y-8988D01*
X-101491Y-8997D01*
X-101446Y-9015D01*
X-101382Y-9052D01*
X-101291Y-9097D01*
X-101172Y-9161D01*
X-101054Y-9234D01*
X-100917Y-9325D01*
X-100772Y-9434D01*
X-100753Y-9453D01*
X-100699Y-9489D01*
X-100626Y-9562D01*
X-100516Y-9653D01*
X-100380Y-9780D01*
X-100225Y-9935D01*
X-100052Y-10108D01*
X-99861Y-10318D01*
X-101509D01*
D01*
X-94477D01*
Y-7448D01*
D02*
G37*
G36*
Y-13916D02*
D01*
Y-15146D01*
X-100334D01*
X-100325Y-15137D01*
X-100316Y-15128D01*
X-100298Y-15101D01*
X-100261Y-15064D01*
X-100225Y-15019D01*
X-100189Y-14964D01*
X-100134Y-14900D01*
X-100079Y-14827D01*
X-100025Y-14745D01*
X-99961Y-14654D01*
X-99897Y-14554D01*
X-99833Y-14445D01*
X-99697Y-14199D01*
X-99560Y-13916D01*
X-99852D01*
X-99861Y-13926D01*
X-99870Y-13944D01*
X-99897Y-13971D01*
X-99933Y-14007D01*
X-100034Y-14117D01*
X-100152Y-14244D01*
X-100298Y-14381D01*
X-100444Y-14527D01*
X-100589Y-14663D01*
X-100735Y-14791D01*
X-100753Y-14800D01*
X-100799Y-14837D01*
X-100872Y-14891D01*
X-100972Y-14964D01*
X-101091Y-15037D01*
X-101218Y-15119D01*
X-101364Y-15201D01*
X-101509Y-15274D01*
Y-15456D01*
X-101491Y-15465D01*
X-101446Y-15483D01*
X-101382Y-15520D01*
X-101291Y-15565D01*
X-101172Y-15629D01*
X-101054Y-15702D01*
X-100917Y-15793D01*
X-100772Y-15902D01*
X-100753Y-15921D01*
X-100699Y-15957D01*
X-100626Y-16030D01*
X-100516Y-16121D01*
X-100380Y-16249D01*
X-100225Y-16403D01*
X-100052Y-16577D01*
X-99861Y-16786D01*
X-99560D01*
Y-16777D01*
X-99569Y-16768D01*
X-99596Y-16713D01*
X-99642Y-16622D01*
X-99697Y-16522D01*
X-99751Y-16422D01*
X-99806Y-16312D01*
X-99870Y-16212D01*
X-99915Y-16130D01*
X-99924Y-16121D01*
X-99943Y-16094D01*
X-99970Y-16048D01*
X-100015Y-15984D01*
X-100070Y-15902D01*
X-100143Y-15811D01*
X-100234Y-15693D01*
X-100334Y-15556D01*
X-94477D01*
Y-16786D01*
D01*
Y-13916D01*
D02*
G37*
G36*
X-93875Y-17651D02*
D01*
Y-20886D01*
X-93884Y-20731D01*
X-93894Y-20558D01*
X-93912Y-20357D01*
X-93930Y-20157D01*
X-93957Y-19947D01*
Y-19920D01*
X-93967Y-19893D01*
X-93976Y-19856D01*
X-93985Y-19801D01*
X-94003Y-19747D01*
X-94039Y-19610D01*
X-94085Y-19455D01*
X-94158Y-19282D01*
X-94240Y-19100D01*
X-94349Y-18918D01*
Y-18909D01*
X-94367Y-18890D01*
X-94385Y-18863D01*
X-94413Y-18817D01*
X-94504Y-18717D01*
X-94613Y-18581D01*
X-94759Y-18435D01*
X-94932Y-18280D01*
X-95132Y-18134D01*
X-95360Y-17998D01*
X-95369D01*
X-95388Y-17979D01*
X-95424Y-17961D01*
X-95470Y-17943D01*
X-95533Y-17916D01*
X-95606Y-17888D01*
X-95688Y-17861D01*
X-95779Y-17824D01*
X-95889Y-17788D01*
X-95998Y-17761D01*
X-96253Y-17706D01*
X-96545Y-17670D01*
X-96854Y-17651D01*
X-99806D01*
X-96936D01*
X-96991Y-17661D01*
X-97064D01*
X-97155Y-17670D01*
X-97246Y-17679D01*
X-97346Y-17697D01*
X-97583Y-17743D01*
X-97829Y-17806D01*
X-98084Y-17897D01*
X-98339Y-18016D01*
X-98348D01*
X-98367Y-18034D01*
X-98403Y-18052D01*
X-98449Y-18080D01*
X-98503Y-18116D01*
X-98558Y-18162D01*
X-98704Y-18271D01*
X-98868Y-18398D01*
X-99032Y-18553D01*
X-99196Y-18736D01*
X-99341Y-18936D01*
Y-18945D01*
X-99351Y-18954D01*
X-99369Y-18981D01*
X-99387Y-19018D01*
X-99442Y-19109D01*
X-99505Y-19237D01*
X-99569Y-19382D01*
X-99633Y-19555D01*
X-99687Y-19747D01*
X-99724Y-19947D01*
Y-19974D01*
X-99733Y-20002D01*
Y-20038D01*
X-99742Y-20093D01*
X-99751Y-20148D01*
X-99760Y-20293D01*
X-99779Y-20467D01*
X-99797Y-20658D01*
X-99806Y-20876D01*
Y-22953D01*
X-93875D01*
Y-17651D01*
D02*
G37*
G36*
Y-24156D02*
X-99806D01*
Y-25586D01*
X-95679Y-27882D01*
X-99806D01*
Y-29239D01*
X-93875D01*
Y-24156D01*
D02*
G37*
G36*
X-93766Y-30360D02*
D01*
Y-32373D01*
X-93775Y-32300D01*
X-93784Y-32136D01*
X-93802Y-31936D01*
X-93830Y-31736D01*
X-93866Y-31535D01*
X-93912Y-31353D01*
Y-31344D01*
X-93921Y-31335D01*
X-93930Y-31307D01*
X-93939Y-31271D01*
X-93967Y-31180D01*
X-94012Y-31061D01*
X-94067Y-30916D01*
X-94130Y-30752D01*
X-94203Y-30569D01*
X-94294Y-30387D01*
X-95679D01*
Y-30533D01*
X-95661Y-30542D01*
X-95643Y-30569D01*
X-95615Y-30606D01*
X-95588Y-30651D01*
X-95552Y-30697D01*
X-95451Y-30834D01*
X-95442Y-30843D01*
X-95424Y-30870D01*
X-95397Y-30907D01*
X-95360Y-30961D01*
X-95278Y-31080D01*
X-95187Y-31225D01*
X-95178Y-31234D01*
X-95169Y-31262D01*
X-95142Y-31317D01*
X-95114Y-31371D01*
X-95078Y-31453D01*
X-95041Y-31544D01*
X-95005Y-31635D01*
X-94969Y-31745D01*
Y-31754D01*
X-94950Y-31799D01*
X-94941Y-31854D01*
X-94923Y-31927D01*
X-94905Y-32027D01*
X-94896Y-32127D01*
X-94877Y-32246D01*
Y-32428D01*
X-94887Y-32501D01*
X-94896Y-32592D01*
X-94905Y-32701D01*
X-94932Y-32820D01*
X-94959Y-32947D01*
X-95005Y-33066D01*
X-95014Y-33075D01*
X-95023Y-33120D01*
X-95060Y-33175D01*
X-95096Y-33248D01*
X-95142Y-33339D01*
X-95205Y-33430D01*
X-95278Y-33530D01*
X-95369Y-33621D01*
X-95379Y-33630D01*
X-95415Y-33658D01*
X-95460Y-33703D01*
X-95533Y-33749D01*
X-95625Y-33813D01*
X-95725Y-33867D01*
X-95843Y-33931D01*
X-95980Y-33986D01*
X-95998Y-33995D01*
X-96043Y-34004D01*
X-96116Y-34031D01*
X-96226Y-34049D01*
X-96344Y-34077D01*
X-96490Y-34104D01*
X-96654Y-34113D01*
X-96827Y-34122D01*
X-96836D01*
X-96873D01*
X-96927D01*
X-97000Y-34113D01*
X-97082Y-34104D01*
X-97182Y-34095D01*
X-97292Y-34077D01*
X-97410Y-34059D01*
X-97656Y-33995D01*
X-97784Y-33949D01*
X-97911Y-33904D01*
X-98030Y-33840D01*
X-98148Y-33776D01*
X-98257Y-33694D01*
X-98357Y-33603D01*
X-98367Y-33594D01*
X-98376Y-33576D01*
X-98403Y-33548D01*
X-98430Y-33512D01*
X-98467Y-33457D01*
X-98512Y-33393D01*
X-98558Y-33312D01*
X-98603Y-33230D01*
X-98649Y-33138D01*
X-98695Y-33029D01*
X-98731Y-32911D01*
X-98777Y-32783D01*
X-98804Y-32647D01*
X-98831Y-32501D01*
X-98840Y-32346D01*
X-98849Y-32182D01*
Y-31863D01*
X-98840Y-31799D01*
X-97674D01*
Y-32956D01*
X-96554D01*
Y-30360D01*
X-99478D01*
X-99487Y-30378D01*
X-99505Y-30433D01*
X-99533Y-30515D01*
X-99578Y-30633D01*
X-99624Y-30779D01*
X-99669Y-30952D01*
X-99733Y-31152D01*
X-99788Y-31380D01*
Y-31389D01*
X-99797Y-31408D01*
Y-31444D01*
X-99806Y-31490D01*
X-99824Y-31544D01*
X-99833Y-31608D01*
X-99861Y-31763D01*
X-99888Y-31954D01*
X-99906Y-32164D01*
X-99924Y-32382D01*
X-99933Y-32610D01*
Y-32674D01*
X-99924Y-32747D01*
Y-32838D01*
X-99906Y-32956D01*
X-99888Y-33093D01*
X-99870Y-33248D01*
X-99833Y-33412D01*
X-99788Y-33585D01*
X-99733Y-33767D01*
X-99669Y-33949D01*
X-99596Y-34132D01*
X-99505Y-34323D01*
X-99396Y-34496D01*
X-99269Y-34669D01*
X-99132Y-34833D01*
X-99123Y-34842D01*
X-99095Y-34869D01*
X-99050Y-34906D01*
X-98986Y-34960D01*
X-98895Y-35024D01*
X-98795Y-35097D01*
X-98676Y-35170D01*
X-98540Y-35243D01*
X-98385Y-35325D01*
X-98221Y-35398D01*
X-98030Y-35471D01*
X-97829Y-35534D01*
X-97601Y-35589D01*
X-97364Y-35625D01*
X-97109Y-35653D01*
X-96845Y-35662D01*
X-99933D01*
D01*
X-93766D01*
Y-30360D01*
D02*
G37*
%LPD*%
G36*
X-94477Y-10318D02*
X-99560D01*
Y-10309D01*
X-99569Y-10300D01*
X-99596Y-10245D01*
X-99642Y-10154D01*
X-99697Y-10054D01*
X-99751Y-9954D01*
X-99806Y-9844D01*
X-99870Y-9744D01*
X-99915Y-9662D01*
X-99924Y-9653D01*
X-99943Y-9625D01*
X-99970Y-9580D01*
X-100015Y-9516D01*
X-100070Y-9434D01*
X-100143Y-9343D01*
X-100234Y-9225D01*
X-100334Y-9088D01*
X-94477D01*
Y-10318D01*
D02*
G37*
G36*
X-96690Y-19200D02*
X-96627D01*
X-96490Y-19218D01*
X-96335Y-19246D01*
X-96162Y-19282D01*
X-95998Y-19328D01*
X-95834Y-19401D01*
X-95825D01*
X-95816Y-19410D01*
X-95761Y-19437D01*
X-95688Y-19483D01*
X-95597Y-19555D01*
X-95488Y-19637D01*
X-95379Y-19747D01*
X-95278Y-19874D01*
X-95178Y-20020D01*
X-95169Y-20029D01*
X-95151Y-20075D01*
X-95123Y-20129D01*
X-95096Y-20211D01*
X-95060Y-20312D01*
X-95032Y-20412D01*
X-95005Y-20530D01*
X-94996Y-20658D01*
Y-20712D01*
X-94987Y-20785D01*
Y-20995D01*
X-94978Y-21122D01*
Y-21468D01*
X-98685D01*
Y-20876D01*
X-98676Y-20740D01*
Y-20585D01*
X-98667Y-20539D01*
X-98658Y-20476D01*
X-98640Y-20394D01*
X-98613Y-20293D01*
X-98576Y-20184D01*
X-98522Y-20066D01*
X-98458Y-19947D01*
X-98449Y-19929D01*
X-98412Y-19883D01*
X-98367Y-19820D01*
X-98294Y-19738D01*
X-98203Y-19647D01*
X-98093Y-19555D01*
X-97975Y-19464D01*
X-97829Y-19382D01*
X-97820D01*
X-97811Y-19373D01*
X-97756Y-19355D01*
X-97665Y-19319D01*
X-97547Y-19282D01*
X-97410Y-19255D01*
X-97237Y-19218D01*
X-97046Y-19200D01*
X-96836Y-19191D01*
X-96827D01*
X-96809D01*
X-96781D01*
X-96736D01*
X-96690Y-19200D01*
D02*
G37*
G36*
X-93875Y-27417D02*
X-97273Y-25513D01*
X-93875D01*
Y-27417D01*
D02*
G37*
G36*
X-93766Y-35662D02*
X-96781D01*
X-96709Y-35653D01*
X-96618D01*
X-96499Y-35635D01*
X-96362Y-35616D01*
X-96207Y-35589D01*
X-96043Y-35562D01*
X-95871Y-35516D01*
X-95688Y-35462D01*
X-95506Y-35389D01*
X-95315Y-35316D01*
X-95132Y-35215D01*
X-94950Y-35106D01*
X-94777Y-34979D01*
X-94613Y-34833D01*
X-94604Y-34824D01*
X-94577Y-34797D01*
X-94531Y-34751D01*
X-94477Y-34678D01*
X-94413Y-34596D01*
X-94349Y-34496D01*
X-94267Y-34377D01*
X-94185Y-34241D01*
X-94112Y-34086D01*
X-94030Y-33913D01*
X-93967Y-33731D01*
X-93894Y-33530D01*
X-93848Y-33312D01*
X-93802Y-33075D01*
X-93775Y-32829D01*
X-93766Y-32564D01*
Y-35662D01*
D02*
G37*
%LPC*%
G36*
X-15761Y-102585D02*
X-15859D01*
X-15936Y-102595D01*
X-16023D01*
X-16122Y-102606D01*
X-16351Y-102639D01*
X-16614Y-102683D01*
X-16865Y-102759D01*
X-17116Y-102869D01*
X-17226Y-102934D01*
X-17324Y-103011D01*
X-17335D01*
X-17346Y-103033D01*
X-17401Y-103087D01*
X-17488Y-103175D01*
X-17586Y-103306D01*
X-17674Y-103459D01*
X-17761Y-103634D01*
X-17816Y-103831D01*
X-17838Y-103940D01*
Y-102585D01*
D01*
D01*
Y-108334D01*
D01*
Y-104148D01*
X-17827Y-104213D01*
Y-104290D01*
X-17816Y-104377D01*
X-17783Y-104585D01*
Y-104596D01*
X-17772Y-104650D01*
X-17761Y-104683D01*
Y-104738D01*
X-17739Y-104792D01*
X-17729Y-104869D01*
X-17707Y-104956D01*
X-17685Y-105066D01*
X-17663Y-105186D01*
X-17641Y-105317D01*
X-17608Y-105470D01*
X-17564Y-105645D01*
X-17521Y-105842D01*
X-17477Y-106049D01*
Y-106060D01*
X-17466Y-106093D01*
X-17455Y-106137D01*
X-17444Y-106202D01*
X-17433Y-106290D01*
X-17412Y-106377D01*
X-17379Y-106585D01*
X-17335Y-106815D01*
X-17302Y-107033D01*
X-17280Y-107241D01*
X-17269Y-107339D01*
Y-107416D01*
Y-107427D01*
Y-107481D01*
X-17280Y-107547D01*
Y-107645D01*
X-17302Y-107754D01*
X-17324Y-107886D01*
X-17346Y-108039D01*
X-17390Y-108192D01*
X-15958D01*
Y-108181D01*
X-15947Y-108137D01*
X-15925Y-108082D01*
X-15903Y-108006D01*
X-15892Y-107907D01*
X-15870Y-107809D01*
X-15848Y-107580D01*
X-15838Y-107590D01*
X-15794Y-107634D01*
X-15717Y-107700D01*
X-15630Y-107787D01*
X-15521Y-107875D01*
X-15390Y-107962D01*
X-15247Y-108061D01*
X-15094Y-108137D01*
X-15073Y-108148D01*
X-15018Y-108170D01*
X-14941Y-108203D01*
X-14832Y-108235D01*
X-14701Y-108268D01*
X-14559Y-108301D01*
X-14406Y-108323D01*
X-14242Y-108334D01*
X-14176D01*
X-14132Y-108323D01*
X-14001Y-108312D01*
X-13848Y-108279D01*
X-13674Y-108224D01*
X-13477Y-108148D01*
X-13291Y-108039D01*
X-13116Y-107896D01*
X-13094Y-107875D01*
X-13050Y-107820D01*
X-12974Y-107722D01*
X-12897Y-107580D01*
X-12821Y-107416D01*
X-12744Y-107219D01*
X-12701Y-106989D01*
X-12679Y-106738D01*
Y-106661D01*
X-12690Y-106607D01*
Y-106541D01*
X-12701Y-106465D01*
X-12744Y-106290D01*
X-12799Y-106082D01*
X-12887Y-105875D01*
X-13007Y-105667D01*
X-13072Y-105569D01*
X-13160Y-105481D01*
X-13171Y-105470D01*
X-13182Y-105459D01*
X-13214Y-105437D01*
X-13258Y-105404D01*
X-13313Y-105372D01*
X-13378Y-105328D01*
X-13466Y-105284D01*
X-13564Y-105230D01*
X-13674Y-105186D01*
X-13805Y-105131D01*
X-13947Y-105087D01*
X-14111Y-105044D01*
X-14286Y-105000D01*
X-14471Y-104967D01*
X-14679Y-104935D01*
X-14909Y-104913D01*
X-14952D01*
X-15007Y-104902D01*
X-15083D01*
X-15160Y-104891D01*
X-15258Y-104880D01*
X-15477Y-104847D01*
X-15717Y-104825D01*
X-15947Y-104781D01*
X-16056Y-104760D01*
X-16155Y-104738D01*
X-16242Y-104716D01*
X-16319Y-104694D01*
Y-104683D01*
X-16329Y-104639D01*
X-16351Y-104585D01*
X-16373Y-104519D01*
X-16406Y-104355D01*
X-16417Y-104279D01*
Y-104202D01*
Y-104191D01*
Y-104158D01*
X-16406Y-104126D01*
X-16395Y-104071D01*
X-16373Y-104006D01*
X-16329Y-103940D01*
X-16286Y-103874D01*
X-16220Y-103809D01*
X-16209Y-103798D01*
X-16187Y-103787D01*
X-16144Y-103754D01*
X-16078Y-103721D01*
X-15991Y-103699D01*
X-15903Y-103667D01*
X-15783Y-103656D01*
X-15652Y-103645D01*
X-15586D01*
X-15510Y-103656D01*
X-15422Y-103667D01*
X-15324Y-103689D01*
X-15215Y-103710D01*
X-15116Y-103754D01*
X-15018Y-103809D01*
X-15007Y-103820D01*
X-14985Y-103841D01*
X-14941Y-103874D01*
X-14898Y-103929D01*
X-14843Y-103995D01*
X-14788Y-104071D01*
X-14745Y-104158D01*
X-14712Y-104257D01*
X-13269Y-104137D01*
Y-104126D01*
X-13280Y-104104D01*
X-13291Y-104071D01*
X-13313Y-104016D01*
X-13378Y-103885D01*
X-13466Y-103721D01*
X-13586Y-103546D01*
X-13728Y-103350D01*
X-13914Y-103164D01*
X-14122Y-103000D01*
X-14132D01*
X-14154Y-102978D01*
X-14187Y-102956D01*
X-14231Y-102934D01*
X-14297Y-102901D01*
X-14373Y-102869D01*
X-14460Y-102836D01*
X-14559Y-102792D01*
X-14668Y-102749D01*
X-14799Y-102716D01*
X-14930Y-102683D01*
X-15073Y-102650D01*
X-15400Y-102606D01*
X-15761Y-102585D01*
D02*
G37*
G36*
X-18319D02*
X-21729D01*
X-21805Y-102595D01*
X-21893D01*
X-21991Y-102606D01*
X-22232Y-102628D01*
X-22483Y-102683D01*
X-22756Y-102749D01*
X-23008Y-102847D01*
X-23117Y-102912D01*
X-23226Y-102978D01*
X-23237D01*
X-23248Y-103000D01*
X-23314Y-103044D01*
X-23412Y-103131D01*
X-23521Y-103251D01*
X-23642Y-103404D01*
X-23751Y-103579D01*
X-23849Y-103787D01*
X-23926Y-104027D01*
Y-102585D01*
X-21815D01*
X-23926D01*
Y-108334D01*
D01*
Y-104027D01*
D01*
D01*
D01*
X-22559Y-104257D01*
Y-104246D01*
X-22538Y-104213D01*
X-22516Y-104158D01*
X-22472Y-104093D01*
X-22428Y-104016D01*
X-22363Y-103951D01*
X-22286Y-103874D01*
X-22199Y-103820D01*
X-22188Y-103809D01*
X-22144Y-103787D01*
X-22068Y-103754D01*
X-21980Y-103710D01*
X-21860Y-103678D01*
X-21729Y-103645D01*
X-21576Y-103623D01*
X-21401Y-103612D01*
X-21325D01*
X-21237Y-103623D01*
X-21139Y-103634D01*
X-21029Y-103656D01*
X-20920Y-103678D01*
X-20811Y-103721D01*
X-20723Y-103776D01*
X-20712Y-103787D01*
X-20691Y-103798D01*
X-20658Y-103831D01*
X-20625Y-103874D01*
X-20559Y-103984D01*
X-20538Y-104049D01*
X-20527Y-104126D01*
Y-104137D01*
Y-104158D01*
X-20538Y-104202D01*
X-20548Y-104246D01*
X-20570Y-104301D01*
X-20614Y-104355D01*
X-20658Y-104410D01*
X-20723Y-104464D01*
X-20734D01*
X-20756Y-104486D01*
X-20800Y-104508D01*
X-20876Y-104530D01*
X-20986Y-104574D01*
X-21051Y-104596D01*
X-21139Y-104629D01*
X-21226Y-104650D01*
X-21325Y-104683D01*
X-21434Y-104727D01*
X-21565Y-104760D01*
X-21576D01*
X-21609Y-104771D01*
X-21663Y-104792D01*
X-21740Y-104814D01*
X-21827Y-104847D01*
X-21926Y-104880D01*
X-22155Y-104956D01*
X-22396Y-105044D01*
X-22636Y-105153D01*
X-22745Y-105208D01*
X-22855Y-105262D01*
X-22942Y-105317D01*
X-23019Y-105372D01*
X-23030D01*
X-23041Y-105394D01*
X-23106Y-105448D01*
X-23183Y-105547D01*
X-23281Y-105667D01*
X-23379Y-105820D01*
X-23467Y-105995D01*
X-23521Y-106192D01*
X-23532Y-106301D01*
X-23543Y-106410D01*
Y-106421D01*
Y-106443D01*
Y-106487D01*
X-23532Y-106541D01*
X-23521Y-106607D01*
X-23510Y-106683D01*
X-23456Y-106869D01*
X-23379Y-107077D01*
X-23325Y-107197D01*
X-23259Y-107306D01*
X-23183Y-107427D01*
X-23095Y-107536D01*
X-22997Y-107656D01*
X-22876Y-107765D01*
X-22866Y-107776D01*
X-22844Y-107787D01*
X-22811Y-107820D01*
X-22756Y-107853D01*
X-22691Y-107896D01*
X-22603Y-107940D01*
X-22505Y-107995D01*
X-22396Y-108050D01*
X-22275Y-108104D01*
X-22133Y-108159D01*
X-21991Y-108203D01*
X-21816Y-108246D01*
X-21641Y-108279D01*
X-21456Y-108312D01*
X-21248Y-108323D01*
X-21029Y-108334D01*
X-20920D01*
X-20833Y-108323D01*
X-20734D01*
X-20614Y-108312D01*
X-20494Y-108301D01*
X-20352Y-108279D01*
X-20057Y-108224D01*
X-19750Y-108159D01*
X-19455Y-108050D01*
X-19324Y-107984D01*
X-19193Y-107907D01*
X-19182D01*
X-19160Y-107886D01*
X-19128Y-107864D01*
X-19084Y-107831D01*
X-18974Y-107722D01*
X-18843Y-107590D01*
X-18701Y-107416D01*
X-18548Y-107197D01*
X-18417Y-106957D01*
X-18319Y-106672D01*
X-19750Y-106443D01*
X-19761Y-106465D01*
X-19783Y-106519D01*
X-19827Y-106596D01*
X-19882Y-106694D01*
X-19947Y-106804D01*
X-20024Y-106913D01*
X-20122Y-107011D01*
X-20221Y-107088D01*
X-20232Y-107099D01*
X-20275Y-107121D01*
X-20341Y-107142D01*
X-20428Y-107175D01*
X-20538Y-107219D01*
X-20669Y-107241D01*
X-20822Y-107263D01*
X-20997Y-107273D01*
X-21084D01*
X-21171Y-107263D01*
X-21292Y-107241D01*
X-21423Y-107219D01*
X-21565Y-107186D01*
X-21696Y-107131D01*
X-21816Y-107055D01*
X-21827Y-107044D01*
X-21849Y-107022D01*
X-21882Y-106989D01*
X-21926Y-106946D01*
X-22002Y-106825D01*
X-22024Y-106760D01*
X-22035Y-106672D01*
Y-106661D01*
Y-106650D01*
X-22024Y-106585D01*
X-21991Y-106498D01*
X-21926Y-106410D01*
X-21915Y-106399D01*
X-21904Y-106388D01*
X-21860Y-106366D01*
X-21805Y-106333D01*
X-21718Y-106290D01*
X-21609Y-106235D01*
X-21477Y-106181D01*
X-21303Y-106126D01*
X-21292D01*
X-21248Y-106104D01*
X-21171Y-106082D01*
X-21084Y-106049D01*
X-20986Y-106017D01*
X-20865Y-105973D01*
X-20592Y-105875D01*
X-20308Y-105754D01*
X-20035Y-105645D01*
X-19904Y-105579D01*
X-19794Y-105525D01*
X-19707Y-105470D01*
X-19630Y-105426D01*
X-19608Y-105404D01*
X-19554Y-105350D01*
X-19477Y-105262D01*
X-19390Y-105142D01*
X-19291Y-104989D01*
X-19215Y-104803D01*
X-19160Y-104596D01*
X-19149Y-104486D01*
X-19139Y-104366D01*
Y-104355D01*
Y-104333D01*
Y-104301D01*
X-19149Y-104257D01*
X-19160Y-104137D01*
X-19204Y-103984D01*
X-19259Y-103809D01*
X-19346Y-103623D01*
X-19466Y-103437D01*
X-19532Y-103339D01*
X-19619Y-103251D01*
X-19630Y-103240D01*
X-19652Y-103218D01*
X-19696Y-103186D01*
X-19750Y-103142D01*
X-19816Y-103098D01*
X-19904Y-103044D01*
X-20002Y-102978D01*
X-20122Y-102912D01*
X-20264Y-102858D01*
X-20406Y-102792D01*
X-20570Y-102738D01*
X-20756Y-102683D01*
X-20953Y-102650D01*
X-21160Y-102617D01*
X-21390Y-102595D01*
X-21631Y-102585D01*
X-18319D01*
D02*
G37*
G36*
X-27576Y-100814D02*
X-27194Y-102705D01*
X-28101D01*
X-27872Y-103809D01*
X-26964D01*
X-26483Y-106126D01*
Y-106137D01*
Y-106148D01*
X-26472Y-106181D01*
X-26462Y-106224D01*
X-26440Y-106323D01*
X-26418Y-106443D01*
X-26396Y-106574D01*
X-26374Y-106683D01*
X-26363Y-106782D01*
X-26352Y-106815D01*
Y-106836D01*
Y-106847D01*
Y-106858D01*
X-26363Y-106935D01*
X-26396Y-107011D01*
X-26451Y-107099D01*
X-26462D01*
X-26472Y-107110D01*
X-26505Y-107131D01*
X-26538Y-107142D01*
X-26593Y-107164D01*
X-26669Y-107186D01*
X-26757Y-107197D01*
X-26910D01*
X-26953Y-107186D01*
X-27019D01*
X-27106Y-107175D01*
X-27216Y-107164D01*
X-27347Y-107153D01*
X-27117Y-108246D01*
X-27095D01*
X-27052Y-108257D01*
X-26975Y-108268D01*
X-26877Y-108290D01*
X-26757Y-108301D01*
X-26625Y-108323D01*
X-26330Y-108334D01*
X-26199D01*
X-26134Y-108323D01*
X-26068D01*
X-25893Y-108301D01*
X-25707Y-108257D01*
X-25511Y-108213D01*
X-25336Y-108137D01*
X-25183Y-108039D01*
X-25172Y-108028D01*
X-25128Y-107984D01*
X-25073Y-107907D01*
X-25008Y-107820D01*
X-24942Y-107700D01*
X-24888Y-107547D01*
X-24844Y-107383D01*
X-24833Y-107186D01*
Y-107175D01*
Y-107131D01*
X-24844Y-107055D01*
X-24855Y-106946D01*
X-24866Y-106869D01*
X-24877Y-106793D01*
X-24899Y-106694D01*
X-24920Y-106585D01*
X-24942Y-106465D01*
X-24964Y-106333D01*
X-24997Y-106181D01*
X-25030Y-106017D01*
X-25500Y-103809D01*
X-24767D01*
D01*
X-24997Y-102705D01*
X-25718D01*
X-25893Y-101830D01*
X-27576Y-100814D01*
D02*
G37*
G36*
X-28101D02*
D01*
Y-102585D01*
X-33358D01*
Y-108334D01*
D01*
Y-105153D01*
X-33347Y-105273D01*
X-33336Y-105426D01*
X-33315Y-105590D01*
X-33249Y-105918D01*
X-29533D01*
Y-105929D01*
Y-105973D01*
X-29522Y-106017D01*
Y-106060D01*
Y-106071D01*
Y-106082D01*
Y-106148D01*
X-29544Y-106246D01*
X-29566Y-106377D01*
X-29599Y-106519D01*
X-29653Y-106661D01*
X-29730Y-106815D01*
X-29828Y-106946D01*
X-29839Y-106957D01*
X-29883Y-107000D01*
X-29948Y-107044D01*
X-30047Y-107110D01*
X-30156Y-107164D01*
X-30287Y-107219D01*
X-30440Y-107263D01*
X-30604Y-107273D01*
X-30681D01*
X-30724Y-107263D01*
X-30790Y-107252D01*
X-30866Y-107230D01*
X-31030Y-107175D01*
X-31118Y-107142D01*
X-31216Y-107088D01*
X-31315Y-107022D01*
X-31402Y-106946D01*
X-31500Y-106858D01*
X-31599Y-106760D01*
X-31686Y-106640D01*
X-31763Y-106508D01*
X-33085Y-106727D01*
Y-106738D01*
X-33063Y-106760D01*
X-33041Y-106804D01*
X-33009Y-106858D01*
X-32976Y-106924D01*
X-32921Y-107000D01*
X-32812Y-107186D01*
X-32659Y-107383D01*
X-32473Y-107580D01*
X-32265Y-107776D01*
X-32036Y-107940D01*
X-32025D01*
X-32003Y-107962D01*
X-31970Y-107973D01*
X-31927Y-108006D01*
X-31861Y-108028D01*
X-31795Y-108061D01*
X-31610Y-108137D01*
X-31402Y-108213D01*
X-31150Y-108268D01*
X-30888Y-108312D01*
X-30593Y-108334D01*
X-30484D01*
X-30407Y-108323D01*
X-30309Y-108312D01*
X-30200Y-108301D01*
X-30079Y-108279D01*
X-29948Y-108246D01*
X-29664Y-108159D01*
X-29511Y-108104D01*
X-29358Y-108039D01*
X-29216Y-107962D01*
X-29063Y-107864D01*
X-28921Y-107754D01*
X-28790Y-107634D01*
X-28779Y-107623D01*
X-28757Y-107601D01*
X-28724Y-107558D01*
X-28680Y-107503D01*
X-28626Y-107438D01*
X-28571Y-107350D01*
X-28506Y-107252D01*
X-28451Y-107142D01*
X-28385Y-107011D01*
X-28320Y-106880D01*
X-28265Y-106727D01*
X-28210Y-106563D01*
X-28167Y-106388D01*
X-28134Y-106192D01*
X-28112Y-105995D01*
X-28101Y-105787D01*
Y-105776D01*
Y-105732D01*
Y-105678D01*
X-28112Y-105601D01*
X-28123Y-105503D01*
X-28134Y-105383D01*
X-28156Y-105252D01*
X-28178Y-105109D01*
X-28254Y-104803D01*
X-28309Y-104639D01*
X-28363Y-104464D01*
X-28440Y-104290D01*
X-28516Y-104115D01*
X-28615Y-103940D01*
X-28724Y-103776D01*
X-28735Y-103765D01*
X-28768Y-103721D01*
X-28811Y-103667D01*
X-28877Y-103590D01*
X-28975Y-103503D01*
X-29074Y-103393D01*
X-29205Y-103295D01*
X-29347Y-103175D01*
X-29511Y-103066D01*
X-29697Y-102956D01*
X-29894Y-102858D01*
X-30112Y-102770D01*
X-30342Y-102694D01*
X-30593Y-102639D01*
X-30866Y-102595D01*
X-31150Y-102585D01*
X-28101D01*
Y-100814D01*
D01*
D02*
G37*
G36*
X38277Y-100628D02*
X31194D01*
Y-102585D01*
X26571D01*
Y-108334D01*
D01*
Y-105153D01*
X26582Y-105273D01*
X26593Y-105426D01*
X26614Y-105590D01*
X26680Y-105918D01*
X30396D01*
Y-105929D01*
Y-105973D01*
X30407Y-106017D01*
Y-106060D01*
Y-106071D01*
Y-106082D01*
Y-106148D01*
X30385Y-106246D01*
X30364Y-106377D01*
X30331Y-106519D01*
X30276Y-106661D01*
X30200Y-106815D01*
X30101Y-106946D01*
X30090Y-106957D01*
X30046Y-107000D01*
X29981Y-107044D01*
X29883Y-107110D01*
X29773Y-107164D01*
X29642Y-107219D01*
X29489Y-107263D01*
X29325Y-107273D01*
X29249D01*
X29205Y-107263D01*
X29139Y-107252D01*
X29063Y-107230D01*
X28899Y-107175D01*
X28811Y-107142D01*
X28713Y-107088D01*
X28615Y-107022D01*
X28527Y-106946D01*
X28429Y-106858D01*
X28330Y-106760D01*
X28243Y-106640D01*
X28167Y-106508D01*
X26844Y-106727D01*
Y-106738D01*
X26866Y-106760D01*
X26888Y-106804D01*
X26921Y-106858D01*
X26953Y-106924D01*
X27008Y-107000D01*
X27117Y-107186D01*
X27270Y-107383D01*
X27456Y-107580D01*
X27664Y-107776D01*
X27893Y-107940D01*
X27904D01*
X27926Y-107962D01*
X27959Y-107973D01*
X28003Y-108006D01*
X28068Y-108028D01*
X28134Y-108061D01*
X28320Y-108137D01*
X28527Y-108213D01*
X28779Y-108268D01*
X29041Y-108312D01*
X29336Y-108334D01*
X29445D01*
X29522Y-108323D01*
X29620Y-108312D01*
X29730Y-108301D01*
X29850Y-108279D01*
X29981Y-108246D01*
X30265Y-108159D01*
X30418Y-108104D01*
X30571Y-108039D01*
X30713Y-107962D01*
X30866Y-107864D01*
X31008Y-107754D01*
X31139Y-107634D01*
X31150Y-107623D01*
X31172Y-107601D01*
X31194Y-107572D01*
X31205Y-107558D01*
X31249Y-107503D01*
X31304Y-107438D01*
X31358Y-107350D01*
X31424Y-107252D01*
X31462Y-107175D01*
X31478Y-107142D01*
X31489Y-107121D01*
D01*
X31495Y-107110D01*
X31528Y-107044D01*
D01*
D01*
X31539Y-107022D01*
D01*
X31544Y-107011D01*
D01*
D01*
X31609Y-106880D01*
X31664Y-106727D01*
X31719Y-106563D01*
X31762Y-106388D01*
X31795Y-106192D01*
X31817Y-105995D01*
X31828Y-105787D01*
Y-105776D01*
Y-105732D01*
Y-105678D01*
X31817Y-105601D01*
X31806Y-105503D01*
X31795Y-105383D01*
X31773Y-105252D01*
X31752Y-105109D01*
X31675Y-104803D01*
X31620Y-104639D01*
X31566Y-104464D01*
X31489Y-104290D01*
X31413Y-104115D01*
D01*
X31394Y-104082D01*
D01*
X31382Y-104060D01*
X31376Y-104049D01*
D01*
D01*
X31314Y-103940D01*
D01*
D01*
D01*
X31293Y-103907D01*
D01*
D01*
X31271Y-103874D01*
D01*
D01*
X31220Y-103798D01*
D01*
X31212Y-103787D01*
X31205Y-103776D01*
D01*
D01*
X31194Y-103765D01*
X31161Y-103721D01*
X31118Y-103667D01*
X31052Y-103590D01*
X30954Y-103503D01*
X30855Y-103393D01*
X30724Y-103295D01*
X30582Y-103175D01*
X30418Y-103066D01*
X30232Y-102956D01*
X30036Y-102858D01*
X29817Y-102770D01*
X29588Y-102694D01*
X29336Y-102639D01*
X29063Y-102595D01*
X28779Y-102585D01*
X31194D01*
Y-100628D01*
X34670Y-105394D01*
X35260Y-108192D01*
X31828D01*
X36801D01*
X36189Y-105240D01*
X38277Y-100628D01*
D01*
D02*
G37*
G36*
X15685D02*
X9695Y-100628D01*
Y-108192D01*
D01*
Y-100628D01*
X11280Y-108192D01*
X13905Y-108192D01*
X12712Y-108192D01*
X14766Y-103109D01*
X15837Y-108192D01*
X17269D01*
D01*
X15685Y-100628D01*
D02*
G37*
G36*
X-557Y-100628D02*
X-6777D01*
Y-102585D01*
X-9629D01*
X-9706Y-102595D01*
X-9815Y-102606D01*
X-9924Y-102617D01*
X-10056Y-102639D01*
X-10198Y-102672D01*
X-10504Y-102749D01*
X-10657Y-102803D01*
X-10821Y-102869D01*
X-10974Y-102945D01*
X-11127Y-103044D01*
X-11269Y-103142D01*
X-11400Y-103262D01*
X-11411Y-103273D01*
X-11433Y-103295D01*
X-11466Y-103328D01*
X-11509Y-103382D01*
X-11564Y-103448D01*
X-11619Y-103535D01*
X-11684Y-103623D01*
X-11750Y-103732D01*
X-11804Y-103863D01*
X-11870Y-103995D01*
X-11925Y-104148D01*
X-11979Y-104301D01*
X-12023Y-104475D01*
X-12056Y-104661D01*
X-12078Y-104858D01*
X-12089Y-105066D01*
Y-102585D01*
D01*
D01*
Y-108334D01*
D01*
Y-105197D01*
X-12078Y-105284D01*
X-12067Y-105404D01*
X-12045Y-105536D01*
X-12012Y-105689D01*
X-11979Y-105853D01*
X-11936Y-106027D01*
X-11881Y-106213D01*
X-11815Y-106410D01*
X-11728Y-106596D01*
X-11630Y-106793D01*
X-11520Y-106989D01*
X-11389Y-107186D01*
X-11236Y-107372D01*
X-11225Y-107383D01*
X-11192Y-107416D01*
X-11149Y-107459D01*
X-11083Y-107525D01*
X-10996Y-107590D01*
X-10886Y-107678D01*
X-10766Y-107765D01*
X-10635Y-107853D01*
X-10471Y-107940D01*
X-10307Y-108028D01*
X-10121Y-108115D01*
X-9913Y-108181D01*
X-9695Y-108246D01*
X-9465Y-108290D01*
X-9214Y-108323D01*
X-8952Y-108334D01*
X-12089D01*
X-6394D01*
X-8821D01*
X-8755Y-108323D01*
X-8678Y-108312D01*
X-8493Y-108290D01*
X-8274Y-108257D01*
X-8044Y-108203D01*
X-7804Y-108126D01*
X-7575Y-108028D01*
X-7564D01*
X-7553Y-108017D01*
X-7520Y-107995D01*
X-7476Y-107973D01*
X-7367Y-107896D01*
X-7236Y-107798D01*
X-7094Y-107678D01*
X-6941Y-107525D01*
X-6798Y-107350D01*
X-6678Y-107153D01*
Y-107142D01*
X-6667Y-107131D01*
X-6656Y-107099D01*
X-6634Y-107055D01*
X-6591Y-106935D01*
X-6536Y-106782D01*
X-6481Y-106607D01*
X-6438Y-106399D01*
X-6405Y-106170D01*
X-6394Y-105929D01*
Y-105907D01*
Y-105864D01*
X-6405Y-105787D01*
Y-105678D01*
X-6416Y-105547D01*
X-6438Y-105404D01*
X-6471Y-105230D01*
X-6503Y-105055D01*
X-6547Y-104869D01*
X-6602Y-104672D01*
X-6667Y-104464D01*
X-6755Y-104268D01*
X-6777Y-104222D01*
X-6853Y-104060D01*
X-6962Y-103863D01*
X-7094Y-103678D01*
X-7247Y-103503D01*
X-7258Y-103492D01*
X-7290Y-103459D01*
X-7334Y-103415D01*
X-7400Y-103361D01*
X-7487Y-103284D01*
X-7596Y-103208D01*
X-7717Y-103131D01*
X-7859Y-103044D01*
X-8012Y-102956D01*
X-8176Y-102880D01*
X-8361Y-102792D01*
X-8569Y-102727D01*
X-8777Y-102672D01*
X-9006Y-102628D01*
X-9258Y-102595D01*
X-9509Y-102585D01*
X-6777D01*
Y-100628D01*
X-6525Y-101896D01*
X-4317D01*
X-3006Y-108192D01*
X-1454D01*
X-2765Y-101896D01*
X-557D01*
D01*
X-809Y-100628D01*
X-557D01*
D01*
D02*
G37*
G36*
X-37687Y-102585D02*
X-38375D01*
Y-108192D01*
D01*
Y-102585D01*
X-37741D01*
X-37807Y-102595D01*
X-37894Y-102606D01*
X-37993Y-102628D01*
X-38113Y-102650D01*
X-38244Y-102694D01*
X-38375Y-102749D01*
X-37807Y-103962D01*
X-37796D01*
X-37774Y-103951D01*
X-37730Y-103940D01*
X-37676Y-103918D01*
X-37534Y-103896D01*
X-37370Y-103885D01*
X-37304D01*
X-37228Y-103896D01*
X-37129Y-103918D01*
X-37009Y-103962D01*
X-36878Y-104006D01*
X-36736Y-104082D01*
X-36583Y-104180D01*
X-36561Y-104191D01*
X-36517Y-104235D01*
X-36452Y-104301D01*
X-36364Y-104377D01*
X-36266Y-104486D01*
X-36156Y-104618D01*
X-36058Y-104771D01*
X-35971Y-104945D01*
X-35960Y-104967D01*
X-35949Y-105000D01*
X-35938Y-105033D01*
X-35916Y-105087D01*
X-35894Y-105153D01*
X-35861Y-105230D01*
X-35840Y-105317D01*
X-35807Y-105415D01*
X-35763Y-105525D01*
X-35730Y-105656D01*
X-35697Y-105798D01*
X-35654Y-105940D01*
X-35610Y-106104D01*
X-35577Y-106290D01*
X-35533Y-106476D01*
X-35173Y-108192D01*
X-33708D01*
D01*
X-34856Y-102705D01*
X-36233D01*
X-36014Y-103765D01*
X-36025Y-103754D01*
X-36047Y-103710D01*
X-36091Y-103656D01*
X-36145Y-103579D01*
X-36222Y-103492D01*
X-36309Y-103393D01*
X-36408Y-103284D01*
X-36517Y-103175D01*
X-36768Y-102956D01*
X-36900Y-102858D01*
X-37053Y-102770D01*
X-37195Y-102694D01*
X-37359Y-102639D01*
X-37523Y-102595D01*
X-37687Y-102585D01*
D02*
G37*
G36*
X26330Y-102585D02*
X20723D01*
Y-108334D01*
D01*
Y-104027D01*
D01*
D01*
D01*
X22090Y-104257D01*
Y-104246D01*
X22111Y-104213D01*
X22133Y-104158D01*
X22177Y-104093D01*
X22221Y-104016D01*
X22286Y-103951D01*
X22363Y-103874D01*
X22450Y-103820D01*
X22461Y-103809D01*
X22505Y-103787D01*
X22581Y-103754D01*
X22669Y-103710D01*
X22789Y-103677D01*
X22920Y-103645D01*
X23073Y-103623D01*
X23248Y-103612D01*
X23325D01*
X23412Y-103623D01*
X23510Y-103634D01*
X23620Y-103656D01*
X23729Y-103677D01*
X23838Y-103721D01*
X23926Y-103776D01*
X23937Y-103787D01*
X23958Y-103798D01*
X23991Y-103831D01*
X24024Y-103874D01*
X24090Y-103984D01*
X24112Y-104049D01*
X24123Y-104126D01*
Y-104137D01*
Y-104158D01*
X24112Y-104202D01*
X24101Y-104246D01*
X24079Y-104301D01*
X24035Y-104355D01*
X23991Y-104410D01*
X23926Y-104464D01*
X23915D01*
X23893Y-104486D01*
X23849Y-104508D01*
X23773Y-104530D01*
X23663Y-104574D01*
X23598Y-104596D01*
X23510Y-104629D01*
X23423Y-104650D01*
X23325Y-104683D01*
X23215Y-104727D01*
X23084Y-104760D01*
X23073D01*
X23040Y-104771D01*
X22986Y-104792D01*
X22909Y-104814D01*
X22822Y-104847D01*
X22723Y-104880D01*
X22494Y-104956D01*
X22253Y-105044D01*
X22013Y-105153D01*
X21904Y-105208D01*
X21794Y-105262D01*
X21707Y-105317D01*
X21630Y-105372D01*
X21620D01*
X21609Y-105394D01*
X21543Y-105448D01*
X21466Y-105547D01*
X21368Y-105667D01*
X21270Y-105820D01*
X21182Y-105995D01*
X21128Y-106192D01*
X21117Y-106301D01*
X21106Y-106410D01*
Y-106421D01*
Y-106443D01*
Y-106487D01*
X21117Y-106541D01*
X21128Y-106607D01*
X21139Y-106683D01*
X21193Y-106869D01*
X21270Y-107077D01*
X21324Y-107197D01*
X21390Y-107306D01*
X21466Y-107427D01*
X21554Y-107536D01*
X21652Y-107656D01*
X21772Y-107765D01*
X21783Y-107776D01*
X21805Y-107787D01*
X21838Y-107820D01*
X21893Y-107853D01*
X21958Y-107896D01*
X22046Y-107940D01*
X22144Y-107995D01*
X22253Y-108049D01*
X22374Y-108104D01*
X22516Y-108159D01*
X22658Y-108203D01*
X22833Y-108246D01*
X23008Y-108279D01*
X23193Y-108312D01*
X23401Y-108323D01*
X23620Y-108334D01*
X23729D01*
X23816Y-108323D01*
X23915D01*
X24035Y-108312D01*
X24155Y-108301D01*
X24297Y-108279D01*
X24592Y-108224D01*
X24899Y-108159D01*
X25194Y-108049D01*
X25325Y-107984D01*
X25456Y-107907D01*
X25467D01*
X25489Y-107886D01*
X25521Y-107864D01*
X25565Y-107831D01*
X25675Y-107722D01*
X25806Y-107590D01*
X25948Y-107416D01*
X26101Y-107197D01*
X26232Y-106957D01*
X26330Y-106672D01*
X24899Y-106443D01*
X24888Y-106465D01*
X24866Y-106519D01*
X24822Y-106596D01*
X24767Y-106694D01*
X24702Y-106804D01*
X24625Y-106913D01*
X24527Y-107011D01*
X24429Y-107088D01*
X24418Y-107099D01*
X24374Y-107121D01*
X24308Y-107142D01*
X24221Y-107175D01*
X24112Y-107219D01*
X23980Y-107241D01*
X23827Y-107263D01*
X23652Y-107273D01*
X23565D01*
X23478Y-107263D01*
X23357Y-107241D01*
X23226Y-107219D01*
X23084Y-107186D01*
X22953Y-107131D01*
X22833Y-107055D01*
X22822Y-107044D01*
X22800Y-107022D01*
X22767Y-106989D01*
X22723Y-106946D01*
X22647Y-106825D01*
X22625Y-106760D01*
X22614Y-106672D01*
Y-106661D01*
Y-106650D01*
X22625Y-106585D01*
X22658Y-106498D01*
X22723Y-106410D01*
X22734Y-106399D01*
X22745Y-106388D01*
X22789Y-106366D01*
X22844Y-106333D01*
X22931Y-106290D01*
X23040Y-106235D01*
X23172Y-106181D01*
X23346Y-106126D01*
X23357D01*
X23401Y-106104D01*
X23478Y-106082D01*
X23565Y-106049D01*
X23663Y-106017D01*
X23784Y-105973D01*
X24057Y-105875D01*
X24341Y-105754D01*
X24614Y-105645D01*
X24746Y-105579D01*
X24855Y-105525D01*
X24942Y-105470D01*
X25019Y-105426D01*
X25041Y-105404D01*
X25095Y-105350D01*
X25172Y-105262D01*
X25259Y-105142D01*
X25358Y-104989D01*
X25434Y-104803D01*
X25489Y-104596D01*
X25500Y-104486D01*
X25511Y-104366D01*
Y-104355D01*
Y-104333D01*
Y-104301D01*
X25500Y-104257D01*
X25489Y-104137D01*
X25445Y-103984D01*
X25390Y-103809D01*
X25303Y-103623D01*
X25183Y-103437D01*
X25117Y-103339D01*
X25030Y-103251D01*
X25019Y-103240D01*
X24997Y-103218D01*
X24953Y-103186D01*
X24899Y-103142D01*
X24833Y-103098D01*
X24746Y-103044D01*
X24647Y-102978D01*
X24527Y-102912D01*
X24385Y-102858D01*
X24243Y-102792D01*
X24079Y-102738D01*
X23893Y-102683D01*
X23696Y-102650D01*
X23489Y-102617D01*
X23259Y-102595D01*
X23019Y-102585D01*
X26330D01*
D01*
D02*
G37*
G36*
X9465Y-102585D02*
X3771D01*
Y-108334D01*
D01*
Y-105197D01*
X3782Y-105284D01*
X3793Y-105404D01*
X3814Y-105536D01*
X3847Y-105689D01*
X3880Y-105853D01*
X3924Y-106027D01*
X3979Y-106213D01*
X4044Y-106410D01*
X4132Y-106596D01*
X4230Y-106793D01*
X4339Y-106989D01*
X4470Y-107186D01*
X4623Y-107372D01*
X4634Y-107383D01*
X4667Y-107416D01*
X4711Y-107459D01*
X4776Y-107525D01*
X4864Y-107590D01*
X4973Y-107678D01*
X5093Y-107765D01*
X5224Y-107853D01*
X5389Y-107940D01*
X5552Y-108028D01*
X5738Y-108115D01*
X5946Y-108181D01*
X6165Y-108246D01*
X6394Y-108290D01*
X6645Y-108323D01*
X6908Y-108334D01*
X7039D01*
X7104Y-108323D01*
X7181Y-108312D01*
X7367Y-108290D01*
X7585Y-108257D01*
X7815Y-108203D01*
X8055Y-108126D01*
X8285Y-108028D01*
X8296D01*
X8307Y-108017D01*
X8340Y-107995D01*
X8383Y-107973D01*
X8493Y-107896D01*
X8624Y-107798D01*
X8766Y-107678D01*
X8919Y-107525D01*
X9061Y-107350D01*
X9181Y-107153D01*
Y-107142D01*
X9192Y-107131D01*
X9203Y-107099D01*
X9225Y-107055D01*
X9269Y-106935D01*
X9323Y-106782D01*
X9378Y-106607D01*
X9422Y-106399D01*
X9454Y-106170D01*
X9465Y-105929D01*
Y-105864D01*
X9454Y-105787D01*
Y-105678D01*
X9443Y-105547D01*
X9422Y-105404D01*
X9389Y-105230D01*
X9356Y-105055D01*
X9312Y-104869D01*
X9258Y-104672D01*
X9192Y-104464D01*
X9105Y-104268D01*
X9006Y-104060D01*
X8897Y-103863D01*
X8766Y-103678D01*
X8613Y-103503D01*
X8602Y-103492D01*
X8569Y-103459D01*
X8525Y-103415D01*
X8460Y-103361D01*
X8372Y-103284D01*
X8263Y-103208D01*
X8143Y-103131D01*
X8001Y-103044D01*
X7848Y-102956D01*
X7684Y-102880D01*
X7498Y-102792D01*
X7290Y-102727D01*
X7083Y-102672D01*
X6853Y-102628D01*
X6602Y-102595D01*
X6350Y-102585D01*
X9465D01*
D01*
D02*
G37*
%LPD*%
G36*
X-16100Y-105645D02*
X-16067D01*
X-16023Y-105656D01*
X-15914Y-105689D01*
X-15761Y-105710D01*
X-15750D01*
X-15717Y-105721D01*
X-15652D01*
X-15586Y-105732D01*
X-15488Y-105743D01*
X-15390Y-105765D01*
X-15160Y-105809D01*
X-14920Y-105864D01*
X-14679Y-105929D01*
X-14570Y-105973D01*
X-14471Y-106017D01*
X-14384Y-106060D01*
X-14307Y-106104D01*
X-14297Y-106115D01*
X-14275Y-106137D01*
X-14231Y-106181D01*
X-14187Y-106235D01*
X-14143Y-106312D01*
X-14100Y-106399D01*
X-14078Y-106498D01*
X-14067Y-106607D01*
Y-106618D01*
Y-106650D01*
X-14078Y-106694D01*
X-14089Y-106760D01*
X-14111Y-106825D01*
X-14143Y-106902D01*
X-14187Y-106978D01*
X-14253Y-107044D01*
X-14264Y-107055D01*
X-14286Y-107066D01*
X-14329Y-107099D01*
X-14384Y-107131D01*
X-14449Y-107164D01*
X-14537Y-107186D01*
X-14635Y-107208D01*
X-14745Y-107219D01*
X-14799D01*
X-14865Y-107208D01*
X-14941Y-107197D01*
X-15040Y-107186D01*
X-15149Y-107153D01*
X-15258Y-107121D01*
X-15368Y-107066D01*
X-15379Y-107055D01*
X-15422Y-107033D01*
X-15477Y-107000D01*
X-15542Y-106946D01*
X-15608Y-106891D01*
X-15685Y-106815D01*
X-15761Y-106738D01*
X-15816Y-106640D01*
X-15827Y-106629D01*
X-15838Y-106585D01*
X-15870Y-106530D01*
X-15903Y-106443D01*
X-15947Y-106333D01*
X-15991Y-106192D01*
X-16034Y-106027D01*
X-16078Y-105842D01*
X-16122Y-105634D01*
X-16111D01*
X-16100Y-105645D01*
D02*
G37*
G36*
X-31315Y-102595D02*
X-31402Y-102606D01*
X-31500Y-102617D01*
X-31610Y-102639D01*
X-31730Y-102661D01*
X-31992Y-102738D01*
X-32123Y-102781D01*
X-32254Y-102847D01*
X-32386Y-102923D01*
X-32517Y-103000D01*
X-32637Y-103098D01*
X-32757Y-103208D01*
X-32768Y-103218D01*
X-32779Y-103240D01*
X-32812Y-103273D01*
X-32856Y-103317D01*
X-32899Y-103382D01*
X-32943Y-103459D01*
X-32998Y-103557D01*
X-33063Y-103656D01*
X-33118Y-103776D01*
X-33173Y-103907D01*
X-33216Y-104049D01*
X-33260Y-104213D01*
X-33304Y-104377D01*
X-33336Y-104563D01*
X-33347Y-104749D01*
X-33358Y-104956D01*
Y-102585D01*
X-31249D01*
X-31315Y-102595D01*
D02*
G37*
G36*
X-30834Y-103667D02*
X-30724Y-103689D01*
X-30593Y-103732D01*
X-30451Y-103787D01*
X-30309Y-103874D01*
X-30167Y-103995D01*
X-30156Y-104006D01*
X-30112Y-104060D01*
X-30047Y-104137D01*
X-29970Y-104257D01*
X-29894Y-104399D01*
X-29806Y-104574D01*
X-29730Y-104771D01*
X-29675Y-105011D01*
X-32003D01*
Y-105000D01*
Y-104956D01*
Y-104913D01*
Y-104869D01*
Y-104858D01*
Y-104847D01*
Y-104814D01*
Y-104771D01*
X-31992Y-104661D01*
X-31970Y-104519D01*
X-31938Y-104377D01*
X-31883Y-104224D01*
X-31817Y-104082D01*
X-31730Y-103951D01*
X-31719Y-103940D01*
X-31675Y-103907D01*
X-31620Y-103852D01*
X-31533Y-103798D01*
X-31435Y-103743D01*
X-31304Y-103689D01*
X-31161Y-103656D01*
X-30997Y-103645D01*
X-30921D01*
X-30834Y-103667D01*
D02*
G37*
G36*
X35675Y-102759D02*
Y-102770D01*
X35665Y-102792D01*
X35643Y-102836D01*
X35621Y-102880D01*
X35599Y-102945D01*
X35566Y-103022D01*
X35501Y-103186D01*
X35424Y-103361D01*
X35348Y-103546D01*
X35282Y-103721D01*
X35227Y-103863D01*
X35216Y-103852D01*
X35195Y-103809D01*
X35151Y-103743D01*
X35107Y-103656D01*
X35042Y-103546D01*
X34965Y-103426D01*
X34790Y-103164D01*
X34069Y-102158D01*
X33009Y-100628D01*
X36615D01*
X35675Y-102759D01*
D02*
G37*
G36*
X28615Y-102595D02*
X28527Y-102606D01*
X28429Y-102617D01*
X28320Y-102639D01*
X28199Y-102661D01*
X27937Y-102738D01*
X27806Y-102781D01*
X27675Y-102847D01*
X27544Y-102923D01*
X27412Y-103000D01*
X27292Y-103098D01*
X27172Y-103208D01*
X27161Y-103218D01*
X27150Y-103240D01*
X27117Y-103273D01*
X27074Y-103317D01*
X27030Y-103382D01*
X26986Y-103459D01*
X26932Y-103557D01*
X26866Y-103656D01*
X26811Y-103776D01*
X26757Y-103907D01*
X26713Y-104049D01*
X26669Y-104213D01*
X26625Y-104377D01*
X26593Y-104563D01*
X26582Y-104749D01*
X26571Y-104956D01*
Y-102585D01*
X28680D01*
X28615Y-102595D01*
D02*
G37*
G36*
X29096Y-103667D02*
X29205Y-103689D01*
X29336Y-103732D01*
X29478Y-103787D01*
X29620Y-103874D01*
X29762Y-103995D01*
X29773Y-104005D01*
X29817Y-104060D01*
X29883Y-104137D01*
X29959Y-104257D01*
X30036Y-104399D01*
X30123Y-104574D01*
X30200Y-104771D01*
X30254Y-105011D01*
X27926D01*
Y-105000D01*
Y-104956D01*
Y-104913D01*
Y-104869D01*
Y-104858D01*
Y-104847D01*
Y-104814D01*
Y-104771D01*
X27937Y-104661D01*
X27959Y-104519D01*
X27992Y-104377D01*
X28046Y-104224D01*
X28112Y-104082D01*
X28199Y-103951D01*
X28210Y-103940D01*
X28254Y-103907D01*
X28309Y-103852D01*
X28396Y-103798D01*
X28495Y-103743D01*
X28626Y-103689D01*
X28768Y-103656D01*
X28932Y-103645D01*
X29008D01*
X29096Y-103667D01*
D02*
G37*
G36*
X12198Y-105689D02*
X11127Y-100628D01*
X14253Y-100628D01*
X12198Y-105689D01*
D02*
G37*
G36*
X-9334Y-103710D02*
X-9225Y-103732D01*
X-9094Y-103776D01*
X-8952Y-103831D01*
X-8799Y-103907D01*
X-8657Y-104006D01*
X-8646Y-104016D01*
X-8591Y-104060D01*
X-8525Y-104126D01*
X-8449Y-104224D01*
X-8350Y-104344D01*
X-8252Y-104497D01*
X-8165Y-104672D01*
X-8077Y-104869D01*
Y-104880D01*
X-8066Y-104891D01*
X-8055Y-104924D01*
X-8044Y-104967D01*
X-8012Y-105077D01*
X-7979Y-105208D01*
X-7946Y-105372D01*
X-7913Y-105547D01*
X-7891Y-105732D01*
X-7881Y-105907D01*
Y-105918D01*
Y-105929D01*
Y-105962D01*
Y-106006D01*
X-7902Y-106115D01*
X-7924Y-106246D01*
X-7957Y-106399D01*
X-8012Y-106552D01*
X-8088Y-106705D01*
X-8197Y-106847D01*
X-8208Y-106858D01*
X-8252Y-106902D01*
X-8329Y-106957D01*
X-8416Y-107011D01*
X-8536Y-107077D01*
X-8668Y-107131D01*
X-8821Y-107175D01*
X-8995Y-107186D01*
X-9050D01*
X-9094Y-107175D01*
X-9214Y-107153D01*
X-9356Y-107121D01*
X-9520Y-107055D01*
X-9684Y-106967D01*
X-9859Y-106836D01*
X-9946Y-106760D01*
X-10023Y-106672D01*
X-10034Y-106661D01*
X-10045Y-106640D01*
X-10078Y-106596D01*
X-10110Y-106541D01*
X-10165Y-106465D01*
X-10209Y-106377D01*
X-10263Y-106279D01*
X-10318Y-106170D01*
X-10373Y-106038D01*
X-10427Y-105907D01*
X-10482Y-105754D01*
X-10526Y-105601D01*
X-10591Y-105252D01*
X-10602Y-105066D01*
X-10613Y-104869D01*
Y-104858D01*
Y-104847D01*
Y-104781D01*
X-10602Y-104683D01*
X-10569Y-104563D01*
X-10537Y-104432D01*
X-10482Y-104290D01*
X-10405Y-104158D01*
X-10296Y-104027D01*
X-10285Y-104016D01*
X-10241Y-103973D01*
X-10176Y-103918D01*
X-10088Y-103863D01*
X-9968Y-103798D01*
X-9837Y-103754D01*
X-9684Y-103710D01*
X-9509Y-103699D01*
X-9433D01*
X-9334Y-103710D01*
D02*
G37*
G36*
X22844Y-102595D02*
X22756D01*
X22658Y-102606D01*
X22417Y-102628D01*
X22166Y-102683D01*
X21893Y-102749D01*
X21641Y-102847D01*
X21532Y-102912D01*
X21423Y-102978D01*
X21412D01*
X21401Y-103000D01*
X21335Y-103044D01*
X21237Y-103131D01*
X21128Y-103251D01*
X21007Y-103404D01*
X20898Y-103579D01*
X20800Y-103787D01*
X20723Y-104027D01*
Y-102585D01*
X22920D01*
X22844Y-102595D01*
D02*
G37*
G36*
X6154Y-102595D02*
X6044Y-102606D01*
X5935Y-102617D01*
X5804Y-102639D01*
X5662Y-102672D01*
X5356Y-102749D01*
X5203Y-102803D01*
X5039Y-102869D01*
X4886Y-102945D01*
X4733Y-103044D01*
X4591Y-103142D01*
X4459Y-103262D01*
X4448Y-103273D01*
X4427Y-103295D01*
X4394Y-103328D01*
X4350Y-103382D01*
X4295Y-103448D01*
X4241Y-103535D01*
X4175Y-103623D01*
X4110Y-103732D01*
X4055Y-103863D01*
X3989Y-103995D01*
X3935Y-104148D01*
X3880Y-104301D01*
X3836Y-104475D01*
X3804Y-104661D01*
X3782Y-104858D01*
X3771Y-105066D01*
Y-102585D01*
X6230D01*
X6154Y-102595D01*
D02*
G37*
G36*
X6525Y-103710D02*
X6634Y-103732D01*
X6766Y-103776D01*
X6908Y-103831D01*
X7061Y-103907D01*
X7203Y-104006D01*
X7214Y-104016D01*
X7268Y-104060D01*
X7334Y-104126D01*
X7411Y-104224D01*
X7509Y-104344D01*
X7607Y-104497D01*
X7695Y-104672D01*
X7782Y-104869D01*
Y-104880D01*
X7793Y-104891D01*
X7804Y-104924D01*
X7815Y-104967D01*
X7848Y-105077D01*
X7880Y-105208D01*
X7913Y-105372D01*
X7946Y-105547D01*
X7968Y-105732D01*
X7979Y-105907D01*
Y-105918D01*
Y-105929D01*
Y-105962D01*
Y-106006D01*
X7957Y-106115D01*
X7935Y-106246D01*
X7902Y-106399D01*
X7848Y-106552D01*
X7771Y-106705D01*
X7662Y-106847D01*
X7651Y-106858D01*
X7607Y-106902D01*
X7531Y-106957D01*
X7443Y-107011D01*
X7323Y-107077D01*
X7192Y-107131D01*
X7039Y-107175D01*
X6864Y-107186D01*
X6809D01*
X6766Y-107175D01*
X6645Y-107153D01*
X6503Y-107121D01*
X6339Y-107055D01*
X6175Y-106967D01*
X6001Y-106836D01*
X5913Y-106760D01*
X5837Y-106672D01*
X5826Y-106661D01*
X5815Y-106640D01*
X5782Y-106596D01*
X5749Y-106541D01*
X5694Y-106465D01*
X5651Y-106377D01*
X5596Y-106279D01*
X5542Y-106170D01*
X5487Y-106038D01*
X5432Y-105907D01*
X5378Y-105754D01*
X5334Y-105601D01*
X5268Y-105252D01*
X5257Y-105066D01*
X5246Y-104869D01*
Y-104858D01*
Y-104847D01*
Y-104781D01*
X5257Y-104683D01*
X5290Y-104563D01*
X5323Y-104432D01*
X5378Y-104290D01*
X5454Y-104158D01*
X5563Y-104027D01*
X5574Y-104016D01*
X5618Y-103973D01*
X5684Y-103918D01*
X5771Y-103863D01*
X5891Y-103798D01*
X6022Y-103754D01*
X6175Y-103710D01*
X6350Y-103699D01*
X6427D01*
X6525Y-103710D01*
D02*
G37*
D10*
X-94095Y-109449D02*
G03*
X-94095Y-109449I-5906J0D01*
G01*
X5905Y116142D02*
G03*
X5905Y116142I-5906J0D01*
G01*
X105905Y-109449D02*
G03*
X105905Y-109449I-5906J0D01*
G01*
D13*
X-94800Y-122700D02*
Y-118764D01*
X-96768D01*
X-97424Y-119420D01*
Y-120732D01*
X-96768Y-121388D01*
X-94800D01*
X-96112D02*
X-97424Y-122700D01*
X-101359D02*
X-98736D01*
X-101359Y-120076D01*
Y-119420D01*
X-100704Y-118764D01*
X-99392D01*
X-98736Y-119420D01*
X-105295Y-118764D02*
X-102671D01*
Y-120732D01*
X-103983Y-120076D01*
X-104639D01*
X-105295Y-120732D01*
Y-122044D01*
X-104639Y-122700D01*
X-103327D01*
X-102671Y-122044D01*
X5200Y125500D02*
Y129436D01*
X3232D01*
X2576Y128780D01*
Y127468D01*
X3232Y126812D01*
X5200D01*
X3888D02*
X2576Y125500D01*
X1264Y128780D02*
X608Y129436D01*
X-704D01*
X-1359Y128780D01*
Y128124D01*
X-704Y127468D01*
X-48D01*
X-704D01*
X-1359Y126812D01*
Y126156D01*
X-704Y125500D01*
X608D01*
X1264Y126156D01*
X-2671Y128780D02*
X-3327Y129436D01*
X-4639D01*
X-5295Y128780D01*
Y128124D01*
X-4639Y127468D01*
X-3983D01*
X-4639D01*
X-5295Y126812D01*
Y126156D01*
X-4639Y125500D01*
X-3327D01*
X-2671Y126156D01*
X105200Y-100100D02*
Y-96164D01*
X103232D01*
X102576Y-96820D01*
Y-98132D01*
X103232Y-98788D01*
X105200D01*
X103888D02*
X102576Y-100100D01*
X98641Y-96164D02*
X101264D01*
Y-98132D01*
X99952Y-97476D01*
X99296D01*
X98641Y-98132D01*
Y-99444D01*
X99296Y-100100D01*
X100608D01*
X101264Y-99444D01*
X97329Y-96164D02*
X94705D01*
Y-96820D01*
X97329Y-99444D01*
Y-100100D01*
M02*
