M48
;Layer_Color=9474304
;FILE_FORMAT=2:4
INCH,TZ
;TYPE=PLATED
T1F00S00C0.0118
T2F00S00C0.0157
T3F00S00C0.0197
T5F00S00C0.0276
T6F00S00C0.0315
T7F00S00C0.0354
T8F00S00C0.0394
T10F00S00C0.0787
T11F00S00C0.1260
%
T01
X-9400Y-10039
Y-8711
X-8829Y-6801
X-8042Y-6802
X-8415Y-6053
X-7579Y-5906
X-6939Y-7530
Y-8110
X-8415Y-10433
X-6693Y-11782
X-9744Y-6447
X-10138Y-6742
X-9400Y-3543
X-8012Y-3937
X-6939Y-2953
X-6940Y-2369
X-6102Y-2067
X-5994Y-2648
X-7726Y-1644
X-8829
X-9744Y-1280
X-10138Y-1988
X-4951Y-3169
X-4429Y-3179
Y-3986
X-4951Y-3967
X-4380Y-7530
X-5817Y-7569
X-5659Y-8120
Y-9990
Y-10600
X-4675Y-9744
X-4252Y-11181
X-2776Y-10423
Y-10069
X-1526Y-10236
X-1083Y-10876
Y-11270
X-1427Y-11585
X-738Y-10551
X-659Y-9764
X-256Y-10108
X443Y-9892
X876Y-9104
X-1230Y-8435
X305Y-11870
X-266Y-13189
X-787Y-13140
X-394Y-14222
X-384Y-14695
X1329Y-14222
X2657Y-12598
X-2185Y-13317
X-2904Y-14222
X5669Y-9449
X5659Y-8219
X6545Y-8120
Y-7195
X7490Y-7470
Y-8071
X8711Y-7087
Y-6467
X9055Y-6801
X9754Y-5896
X7854Y-5856
X8376Y-4035
X9361Y-3612
X9055Y-1634
X8287
X7480Y-2264
Y-2854
X6959Y-2894
X6447Y-2362
X6102Y-2165
X5266Y-1528
X4774Y-2313
X5266Y-4144
X4774Y-5020
X7136Y-10285
X7579
X8415Y-10236
X8858Y-10876
X9754
X9352Y-8761
X9764Y-1348
X10138Y-1919
Y-6644
Y-11368
Y2913
Y8268
X10000Y9892
X9764Y8661
X9380Y8091
X8770Y8366
X8287Y8091
X7431Y7431
X7480Y6831
X6594Y7726
X6201Y7421
X5276Y8150
X4774Y5217
X5394Y3622
X5399Y3233
X4774Y1673
Y787
X5266Y-571
X8425Y-738
X8780Y-991
X8425Y984
X9370Y1260
X9055Y3228
X8268Y3219
X8278Y4113
X8780Y3898
X9764Y3740
X9370Y6142
X8435Y5837
X7480Y2510
X6594Y1919
X-4823Y1575
X-5463Y2805
X-4823Y-591
X-5472Y7362
X-5906Y7697
X-6841Y7382
X-6863Y6823
X-7864Y6053
X-9400Y6348
X-10138Y7707
X-9744Y8366
X-8957Y8760
X-8415
X-8839Y8002
X-7884
X-7874Y4035
X-8415Y3839
X-8829Y3219
X-7736Y3219
X-6939Y2520
Y1890
X-6024Y2795
X-7913Y1004
Y-709
X-8415Y-837
X-9400Y1378
X-10138Y2904
X-9744Y3494
T02
X-5541Y-13209
X-5030
X-5285Y-12815
X-5797
X-4774
T03
X-6240Y-12283
X-3937Y-11998
X-2805Y-7431
X-984Y-7352
X-571Y-6339
X-1486Y-6388
Y-5404
X148Y-5610
X1132Y-4183
X-591Y-3671
X-925Y-2648
X-2815Y-2244
Y-3671
X-3760Y-5433
Y-5965
X-5463Y-2854
X3071Y-5925
X3543Y-6171
X4134Y-6102
Y-5551
X6053Y-7382
X4626Y-9498
X6102Y-2726
X128Y-15817
X-600Y541
X-1614Y1230
X-2815Y541
X-3789Y20
X-3780Y-591
X-5472Y2067
X-3789Y4006
Y4537
X-2835Y4065
X-295
X-1624Y5925
X-1969Y7146
X-600Y7116
X1535Y6604
X2461Y6614
X3022Y7106
X4114Y7785
X4134Y9016
X4143Y9557
X5266Y10295
X4606Y11732
X6486Y11742
X6575Y13632
X8780Y10551
X6201Y6841
X4134Y4685
Y4134
X3031Y4065
X2530Y787
X1339
X4065Y-39
Y-551
X3022Y-1122
X6260Y2461
X7480Y1959
X-453Y9783
X-128Y10482
X-2835Y9793
X-3789Y9596
X-3780Y8976
X-4902Y9193
X-5709Y6890
X-3543Y11614
X-4026Y12156
X-4567Y14321
X-7677Y13632
X-6654Y11535
X-10236Y11772
Y11220
T05
X-3681Y-9222
X-3829Y-8159
Y-6998
X-3809Y-3612
X-3829Y-1262
X3976Y-1860
X4326Y-3612
X4104Y-6801
X5118Y-8907
X4972Y-12933
X3839
X8415Y-11860
X-2185Y-9222
X-3878Y1230
Y2785
X-3809Y6151
X-3809Y8110
X3976Y6634
X3976Y5323
X3976Y2342
Y1230
X4134Y10640
X7743Y13602
X-5404Y14518
T06
X-3189Y13110
Y13898
X-1220
Y13110
Y14685
X-3189
T07
X-11772Y-8081
Y-7293
X-10984
Y-8081
Y-6506
Y-5718
Y-4931
Y-4144
X-11772
Y-4931
Y-5718
Y-6506
Y-3356
Y-2569
X-10984
Y-3356
Y-1781
X-11772
X10984
Y-2569
Y-3356
Y-4144
Y-4931
X11772
Y-4144
Y-3356
Y-2569
Y-1781
Y-5718
Y-6506
Y-7293
Y-8081
X10984
Y-7293
Y-6506
Y-5718
Y-994
X11772
Y983
Y1771
X10984
Y983
Y2558
Y3346
X11772
Y2558
Y4133
Y4920
X10984
Y4133
Y5708
Y6495
X11772
Y5708
Y7283
Y8070
X10984
Y7283
X-10984Y7284
Y8071
X-11772
Y7284
Y6497
Y5709
Y4922
Y4134
X-10984
Y4922
Y5709
Y6497
Y3347
Y2560
Y1772
Y985
X-11772
Y1772
Y2560
Y3347
Y-994
X-10984
T08
X5207Y13209
Y14209
T10
X1850Y13780
T11
X14646Y0
X-14646
M30
