G04*
G04 #@! TF.GenerationSoftware,Altium Limited,Altium Designer,23.3.1 (30)*
G04*
G04 Layer_Physical_Order=2*
G04 Layer_Color=37055*
%FSLAX25Y25*%
%MOIN*%
G70*
G04*
G04 #@! TF.SameCoordinates,7FDB2B4D-D7D5-4B3D-9FC9-9F88D19D1CF5*
G04*
G04*
G04 #@! TF.FilePolarity,Positive*
G04*
G01*
G75*
%ADD13C,0.00787*%
%ADD57R,0.05512X0.05512*%
%ADD61C,0.05906*%
%ADD68C,0.01000*%
%ADD69C,0.03543*%
%ADD72R,0.06299X0.06299*%
%ADD73R,0.25591X0.25591*%
%ADD74C,0.05512*%
%ADD76O,0.14173X0.07874*%
%ADD77O,0.07874X0.14173*%
%ADD79C,0.02756*%
G36*
X7983Y162500D02*
X15947Y161912D01*
X23872Y160935D01*
X31740Y159570D01*
X39532Y157820D01*
X47228Y155690D01*
X54811Y153185D01*
X62261Y150311D01*
X69561Y147075D01*
X76694Y143485D01*
X83642Y139549D01*
X90389Y135277D01*
X96918Y130678D01*
X103213Y125766D01*
X109260Y120550D01*
X115043Y115043D01*
X120550Y109260D01*
X125766Y103213D01*
X130678Y96918D01*
X135277Y90389D01*
X139549Y83642D01*
X143485Y76694D01*
X147075Y69561D01*
X150311Y62261D01*
X153185Y54811D01*
X155690Y47228D01*
X157820Y39532D01*
X159570Y31740D01*
X160935Y23872D01*
X161912Y15947D01*
X162500Y7983D01*
X162693Y99D01*
X162674Y0D01*
X162693Y-99D01*
X162500Y-7983D01*
X161912Y-15947D01*
X160935Y-23872D01*
X159570Y-31740D01*
X157820Y-39532D01*
X155690Y-47228D01*
X153185Y-54811D01*
X150311Y-62261D01*
X147075Y-69561D01*
X143485Y-76694D01*
X139549Y-83642D01*
X135277Y-90389D01*
X130678Y-96918D01*
X125766Y-103213D01*
X120550Y-109260D01*
X115043Y-115043D01*
X109260Y-120550D01*
X103213Y-125766D01*
X96918Y-130678D01*
X90389Y-135277D01*
X83642Y-139549D01*
X76694Y-143485D01*
X69561Y-147075D01*
X62261Y-150311D01*
X54811Y-153185D01*
X47228Y-155690D01*
X39532Y-157820D01*
X31740Y-159570D01*
X23872Y-160935D01*
X15947Y-161912D01*
X7983Y-162500D01*
X99Y-162693D01*
X0Y-162674D01*
X-99Y-162693D01*
X-7983Y-162500D01*
X-15947Y-161912D01*
X-23872Y-160935D01*
X-31740Y-159570D01*
X-39532Y-157820D01*
X-47228Y-155690D01*
X-54811Y-153185D01*
X-62261Y-150311D01*
X-69561Y-147075D01*
X-76694Y-143485D01*
X-83642Y-139549D01*
X-90389Y-135277D01*
X-96918Y-130678D01*
X-103213Y-125766D01*
X-109260Y-120550D01*
X-115043Y-115043D01*
X-120550Y-109260D01*
X-125766Y-103213D01*
X-130678Y-96918D01*
X-135277Y-90389D01*
X-139549Y-83642D01*
X-143485Y-76694D01*
X-147075Y-69561D01*
X-150311Y-62261D01*
X-153185Y-54811D01*
X-155690Y-47228D01*
X-157820Y-39532D01*
X-159570Y-31740D01*
X-160935Y-23872D01*
X-161912Y-15947D01*
X-162500Y-7983D01*
X-162693Y-99D01*
X-162674Y0D01*
X-162693Y99D01*
X-162500Y7983D01*
X-161912Y15947D01*
X-160935Y23872D01*
X-159570Y31740D01*
X-157820Y39532D01*
X-155690Y47228D01*
X-153185Y54811D01*
X-150311Y62261D01*
X-147075Y69561D01*
X-143485Y76694D01*
X-139549Y83642D01*
X-135277Y90389D01*
X-130678Y96918D01*
X-125766Y103213D01*
X-120550Y109260D01*
X-115043Y115043D01*
X-109260Y120550D01*
X-103213Y125766D01*
X-96918Y130678D01*
X-90389Y135277D01*
X-83642Y139549D01*
X-76694Y143485D01*
X-69561Y147075D01*
X-62261Y150311D01*
X-54811Y153185D01*
X-47228Y155690D01*
X-39532Y157820D01*
X-31740Y159570D01*
X-23872Y160935D01*
X-15947Y161912D01*
X-7983Y162500D01*
X-99Y162693D01*
X0Y162674D01*
X99Y162693D01*
X7983Y162500D01*
D02*
G37*
%LPC*%
G36*
X894Y151764D02*
Y144201D01*
X5373D01*
Y146850D01*
X5204Y148139D01*
X4706Y149340D01*
X3915Y150372D01*
X2884Y151163D01*
X1682Y151660D01*
X894Y151764D01*
D02*
G37*
G36*
X-106D02*
X-895Y151660D01*
X-2096Y151163D01*
X-3127Y150372D01*
X-3919Y149340D01*
X-4416Y148139D01*
X-4586Y146850D01*
Y144201D01*
X-106D01*
Y151764D01*
D02*
G37*
G36*
X-45169Y145944D02*
Y143709D01*
X-42934D01*
X-43086Y144279D01*
X-43451Y144911D01*
X-43968Y145426D01*
X-44600Y145791D01*
X-45169Y145944D01*
D02*
G37*
G36*
X-46169D02*
X-46739Y145791D01*
X-47371Y145426D01*
X-47887Y144911D01*
X-48252Y144279D01*
X-48405Y143709D01*
X-46169D01*
Y145944D01*
D02*
G37*
G36*
X56223Y146236D02*
X52574D01*
Y142587D01*
X56223D01*
Y146236D01*
D02*
G37*
G36*
X51574D02*
X47924D01*
Y142587D01*
X51574D01*
Y146236D01*
D02*
G37*
G36*
X-50689Y148524D02*
X-57382D01*
Y141831D01*
X-50689D01*
Y148524D01*
D02*
G37*
G36*
X-42934Y142709D02*
X-45169D01*
Y140473D01*
X-44600Y140626D01*
X-43968Y140991D01*
X-43451Y141507D01*
X-43086Y142139D01*
X-42934Y142709D01*
D02*
G37*
G36*
X-46169D02*
X-48405D01*
X-48252Y142139D01*
X-47887Y141507D01*
X-47371Y140991D01*
X-46739Y140626D01*
X-46169Y140473D01*
Y142709D01*
D02*
G37*
G36*
X56223Y141587D02*
X52574D01*
Y137937D01*
X56223D01*
Y141587D01*
D02*
G37*
G36*
X51574D02*
X47924D01*
Y137937D01*
X51574D01*
Y141587D01*
D02*
G37*
G36*
X-76272Y139054D02*
Y136819D01*
X-74036D01*
X-74189Y137389D01*
X-74554Y138021D01*
X-75070Y138537D01*
X-75702Y138902D01*
X-76272Y139054D01*
D02*
G37*
G36*
X-77272D02*
X-77842Y138902D01*
X-78474Y138537D01*
X-78989Y138021D01*
X-79354Y137389D01*
X-79507Y136819D01*
X-77272D01*
Y139054D01*
D02*
G37*
G36*
X66248Y139054D02*
Y136819D01*
X68484D01*
X68331Y137389D01*
X67966Y138021D01*
X67450Y138537D01*
X66818Y138902D01*
X66248Y139054D01*
D02*
G37*
G36*
X65248D02*
X64678Y138902D01*
X64046Y138537D01*
X63530Y138021D01*
X63165Y137389D01*
X63013Y136819D01*
X65248D01*
Y139054D01*
D02*
G37*
G36*
X5373Y143201D02*
X894D01*
Y135637D01*
X1682Y135741D01*
X2884Y136239D01*
X3915Y137030D01*
X4706Y138061D01*
X5204Y139262D01*
X5373Y140551D01*
Y143201D01*
D02*
G37*
G36*
X-106D02*
X-4586D01*
Y140551D01*
X-4416Y139262D01*
X-3919Y138061D01*
X-3127Y137030D01*
X-2096Y136239D01*
X-895Y135741D01*
X-106Y135637D01*
Y143201D01*
D02*
G37*
G36*
X-74036Y135819D02*
X-76272D01*
Y133583D01*
X-75702Y133736D01*
X-75070Y134101D01*
X-74554Y134617D01*
X-74189Y135249D01*
X-74036Y135819D01*
D02*
G37*
G36*
X-77272D02*
X-79507D01*
X-79354Y135249D01*
X-78989Y134617D01*
X-78474Y134101D01*
X-77842Y133736D01*
X-77272Y133583D01*
Y135819D01*
D02*
G37*
G36*
X68484Y135819D02*
X66248D01*
Y133583D01*
X66818Y133736D01*
X67450Y134101D01*
X67966Y134617D01*
X68331Y135249D01*
X68484Y135819D01*
D02*
G37*
G36*
X65248D02*
X63013D01*
X63165Y135249D01*
X63530Y134617D01*
X64046Y134101D01*
X64678Y133736D01*
X65248Y133583D01*
Y135819D01*
D02*
G37*
G36*
X80775Y139370D02*
X74082D01*
Y132677D01*
X80775D01*
Y139370D01*
D02*
G37*
G36*
X-11712Y150591D02*
X-12697D01*
X-13648Y150336D01*
X-14501Y149843D01*
X-15198Y149147D01*
X-15690Y148294D01*
X-15945Y147343D01*
Y146358D01*
X-15690Y145407D01*
X-15198Y144554D01*
X-14501Y143858D01*
X-13648Y143365D01*
X-12928Y143172D01*
Y142655D01*
X-13648Y142462D01*
X-14501Y141969D01*
X-15198Y141273D01*
X-15690Y140420D01*
X-15945Y139469D01*
Y138484D01*
X-15690Y137533D01*
X-15198Y136680D01*
X-14501Y135984D01*
X-13648Y135491D01*
X-13339Y135408D01*
Y134891D01*
X-13730Y134786D01*
X-14632Y134265D01*
X-15368Y133529D01*
X-15888Y132628D01*
X-16158Y131623D01*
Y131602D01*
X-12205D01*
X-8252D01*
Y131623D01*
X-8521Y132628D01*
X-9042Y133529D01*
X-9778Y134265D01*
X-10679Y134786D01*
X-11070Y134891D01*
Y135408D01*
X-10761Y135491D01*
X-9908Y135984D01*
X-9212Y136680D01*
X-8720Y137533D01*
X-8465Y138484D01*
Y139469D01*
X-8720Y140420D01*
X-9212Y141273D01*
X-9908Y141969D01*
X-10761Y142462D01*
X-11481Y142655D01*
Y143172D01*
X-10761Y143365D01*
X-9908Y143858D01*
X-9212Y144554D01*
X-8720Y145407D01*
X-8465Y146358D01*
Y147343D01*
X-8720Y148294D01*
X-9212Y149147D01*
X-9908Y149843D01*
X-10761Y150336D01*
X-11712Y150591D01*
D02*
G37*
G36*
X19202Y144882D02*
X17806D01*
X16437Y144610D01*
X15147Y144075D01*
X13986Y143300D01*
X12999Y142313D01*
X12224Y141152D01*
X11690Y139862D01*
X11417Y138493D01*
Y137097D01*
X11690Y135728D01*
X12224Y134439D01*
X12999Y133278D01*
X13986Y132291D01*
X15147Y131515D01*
X16437Y130981D01*
X17806Y130709D01*
X19202D01*
X20571Y130981D01*
X21861Y131515D01*
X23021Y132291D01*
X24009Y133278D01*
X24784Y134439D01*
X25318Y135728D01*
X25591Y137097D01*
Y138493D01*
X25318Y139862D01*
X24784Y141152D01*
X24009Y142313D01*
X23021Y143300D01*
X21861Y144075D01*
X20571Y144610D01*
X19202Y144882D01*
D02*
G37*
G36*
X52592Y136024D02*
X51555D01*
X50554Y135755D01*
X49656Y135237D01*
X48923Y134504D01*
X48405Y133606D01*
X48137Y132605D01*
Y131568D01*
X48405Y130567D01*
X48923Y129669D01*
X49656Y128936D01*
X50554Y128418D01*
X51555Y128150D01*
X52592D01*
X53593Y128418D01*
X54491Y128936D01*
X55224Y129669D01*
X55742Y130567D01*
X56011Y131568D01*
Y132605D01*
X55742Y133606D01*
X55224Y134504D01*
X54491Y135237D01*
X53593Y135755D01*
X52592Y136024D01*
D02*
G37*
G36*
X-31397Y150591D02*
X-32382D01*
X-33333Y150336D01*
X-34186Y149843D01*
X-34883Y149147D01*
X-35375Y148294D01*
X-35630Y147343D01*
Y146358D01*
X-35375Y145407D01*
X-34883Y144554D01*
X-34186Y143858D01*
X-33333Y143365D01*
X-32613Y143172D01*
Y142655D01*
X-33333Y142462D01*
X-34186Y141969D01*
X-34883Y141273D01*
X-35375Y140420D01*
X-35630Y139469D01*
Y138484D01*
X-35375Y137533D01*
X-34883Y136680D01*
X-34186Y135984D01*
X-33333Y135491D01*
X-32613Y135298D01*
Y134781D01*
X-33333Y134588D01*
X-34186Y134095D01*
X-34883Y133399D01*
X-35375Y132546D01*
X-35630Y131595D01*
Y130610D01*
X-35375Y129659D01*
X-34883Y128806D01*
X-34186Y128110D01*
X-33333Y127617D01*
X-32382Y127362D01*
X-31397D01*
X-30446Y127617D01*
X-29593Y128110D01*
X-28897Y128806D01*
X-28405Y129659D01*
X-28150Y130610D01*
Y131595D01*
X-28405Y132546D01*
X-28897Y133399D01*
X-29593Y134095D01*
X-30446Y134588D01*
X-31166Y134781D01*
Y135298D01*
X-30446Y135491D01*
X-29593Y135984D01*
X-28897Y136680D01*
X-28405Y137533D01*
X-28150Y138484D01*
Y139469D01*
X-28405Y140420D01*
X-28897Y141273D01*
X-29593Y141969D01*
X-30446Y142462D01*
X-31166Y142655D01*
Y143172D01*
X-30446Y143365D01*
X-29593Y143858D01*
X-28897Y144554D01*
X-28405Y145407D01*
X-28150Y146358D01*
Y147343D01*
X-28405Y148294D01*
X-28897Y149147D01*
X-29593Y149843D01*
X-30446Y150336D01*
X-31397Y150591D01*
D02*
G37*
G36*
X11811Y131751D02*
X9161D01*
Y127272D01*
X16725D01*
X16621Y128060D01*
X16124Y129262D01*
X15332Y130293D01*
X14301Y131084D01*
X13100Y131582D01*
X11811Y131751D01*
D02*
G37*
G36*
X8161D02*
X5512D01*
X4223Y131582D01*
X3022Y131084D01*
X1991Y130293D01*
X1199Y129262D01*
X702Y128060D01*
X598Y127272D01*
X8161D01*
Y131751D01*
D02*
G37*
G36*
X-8252Y130602D02*
X-11705D01*
Y127150D01*
X-11684D01*
X-10679Y127419D01*
X-9778Y127939D01*
X-9042Y128675D01*
X-8521Y129577D01*
X-8252Y130582D01*
Y130602D01*
D02*
G37*
G36*
X-12705D02*
X-16158D01*
Y130582D01*
X-15888Y129577D01*
X-15368Y128675D01*
X-14632Y127939D01*
X-13730Y127419D01*
X-12725Y127150D01*
X-12705D01*
Y130602D01*
D02*
G37*
G36*
X16725Y126272D02*
X9161D01*
Y121792D01*
X11811D01*
X13100Y121962D01*
X14301Y122459D01*
X15332Y123250D01*
X16124Y124282D01*
X16621Y125483D01*
X16725Y126272D01*
D02*
G37*
G36*
X8161D02*
X598D01*
X702Y125483D01*
X1199Y124282D01*
X1991Y123250D01*
X3022Y122459D01*
X4223Y121962D01*
X5512Y121792D01*
X8161D01*
Y126272D01*
D02*
G37*
G36*
X-39919Y124114D02*
X-40593D01*
X-41244Y123940D01*
X-41827Y123603D01*
X-42304Y123126D01*
X-42641Y122543D01*
X-42815Y121892D01*
Y121218D01*
X-42641Y120567D01*
X-42304Y119984D01*
X-41827Y119507D01*
X-41244Y119170D01*
X-40593Y118996D01*
X-39919D01*
X-39268Y119170D01*
X-38685Y119507D01*
X-38208Y119984D01*
X-37871Y120567D01*
X-37697Y121218D01*
Y121892D01*
X-37871Y122543D01*
X-38208Y123126D01*
X-38685Y123603D01*
X-39268Y123940D01*
X-39919Y124114D01*
D02*
G37*
G36*
X-101862Y120452D02*
Y118217D01*
X-99627D01*
X-99779Y118786D01*
X-100144Y119418D01*
X-100660Y119934D01*
X-101292Y120299D01*
X-101862Y120452D01*
D02*
G37*
G36*
X-102862D02*
X-103432Y120299D01*
X-104064Y119934D01*
X-104580Y119418D01*
X-104945Y118786D01*
X-105098Y118217D01*
X-102862D01*
Y120452D01*
D02*
G37*
G36*
X-34933Y118877D02*
Y116642D01*
X-32698D01*
X-32850Y117212D01*
X-33215Y117844D01*
X-33731Y118360D01*
X-34363Y118725D01*
X-34933Y118877D01*
D02*
G37*
G36*
X-35933D02*
X-36503Y118725D01*
X-37135Y118360D01*
X-37651Y117844D01*
X-38016Y117212D01*
X-38168Y116642D01*
X-35933D01*
Y118877D01*
D02*
G37*
G36*
X65199Y119980D02*
X64525D01*
X63874Y119806D01*
X63291Y119469D01*
X62814Y118993D01*
X62477Y118409D01*
X62303Y117758D01*
Y117084D01*
X62477Y116434D01*
X62814Y115850D01*
X63291Y115374D01*
X63874Y115037D01*
X64525Y114862D01*
X65199D01*
X65850Y115037D01*
X66434Y115374D01*
X66910Y115850D01*
X67247Y116434D01*
X67421Y117084D01*
Y117758D01*
X67247Y118409D01*
X66910Y118993D01*
X66434Y119469D01*
X65850Y119806D01*
X65199Y119980D01*
D02*
G37*
G36*
X46400Y119882D02*
X45726D01*
X45075Y119708D01*
X44492Y119371D01*
X44015Y118894D01*
X43678Y118311D01*
X43504Y117660D01*
Y116986D01*
X43678Y116335D01*
X44015Y115752D01*
X44492Y115275D01*
X45075Y114938D01*
X45726Y114764D01*
X46400D01*
X47051Y114938D01*
X47634Y115275D01*
X48111Y115752D01*
X48448Y116335D01*
X48622Y116986D01*
Y117660D01*
X48448Y118311D01*
X48111Y118894D01*
X47634Y119371D01*
X47051Y119708D01*
X46400Y119882D01*
D02*
G37*
G36*
X-32698Y115642D02*
X-34933D01*
Y113406D01*
X-34363Y113559D01*
X-33731Y113924D01*
X-33215Y114440D01*
X-32850Y115072D01*
X-32698Y115642D01*
D02*
G37*
G36*
X-35933D02*
X-38168D01*
X-38016Y115072D01*
X-37651Y114440D01*
X-37135Y113924D01*
X-36503Y113559D01*
X-35933Y113406D01*
Y115642D01*
D02*
G37*
G36*
X-66198Y117913D02*
X-66872D01*
X-67523Y117739D01*
X-68107Y117402D01*
X-68583Y116926D01*
X-68920Y116342D01*
X-69095Y115691D01*
Y115017D01*
X-68920Y114367D01*
X-68583Y113783D01*
X-68107Y113307D01*
X-67523Y112970D01*
X-66872Y112795D01*
X-66198D01*
X-65548Y112970D01*
X-64964Y113307D01*
X-64488Y113783D01*
X-64151Y114367D01*
X-63976Y115017D01*
Y115691D01*
X-64151Y116342D01*
X-64488Y116926D01*
X-64964Y117402D01*
X-65548Y117739D01*
X-66198Y117913D01*
D02*
G37*
G36*
X26378Y121694D02*
X20079D01*
X18845Y121532D01*
X17696Y121056D01*
X16709Y120299D01*
X15952Y119312D01*
X15476Y118163D01*
X15314Y116929D01*
X15476Y115696D01*
X15952Y114547D01*
X16709Y113560D01*
X17696Y112802D01*
X18845Y112326D01*
X20079Y112164D01*
X26378D01*
X27611Y112326D01*
X28760Y112802D01*
X29747Y113560D01*
X30505Y114547D01*
X30981Y115696D01*
X31143Y116929D01*
X30981Y118163D01*
X30505Y119312D01*
X29747Y120299D01*
X28760Y121056D01*
X27611Y121532D01*
X26378Y121694D01*
D02*
G37*
G36*
X-99627Y117217D02*
X-105098D01*
X-104945Y116647D01*
X-104580Y116015D01*
X-104064Y115499D01*
X-103432Y115134D01*
X-103341Y115109D01*
Y114592D01*
X-103350Y114589D01*
X-103934Y114252D01*
X-104410Y113776D01*
X-104747Y113192D01*
X-104921Y112542D01*
Y111868D01*
X-104747Y111217D01*
X-104410Y110633D01*
X-103934Y110157D01*
X-103350Y109820D01*
X-102699Y109646D01*
X-102025D01*
X-101374Y109820D01*
X-100791Y110157D01*
X-100314Y110633D01*
X-99977Y111217D01*
X-99803Y111868D01*
Y112542D01*
X-99977Y113192D01*
X-100314Y113776D01*
X-100791Y114252D01*
X-101374Y114589D01*
X-101383Y114592D01*
Y115109D01*
X-101292Y115134D01*
X-100660Y115499D01*
X-100144Y116015D01*
X-99779Y116647D01*
X-99627Y117217D01*
D02*
G37*
G36*
X44685Y109744D02*
X37992D01*
Y103165D01*
X1296D01*
X1007Y103665D01*
X1105Y103835D01*
X1280Y104486D01*
Y105160D01*
X1105Y105811D01*
X768Y106394D01*
X292Y106871D01*
X-292Y107208D01*
X-943Y107382D01*
X-1616D01*
X-2267Y107208D01*
X-2851Y106871D01*
X-3327Y106394D01*
X-3664Y105811D01*
X-3839Y105160D01*
Y104486D01*
X-3664Y103835D01*
X-3566Y103665D01*
X-3855Y103165D01*
X-62992D01*
X-63299Y103104D01*
X-63560Y102930D01*
X-63734Y102669D01*
X-63795Y102362D01*
Y-18868D01*
X-63734Y-19176D01*
X-63560Y-19436D01*
X-63299Y-19610D01*
X-63114Y-20058D01*
X-63189Y-20239D01*
Y-21100D01*
X-62983Y-21597D01*
X-63299Y-21728D01*
X-63560Y-21903D01*
X-63734Y-22163D01*
X-63795Y-22470D01*
Y-80709D01*
X-63734Y-81016D01*
X-63560Y-81276D01*
X-63299Y-81450D01*
X-62992Y-81511D01*
X-58760D01*
Y-81631D01*
X-58430Y-82427D01*
X-57821Y-83037D01*
X-57025Y-83366D01*
X-56164D01*
X-55368Y-83037D01*
X-54759Y-82427D01*
X-54429Y-81631D01*
Y-81511D01*
X-41634D01*
Y-84941D01*
X-34941D01*
Y-81511D01*
X54267D01*
X54429Y-81754D01*
Y-82616D01*
X54759Y-83412D01*
X55368Y-84021D01*
X56164Y-84350D01*
X57025D01*
X57821Y-84021D01*
X58430Y-83412D01*
X58760Y-82616D01*
Y-81754D01*
X58922Y-81511D01*
X63287D01*
Y-81631D01*
X63617Y-82427D01*
X64226Y-83037D01*
X65022Y-83366D01*
X65883D01*
X66679Y-83037D01*
X67289Y-82427D01*
X67618Y-81631D01*
Y-81511D01*
X70813D01*
X71120Y-81450D01*
X71381Y-81276D01*
X71555Y-81016D01*
X71616Y-80709D01*
Y-31453D01*
X71601Y-31375D01*
Y-31296D01*
X71570Y-31223D01*
X71555Y-31146D01*
X71511Y-31080D01*
X71481Y-31007D01*
X71425Y-30951D01*
X71381Y-30885D01*
X71304Y-30610D01*
X71289Y-30297D01*
X71422Y-30164D01*
X71752Y-29368D01*
Y-28506D01*
X71422Y-27710D01*
X71232Y-27520D01*
X71381Y-26989D01*
X71425Y-26923D01*
X71481Y-26867D01*
X71511Y-26794D01*
X71555Y-26728D01*
X71570Y-26651D01*
X71601Y-26578D01*
Y-26499D01*
X71616Y-26421D01*
Y73297D01*
X72116Y73396D01*
X72295Y72964D01*
X72964Y72295D01*
X73811Y71944D01*
Y74311D01*
Y76678D01*
X72964Y76327D01*
X72295Y75658D01*
X72116Y75226D01*
X71616Y75325D01*
Y102362D01*
X71555Y102669D01*
X71381Y102930D01*
X71120Y103104D01*
X70813Y103165D01*
X55216D01*
Y103290D01*
X55042Y103940D01*
X54705Y104524D01*
X54229Y105000D01*
X53645Y105337D01*
X52994Y105512D01*
X52321D01*
X51670Y105337D01*
X51086Y105000D01*
X50610Y104524D01*
X50273Y103940D01*
X50098Y103290D01*
Y103165D01*
X44685D01*
Y109744D01*
D02*
G37*
G36*
X88132Y108071D02*
X87458D01*
X86808Y107896D01*
X86224Y107560D01*
X85747Y107083D01*
X85411Y106500D01*
X85236Y105849D01*
Y105175D01*
X85411Y104524D01*
X85747Y103940D01*
X86224Y103464D01*
X86808Y103127D01*
X87458Y102953D01*
X88132D01*
X88783Y103127D01*
X89367Y103464D01*
X89843Y103940D01*
X90180Y104524D01*
X90354Y105175D01*
Y105849D01*
X90180Y106500D01*
X89843Y107083D01*
X89367Y107560D01*
X88783Y107896D01*
X88132Y108071D01*
D02*
G37*
G36*
X100500Y101284D02*
Y99417D01*
X102367D01*
X102016Y100264D01*
X101347Y100933D01*
X100500Y101284D01*
D02*
G37*
G36*
X99500D02*
X98653Y100933D01*
X97984Y100264D01*
X97633Y99417D01*
X99500D01*
Y101284D01*
D02*
G37*
G36*
X102367Y98417D02*
X100500D01*
Y96551D01*
X101347Y96901D01*
X102016Y97570D01*
X102367Y98417D01*
D02*
G37*
G36*
X99500D02*
X97633D01*
X97984Y97570D01*
X98653Y96901D01*
X99500Y96551D01*
Y98417D01*
D02*
G37*
G36*
X-89067Y89965D02*
Y88098D01*
X-87200D01*
X-87551Y88945D01*
X-88220Y89614D01*
X-89067Y89965D01*
D02*
G37*
G36*
X-90067D02*
X-90914Y89614D01*
X-91583Y88945D01*
X-91934Y88098D01*
X-90067D01*
Y89965D01*
D02*
G37*
G36*
X-83723Y89764D02*
X-84584D01*
X-85380Y89434D01*
X-85989Y88825D01*
X-86319Y88029D01*
Y87168D01*
X-85989Y86372D01*
X-85380Y85763D01*
X-84584Y85433D01*
X-83723D01*
X-82927Y85763D01*
X-82318Y86372D01*
X-81988Y87168D01*
Y88029D01*
X-82318Y88825D01*
X-82927Y89434D01*
X-83723Y89764D01*
D02*
G37*
G36*
X-87200Y87098D02*
X-89067D01*
Y85232D01*
X-88220Y85583D01*
X-87551Y86251D01*
X-87200Y87098D01*
D02*
G37*
G36*
X-90067D02*
X-91934D01*
X-91583Y86251D01*
X-90914Y85583D01*
X-90067Y85232D01*
Y87098D01*
D02*
G37*
G36*
X98068Y88779D02*
X97207D01*
X96411Y88450D01*
X95802Y87841D01*
X95473Y87045D01*
Y86184D01*
X95802Y85388D01*
X96411Y84778D01*
X97207Y84449D01*
X98068D01*
X98864Y84778D01*
X99474Y85388D01*
X99803Y86184D01*
Y87045D01*
X99474Y87841D01*
X98864Y88450D01*
X98068Y88779D01*
D02*
G37*
G36*
X88128Y85827D02*
X87266D01*
X86470Y85497D01*
X85861Y84888D01*
X85532Y84092D01*
Y83231D01*
X85861Y82435D01*
X86470Y81826D01*
X87266Y81496D01*
X88128D01*
X88923Y81826D01*
X89533Y82435D01*
X89862Y83231D01*
Y84092D01*
X89533Y84888D01*
X88923Y85497D01*
X88128Y85827D01*
D02*
G37*
G36*
X-97010D02*
X-97872D01*
X-98668Y85497D01*
X-99277Y84888D01*
X-99606Y84092D01*
Y83231D01*
X-99277Y82435D01*
X-98668Y81826D01*
X-97872Y81496D01*
X-97010D01*
X-96214Y81826D01*
X-95605Y82435D01*
X-95276Y83231D01*
Y84092D01*
X-95605Y84888D01*
X-96214Y85497D01*
X-97010Y85827D01*
D02*
G37*
G36*
X-109343Y84469D02*
Y81215D01*
X-106088D01*
X-106343Y82164D01*
X-106837Y83021D01*
X-107536Y83720D01*
X-108393Y84215D01*
X-109343Y84469D01*
D02*
G37*
G36*
X-118217Y84470D02*
X-121472D01*
Y81215D01*
X-118217D01*
Y84470D01*
D02*
G37*
G36*
X118217Y84455D02*
Y81201D01*
X121471D01*
X121217Y82151D01*
X120722Y83007D01*
X120023Y83706D01*
X119166Y84201D01*
X118217Y84455D01*
D02*
G37*
G36*
X109343Y84457D02*
X106087D01*
Y81201D01*
X109343D01*
Y84457D01*
D02*
G37*
G36*
X101809Y84842D02*
X100947D01*
X100151Y84513D01*
X99542Y83904D01*
X99213Y83108D01*
Y82247D01*
X99542Y81451D01*
X100151Y80841D01*
X100947Y80512D01*
X101809D01*
X102604Y80841D01*
X103214Y81451D01*
X103543Y82247D01*
Y83108D01*
X103214Y83904D01*
X102604Y84513D01*
X101809Y84842D01*
D02*
G37*
G36*
X94230Y83071D02*
X93369D01*
X92573Y82741D01*
X91963Y82132D01*
X91634Y81336D01*
Y80475D01*
X91963Y79679D01*
X92573Y79070D01*
X93369Y78740D01*
X94230D01*
X95026Y79070D01*
X95635Y79679D01*
X95965Y80475D01*
Y81336D01*
X95635Y82132D01*
X95026Y82741D01*
X94230Y83071D01*
D02*
G37*
G36*
X83305D02*
X82443D01*
X81647Y82741D01*
X81038Y82132D01*
X80709Y81336D01*
Y80475D01*
X81038Y79679D01*
X81647Y79070D01*
X82443Y78740D01*
X83305D01*
X84101Y79070D01*
X84710Y79679D01*
X85039Y80475D01*
Y81336D01*
X84710Y82132D01*
X84101Y82741D01*
X83305Y83071D01*
D02*
G37*
G36*
X-78408Y82185D02*
X-79269D01*
X-80065Y81855D01*
X-80674Y81246D01*
X-81004Y80450D01*
Y79589D01*
X-80674Y78793D01*
X-80065Y78184D01*
X-79269Y77854D01*
X-78408D01*
X-77612Y78184D01*
X-77003Y78793D01*
X-76673Y79589D01*
Y80450D01*
X-77003Y81246D01*
X-77612Y81855D01*
X-78408Y82185D01*
D02*
G37*
G36*
X-87955D02*
X-88816D01*
X-89612Y81855D01*
X-90222Y81246D01*
X-90551Y80450D01*
Y79589D01*
X-90222Y78793D01*
X-89612Y78184D01*
X-88816Y77854D01*
X-87955D01*
X-87159Y78184D01*
X-86550Y78793D01*
X-86221Y79589D01*
Y80450D01*
X-86550Y81246D01*
X-87159Y81855D01*
X-87955Y82185D01*
D02*
G37*
G36*
X-113961Y84470D02*
X-117217D01*
Y80715D01*
X-117717D01*
Y80215D01*
X-121472D01*
Y76959D01*
X-118791D01*
X-118725Y76459D01*
X-119166Y76341D01*
X-120023Y75846D01*
X-120722Y75147D01*
X-121216Y74290D01*
X-121471Y73341D01*
X-117717D01*
X-113962D01*
X-114217Y74290D01*
X-114711Y75147D01*
X-115410Y75846D01*
X-116267Y76341D01*
X-116708Y76459D01*
X-116642Y76959D01*
X-113961D01*
Y79640D01*
X-113461Y79706D01*
X-113342Y79265D01*
X-112848Y78408D01*
X-112149Y77709D01*
X-111292Y77215D01*
X-110343Y76960D01*
Y80715D01*
Y84469D01*
X-111292Y84215D01*
X-112149Y83720D01*
X-112848Y83021D01*
X-113342Y82164D01*
X-113461Y81723D01*
X-113961Y81789D01*
Y84470D01*
D02*
G37*
G36*
X-106088Y80215D02*
X-109343D01*
Y76960D01*
X-108393Y77215D01*
X-107536Y77709D01*
X-106837Y78408D01*
X-106343Y79265D01*
X-106088Y80215D01*
D02*
G37*
G36*
X121471Y80201D02*
X118217D01*
Y76946D01*
X119166Y77201D01*
X120023Y77695D01*
X120722Y78395D01*
X121217Y79251D01*
X121471Y80201D01*
D02*
G37*
G36*
X113599Y84457D02*
X110343D01*
Y80701D01*
X109843D01*
Y80201D01*
X106087D01*
Y76945D01*
X108768D01*
X108834Y76445D01*
X108393Y76327D01*
X107536Y75832D01*
X106837Y75133D01*
X106343Y74277D01*
X106088Y73327D01*
X109843D01*
X113597D01*
X113342Y74277D01*
X112848Y75133D01*
X112149Y75832D01*
X111292Y76327D01*
X110851Y76445D01*
X110917Y76945D01*
X113599D01*
Y79626D01*
X114099Y79692D01*
X114217Y79251D01*
X114711Y78395D01*
X115410Y77695D01*
X116267Y77201D01*
X117217Y76946D01*
Y80701D01*
Y84455D01*
X116267Y84201D01*
X115410Y83706D01*
X114711Y83007D01*
X114217Y82151D01*
X114099Y81709D01*
X113599Y81775D01*
Y84457D01*
D02*
G37*
G36*
X-100947Y79232D02*
X-101809D01*
X-102604Y78903D01*
X-103214Y78294D01*
X-103543Y77498D01*
Y76636D01*
X-103214Y75840D01*
X-102604Y75231D01*
X-101809Y74902D01*
X-100947D01*
X-100151Y75231D01*
X-99542Y75840D01*
X-99213Y76636D01*
Y77498D01*
X-99542Y78294D01*
X-100151Y78903D01*
X-100947Y79232D01*
D02*
G37*
G36*
X74811Y76678D02*
Y74811D01*
X76678D01*
X76327Y75658D01*
X75658Y76327D01*
X74811Y76678D01*
D02*
G37*
G36*
X-67905Y76186D02*
Y74319D01*
X-66039D01*
X-66390Y75166D01*
X-67058Y75835D01*
X-67905Y76186D01*
D02*
G37*
G36*
X-68906D02*
X-69753Y75835D01*
X-70421Y75166D01*
X-70772Y74319D01*
X-68906D01*
Y76186D01*
D02*
G37*
G36*
X76678Y73811D02*
X74811D01*
Y71944D01*
X75658Y72295D01*
X76327Y72964D01*
X76678Y73811D01*
D02*
G37*
G36*
X-66039Y73319D02*
X-67905D01*
Y71452D01*
X-67058Y71803D01*
X-66390Y72472D01*
X-66039Y73319D01*
D02*
G37*
G36*
X-68906D02*
X-70772D01*
X-70421Y72472D01*
X-69753Y71803D01*
X-68906Y71452D01*
Y73319D01*
D02*
G37*
G36*
X-109376Y76384D02*
X-110309D01*
X-111210Y76142D01*
X-112018Y75676D01*
X-112678Y75016D01*
X-113144Y74208D01*
X-113386Y73307D01*
Y72374D01*
X-113144Y71473D01*
X-112678Y70665D01*
X-112018Y70005D01*
X-111210Y69539D01*
X-110309Y69297D01*
X-109376D01*
X-108475Y69539D01*
X-107667Y70005D01*
X-107007Y70665D01*
X-106541Y71473D01*
X-106299Y72374D01*
Y73307D01*
X-106541Y74208D01*
X-107007Y75016D01*
X-107667Y75676D01*
X-108475Y76142D01*
X-109376Y76384D01*
D02*
G37*
G36*
X118183Y76370D02*
X117250D01*
X116349Y76129D01*
X115541Y75662D01*
X114881Y75002D01*
X114415Y74194D01*
X114173Y73293D01*
Y72360D01*
X114415Y71459D01*
X114881Y70651D01*
X115541Y69991D01*
X116349Y69525D01*
X117250Y69283D01*
X118183D01*
X119084Y69525D01*
X119892Y69991D01*
X120552Y70651D01*
X121019Y71459D01*
X121260Y72360D01*
Y73293D01*
X121019Y74194D01*
X120552Y75002D01*
X119892Y75662D01*
X119084Y76129D01*
X118183Y76370D01*
D02*
G37*
G36*
X-113962Y72341D02*
X-117217D01*
Y69086D01*
X-116267Y69341D01*
X-115410Y69835D01*
X-114711Y70534D01*
X-114217Y71391D01*
X-113962Y72341D01*
D02*
G37*
G36*
X-118217D02*
X-121471D01*
X-121216Y71391D01*
X-120722Y70534D01*
X-120023Y69835D01*
X-119166Y69341D01*
X-118217Y69086D01*
Y72341D01*
D02*
G37*
G36*
X113597Y72327D02*
X110343D01*
Y69072D01*
X111292Y69327D01*
X112149Y69821D01*
X112848Y70521D01*
X113342Y71377D01*
X113597Y72327D01*
D02*
G37*
G36*
X109343D02*
X106088D01*
X106343Y71377D01*
X106837Y70521D01*
X107536Y69821D01*
X108393Y69327D01*
X109343Y69072D01*
Y72327D01*
D02*
G37*
G36*
X75234Y70472D02*
X74372D01*
X73577Y70143D01*
X72967Y69534D01*
X72638Y68738D01*
Y67876D01*
X72967Y67080D01*
X73577Y66471D01*
X74372Y66142D01*
X75234D01*
X76030Y66471D01*
X76639Y67080D01*
X76968Y67876D01*
Y68738D01*
X76639Y69534D01*
X76030Y70143D01*
X75234Y70472D01*
D02*
G37*
G36*
X-68201Y70398D02*
X-69063D01*
X-69858Y70069D01*
X-70468Y69459D01*
X-70797Y68664D01*
Y67802D01*
X-70468Y67006D01*
X-69858Y66397D01*
X-69063Y66067D01*
X-68201D01*
X-67405Y66397D01*
X-66796Y67006D01*
X-66466Y67802D01*
Y68664D01*
X-66796Y69459D01*
X-67405Y70069D01*
X-68201Y70398D01*
D02*
G37*
G36*
X-109376Y68510D02*
X-110309D01*
X-111210Y68268D01*
X-112018Y67802D01*
X-112678Y67142D01*
X-113144Y66334D01*
X-113386Y65433D01*
Y64500D01*
X-113144Y63599D01*
X-112678Y62791D01*
X-112018Y62131D01*
X-111210Y61665D01*
X-110309Y61423D01*
X-109376D01*
X-108475Y61665D01*
X-107667Y62131D01*
X-107007Y62791D01*
X-106541Y63599D01*
X-106299Y64500D01*
Y65433D01*
X-106541Y66334D01*
X-107007Y67142D01*
X-107667Y67802D01*
X-108475Y68268D01*
X-109376Y68510D01*
D02*
G37*
G36*
X-117250D02*
X-118183D01*
X-119084Y68268D01*
X-119892Y67802D01*
X-120552Y67142D01*
X-121018Y66334D01*
X-121260Y65433D01*
Y64500D01*
X-121018Y63599D01*
X-120552Y62791D01*
X-119892Y62131D01*
X-119084Y61665D01*
X-118183Y61423D01*
X-117250D01*
X-116349Y61665D01*
X-115541Y62131D01*
X-114881Y62791D01*
X-114415Y63599D01*
X-114173Y64500D01*
Y65433D01*
X-114415Y66334D01*
X-114881Y67142D01*
X-115541Y67802D01*
X-116349Y68268D01*
X-117250Y68510D01*
D02*
G37*
G36*
X118183Y68496D02*
X117250D01*
X116349Y68255D01*
X115541Y67788D01*
X114881Y67128D01*
X114415Y66320D01*
X114173Y65419D01*
Y64486D01*
X114415Y63585D01*
X114881Y62777D01*
X115541Y62117D01*
X116349Y61651D01*
X117250Y61409D01*
X118183D01*
X119084Y61651D01*
X119892Y62117D01*
X120552Y62777D01*
X121019Y63585D01*
X121260Y64486D01*
Y65419D01*
X121019Y66320D01*
X120552Y67128D01*
X119892Y67788D01*
X119084Y68255D01*
X118183Y68496D01*
D02*
G37*
G36*
X110309D02*
X109376D01*
X108475Y68255D01*
X107667Y67788D01*
X107007Y67128D01*
X106541Y66320D01*
X106299Y65419D01*
Y64486D01*
X106541Y63585D01*
X107007Y62777D01*
X107667Y62117D01*
X108475Y61651D01*
X109376Y61409D01*
X110309D01*
X111210Y61651D01*
X112018Y62117D01*
X112678Y62777D01*
X113144Y63585D01*
X113386Y64486D01*
Y65419D01*
X113144Y66320D01*
X112678Y67128D01*
X112018Y67788D01*
X111210Y68255D01*
X110309Y68496D01*
D02*
G37*
G36*
X-93565Y65650D02*
X-94427D01*
X-95223Y65320D01*
X-95832Y64711D01*
X-96161Y63915D01*
Y63054D01*
X-95832Y62258D01*
X-95223Y61649D01*
X-94427Y61319D01*
X-93565D01*
X-92769Y61649D01*
X-92160Y62258D01*
X-91831Y63054D01*
Y63915D01*
X-92160Y64711D01*
X-92769Y65320D01*
X-93565Y65650D01*
D02*
G37*
G36*
X-78142Y62898D02*
Y61032D01*
X-76275D01*
X-76626Y61879D01*
X-77295Y62547D01*
X-78142Y62898D01*
D02*
G37*
G36*
X-79142D02*
X-79989Y62547D01*
X-80658Y61879D01*
X-81008Y61032D01*
X-79142D01*
Y62898D01*
D02*
G37*
G36*
X94131Y63583D02*
X93270D01*
X92474Y63253D01*
X91865Y62644D01*
X91535Y61848D01*
Y60987D01*
X91865Y60191D01*
X92474Y59582D01*
X93270Y59252D01*
X94131D01*
X94927Y59582D01*
X95537Y60191D01*
X95866Y60987D01*
Y61848D01*
X95537Y62644D01*
X94927Y63253D01*
X94131Y63583D01*
D02*
G37*
G36*
X84850Y60733D02*
Y58866D01*
X86717D01*
X86366Y59713D01*
X85697Y60382D01*
X84850Y60733D01*
D02*
G37*
G36*
X83850D02*
X83003Y60382D01*
X82335Y59713D01*
X81984Y58866D01*
X83850D01*
Y60733D01*
D02*
G37*
G36*
X-76275Y60031D02*
X-78142D01*
Y58165D01*
X-77295Y58516D01*
X-76626Y59184D01*
X-76275Y60031D01*
D02*
G37*
G36*
X-79142D02*
X-81008D01*
X-80658Y59184D01*
X-79989Y58516D01*
X-79142Y58165D01*
Y60031D01*
D02*
G37*
G36*
X86717Y57866D02*
X84850D01*
Y55999D01*
X85697Y56350D01*
X86366Y57019D01*
X86717Y57866D01*
D02*
G37*
G36*
X83850D02*
X81984D01*
X82335Y57019D01*
X83003Y56350D01*
X83850Y55999D01*
Y57866D01*
D02*
G37*
G36*
X-109376Y60636D02*
X-110309D01*
X-111210Y60394D01*
X-112018Y59928D01*
X-112678Y59268D01*
X-113144Y58460D01*
X-113386Y57559D01*
Y56626D01*
X-113144Y55725D01*
X-112678Y54917D01*
X-112018Y54257D01*
X-111210Y53791D01*
X-110309Y53549D01*
X-109376D01*
X-108475Y53791D01*
X-107667Y54257D01*
X-107007Y54917D01*
X-106541Y55725D01*
X-106299Y56626D01*
Y57559D01*
X-106541Y58460D01*
X-107007Y59268D01*
X-107667Y59928D01*
X-108475Y60394D01*
X-109376Y60636D01*
D02*
G37*
G36*
X-117250D02*
X-118183D01*
X-119084Y60394D01*
X-119892Y59928D01*
X-120552Y59268D01*
X-121018Y58460D01*
X-121260Y57559D01*
Y56626D01*
X-121018Y55725D01*
X-120552Y54917D01*
X-119892Y54257D01*
X-119084Y53791D01*
X-118183Y53549D01*
X-117250D01*
X-116349Y53791D01*
X-115541Y54257D01*
X-114881Y54917D01*
X-114415Y55725D01*
X-114173Y56626D01*
Y57559D01*
X-114415Y58460D01*
X-114881Y59268D01*
X-115541Y59928D01*
X-116349Y60394D01*
X-117250Y60636D01*
D02*
G37*
G36*
X118183Y60622D02*
X117250D01*
X116349Y60381D01*
X115541Y59914D01*
X114881Y59254D01*
X114415Y58446D01*
X114173Y57545D01*
Y56612D01*
X114415Y55711D01*
X114881Y54903D01*
X115541Y54243D01*
X116349Y53777D01*
X117250Y53535D01*
X118183D01*
X119084Y53777D01*
X119892Y54243D01*
X120552Y54903D01*
X121019Y55711D01*
X121260Y56612D01*
Y57545D01*
X121019Y58446D01*
X120552Y59254D01*
X119892Y59914D01*
X119084Y60381D01*
X118183Y60622D01*
D02*
G37*
G36*
X110309D02*
X109376D01*
X108475Y60381D01*
X107667Y59914D01*
X107007Y59254D01*
X106541Y58446D01*
X106299Y57545D01*
Y56612D01*
X106541Y55711D01*
X107007Y54903D01*
X107667Y54243D01*
X108475Y53777D01*
X109376Y53535D01*
X110309D01*
X111210Y53777D01*
X112018Y54243D01*
X112678Y54903D01*
X113144Y55711D01*
X113386Y56612D01*
Y57545D01*
X113144Y58446D01*
X112678Y59254D01*
X112018Y59914D01*
X111210Y60381D01*
X110309Y60622D01*
D02*
G37*
G36*
X-109376Y52762D02*
X-110309D01*
X-111210Y52520D01*
X-112018Y52054D01*
X-112678Y51394D01*
X-113144Y50586D01*
X-113386Y49685D01*
Y48752D01*
X-113144Y47851D01*
X-112678Y47043D01*
X-112018Y46383D01*
X-111210Y45917D01*
X-110309Y45675D01*
X-109376D01*
X-108475Y45917D01*
X-107667Y46383D01*
X-107007Y47043D01*
X-106541Y47851D01*
X-106299Y48752D01*
Y49685D01*
X-106541Y50586D01*
X-107007Y51394D01*
X-107667Y52054D01*
X-108475Y52520D01*
X-109376Y52762D01*
D02*
G37*
G36*
X-117250D02*
X-118183D01*
X-119084Y52520D01*
X-119892Y52054D01*
X-120552Y51394D01*
X-121018Y50586D01*
X-121260Y49685D01*
Y48752D01*
X-121018Y47851D01*
X-120552Y47043D01*
X-119892Y46383D01*
X-119084Y45917D01*
X-118183Y45675D01*
X-117250D01*
X-116349Y45917D01*
X-115541Y46383D01*
X-114881Y47043D01*
X-114415Y47851D01*
X-114173Y48752D01*
Y49685D01*
X-114415Y50586D01*
X-114881Y51394D01*
X-115541Y52054D01*
X-116349Y52520D01*
X-117250Y52762D01*
D02*
G37*
G36*
X118183Y52748D02*
X117250D01*
X116349Y52507D01*
X115541Y52040D01*
X114881Y51380D01*
X114415Y50572D01*
X114173Y49671D01*
Y48738D01*
X114415Y47837D01*
X114881Y47029D01*
X115541Y46369D01*
X116349Y45903D01*
X117250Y45661D01*
X118183D01*
X119084Y45903D01*
X119892Y46369D01*
X120552Y47029D01*
X121019Y47837D01*
X121260Y48738D01*
Y49671D01*
X121019Y50572D01*
X120552Y51380D01*
X119892Y52040D01*
X119084Y52507D01*
X118183Y52748D01*
D02*
G37*
G36*
X110309D02*
X109376D01*
X108475Y52507D01*
X107667Y52040D01*
X107007Y51380D01*
X106541Y50572D01*
X106299Y49671D01*
Y48738D01*
X106541Y47837D01*
X107007Y47029D01*
X107667Y46369D01*
X108475Y45903D01*
X109376Y45661D01*
X110309D01*
X111210Y45903D01*
X112018Y46369D01*
X112678Y47029D01*
X113144Y47837D01*
X113386Y48738D01*
Y49671D01*
X113144Y50572D01*
X112678Y51380D01*
X112018Y52040D01*
X111210Y52507D01*
X110309Y52748D01*
D02*
G37*
G36*
X83206Y43299D02*
X82345D01*
X81549Y42970D01*
X80940Y42360D01*
X80610Y41565D01*
Y40703D01*
X80940Y39907D01*
X81549Y39298D01*
X82345Y38969D01*
X83206D01*
X84002Y39298D01*
X84611Y39907D01*
X84941Y40703D01*
Y41565D01*
X84611Y42360D01*
X84002Y42970D01*
X83206Y43299D01*
D02*
G37*
G36*
X-78310Y42520D02*
X-79171D01*
X-79967Y42190D01*
X-80576Y41581D01*
X-80905Y40785D01*
Y39924D01*
X-80576Y39128D01*
X-79967Y38519D01*
X-79171Y38189D01*
X-78310D01*
X-77514Y38519D01*
X-76904Y39128D01*
X-76575Y39924D01*
Y40785D01*
X-76904Y41581D01*
X-77514Y42190D01*
X-78310Y42520D01*
D02*
G37*
G36*
X-109376Y44888D02*
X-110309D01*
X-111210Y44646D01*
X-112018Y44180D01*
X-112678Y43520D01*
X-113144Y42712D01*
X-113386Y41811D01*
Y40878D01*
X-113144Y39977D01*
X-112678Y39169D01*
X-112018Y38509D01*
X-111210Y38043D01*
X-110309Y37801D01*
X-109376D01*
X-108475Y38043D01*
X-107667Y38509D01*
X-107007Y39169D01*
X-106541Y39977D01*
X-106299Y40878D01*
Y41811D01*
X-106541Y42712D01*
X-107007Y43520D01*
X-107667Y44180D01*
X-108475Y44646D01*
X-109376Y44888D01*
D02*
G37*
G36*
X-117250D02*
X-118183D01*
X-119084Y44646D01*
X-119892Y44180D01*
X-120552Y43520D01*
X-121018Y42712D01*
X-121260Y41811D01*
Y40878D01*
X-121018Y39977D01*
X-120552Y39169D01*
X-119892Y38509D01*
X-119084Y38043D01*
X-118183Y37801D01*
X-117250D01*
X-116349Y38043D01*
X-115541Y38509D01*
X-114881Y39169D01*
X-114415Y39977D01*
X-114173Y40878D01*
Y41811D01*
X-114415Y42712D01*
X-114881Y43520D01*
X-115541Y44180D01*
X-116349Y44646D01*
X-117250Y44888D01*
D02*
G37*
G36*
X118183Y44874D02*
X117250D01*
X116349Y44633D01*
X115541Y44166D01*
X114881Y43506D01*
X114415Y42698D01*
X114173Y41797D01*
Y40864D01*
X114415Y39963D01*
X114881Y39155D01*
X115541Y38495D01*
X116349Y38029D01*
X117250Y37787D01*
X118183D01*
X119084Y38029D01*
X119892Y38495D01*
X120552Y39155D01*
X121019Y39963D01*
X121260Y40864D01*
Y41797D01*
X121019Y42698D01*
X120552Y43506D01*
X119892Y44166D01*
X119084Y44633D01*
X118183Y44874D01*
D02*
G37*
G36*
X110309D02*
X109376D01*
X108475Y44633D01*
X107667Y44166D01*
X107007Y43506D01*
X106541Y42698D01*
X106299Y41797D01*
Y40864D01*
X106541Y39963D01*
X107007Y39155D01*
X107667Y38495D01*
X108475Y38029D01*
X109376Y37787D01*
X110309D01*
X111210Y38029D01*
X112018Y38495D01*
X112678Y39155D01*
X113144Y39963D01*
X113386Y40864D01*
Y41797D01*
X113144Y42698D01*
X112678Y43506D01*
X112018Y44166D01*
X111210Y44633D01*
X110309Y44874D01*
D02*
G37*
G36*
X88226Y41142D02*
X87365D01*
X86569Y40812D01*
X85960Y40203D01*
X85630Y39407D01*
Y38546D01*
X85960Y37750D01*
X86569Y37141D01*
X87365Y36811D01*
X88226D01*
X89022Y37141D01*
X89631Y37750D01*
X89961Y38546D01*
Y39407D01*
X89631Y40203D01*
X89022Y40812D01*
X88226Y41142D01*
D02*
G37*
G36*
X-83723Y40551D02*
X-84584D01*
X-85380Y40222D01*
X-85989Y39612D01*
X-86319Y38816D01*
Y37955D01*
X-85989Y37159D01*
X-85380Y36550D01*
X-84584Y36220D01*
X-83723D01*
X-82927Y36550D01*
X-82318Y37159D01*
X-81988Y37955D01*
Y38816D01*
X-82318Y39612D01*
X-82927Y40222D01*
X-83723Y40551D01*
D02*
G37*
G36*
X98068Y39567D02*
X97207D01*
X96411Y39237D01*
X95802Y38628D01*
X95473Y37832D01*
Y36971D01*
X95802Y36175D01*
X96411Y35566D01*
X97207Y35236D01*
X98068D01*
X98864Y35566D01*
X99474Y36175D01*
X99803Y36971D01*
Y37832D01*
X99474Y38628D01*
X98864Y39237D01*
X98068Y39567D01*
D02*
G37*
G36*
X-97010Y37106D02*
X-97872D01*
X-98668Y36777D01*
X-99277Y36167D01*
X-99606Y35372D01*
Y34510D01*
X-99277Y33714D01*
X-98668Y33105D01*
X-97872Y32776D01*
X-97010D01*
X-96214Y33105D01*
X-95605Y33714D01*
X-95276Y34510D01*
Y35372D01*
X-95605Y36167D01*
X-96214Y36777D01*
X-97010Y37106D01*
D02*
G37*
G36*
X90982Y34449D02*
X90121D01*
X89325Y34119D01*
X88715Y33510D01*
X88386Y32714D01*
Y31853D01*
X88715Y31057D01*
X89325Y30448D01*
X90121Y30118D01*
X90982D01*
X91778Y30448D01*
X92387Y31057D01*
X92716Y31853D01*
Y32714D01*
X92387Y33510D01*
X91778Y34119D01*
X90982Y34449D01*
D02*
G37*
G36*
X83108Y34352D02*
X82247D01*
X81451Y34022D01*
X80841Y33413D01*
X80512Y32617D01*
Y31756D01*
X80841Y30960D01*
X81451Y30351D01*
X82247Y30021D01*
X83108D01*
X83904Y30351D01*
X84513Y30960D01*
X84842Y31756D01*
Y32617D01*
X84513Y33413D01*
X83904Y34022D01*
X83108Y34352D01*
D02*
G37*
G36*
X-87857D02*
X-88718D01*
X-89514Y34022D01*
X-90123Y33413D01*
X-90453Y32617D01*
Y31756D01*
X-90123Y30960D01*
X-89514Y30351D01*
X-88718Y30021D01*
X-87857D01*
X-87061Y30351D01*
X-86452Y30960D01*
X-86122Y31756D01*
Y32617D01*
X-86452Y33413D01*
X-87061Y34022D01*
X-87857Y34352D01*
D02*
G37*
G36*
X-76932Y34350D02*
X-77793D01*
X-78589Y34021D01*
X-79198Y33412D01*
X-79527Y32616D01*
Y31754D01*
X-79198Y30959D01*
X-78589Y30349D01*
X-77793Y30020D01*
X-76932D01*
X-76136Y30349D01*
X-75526Y30959D01*
X-75197Y31754D01*
Y32616D01*
X-75526Y33412D01*
X-76136Y34021D01*
X-76932Y34350D01*
D02*
G37*
G36*
X-109376Y37014D02*
X-110309D01*
X-111210Y36772D01*
X-112018Y36306D01*
X-112678Y35646D01*
X-113144Y34838D01*
X-113386Y33937D01*
Y33004D01*
X-113144Y32103D01*
X-112678Y31295D01*
X-112018Y30635D01*
X-111210Y30169D01*
X-110309Y29927D01*
X-109376D01*
X-108475Y30169D01*
X-107667Y30635D01*
X-107007Y31295D01*
X-106541Y32103D01*
X-106299Y33004D01*
Y33937D01*
X-106541Y34838D01*
X-107007Y35646D01*
X-107667Y36306D01*
X-108475Y36772D01*
X-109376Y37014D01*
D02*
G37*
G36*
X-117250D02*
X-118183D01*
X-119084Y36772D01*
X-119892Y36306D01*
X-120552Y35646D01*
X-121018Y34838D01*
X-121260Y33937D01*
Y33004D01*
X-121018Y32103D01*
X-120552Y31295D01*
X-119892Y30635D01*
X-119084Y30169D01*
X-118183Y29927D01*
X-117250D01*
X-116349Y30169D01*
X-115541Y30635D01*
X-114881Y31295D01*
X-114415Y32103D01*
X-114173Y33004D01*
Y33937D01*
X-114415Y34838D01*
X-114881Y35646D01*
X-115541Y36306D01*
X-116349Y36772D01*
X-117250Y37014D01*
D02*
G37*
G36*
X118183Y37000D02*
X117250D01*
X116349Y36759D01*
X115541Y36292D01*
X114881Y35632D01*
X114415Y34824D01*
X114173Y33923D01*
Y32990D01*
X114415Y32089D01*
X114881Y31281D01*
X115541Y30621D01*
X116349Y30155D01*
X117250Y29913D01*
X118183D01*
X119084Y30155D01*
X119892Y30621D01*
X120552Y31281D01*
X121019Y32089D01*
X121260Y32990D01*
Y33923D01*
X121019Y34824D01*
X120552Y35632D01*
X119892Y36292D01*
X119084Y36759D01*
X118183Y37000D01*
D02*
G37*
G36*
X110309D02*
X109376D01*
X108475Y36759D01*
X107667Y36292D01*
X107007Y35632D01*
X106541Y34824D01*
X106299Y33923D01*
Y32990D01*
X106541Y32089D01*
X107007Y31281D01*
X107667Y30621D01*
X108475Y30155D01*
X109376Y29913D01*
X110309D01*
X111210Y30155D01*
X112018Y30621D01*
X112678Y31281D01*
X113144Y32089D01*
X113386Y32990D01*
Y33923D01*
X113144Y34824D01*
X112678Y35632D01*
X112018Y36292D01*
X111210Y36759D01*
X110309Y37000D01*
D02*
G37*
G36*
X101809Y31299D02*
X100947D01*
X100151Y30970D01*
X99542Y30360D01*
X99213Y29565D01*
Y28703D01*
X99542Y27907D01*
X100151Y27298D01*
X100947Y26969D01*
X101809D01*
X102604Y27298D01*
X103214Y27907D01*
X103543Y28703D01*
Y29565D01*
X103214Y30360D01*
X102604Y30970D01*
X101809Y31299D01*
D02*
G37*
G36*
X-100947Y31201D02*
X-101809D01*
X-102604Y30871D01*
X-103214Y30262D01*
X-103543Y29466D01*
Y28605D01*
X-103214Y27809D01*
X-102604Y27200D01*
X-101809Y26870D01*
X-100947D01*
X-100151Y27200D01*
X-99542Y27809D01*
X-99213Y28605D01*
Y29466D01*
X-99542Y30262D01*
X-100151Y30871D01*
X-100947Y31201D01*
D02*
G37*
G36*
X-68890Y27564D02*
Y25697D01*
X-67023D01*
X-67374Y26544D01*
X-68043Y27213D01*
X-68890Y27564D01*
D02*
G37*
G36*
X-69890D02*
X-70737Y27213D01*
X-71406Y26544D01*
X-71757Y25697D01*
X-69890D01*
Y27564D01*
D02*
G37*
G36*
X75303Y27465D02*
Y25598D01*
X77170D01*
X76819Y26445D01*
X76150Y27114D01*
X75303Y27465D01*
D02*
G37*
G36*
X74303D02*
X73456Y27114D01*
X72787Y26445D01*
X72436Y25598D01*
X74303D01*
Y27465D01*
D02*
G37*
G36*
X-67023Y24697D02*
X-68890D01*
Y22830D01*
X-68043Y23181D01*
X-67374Y23850D01*
X-67023Y24697D01*
D02*
G37*
G36*
X-69890D02*
X-71757D01*
X-71406Y23850D01*
X-70737Y23181D01*
X-69890Y22830D01*
Y24697D01*
D02*
G37*
G36*
X77170Y24598D02*
X75303D01*
Y22732D01*
X76150Y23083D01*
X76819Y23751D01*
X77170Y24598D01*
D02*
G37*
G36*
X74303D02*
X72436D01*
X72787Y23751D01*
X73456Y23083D01*
X74303Y22732D01*
Y24598D01*
D02*
G37*
G36*
X-109376Y29140D02*
X-110309D01*
X-111210Y28898D01*
X-112018Y28432D01*
X-112678Y27772D01*
X-113144Y26964D01*
X-113386Y26063D01*
Y25130D01*
X-113144Y24229D01*
X-112678Y23421D01*
X-112018Y22761D01*
X-111210Y22295D01*
X-110309Y22053D01*
X-109376D01*
X-108475Y22295D01*
X-107667Y22761D01*
X-107007Y23421D01*
X-106541Y24229D01*
X-106299Y25130D01*
Y26063D01*
X-106541Y26964D01*
X-107007Y27772D01*
X-107667Y28432D01*
X-108475Y28898D01*
X-109376Y29140D01*
D02*
G37*
G36*
X-117250D02*
X-118183D01*
X-119084Y28898D01*
X-119892Y28432D01*
X-120552Y27772D01*
X-121018Y26964D01*
X-121260Y26063D01*
Y25130D01*
X-121018Y24229D01*
X-120552Y23421D01*
X-119892Y22761D01*
X-119084Y22295D01*
X-118183Y22053D01*
X-117250D01*
X-116349Y22295D01*
X-115541Y22761D01*
X-114881Y23421D01*
X-114415Y24229D01*
X-114173Y25130D01*
Y26063D01*
X-114415Y26964D01*
X-114881Y27772D01*
X-115541Y28432D01*
X-116349Y28898D01*
X-117250Y29140D01*
D02*
G37*
G36*
X118183Y29126D02*
X117250D01*
X116349Y28885D01*
X115541Y28418D01*
X114881Y27758D01*
X114415Y26950D01*
X114173Y26049D01*
Y25116D01*
X114415Y24215D01*
X114881Y23407D01*
X115541Y22747D01*
X116349Y22281D01*
X117250Y22039D01*
X118183D01*
X119084Y22281D01*
X119892Y22747D01*
X120552Y23407D01*
X121019Y24215D01*
X121260Y25116D01*
Y26049D01*
X121019Y26950D01*
X120552Y27758D01*
X119892Y28418D01*
X119084Y28885D01*
X118183Y29126D01*
D02*
G37*
G36*
X110309D02*
X109376D01*
X108475Y28885D01*
X107667Y28418D01*
X107007Y27758D01*
X106541Y26950D01*
X106299Y26049D01*
Y25116D01*
X106541Y24215D01*
X107007Y23407D01*
X107667Y22747D01*
X108475Y22281D01*
X109376Y22039D01*
X110309D01*
X111210Y22281D01*
X112018Y22747D01*
X112678Y23407D01*
X113144Y24215D01*
X113386Y25116D01*
Y26049D01*
X113144Y26950D01*
X112678Y27758D01*
X112018Y28418D01*
X111210Y28885D01*
X110309Y29126D01*
D02*
G37*
G36*
X75140Y22146D02*
X74466D01*
X73815Y21971D01*
X73232Y21634D01*
X72755Y21158D01*
X72418Y20574D01*
X72244Y19924D01*
Y19250D01*
X72418Y18599D01*
X72755Y18015D01*
X73232Y17539D01*
X73815Y17202D01*
X74466Y17028D01*
X75140D01*
X75791Y17202D01*
X76374Y17539D01*
X76851Y18015D01*
X77188Y18599D01*
X77362Y19250D01*
Y19924D01*
X77188Y20574D01*
X76851Y21158D01*
X76374Y21634D01*
X75791Y21971D01*
X75140Y22146D01*
D02*
G37*
G36*
X-68959Y21063D02*
X-69820D01*
X-70616Y20733D01*
X-71226Y20124D01*
X-71555Y19328D01*
Y18467D01*
X-71226Y17671D01*
X-70616Y17062D01*
X-69820Y16732D01*
X-68959D01*
X-68163Y17062D01*
X-67554Y17671D01*
X-67224Y18467D01*
Y19328D01*
X-67554Y20124D01*
X-68163Y20733D01*
X-68959Y21063D01*
D02*
G37*
G36*
X-109376Y21266D02*
X-110309D01*
X-111210Y21024D01*
X-112018Y20558D01*
X-112678Y19898D01*
X-113144Y19090D01*
X-113386Y18189D01*
Y17256D01*
X-113144Y16355D01*
X-112678Y15547D01*
X-112018Y14887D01*
X-111210Y14421D01*
X-110309Y14179D01*
X-109376D01*
X-108475Y14421D01*
X-107667Y14887D01*
X-107007Y15547D01*
X-106541Y16355D01*
X-106299Y17256D01*
Y18189D01*
X-106541Y19090D01*
X-107007Y19898D01*
X-107667Y20558D01*
X-108475Y21024D01*
X-109376Y21266D01*
D02*
G37*
G36*
X-117250D02*
X-118183D01*
X-119084Y21024D01*
X-119892Y20558D01*
X-120552Y19898D01*
X-121018Y19090D01*
X-121260Y18189D01*
Y17256D01*
X-121018Y16355D01*
X-120552Y15547D01*
X-119892Y14887D01*
X-119084Y14421D01*
X-118183Y14179D01*
X-117250D01*
X-116349Y14421D01*
X-115541Y14887D01*
X-114881Y15547D01*
X-114415Y16355D01*
X-114173Y17256D01*
Y18189D01*
X-114415Y19090D01*
X-114881Y19898D01*
X-115541Y20558D01*
X-116349Y21024D01*
X-117250Y21266D01*
D02*
G37*
G36*
X118183Y21252D02*
X117250D01*
X116349Y21011D01*
X115541Y20544D01*
X114881Y19884D01*
X114415Y19076D01*
X114173Y18175D01*
Y17242D01*
X114415Y16341D01*
X114881Y15533D01*
X115541Y14873D01*
X116349Y14407D01*
X117250Y14165D01*
X118183D01*
X119084Y14407D01*
X119892Y14873D01*
X120552Y15533D01*
X121019Y16341D01*
X121260Y17242D01*
Y18175D01*
X121019Y19076D01*
X120552Y19884D01*
X119892Y20544D01*
X119084Y21011D01*
X118183Y21252D01*
D02*
G37*
G36*
X110309D02*
X109376D01*
X108475Y21011D01*
X107667Y20544D01*
X107007Y19884D01*
X106541Y19076D01*
X106299Y18175D01*
Y17242D01*
X106541Y16341D01*
X107007Y15533D01*
X107667Y14873D01*
X108475Y14407D01*
X109376Y14165D01*
X110309D01*
X111210Y14407D01*
X112018Y14873D01*
X112678Y15533D01*
X113144Y16341D01*
X113386Y17242D01*
Y18175D01*
X113144Y19076D01*
X112678Y19884D01*
X112018Y20544D01*
X111210Y21011D01*
X110309Y21252D01*
D02*
G37*
G36*
X-93565Y15945D02*
X-94427D01*
X-95223Y15615D01*
X-95832Y15006D01*
X-96161Y14210D01*
Y13349D01*
X-95832Y12553D01*
X-95223Y11944D01*
X-94427Y11614D01*
X-93565D01*
X-92769Y11944D01*
X-92160Y12553D01*
X-91831Y13349D01*
Y14210D01*
X-92160Y15006D01*
X-92769Y15615D01*
X-93565Y15945D01*
D02*
G37*
G36*
X-78634Y12406D02*
Y10539D01*
X-76767D01*
X-77118Y11386D01*
X-77787Y12055D01*
X-78634Y12406D01*
D02*
G37*
G36*
X-79634D02*
X-80481Y12055D01*
X-81150Y11386D01*
X-81501Y10539D01*
X-79634D01*
Y12406D01*
D02*
G37*
G36*
X94131Y14764D02*
X93270D01*
X92474Y14434D01*
X91865Y13825D01*
X91535Y13029D01*
Y12168D01*
X91865Y11372D01*
X92474Y10763D01*
X93270Y10433D01*
X94131D01*
X94927Y10763D01*
X95537Y11372D01*
X95866Y12168D01*
Y13029D01*
X95537Y13825D01*
X94927Y14434D01*
X94131Y14764D01*
D02*
G37*
G36*
X-109343Y13603D02*
Y10349D01*
X-106088D01*
X-106343Y11298D01*
X-106837Y12155D01*
X-107536Y12854D01*
X-108393Y13348D01*
X-109343Y13603D01*
D02*
G37*
G36*
X-110343D02*
X-111292Y13348D01*
X-112149Y12854D01*
X-112848Y12155D01*
X-113342Y11298D01*
X-113597Y10349D01*
X-110343D01*
Y13603D01*
D02*
G37*
G36*
X84752Y12209D02*
Y10343D01*
X86619D01*
X86268Y11190D01*
X85599Y11858D01*
X84752Y12209D01*
D02*
G37*
G36*
X83752D02*
X82905Y11858D01*
X82236Y11190D01*
X81885Y10343D01*
X83752D01*
Y12209D01*
D02*
G37*
G36*
X118217Y13589D02*
Y10335D01*
X121471D01*
X121217Y11284D01*
X120722Y12141D01*
X120023Y12840D01*
X119166Y13335D01*
X118217Y13589D01*
D02*
G37*
G36*
X117217D02*
X116267Y13335D01*
X115410Y12840D01*
X114711Y12141D01*
X114217Y11284D01*
X113962Y10335D01*
X117217D01*
Y13589D01*
D02*
G37*
G36*
X-76767Y9539D02*
X-78634D01*
Y7673D01*
X-77787Y8023D01*
X-77118Y8692D01*
X-76767Y9539D01*
D02*
G37*
G36*
X-79634D02*
X-81501D01*
X-81150Y8692D01*
X-80481Y8023D01*
X-79634Y7673D01*
Y9539D01*
D02*
G37*
G36*
X86619Y9342D02*
X84752D01*
Y7476D01*
X85599Y7827D01*
X86268Y8495D01*
X86619Y9342D01*
D02*
G37*
G36*
X83752D02*
X81885D01*
X82236Y8495D01*
X82905Y7827D01*
X83752Y7476D01*
Y9342D01*
D02*
G37*
G36*
X-117250Y13392D02*
X-118183D01*
X-119084Y13150D01*
X-119892Y12684D01*
X-120552Y12024D01*
X-121018Y11216D01*
X-121260Y10315D01*
Y9382D01*
X-121018Y8481D01*
X-120552Y7673D01*
X-119892Y7013D01*
X-119084Y6547D01*
X-118183Y6305D01*
X-117250D01*
X-116349Y6547D01*
X-115541Y7013D01*
X-114881Y7673D01*
X-114415Y8481D01*
X-114173Y9382D01*
Y10315D01*
X-114415Y11216D01*
X-114881Y12024D01*
X-115541Y12684D01*
X-116349Y13150D01*
X-117250Y13392D01*
D02*
G37*
G36*
X110309Y13378D02*
X109376D01*
X108475Y13137D01*
X107667Y12670D01*
X107007Y12010D01*
X106541Y11202D01*
X106299Y10301D01*
Y9368D01*
X106541Y8467D01*
X107007Y7659D01*
X107667Y6999D01*
X108475Y6533D01*
X109376Y6291D01*
X110309D01*
X111210Y6533D01*
X112018Y6999D01*
X112678Y7659D01*
X113144Y8467D01*
X113386Y9368D01*
Y10301D01*
X113144Y11202D01*
X112678Y12010D01*
X112018Y12670D01*
X111210Y13137D01*
X110309Y13378D01*
D02*
G37*
G36*
X-106088Y9348D02*
X-109343D01*
Y6094D01*
X-108393Y6349D01*
X-107536Y6843D01*
X-106837Y7542D01*
X-106343Y8399D01*
X-106088Y9348D01*
D02*
G37*
G36*
X-110343D02*
X-113597D01*
X-113342Y8399D01*
X-112848Y7542D01*
X-112149Y6843D01*
X-111292Y6349D01*
X-110343Y6094D01*
Y9348D01*
D02*
G37*
G36*
X121471Y9335D02*
X118217D01*
Y6080D01*
X119166Y6335D01*
X120023Y6829D01*
X120722Y7529D01*
X121217Y8385D01*
X121471Y9335D01*
D02*
G37*
G36*
X117217D02*
X113962D01*
X114217Y8385D01*
X114711Y7529D01*
X115410Y6829D01*
X116267Y6335D01*
X117217Y6080D01*
Y9335D01*
D02*
G37*
G36*
X160252Y13795D02*
X146957D01*
Y500D01*
X160252D01*
Y13795D01*
D02*
G37*
G36*
X145957D02*
X132661D01*
Y500D01*
X145957D01*
Y13795D01*
D02*
G37*
G36*
X-133071Y24409D02*
X-159843D01*
X-160036Y13795D01*
X-160252D01*
Y500D01*
X-146457D01*
X-132661D01*
Y13795D01*
X-133071D01*
Y24409D01*
D02*
G37*
G36*
X-78703Y-4921D02*
X-79565D01*
X-80360Y-5251D01*
X-80970Y-5860D01*
X-81299Y-6656D01*
Y-7517D01*
X-80970Y-8313D01*
X-80360Y-8922D01*
X-79565Y-9252D01*
X-78703D01*
X-77907Y-8922D01*
X-77298Y-8313D01*
X-76968Y-7517D01*
Y-6656D01*
X-77298Y-5860D01*
X-77907Y-5251D01*
X-78703Y-4921D01*
D02*
G37*
G36*
X118217Y-6185D02*
Y-9439D01*
X121471D01*
X121217Y-8490D01*
X120722Y-7633D01*
X120023Y-6934D01*
X119166Y-6440D01*
X118217Y-6185D01*
D02*
G37*
G36*
X-109343D02*
Y-9439D01*
X-106088D01*
X-106343Y-8490D01*
X-106837Y-7633D01*
X-107536Y-6934D01*
X-108393Y-6440D01*
X-109343Y-6185D01*
D02*
G37*
G36*
X-118217Y-6183D02*
X-121472D01*
Y-9439D01*
X-118217D01*
Y-6183D01*
D02*
G37*
G36*
X109343D02*
X106087D01*
Y-9439D01*
X109343D01*
Y-6183D01*
D02*
G37*
G36*
X-83723Y-6201D02*
X-84584D01*
X-85380Y-6531D01*
X-85989Y-7140D01*
X-86319Y-7935D01*
Y-8797D01*
X-85989Y-9593D01*
X-85380Y-10202D01*
X-84584Y-10531D01*
X-83723D01*
X-82927Y-10202D01*
X-82318Y-9593D01*
X-81988Y-8797D01*
Y-7935D01*
X-82318Y-7140D01*
X-82927Y-6531D01*
X-83723Y-6201D01*
D02*
G37*
G36*
X84683Y-5217D02*
X83821D01*
X83025Y-5546D01*
X82416Y-6155D01*
X82087Y-6951D01*
Y-7813D01*
X82416Y-8608D01*
X83025Y-9218D01*
X83821Y-9547D01*
X84683D01*
X85168Y-9346D01*
X85216Y-9360D01*
X85630Y-9696D01*
Y-10340D01*
X85960Y-11136D01*
X86569Y-11745D01*
X87365Y-12075D01*
X88226D01*
X89022Y-11745D01*
X89631Y-11136D01*
X89961Y-10340D01*
Y-9479D01*
X89631Y-8683D01*
X89022Y-8074D01*
X88226Y-7744D01*
X87365D01*
X86879Y-7945D01*
X86832Y-7931D01*
X86417Y-7595D01*
Y-6951D01*
X86088Y-6155D01*
X85479Y-5546D01*
X84683Y-5217D01*
D02*
G37*
G36*
X121471Y-10439D02*
X118217D01*
Y-13694D01*
X119166Y-13439D01*
X120023Y-12945D01*
X120722Y-12246D01*
X121217Y-11389D01*
X121471Y-10439D01*
D02*
G37*
G36*
X-106088D02*
X-109343D01*
Y-13694D01*
X-108393Y-13439D01*
X-107536Y-12945D01*
X-106837Y-12246D01*
X-106343Y-11389D01*
X-106088Y-10439D01*
D02*
G37*
G36*
X-113961Y-6183D02*
X-117217D01*
Y-9939D01*
X-117717D01*
Y-10439D01*
X-121472D01*
Y-13695D01*
X-118791D01*
X-118725Y-14195D01*
X-119166Y-14313D01*
X-120023Y-14808D01*
X-120722Y-15507D01*
X-121216Y-16364D01*
X-121471Y-17313D01*
X-117717D01*
X-113962D01*
X-114217Y-16364D01*
X-114711Y-15507D01*
X-115410Y-14808D01*
X-116267Y-14313D01*
X-116708Y-14195D01*
X-116642Y-13695D01*
X-113961D01*
Y-11014D01*
X-113461Y-10948D01*
X-113342Y-11389D01*
X-112848Y-12246D01*
X-112149Y-12945D01*
X-111292Y-13439D01*
X-110343Y-13694D01*
Y-9939D01*
Y-6185D01*
X-111292Y-6440D01*
X-112149Y-6934D01*
X-112848Y-7633D01*
X-113342Y-8490D01*
X-113461Y-8931D01*
X-113961Y-8865D01*
Y-6183D01*
D02*
G37*
G36*
X113599D02*
X110343D01*
Y-9939D01*
X109843D01*
Y-10439D01*
X106087D01*
Y-13695D01*
X108768D01*
X108834Y-14195D01*
X108393Y-14313D01*
X107536Y-14808D01*
X106837Y-15507D01*
X106343Y-16364D01*
X106088Y-17313D01*
X109843D01*
X113597D01*
X113342Y-16364D01*
X112848Y-15507D01*
X112149Y-14808D01*
X111292Y-14313D01*
X110851Y-14195D01*
X110917Y-13695D01*
X113599D01*
Y-11014D01*
X114099Y-10948D01*
X114217Y-11389D01*
X114711Y-12246D01*
X115410Y-12945D01*
X116267Y-13439D01*
X117217Y-13694D01*
Y-9939D01*
Y-6185D01*
X116267Y-6440D01*
X115410Y-6934D01*
X114711Y-7633D01*
X114217Y-8490D01*
X114099Y-8931D01*
X113599Y-8865D01*
Y-6183D01*
D02*
G37*
G36*
X160252Y-500D02*
X146957D01*
Y-13795D01*
X160252D01*
Y-500D01*
D02*
G37*
G36*
X145957D02*
X132661D01*
Y-13795D01*
X145957D01*
Y-500D01*
D02*
G37*
G36*
X-132661D02*
X-145957D01*
Y-13795D01*
X-132661D01*
Y-500D01*
D02*
G37*
G36*
X-146957D02*
X-160252D01*
Y-13795D01*
X-146957D01*
Y-500D01*
D02*
G37*
G36*
X-97010Y-10630D02*
X-97872D01*
X-98668Y-10960D01*
X-99277Y-11569D01*
X-99606Y-12365D01*
Y-13226D01*
X-99277Y-14022D01*
X-98668Y-14631D01*
X-97872Y-14961D01*
X-97010D01*
X-96214Y-14631D01*
X-95605Y-14022D01*
X-95276Y-13226D01*
Y-12365D01*
X-95605Y-11569D01*
X-96214Y-10960D01*
X-97010Y-10630D01*
D02*
G37*
G36*
X98068Y-11319D02*
X97207D01*
X96411Y-11649D01*
X95802Y-12258D01*
X95473Y-13054D01*
Y-13915D01*
X95802Y-14711D01*
X96411Y-15320D01*
X97207Y-15650D01*
X98068D01*
X98864Y-15320D01*
X99474Y-14711D01*
X99803Y-13915D01*
Y-13054D01*
X99474Y-12258D01*
X98864Y-11649D01*
X98068Y-11319D01*
D02*
G37*
G36*
X90982Y-14173D02*
X90121D01*
X89325Y-14503D01*
X88715Y-15112D01*
X88386Y-15908D01*
Y-16769D01*
X88715Y-17565D01*
X89325Y-18174D01*
X90121Y-18504D01*
X90982D01*
X91778Y-18174D01*
X92387Y-17565D01*
X92716Y-16769D01*
Y-15908D01*
X92387Y-15112D01*
X91778Y-14503D01*
X90982Y-14173D01*
D02*
G37*
G36*
X83305D02*
X82443D01*
X81647Y-14503D01*
X81038Y-15112D01*
X80709Y-15908D01*
Y-16769D01*
X81038Y-17565D01*
X81647Y-18174D01*
X82443Y-18504D01*
X83305D01*
X84101Y-18174D01*
X84710Y-17565D01*
X85039Y-16769D01*
Y-15908D01*
X84710Y-15112D01*
X84101Y-14503D01*
X83305Y-14173D01*
D02*
G37*
G36*
X-76833Y-14272D02*
X-77694D01*
X-78490Y-14601D01*
X-79100Y-15210D01*
X-79429Y-16006D01*
Y-16868D01*
X-79100Y-17664D01*
X-78490Y-18273D01*
X-77694Y-18602D01*
X-76833D01*
X-76037Y-18273D01*
X-75428Y-17664D01*
X-75098Y-16868D01*
Y-16006D01*
X-75428Y-15210D01*
X-76037Y-14601D01*
X-76833Y-14272D01*
D02*
G37*
G36*
X-87857D02*
X-88718D01*
X-89514Y-14601D01*
X-90123Y-15210D01*
X-90453Y-16006D01*
Y-16868D01*
X-90123Y-17664D01*
X-89514Y-18273D01*
X-88718Y-18602D01*
X-87857D01*
X-87061Y-18273D01*
X-86452Y-17664D01*
X-86122Y-16868D01*
Y-16006D01*
X-86452Y-15210D01*
X-87061Y-14601D01*
X-87857Y-14272D01*
D02*
G37*
G36*
X118183Y-14270D02*
X117250D01*
X116349Y-14512D01*
X115541Y-14978D01*
X114881Y-15638D01*
X114415Y-16446D01*
X114173Y-17347D01*
Y-18280D01*
X114415Y-19181D01*
X114881Y-19989D01*
X115541Y-20649D01*
X116349Y-21115D01*
X117250Y-21357D01*
X118183D01*
X119084Y-21115D01*
X119892Y-20649D01*
X120552Y-19989D01*
X121019Y-19181D01*
X121260Y-18280D01*
Y-17347D01*
X121019Y-16446D01*
X120552Y-15638D01*
X119892Y-14978D01*
X119084Y-14512D01*
X118183Y-14270D01*
D02*
G37*
G36*
X-109376D02*
X-110309D01*
X-111210Y-14512D01*
X-112018Y-14978D01*
X-112678Y-15638D01*
X-113144Y-16446D01*
X-113386Y-17347D01*
Y-18280D01*
X-113144Y-19181D01*
X-112678Y-19989D01*
X-112018Y-20649D01*
X-111210Y-21115D01*
X-110309Y-21357D01*
X-109376D01*
X-108475Y-21115D01*
X-107667Y-20649D01*
X-107007Y-19989D01*
X-106541Y-19181D01*
X-106299Y-18280D01*
Y-17347D01*
X-106541Y-16446D01*
X-107007Y-15638D01*
X-107667Y-14978D01*
X-108475Y-14512D01*
X-109376Y-14270D01*
D02*
G37*
G36*
X101809Y-17028D02*
X100947D01*
X100151Y-17357D01*
X99542Y-17966D01*
X99213Y-18762D01*
Y-19624D01*
X99542Y-20419D01*
X100151Y-21029D01*
X100947Y-21358D01*
X101809D01*
X102604Y-21029D01*
X103214Y-20419D01*
X103543Y-19624D01*
Y-18762D01*
X103214Y-17966D01*
X102604Y-17357D01*
X101809Y-17028D01*
D02*
G37*
G36*
X-113962Y-18314D02*
X-117217D01*
Y-21568D01*
X-116267Y-21313D01*
X-115410Y-20819D01*
X-114711Y-20120D01*
X-114217Y-19263D01*
X-113962Y-18314D01*
D02*
G37*
G36*
X113597D02*
X110343D01*
Y-21568D01*
X111292Y-21313D01*
X112149Y-20819D01*
X112848Y-20120D01*
X113342Y-19263D01*
X113597Y-18314D01*
D02*
G37*
G36*
X109343D02*
X106088D01*
X106343Y-19263D01*
X106837Y-20120D01*
X107536Y-20819D01*
X108393Y-21313D01*
X109343Y-21568D01*
Y-18314D01*
D02*
G37*
G36*
X-118217D02*
X-121471D01*
X-121216Y-19263D01*
X-120722Y-20120D01*
X-120023Y-20819D01*
X-119166Y-21313D01*
X-118217Y-21568D01*
Y-18314D01*
D02*
G37*
G36*
X-100947Y-17717D02*
X-101809D01*
X-102604Y-18046D01*
X-103214Y-18655D01*
X-103543Y-19451D01*
Y-20313D01*
X-103214Y-21109D01*
X-102604Y-21718D01*
X-101809Y-22047D01*
X-100947D01*
X-100151Y-21718D01*
X-99542Y-21109D01*
X-99213Y-20313D01*
Y-19451D01*
X-99542Y-18655D01*
X-100151Y-18046D01*
X-100947Y-17717D01*
D02*
G37*
G36*
X75303Y-20271D02*
Y-22138D01*
X77170D01*
X76819Y-21291D01*
X76150Y-20622D01*
X75303Y-20271D01*
D02*
G37*
G36*
X74303D02*
X73456Y-20622D01*
X72787Y-21291D01*
X72436Y-22138D01*
X74303D01*
Y-20271D01*
D02*
G37*
G36*
X-68900Y-21322D02*
Y-23188D01*
X-67034D01*
X-67384Y-22341D01*
X-68053Y-21672D01*
X-68900Y-21322D01*
D02*
G37*
G36*
X-69900D02*
X-70747Y-21672D01*
X-71416Y-22341D01*
X-71767Y-23188D01*
X-69900D01*
Y-21322D01*
D02*
G37*
G36*
X77170Y-23138D02*
X75303D01*
Y-25005D01*
X76150Y-24654D01*
X76819Y-23985D01*
X77170Y-23138D01*
D02*
G37*
G36*
X74303D02*
X72436D01*
X72787Y-23985D01*
X73456Y-24654D01*
X74303Y-25005D01*
Y-23138D01*
D02*
G37*
G36*
X-67034Y-24188D02*
X-68900D01*
Y-26055D01*
X-68053Y-25704D01*
X-67384Y-25035D01*
X-67034Y-24188D01*
D02*
G37*
G36*
X-69900D02*
X-71767D01*
X-71416Y-25035D01*
X-70747Y-25704D01*
X-69900Y-26055D01*
Y-24188D01*
D02*
G37*
G36*
X118183Y-22144D02*
X117250D01*
X116349Y-22386D01*
X115541Y-22852D01*
X114881Y-23512D01*
X114415Y-24320D01*
X114173Y-25221D01*
Y-26154D01*
X114415Y-27055D01*
X114881Y-27863D01*
X115541Y-28523D01*
X116349Y-28989D01*
X117250Y-29231D01*
X118183D01*
X119084Y-28989D01*
X119892Y-28523D01*
X120552Y-27863D01*
X121019Y-27055D01*
X121260Y-26154D01*
Y-25221D01*
X121019Y-24320D01*
X120552Y-23512D01*
X119892Y-22852D01*
X119084Y-22386D01*
X118183Y-22144D01*
D02*
G37*
G36*
X110309D02*
X109376D01*
X108475Y-22386D01*
X107667Y-22852D01*
X107007Y-23512D01*
X106541Y-24320D01*
X106299Y-25221D01*
Y-26154D01*
X106541Y-27055D01*
X107007Y-27863D01*
X107667Y-28523D01*
X108475Y-28989D01*
X109376Y-29231D01*
X110309D01*
X111210Y-28989D01*
X112018Y-28523D01*
X112678Y-27863D01*
X113144Y-27055D01*
X113386Y-26154D01*
Y-25221D01*
X113144Y-24320D01*
X112678Y-23512D01*
X112018Y-22852D01*
X111210Y-22386D01*
X110309Y-22144D01*
D02*
G37*
G36*
X-109376D02*
X-110309D01*
X-111210Y-22386D01*
X-112018Y-22852D01*
X-112678Y-23512D01*
X-113144Y-24320D01*
X-113386Y-25221D01*
Y-26154D01*
X-113144Y-27055D01*
X-112678Y-27863D01*
X-112018Y-28523D01*
X-111210Y-28989D01*
X-110309Y-29231D01*
X-109376D01*
X-108475Y-28989D01*
X-107667Y-28523D01*
X-107007Y-27863D01*
X-106541Y-27055D01*
X-106299Y-26154D01*
Y-25221D01*
X-106541Y-24320D01*
X-107007Y-23512D01*
X-107667Y-22852D01*
X-108475Y-22386D01*
X-109376Y-22144D01*
D02*
G37*
G36*
X-117250D02*
X-118183D01*
X-119084Y-22386D01*
X-119892Y-22852D01*
X-120552Y-23512D01*
X-121018Y-24320D01*
X-121260Y-25221D01*
Y-26154D01*
X-121018Y-27055D01*
X-120552Y-27863D01*
X-119892Y-28523D01*
X-119084Y-28989D01*
X-118183Y-29231D01*
X-117250D01*
X-116349Y-28989D01*
X-115541Y-28523D01*
X-114881Y-27863D01*
X-114415Y-27055D01*
X-114173Y-26154D01*
Y-25221D01*
X-114415Y-24320D01*
X-114881Y-23512D01*
X-115541Y-22852D01*
X-116349Y-22386D01*
X-117250Y-22144D01*
D02*
G37*
G36*
X75234Y-26378D02*
X74372D01*
X73577Y-26708D01*
X72967Y-27317D01*
X72638Y-28113D01*
Y-28974D01*
X72967Y-29770D01*
X73577Y-30379D01*
X74372Y-30709D01*
X75234D01*
X76030Y-30379D01*
X76639Y-29770D01*
X76968Y-28974D01*
Y-28113D01*
X76639Y-27317D01*
X76030Y-26708D01*
X75234Y-26378D01*
D02*
G37*
G36*
X-68959Y-27362D02*
X-69820D01*
X-70616Y-27692D01*
X-71226Y-28301D01*
X-71555Y-29097D01*
Y-29958D01*
X-71226Y-30754D01*
X-70616Y-31363D01*
X-69820Y-31693D01*
X-68959D01*
X-68163Y-31363D01*
X-67554Y-30754D01*
X-67224Y-29958D01*
Y-29097D01*
X-67554Y-28301D01*
X-68163Y-27692D01*
X-68959Y-27362D01*
D02*
G37*
G36*
X118183Y-30018D02*
X117250D01*
X116349Y-30260D01*
X115541Y-30726D01*
X114881Y-31386D01*
X114415Y-32194D01*
X114173Y-33095D01*
Y-34028D01*
X114415Y-34929D01*
X114881Y-35737D01*
X115541Y-36397D01*
X116349Y-36863D01*
X117250Y-37105D01*
X118183D01*
X119084Y-36863D01*
X119892Y-36397D01*
X120552Y-35737D01*
X121019Y-34929D01*
X121260Y-34028D01*
Y-33095D01*
X121019Y-32194D01*
X120552Y-31386D01*
X119892Y-30726D01*
X119084Y-30260D01*
X118183Y-30018D01*
D02*
G37*
G36*
X110309D02*
X109376D01*
X108475Y-30260D01*
X107667Y-30726D01*
X107007Y-31386D01*
X106541Y-32194D01*
X106299Y-33095D01*
Y-34028D01*
X106541Y-34929D01*
X107007Y-35737D01*
X107667Y-36397D01*
X108475Y-36863D01*
X109376Y-37105D01*
X110309D01*
X111210Y-36863D01*
X112018Y-36397D01*
X112678Y-35737D01*
X113144Y-34929D01*
X113386Y-34028D01*
Y-33095D01*
X113144Y-32194D01*
X112678Y-31386D01*
X112018Y-30726D01*
X111210Y-30260D01*
X110309Y-30018D01*
D02*
G37*
G36*
X-109376D02*
X-110309D01*
X-111210Y-30260D01*
X-112018Y-30726D01*
X-112678Y-31386D01*
X-113144Y-32194D01*
X-113386Y-33095D01*
Y-34028D01*
X-113144Y-34929D01*
X-112678Y-35737D01*
X-112018Y-36397D01*
X-111210Y-36863D01*
X-110309Y-37105D01*
X-109376D01*
X-108475Y-36863D01*
X-107667Y-36397D01*
X-107007Y-35737D01*
X-106541Y-34929D01*
X-106299Y-34028D01*
Y-33095D01*
X-106541Y-32194D01*
X-107007Y-31386D01*
X-107667Y-30726D01*
X-108475Y-30260D01*
X-109376Y-30018D01*
D02*
G37*
G36*
X-117250D02*
X-118183D01*
X-119084Y-30260D01*
X-119892Y-30726D01*
X-120552Y-31386D01*
X-121018Y-32194D01*
X-121260Y-33095D01*
Y-34028D01*
X-121018Y-34929D01*
X-120552Y-35737D01*
X-119892Y-36397D01*
X-119084Y-36863D01*
X-118183Y-37105D01*
X-117250D01*
X-116349Y-36863D01*
X-115541Y-36397D01*
X-114881Y-35737D01*
X-114415Y-34929D01*
X-114173Y-34028D01*
Y-33095D01*
X-114415Y-32194D01*
X-114881Y-31386D01*
X-115541Y-30726D01*
X-116349Y-30260D01*
X-117250Y-30018D01*
D02*
G37*
G36*
X-93565Y-33268D02*
X-94427D01*
X-95223Y-33597D01*
X-95832Y-34207D01*
X-96161Y-35002D01*
Y-35864D01*
X-95832Y-36660D01*
X-95223Y-37269D01*
X-94427Y-37598D01*
X-93565D01*
X-92769Y-37269D01*
X-92160Y-36660D01*
X-91831Y-35864D01*
Y-35002D01*
X-92160Y-34207D01*
X-92769Y-33597D01*
X-93565Y-33268D01*
D02*
G37*
G36*
X94038Y-33958D02*
X93177D01*
X92381Y-34288D01*
X91772Y-34897D01*
X91443Y-35693D01*
Y-36554D01*
X91772Y-37350D01*
X92381Y-37959D01*
X93177Y-38289D01*
X94038D01*
X94834Y-37959D01*
X95443Y-37350D01*
X95773Y-36554D01*
Y-35693D01*
X95443Y-34897D01*
X94834Y-34288D01*
X94038Y-33958D01*
D02*
G37*
G36*
X-79618Y-37003D02*
Y-38870D01*
X-77751D01*
X-78102Y-38023D01*
X-78771Y-37354D01*
X-79618Y-37003D01*
D02*
G37*
G36*
X-80618D02*
X-81465Y-37354D01*
X-82134Y-38023D01*
X-82485Y-38870D01*
X-80618D01*
Y-37003D01*
D02*
G37*
G36*
X84260Y-37988D02*
Y-39854D01*
X86127D01*
X85776Y-39007D01*
X85107Y-38338D01*
X84260Y-37988D01*
D02*
G37*
G36*
X83260D02*
X82413Y-38338D01*
X81744Y-39007D01*
X81393Y-39854D01*
X83260D01*
Y-37988D01*
D02*
G37*
G36*
X-77751Y-39870D02*
X-79618D01*
Y-41737D01*
X-78771Y-41386D01*
X-78102Y-40717D01*
X-77751Y-39870D01*
D02*
G37*
G36*
X-80618D02*
X-82485D01*
X-82134Y-40717D01*
X-81465Y-41386D01*
X-80618Y-41737D01*
Y-39870D01*
D02*
G37*
G36*
X86127Y-40854D02*
X84260D01*
Y-42721D01*
X85107Y-42370D01*
X85776Y-41701D01*
X86127Y-40854D01*
D02*
G37*
G36*
X83260D02*
X81393D01*
X81744Y-41701D01*
X82413Y-42370D01*
X83260Y-42721D01*
Y-40854D01*
D02*
G37*
G36*
X118183Y-37892D02*
X117250D01*
X116349Y-38134D01*
X115541Y-38600D01*
X114881Y-39260D01*
X114415Y-40068D01*
X114173Y-40969D01*
Y-41902D01*
X114415Y-42803D01*
X114881Y-43611D01*
X115541Y-44271D01*
X116349Y-44737D01*
X117250Y-44979D01*
X118183D01*
X119084Y-44737D01*
X119892Y-44271D01*
X120552Y-43611D01*
X121019Y-42803D01*
X121260Y-41902D01*
Y-40969D01*
X121019Y-40068D01*
X120552Y-39260D01*
X119892Y-38600D01*
X119084Y-38134D01*
X118183Y-37892D01*
D02*
G37*
G36*
X110309D02*
X109376D01*
X108475Y-38134D01*
X107667Y-38600D01*
X107007Y-39260D01*
X106541Y-40068D01*
X106299Y-40969D01*
Y-41902D01*
X106541Y-42803D01*
X107007Y-43611D01*
X107667Y-44271D01*
X108475Y-44737D01*
X109376Y-44979D01*
X110309D01*
X111210Y-44737D01*
X112018Y-44271D01*
X112678Y-43611D01*
X113144Y-42803D01*
X113386Y-41902D01*
Y-40969D01*
X113144Y-40068D01*
X112678Y-39260D01*
X112018Y-38600D01*
X111210Y-38134D01*
X110309Y-37892D01*
D02*
G37*
G36*
X-109376D02*
X-110309D01*
X-111210Y-38134D01*
X-112018Y-38600D01*
X-112678Y-39260D01*
X-113144Y-40068D01*
X-113386Y-40969D01*
Y-41902D01*
X-113144Y-42803D01*
X-112678Y-43611D01*
X-112018Y-44271D01*
X-111210Y-44737D01*
X-110309Y-44979D01*
X-109376D01*
X-108475Y-44737D01*
X-107667Y-44271D01*
X-107007Y-43611D01*
X-106541Y-42803D01*
X-106299Y-41902D01*
Y-40969D01*
X-106541Y-40068D01*
X-107007Y-39260D01*
X-107667Y-38600D01*
X-108475Y-38134D01*
X-109376Y-37892D01*
D02*
G37*
G36*
X-117250D02*
X-118183D01*
X-119084Y-38134D01*
X-119892Y-38600D01*
X-120552Y-39260D01*
X-121018Y-40068D01*
X-121260Y-40969D01*
Y-41902D01*
X-121018Y-42803D01*
X-120552Y-43611D01*
X-119892Y-44271D01*
X-119084Y-44737D01*
X-118183Y-44979D01*
X-117250D01*
X-116349Y-44737D01*
X-115541Y-44271D01*
X-114881Y-43611D01*
X-114415Y-42803D01*
X-114173Y-41902D01*
Y-40969D01*
X-114415Y-40068D01*
X-114881Y-39260D01*
X-115541Y-38600D01*
X-116349Y-38134D01*
X-117250Y-37892D01*
D02*
G37*
G36*
X118183Y-45766D02*
X117250D01*
X116349Y-46008D01*
X115541Y-46474D01*
X114881Y-47134D01*
X114415Y-47942D01*
X114173Y-48843D01*
Y-49776D01*
X114415Y-50677D01*
X114881Y-51485D01*
X115541Y-52145D01*
X116349Y-52611D01*
X117250Y-52853D01*
X118183D01*
X119084Y-52611D01*
X119892Y-52145D01*
X120552Y-51485D01*
X121019Y-50677D01*
X121260Y-49776D01*
Y-48843D01*
X121019Y-47942D01*
X120552Y-47134D01*
X119892Y-46474D01*
X119084Y-46008D01*
X118183Y-45766D01*
D02*
G37*
G36*
X110309D02*
X109376D01*
X108475Y-46008D01*
X107667Y-46474D01*
X107007Y-47134D01*
X106541Y-47942D01*
X106299Y-48843D01*
Y-49776D01*
X106541Y-50677D01*
X107007Y-51485D01*
X107667Y-52145D01*
X108475Y-52611D01*
X109376Y-52853D01*
X110309D01*
X111210Y-52611D01*
X112018Y-52145D01*
X112678Y-51485D01*
X113144Y-50677D01*
X113386Y-49776D01*
Y-48843D01*
X113144Y-47942D01*
X112678Y-47134D01*
X112018Y-46474D01*
X111210Y-46008D01*
X110309Y-45766D01*
D02*
G37*
G36*
X-109376D02*
X-110309D01*
X-111210Y-46008D01*
X-112018Y-46474D01*
X-112678Y-47134D01*
X-113144Y-47942D01*
X-113386Y-48843D01*
Y-49776D01*
X-113144Y-50677D01*
X-112678Y-51485D01*
X-112018Y-52145D01*
X-111210Y-52611D01*
X-110309Y-52853D01*
X-109376D01*
X-108475Y-52611D01*
X-107667Y-52145D01*
X-107007Y-51485D01*
X-106541Y-50677D01*
X-106299Y-49776D01*
Y-48843D01*
X-106541Y-47942D01*
X-107007Y-47134D01*
X-107667Y-46474D01*
X-108475Y-46008D01*
X-109376Y-45766D01*
D02*
G37*
G36*
X-117250D02*
X-118183D01*
X-119084Y-46008D01*
X-119892Y-46474D01*
X-120552Y-47134D01*
X-121018Y-47942D01*
X-121260Y-48843D01*
Y-49776D01*
X-121018Y-50677D01*
X-120552Y-51485D01*
X-119892Y-52145D01*
X-119084Y-52611D01*
X-118183Y-52853D01*
X-117250D01*
X-116349Y-52611D01*
X-115541Y-52145D01*
X-114881Y-51485D01*
X-114415Y-50677D01*
X-114173Y-49776D01*
Y-48843D01*
X-114415Y-47942D01*
X-114881Y-47134D01*
X-115541Y-46474D01*
X-116349Y-46008D01*
X-117250Y-45766D01*
D02*
G37*
G36*
X118183Y-53640D02*
X117250D01*
X116349Y-53882D01*
X115541Y-54348D01*
X114881Y-55008D01*
X114415Y-55816D01*
X114173Y-56717D01*
Y-57650D01*
X114415Y-58551D01*
X114881Y-59359D01*
X115541Y-60019D01*
X116349Y-60485D01*
X117250Y-60727D01*
X118183D01*
X119084Y-60485D01*
X119892Y-60019D01*
X120552Y-59359D01*
X121019Y-58551D01*
X121260Y-57650D01*
Y-56717D01*
X121019Y-55816D01*
X120552Y-55008D01*
X119892Y-54348D01*
X119084Y-53882D01*
X118183Y-53640D01*
D02*
G37*
G36*
X110309D02*
X109376D01*
X108475Y-53882D01*
X107667Y-54348D01*
X107007Y-55008D01*
X106541Y-55816D01*
X106299Y-56717D01*
Y-57650D01*
X106541Y-58551D01*
X107007Y-59359D01*
X107667Y-60019D01*
X108475Y-60485D01*
X109376Y-60727D01*
X110309D01*
X111210Y-60485D01*
X112018Y-60019D01*
X112678Y-59359D01*
X113144Y-58551D01*
X113386Y-57650D01*
Y-56717D01*
X113144Y-55816D01*
X112678Y-55008D01*
X112018Y-54348D01*
X111210Y-53882D01*
X110309Y-53640D01*
D02*
G37*
G36*
X-109376D02*
X-110309D01*
X-111210Y-53882D01*
X-112018Y-54348D01*
X-112678Y-55008D01*
X-113144Y-55816D01*
X-113386Y-56717D01*
Y-57650D01*
X-113144Y-58551D01*
X-112678Y-59359D01*
X-112018Y-60019D01*
X-111210Y-60485D01*
X-110309Y-60727D01*
X-109376D01*
X-108475Y-60485D01*
X-107667Y-60019D01*
X-107007Y-59359D01*
X-106541Y-58551D01*
X-106299Y-57650D01*
Y-56717D01*
X-106541Y-55816D01*
X-107007Y-55008D01*
X-107667Y-54348D01*
X-108475Y-53882D01*
X-109376Y-53640D01*
D02*
G37*
G36*
X-117250D02*
X-118183D01*
X-119084Y-53882D01*
X-119892Y-54348D01*
X-120552Y-55008D01*
X-121018Y-55816D01*
X-121260Y-56717D01*
Y-57650D01*
X-121018Y-58551D01*
X-120552Y-59359D01*
X-119892Y-60019D01*
X-119084Y-60485D01*
X-118183Y-60727D01*
X-117250D01*
X-116349Y-60485D01*
X-115541Y-60019D01*
X-114881Y-59359D01*
X-114415Y-58551D01*
X-114173Y-57650D01*
Y-56717D01*
X-114415Y-55816D01*
X-114881Y-55008D01*
X-115541Y-54348D01*
X-116349Y-53882D01*
X-117250Y-53640D01*
D02*
G37*
G36*
X78974Y-56398D02*
X78113D01*
X77317Y-56727D01*
X76708Y-57336D01*
X76378Y-58132D01*
Y-58994D01*
X76708Y-59790D01*
X77317Y-60399D01*
X78113Y-60728D01*
X78974D01*
X79770Y-60399D01*
X80379Y-59790D01*
X80709Y-58994D01*
Y-58132D01*
X80379Y-57336D01*
X79770Y-56727D01*
X78974Y-56398D01*
D02*
G37*
G36*
X97970Y-56791D02*
X97109D01*
X96313Y-57121D01*
X95704Y-57730D01*
X95374Y-58526D01*
Y-59387D01*
X95704Y-60183D01*
X96313Y-60792D01*
X97109Y-61122D01*
X97970D01*
X98766Y-60792D01*
X99375Y-60183D01*
X99705Y-59387D01*
Y-58526D01*
X99375Y-57730D01*
X98766Y-57121D01*
X97970Y-56791D01*
D02*
G37*
G36*
X-75357Y-56890D02*
X-76218D01*
X-77014Y-57219D01*
X-77623Y-57828D01*
X-77953Y-58624D01*
Y-59486D01*
X-77623Y-60282D01*
X-77014Y-60891D01*
X-76218Y-61221D01*
X-75357D01*
X-74561Y-60891D01*
X-73952Y-60282D01*
X-73622Y-59486D01*
Y-58624D01*
X-73952Y-57828D01*
X-74561Y-57219D01*
X-75357Y-56890D01*
D02*
G37*
G36*
X-83723Y-58366D02*
X-84584D01*
X-85380Y-58696D01*
X-85989Y-59305D01*
X-86319Y-60101D01*
Y-60962D01*
X-85989Y-61758D01*
X-85380Y-62367D01*
X-84584Y-62697D01*
X-83723D01*
X-82927Y-62367D01*
X-82318Y-61758D01*
X-81988Y-60962D01*
Y-60101D01*
X-82318Y-59305D01*
X-82927Y-58696D01*
X-83723Y-58366D01*
D02*
G37*
G36*
X-97010Y-62303D02*
X-97872D01*
X-98668Y-62633D01*
X-99277Y-63242D01*
X-99606Y-64038D01*
Y-64899D01*
X-99277Y-65695D01*
X-98668Y-66304D01*
X-97872Y-66634D01*
X-97010D01*
X-96214Y-66304D01*
X-95605Y-65695D01*
X-95276Y-64899D01*
Y-64038D01*
X-95605Y-63242D01*
X-96214Y-62633D01*
X-97010Y-62303D01*
D02*
G37*
G36*
X118183Y-61514D02*
X117250D01*
X116349Y-61756D01*
X115541Y-62222D01*
X114881Y-62882D01*
X114415Y-63690D01*
X114173Y-64591D01*
Y-65524D01*
X114415Y-66425D01*
X114881Y-67233D01*
X115541Y-67893D01*
X116349Y-68359D01*
X117250Y-68601D01*
X118183D01*
X119084Y-68359D01*
X119892Y-67893D01*
X120552Y-67233D01*
X121019Y-66425D01*
X121260Y-65524D01*
Y-64591D01*
X121019Y-63690D01*
X120552Y-62882D01*
X119892Y-62222D01*
X119084Y-61756D01*
X118183Y-61514D01*
D02*
G37*
G36*
X110309D02*
X109376D01*
X108475Y-61756D01*
X107667Y-62222D01*
X107007Y-62882D01*
X106541Y-63690D01*
X106299Y-64591D01*
Y-65524D01*
X106541Y-66425D01*
X107007Y-67233D01*
X107667Y-67893D01*
X108475Y-68359D01*
X109376Y-68601D01*
X110309D01*
X111210Y-68359D01*
X112018Y-67893D01*
X112678Y-67233D01*
X113144Y-66425D01*
X113386Y-65524D01*
Y-64591D01*
X113144Y-63690D01*
X112678Y-62882D01*
X112018Y-62222D01*
X111210Y-61756D01*
X110309Y-61514D01*
D02*
G37*
G36*
X-109376D02*
X-110309D01*
X-111210Y-61756D01*
X-112018Y-62222D01*
X-112678Y-62882D01*
X-113144Y-63690D01*
X-113386Y-64591D01*
Y-65524D01*
X-113144Y-66425D01*
X-112678Y-67233D01*
X-112018Y-67893D01*
X-111210Y-68359D01*
X-110309Y-68601D01*
X-109376D01*
X-108475Y-68359D01*
X-107667Y-67893D01*
X-107007Y-67233D01*
X-106541Y-66425D01*
X-106299Y-65524D01*
Y-64591D01*
X-106541Y-63690D01*
X-107007Y-62882D01*
X-107667Y-62222D01*
X-108475Y-61756D01*
X-109376Y-61514D01*
D02*
G37*
G36*
X-117250D02*
X-118183D01*
X-119084Y-61756D01*
X-119892Y-62222D01*
X-120552Y-62882D01*
X-121018Y-63690D01*
X-121260Y-64591D01*
Y-65524D01*
X-121018Y-66425D01*
X-120552Y-67233D01*
X-119892Y-67893D01*
X-119084Y-68359D01*
X-118183Y-68601D01*
X-117250D01*
X-116349Y-68359D01*
X-115541Y-67893D01*
X-114881Y-67233D01*
X-114415Y-66425D01*
X-114173Y-65524D01*
Y-64591D01*
X-114415Y-63690D01*
X-114881Y-62882D01*
X-115541Y-62222D01*
X-116349Y-61756D01*
X-117250Y-61514D01*
D02*
G37*
G36*
X101809Y-64272D02*
X100947D01*
X100151Y-64601D01*
X99542Y-65210D01*
X99213Y-66006D01*
Y-66868D01*
X99542Y-67664D01*
X100151Y-68273D01*
X100947Y-68602D01*
X101809D01*
X102604Y-68273D01*
X103214Y-67664D01*
X103543Y-66868D01*
Y-66006D01*
X103214Y-65210D01*
X102604Y-64601D01*
X101809Y-64272D01*
D02*
G37*
G36*
X87537Y-62500D02*
X86676D01*
X85880Y-62830D01*
X85271Y-63439D01*
X84941Y-64235D01*
Y-65096D01*
X85271Y-65892D01*
X85880Y-66501D01*
X86676Y-66831D01*
X87537D01*
X88333Y-66501D01*
X88333Y-66501D01*
X88715Y-66785D01*
X88386Y-67581D01*
Y-68442D01*
X88420Y-68525D01*
X88038Y-68908D01*
X87537Y-68701D01*
X86676D01*
X85880Y-69030D01*
X85271Y-69640D01*
X84941Y-70435D01*
Y-71297D01*
X85271Y-72093D01*
X85880Y-72702D01*
X86676Y-73032D01*
X87537D01*
X88333Y-72702D01*
X88942Y-72093D01*
X89272Y-71297D01*
Y-70435D01*
X89237Y-70353D01*
X89620Y-69970D01*
X90121Y-70177D01*
X90982D01*
X91778Y-69848D01*
X92387Y-69238D01*
X92716Y-68442D01*
Y-67581D01*
X92387Y-66785D01*
X91778Y-66176D01*
X90982Y-65847D01*
X90121D01*
X89325Y-66176D01*
X89324Y-66177D01*
X88942Y-65892D01*
X89272Y-65096D01*
Y-64235D01*
X88942Y-63439D01*
X88333Y-62830D01*
X87537Y-62500D01*
D02*
G37*
G36*
X-100947Y-65256D02*
X-101809D01*
X-102604Y-65586D01*
X-103214Y-66195D01*
X-103543Y-66991D01*
Y-67852D01*
X-103214Y-68648D01*
X-102604Y-69257D01*
X-101809Y-69587D01*
X-100947D01*
X-100151Y-69257D01*
X-99542Y-68648D01*
X-99213Y-67852D01*
Y-66991D01*
X-99542Y-66195D01*
X-100151Y-65586D01*
X-100947Y-65256D01*
D02*
G37*
G36*
X-87857Y-65847D02*
X-88718D01*
X-89514Y-66176D01*
X-90123Y-66785D01*
X-90453Y-67581D01*
Y-68442D01*
X-90123Y-69238D01*
X-89514Y-69848D01*
X-88718Y-70177D01*
X-87857D01*
X-87061Y-69848D01*
X-86452Y-69238D01*
X-86122Y-68442D01*
Y-67581D01*
X-86452Y-66785D01*
X-87061Y-66176D01*
X-87857Y-65847D01*
D02*
G37*
G36*
X-79989Y-65854D02*
X-80851D01*
X-81647Y-66183D01*
X-82256Y-66792D01*
X-82585Y-67588D01*
Y-68450D01*
X-82256Y-69246D01*
X-81647Y-69855D01*
X-80851Y-70184D01*
X-79989D01*
X-79193Y-69855D01*
X-78584Y-69246D01*
X-78255Y-68450D01*
Y-67588D01*
X-78584Y-66792D01*
X-79193Y-66183D01*
X-79989Y-65854D01*
D02*
G37*
G36*
X75402Y-72338D02*
Y-74205D01*
X77268D01*
X76917Y-73358D01*
X76249Y-72689D01*
X75402Y-72338D01*
D02*
G37*
G36*
X74402D02*
X73555Y-72689D01*
X72886Y-73358D01*
X72535Y-74205D01*
X74402D01*
Y-72338D01*
D02*
G37*
G36*
X-68890Y-72929D02*
Y-74795D01*
X-67023D01*
X-67374Y-73948D01*
X-68043Y-73279D01*
X-68890Y-72929D01*
D02*
G37*
G36*
X-69890D02*
X-70737Y-73279D01*
X-71406Y-73948D01*
X-71757Y-74795D01*
X-69890D01*
Y-72929D01*
D02*
G37*
G36*
X118183Y-69388D02*
X117250D01*
X116349Y-69630D01*
X115541Y-70096D01*
X114881Y-70756D01*
X114415Y-71564D01*
X114173Y-72465D01*
Y-73398D01*
X114415Y-74299D01*
X114881Y-75107D01*
X115541Y-75767D01*
X116349Y-76233D01*
X117250Y-76475D01*
X118183D01*
X119084Y-76233D01*
X119892Y-75767D01*
X120552Y-75107D01*
X121019Y-74299D01*
X121260Y-73398D01*
Y-72465D01*
X121019Y-71564D01*
X120552Y-70756D01*
X119892Y-70096D01*
X119084Y-69630D01*
X118183Y-69388D01*
D02*
G37*
G36*
X110309D02*
X109376D01*
X108475Y-69630D01*
X107667Y-70096D01*
X107007Y-70756D01*
X106541Y-71564D01*
X106299Y-72465D01*
Y-73398D01*
X106541Y-74299D01*
X107007Y-75107D01*
X107667Y-75767D01*
X108475Y-76233D01*
X109376Y-76475D01*
X110309D01*
X111210Y-76233D01*
X112018Y-75767D01*
X112678Y-75107D01*
X113144Y-74299D01*
X113386Y-73398D01*
Y-72465D01*
X113144Y-71564D01*
X112678Y-70756D01*
X112018Y-70096D01*
X111210Y-69630D01*
X110309Y-69388D01*
D02*
G37*
G36*
X-109376D02*
X-110309D01*
X-111210Y-69630D01*
X-112018Y-70096D01*
X-112678Y-70756D01*
X-113144Y-71564D01*
X-113386Y-72465D01*
Y-73398D01*
X-113144Y-74299D01*
X-112678Y-75107D01*
X-112018Y-75767D01*
X-111210Y-76233D01*
X-110309Y-76475D01*
X-109376D01*
X-108475Y-76233D01*
X-107667Y-75767D01*
X-107007Y-75107D01*
X-106541Y-74299D01*
X-106299Y-73398D01*
Y-72465D01*
X-106541Y-71564D01*
X-107007Y-70756D01*
X-107667Y-70096D01*
X-108475Y-69630D01*
X-109376Y-69388D01*
D02*
G37*
G36*
X-117250D02*
X-118183D01*
X-119084Y-69630D01*
X-119892Y-70096D01*
X-120552Y-70756D01*
X-121018Y-71564D01*
X-121260Y-72465D01*
Y-73398D01*
X-121018Y-74299D01*
X-120552Y-75107D01*
X-119892Y-75767D01*
X-119084Y-76233D01*
X-118183Y-76475D01*
X-117250D01*
X-116349Y-76233D01*
X-115541Y-75767D01*
X-114881Y-75107D01*
X-114415Y-74299D01*
X-114173Y-73398D01*
Y-72465D01*
X-114415Y-71564D01*
X-114881Y-70756D01*
X-115541Y-70096D01*
X-116349Y-69630D01*
X-117250Y-69388D01*
D02*
G37*
G36*
X77268Y-75205D02*
X75402D01*
Y-77071D01*
X76249Y-76721D01*
X76917Y-76052D01*
X77268Y-75205D01*
D02*
G37*
G36*
X74402D02*
X72535D01*
X72886Y-76052D01*
X73555Y-76721D01*
X74402Y-77071D01*
Y-75205D01*
D02*
G37*
G36*
X-67023Y-75795D02*
X-68890D01*
Y-77662D01*
X-68043Y-77311D01*
X-67374Y-76642D01*
X-67023Y-75795D01*
D02*
G37*
G36*
X-69890D02*
X-71757D01*
X-71406Y-76642D01*
X-70737Y-77311D01*
X-69890Y-77662D01*
Y-75795D01*
D02*
G37*
G36*
X-109343Y-77051D02*
Y-80306D01*
X-106088D01*
X-106343Y-79356D01*
X-106837Y-78499D01*
X-107536Y-77800D01*
X-108393Y-77306D01*
X-109343Y-77051D01*
D02*
G37*
G36*
X118217D02*
Y-80306D01*
X121471D01*
X121217Y-79356D01*
X120722Y-78499D01*
X120023Y-77800D01*
X119166Y-77306D01*
X118217Y-77051D01*
D02*
G37*
G36*
X-110343D02*
X-111292Y-77306D01*
X-112149Y-77800D01*
X-112848Y-78499D01*
X-113342Y-79356D01*
X-113597Y-80306D01*
X-110343D01*
Y-77051D01*
D02*
G37*
G36*
X117217D02*
X116267Y-77306D01*
X115410Y-77800D01*
X114711Y-78499D01*
X114217Y-79356D01*
X113962Y-80306D01*
X117217D01*
Y-77051D01*
D02*
G37*
G36*
X75332Y-78543D02*
X74471D01*
X73675Y-78873D01*
X73066Y-79482D01*
X72736Y-80278D01*
Y-81139D01*
X73066Y-81935D01*
X73675Y-82544D01*
X74471Y-82874D01*
X75332D01*
X76128Y-82544D01*
X76737Y-81935D01*
X77067Y-81139D01*
Y-80278D01*
X76737Y-79482D01*
X76128Y-78873D01*
X75332Y-78543D01*
D02*
G37*
G36*
X-68959Y-78937D02*
X-69820D01*
X-70616Y-79267D01*
X-71226Y-79876D01*
X-71555Y-80672D01*
Y-81533D01*
X-71226Y-82329D01*
X-70616Y-82938D01*
X-69820Y-83268D01*
X-68959D01*
X-68163Y-82938D01*
X-67554Y-82329D01*
X-67224Y-81533D01*
Y-80672D01*
X-67554Y-79876D01*
X-68163Y-79267D01*
X-68959Y-78937D01*
D02*
G37*
G36*
X110309Y-77262D02*
X109376D01*
X108475Y-77504D01*
X107667Y-77970D01*
X107007Y-78630D01*
X106541Y-79438D01*
X106299Y-80339D01*
Y-81272D01*
X106541Y-82173D01*
X107007Y-82981D01*
X107667Y-83641D01*
X108475Y-84107D01*
X109376Y-84349D01*
X110309D01*
X111210Y-84107D01*
X112018Y-83641D01*
X112678Y-82981D01*
X113144Y-82173D01*
X113386Y-81272D01*
Y-80339D01*
X113144Y-79438D01*
X112678Y-78630D01*
X112018Y-77970D01*
X111210Y-77504D01*
X110309Y-77262D01*
D02*
G37*
G36*
X-117250D02*
X-118183D01*
X-119084Y-77504D01*
X-119892Y-77970D01*
X-120552Y-78630D01*
X-121018Y-79438D01*
X-121260Y-80339D01*
Y-81272D01*
X-121018Y-82173D01*
X-120552Y-82981D01*
X-119892Y-83641D01*
X-119084Y-84107D01*
X-118183Y-84349D01*
X-117250D01*
X-116349Y-84107D01*
X-115541Y-83641D01*
X-114881Y-82981D01*
X-114415Y-82173D01*
X-114173Y-81272D01*
Y-80339D01*
X-114415Y-79438D01*
X-114881Y-78630D01*
X-115541Y-77970D01*
X-116349Y-77504D01*
X-117250Y-77262D01*
D02*
G37*
G36*
X121471Y-81306D02*
X118217D01*
Y-84560D01*
X119166Y-84306D01*
X120023Y-83811D01*
X120722Y-83112D01*
X121217Y-82255D01*
X121471Y-81306D01*
D02*
G37*
G36*
X-106088D02*
X-109343D01*
Y-84560D01*
X-108393Y-84306D01*
X-107536Y-83811D01*
X-106837Y-83112D01*
X-106343Y-82255D01*
X-106088Y-81306D01*
D02*
G37*
G36*
X117217D02*
X113962D01*
X114217Y-82255D01*
X114711Y-83112D01*
X115410Y-83811D01*
X116267Y-84306D01*
X117217Y-84560D01*
Y-81306D01*
D02*
G37*
G36*
X-110343D02*
X-113597D01*
X-113342Y-82255D01*
X-112848Y-83112D01*
X-112149Y-83811D01*
X-111292Y-84306D01*
X-110343Y-84560D01*
Y-81306D01*
D02*
G37*
G36*
X-11872Y-82185D02*
X-12734D01*
X-13530Y-82515D01*
X-14139Y-83124D01*
X-14469Y-83920D01*
Y-84781D01*
X-14139Y-85577D01*
X-13530Y-86186D01*
X-12734Y-86516D01*
X-11872D01*
X-11077Y-86186D01*
X-10468Y-85577D01*
X-10138Y-84781D01*
Y-83920D01*
X-10468Y-83124D01*
X-11077Y-82515D01*
X-11872Y-82185D01*
D02*
G37*
G36*
X-93565Y-84941D02*
X-94427D01*
X-95223Y-85271D01*
X-95832Y-85880D01*
X-96161Y-86676D01*
Y-87537D01*
X-95832Y-88333D01*
X-95223Y-88942D01*
X-94427Y-89272D01*
X-93565D01*
X-92769Y-88942D01*
X-92160Y-88333D01*
X-91831Y-87537D01*
Y-86676D01*
X-92160Y-85880D01*
X-92769Y-85271D01*
X-93565Y-84941D01*
D02*
G37*
G36*
X93946Y-85444D02*
X93085D01*
X92289Y-85774D01*
X91680Y-86383D01*
X91350Y-87179D01*
Y-88041D01*
X91680Y-88836D01*
X92289Y-89446D01*
X93085Y-89775D01*
X93946D01*
X94742Y-89446D01*
X95351Y-88836D01*
X95681Y-88041D01*
Y-87179D01*
X95351Y-86383D01*
X94742Y-85774D01*
X93946Y-85444D01*
D02*
G37*
G36*
X54527Y-85728D02*
X47835D01*
Y-92112D01*
X47335Y-92400D01*
X47330Y-92397D01*
X46760Y-92245D01*
Y-94480D01*
X48995D01*
X48843Y-93910D01*
X48478Y-93278D01*
X48120Y-92921D01*
X48328Y-92421D01*
X54527D01*
Y-85728D01*
D02*
G37*
G36*
X9191Y-88878D02*
X8329D01*
X7533Y-89208D01*
X6924Y-89817D01*
X6594Y-90613D01*
Y-91474D01*
X6924Y-92270D01*
X7533Y-92879D01*
X8329Y-93209D01*
X9191D01*
X9986Y-92879D01*
X10595Y-92270D01*
X10925Y-91474D01*
Y-90613D01*
X10595Y-89817D01*
X9986Y-89208D01*
X9191Y-88878D01*
D02*
G37*
G36*
X45760Y-92245D02*
X45190Y-92397D01*
X44558Y-92762D01*
X44042Y-93278D01*
X43677Y-93910D01*
X43524Y-94480D01*
X45760D01*
Y-92245D01*
D02*
G37*
G36*
X-18506Y-88876D02*
X-25199D01*
Y-95569D01*
X-18506D01*
Y-88876D01*
D02*
G37*
G36*
X-33465D02*
X-40157D01*
Y-95569D01*
X-33465D01*
Y-88876D01*
D02*
G37*
G36*
X57124Y-92323D02*
X56262D01*
X55466Y-92652D01*
X54857Y-93262D01*
X54528Y-94058D01*
Y-94919D01*
X54857Y-95715D01*
X55466Y-96324D01*
X56262Y-96653D01*
X57124D01*
X57920Y-96324D01*
X58529Y-95715D01*
X58858Y-94919D01*
Y-94058D01*
X58529Y-93262D01*
X57920Y-92652D01*
X57124Y-92323D01*
D02*
G37*
G36*
X-6095Y-95271D02*
Y-97138D01*
X-4228D01*
X-4579Y-96291D01*
X-5248Y-95622D01*
X-6095Y-95271D01*
D02*
G37*
G36*
X-7095D02*
X-7942Y-95622D01*
X-8610Y-96291D01*
X-8961Y-97138D01*
X-7095D01*
Y-95271D01*
D02*
G37*
G36*
X48995Y-95480D02*
X46760D01*
Y-97716D01*
X47330Y-97563D01*
X47962Y-97198D01*
X48478Y-96682D01*
X48843Y-96050D01*
X48995Y-95480D01*
D02*
G37*
G36*
X45760D02*
X43524D01*
X43677Y-96050D01*
X44042Y-96682D01*
X44558Y-97198D01*
X45190Y-97563D01*
X45760Y-97716D01*
Y-95480D01*
D02*
G37*
G36*
X-46321Y-95276D02*
X-47183D01*
X-47978Y-95605D01*
X-48588Y-96214D01*
X-48917Y-97010D01*
Y-97872D01*
X-48588Y-98668D01*
X-47978Y-99277D01*
X-47183Y-99606D01*
X-46321D01*
X-45525Y-99277D01*
X-44916Y-98668D01*
X-44587Y-97872D01*
Y-97010D01*
X-44916Y-96214D01*
X-45525Y-95605D01*
X-46321Y-95276D01*
D02*
G37*
G36*
X-4228Y-98138D02*
X-6095D01*
Y-100005D01*
X-5248Y-99654D01*
X-4579Y-98985D01*
X-4228Y-98138D01*
D02*
G37*
G36*
X-7095D02*
X-8961D01*
X-8610Y-98985D01*
X-7942Y-99654D01*
X-7095Y-100005D01*
Y-98138D01*
D02*
G37*
G36*
X4860Y-96752D02*
X3998D01*
X3203Y-97082D01*
X2593Y-97691D01*
X2264Y-98487D01*
Y-99348D01*
X2593Y-100144D01*
X3203Y-100753D01*
X3998Y-101083D01*
X4860D01*
X5656Y-100753D01*
X6265Y-100144D01*
X6594Y-99348D01*
Y-98487D01*
X6265Y-97691D01*
X5656Y-97082D01*
X4860Y-96752D01*
D02*
G37*
G36*
X76218Y-100689D02*
X75357D01*
X74561Y-101019D01*
X73952Y-101628D01*
X73843Y-101889D01*
X73302D01*
X73194Y-101628D01*
X72585Y-101019D01*
X71789Y-100689D01*
X70928D01*
X70132Y-101019D01*
X69523Y-101628D01*
X69193Y-102424D01*
Y-103285D01*
X69523Y-104081D01*
X70132Y-104690D01*
X70928Y-105020D01*
X71789D01*
X72585Y-104690D01*
X73194Y-104081D01*
X73302Y-103820D01*
X73843D01*
X73952Y-104081D01*
X74561Y-104690D01*
X75357Y-105020D01*
X76218D01*
X77014Y-104690D01*
X77623Y-104081D01*
X77953Y-103285D01*
Y-102424D01*
X77623Y-101628D01*
X77014Y-101019D01*
X76218Y-100689D01*
D02*
G37*
G36*
X-56164Y-97736D02*
X-57025D01*
X-57821Y-98066D01*
X-58430Y-98675D01*
X-58760Y-99471D01*
Y-100332D01*
X-58430Y-101128D01*
X-57821Y-101737D01*
X-57025Y-102067D01*
X-56164D01*
X-55368Y-101737D01*
X-54759Y-101128D01*
X-54429Y-100332D01*
Y-99471D01*
X-54759Y-98675D01*
X-55368Y-98066D01*
X-56164Y-97736D01*
D02*
G37*
G36*
X-93565Y-98228D02*
X-94427D01*
X-95223Y-98558D01*
X-95832Y-99167D01*
X-96161Y-99963D01*
Y-100824D01*
X-95832Y-101620D01*
X-95223Y-102229D01*
X-94427Y-102559D01*
X-93565D01*
X-92769Y-102229D01*
X-92160Y-101620D01*
X-91831Y-100824D01*
Y-99963D01*
X-92160Y-99167D01*
X-92769Y-98558D01*
X-93565Y-98228D01*
D02*
G37*
G36*
X-2128Y-98917D02*
X-2990D01*
X-3786Y-99247D01*
X-4395Y-99856D01*
X-4724Y-100652D01*
Y-101513D01*
X-4395Y-102309D01*
X-3786Y-102918D01*
X-2990Y-103248D01*
X-2128D01*
X-1333Y-102918D01*
X-723Y-102309D01*
X-394Y-101513D01*
Y-100652D01*
X-723Y-99856D01*
X-1333Y-99247D01*
X-2128Y-98917D01*
D02*
G37*
G36*
X84584Y-100197D02*
X83723D01*
X82927Y-100526D01*
X82318Y-101136D01*
X81988Y-101932D01*
Y-102793D01*
X82318Y-103589D01*
X82927Y-104198D01*
X83723Y-104527D01*
X84584D01*
X85380Y-104198D01*
X85989Y-103589D01*
X86319Y-102793D01*
Y-101932D01*
X85989Y-101136D01*
X85380Y-100526D01*
X84584Y-100197D01*
D02*
G37*
G36*
X-14825D02*
X-15687D01*
X-16483Y-100526D01*
X-17092Y-101136D01*
X-17421Y-101932D01*
Y-102793D01*
X-17092Y-103589D01*
X-16483Y-104198D01*
X-15687Y-104527D01*
X-14825D01*
X-14029Y-104198D01*
X-13420Y-103589D01*
X-13091Y-102793D01*
Y-101932D01*
X-13420Y-101136D01*
X-14029Y-100526D01*
X-14825Y-100197D01*
D02*
G37*
G36*
X-27325Y-98524D02*
X-28187D01*
X-28982Y-98853D01*
X-29592Y-99462D01*
X-29921Y-100258D01*
Y-101120D01*
X-29592Y-101916D01*
X-29046Y-102461D01*
X-29592Y-103006D01*
X-29921Y-103802D01*
Y-104663D01*
X-29592Y-105459D01*
X-28982Y-106068D01*
X-28187Y-106398D01*
X-27325D01*
X-26529Y-106068D01*
X-25920Y-105459D01*
X-25591Y-104663D01*
Y-103802D01*
X-25920Y-103006D01*
X-26465Y-102461D01*
X-25920Y-101916D01*
X-25591Y-101120D01*
Y-100258D01*
X-25920Y-99462D01*
X-26529Y-98853D01*
X-27325Y-98524D01*
D02*
G37*
G36*
X-83723Y-102165D02*
X-84584D01*
X-85380Y-102495D01*
X-85989Y-103104D01*
X-86319Y-103900D01*
Y-104761D01*
X-85989Y-105557D01*
X-85380Y-106166D01*
X-84584Y-106496D01*
X-83723D01*
X-82927Y-106166D01*
X-82318Y-105557D01*
X-81988Y-104761D01*
Y-103900D01*
X-82318Y-103104D01*
X-82927Y-102495D01*
X-83723Y-102165D01*
D02*
G37*
G36*
X-6951Y-103347D02*
X-7813D01*
X-8608Y-103676D01*
X-9218Y-104285D01*
X-9547Y-105081D01*
Y-105942D01*
X-9296Y-106550D01*
X-9398Y-106676D01*
X-9699Y-106883D01*
X-10396Y-106595D01*
X-11258D01*
X-12053Y-106924D01*
X-12663Y-107533D01*
X-12992Y-108329D01*
Y-109191D01*
X-12663Y-109986D01*
X-12247Y-110402D01*
X-12109Y-110728D01*
X-12247Y-111055D01*
X-12663Y-111470D01*
X-12992Y-112266D01*
Y-113128D01*
X-12792Y-113610D01*
X-13193Y-113950D01*
X-13841Y-113681D01*
X-14702D01*
X-15498Y-114011D01*
X-16107Y-114620D01*
X-16437Y-115416D01*
Y-116277D01*
X-16107Y-117073D01*
X-15498Y-117682D01*
X-14702Y-118012D01*
X-13841D01*
X-13045Y-117682D01*
X-12436Y-117073D01*
X-12106Y-116277D01*
Y-115416D01*
X-12306Y-114933D01*
X-11906Y-114594D01*
X-11258Y-114862D01*
X-10396D01*
X-9600Y-114532D01*
X-8991Y-113923D01*
X-8661Y-113128D01*
Y-112266D01*
X-8991Y-111470D01*
X-9406Y-111055D01*
X-9544Y-110728D01*
X-9406Y-110402D01*
X-8991Y-109986D01*
X-8661Y-109191D01*
Y-108329D01*
X-8913Y-107721D01*
X-8810Y-107595D01*
X-8510Y-107388D01*
X-7813Y-107677D01*
X-6951D01*
X-6155Y-107348D01*
X-5546Y-106738D01*
X-5217Y-105942D01*
Y-105081D01*
X-5546Y-104285D01*
X-6155Y-103676D01*
X-6951Y-103347D01*
D02*
G37*
G36*
X-56164Y-103839D02*
X-57025D01*
X-57821Y-104168D01*
X-58430Y-104777D01*
X-58760Y-105573D01*
Y-106435D01*
X-58430Y-107230D01*
X-57821Y-107840D01*
X-57025Y-108169D01*
X-56164D01*
X-55368Y-107840D01*
X-54759Y-107230D01*
X-54429Y-106435D01*
Y-105573D01*
X-54759Y-104777D01*
X-55368Y-104168D01*
X-56164Y-103839D01*
D02*
G37*
G36*
X97970Y-106595D02*
X97109D01*
X96313Y-106924D01*
X95704Y-107533D01*
X95374Y-108329D01*
Y-109191D01*
X95704Y-109986D01*
X96313Y-110596D01*
X97109Y-110925D01*
X97970D01*
X98766Y-110596D01*
X99375Y-109986D01*
X99705Y-109191D01*
Y-108329D01*
X99375Y-107533D01*
X98766Y-106924D01*
X97970Y-106595D01*
D02*
G37*
G36*
X89013D02*
X88152D01*
X87356Y-106924D01*
X86747Y-107533D01*
X86417Y-108329D01*
Y-109191D01*
X86747Y-109986D01*
X87356Y-110596D01*
X88152Y-110925D01*
X89013D01*
X89809Y-110596D01*
X90418Y-109986D01*
X90748Y-109191D01*
Y-108329D01*
X90418Y-107533D01*
X89809Y-106924D01*
X89013Y-106595D01*
D02*
G37*
G36*
X-42089Y-109646D02*
X-42950D01*
X-43746Y-109975D01*
X-44355Y-110584D01*
X-44685Y-111380D01*
Y-112242D01*
X-44355Y-113038D01*
X-43746Y-113647D01*
X-42950Y-113976D01*
X-42089D01*
X-41293Y-113647D01*
X-40684Y-113038D01*
X-40354Y-112242D01*
Y-111380D01*
X-40684Y-110584D01*
X-41293Y-109975D01*
X-42089Y-109646D01*
D02*
G37*
G36*
X101809Y-111516D02*
X100947D01*
X100151Y-111845D01*
X99542Y-112454D01*
X99213Y-113250D01*
Y-114112D01*
X99542Y-114908D01*
X100151Y-115517D01*
X100947Y-115847D01*
X101809D01*
X102604Y-115517D01*
X103214Y-114908D01*
X103543Y-114112D01*
Y-113250D01*
X103214Y-112454D01*
X102604Y-111845D01*
X101809Y-111516D01*
D02*
G37*
G36*
X-66429Y-115448D02*
Y-117315D01*
X-64562D01*
X-64913Y-116468D01*
X-65582Y-115799D01*
X-66429Y-115448D01*
D02*
G37*
G36*
X-67429D02*
X-68276Y-115799D01*
X-68945Y-116468D01*
X-69296Y-117315D01*
X-67429D01*
Y-115448D01*
D02*
G37*
G36*
X-64562Y-118315D02*
X-66429D01*
Y-120182D01*
X-65582Y-119831D01*
X-64913Y-119162D01*
X-64562Y-118315D01*
D02*
G37*
G36*
X-67429D02*
X-69296D01*
X-68945Y-119162D01*
X-68276Y-119831D01*
X-67429Y-120182D01*
Y-118315D01*
D02*
G37*
G36*
X3482Y-116535D02*
X2620D01*
X1825Y-116865D01*
X1216Y-117474D01*
X886Y-118270D01*
Y-119132D01*
X1216Y-119927D01*
X1825Y-120536D01*
X2620Y-120866D01*
X3482D01*
X4278Y-120536D01*
X4887Y-119927D01*
X5217Y-119132D01*
Y-118270D01*
X4887Y-117474D01*
X4278Y-116865D01*
X3482Y-116535D01*
D02*
G37*
G36*
X87500Y-115256D02*
X80807D01*
Y-121949D01*
X87500D01*
Y-115256D01*
D02*
G37*
G36*
X-39033Y-117421D02*
X-39707D01*
X-40358Y-117596D01*
X-40941Y-117933D01*
X-41418Y-118409D01*
X-41755Y-118993D01*
X-41929Y-119643D01*
Y-120317D01*
X-41755Y-120968D01*
X-41418Y-121552D01*
X-40941Y-122028D01*
X-40358Y-122365D01*
X-39707Y-122539D01*
X-39033D01*
X-38382Y-122365D01*
X-37799Y-122028D01*
X-37322Y-121552D01*
X-36985Y-120968D01*
X-36811Y-120317D01*
Y-119643D01*
X-36985Y-118993D01*
X-37322Y-118409D01*
X-37799Y-117933D01*
X-38382Y-117596D01*
X-39033Y-117421D01*
D02*
G37*
G36*
X-62065Y-120276D02*
X-62739D01*
X-63389Y-120450D01*
X-63973Y-120787D01*
X-64449Y-121263D01*
X-64786Y-121847D01*
X-64961Y-122498D01*
Y-123172D01*
X-64786Y-123822D01*
X-64449Y-124406D01*
X-63973Y-124882D01*
X-63389Y-125219D01*
X-62739Y-125394D01*
X-62065D01*
X-61414Y-125219D01*
X-60830Y-124882D01*
X-60354Y-124406D01*
X-60017Y-123822D01*
X-59842Y-123172D01*
Y-122498D01*
X-60017Y-121847D01*
X-60354Y-121263D01*
X-60830Y-120787D01*
X-61414Y-120450D01*
X-62065Y-120276D01*
D02*
G37*
G36*
X-58472Y-125414D02*
X-59042Y-125567D01*
X-59674Y-125932D01*
X-60190Y-126448D01*
X-60555Y-127080D01*
X-60708Y-127650D01*
X-58472D01*
Y-125414D01*
D02*
G37*
G36*
X27005Y-123819D02*
X26144D01*
X25348Y-124149D01*
X24739Y-124758D01*
X24409Y-125554D01*
Y-126415D01*
X24739Y-127211D01*
X25348Y-127820D01*
X26144Y-128150D01*
X27005D01*
X27801Y-127820D01*
X28411Y-127211D01*
X28740Y-126415D01*
Y-125554D01*
X28411Y-124758D01*
X27801Y-124149D01*
X27005Y-123819D01*
D02*
G37*
G36*
X-7374Y-129031D02*
Y-130898D01*
X-5507D01*
X-5858Y-130051D01*
X-6527Y-129382D01*
X-7374Y-129031D01*
D02*
G37*
G36*
X-8374D02*
X-9221Y-129382D01*
X-9890Y-130051D01*
X-10241Y-130898D01*
X-8374D01*
Y-129031D01*
D02*
G37*
G36*
X53069Y-125984D02*
X46376D01*
Y-132677D01*
X53069D01*
Y-125984D01*
D02*
G37*
G36*
X41732D02*
X35039D01*
Y-132677D01*
X41732D01*
Y-125984D01*
D02*
G37*
G36*
X-5507Y-131898D02*
X-7374D01*
Y-133764D01*
X-6527Y-133414D01*
X-5858Y-132745D01*
X-5507Y-131898D01*
D02*
G37*
G36*
X-8374D02*
X-10241D01*
X-9890Y-132745D01*
X-9221Y-133414D01*
X-8374Y-133764D01*
Y-131898D01*
D02*
G37*
G36*
X-38780Y-124262D02*
X-39653Y-124378D01*
X-40467Y-124715D01*
X-41166Y-125251D01*
X-41703Y-125950D01*
X-42040Y-126764D01*
X-42155Y-127638D01*
Y-130394D01*
X-42040Y-131267D01*
X-41703Y-132081D01*
X-41166Y-132780D01*
X-40467Y-133317D01*
X-39653Y-133654D01*
X-38780Y-133769D01*
X-37906Y-133654D01*
X-37092Y-133317D01*
X-36393Y-132780D01*
X-35856Y-132081D01*
X-35519Y-131267D01*
X-35404Y-130394D01*
Y-127638D01*
X-35519Y-126764D01*
X-35856Y-125950D01*
X-36393Y-125251D01*
X-37092Y-124715D01*
X-37906Y-124378D01*
X-38780Y-124262D01*
D02*
G37*
G36*
X-66929D02*
X-67803Y-124378D01*
X-68617Y-124715D01*
X-69316Y-125251D01*
X-69852Y-125950D01*
X-70189Y-126764D01*
X-70304Y-127638D01*
Y-130394D01*
X-70189Y-131267D01*
X-69852Y-132081D01*
X-69316Y-132780D01*
X-68617Y-133317D01*
X-67803Y-133654D01*
X-66929Y-133769D01*
X-66056Y-133654D01*
X-65241Y-133317D01*
X-64542Y-132780D01*
X-64006Y-132081D01*
X-63669Y-131267D01*
X-63554Y-130394D01*
Y-127638D01*
X-63669Y-126764D01*
X-64006Y-125950D01*
X-64542Y-125251D01*
X-65241Y-124715D01*
X-66056Y-124378D01*
X-66929Y-124262D01*
D02*
G37*
G36*
X-2227Y-129724D02*
X-3088D01*
X-3884Y-130054D01*
X-4493Y-130663D01*
X-4823Y-131459D01*
Y-132320D01*
X-4493Y-133116D01*
X-3884Y-133726D01*
X-3088Y-134055D01*
X-2227D01*
X-1431Y-133726D01*
X-822Y-133116D01*
X-492Y-132320D01*
Y-131459D01*
X-822Y-130663D01*
X-1431Y-130054D01*
X-2227Y-129724D01*
D02*
G37*
G36*
X-57472Y-125414D02*
Y-128150D01*
X-57972D01*
Y-128650D01*
X-60708D01*
X-60555Y-129219D01*
X-60190Y-129851D01*
X-59674Y-130368D01*
X-59042Y-130732D01*
X-58337Y-130921D01*
X-58244D01*
X-57884Y-131421D01*
X-57972Y-131750D01*
Y-132423D01*
X-57798Y-133074D01*
X-57461Y-133658D01*
X-56985Y-134134D01*
X-56401Y-134471D01*
X-55750Y-134646D01*
X-55076D01*
X-54426Y-134471D01*
X-53842Y-134134D01*
X-53366Y-133658D01*
X-53129Y-133248D01*
X-53107Y-133240D01*
X-52601D01*
X-52580Y-133248D01*
X-52343Y-133658D01*
X-51867Y-134134D01*
X-51283Y-134471D01*
X-50632Y-134646D01*
X-49958D01*
X-49308Y-134471D01*
X-48724Y-134134D01*
X-48248Y-133658D01*
X-47911Y-133074D01*
X-47736Y-132423D01*
Y-131750D01*
X-47881Y-131209D01*
X-47717Y-130884D01*
X-47559Y-130709D01*
X-47399D01*
X-46749Y-130534D01*
X-46165Y-130197D01*
X-45689Y-129721D01*
X-45352Y-129137D01*
X-45177Y-128487D01*
Y-127813D01*
X-45352Y-127162D01*
X-45689Y-126578D01*
X-46165Y-126102D01*
X-46749Y-125765D01*
X-47399Y-125591D01*
X-48073D01*
X-48724Y-125765D01*
X-49308Y-126102D01*
X-49784Y-126578D01*
X-50021Y-126988D01*
X-50042Y-126997D01*
X-50548D01*
X-50570Y-126988D01*
X-50807Y-126578D01*
X-51283Y-126102D01*
X-51867Y-125765D01*
X-52517Y-125591D01*
X-53191D01*
X-53842Y-125765D01*
X-54426Y-126102D01*
X-54902Y-126578D01*
X-55002Y-126751D01*
X-55579D01*
X-55755Y-126448D01*
X-56271Y-125932D01*
X-56903Y-125567D01*
X-57472Y-125414D01*
D02*
G37*
G36*
X-21420Y-131004D02*
X-22281D01*
X-23077Y-131334D01*
X-23686Y-131943D01*
X-24016Y-132739D01*
Y-133600D01*
X-23686Y-134396D01*
X-23077Y-135005D01*
X-22281Y-135335D01*
X-21420D01*
X-20624Y-135005D01*
X-20015Y-134396D01*
X-19685Y-133600D01*
Y-132739D01*
X-20015Y-131943D01*
X-20624Y-131334D01*
X-21420Y-131004D01*
D02*
G37*
G36*
X13718Y-140059D02*
X12857D01*
X12061Y-140389D01*
X11452Y-140998D01*
X11122Y-141794D01*
Y-142655D01*
X11452Y-143451D01*
X12061Y-144060D01*
X12857Y-144390D01*
X13718D01*
X14514Y-144060D01*
X15123Y-143451D01*
X15453Y-142655D01*
Y-141794D01*
X15123Y-140998D01*
X14514Y-140389D01*
X13718Y-140059D01*
D02*
G37*
G36*
X-28605D02*
X-29466D01*
X-30262Y-140389D01*
X-30871Y-140998D01*
X-31201Y-141794D01*
Y-142655D01*
X-30871Y-143451D01*
X-30262Y-144060D01*
X-29466Y-144390D01*
X-28605D01*
X-27809Y-144060D01*
X-27200Y-143451D01*
X-26870Y-142655D01*
Y-141794D01*
X-27200Y-140998D01*
X-27809Y-140389D01*
X-28605Y-140059D01*
D02*
G37*
G36*
X-3506D02*
X-4368D01*
X-5164Y-140389D01*
X-5773Y-140998D01*
X-6102Y-141794D01*
Y-142655D01*
X-5773Y-143451D01*
X-5164Y-144060D01*
X-4496Y-144336D01*
X-4439Y-144811D01*
X-4447Y-144857D01*
X-5065Y-145113D01*
X-5674Y-145722D01*
X-6004Y-146518D01*
Y-147380D01*
X-5674Y-148175D01*
X-5065Y-148784D01*
X-4269Y-149114D01*
X-3408D01*
X-2612Y-148784D01*
X-2003Y-148175D01*
X-1673Y-147380D01*
Y-146518D01*
X-2003Y-145722D01*
X-2612Y-145113D01*
X-3279Y-144837D01*
X-3337Y-144362D01*
X-3329Y-144316D01*
X-2710Y-144060D01*
X-2101Y-143451D01*
X-1772Y-142655D01*
Y-141794D01*
X-2101Y-140998D01*
X-2710Y-140389D01*
X-3506Y-140059D01*
D02*
G37*
G36*
X1616Y-155610D02*
X943D01*
X292Y-155785D01*
X-292Y-156122D01*
X-768Y-156598D01*
X-1105Y-157182D01*
X-1280Y-157832D01*
Y-158506D01*
X-1105Y-159157D01*
X-768Y-159741D01*
X-292Y-160217D01*
X292Y-160554D01*
X943Y-160728D01*
X1616D01*
X2267Y-160554D01*
X2851Y-160217D01*
X3327Y-159741D01*
X3664Y-159157D01*
X3839Y-158506D01*
Y-157832D01*
X3664Y-157182D01*
X3327Y-156598D01*
X2851Y-156122D01*
X2267Y-155785D01*
X1616Y-155610D01*
D02*
G37*
%LPD*%
G36*
X70813Y-26421D02*
X70397Y-26699D01*
X70087Y-26570D01*
Y-28937D01*
Y-31304D01*
X70397Y-31175D01*
X70813Y-31453D01*
Y-80709D01*
X67593D01*
X67289Y-79974D01*
X66679Y-79365D01*
X65883Y-79035D01*
X65022D01*
X64226Y-79365D01*
X63617Y-79974D01*
X63313Y-80709D01*
X58180D01*
X57821Y-80349D01*
X57025Y-80020D01*
X56164D01*
X55368Y-80349D01*
X55009Y-80709D01*
X-34941D01*
Y-78248D01*
X-41634D01*
Y-80709D01*
X-54455D01*
X-54759Y-79974D01*
X-55368Y-79365D01*
X-56164Y-79035D01*
X-57025D01*
X-57821Y-79365D01*
X-58430Y-79974D01*
X-58734Y-80709D01*
X-62992D01*
Y-22470D01*
X-62492Y-22263D01*
X-62250Y-22505D01*
X-61454Y-22835D01*
X-60593D01*
X-59797Y-22505D01*
X-59188Y-21896D01*
X-58858Y-21100D01*
Y-20239D01*
X-59188Y-19443D01*
X-59797Y-18834D01*
X-60593Y-18504D01*
X-61454D01*
X-62250Y-18834D01*
X-62492Y-19075D01*
X-62992Y-18868D01*
Y102362D01*
X-1984D01*
X-1616Y102264D01*
X-943D01*
X-575Y102362D01*
X50166D01*
X50273Y101965D01*
X50610Y101382D01*
X51086Y100905D01*
X51670Y100568D01*
X52321Y100394D01*
X52994D01*
X53645Y100568D01*
X54229Y100905D01*
X54705Y101382D01*
X55042Y101965D01*
X55149Y102362D01*
X70813D01*
Y-26421D01*
D02*
G37*
%LPC*%
G36*
X-4028Y100570D02*
Y98335D01*
X-1792D01*
X-1945Y98905D01*
X-2310Y99537D01*
X-2826Y100052D01*
X-3458Y100417D01*
X-4028Y100570D01*
D02*
G37*
G36*
X-5028D02*
X-5597Y100417D01*
X-6229Y100052D01*
X-6745Y99537D01*
X-7110Y98905D01*
X-7263Y98335D01*
X-5028D01*
Y100570D01*
D02*
G37*
G36*
X-37394Y98700D02*
Y96465D01*
X-35158D01*
X-35311Y97034D01*
X-35676Y97666D01*
X-36192Y98182D01*
X-36824Y98547D01*
X-37394Y98700D01*
D02*
G37*
G36*
X-38394D02*
X-38963Y98547D01*
X-39595Y98182D01*
X-40112Y97666D01*
X-40477Y97034D01*
X-40629Y96465D01*
X-38394D01*
Y98700D01*
D02*
G37*
G36*
X41933Y98310D02*
Y96075D01*
X44168D01*
X44016Y96645D01*
X43651Y97277D01*
X43135Y97793D01*
X42503Y98158D01*
X41933Y98310D01*
D02*
G37*
G36*
X40933D02*
X40363Y98158D01*
X39731Y97793D01*
X39215Y97277D01*
X38850Y96645D01*
X38698Y96075D01*
X40933D01*
Y98310D01*
D02*
G37*
G36*
X-28010Y100492D02*
X-28683D01*
X-29334Y100318D01*
X-29918Y99981D01*
X-30394Y99504D01*
X-30731Y98921D01*
X-30906Y98270D01*
Y97596D01*
X-30731Y96945D01*
X-30394Y96362D01*
X-29918Y95885D01*
X-29334Y95548D01*
X-28683Y95374D01*
X-28010D01*
X-27359Y95548D01*
X-26775Y95885D01*
X-26299Y96362D01*
X-25962Y96945D01*
X-25787Y97596D01*
Y98270D01*
X-25962Y98921D01*
X-26299Y99504D01*
X-26775Y99981D01*
X-27359Y100318D01*
X-28010Y100492D01*
D02*
G37*
G36*
X-1792Y97335D02*
X-4028D01*
Y95099D01*
X-3458Y95252D01*
X-2826Y95617D01*
X-2310Y96133D01*
X-1945Y96765D01*
X-1792Y97335D01*
D02*
G37*
G36*
X-5028D02*
X-7263D01*
X-7110Y96765D01*
X-6745Y96133D01*
X-6229Y95617D01*
X-5597Y95252D01*
X-5028Y95099D01*
Y97335D01*
D02*
G37*
G36*
X-35158Y95465D02*
X-37394D01*
Y93229D01*
X-36824Y93382D01*
X-36192Y93747D01*
X-35676Y94263D01*
X-35311Y94895D01*
X-35158Y95465D01*
D02*
G37*
G36*
X-38394D02*
X-40629D01*
X-40477Y94895D01*
X-40112Y94263D01*
X-39595Y93747D01*
X-38963Y93382D01*
X-38394Y93229D01*
Y95465D01*
D02*
G37*
G36*
X-48679Y94488D02*
X-49353D01*
X-50003Y94314D01*
X-50587Y93977D01*
X-51064Y93500D01*
X-51400Y92917D01*
X-51575Y92266D01*
Y91592D01*
X-51400Y90941D01*
X-51064Y90358D01*
X-50587Y89881D01*
X-50003Y89544D01*
X-49353Y89370D01*
X-48679D01*
X-48028Y89544D01*
X-47444Y89881D01*
X-46968Y90358D01*
X-46631Y90941D01*
X-46457Y91592D01*
Y92266D01*
X-46631Y92917D01*
X-46968Y93500D01*
X-47444Y93977D01*
X-48028Y94314D01*
X-48679Y94488D01*
D02*
G37*
G36*
X44168Y95075D02*
X38698D01*
X38850Y94505D01*
X39215Y93873D01*
X39731Y93357D01*
X40279Y93041D01*
X40320Y92753D01*
X40275Y92498D01*
X39767Y92205D01*
X39291Y91729D01*
X38954Y91145D01*
X38780Y90494D01*
Y89821D01*
X38954Y89170D01*
X39291Y88586D01*
X39767Y88110D01*
X40351Y87773D01*
X41002Y87598D01*
X41675D01*
X42326Y87773D01*
X42910Y88110D01*
X43386Y88586D01*
X43723Y89170D01*
X43898Y89821D01*
Y90494D01*
X43723Y91145D01*
X43386Y91729D01*
X42910Y92205D01*
X42463Y92463D01*
X42483Y92948D01*
X42500Y92991D01*
X42503Y92992D01*
X43135Y93357D01*
X43651Y93873D01*
X44016Y94505D01*
X44168Y95075D01*
D02*
G37*
G36*
X-37458Y92323D02*
X-38132D01*
X-38783Y92148D01*
X-39367Y91812D01*
X-39843Y91335D01*
X-40180Y90751D01*
X-40354Y90101D01*
Y89427D01*
X-40180Y88776D01*
X-39843Y88192D01*
X-39367Y87716D01*
X-38783Y87379D01*
X-38132Y87205D01*
X-37458D01*
X-36808Y87379D01*
X-36224Y87716D01*
X-35748Y88192D01*
X-35411Y88776D01*
X-35236Y89427D01*
Y90101D01*
X-35411Y90751D01*
X-35748Y91335D01*
X-36224Y91812D01*
X-36808Y92148D01*
X-37458Y92323D01*
D02*
G37*
G36*
X53256Y83863D02*
Y81996D01*
X55123D01*
X54772Y82843D01*
X54103Y83512D01*
X53256Y83863D01*
D02*
G37*
G36*
X52256D02*
X51409Y83512D01*
X50740Y82843D01*
X50389Y81996D01*
X52256D01*
Y83863D01*
D02*
G37*
G36*
X55123Y80996D02*
X53256D01*
Y79129D01*
X54103Y79480D01*
X54772Y80149D01*
X55123Y80996D01*
D02*
G37*
G36*
X52256D02*
X50389D01*
X50740Y80149D01*
X51409Y79480D01*
X52256Y79129D01*
Y80996D01*
D02*
G37*
G36*
X-34744Y84449D02*
X-41437D01*
Y77756D01*
X-34744D01*
Y84449D01*
D02*
G37*
G36*
X66376Y79429D02*
X65514D01*
X64718Y79100D01*
X64109Y78490D01*
X63779Y77694D01*
Y76833D01*
X64007Y76283D01*
X63583Y76000D01*
X63355Y76228D01*
X62508Y76579D01*
Y74713D01*
X64375D01*
X64126Y75314D01*
X64550Y75597D01*
X64718Y75428D01*
X65514Y75098D01*
X66376D01*
X67172Y75428D01*
X67781Y76037D01*
X68110Y76833D01*
Y77694D01*
X67781Y78490D01*
X67172Y79100D01*
X66376Y79429D01*
D02*
G37*
G36*
X41479Y80413D02*
X40805D01*
X40154Y80239D01*
X39570Y79902D01*
X39094Y79426D01*
X38757Y78842D01*
X38583Y78191D01*
Y77517D01*
X38757Y76867D01*
X39094Y76283D01*
X39570Y75807D01*
X40154Y75470D01*
X40805Y75295D01*
X41479D01*
X42129Y75470D01*
X42713Y75807D01*
X43189Y76283D01*
X43526Y76867D01*
X43701Y77517D01*
Y78191D01*
X43526Y78842D01*
X43189Y79426D01*
X42713Y79902D01*
X42129Y80239D01*
X41479Y80413D01*
D02*
G37*
G36*
X-58624Y79134D02*
X-59486D01*
X-60282Y78804D01*
X-60891Y78195D01*
X-61221Y77399D01*
Y76538D01*
X-60891Y75742D01*
X-60282Y75133D01*
X-59486Y74803D01*
X-58624D01*
X-57828Y75133D01*
X-57219Y75742D01*
X-56890Y76538D01*
Y77399D01*
X-57219Y78195D01*
X-57828Y78804D01*
X-58624Y79134D01*
D02*
G37*
G36*
X61508Y76579D02*
X60661Y76228D01*
X59992Y75560D01*
X59641Y74713D01*
X61508D01*
Y76579D01*
D02*
G37*
G36*
X-54224Y75989D02*
Y74122D01*
X-52358D01*
X-52709Y74969D01*
X-53377Y75638D01*
X-54224Y75989D01*
D02*
G37*
G36*
X-55224D02*
X-56071Y75638D01*
X-56740Y74969D01*
X-57091Y74122D01*
X-55224D01*
Y75989D01*
D02*
G37*
G36*
X64375Y73713D02*
X62508D01*
Y71846D01*
X63355Y72197D01*
X64024Y72866D01*
X64375Y73713D01*
D02*
G37*
G36*
X61508D02*
X59641D01*
X59992Y72866D01*
X60661Y72197D01*
X61508Y71846D01*
Y73713D01*
D02*
G37*
G36*
X-5504Y73897D02*
Y71661D01*
X-3269D01*
X-3421Y72231D01*
X-3786Y72863D01*
X-4302Y73379D01*
X-4934Y73744D01*
X-5504Y73897D01*
D02*
G37*
G36*
X-6504D02*
X-7074Y73744D01*
X-7706Y73379D01*
X-8222Y72863D01*
X-8587Y72231D01*
X-8739Y71661D01*
X-6504D01*
Y73897D01*
D02*
G37*
G36*
X-55224Y73122D02*
X-57091D01*
X-56740Y72275D01*
X-56326Y71861D01*
X-56585Y71412D01*
X-56750Y71457D01*
X-57424D01*
X-58074Y71282D01*
X-58658Y70945D01*
X-59134Y70469D01*
X-59471Y69885D01*
X-59646Y69235D01*
Y68561D01*
X-59471Y67910D01*
X-59134Y67326D01*
X-58658Y66850D01*
X-58074Y66513D01*
X-57424Y66339D01*
X-56750D01*
X-56099Y66513D01*
X-55515Y66850D01*
X-55039Y67326D01*
X-54702Y67910D01*
X-54528Y68561D01*
Y69235D01*
X-54702Y69885D01*
X-55039Y70469D01*
X-55352Y70782D01*
X-55282Y70992D01*
X-55224Y71075D01*
Y73122D01*
D02*
G37*
G36*
X-52358D02*
X-54224D01*
Y71255D01*
X-53377Y71606D01*
X-52709Y72275D01*
X-52358Y73122D01*
D02*
G37*
G36*
X-19348Y74016D02*
X-20022D01*
X-20673Y73841D01*
X-21256Y73504D01*
X-21733Y73028D01*
X-22070Y72444D01*
X-22244Y71794D01*
Y71120D01*
X-22070Y70469D01*
X-21733Y69885D01*
X-21256Y69409D01*
X-20673Y69072D01*
X-20022Y68898D01*
X-19348D01*
X-18697Y69072D01*
X-18114Y69409D01*
X-17637Y69885D01*
X-17300Y70469D01*
X-17126Y71120D01*
Y71794D01*
X-17300Y72444D01*
X-17637Y73028D01*
X-18114Y73504D01*
X-18697Y73841D01*
X-19348Y74016D01*
D02*
G37*
G36*
X30553Y73622D02*
X29880D01*
X29229Y73448D01*
X28645Y73111D01*
X28169Y72634D01*
X27832Y72051D01*
X27657Y71400D01*
Y70726D01*
X27832Y70075D01*
X28169Y69492D01*
X28645Y69015D01*
X29229Y68678D01*
X29880Y68504D01*
X30553D01*
X31204Y68678D01*
X31788Y69015D01*
X32264Y69492D01*
X32601Y70075D01*
X32776Y70726D01*
Y71400D01*
X32601Y72051D01*
X32264Y72634D01*
X31788Y73111D01*
X31204Y73448D01*
X30553Y73622D01*
D02*
G37*
G36*
X-3269Y70661D02*
X-5504D01*
Y68426D01*
X-4934Y68579D01*
X-4302Y68944D01*
X-3786Y69460D01*
X-3421Y70092D01*
X-3269Y70661D01*
D02*
G37*
G36*
X-6504D02*
X-8739D01*
X-8587Y70092D01*
X-8222Y69460D01*
X-7706Y68944D01*
X-7074Y68579D01*
X-6504Y68426D01*
Y70661D01*
D02*
G37*
G36*
X62345Y70965D02*
X61671D01*
X61020Y70790D01*
X60437Y70453D01*
X59960Y69977D01*
X59623Y69393D01*
X59449Y68742D01*
Y68069D01*
X59623Y67418D01*
X59960Y66834D01*
X60437Y66358D01*
X61020Y66021D01*
X61671Y65847D01*
X62345D01*
X62996Y66021D01*
X63579Y66358D01*
X64056Y66834D01*
X64393Y67418D01*
X64567Y68069D01*
Y68742D01*
X64393Y69393D01*
X64056Y69977D01*
X63579Y70453D01*
X62996Y70790D01*
X62345Y70965D01*
D02*
G37*
G36*
X24943Y68701D02*
X24269D01*
X23618Y68526D01*
X23035Y68190D01*
X22558Y67713D01*
X22222Y67129D01*
X22047Y66479D01*
Y65805D01*
X22222Y65154D01*
X22558Y64570D01*
X23035Y64094D01*
X23618Y63757D01*
X24269Y63583D01*
X24943D01*
X25594Y63757D01*
X26178Y64094D01*
X26654Y64570D01*
X26991Y65154D01*
X27165Y65805D01*
Y66479D01*
X26991Y67129D01*
X26654Y67713D01*
X26178Y68190D01*
X25594Y68526D01*
X24943Y68701D01*
D02*
G37*
G36*
X15691Y68602D02*
X15017D01*
X14367Y68428D01*
X13783Y68091D01*
X13307Y67615D01*
X12970Y67031D01*
X12795Y66380D01*
Y65706D01*
X12970Y65056D01*
X13307Y64472D01*
X13783Y63996D01*
X14367Y63659D01*
X15017Y63484D01*
X15691D01*
X16342Y63659D01*
X16926Y63996D01*
X17402Y64472D01*
X17739Y65056D01*
X17913Y65706D01*
Y66380D01*
X17739Y67031D01*
X17402Y67615D01*
X16926Y68091D01*
X16342Y68428D01*
X15691Y68602D01*
D02*
G37*
G36*
X43110Y69685D02*
X36417D01*
Y62992D01*
X43110D01*
Y69685D01*
D02*
G37*
G36*
X-34744Y64855D02*
X-41437D01*
Y58163D01*
X-34744D01*
Y64855D01*
D02*
G37*
G36*
X-15903Y61811D02*
X-16577D01*
X-17228Y61637D01*
X-17811Y61300D01*
X-18288Y60823D01*
X-18625Y60240D01*
X-18799Y59589D01*
Y58915D01*
X-18625Y58264D01*
X-18288Y57681D01*
X-17811Y57204D01*
X-17228Y56867D01*
X-16577Y56693D01*
X-15903D01*
X-15252Y56867D01*
X-14669Y57204D01*
X-14192Y57681D01*
X-13856Y58264D01*
X-13681Y58915D01*
Y59589D01*
X-13856Y60240D01*
X-14192Y60823D01*
X-14669Y61300D01*
X-15252Y61637D01*
X-15903Y61811D01*
D02*
G37*
G36*
X48167Y54331D02*
X47306D01*
X46510Y54001D01*
X45900Y53392D01*
X45571Y52596D01*
Y51735D01*
X45900Y50939D01*
X46510Y50330D01*
X47306Y50000D01*
X48167D01*
X48963Y50330D01*
X49572Y50939D01*
X49902Y51735D01*
Y52596D01*
X49572Y53392D01*
X48963Y54001D01*
X48167Y54331D01*
D02*
G37*
G36*
X43110Y56574D02*
X36417D01*
Y49881D01*
X40094D01*
X40145Y49751D01*
X40179Y49381D01*
X39637Y49068D01*
X39121Y48552D01*
X38756Y47920D01*
X38603Y47350D01*
X44074D01*
X43921Y47920D01*
X43556Y48552D01*
X43040Y49068D01*
X42498Y49381D01*
X42533Y49751D01*
X42583Y49881D01*
X43110D01*
Y56574D01*
D02*
G37*
G36*
X-37394Y48109D02*
Y45874D01*
X-35158D01*
X-35311Y46444D01*
X-35676Y47076D01*
X-36192Y47592D01*
X-36824Y47957D01*
X-37394Y48109D01*
D02*
G37*
G36*
X-38394D02*
X-38963Y47957D01*
X-39595Y47592D01*
X-40112Y47076D01*
X-40477Y46444D01*
X-40629Y45874D01*
X-38394D01*
Y48109D01*
D02*
G37*
G36*
X-2453Y43385D02*
Y41150D01*
X-217D01*
X-370Y41719D01*
X-735Y42351D01*
X-1251Y42867D01*
X-1883Y43232D01*
X-2453Y43385D01*
D02*
G37*
G36*
X-3453D02*
X-4023Y43232D01*
X-4655Y42867D01*
X-5171Y42351D01*
X-5536Y41719D01*
X-5688Y41150D01*
X-3453D01*
Y43385D01*
D02*
G37*
G36*
X44074Y46350D02*
X38603D01*
X38756Y45781D01*
X39121Y45149D01*
X39637Y44633D01*
X40269Y44268D01*
X40360Y44243D01*
X40360Y43726D01*
X40351Y43723D01*
X39767Y43386D01*
X39291Y42910D01*
X38954Y42326D01*
X38780Y41675D01*
Y41002D01*
X38954Y40351D01*
X39291Y39767D01*
X39767Y39291D01*
X40351Y38954D01*
X41002Y38780D01*
X41675D01*
X42326Y38954D01*
X42910Y39291D01*
X43386Y39767D01*
X43723Y40351D01*
X43898Y41002D01*
Y41675D01*
X43723Y42326D01*
X43386Y42910D01*
X42910Y43386D01*
X42326Y43723D01*
X42318Y43726D01*
X42318Y44243D01*
X42408Y44268D01*
X43040Y44633D01*
X43556Y45149D01*
X43921Y45781D01*
X44074Y46350D01*
D02*
G37*
G36*
X30652Y43209D02*
X29978D01*
X29327Y43034D01*
X28744Y42697D01*
X28267Y42221D01*
X27930Y41637D01*
X27756Y40986D01*
Y40313D01*
X27930Y39662D01*
X28267Y39078D01*
X28744Y38602D01*
X29327Y38265D01*
X29978Y38091D01*
X30652D01*
X31303Y38265D01*
X31886Y38602D01*
X32363Y39078D01*
X32700Y39662D01*
X32874Y40313D01*
Y40986D01*
X32700Y41637D01*
X32363Y42221D01*
X31886Y42697D01*
X31303Y43034D01*
X30652Y43209D01*
D02*
G37*
G36*
X-28010D02*
X-28683D01*
X-29334Y43034D01*
X-29918Y42697D01*
X-30394Y42221D01*
X-30731Y41637D01*
X-30906Y40986D01*
Y40313D01*
X-30731Y39662D01*
X-30394Y39078D01*
X-29918Y38602D01*
X-29334Y38265D01*
X-28683Y38091D01*
X-28010D01*
X-27359Y38265D01*
X-26775Y38602D01*
X-26299Y39078D01*
X-25962Y39662D01*
X-25787Y40313D01*
Y40986D01*
X-25962Y41637D01*
X-26299Y42221D01*
X-26775Y42697D01*
X-27359Y43034D01*
X-28010Y43209D01*
D02*
G37*
G36*
X-217Y40150D02*
X-2453D01*
Y37914D01*
X-1883Y38067D01*
X-1251Y38432D01*
X-735Y38948D01*
X-370Y39580D01*
X-217Y40150D01*
D02*
G37*
G36*
X-3453D02*
X-5688D01*
X-5536Y39580D01*
X-5171Y38948D01*
X-4655Y38432D01*
X-4023Y38067D01*
X-3453Y37914D01*
Y40150D01*
D02*
G37*
G36*
X-35158Y44874D02*
X-40629D01*
X-40477Y44304D01*
X-40112Y43672D01*
X-39595Y43156D01*
X-39115Y42879D01*
X-39072Y42422D01*
X-39103Y42316D01*
X-39465Y42107D01*
X-39941Y41630D01*
X-40278Y41047D01*
X-40453Y40396D01*
Y39722D01*
X-40278Y39071D01*
X-39941Y38488D01*
X-39465Y38011D01*
X-38881Y37674D01*
X-38231Y37500D01*
X-37557D01*
X-36906Y37674D01*
X-36322Y38011D01*
X-35846Y38488D01*
X-35509Y39071D01*
X-35335Y39722D01*
Y40396D01*
X-35509Y41047D01*
X-35846Y41630D01*
X-36322Y42107D01*
X-36685Y42316D01*
X-36716Y42422D01*
X-36672Y42879D01*
X-36192Y43156D01*
X-35676Y43672D01*
X-35311Y44304D01*
X-35158Y44874D01*
D02*
G37*
G36*
X54368Y38386D02*
X53506D01*
X52710Y38056D01*
X52101Y37447D01*
X51772Y36651D01*
Y35790D01*
X52101Y34994D01*
X52372Y34723D01*
X52645Y34343D01*
X52372Y34070D01*
X51976Y33674D01*
X51625Y32827D01*
X56359D01*
X56008Y33674D01*
X55339Y34343D01*
X55303Y34524D01*
X55773Y34994D01*
X56102Y35790D01*
Y36651D01*
X55773Y37447D01*
X55164Y38056D01*
X54368Y38386D01*
D02*
G37*
G36*
X56359Y31827D02*
X54492D01*
Y29960D01*
X55339Y30311D01*
X56008Y30980D01*
X56359Y31827D01*
D02*
G37*
G36*
X53492D02*
X51625D01*
X51976Y30980D01*
X52645Y30311D01*
X53492Y29960D01*
Y31827D01*
D02*
G37*
G36*
X-54126Y30418D02*
Y28551D01*
X-52259D01*
X-52610Y29398D01*
X-53279Y30067D01*
X-54126Y30418D01*
D02*
G37*
G36*
X-55126D02*
X-55973Y30067D01*
X-56642Y29398D01*
X-56993Y28551D01*
X-55126D01*
Y30418D01*
D02*
G37*
G36*
X-59806Y30118D02*
X-60667D01*
X-61463Y29789D01*
X-62072Y29179D01*
X-62402Y28383D01*
Y27522D01*
X-62072Y26726D01*
X-61463Y26117D01*
X-60667Y25787D01*
X-59806D01*
X-59010Y26117D01*
X-58400Y26726D01*
X-58071Y27522D01*
Y28383D01*
X-58400Y29179D01*
X-59010Y29789D01*
X-59806Y30118D01*
D02*
G37*
G36*
X-52259Y27551D02*
X-54126D01*
Y25684D01*
X-53279Y26035D01*
X-52610Y26704D01*
X-52259Y27551D01*
D02*
G37*
G36*
X-55126D02*
X-56993D01*
X-56642Y26704D01*
X-55973Y26035D01*
X-55126Y25684D01*
Y27551D01*
D02*
G37*
G36*
X-35433Y31201D02*
X-42126D01*
Y24508D01*
X-35433D01*
Y31201D01*
D02*
G37*
G36*
X62935Y27165D02*
X62261D01*
X61611Y26991D01*
X61027Y26654D01*
X60551Y26178D01*
X60214Y25594D01*
X60039Y24943D01*
Y24269D01*
X60214Y23618D01*
X60551Y23035D01*
X61027Y22558D01*
X61611Y22222D01*
X62261Y22047D01*
X62935D01*
X63586Y22222D01*
X64170Y22558D01*
X64646Y23035D01*
X64983Y23618D01*
X65158Y24269D01*
Y24943D01*
X64983Y25594D01*
X64646Y26178D01*
X64170Y26654D01*
X63586Y26991D01*
X62935Y27165D01*
D02*
G37*
G36*
X43110Y26771D02*
X36417D01*
Y20078D01*
X43110D01*
Y26771D01*
D02*
G37*
G36*
X66445Y21560D02*
Y19693D01*
X68312D01*
X67961Y20540D01*
X67292Y21209D01*
X66445Y21560D01*
D02*
G37*
G36*
X65445D02*
X64598Y21209D01*
X63929Y20540D01*
X63578Y19693D01*
X65445D01*
Y21560D01*
D02*
G37*
G36*
X-54387Y23228D02*
X-55061D01*
X-55712Y23054D01*
X-56296Y22717D01*
X-56772Y22241D01*
X-57109Y21657D01*
X-57284Y21006D01*
Y20332D01*
X-57109Y19681D01*
X-56772Y19098D01*
X-56296Y18621D01*
X-55712Y18285D01*
X-55061Y18110D01*
X-54387D01*
X-53737Y18285D01*
X-53153Y18621D01*
X-52677Y19098D01*
X-52340Y19681D01*
X-52165Y20332D01*
Y21006D01*
X-52340Y21657D01*
X-52677Y22241D01*
X-53153Y22717D01*
X-53737Y23054D01*
X-54387Y23228D01*
D02*
G37*
G36*
X68312Y18693D02*
X66445D01*
Y16826D01*
X67292Y17177D01*
X67961Y17846D01*
X68312Y18693D01*
D02*
G37*
G36*
X65445D02*
X63578D01*
X63929Y17846D01*
X64598Y17177D01*
X65445Y16826D01*
Y18693D01*
D02*
G37*
G36*
X48167Y18898D02*
X47306D01*
X46510Y18568D01*
X45900Y17959D01*
X45571Y17163D01*
Y16302D01*
X45900Y15506D01*
X46510Y14897D01*
X47306Y14567D01*
X48167D01*
X48963Y14897D01*
X49572Y15506D01*
X49902Y16302D01*
Y17163D01*
X49572Y17959D01*
X48963Y18568D01*
X48167Y18898D01*
D02*
G37*
G36*
X-47798Y17913D02*
X-48659D01*
X-49455Y17584D01*
X-50064Y16975D01*
X-50394Y16179D01*
Y15317D01*
X-50064Y14522D01*
X-49455Y13912D01*
X-48659Y13583D01*
X-47798D01*
X-47002Y13912D01*
X-46393Y14522D01*
X-46063Y15317D01*
Y16179D01*
X-46393Y16975D01*
X-47002Y17584D01*
X-47798Y17913D01*
D02*
G37*
G36*
X-15805Y14862D02*
X-16479D01*
X-17130Y14688D01*
X-17713Y14351D01*
X-18190Y13874D01*
X-18526Y13291D01*
X-18701Y12640D01*
Y11966D01*
X-18526Y11315D01*
X-18190Y10732D01*
X-17713Y10255D01*
X-17130Y9918D01*
X-16479Y9744D01*
X-15805D01*
X-15154Y9918D01*
X-14570Y10255D01*
X-14094Y10732D01*
X-13757Y11315D01*
X-13583Y11966D01*
Y12640D01*
X-13757Y13291D01*
X-14094Y13874D01*
X-14570Y14351D01*
X-15154Y14688D01*
X-15805Y14862D01*
D02*
G37*
G36*
X43110Y15648D02*
X36417D01*
Y8955D01*
X43110D01*
Y15648D01*
D02*
G37*
G36*
X-35433Y15648D02*
X-42126D01*
Y8955D01*
X-35433D01*
Y15648D01*
D02*
G37*
G36*
X-5504Y8149D02*
Y5913D01*
X-3269D01*
X-3421Y6483D01*
X-3786Y7115D01*
X-4302Y7631D01*
X-4934Y7996D01*
X-5504Y8149D01*
D02*
G37*
G36*
X-6504D02*
X-7074Y7996D01*
X-7706Y7631D01*
X-8222Y7115D01*
X-8587Y6483D01*
X-8739Y5913D01*
X-6504D01*
Y8149D01*
D02*
G37*
G36*
X48167Y10039D02*
X47306D01*
X46510Y9710D01*
X45900Y9101D01*
X45571Y8305D01*
Y7443D01*
X45900Y6647D01*
X46510Y6038D01*
X47306Y5709D01*
X48167D01*
X48963Y6038D01*
X49572Y6647D01*
X49902Y7443D01*
Y8305D01*
X49572Y9101D01*
X48963Y9710D01*
X48167Y10039D01*
D02*
G37*
G36*
X25632Y10433D02*
X24958D01*
X24307Y10259D01*
X23724Y9922D01*
X23247Y9445D01*
X22911Y8862D01*
X22736Y8211D01*
Y7537D01*
X22911Y6886D01*
X23247Y6303D01*
X23724Y5826D01*
X24307Y5489D01*
X24958Y5315D01*
X25632D01*
X26283Y5489D01*
X26867Y5826D01*
X27343Y6303D01*
X27680Y6886D01*
X27854Y7537D01*
Y8211D01*
X27680Y8862D01*
X27343Y9445D01*
X26867Y9922D01*
X26283Y10259D01*
X25632Y10433D01*
D02*
G37*
G36*
X13723D02*
X13049D01*
X12398Y10259D01*
X11814Y9922D01*
X11338Y9445D01*
X11001Y8862D01*
X10827Y8211D01*
Y7537D01*
X11001Y6886D01*
X11338Y6303D01*
X11814Y5826D01*
X12398Y5489D01*
X13049Y5315D01*
X13723D01*
X14374Y5489D01*
X14957Y5826D01*
X15434Y6303D01*
X15770Y6886D01*
X15945Y7537D01*
Y8211D01*
X15770Y8862D01*
X15434Y9445D01*
X14957Y9922D01*
X14374Y10259D01*
X13723Y10433D01*
D02*
G37*
G36*
X-27813Y7972D02*
X-28486D01*
X-29137Y7798D01*
X-29721Y7461D01*
X-30197Y6985D01*
X-30534Y6401D01*
X-30709Y5750D01*
Y5077D01*
X-30534Y4426D01*
X-30197Y3842D01*
X-29721Y3366D01*
X-29137Y3029D01*
X-28486Y2854D01*
X-27813D01*
X-27162Y3029D01*
X-26578Y3366D01*
X-26102Y3842D01*
X-25765Y4426D01*
X-25591Y5077D01*
Y5750D01*
X-25765Y6401D01*
X-26102Y6985D01*
X-26578Y7461D01*
X-27162Y7798D01*
X-27813Y7972D01*
D02*
G37*
G36*
X-3269Y4913D02*
X-5504D01*
Y2678D01*
X-4934Y2831D01*
X-4302Y3196D01*
X-3786Y3712D01*
X-3421Y4344D01*
X-3269Y4913D01*
D02*
G37*
G36*
X-6504D02*
X-8739D01*
X-8587Y4344D01*
X-8222Y3712D01*
X-7706Y3196D01*
X-7074Y2831D01*
X-6504Y2678D01*
Y4913D01*
D02*
G37*
G36*
X-37394Y2932D02*
Y697D01*
X-35158D01*
X-35311Y1267D01*
X-35676Y1899D01*
X-36192Y2415D01*
X-36824Y2780D01*
X-37394Y2932D01*
D02*
G37*
G36*
X-38394D02*
X-38963Y2780D01*
X-39595Y2415D01*
X-40112Y1899D01*
X-40477Y1267D01*
X-40629Y697D01*
X-38394D01*
Y2932D01*
D02*
G37*
G36*
X41150Y2342D02*
Y106D01*
X43385D01*
X43232Y676D01*
X42867Y1308D01*
X42351Y1824D01*
X41719Y2189D01*
X41150Y2342D01*
D02*
G37*
G36*
X40150D02*
X39580Y2189D01*
X38948Y1824D01*
X38432Y1308D01*
X38067Y676D01*
X37914Y106D01*
X40150D01*
Y2342D01*
D02*
G37*
G36*
X-35158Y-303D02*
X-37394D01*
Y-2539D01*
X-36824Y-2386D01*
X-36192Y-2021D01*
X-35676Y-1505D01*
X-35311Y-873D01*
X-35158Y-303D01*
D02*
G37*
G36*
X-38394D02*
X-40629D01*
X-40477Y-873D01*
X-40112Y-1505D01*
X-39595Y-2021D01*
X-38963Y-2386D01*
X-38394Y-2539D01*
Y-303D01*
D02*
G37*
G36*
X53088Y-3543D02*
X52227D01*
X51431Y-3873D01*
X50822Y-4482D01*
X50492Y-5278D01*
Y-6139D01*
X50822Y-6935D01*
X51431Y-7544D01*
X52227Y-7874D01*
X53088D01*
X53884Y-7544D01*
X54493Y-6935D01*
X54823Y-6139D01*
Y-5278D01*
X54493Y-4482D01*
X53884Y-3873D01*
X53088Y-3543D01*
D02*
G37*
G36*
X43385Y-894D02*
X37914D01*
X38067Y-1464D01*
X38432Y-2096D01*
X38948Y-2612D01*
X39251Y-2787D01*
Y-3364D01*
X39078Y-3464D01*
X38602Y-3940D01*
X38265Y-4524D01*
X38091Y-5175D01*
Y-5849D01*
X38265Y-6500D01*
X38602Y-7083D01*
X39078Y-7560D01*
X39662Y-7897D01*
X40313Y-8071D01*
X40986D01*
X41637Y-7897D01*
X42221Y-7560D01*
X42697Y-7083D01*
X43034Y-6500D01*
X43209Y-5849D01*
Y-5175D01*
X43034Y-4524D01*
X42697Y-3940D01*
X42221Y-3464D01*
X42048Y-3364D01*
Y-2787D01*
X42351Y-2612D01*
X42867Y-2096D01*
X43232Y-1464D01*
X43385Y-894D01*
D02*
G37*
G36*
X-47798Y-3740D02*
X-48659D01*
X-49455Y-4070D01*
X-50064Y-4679D01*
X-50394Y-5475D01*
Y-6336D01*
X-50064Y-7132D01*
X-49455Y-7741D01*
X-48659Y-8071D01*
X-47798D01*
X-47002Y-7741D01*
X-46393Y-7132D01*
X-46063Y-6336D01*
Y-5475D01*
X-46393Y-4679D01*
X-47002Y-4070D01*
X-47798Y-3740D01*
D02*
G37*
G36*
X-37458Y-3347D02*
X-38132D01*
X-38783Y-3521D01*
X-39367Y-3858D01*
X-39843Y-4334D01*
X-40180Y-4918D01*
X-40354Y-5569D01*
Y-6242D01*
X-40180Y-6893D01*
X-39843Y-7477D01*
X-39367Y-7953D01*
X-38783Y-8290D01*
X-38132Y-8465D01*
X-37458D01*
X-36808Y-8290D01*
X-36224Y-7953D01*
X-35748Y-7477D01*
X-35411Y-6893D01*
X-35236Y-6242D01*
Y-5569D01*
X-35411Y-4918D01*
X-35748Y-4334D01*
X-36224Y-3858D01*
X-36808Y-3521D01*
X-37458Y-3347D01*
D02*
G37*
G36*
X30553Y-8661D02*
X29880D01*
X29229Y-8836D01*
X28645Y-9173D01*
X28169Y-9649D01*
X27832Y-10233D01*
X27657Y-10884D01*
Y-11557D01*
X27832Y-12208D01*
X28169Y-12792D01*
X28645Y-13268D01*
X29229Y-13605D01*
X29880Y-13780D01*
X30553D01*
X31204Y-13605D01*
X31788Y-13268D01*
X32264Y-12792D01*
X32601Y-12208D01*
X32776Y-11557D01*
Y-10884D01*
X32601Y-10233D01*
X32264Y-9649D01*
X31788Y-9173D01*
X31204Y-8836D01*
X30553Y-8661D01*
D02*
G37*
G36*
X-34941Y-9276D02*
X-41634D01*
Y-15969D01*
X-34941D01*
Y-9276D01*
D02*
G37*
G36*
X53088Y-13114D02*
X52227D01*
X51431Y-13444D01*
X50822Y-14053D01*
X50492Y-14849D01*
Y-15710D01*
X50822Y-16506D01*
X51431Y-17115D01*
X52227Y-17445D01*
X53088D01*
X53884Y-17115D01*
X54493Y-16506D01*
X54823Y-15710D01*
Y-14849D01*
X54493Y-14053D01*
X53884Y-13444D01*
X53088Y-13114D01*
D02*
G37*
G36*
X60524Y-19287D02*
X59677Y-19638D01*
X59008Y-20306D01*
X58657Y-21154D01*
X60524D01*
Y-19287D01*
D02*
G37*
G36*
X-27650Y-19705D02*
Y-21941D01*
X-25414D01*
X-25567Y-21371D01*
X-25932Y-20739D01*
X-26448Y-20223D01*
X-27080Y-19858D01*
X-27650Y-19705D01*
D02*
G37*
G36*
X-28650D02*
X-29219Y-19858D01*
X-29851Y-20223D01*
X-30367Y-20739D01*
X-30732Y-21371D01*
X-30885Y-21941D01*
X-28650D01*
Y-19705D01*
D02*
G37*
G36*
X43110Y-15256D02*
X36417D01*
Y-21949D01*
X43110D01*
Y-15256D01*
D02*
G37*
G36*
X60524Y-22153D02*
X58657D01*
X59008Y-23000D01*
X59677Y-23670D01*
X60524Y-24020D01*
Y-22153D01*
D02*
G37*
G36*
X61524Y-19287D02*
Y-21654D01*
Y-24020D01*
X61975Y-23833D01*
X62303Y-24053D01*
X62530Y-24601D01*
X62133Y-24950D01*
X62011Y-24879D01*
X61361Y-24705D01*
X60687D01*
X60036Y-24879D01*
X59452Y-25216D01*
X58976Y-25692D01*
X58639Y-26276D01*
X58465Y-26927D01*
Y-27601D01*
X58639Y-28251D01*
X58976Y-28835D01*
X59452Y-29311D01*
X60036Y-29648D01*
X60687Y-29823D01*
X61361D01*
X62011Y-29648D01*
X62595Y-29311D01*
X63071Y-28835D01*
X63408Y-28251D01*
X63583Y-27601D01*
Y-26927D01*
X63408Y-26276D01*
X63250Y-26002D01*
X63599Y-25605D01*
X64038Y-25787D01*
X64899D01*
X65695Y-25458D01*
X66304Y-24849D01*
X66634Y-24053D01*
Y-23191D01*
X66304Y-22396D01*
X65695Y-21786D01*
X64899Y-21457D01*
X64038D01*
X63817Y-21548D01*
X63454Y-21305D01*
X63401Y-21179D01*
X63039Y-20306D01*
X62371Y-19638D01*
X61524Y-19287D01*
D02*
G37*
G36*
X-25414Y-22941D02*
X-27650D01*
Y-25176D01*
X-27080Y-25024D01*
X-26448Y-24659D01*
X-25932Y-24143D01*
X-25567Y-23511D01*
X-25414Y-22941D01*
D02*
G37*
G36*
X-28650D02*
X-30885D01*
X-30732Y-23511D01*
X-30367Y-24143D01*
X-29851Y-24659D01*
X-29219Y-25024D01*
X-28650Y-25176D01*
Y-22941D01*
D02*
G37*
G36*
X48167Y-20965D02*
X47306D01*
X46510Y-21294D01*
X45900Y-21903D01*
X45571Y-22699D01*
Y-23561D01*
X45900Y-24356D01*
X46510Y-24966D01*
X47306Y-25295D01*
X48167D01*
X48963Y-24966D01*
X49572Y-24356D01*
X49902Y-23561D01*
Y-22699D01*
X49572Y-21903D01*
X48963Y-21294D01*
X48167Y-20965D01*
D02*
G37*
G36*
X-59441Y-24110D02*
Y-25976D01*
X-57574D01*
X-57925Y-25129D01*
X-58594Y-24461D01*
X-59441Y-24110D01*
D02*
G37*
G36*
X-60441D02*
X-61288Y-24461D01*
X-61957Y-25129D01*
X-62308Y-25976D01*
X-60441D01*
Y-24110D01*
D02*
G37*
G36*
X69087Y-26570D02*
X68240Y-26921D01*
X67571Y-27590D01*
X67220Y-28437D01*
X69087D01*
Y-26570D01*
D02*
G37*
G36*
X-57574Y-26976D02*
X-59441D01*
Y-28843D01*
X-58594Y-28492D01*
X-57925Y-27823D01*
X-57574Y-26976D01*
D02*
G37*
G36*
X-60441D02*
X-62308D01*
X-61957Y-27823D01*
X-61288Y-28492D01*
X-60441Y-28843D01*
Y-26976D01*
D02*
G37*
G36*
X-8915Y-23917D02*
X-9589D01*
X-10240Y-24092D01*
X-10823Y-24429D01*
X-11300Y-24905D01*
X-11637Y-25489D01*
X-11811Y-26140D01*
Y-26813D01*
X-11637Y-27464D01*
X-11300Y-28048D01*
X-10823Y-28524D01*
X-10240Y-28861D01*
X-9589Y-29035D01*
X-8915D01*
X-8264Y-28861D01*
X-7681Y-28524D01*
X-7204Y-28048D01*
X-6867Y-27464D01*
X-6693Y-26813D01*
Y-26140D01*
X-6867Y-25489D01*
X-7204Y-24905D01*
X-7681Y-24429D01*
X-8264Y-24092D01*
X-8915Y-23917D01*
D02*
G37*
G36*
X-54289Y-25984D02*
X-54963D01*
X-55614Y-26159D01*
X-56197Y-26496D01*
X-56674Y-26972D01*
X-57011Y-27556D01*
X-57185Y-28206D01*
Y-28880D01*
X-57011Y-29531D01*
X-56674Y-30115D01*
X-56197Y-30591D01*
X-55614Y-30928D01*
X-54963Y-31102D01*
X-54289D01*
X-53638Y-30928D01*
X-53055Y-30591D01*
X-52578Y-30115D01*
X-52241Y-29531D01*
X-52067Y-28880D01*
Y-28206D01*
X-52241Y-27556D01*
X-52578Y-26972D01*
X-53055Y-26496D01*
X-53638Y-26159D01*
X-54289Y-25984D01*
D02*
G37*
G36*
X69087Y-29437D02*
X67220D01*
X67571Y-30284D01*
X68240Y-30953D01*
X69087Y-31304D01*
Y-29437D01*
D02*
G37*
G36*
X-49077Y-29528D02*
X-49939D01*
X-50734Y-29857D01*
X-51344Y-30466D01*
X-51673Y-31262D01*
Y-32124D01*
X-51344Y-32919D01*
X-50734Y-33529D01*
X-49939Y-33858D01*
X-49077D01*
X-48281Y-33529D01*
X-47672Y-32919D01*
X-47343Y-32124D01*
Y-31262D01*
X-47672Y-30466D01*
X-48281Y-29857D01*
X-49077Y-29528D01*
D02*
G37*
G36*
X-43861Y-29626D02*
X-44722D01*
X-45518Y-29956D01*
X-46127Y-30565D01*
X-46457Y-31361D01*
Y-32222D01*
X-46127Y-33018D01*
X-45518Y-33627D01*
X-44722Y-33957D01*
X-43861D01*
X-43065Y-33627D01*
X-42456Y-33018D01*
X-42126Y-32222D01*
Y-31361D01*
X-42456Y-30565D01*
X-43065Y-29956D01*
X-43861Y-29626D01*
D02*
G37*
G36*
X-5406Y-33977D02*
Y-36213D01*
X-3170D01*
X-3323Y-35643D01*
X-3688Y-35011D01*
X-4204Y-34495D01*
X-4836Y-34130D01*
X-5406Y-33977D01*
D02*
G37*
G36*
X-6406D02*
X-6975Y-34130D01*
X-7607Y-34495D01*
X-8123Y-35011D01*
X-8488Y-35643D01*
X-8641Y-36213D01*
X-6406D01*
Y-33977D01*
D02*
G37*
G36*
X-27813Y-34154D02*
X-28486D01*
X-29137Y-34328D01*
X-29721Y-34665D01*
X-30197Y-35141D01*
X-30534Y-35725D01*
X-30709Y-36376D01*
Y-37049D01*
X-30534Y-37700D01*
X-30197Y-38284D01*
X-29721Y-38760D01*
X-29137Y-39097D01*
X-28486Y-39272D01*
X-27813D01*
X-27162Y-39097D01*
X-26578Y-38760D01*
X-26102Y-38284D01*
X-25765Y-37700D01*
X-25591Y-37049D01*
Y-36376D01*
X-25765Y-35725D01*
X-26102Y-35141D01*
X-26578Y-34665D01*
X-27162Y-34328D01*
X-27813Y-34154D01*
D02*
G37*
G36*
X-3170Y-37213D02*
X-5406D01*
Y-39448D01*
X-4836Y-39295D01*
X-4204Y-38930D01*
X-3688Y-38414D01*
X-3323Y-37782D01*
X-3170Y-37213D01*
D02*
G37*
G36*
X-6406D02*
X-8641D01*
X-8488Y-37782D01*
X-8123Y-38414D01*
X-7607Y-38930D01*
X-6975Y-39295D01*
X-6406Y-39448D01*
Y-37213D01*
D02*
G37*
G36*
X46604Y-32777D02*
X39911D01*
Y-39470D01*
X46604D01*
Y-32777D01*
D02*
G37*
G36*
X-34744D02*
X-41437D01*
Y-39470D01*
X-34744D01*
Y-32777D01*
D02*
G37*
G36*
X-49077Y-37500D02*
X-49939D01*
X-50734Y-37830D01*
X-51344Y-38439D01*
X-51673Y-39235D01*
Y-40096D01*
X-51344Y-40892D01*
X-50734Y-41501D01*
X-49939Y-41831D01*
X-49077D01*
X-48281Y-41501D01*
X-47672Y-40892D01*
X-47343Y-40096D01*
Y-39235D01*
X-47672Y-38439D01*
X-48281Y-37830D01*
X-49077Y-37500D01*
D02*
G37*
G36*
X-43861Y-37697D02*
X-44722D01*
X-45518Y-38026D01*
X-46127Y-38636D01*
X-46457Y-39432D01*
Y-40293D01*
X-46127Y-41089D01*
X-45518Y-41698D01*
X-44722Y-42028D01*
X-43861D01*
X-43065Y-41698D01*
X-42456Y-41089D01*
X-42126Y-40293D01*
Y-39432D01*
X-42456Y-38636D01*
X-43065Y-38026D01*
X-43861Y-37697D01*
D02*
G37*
G36*
X53088Y-39272D02*
X52227D01*
X51431Y-39601D01*
X50822Y-40210D01*
X50492Y-41006D01*
Y-41868D01*
X50822Y-42664D01*
X51431Y-43273D01*
X52227Y-43602D01*
X53088D01*
X53884Y-43273D01*
X54493Y-42664D01*
X54823Y-41868D01*
Y-41006D01*
X54493Y-40210D01*
X53884Y-39601D01*
X53088Y-39272D01*
D02*
G37*
G36*
X11656D02*
X10982D01*
X10331Y-39446D01*
X9748Y-39783D01*
X9271Y-40259D01*
X8934Y-40843D01*
X8760Y-41494D01*
Y-42168D01*
X8934Y-42818D01*
X9271Y-43402D01*
X9748Y-43878D01*
X10331Y-44215D01*
X10982Y-44390D01*
X11656D01*
X12307Y-44215D01*
X12890Y-43878D01*
X13367Y-43402D01*
X13704Y-42818D01*
X13878Y-42168D01*
Y-41494D01*
X13704Y-40843D01*
X13367Y-40259D01*
X12890Y-39783D01*
X12307Y-39446D01*
X11656Y-39272D01*
D02*
G37*
G36*
X48167Y-48031D02*
X47306D01*
X46510Y-48361D01*
X45900Y-48970D01*
X45571Y-49766D01*
Y-50628D01*
X45900Y-51423D01*
X46510Y-52033D01*
X47306Y-52362D01*
X48167D01*
X48963Y-52033D01*
X49572Y-51423D01*
X49902Y-50628D01*
Y-49766D01*
X49572Y-48970D01*
X48963Y-48361D01*
X48167Y-48031D01*
D02*
G37*
G36*
X-37098Y-51595D02*
Y-53831D01*
X-34863D01*
X-35016Y-53261D01*
X-35381Y-52629D01*
X-35897Y-52113D01*
X-36529Y-51748D01*
X-37098Y-51595D01*
D02*
G37*
G36*
X-38098D02*
X-38668Y-51748D01*
X-39300Y-52113D01*
X-39816Y-52629D01*
X-40181Y-53261D01*
X-40334Y-53831D01*
X-38098D01*
Y-51595D01*
D02*
G37*
G36*
X41839Y-52776D02*
Y-55012D01*
X44074D01*
X43921Y-54442D01*
X43556Y-53810D01*
X43040Y-53294D01*
X42408Y-52929D01*
X41839Y-52776D01*
D02*
G37*
G36*
X40839D02*
X40269Y-52929D01*
X39637Y-53294D01*
X39121Y-53810D01*
X38756Y-54442D01*
X38603Y-55012D01*
X40839D01*
Y-52776D01*
D02*
G37*
G36*
X-14525Y-51476D02*
X-15199D01*
X-15850Y-51651D01*
X-16433Y-51988D01*
X-16910Y-52464D01*
X-17247Y-53048D01*
X-17421Y-53698D01*
Y-54372D01*
X-17247Y-55023D01*
X-16910Y-55607D01*
X-16433Y-56083D01*
X-15850Y-56420D01*
X-15199Y-56595D01*
X-14525D01*
X-13874Y-56420D01*
X-13291Y-56083D01*
X-12814Y-55607D01*
X-12477Y-55023D01*
X-12303Y-54372D01*
Y-53698D01*
X-12477Y-53048D01*
X-12814Y-52464D01*
X-13291Y-51988D01*
X-13874Y-51651D01*
X-14525Y-51476D01*
D02*
G37*
G36*
X1813Y-53543D02*
X1139D01*
X489Y-53718D01*
X-95Y-54055D01*
X-571Y-54531D01*
X-908Y-55115D01*
X-1083Y-55765D01*
Y-56439D01*
X-908Y-57090D01*
X-571Y-57674D01*
X-95Y-58150D01*
X489Y-58487D01*
X1139Y-58661D01*
X1813D01*
X2464Y-58487D01*
X3048Y-58150D01*
X3524Y-57674D01*
X3861Y-57090D01*
X4035Y-56439D01*
Y-55765D01*
X3861Y-55115D01*
X3524Y-54531D01*
X3048Y-54055D01*
X2464Y-53718D01*
X1813Y-53543D01*
D02*
G37*
G36*
X-34863Y-54831D02*
X-40334D01*
X-40181Y-55401D01*
X-39816Y-56033D01*
X-39300Y-56549D01*
X-38820Y-56826D01*
X-38776Y-57283D01*
X-38808Y-57389D01*
X-39170Y-57598D01*
X-39646Y-58074D01*
X-39983Y-58658D01*
X-40157Y-59309D01*
Y-59983D01*
X-39983Y-60633D01*
X-39646Y-61217D01*
X-39170Y-61693D01*
X-38586Y-62030D01*
X-37935Y-62205D01*
X-37262D01*
X-36611Y-62030D01*
X-36027Y-61693D01*
X-35551Y-61217D01*
X-35214Y-60633D01*
X-35039Y-59983D01*
Y-59309D01*
X-35214Y-58658D01*
X-35551Y-58074D01*
X-36027Y-57598D01*
X-36389Y-57389D01*
X-36421Y-57283D01*
X-36377Y-56826D01*
X-35897Y-56549D01*
X-35381Y-56033D01*
X-35016Y-55401D01*
X-34863Y-54831D01*
D02*
G37*
G36*
X-5209Y-60650D02*
Y-62886D01*
X-2973D01*
X-3126Y-62316D01*
X-3491Y-61684D01*
X-4007Y-61168D01*
X-4639Y-60803D01*
X-5209Y-60650D01*
D02*
G37*
G36*
X-6209D02*
X-6779Y-60803D01*
X-7411Y-61168D01*
X-7926Y-61684D01*
X-8291Y-62316D01*
X-8444Y-62886D01*
X-6209D01*
Y-60650D01*
D02*
G37*
G36*
X44074Y-56012D02*
X38603D01*
X38756Y-56582D01*
X39121Y-57214D01*
X39637Y-57730D01*
X40269Y-58095D01*
X40360Y-58119D01*
X40360Y-58637D01*
X40351Y-58639D01*
X39767Y-58976D01*
X39291Y-59452D01*
X38954Y-60036D01*
X38780Y-60687D01*
Y-61361D01*
X38954Y-62011D01*
X39291Y-62595D01*
X39767Y-63071D01*
X40351Y-63408D01*
X41002Y-63583D01*
X41675D01*
X42326Y-63408D01*
X42910Y-63071D01*
X43386Y-62595D01*
X43723Y-62011D01*
X43898Y-61361D01*
Y-60687D01*
X43723Y-60036D01*
X43386Y-59452D01*
X42910Y-58976D01*
X42326Y-58639D01*
X42318Y-58637D01*
X42318Y-58119D01*
X42408Y-58095D01*
X43040Y-57730D01*
X43556Y-57214D01*
X43921Y-56582D01*
X44074Y-56012D01*
D02*
G37*
G36*
X31046Y-56693D02*
X30372D01*
X29721Y-56867D01*
X29137Y-57204D01*
X28661Y-57681D01*
X28324Y-58264D01*
X28150Y-58915D01*
Y-59589D01*
X28324Y-60240D01*
X28661Y-60823D01*
X29137Y-61300D01*
X29721Y-61637D01*
X30372Y-61811D01*
X31046D01*
X31696Y-61637D01*
X32280Y-61300D01*
X32412Y-61168D01*
X32784Y-61335D01*
X32874Y-61413D01*
Y-62050D01*
X33048Y-62700D01*
X33385Y-63284D01*
X33862Y-63760D01*
X34445Y-64097D01*
X35096Y-64272D01*
X35770D01*
X36421Y-64097D01*
X37004Y-63760D01*
X37481Y-63284D01*
X37818Y-62700D01*
X37992Y-62050D01*
Y-61376D01*
X37818Y-60725D01*
X37481Y-60141D01*
X37004Y-59665D01*
X36421Y-59328D01*
X35770Y-59153D01*
X35096D01*
X34445Y-59328D01*
X33862Y-59665D01*
X33730Y-59797D01*
X33358Y-59629D01*
X33268Y-59552D01*
Y-58915D01*
X33093Y-58264D01*
X32756Y-57681D01*
X32280Y-57204D01*
X31696Y-56867D01*
X31046Y-56693D01*
D02*
G37*
G36*
X-2973Y-63886D02*
X-5209D01*
Y-66121D01*
X-4639Y-65969D01*
X-4007Y-65604D01*
X-3491Y-65088D01*
X-3126Y-64456D01*
X-2973Y-63886D01*
D02*
G37*
G36*
X-6209D02*
X-8444D01*
X-8291Y-64456D01*
X-7926Y-65088D01*
X-7411Y-65604D01*
X-6779Y-65969D01*
X-6209Y-66121D01*
Y-63886D01*
D02*
G37*
G36*
X-14525Y-61319D02*
X-15199D01*
X-15850Y-61493D01*
X-16433Y-61830D01*
X-16910Y-62307D01*
X-17247Y-62890D01*
X-17421Y-63541D01*
Y-64215D01*
X-17247Y-64866D01*
X-16910Y-65449D01*
X-16433Y-65926D01*
X-15850Y-66263D01*
X-15199Y-66437D01*
X-14525D01*
X-13874Y-66263D01*
X-13291Y-65926D01*
X-12814Y-65449D01*
X-12477Y-64866D01*
X-12303Y-64215D01*
Y-63541D01*
X-12477Y-62890D01*
X-12814Y-62307D01*
X-13291Y-61830D01*
X-13874Y-61493D01*
X-14525Y-61319D01*
D02*
G37*
G36*
X44390Y-64665D02*
X37697D01*
Y-71358D01*
X44390D01*
Y-64665D01*
D02*
G37*
G36*
X65883Y-69784D02*
X65022D01*
X64226Y-70113D01*
X63617Y-70722D01*
X63287Y-71518D01*
Y-72049D01*
X62787Y-72183D01*
X62749Y-72117D01*
X62233Y-71601D01*
X61601Y-71236D01*
X61032Y-71083D01*
Y-73819D01*
Y-76554D01*
X61601Y-76402D01*
X62233Y-76037D01*
X62749Y-75521D01*
X63114Y-74889D01*
X63303Y-74184D01*
Y-73569D01*
X63594Y-73386D01*
X63784Y-73342D01*
X64226Y-73785D01*
X65022Y-74114D01*
X65883D01*
X66679Y-73785D01*
X67289Y-73175D01*
X67618Y-72379D01*
Y-71518D01*
X67289Y-70722D01*
X66679Y-70113D01*
X65883Y-69784D01*
D02*
G37*
G36*
X60031Y-71083D02*
X59462Y-71236D01*
X58830Y-71601D01*
X58314Y-72117D01*
X57949Y-72749D01*
X57796Y-73319D01*
X60031D01*
Y-71083D01*
D02*
G37*
G36*
X-34941Y-66634D02*
X-41634D01*
Y-73327D01*
X-34941D01*
Y-66634D01*
D02*
G37*
G36*
X-57669Y-73322D02*
Y-75189D01*
X-55803D01*
X-56153Y-74342D01*
X-56822Y-73673D01*
X-57669Y-73322D01*
D02*
G37*
G36*
X-58669D02*
X-59516Y-73673D01*
X-60185Y-74342D01*
X-60536Y-75189D01*
X-58669D01*
Y-73322D01*
D02*
G37*
G36*
X-9506Y-70965D02*
X-10179D01*
X-10830Y-71139D01*
X-11414Y-71476D01*
X-11890Y-71952D01*
X-12227Y-72536D01*
X-12402Y-73187D01*
Y-73861D01*
X-12227Y-74511D01*
X-11890Y-75095D01*
X-11414Y-75571D01*
X-10830Y-75908D01*
X-10179Y-76083D01*
X-9506D01*
X-8855Y-75908D01*
X-8271Y-75571D01*
X-7795Y-75095D01*
X-7458Y-74511D01*
X-7283Y-73861D01*
Y-73187D01*
X-7458Y-72536D01*
X-7795Y-71952D01*
X-8271Y-71476D01*
X-8855Y-71139D01*
X-9506Y-70965D01*
D02*
G37*
G36*
X60031Y-74319D02*
X57796D01*
X57949Y-74889D01*
X58314Y-75521D01*
X58830Y-76037D01*
X59462Y-76402D01*
X60031Y-76554D01*
Y-74319D01*
D02*
G37*
G36*
X-27714Y-71752D02*
X-28388D01*
X-29039Y-71926D01*
X-29623Y-72263D01*
X-30099Y-72740D01*
X-30436Y-73323D01*
X-30610Y-73974D01*
Y-74648D01*
X-30436Y-75299D01*
X-30099Y-75882D01*
X-29623Y-76359D01*
X-29039Y-76696D01*
X-28388Y-76870D01*
X-27714D01*
X-27063Y-76696D01*
X-26480Y-76359D01*
X-26003Y-75882D01*
X-25666Y-75299D01*
X-25492Y-74648D01*
Y-73974D01*
X-25666Y-73323D01*
X-26003Y-72740D01*
X-26480Y-72263D01*
X-27063Y-71926D01*
X-27714Y-71752D01*
D02*
G37*
G36*
X-43369Y-73130D02*
X-44230D01*
X-45026Y-73460D01*
X-45635Y-74069D01*
X-45965Y-74865D01*
Y-75726D01*
X-45635Y-76522D01*
X-45026Y-77131D01*
X-44230Y-77461D01*
X-43369D01*
X-42573Y-77131D01*
X-41963Y-76522D01*
X-41634Y-75726D01*
Y-74865D01*
X-41963Y-74069D01*
X-42573Y-73460D01*
X-43369Y-73130D01*
D02*
G37*
G36*
X-55803Y-76189D02*
X-57669D01*
Y-78056D01*
X-56822Y-77705D01*
X-56153Y-77036D01*
X-55803Y-76189D01*
D02*
G37*
G36*
X-58669D02*
X-60536D01*
X-60185Y-77036D01*
X-59516Y-77705D01*
X-58669Y-78056D01*
Y-76189D01*
D02*
G37*
%LPD*%
D13*
X163878Y0D02*
G03*
X163878Y0I-163878J0D01*
G01*
D57*
X-117717Y-9939D02*
D03*
X109843Y80701D02*
D03*
Y-9939D02*
D03*
X-117717Y80715D02*
D03*
D61*
X-12205Y131102D02*
D03*
D68*
X-148545Y15961D02*
X-152543D01*
X-148545Y19959D01*
Y20959D01*
X-149544Y21959D01*
X-151544D01*
X-152543Y20959D01*
D69*
X-57972Y-128150D02*
D03*
X-45669Y143209D02*
D03*
X46260Y-94980D02*
D03*
X41433Y95575D02*
D03*
X-35433Y116142D02*
D03*
X-5709Y-63386D02*
D03*
X-37598Y-54331D02*
D03*
X60532Y-73819D02*
D03*
X-28150Y-22441D02*
D03*
X41339Y-55512D02*
D03*
X40650Y-394D02*
D03*
X41339Y46850D02*
D03*
X65748Y136319D02*
D03*
X-76772Y136319D02*
D03*
X-102362Y117717D02*
D03*
X-37894Y95965D02*
D03*
Y45374D02*
D03*
Y197D02*
D03*
X-6004Y5413D02*
D03*
X-4528Y97835D02*
D03*
X-5906Y-36713D02*
D03*
X-2953Y40650D02*
D03*
X-6004Y71161D02*
D03*
D72*
X52074Y142087D02*
D03*
D73*
X-146457Y0D02*
D03*
X146457D02*
D03*
D74*
X-117717Y-17813D02*
D03*
X-109843Y-9939D02*
D03*
Y-80806D02*
D03*
X109843Y72827D02*
D03*
X117717Y80701D02*
D03*
Y9835D02*
D03*
X109843Y-17813D02*
D03*
X117717Y-9939D02*
D03*
Y-80806D02*
D03*
X-117717Y72841D02*
D03*
X-109843Y80715D02*
D03*
Y9849D02*
D03*
D76*
X8661Y126772D02*
D03*
D77*
X394Y143701D02*
D03*
D79*
X74311Y74311D02*
D03*
X-78642Y60532D02*
D03*
X61024Y-21654D02*
D03*
X74902Y-74705D02*
D03*
X-7874Y-131398D02*
D03*
X-66929Y-117815D02*
D03*
X-80118Y-39370D02*
D03*
X65945Y19193D02*
D03*
X62008Y74213D02*
D03*
X-6594Y-97638D02*
D03*
X69587Y-28937D02*
D03*
X53992Y32327D02*
D03*
X-69390Y-75295D02*
D03*
X-59941Y-26476D02*
D03*
X-58169Y-75689D02*
D03*
X84252Y9843D02*
D03*
X84350Y58366D02*
D03*
X-79134Y10039D02*
D03*
X-69400Y-23688D02*
D03*
X-54626Y28051D02*
D03*
X100000Y98917D02*
D03*
X-68405Y73819D02*
D03*
X-54724Y73622D02*
D03*
X-69390Y25197D02*
D03*
X52756Y81496D02*
D03*
X74803Y-22638D02*
D03*
Y25098D02*
D03*
X83760Y-40354D02*
D03*
X-89567Y87598D02*
D03*
M02*
