G04*
G04 #@! TF.GenerationSoftware,Altium Limited,Altium Designer,23.3.1 (30)*
G04*
G04 Layer_Color=8421504*
%FSLAX25Y25*%
%MOIN*%
G70*
G04*
G04 #@! TF.SameCoordinates,7FDB2B4D-D7D5-4B3D-9FC9-9F88D19D1CF5*
G04*
G04*
G04 #@! TF.FilePolarity,Positive*
G04*
G01*
G75*
%ADD13C,0.00787*%
%ADD18R,0.01968X0.02362*%
%ADD19R,0.03543X0.02362*%
%ADD20R,0.03381X0.03591*%
%ADD21R,0.03788X0.03681*%
%ADD22O,0.03300X0.01600*%
%ADD23R,0.03300X0.01600*%
%ADD24R,0.05512X0.00984*%
%ADD25O,0.05512X0.00984*%
%ADD26O,0.04724X0.02362*%
%ADD27R,0.04724X0.02362*%
G04:AMPARAMS|DCode=28|XSize=73.79mil|YSize=24.1mil|CornerRadius=12.05mil|HoleSize=0mil|Usage=FLASHONLY|Rotation=180.000|XOffset=0mil|YOffset=0mil|HoleType=Round|Shape=RoundedRectangle|*
%AMROUNDEDRECTD28*
21,1,0.07379,0.00000,0,0,180.0*
21,1,0.04969,0.02410,0,0,180.0*
1,1,0.02410,-0.02485,0.00000*
1,1,0.02410,0.02485,0.00000*
1,1,0.02410,0.02485,0.00000*
1,1,0.02410,-0.02485,0.00000*
%
%ADD28ROUNDEDRECTD28*%
%ADD29R,0.07379X0.02410*%
%ADD30R,0.03500X0.04000*%
%ADD31R,0.03543X0.03150*%
%ADD32R,0.07087X0.11811*%
%ADD33R,0.03591X0.03970*%
%ADD34R,0.03591X0.04166*%
%ADD35R,0.03591X0.03775*%
%ADD36R,0.04166X0.03591*%
%ADD37R,0.01657X0.07699*%
G04:AMPARAMS|DCode=38|XSize=76.99mil|YSize=16.57mil|CornerRadius=8.28mil|HoleSize=0mil|Usage=FLASHONLY|Rotation=90.000|XOffset=0mil|YOffset=0mil|HoleType=Round|Shape=RoundedRectangle|*
%AMROUNDEDRECTD38*
21,1,0.07699,0.00000,0,0,90.0*
21,1,0.06042,0.01657,0,0,90.0*
1,1,0.01657,0.00000,0.03021*
1,1,0.01657,0.00000,-0.03021*
1,1,0.01657,0.00000,-0.03021*
1,1,0.01657,0.00000,0.03021*
%
%ADD38ROUNDEDRECTD38*%
%ADD39R,0.04134X0.02362*%
%ADD40O,0.04134X0.02362*%
%ADD41R,0.03591X0.03381*%
%ADD42O,0.06102X0.02362*%
%ADD43R,0.06102X0.02362*%
D13*
X163878Y0D02*
G03*
X163878Y0I-163878J0D01*
G01*
D18*
X-17715Y109055D02*
D03*
X-10235D02*
D03*
Y101181D02*
D03*
D19*
X-16930Y101182D02*
D03*
D20*
X-81384Y126378D02*
D03*
X-87500D02*
D03*
X45958Y123425D02*
D03*
X52074D02*
D03*
X59646D02*
D03*
X65762D02*
D03*
X-16233Y64967D02*
D03*
X-22349D02*
D03*
Y53228D02*
D03*
X-16233D02*
D03*
X-22349Y28424D02*
D03*
X-16233D02*
D03*
X-16233Y19193D02*
D03*
X-22349D02*
D03*
Y-22441D02*
D03*
X-16233D02*
D03*
Y-30807D02*
D03*
X-22349D02*
D03*
X-22358Y-69350D02*
D03*
X-16242D02*
D03*
X-16233Y-78701D02*
D03*
X-22349D02*
D03*
D21*
X-87500Y117808D02*
D03*
Y112175D02*
D03*
D22*
X-56504Y-117815D02*
D03*
X-49204Y-120415D02*
D03*
X-56504D02*
D03*
X-49204Y-117815D02*
D03*
Y-115215D02*
D03*
D23*
X-56504D02*
D03*
D24*
X59744Y-62106D02*
D03*
Y89433D02*
D03*
Y40201D02*
D03*
Y-8685D02*
D03*
D25*
Y-64075D02*
D03*
Y-66043D02*
D03*
Y-68012D02*
D03*
Y-69980D02*
D03*
X77067Y-62106D02*
D03*
Y-64075D02*
D03*
Y-66043D02*
D03*
Y-68012D02*
D03*
Y-69980D02*
D03*
Y81559D02*
D03*
Y83528D02*
D03*
Y85496D02*
D03*
Y87465D02*
D03*
Y89433D02*
D03*
X59744Y81559D02*
D03*
Y83528D02*
D03*
Y85496D02*
D03*
Y87465D02*
D03*
Y38232D02*
D03*
Y36264D02*
D03*
Y34295D02*
D03*
Y32327D02*
D03*
X77067Y40201D02*
D03*
Y38232D02*
D03*
Y36264D02*
D03*
Y34295D02*
D03*
Y32327D02*
D03*
Y-16559D02*
D03*
Y-14591D02*
D03*
Y-12622D02*
D03*
Y-10654D02*
D03*
Y-8685D02*
D03*
X59744Y-16559D02*
D03*
Y-14591D02*
D03*
Y-12622D02*
D03*
Y-10654D02*
D03*
D26*
X-61614Y120276D02*
D03*
Y124016D02*
D03*
Y127756D02*
D03*
X-71457Y120276D02*
D03*
Y124016D02*
D03*
D27*
Y127756D02*
D03*
D28*
X-17972Y123425D02*
D03*
X-25335Y119685D02*
D03*
D29*
X-17972Y115945D02*
D03*
D30*
X-45669Y104524D02*
D03*
Y111024D02*
D03*
X-54035Y127659D02*
D03*
Y121160D02*
D03*
D31*
X-78051Y-75197D02*
D03*
Y-81102D02*
D03*
X-77165Y68105D02*
D03*
Y74011D02*
D03*
X-78051Y18898D02*
D03*
Y24803D02*
D03*
Y-29528D02*
D03*
Y-23622D02*
D03*
D32*
X59646Y101870D02*
D03*
X73228D02*
D03*
X73130Y52854D02*
D03*
X59547D02*
D03*
X59744Y4232D02*
D03*
X73327D02*
D03*
X59547Y-50492D02*
D03*
X73130D02*
D03*
D33*
X-95768Y112175D02*
D03*
Y117702D02*
D03*
D34*
X49606Y-61130D02*
D03*
Y-55799D02*
D03*
X95866Y121661D02*
D03*
Y116331D02*
D03*
X8202Y99508D02*
D03*
Y104839D02*
D03*
X48720Y95480D02*
D03*
Y90150D02*
D03*
X84252Y52075D02*
D03*
Y46744D02*
D03*
X49606Y46661D02*
D03*
Y41331D02*
D03*
X84252Y-1386D02*
D03*
Y3945D02*
D03*
X47638Y-189D02*
D03*
Y-5520D02*
D03*
X83760Y-49894D02*
D03*
Y-55224D02*
D03*
D35*
X-45669Y127270D02*
D03*
Y121548D02*
D03*
D36*
X-69004Y134646D02*
D03*
X-63673D02*
D03*
X89673Y93307D02*
D03*
X84343D02*
D03*
X16823Y-11220D02*
D03*
X22153D02*
D03*
X16791Y-59193D02*
D03*
X22121D02*
D03*
X16429Y71082D02*
D03*
X21760D02*
D03*
X16921Y40650D02*
D03*
X22252D02*
D03*
D37*
X-71063Y61509D02*
D03*
X-71949Y12302D02*
D03*
Y-36124D02*
D03*
Y-87698D02*
D03*
D38*
X-68504Y61509D02*
D03*
X-65945D02*
D03*
X-63386D02*
D03*
X-60827D02*
D03*
X-58268D02*
D03*
X-55709D02*
D03*
X-53150D02*
D03*
Y84150D02*
D03*
X-55709D02*
D03*
X-58268D02*
D03*
X-60827D02*
D03*
X-63386D02*
D03*
X-65945D02*
D03*
X-68504D02*
D03*
X-71063D02*
D03*
X-71949Y34942D02*
D03*
X-69390D02*
D03*
X-66831D02*
D03*
X-64272D02*
D03*
X-61713D02*
D03*
X-59153D02*
D03*
X-56595D02*
D03*
X-54035D02*
D03*
Y12302D02*
D03*
X-56595D02*
D03*
X-59153D02*
D03*
X-61713D02*
D03*
X-64272D02*
D03*
X-66831D02*
D03*
X-69390D02*
D03*
Y-36124D02*
D03*
X-66831D02*
D03*
X-64272D02*
D03*
X-61713D02*
D03*
X-59153D02*
D03*
X-56595D02*
D03*
X-54035D02*
D03*
Y-13483D02*
D03*
X-56595D02*
D03*
X-59153D02*
D03*
X-61713D02*
D03*
X-64272D02*
D03*
X-66831D02*
D03*
X-69390D02*
D03*
X-71949D02*
D03*
Y-65057D02*
D03*
X-69390D02*
D03*
X-66831D02*
D03*
X-64272D02*
D03*
X-61713D02*
D03*
X-59153D02*
D03*
X-56595D02*
D03*
X-54035D02*
D03*
Y-87698D02*
D03*
X-56595D02*
D03*
X-59153D02*
D03*
X-61713D02*
D03*
X-64272D02*
D03*
X-66831D02*
D03*
X-69390D02*
D03*
D39*
X77461Y122933D02*
D03*
X26378Y98433D02*
D03*
D40*
X87894Y115453D02*
D03*
Y122933D02*
D03*
X77461Y119193D02*
D03*
Y115453D02*
D03*
X87894Y119193D02*
D03*
X15945Y105913D02*
D03*
Y98433D02*
D03*
X26378Y102173D02*
D03*
Y105913D02*
D03*
X15945Y102173D02*
D03*
D41*
X-98Y71082D02*
D03*
Y64967D02*
D03*
X-2953Y34540D02*
D03*
Y28424D02*
D03*
X-2953Y-22395D02*
D03*
Y-16280D02*
D03*
X295Y-63235D02*
D03*
Y-69350D02*
D03*
D42*
X30283Y48228D02*
D03*
Y53228D02*
D03*
Y58228D02*
D03*
Y63228D02*
D03*
X7842Y48228D02*
D03*
Y53228D02*
D03*
Y58228D02*
D03*
Y28424D02*
D03*
Y23424D02*
D03*
Y18424D02*
D03*
X30283Y33424D02*
D03*
Y28424D02*
D03*
Y23424D02*
D03*
Y18424D02*
D03*
Y-33898D02*
D03*
Y-28898D02*
D03*
Y-23898D02*
D03*
Y-18898D02*
D03*
X7842Y-33898D02*
D03*
Y-28898D02*
D03*
Y-23898D02*
D03*
X30676Y-81260D02*
D03*
Y-76260D02*
D03*
Y-71260D02*
D03*
Y-66260D02*
D03*
X8235Y-81260D02*
D03*
Y-76260D02*
D03*
Y-71260D02*
D03*
D43*
X7842Y63228D02*
D03*
Y33424D02*
D03*
Y-18898D02*
D03*
X8235Y-66260D02*
D03*
M02*
