G04*
G04 #@! TF.GenerationSoftware,Altium Limited,Altium Designer,23.3.1 (30)*
G04*
G04 Layer_Color=65535*
%FSLAX25Y25*%
%MOIN*%
G70*
G04*
G04 #@! TF.SameCoordinates,7FDB2B4D-D7D5-4B3D-9FC9-9F88D19D1CF5*
G04*
G04*
G04 #@! TF.FilePolarity,Positive*
G04*
G01*
G75*
%ADD10C,0.00984*%
%ADD11C,0.00600*%
%ADD12C,0.01575*%
%ADD13C,0.00787*%
%ADD14C,0.01968*%
%ADD15C,0.02362*%
%ADD16C,0.00591*%
%ADD17C,0.00630*%
G36*
X-123228Y-37402D02*
X-132677D01*
Y-6693D01*
X-123228D01*
Y-37402D01*
D02*
G37*
G36*
X133661Y-85335D02*
X123228D01*
Y-13780D01*
X133661D01*
Y-85335D01*
D02*
G37*
G36*
X146260Y-62598D02*
X135827D01*
Y-35039D01*
X146260D01*
Y-62598D01*
D02*
G37*
G36*
X150148Y-22835D02*
X141978D01*
Y-15256D01*
X150148D01*
Y-22835D01*
D02*
G37*
G36*
X104331Y-36614D02*
X94882D01*
Y-5906D01*
X104331D01*
Y-36614D01*
D02*
G37*
G36*
X133661Y17126D02*
X123228D01*
Y71653D01*
X133661D01*
Y17126D01*
D02*
G37*
G36*
X-124016Y80709D02*
Y50000D01*
X-133465D01*
Y80709D01*
X-124016D01*
D02*
G37*
G36*
X-144401Y54993D02*
X-144350Y54986D01*
X-144277Y54978D01*
X-144204Y54964D01*
X-144131Y54935D01*
X-144051Y54905D01*
X-144044Y54898D01*
X-144014Y54891D01*
X-143978Y54869D01*
X-143934Y54840D01*
X-143876Y54803D01*
X-143818Y54760D01*
X-143759Y54701D01*
X-143701Y54643D01*
X-143694Y54636D01*
X-143672Y54607D01*
X-143643Y54570D01*
X-143614Y54512D01*
X-143570Y54453D01*
X-143533Y54373D01*
X-143497Y54293D01*
X-143460Y54206D01*
Y54198D01*
X-143446Y54162D01*
X-143438Y54111D01*
X-143424Y54038D01*
X-143409Y53958D01*
X-143395Y53856D01*
X-143387Y53739D01*
X-143380Y53608D01*
Y53549D01*
X-143387Y53477D01*
X-143395Y53389D01*
X-143402Y53287D01*
X-143424Y53178D01*
X-143446Y53054D01*
X-143475Y52937D01*
X-143482Y52923D01*
X-143490Y52886D01*
X-143511Y52828D01*
X-143533Y52755D01*
X-143562Y52675D01*
X-143599Y52587D01*
X-143635Y52507D01*
X-143672Y52427D01*
X-144350D01*
Y52456D01*
X-144335Y52471D01*
X-144306Y52507D01*
X-144262Y52558D01*
X-144211Y52631D01*
Y52638D01*
X-144197Y52653D01*
X-144182Y52675D01*
X-144167Y52704D01*
X-144146Y52748D01*
X-144116Y52791D01*
X-144058Y52908D01*
Y52915D01*
X-144044Y52937D01*
X-144029Y52966D01*
X-144014Y53010D01*
X-143993Y53054D01*
X-143978Y53112D01*
X-143934Y53243D01*
Y53251D01*
X-143927Y53272D01*
X-143920Y53309D01*
X-143912Y53360D01*
X-143898Y53418D01*
X-143891Y53484D01*
X-143883Y53622D01*
Y53681D01*
X-143891Y53717D01*
Y53761D01*
X-143898Y53812D01*
X-143912Y53929D01*
Y53936D01*
X-143920Y53958D01*
X-143927Y53987D01*
X-143934Y54016D01*
X-143963Y54096D01*
X-143985Y54133D01*
X-144000Y54169D01*
Y54176D01*
X-144014Y54184D01*
X-144044Y54228D01*
X-144095Y54286D01*
X-144153Y54330D01*
X-144160D01*
X-144167Y54337D01*
X-144189Y54344D01*
X-144219Y54359D01*
X-144255Y54366D01*
X-144291Y54373D01*
X-144401Y54381D01*
X-144408D01*
X-144437D01*
X-144474Y54373D01*
X-144525Y54366D01*
X-144576Y54351D01*
X-144634Y54330D01*
X-144685Y54300D01*
X-144729Y54264D01*
X-144736Y54257D01*
X-144751Y54242D01*
X-144765Y54213D01*
X-144794Y54169D01*
X-144824Y54111D01*
X-144853Y54045D01*
X-144882Y53958D01*
X-144911Y53856D01*
Y53848D01*
X-144918Y53834D01*
X-144926Y53812D01*
X-144933Y53776D01*
X-144940Y53732D01*
X-144955Y53681D01*
X-144962Y53622D01*
X-144977Y53557D01*
Y53549D01*
X-144984Y53528D01*
X-144991Y53491D01*
X-144999Y53448D01*
X-145013Y53396D01*
X-145028Y53338D01*
X-145057Y53214D01*
Y53207D01*
X-145064Y53200D01*
X-145071Y53178D01*
X-145079Y53149D01*
X-145108Y53076D01*
X-145144Y52988D01*
X-145195Y52893D01*
X-145261Y52791D01*
X-145334Y52704D01*
X-145421Y52624D01*
X-145436Y52616D01*
X-145465Y52595D01*
X-145516Y52565D01*
X-145589Y52536D01*
X-145677Y52500D01*
X-145779Y52471D01*
X-145895Y52449D01*
X-146019Y52441D01*
X-146027D01*
X-146041D01*
X-146063D01*
X-146099Y52449D01*
X-146143Y52456D01*
X-146187Y52463D01*
X-146296Y52485D01*
X-146420Y52529D01*
X-146551Y52595D01*
X-146617Y52631D01*
X-146683Y52682D01*
X-146741Y52733D01*
X-146799Y52799D01*
X-146807Y52806D01*
X-146814Y52813D01*
X-146828Y52835D01*
X-146850Y52864D01*
X-146872Y52901D01*
X-146894Y52944D01*
X-146923Y52996D01*
X-146952Y53054D01*
X-147011Y53192D01*
X-147054Y53360D01*
X-147091Y53549D01*
X-147105Y53768D01*
Y53819D01*
X-147098Y53878D01*
Y53951D01*
X-147083Y54038D01*
X-147069Y54140D01*
X-147054Y54249D01*
X-147025Y54359D01*
Y54373D01*
X-147011Y54410D01*
X-146996Y54468D01*
X-146974Y54541D01*
X-146952Y54621D01*
X-146916Y54701D01*
X-146879Y54789D01*
X-146843Y54869D01*
X-146209D01*
Y54833D01*
X-146216Y54825D01*
X-146238Y54796D01*
X-146274Y54745D01*
X-146311Y54687D01*
X-146362Y54607D01*
X-146405Y54519D01*
X-146449Y54424D01*
X-146493Y54322D01*
X-146500Y54308D01*
X-146508Y54271D01*
X-146529Y54220D01*
X-146551Y54147D01*
X-146566Y54067D01*
X-146588Y53972D01*
X-146595Y53870D01*
X-146602Y53761D01*
Y53710D01*
X-146595Y53659D01*
X-146588Y53586D01*
X-146573Y53506D01*
X-146544Y53426D01*
X-146515Y53338D01*
X-146471Y53258D01*
X-146464Y53251D01*
X-146449Y53229D01*
X-146420Y53192D01*
X-146376Y53163D01*
X-146325Y53127D01*
X-146260Y53090D01*
X-146187Y53068D01*
X-146099Y53061D01*
X-146092D01*
X-146063D01*
X-146019Y53068D01*
X-145975Y53076D01*
X-145917Y53090D01*
X-145866Y53112D01*
X-145808Y53141D01*
X-145764Y53178D01*
X-145757Y53185D01*
X-145749Y53200D01*
X-145728Y53229D01*
X-145698Y53272D01*
X-145669Y53324D01*
X-145640Y53389D01*
X-145611Y53462D01*
X-145582Y53557D01*
Y53564D01*
X-145574Y53579D01*
Y53608D01*
X-145560Y53644D01*
X-145553Y53688D01*
X-145545Y53739D01*
X-145516Y53856D01*
Y53863D01*
X-145509Y53885D01*
X-145502Y53921D01*
X-145494Y53965D01*
X-145480Y54016D01*
X-145465Y54074D01*
X-145436Y54206D01*
Y54213D01*
X-145429Y54220D01*
Y54242D01*
X-145421Y54271D01*
X-145392Y54344D01*
X-145363Y54424D01*
X-145312Y54526D01*
X-145261Y54621D01*
X-145188Y54716D01*
X-145108Y54796D01*
X-145101Y54803D01*
X-145064Y54825D01*
X-145013Y54862D01*
X-144948Y54898D01*
X-144860Y54935D01*
X-144751Y54971D01*
X-144627Y54993D01*
X-144488Y55000D01*
X-144481D01*
X-144452D01*
X-144401Y54993D01*
D02*
G37*
G36*
X-146369Y52135D02*
X-146376Y52106D01*
X-146384Y52062D01*
X-146391Y52004D01*
Y51989D01*
X-146398Y51953D01*
Y51785D01*
X-146391Y51742D01*
X-146384Y51676D01*
X-146369Y51603D01*
X-146354Y51516D01*
X-146325Y51428D01*
X-146289Y51341D01*
X-146282Y51333D01*
X-146267Y51297D01*
X-146245Y51253D01*
X-146209Y51195D01*
X-146165Y51122D01*
X-146114Y51049D01*
X-146048Y50969D01*
X-145975Y50889D01*
X-143460D01*
Y50291D01*
X-147018D01*
Y50889D01*
X-146486D01*
Y50896D01*
X-146500Y50903D01*
X-146537Y50947D01*
X-146588Y51005D01*
X-146646Y51086D01*
X-146712Y51173D01*
X-146785Y51268D01*
X-146843Y51363D01*
X-146894Y51457D01*
X-146901Y51472D01*
X-146916Y51501D01*
X-146930Y51545D01*
X-146960Y51610D01*
X-146981Y51683D01*
X-146996Y51763D01*
X-147011Y51851D01*
X-147018Y51938D01*
Y52040D01*
X-147011Y52077D01*
Y52084D01*
X-147003Y52113D01*
Y52143D01*
X-146996Y52186D01*
X-146369D01*
Y52135D01*
D02*
G37*
G36*
X-145181Y47214D02*
X-145174D01*
X-145152D01*
X-145123D01*
X-145079Y47222D01*
X-145028D01*
X-144962Y47229D01*
X-144824Y47251D01*
X-144670Y47287D01*
X-144510Y47346D01*
X-144364Y47419D01*
X-144226Y47521D01*
Y47528D01*
X-144211Y47535D01*
X-144175Y47579D01*
X-144124Y47652D01*
X-144065Y47747D01*
X-144007Y47871D01*
X-143956Y48016D01*
X-143920Y48191D01*
X-143912Y48286D01*
X-143905Y48388D01*
Y48461D01*
X-143912Y48512D01*
Y48570D01*
X-143927Y48636D01*
X-143949Y48775D01*
Y48782D01*
X-143956Y48811D01*
X-143963Y48847D01*
X-143978Y48891D01*
X-144014Y49008D01*
X-144058Y49125D01*
Y49132D01*
X-144073Y49154D01*
X-144087Y49183D01*
X-144102Y49219D01*
X-144146Y49307D01*
X-144197Y49394D01*
Y49402D01*
X-144211Y49416D01*
X-144240Y49460D01*
X-144284Y49525D01*
X-144335Y49584D01*
Y49620D01*
X-143679D01*
Y49613D01*
X-143672Y49598D01*
X-143665Y49577D01*
X-143650Y49547D01*
X-143635Y49504D01*
X-143614Y49460D01*
X-143570Y49351D01*
Y49343D01*
X-143562Y49321D01*
X-143548Y49292D01*
X-143533Y49256D01*
X-143504Y49168D01*
X-143475Y49073D01*
Y49066D01*
X-143468Y49044D01*
X-143460Y49008D01*
X-143453Y48971D01*
X-143431Y48862D01*
X-143409Y48753D01*
Y48745D01*
X-143402Y48731D01*
Y48694D01*
X-143395Y48658D01*
X-143387Y48607D01*
Y48541D01*
X-143380Y48476D01*
Y48315D01*
X-143387Y48257D01*
X-143395Y48184D01*
X-143402Y48104D01*
X-143417Y48009D01*
X-143438Y47914D01*
X-143497Y47703D01*
X-143533Y47594D01*
X-143577Y47484D01*
X-143635Y47375D01*
X-143701Y47265D01*
X-143774Y47171D01*
X-143854Y47076D01*
X-143861Y47069D01*
X-143876Y47054D01*
X-143905Y47032D01*
X-143941Y47003D01*
X-143993Y46967D01*
X-144051Y46930D01*
X-144124Y46887D01*
X-144204Y46843D01*
X-144299Y46799D01*
X-144401Y46755D01*
X-144510Y46719D01*
X-144634Y46682D01*
X-144765Y46653D01*
X-144904Y46631D01*
X-145057Y46617D01*
X-145217Y46609D01*
X-145225D01*
X-145254D01*
X-145298D01*
X-145363Y46617D01*
X-145436Y46624D01*
X-145516Y46631D01*
X-145611Y46646D01*
X-145713Y46668D01*
X-145939Y46719D01*
X-146056Y46755D01*
X-146165Y46799D01*
X-146282Y46850D01*
X-146391Y46916D01*
X-146500Y46981D01*
X-146602Y47061D01*
X-146610Y47069D01*
X-146624Y47083D01*
X-146653Y47112D01*
X-146683Y47142D01*
X-146719Y47193D01*
X-146763Y47244D01*
X-146814Y47309D01*
X-146865Y47382D01*
X-146908Y47462D01*
X-146960Y47557D01*
X-147003Y47652D01*
X-147040Y47761D01*
X-147069Y47871D01*
X-147098Y47995D01*
X-147113Y48126D01*
X-147120Y48257D01*
Y48315D01*
X-147113Y48374D01*
X-147105Y48454D01*
X-147098Y48541D01*
X-147076Y48643D01*
X-147054Y48745D01*
X-147018Y48840D01*
X-147011Y48855D01*
X-147003Y48884D01*
X-146974Y48928D01*
X-146945Y48993D01*
X-146901Y49059D01*
X-146850Y49139D01*
X-146792Y49212D01*
X-146719Y49285D01*
X-146712Y49292D01*
X-146683Y49314D01*
X-146639Y49351D01*
X-146581Y49394D01*
X-146508Y49445D01*
X-146427Y49496D01*
X-146325Y49540D01*
X-146223Y49584D01*
X-146209Y49591D01*
X-146172Y49598D01*
X-146107Y49613D01*
X-146027Y49635D01*
X-145917Y49657D01*
X-145793Y49671D01*
X-145655Y49679D01*
X-145502Y49686D01*
X-145181D01*
Y47214D01*
D02*
G37*
G36*
X-142148Y44488D02*
Y43846D01*
X-143635Y44488D01*
X-147018Y43198D01*
Y43832D01*
X-144372Y44809D01*
X-147018Y45778D01*
Y46405D01*
X-142148Y44488D01*
D02*
G37*
G36*
X-143460Y42170D02*
X-143832D01*
X-143825Y42155D01*
X-143796Y42112D01*
X-143745Y42053D01*
X-143679Y41966D01*
X-143672Y41958D01*
X-143665Y41944D01*
X-143643Y41922D01*
X-143628Y41893D01*
X-143577Y41820D01*
X-143526Y41732D01*
Y41725D01*
X-143511Y41703D01*
X-143504Y41674D01*
X-143482Y41630D01*
X-143446Y41536D01*
X-143409Y41419D01*
Y41412D01*
X-143402Y41390D01*
X-143395Y41361D01*
X-143387Y41317D01*
X-143373Y41259D01*
X-143366Y41186D01*
X-143358Y41105D01*
Y40974D01*
X-143366Y40931D01*
Y40879D01*
X-143380Y40814D01*
X-143395Y40741D01*
X-143409Y40668D01*
X-143438Y40588D01*
X-143446Y40581D01*
X-143453Y40559D01*
X-143475Y40515D01*
X-143497Y40471D01*
X-143570Y40362D01*
X-143672Y40245D01*
X-143679Y40238D01*
X-143701Y40223D01*
X-143730Y40194D01*
X-143774Y40165D01*
X-143825Y40121D01*
X-143883Y40085D01*
X-143956Y40048D01*
X-144029Y40012D01*
X-144036D01*
X-144065Y39997D01*
X-144109Y39990D01*
X-144167Y39976D01*
X-144240Y39961D01*
X-144313Y39946D01*
X-144401Y39939D01*
X-144488Y39932D01*
X-144496D01*
X-144503D01*
X-144547D01*
X-144620Y39939D01*
X-144707Y39954D01*
X-144802Y39968D01*
X-144904Y39997D01*
X-145013Y40034D01*
X-145115Y40085D01*
X-145130Y40092D01*
X-145159Y40114D01*
X-145210Y40150D01*
X-145268Y40202D01*
X-145334Y40274D01*
X-145399Y40362D01*
X-145472Y40464D01*
X-145531Y40581D01*
X-145538Y40595D01*
X-145553Y40632D01*
X-145574Y40697D01*
X-145604Y40785D01*
X-145640Y40887D01*
X-145669Y41003D01*
X-145698Y41142D01*
X-145720Y41288D01*
Y41310D01*
X-145728Y41331D01*
Y41361D01*
X-145735Y41397D01*
Y41441D01*
X-145749Y41550D01*
X-145764Y41681D01*
X-145779Y41835D01*
X-145786Y41995D01*
X-145800Y42170D01*
X-145910D01*
X-145917D01*
X-145946D01*
X-145983D01*
X-146034Y42162D01*
X-146143Y42141D01*
X-146201Y42126D01*
X-146252Y42104D01*
X-146260D01*
X-146274Y42090D01*
X-146296Y42075D01*
X-146325Y42061D01*
X-146391Y42002D01*
X-146457Y41922D01*
Y41915D01*
X-146471Y41900D01*
X-146478Y41878D01*
X-146493Y41849D01*
X-146515Y41805D01*
X-146529Y41762D01*
X-146551Y41645D01*
Y41638D01*
X-146559Y41616D01*
Y41579D01*
X-146566Y41543D01*
X-146573Y41485D01*
Y41434D01*
X-146581Y41302D01*
Y41222D01*
X-146573Y41164D01*
X-146566Y41091D01*
X-146551Y41011D01*
X-146537Y40916D01*
X-146515Y40814D01*
Y40799D01*
X-146500Y40763D01*
X-146486Y40712D01*
X-146471Y40639D01*
X-146442Y40559D01*
X-146413Y40464D01*
X-146333Y40253D01*
Y40223D01*
X-146938D01*
Y40231D01*
X-146945Y40253D01*
X-146960Y40289D01*
X-146974Y40340D01*
X-146989Y40406D01*
X-147003Y40486D01*
X-147025Y40581D01*
X-147047Y40690D01*
Y40705D01*
X-147054Y40741D01*
X-147069Y40807D01*
X-147076Y40887D01*
X-147091Y40982D01*
X-147098Y41084D01*
X-147105Y41310D01*
Y41441D01*
X-147098Y41521D01*
X-147091Y41623D01*
X-147083Y41725D01*
X-147069Y41827D01*
X-147047Y41922D01*
Y41936D01*
X-147032Y41966D01*
X-147018Y42017D01*
X-146996Y42075D01*
X-146967Y42148D01*
X-146930Y42221D01*
X-146887Y42301D01*
X-146836Y42381D01*
X-146828Y42388D01*
X-146807Y42410D01*
X-146777Y42447D01*
X-146734Y42491D01*
X-146683Y42534D01*
X-146617Y42578D01*
X-146537Y42629D01*
X-146457Y42665D01*
X-146449Y42673D01*
X-146413Y42680D01*
X-146362Y42695D01*
X-146296Y42717D01*
X-146216Y42738D01*
X-146121Y42753D01*
X-146012Y42760D01*
X-145888Y42768D01*
X-143460D01*
Y42170D01*
D02*
G37*
G36*
Y36987D02*
X-148206D01*
Y37621D01*
X-144022D01*
Y39735D01*
X-143460D01*
Y36987D01*
D02*
G37*
G36*
X-145093Y33728D02*
X-143460D01*
Y33116D01*
X-145093D01*
Y31023D01*
X-145757D01*
X-148206Y33138D01*
Y33728D01*
X-145604D01*
Y34289D01*
X-145093D01*
Y33728D01*
D02*
G37*
G36*
X11281Y-149778D02*
X11369Y-149785D01*
X11464Y-149800D01*
X11558Y-149814D01*
X11653Y-149836D01*
X11668D01*
X11697Y-149851D01*
X11741Y-149865D01*
X11799Y-149887D01*
X11865Y-149916D01*
X11937Y-149953D01*
X12083Y-150040D01*
X12091Y-150048D01*
X12120Y-150069D01*
X12156Y-150099D01*
X12200Y-150142D01*
X12258Y-150201D01*
X12309Y-150259D01*
X12360Y-150332D01*
X12404Y-150412D01*
X12411Y-150419D01*
X12419Y-150449D01*
X12440Y-150500D01*
X12462Y-150558D01*
X12477Y-150631D01*
X12499Y-150718D01*
X12506Y-150813D01*
X12513Y-150923D01*
Y-150930D01*
Y-150937D01*
Y-150959D01*
X12506Y-150988D01*
X12499Y-151061D01*
X12484Y-151156D01*
X12448Y-151265D01*
X12404Y-151382D01*
X12338Y-151498D01*
X12251Y-151615D01*
X12236Y-151630D01*
X12207Y-151659D01*
X12149Y-151710D01*
X12076Y-151768D01*
X11988Y-151834D01*
X11879Y-151892D01*
X11762Y-151950D01*
X11631Y-151987D01*
Y-152031D01*
X11639D01*
X11660Y-152038D01*
X11690Y-152045D01*
X11726Y-152052D01*
X11777Y-152067D01*
X11828Y-152089D01*
X11952Y-152133D01*
X11959D01*
X11981Y-152147D01*
X12018Y-152162D01*
X12061Y-152184D01*
X12163Y-152249D01*
X12273Y-152337D01*
X12280Y-152344D01*
X12295Y-152359D01*
X12324Y-152395D01*
X12360Y-152431D01*
X12397Y-152482D01*
X12433Y-152548D01*
X12477Y-152614D01*
X12513Y-152694D01*
X12521Y-152701D01*
X12528Y-152730D01*
X12542Y-152774D01*
X12564Y-152840D01*
X12579Y-152913D01*
X12594Y-153007D01*
X12601Y-153110D01*
X12608Y-153219D01*
Y-153233D01*
Y-153270D01*
X12601Y-153335D01*
X12594Y-153416D01*
X12579Y-153503D01*
X12557Y-153605D01*
X12528Y-153707D01*
X12491Y-153809D01*
X12484Y-153824D01*
X12470Y-153853D01*
X12448Y-153904D01*
X12411Y-153970D01*
X12368Y-154043D01*
X12317Y-154123D01*
X12258Y-154203D01*
X12185Y-154283D01*
X12178Y-154290D01*
X12149Y-154320D01*
X12105Y-154356D01*
X12047Y-154407D01*
X11967Y-154458D01*
X11886Y-154516D01*
X11784Y-154568D01*
X11682Y-154611D01*
X11668Y-154619D01*
X11631Y-154626D01*
X11573Y-154648D01*
X11493Y-154662D01*
X11391Y-154684D01*
X11281Y-154706D01*
X11157Y-154713D01*
X11019Y-154721D01*
X10961D01*
X10888Y-154713D01*
X10793Y-154706D01*
X10691Y-154699D01*
X10567Y-154684D01*
X10436Y-154662D01*
X10305Y-154633D01*
X10297D01*
X10290Y-154626D01*
X10246Y-154619D01*
X10181Y-154604D01*
X10100Y-154575D01*
X10006Y-154546D01*
X9911Y-154516D01*
X9816Y-154473D01*
X9721Y-154429D01*
Y-153758D01*
X9765D01*
X9772Y-153766D01*
X9802Y-153787D01*
X9845Y-153817D01*
X9904Y-153853D01*
X9984Y-153897D01*
X10071Y-153940D01*
X10181Y-153992D01*
X10297Y-154043D01*
X10305D01*
X10312Y-154050D01*
X10356Y-154065D01*
X10421Y-154086D01*
X10509Y-154108D01*
X10611Y-154130D01*
X10727Y-154152D01*
X10851Y-154166D01*
X10975Y-154174D01*
X11048D01*
X11099Y-154166D01*
X11157Y-154159D01*
X11223Y-154152D01*
X11369Y-154115D01*
X11376D01*
X11405Y-154101D01*
X11442Y-154086D01*
X11485Y-154065D01*
X11588Y-153999D01*
X11697Y-153911D01*
X11704Y-153904D01*
X11719Y-153890D01*
X11741Y-153860D01*
X11770Y-153824D01*
X11799Y-153773D01*
X11828Y-153722D01*
X11886Y-153605D01*
Y-153598D01*
X11901Y-153576D01*
X11908Y-153532D01*
X11923Y-153481D01*
X11937Y-153423D01*
X11945Y-153350D01*
X11959Y-153263D01*
Y-153168D01*
Y-153153D01*
Y-153124D01*
X11952Y-153080D01*
Y-153022D01*
X11937Y-152949D01*
X11923Y-152884D01*
X11908Y-152811D01*
X11879Y-152745D01*
Y-152738D01*
X11865Y-152716D01*
X11850Y-152687D01*
X11828Y-152650D01*
X11762Y-152563D01*
X11675Y-152482D01*
X11668Y-152475D01*
X11653Y-152468D01*
X11624Y-152453D01*
X11580Y-152431D01*
X11536Y-152410D01*
X11478Y-152388D01*
X11354Y-152351D01*
X11347D01*
X11325Y-152344D01*
X11289Y-152337D01*
X11238Y-152329D01*
X11179Y-152322D01*
X11114Y-152315D01*
X10961Y-152308D01*
X10691D01*
Y-151783D01*
X10968D01*
X11048Y-151768D01*
X11143Y-151753D01*
X11252Y-151732D01*
X11369Y-151695D01*
X11485Y-151644D01*
X11595Y-151579D01*
X11609Y-151571D01*
X11639Y-151542D01*
X11682Y-151491D01*
X11733Y-151426D01*
X11777Y-151345D01*
X11821Y-151243D01*
X11850Y-151127D01*
X11865Y-150988D01*
Y-150981D01*
Y-150959D01*
Y-150923D01*
X11857Y-150879D01*
X11835Y-150777D01*
X11792Y-150675D01*
Y-150667D01*
X11777Y-150653D01*
X11762Y-150631D01*
X11741Y-150602D01*
X11682Y-150536D01*
X11609Y-150470D01*
X11602Y-150463D01*
X11588Y-150456D01*
X11566Y-150441D01*
X11536Y-150419D01*
X11449Y-150383D01*
X11347Y-150354D01*
X11340D01*
X11325Y-150347D01*
X11289Y-150339D01*
X11252Y-150332D01*
X11208D01*
X11150Y-150325D01*
X11033Y-150317D01*
X10968D01*
X10932Y-150325D01*
X10873D01*
X10822Y-150332D01*
X10691Y-150361D01*
X10684D01*
X10662Y-150368D01*
X10633Y-150376D01*
X10589Y-150390D01*
X10538Y-150405D01*
X10480Y-150427D01*
X10356Y-150470D01*
X10348D01*
X10334Y-150485D01*
X10305Y-150492D01*
X10268Y-150514D01*
X10181Y-150558D01*
X10086Y-150609D01*
X10079D01*
X10071Y-150616D01*
X10020Y-150645D01*
X9955Y-150689D01*
X9889Y-150733D01*
X9853D01*
Y-150069D01*
X9860Y-150062D01*
X9889Y-150048D01*
X9933Y-150026D01*
X9998Y-149997D01*
X10079Y-149968D01*
X10173Y-149931D01*
X10283Y-149902D01*
X10407Y-149865D01*
X10414D01*
X10421Y-149858D01*
X10465Y-149851D01*
X10538Y-149836D01*
X10625Y-149814D01*
X10735Y-149800D01*
X10844Y-149785D01*
X10968Y-149778D01*
X11092Y-149771D01*
X11208D01*
X11281Y-149778D01*
D02*
G37*
G36*
X-5471D02*
X-5384Y-149785D01*
X-5289Y-149800D01*
X-5194Y-149814D01*
X-5099Y-149836D01*
X-5085D01*
X-5055Y-149851D01*
X-5012Y-149865D01*
X-4953Y-149887D01*
X-4888Y-149916D01*
X-4815Y-149953D01*
X-4669Y-150040D01*
X-4662Y-150048D01*
X-4633Y-150069D01*
X-4596Y-150099D01*
X-4552Y-150142D01*
X-4494Y-150201D01*
X-4443Y-150259D01*
X-4392Y-150332D01*
X-4348Y-150412D01*
X-4341Y-150419D01*
X-4334Y-150449D01*
X-4312Y-150500D01*
X-4290Y-150558D01*
X-4276Y-150631D01*
X-4254Y-150718D01*
X-4246Y-150813D01*
X-4239Y-150923D01*
Y-150930D01*
Y-150937D01*
Y-150959D01*
X-4246Y-150988D01*
X-4254Y-151061D01*
X-4268Y-151156D01*
X-4305Y-151265D01*
X-4348Y-151382D01*
X-4414Y-151498D01*
X-4501Y-151615D01*
X-4516Y-151630D01*
X-4545Y-151659D01*
X-4603Y-151710D01*
X-4676Y-151768D01*
X-4764Y-151834D01*
X-4873Y-151892D01*
X-4990Y-151950D01*
X-5121Y-151987D01*
Y-152031D01*
X-5114D01*
X-5092Y-152038D01*
X-5063Y-152045D01*
X-5026Y-152052D01*
X-4975Y-152067D01*
X-4924Y-152089D01*
X-4800Y-152133D01*
X-4793D01*
X-4771Y-152147D01*
X-4735Y-152162D01*
X-4691Y-152184D01*
X-4589Y-152249D01*
X-4480Y-152337D01*
X-4472Y-152344D01*
X-4458Y-152359D01*
X-4429Y-152395D01*
X-4392Y-152431D01*
X-4356Y-152482D01*
X-4319Y-152548D01*
X-4276Y-152614D01*
X-4239Y-152694D01*
X-4232Y-152701D01*
X-4225Y-152730D01*
X-4210Y-152774D01*
X-4188Y-152840D01*
X-4173Y-152913D01*
X-4159Y-153007D01*
X-4152Y-153110D01*
X-4144Y-153219D01*
Y-153233D01*
Y-153270D01*
X-4152Y-153335D01*
X-4159Y-153416D01*
X-4173Y-153503D01*
X-4195Y-153605D01*
X-4225Y-153707D01*
X-4261Y-153809D01*
X-4268Y-153824D01*
X-4283Y-153853D01*
X-4305Y-153904D01*
X-4341Y-153970D01*
X-4385Y-154043D01*
X-4436Y-154123D01*
X-4494Y-154203D01*
X-4567Y-154283D01*
X-4574Y-154290D01*
X-4603Y-154320D01*
X-4647Y-154356D01*
X-4706Y-154407D01*
X-4786Y-154458D01*
X-4866Y-154516D01*
X-4968Y-154568D01*
X-5070Y-154611D01*
X-5085Y-154619D01*
X-5121Y-154626D01*
X-5179Y-154648D01*
X-5260Y-154662D01*
X-5362Y-154684D01*
X-5471Y-154706D01*
X-5595Y-154713D01*
X-5734Y-154721D01*
X-5792D01*
X-5865Y-154713D01*
X-5959Y-154706D01*
X-6061Y-154699D01*
X-6185Y-154684D01*
X-6317Y-154662D01*
X-6448Y-154633D01*
X-6455D01*
X-6463Y-154626D01*
X-6506Y-154619D01*
X-6572Y-154604D01*
X-6652Y-154575D01*
X-6747Y-154546D01*
X-6842Y-154516D01*
X-6936Y-154473D01*
X-7031Y-154429D01*
Y-153758D01*
X-6987D01*
X-6980Y-153766D01*
X-6951Y-153787D01*
X-6907Y-153817D01*
X-6849Y-153853D01*
X-6769Y-153897D01*
X-6681Y-153940D01*
X-6572Y-153992D01*
X-6455Y-154043D01*
X-6448D01*
X-6441Y-154050D01*
X-6397Y-154065D01*
X-6331Y-154086D01*
X-6244Y-154108D01*
X-6142Y-154130D01*
X-6025Y-154152D01*
X-5901Y-154166D01*
X-5777Y-154174D01*
X-5704D01*
X-5653Y-154166D01*
X-5595Y-154159D01*
X-5529Y-154152D01*
X-5384Y-154115D01*
X-5376D01*
X-5347Y-154101D01*
X-5311Y-154086D01*
X-5267Y-154065D01*
X-5165Y-153999D01*
X-5055Y-153911D01*
X-5048Y-153904D01*
X-5034Y-153890D01*
X-5012Y-153860D01*
X-4983Y-153824D01*
X-4953Y-153773D01*
X-4924Y-153722D01*
X-4866Y-153605D01*
Y-153598D01*
X-4851Y-153576D01*
X-4844Y-153532D01*
X-4829Y-153481D01*
X-4815Y-153423D01*
X-4808Y-153350D01*
X-4793Y-153263D01*
Y-153168D01*
Y-153153D01*
Y-153124D01*
X-4800Y-153080D01*
Y-153022D01*
X-4815Y-152949D01*
X-4829Y-152884D01*
X-4844Y-152811D01*
X-4873Y-152745D01*
Y-152738D01*
X-4888Y-152716D01*
X-4902Y-152687D01*
X-4924Y-152650D01*
X-4990Y-152563D01*
X-5077Y-152482D01*
X-5085Y-152475D01*
X-5099Y-152468D01*
X-5128Y-152453D01*
X-5172Y-152431D01*
X-5216Y-152410D01*
X-5274Y-152388D01*
X-5398Y-152351D01*
X-5405D01*
X-5427Y-152344D01*
X-5464Y-152337D01*
X-5515Y-152329D01*
X-5573Y-152322D01*
X-5639Y-152315D01*
X-5792Y-152308D01*
X-6061D01*
Y-151783D01*
X-5785D01*
X-5704Y-151768D01*
X-5610Y-151753D01*
X-5500Y-151732D01*
X-5384Y-151695D01*
X-5267Y-151644D01*
X-5158Y-151579D01*
X-5143Y-151571D01*
X-5114Y-151542D01*
X-5070Y-151491D01*
X-5019Y-151426D01*
X-4975Y-151345D01*
X-4932Y-151243D01*
X-4902Y-151127D01*
X-4888Y-150988D01*
Y-150981D01*
Y-150959D01*
Y-150923D01*
X-4895Y-150879D01*
X-4917Y-150777D01*
X-4961Y-150675D01*
Y-150667D01*
X-4975Y-150653D01*
X-4990Y-150631D01*
X-5012Y-150602D01*
X-5070Y-150536D01*
X-5143Y-150470D01*
X-5150Y-150463D01*
X-5165Y-150456D01*
X-5187Y-150441D01*
X-5216Y-150419D01*
X-5303Y-150383D01*
X-5405Y-150354D01*
X-5413D01*
X-5427Y-150347D01*
X-5464Y-150339D01*
X-5500Y-150332D01*
X-5544D01*
X-5602Y-150325D01*
X-5719Y-150317D01*
X-5785D01*
X-5821Y-150325D01*
X-5879D01*
X-5930Y-150332D01*
X-6061Y-150361D01*
X-6069D01*
X-6091Y-150368D01*
X-6120Y-150376D01*
X-6164Y-150390D01*
X-6215Y-150405D01*
X-6273Y-150427D01*
X-6397Y-150470D01*
X-6404D01*
X-6419Y-150485D01*
X-6448Y-150492D01*
X-6484Y-150514D01*
X-6572Y-150558D01*
X-6667Y-150609D01*
X-6674D01*
X-6681Y-150616D01*
X-6732Y-150645D01*
X-6798Y-150689D01*
X-6863Y-150733D01*
X-6900D01*
Y-150069D01*
X-6893Y-150062D01*
X-6863Y-150048D01*
X-6820Y-150026D01*
X-6754Y-149997D01*
X-6674Y-149968D01*
X-6579Y-149931D01*
X-6470Y-149902D01*
X-6346Y-149865D01*
X-6339D01*
X-6331Y-149858D01*
X-6288Y-149851D01*
X-6215Y-149836D01*
X-6127Y-149814D01*
X-6018Y-149800D01*
X-5908Y-149785D01*
X-5785Y-149778D01*
X-5661Y-149771D01*
X-5544D01*
X-5471Y-149778D01*
D02*
G37*
G36*
X7622D02*
X7680D01*
X7746Y-149793D01*
X7891Y-149814D01*
X8059Y-149858D01*
X8234Y-149924D01*
X8322Y-149960D01*
X8402Y-150011D01*
X8482Y-150062D01*
X8555Y-150128D01*
X8562Y-150135D01*
X8569Y-150142D01*
X8591Y-150164D01*
X8613Y-150194D01*
X8642Y-150230D01*
X8672Y-150274D01*
X8708Y-150317D01*
X8744Y-150376D01*
X8817Y-150514D01*
X8876Y-150675D01*
X8919Y-150871D01*
X8927Y-150973D01*
X8934Y-151083D01*
Y-151097D01*
Y-151127D01*
Y-151185D01*
X8927Y-151251D01*
X8919Y-151331D01*
X8905Y-151418D01*
X8868Y-151600D01*
Y-151608D01*
X8854Y-151637D01*
X8839Y-151688D01*
X8825Y-151739D01*
X8795Y-151804D01*
X8766Y-151877D01*
X8686Y-152031D01*
X8679Y-152038D01*
X8664Y-152067D01*
X8642Y-152111D01*
X8606Y-152162D01*
X8562Y-152227D01*
X8518Y-152293D01*
X8402Y-152446D01*
X8394Y-152453D01*
X8373Y-152482D01*
X8336Y-152519D01*
X8292Y-152570D01*
X8241Y-152636D01*
X8183Y-152701D01*
X8052Y-152847D01*
X8037Y-152862D01*
X8001Y-152905D01*
X7935Y-152964D01*
X7855Y-153051D01*
X7760Y-153153D01*
X7644Y-153270D01*
X7520Y-153394D01*
X7381Y-153525D01*
X7374Y-153532D01*
X7367Y-153540D01*
X7323Y-153583D01*
X7250Y-153649D01*
X7170Y-153722D01*
X7075Y-153809D01*
X6973Y-153904D01*
X6878Y-153992D01*
X6791Y-154072D01*
X9131D01*
Y-154619D01*
X6200D01*
Y-153955D01*
X6208Y-153948D01*
X6215Y-153940D01*
X6251Y-153904D01*
X6317Y-153846D01*
X6390Y-153773D01*
X6485Y-153685D01*
X6579Y-153583D01*
X6791Y-153379D01*
X6805Y-153365D01*
X6842Y-153328D01*
X6893Y-153277D01*
X6966Y-153204D01*
X7053Y-153117D01*
X7148Y-153022D01*
X7243Y-152920D01*
X7345Y-152811D01*
X7352Y-152803D01*
X7367Y-152781D01*
X7396Y-152752D01*
X7432Y-152708D01*
X7476Y-152657D01*
X7527Y-152599D01*
X7636Y-152468D01*
X7760Y-152315D01*
X7884Y-152155D01*
X7994Y-152001D01*
X8037Y-151928D01*
X8081Y-151856D01*
Y-151848D01*
X8088Y-151841D01*
X8103Y-151819D01*
X8110Y-151790D01*
X8147Y-151717D01*
X8183Y-151622D01*
X8220Y-151513D01*
X8256Y-151389D01*
X8278Y-151251D01*
X8285Y-151112D01*
Y-151105D01*
Y-151075D01*
Y-151039D01*
X8278Y-150995D01*
X8256Y-150879D01*
X8220Y-150762D01*
Y-150755D01*
X8205Y-150733D01*
X8190Y-150711D01*
X8176Y-150675D01*
X8125Y-150594D01*
X8052Y-150514D01*
X8045Y-150507D01*
X8030Y-150500D01*
X8008Y-150478D01*
X7979Y-150463D01*
X7891Y-150412D01*
X7790Y-150368D01*
X7782D01*
X7768Y-150361D01*
X7731Y-150354D01*
X7695Y-150339D01*
X7651Y-150332D01*
X7593Y-150325D01*
X7469Y-150317D01*
X7403D01*
X7367Y-150325D01*
X7308D01*
X7257Y-150332D01*
X7126Y-150361D01*
X7119D01*
X7097Y-150368D01*
X7061Y-150376D01*
X7017Y-150390D01*
X6966Y-150405D01*
X6915Y-150427D01*
X6791Y-150470D01*
X6784D01*
X6769Y-150478D01*
X6740Y-150492D01*
X6711Y-150507D01*
X6630Y-150551D01*
X6536Y-150609D01*
X6528D01*
X6514Y-150624D01*
X6492Y-150638D01*
X6463Y-150653D01*
X6397Y-150689D01*
X6331Y-150733D01*
X6302D01*
Y-150062D01*
X6310Y-150055D01*
X6339Y-150048D01*
X6382Y-150026D01*
X6448Y-149997D01*
X6521Y-149968D01*
X6616Y-149938D01*
X6725Y-149902D01*
X6849Y-149865D01*
X6856D01*
X6864Y-149858D01*
X6907Y-149851D01*
X6973Y-149836D01*
X7061Y-149814D01*
X7163Y-149800D01*
X7279Y-149785D01*
X7396Y-149778D01*
X7512Y-149771D01*
X7578D01*
X7622Y-149778D01*
D02*
G37*
G36*
X492D02*
X550D01*
X616Y-149793D01*
X762Y-149814D01*
X930Y-149858D01*
X1104Y-149924D01*
X1192Y-149960D01*
X1272Y-150011D01*
X1352Y-150062D01*
X1425Y-150128D01*
X1433Y-150135D01*
X1440Y-150142D01*
X1462Y-150164D01*
X1484Y-150194D01*
X1513Y-150230D01*
X1542Y-150274D01*
X1578Y-150317D01*
X1615Y-150376D01*
X1688Y-150514D01*
X1746Y-150675D01*
X1790Y-150871D01*
X1797Y-150973D01*
X1804Y-151083D01*
Y-151097D01*
Y-151127D01*
Y-151185D01*
X1797Y-151251D01*
X1790Y-151331D01*
X1775Y-151418D01*
X1739Y-151600D01*
Y-151608D01*
X1724Y-151637D01*
X1710Y-151688D01*
X1695Y-151739D01*
X1666Y-151804D01*
X1637Y-151877D01*
X1556Y-152031D01*
X1549Y-152038D01*
X1535Y-152067D01*
X1513Y-152111D01*
X1476Y-152162D01*
X1433Y-152227D01*
X1389Y-152293D01*
X1272Y-152446D01*
X1265Y-152453D01*
X1243Y-152482D01*
X1207Y-152519D01*
X1163Y-152570D01*
X1112Y-152636D01*
X1053Y-152701D01*
X922Y-152847D01*
X908Y-152862D01*
X871Y-152905D01*
X806Y-152964D01*
X726Y-153051D01*
X631Y-153153D01*
X514Y-153270D01*
X390Y-153394D01*
X252Y-153525D01*
X244Y-153532D01*
X237Y-153540D01*
X193Y-153583D01*
X120Y-153649D01*
X40Y-153722D01*
X-55Y-153809D01*
X-157Y-153904D01*
X-251Y-153992D01*
X-339Y-154072D01*
X2001D01*
Y-154619D01*
X-929D01*
Y-153955D01*
X-922Y-153948D01*
X-915Y-153940D01*
X-878Y-153904D01*
X-813Y-153846D01*
X-740Y-153773D01*
X-645Y-153685D01*
X-550Y-153583D01*
X-339Y-153379D01*
X-324Y-153365D01*
X-288Y-153328D01*
X-237Y-153277D01*
X-164Y-153204D01*
X-76Y-153117D01*
X18Y-153022D01*
X113Y-152920D01*
X215Y-152811D01*
X222Y-152803D01*
X237Y-152781D01*
X266Y-152752D01*
X303Y-152708D01*
X346Y-152657D01*
X397Y-152599D01*
X507Y-152468D01*
X631Y-152315D01*
X755Y-152155D01*
X864Y-152001D01*
X908Y-151928D01*
X951Y-151856D01*
Y-151848D01*
X959Y-151841D01*
X973Y-151819D01*
X981Y-151790D01*
X1017Y-151717D01*
X1053Y-151622D01*
X1090Y-151513D01*
X1126Y-151389D01*
X1148Y-151251D01*
X1156Y-151112D01*
Y-151105D01*
Y-151075D01*
Y-151039D01*
X1148Y-150995D01*
X1126Y-150879D01*
X1090Y-150762D01*
Y-150755D01*
X1075Y-150733D01*
X1061Y-150711D01*
X1046Y-150675D01*
X995Y-150594D01*
X922Y-150514D01*
X915Y-150507D01*
X900Y-150500D01*
X879Y-150478D01*
X849Y-150463D01*
X762Y-150412D01*
X660Y-150368D01*
X653D01*
X638Y-150361D01*
X601Y-150354D01*
X565Y-150339D01*
X521Y-150332D01*
X463Y-150325D01*
X339Y-150317D01*
X274D01*
X237Y-150325D01*
X179D01*
X128Y-150332D01*
X-4Y-150361D01*
X-11D01*
X-33Y-150368D01*
X-69Y-150376D01*
X-113Y-150390D01*
X-164Y-150405D01*
X-215Y-150427D01*
X-339Y-150470D01*
X-346D01*
X-361Y-150478D01*
X-390Y-150492D01*
X-419Y-150507D01*
X-499Y-150551D01*
X-594Y-150609D01*
X-601D01*
X-616Y-150624D01*
X-638Y-150638D01*
X-667Y-150653D01*
X-733Y-150689D01*
X-798Y-150733D01*
X-827D01*
Y-150062D01*
X-820Y-150055D01*
X-791Y-150048D01*
X-747Y-150026D01*
X-681Y-149997D01*
X-609Y-149968D01*
X-514Y-149938D01*
X-404Y-149902D01*
X-281Y-149865D01*
X-273D01*
X-266Y-149858D01*
X-222Y-149851D01*
X-157Y-149836D01*
X-69Y-149814D01*
X33Y-149800D01*
X150Y-149785D01*
X266Y-149778D01*
X383Y-149771D01*
X448D01*
X492Y-149778D01*
D02*
G37*
G36*
X4137D02*
X4196D01*
X4254Y-149793D01*
X4334Y-149800D01*
X4414Y-149822D01*
X4502Y-149851D01*
X4589Y-149880D01*
X4684Y-149924D01*
X4779Y-149975D01*
X4874Y-150033D01*
X4968Y-150106D01*
X5056Y-150186D01*
X5136Y-150281D01*
X5209Y-150390D01*
X5216Y-150398D01*
X5223Y-150419D01*
X5245Y-150456D01*
X5267Y-150507D01*
X5296Y-150573D01*
X5325Y-150653D01*
X5362Y-150748D01*
X5398Y-150857D01*
X5427Y-150981D01*
X5464Y-151119D01*
X5493Y-151265D01*
X5522Y-151433D01*
X5544Y-151615D01*
X5566Y-151812D01*
X5573Y-152023D01*
X5581Y-152249D01*
Y-152264D01*
Y-152308D01*
Y-152373D01*
X5573Y-152461D01*
X5566Y-152563D01*
X5559Y-152687D01*
X5551Y-152818D01*
X5537Y-152964D01*
X5493Y-153270D01*
X5427Y-153576D01*
X5384Y-153729D01*
X5333Y-153868D01*
X5274Y-154006D01*
X5209Y-154123D01*
X5201Y-154130D01*
X5194Y-154145D01*
X5172Y-154181D01*
X5136Y-154218D01*
X5099Y-154261D01*
X5048Y-154312D01*
X4990Y-154363D01*
X4924Y-154422D01*
X4852Y-154480D01*
X4764Y-154531D01*
X4669Y-154582D01*
X4567Y-154626D01*
X4458Y-154662D01*
X4334Y-154691D01*
X4203Y-154713D01*
X4064Y-154721D01*
X4028D01*
X3991Y-154713D01*
X3933D01*
X3867Y-154699D01*
X3795Y-154691D01*
X3714Y-154669D01*
X3627Y-154648D01*
X3532Y-154611D01*
X3437Y-154575D01*
X3343Y-154524D01*
X3248Y-154465D01*
X3153Y-154393D01*
X3066Y-154312D01*
X2985Y-154225D01*
X2912Y-154115D01*
X2905Y-154108D01*
X2898Y-154086D01*
X2876Y-154050D01*
X2854Y-153999D01*
X2825Y-153933D01*
X2796Y-153853D01*
X2767Y-153758D01*
X2730Y-153649D01*
X2694Y-153532D01*
X2665Y-153394D01*
X2635Y-153241D01*
X2606Y-153073D01*
X2584Y-152884D01*
X2562Y-152687D01*
X2555Y-152475D01*
X2548Y-152249D01*
Y-152242D01*
Y-152235D01*
Y-152191D01*
Y-152125D01*
X2555Y-152038D01*
X2562Y-151936D01*
X2570Y-151812D01*
X2577Y-151681D01*
X2592Y-151535D01*
X2635Y-151229D01*
X2701Y-150915D01*
X2745Y-150762D01*
X2796Y-150624D01*
X2847Y-150485D01*
X2912Y-150368D01*
X2920Y-150361D01*
X2927Y-150339D01*
X2949Y-150310D01*
X2985Y-150274D01*
X3022Y-150230D01*
X3073Y-150179D01*
X3131Y-150128D01*
X3197Y-150069D01*
X3270Y-150011D01*
X3357Y-149960D01*
X3452Y-149909D01*
X3554Y-149865D01*
X3671Y-149829D01*
X3795Y-149793D01*
X3926Y-149778D01*
X4064Y-149771D01*
X4101D01*
X4137Y-149778D01*
D02*
G37*
G36*
X-9050D02*
X-8992D01*
X-8934Y-149793D01*
X-8854Y-149800D01*
X-8773Y-149822D01*
X-8686Y-149851D01*
X-8598Y-149880D01*
X-8504Y-149924D01*
X-8409Y-149975D01*
X-8314Y-150033D01*
X-8219Y-150106D01*
X-8132Y-150186D01*
X-8052Y-150281D01*
X-7979Y-150390D01*
X-7971Y-150398D01*
X-7964Y-150419D01*
X-7942Y-150456D01*
X-7920Y-150507D01*
X-7891Y-150573D01*
X-7862Y-150653D01*
X-7826Y-150748D01*
X-7789Y-150857D01*
X-7760Y-150981D01*
X-7724Y-151119D01*
X-7694Y-151265D01*
X-7665Y-151433D01*
X-7643Y-151615D01*
X-7622Y-151812D01*
X-7614Y-152023D01*
X-7607Y-152249D01*
Y-152264D01*
Y-152308D01*
Y-152373D01*
X-7614Y-152461D01*
X-7622Y-152563D01*
X-7629Y-152687D01*
X-7636Y-152818D01*
X-7651Y-152964D01*
X-7694Y-153270D01*
X-7760Y-153576D01*
X-7804Y-153729D01*
X-7855Y-153868D01*
X-7913Y-154006D01*
X-7979Y-154123D01*
X-7986Y-154130D01*
X-7993Y-154145D01*
X-8015Y-154181D01*
X-8052Y-154218D01*
X-8088Y-154261D01*
X-8139Y-154312D01*
X-8197Y-154363D01*
X-8263Y-154422D01*
X-8336Y-154480D01*
X-8423Y-154531D01*
X-8518Y-154582D01*
X-8620Y-154626D01*
X-8730Y-154662D01*
X-8854Y-154691D01*
X-8985Y-154713D01*
X-9123Y-154721D01*
X-9160D01*
X-9196Y-154713D01*
X-9255D01*
X-9320Y-154699D01*
X-9393Y-154691D01*
X-9473Y-154669D01*
X-9561Y-154648D01*
X-9656Y-154611D01*
X-9750Y-154575D01*
X-9845Y-154524D01*
X-9940Y-154465D01*
X-10035Y-154393D01*
X-10122Y-154312D01*
X-10202Y-154225D01*
X-10275Y-154115D01*
X-10282Y-154108D01*
X-10290Y-154086D01*
X-10312Y-154050D01*
X-10334Y-153999D01*
X-10363Y-153933D01*
X-10392Y-153853D01*
X-10421Y-153758D01*
X-10457Y-153649D01*
X-10494Y-153532D01*
X-10523Y-153394D01*
X-10552Y-153241D01*
X-10581Y-153073D01*
X-10603Y-152884D01*
X-10625Y-152687D01*
X-10632Y-152475D01*
X-10640Y-152249D01*
Y-152242D01*
Y-152235D01*
Y-152191D01*
Y-152125D01*
X-10632Y-152038D01*
X-10625Y-151936D01*
X-10618Y-151812D01*
X-10610Y-151681D01*
X-10596Y-151535D01*
X-10552Y-151229D01*
X-10487Y-150915D01*
X-10443Y-150762D01*
X-10392Y-150624D01*
X-10341Y-150485D01*
X-10275Y-150368D01*
X-10268Y-150361D01*
X-10261Y-150339D01*
X-10239Y-150310D01*
X-10202Y-150274D01*
X-10166Y-150230D01*
X-10115Y-150179D01*
X-10056Y-150128D01*
X-9991Y-150069D01*
X-9918Y-150011D01*
X-9831Y-149960D01*
X-9736Y-149909D01*
X-9634Y-149865D01*
X-9517Y-149829D01*
X-9393Y-149793D01*
X-9262Y-149778D01*
X-9123Y-149771D01*
X-9087D01*
X-9050Y-149778D01*
D02*
G37*
G36*
X-3313Y-155654D02*
X-3845D01*
X-1994Y-149661D01*
X-1447D01*
X-3313Y-155654D01*
D02*
G37*
G36*
X-142766Y-22835D02*
X-150935D01*
Y-15256D01*
X-142766D01*
Y-22835D01*
D02*
G37*
G36*
X104331Y50000D02*
X94882D01*
Y80709D01*
X104331D01*
Y50000D01*
D02*
G37*
%LPC*%
G36*
X-124081Y-7940D02*
D01*
Y-9298D01*
X-124227Y-9225D01*
X-124372Y-9143D01*
X-124500Y-9061D01*
X-124618Y-8988D01*
X-124719Y-8915D01*
X-124792Y-8861D01*
X-124837Y-8824D01*
X-124855Y-8815D01*
X-125001Y-8687D01*
X-125147Y-8551D01*
X-125293Y-8405D01*
X-125438Y-8268D01*
X-125557Y-8141D01*
X-125657Y-8032D01*
X-125694Y-7995D01*
X-125721Y-7968D01*
X-125730Y-7949D01*
X-125739Y-7940D01*
X-126031D01*
X-125894Y-8223D01*
X-125757Y-8469D01*
X-125694Y-8578D01*
X-125630Y-8678D01*
X-125566Y-8769D01*
X-125511Y-8851D01*
X-125457Y-8924D01*
X-125402Y-8988D01*
X-125365Y-9043D01*
X-125329Y-9088D01*
X-125293Y-9125D01*
X-125274Y-9152D01*
X-125265Y-9161D01*
X-125256Y-9170D01*
X-131114D01*
Y-9580D01*
X-125256D01*
X-125356Y-9717D01*
X-125447Y-9835D01*
X-125520Y-9926D01*
X-125575Y-10008D01*
X-125621Y-10072D01*
X-125648Y-10118D01*
X-125666Y-10145D01*
X-125675Y-10154D01*
X-125721Y-10236D01*
X-125785Y-10336D01*
X-125839Y-10446D01*
X-125894Y-10546D01*
X-125949Y-10646D01*
X-125994Y-10737D01*
X-126021Y-10792D01*
X-126031Y-10801D01*
Y-10810D01*
X-131114D01*
D01*
X-124081D01*
Y-7940D01*
D02*
G37*
G36*
X-125739Y-14409D02*
X-126031D01*
X-125894Y-14691D01*
X-125757Y-14937D01*
X-125694Y-15046D01*
X-125630Y-15146D01*
X-125566Y-15237D01*
X-125511Y-15319D01*
X-125457Y-15392D01*
X-125402Y-15456D01*
X-125365Y-15511D01*
X-125329Y-15556D01*
X-125293Y-15593D01*
X-125274Y-15620D01*
X-125265Y-15629D01*
X-125256Y-15638D01*
X-131114D01*
Y-16048D01*
X-125256D01*
X-125356Y-16185D01*
X-125447Y-16303D01*
X-125520Y-16395D01*
X-125575Y-16477D01*
X-125621Y-16540D01*
X-125648Y-16586D01*
X-125666Y-16613D01*
X-125675Y-16622D01*
X-125721Y-16704D01*
X-125785Y-16804D01*
X-125839Y-16914D01*
X-125894Y-17014D01*
X-125949Y-17114D01*
X-125994Y-17205D01*
X-126021Y-17260D01*
X-126031Y-17269D01*
Y-17278D01*
X-131114D01*
X-124081D01*
Y-15766D01*
X-124227Y-15693D01*
X-124372Y-15611D01*
X-124500Y-15529D01*
X-124618Y-15456D01*
X-124719Y-15383D01*
X-124792Y-15329D01*
X-124837Y-15292D01*
X-124855Y-15283D01*
X-125001Y-15156D01*
X-125147Y-15019D01*
X-125293Y-14873D01*
X-125438Y-14737D01*
X-125557Y-14609D01*
X-125657Y-14500D01*
X-125694Y-14463D01*
X-125721Y-14436D01*
X-125730Y-14418D01*
X-125739Y-14409D01*
D02*
G37*
G36*
X-125785Y-18144D02*
D01*
Y-21369D01*
X-125794Y-21150D01*
X-125812Y-20959D01*
X-125830Y-20786D01*
X-125839Y-20640D01*
X-125848Y-20585D01*
X-125857Y-20530D01*
Y-20494D01*
X-125867Y-20467D01*
Y-20439D01*
X-125903Y-20239D01*
X-125958Y-20048D01*
X-126021Y-19874D01*
X-126085Y-19729D01*
X-126149Y-19601D01*
X-126204Y-19510D01*
X-126222Y-19474D01*
X-126240Y-19446D01*
X-126249Y-19437D01*
Y-19428D01*
X-126395Y-19228D01*
X-126559Y-19046D01*
X-126723Y-18891D01*
X-126887Y-18763D01*
X-127033Y-18654D01*
X-127087Y-18608D01*
X-127142Y-18572D01*
X-127188Y-18544D01*
X-127224Y-18526D01*
X-127242Y-18508D01*
X-127251D01*
X-127506Y-18390D01*
X-127761Y-18298D01*
X-128007Y-18235D01*
X-128244Y-18189D01*
X-128345Y-18171D01*
X-128436Y-18162D01*
X-128527Y-18153D01*
X-128600D01*
X-128654Y-18144D01*
X-125785D01*
X-131715D01*
X-128736D01*
X-129046Y-18162D01*
X-129338Y-18198D01*
X-129593Y-18253D01*
X-129702Y-18280D01*
X-129811Y-18317D01*
X-129902Y-18353D01*
X-129984Y-18381D01*
X-130057Y-18408D01*
X-130121Y-18435D01*
X-130166Y-18453D01*
X-130203Y-18472D01*
X-130221Y-18490D01*
X-130230D01*
X-130458Y-18626D01*
X-130658Y-18772D01*
X-130832Y-18927D01*
X-130977Y-19073D01*
X-131087Y-19209D01*
X-131178Y-19310D01*
X-131205Y-19355D01*
X-131223Y-19383D01*
X-131242Y-19401D01*
Y-19410D01*
X-131351Y-19592D01*
X-131433Y-19774D01*
X-131506Y-19947D01*
X-131551Y-20102D01*
X-131588Y-20239D01*
X-131606Y-20294D01*
X-131615Y-20348D01*
X-131624Y-20385D01*
X-131633Y-20412D01*
Y-20439D01*
X-131660Y-20649D01*
X-131679Y-20849D01*
X-131697Y-21050D01*
X-131706Y-21223D01*
X-131715Y-21378D01*
Y-23446D01*
X-125785D01*
Y-18144D01*
D02*
G37*
G36*
Y-24648D02*
X-131715D01*
Y-26006D01*
X-128317D01*
X-131715Y-27909D01*
Y-29732D01*
X-125785D01*
Y-24648D01*
D02*
G37*
G36*
X-125657Y-30852D02*
D01*
Y-33102D01*
X-125666Y-32875D01*
X-125684Y-32656D01*
X-125703Y-32446D01*
X-125730Y-32255D01*
X-125757Y-32100D01*
X-125766Y-32036D01*
X-125785Y-31982D01*
X-125794Y-31936D01*
Y-31900D01*
X-125803Y-31881D01*
Y-31872D01*
X-125857Y-31645D01*
X-125921Y-31444D01*
X-125967Y-31271D01*
X-126012Y-31125D01*
X-126058Y-31007D01*
X-126085Y-30925D01*
X-126103Y-30870D01*
X-126112Y-30852D01*
X-125657D01*
X-129037D01*
Y-33448D01*
X-127916D01*
Y-32291D01*
X-126750D01*
X-126741Y-32355D01*
Y-32674D01*
X-126750Y-32838D01*
X-126759Y-32993D01*
X-126787Y-33139D01*
X-126814Y-33275D01*
X-126860Y-33403D01*
X-126896Y-33521D01*
X-126942Y-33631D01*
X-126987Y-33722D01*
X-127033Y-33804D01*
X-127078Y-33886D01*
X-127124Y-33950D01*
X-127160Y-34004D01*
X-127188Y-34041D01*
X-127215Y-34068D01*
X-127224Y-34086D01*
X-127233Y-34095D01*
X-127333Y-34186D01*
X-127443Y-34268D01*
X-127561Y-34332D01*
X-127680Y-34396D01*
X-127807Y-34441D01*
X-127935Y-34487D01*
X-128181Y-34551D01*
X-128299Y-34569D01*
X-128408Y-34587D01*
X-128508Y-34596D01*
X-128591Y-34605D01*
X-128663Y-34615D01*
X-128718D01*
X-128754D01*
X-128764D01*
X-128937Y-34605D01*
X-129101Y-34596D01*
X-129246Y-34569D01*
X-129365Y-34542D01*
X-129474Y-34523D01*
X-129547Y-34496D01*
X-129593Y-34487D01*
X-129611Y-34478D01*
X-129747Y-34423D01*
X-129866Y-34359D01*
X-129966Y-34305D01*
X-130057Y-34241D01*
X-130130Y-34195D01*
X-130176Y-34150D01*
X-130212Y-34122D01*
X-130221Y-34113D01*
X-130312Y-34022D01*
X-130385Y-33922D01*
X-130449Y-33831D01*
X-130494Y-33740D01*
X-130531Y-33667D01*
X-130567Y-33612D01*
X-130576Y-33567D01*
X-130586Y-33558D01*
X-130631Y-33439D01*
X-130658Y-33312D01*
X-130686Y-33193D01*
X-130695Y-33084D01*
X-130704Y-32993D01*
X-130713Y-32920D01*
Y-32738D01*
X-130695Y-32619D01*
X-130686Y-32519D01*
X-130667Y-32419D01*
X-130649Y-32346D01*
X-130640Y-32291D01*
X-130622Y-32246D01*
Y-32237D01*
X-130586Y-32127D01*
X-130549Y-32036D01*
X-130513Y-31945D01*
X-130476Y-31863D01*
X-130449Y-31809D01*
X-130422Y-31754D01*
X-130412Y-31727D01*
X-130403Y-31718D01*
X-130312Y-31572D01*
X-130230Y-31453D01*
X-130194Y-31399D01*
X-130166Y-31362D01*
X-130148Y-31335D01*
X-130139Y-31326D01*
X-130039Y-31189D01*
X-130002Y-31144D01*
X-129975Y-31098D01*
X-129948Y-31062D01*
X-129930Y-31034D01*
X-129911Y-31025D01*
Y-30879D01*
X-131296D01*
X-131387Y-31062D01*
X-131460Y-31244D01*
X-131524Y-31408D01*
X-131579Y-31554D01*
X-131624Y-31672D01*
X-131651Y-31763D01*
X-131660Y-31800D01*
X-131670Y-31827D01*
X-131679Y-31836D01*
Y-31845D01*
X-131724Y-32027D01*
X-131761Y-32228D01*
X-131788Y-32428D01*
X-131806Y-32629D01*
X-131815Y-32792D01*
X-131825Y-32865D01*
Y-33057D01*
X-131815Y-33321D01*
X-131788Y-33567D01*
X-131743Y-33804D01*
X-131697Y-34022D01*
X-131624Y-34223D01*
X-131560Y-34405D01*
X-131478Y-34578D01*
X-131405Y-34733D01*
X-131324Y-34870D01*
X-131242Y-34988D01*
X-131178Y-35088D01*
X-131114Y-35170D01*
X-131059Y-35243D01*
X-131014Y-35289D01*
X-130986Y-35316D01*
X-130977Y-35325D01*
X-130813Y-35471D01*
X-130640Y-35598D01*
X-130458Y-35708D01*
X-130276Y-35808D01*
X-130085Y-35881D01*
X-129902Y-35954D01*
X-129720Y-36008D01*
X-129547Y-36054D01*
X-129383Y-36081D01*
X-129228Y-36108D01*
X-129092Y-36127D01*
X-128973Y-36145D01*
X-128882D01*
X-128809Y-36154D01*
X-125657D01*
Y-30852D01*
D02*
G37*
%LPD*%
G36*
X-124081Y-10810D02*
X-125730D01*
X-125539Y-10600D01*
X-125365Y-10427D01*
X-125211Y-10273D01*
X-125074Y-10145D01*
X-124965Y-10054D01*
X-124892Y-9981D01*
X-124837Y-9945D01*
X-124819Y-9926D01*
X-124673Y-9817D01*
X-124537Y-9726D01*
X-124418Y-9653D01*
X-124300Y-9589D01*
X-124208Y-9544D01*
X-124145Y-9507D01*
X-124099Y-9489D01*
X-124081Y-9480D01*
Y-10810D01*
D02*
G37*
G36*
Y-17278D02*
X-125730D01*
X-125539Y-17069D01*
X-125365Y-16895D01*
X-125211Y-16741D01*
X-125074Y-16613D01*
X-124965Y-16522D01*
X-124892Y-16449D01*
X-124837Y-16413D01*
X-124819Y-16395D01*
X-124673Y-16285D01*
X-124537Y-16194D01*
X-124418Y-16121D01*
X-124300Y-16057D01*
X-124208Y-16012D01*
X-124145Y-15975D01*
X-124099Y-15957D01*
X-124081Y-15948D01*
Y-17278D01*
D02*
G37*
G36*
X-128545Y-19692D02*
X-128354Y-19711D01*
X-128181Y-19747D01*
X-128044Y-19774D01*
X-127925Y-19811D01*
X-127834Y-19847D01*
X-127780Y-19865D01*
X-127771Y-19874D01*
X-127761D01*
X-127616Y-19956D01*
X-127497Y-20048D01*
X-127388Y-20139D01*
X-127297Y-20230D01*
X-127224Y-20312D01*
X-127178Y-20376D01*
X-127142Y-20421D01*
X-127133Y-20439D01*
X-127069Y-20558D01*
X-127014Y-20676D01*
X-126978Y-20786D01*
X-126951Y-20886D01*
X-126932Y-20968D01*
X-126923Y-21032D01*
X-126914Y-21077D01*
Y-21232D01*
X-126905Y-21369D01*
Y-21961D01*
X-130613D01*
Y-21614D01*
X-130604Y-21487D01*
Y-21277D01*
X-130595Y-21205D01*
Y-21150D01*
X-130586Y-21022D01*
X-130558Y-20904D01*
X-130531Y-20804D01*
X-130494Y-20704D01*
X-130467Y-20621D01*
X-130440Y-20567D01*
X-130422Y-20521D01*
X-130412Y-20512D01*
X-130312Y-20366D01*
X-130212Y-20239D01*
X-130103Y-20130D01*
X-129993Y-20048D01*
X-129902Y-19975D01*
X-129829Y-19929D01*
X-129775Y-19902D01*
X-129766Y-19893D01*
X-129756D01*
X-129593Y-19820D01*
X-129429Y-19774D01*
X-129255Y-19738D01*
X-129101Y-19711D01*
X-128964Y-19692D01*
X-128900D01*
X-128855Y-19683D01*
X-128809D01*
X-128782D01*
X-128764D01*
X-128754D01*
X-128545Y-19692D01*
D02*
G37*
G36*
X-125785Y-28374D02*
X-129911D01*
X-125785Y-26078D01*
Y-28374D01*
D02*
G37*
G36*
X-125657Y-36154D02*
X-128745D01*
X-128481Y-36145D01*
X-128226Y-36118D01*
X-127989Y-36081D01*
X-127761Y-36026D01*
X-127561Y-35963D01*
X-127370Y-35890D01*
X-127206Y-35817D01*
X-127051Y-35735D01*
X-126914Y-35662D01*
X-126796Y-35589D01*
X-126696Y-35516D01*
X-126604Y-35453D01*
X-126541Y-35398D01*
X-126495Y-35361D01*
X-126468Y-35334D01*
X-126459Y-35325D01*
X-126322Y-35161D01*
X-126195Y-34988D01*
X-126085Y-34815D01*
X-125994Y-34624D01*
X-125921Y-34441D01*
X-125857Y-34259D01*
X-125803Y-34077D01*
X-125757Y-33904D01*
X-125721Y-33740D01*
X-125703Y-33585D01*
X-125684Y-33448D01*
X-125666Y-33330D01*
Y-33239D01*
X-125657Y-33166D01*
Y-36154D01*
D02*
G37*
%LPC*%
G36*
X131022Y-16366D02*
X125788D01*
D01*
X127887D01*
X127690Y-16373D01*
X127501Y-16395D01*
X127326Y-16431D01*
X127158Y-16475D01*
X127012Y-16526D01*
X126874Y-16577D01*
X126750Y-16643D01*
X126633Y-16708D01*
X126539Y-16767D01*
X126451Y-16832D01*
X126378Y-16883D01*
X126320Y-16942D01*
X126269Y-16978D01*
X126240Y-17015D01*
X126218Y-17036D01*
X126210Y-17044D01*
X126138Y-17146D01*
X126072Y-17248D01*
X126014Y-17364D01*
X125970Y-17481D01*
X125926Y-17598D01*
X125890Y-17722D01*
X125839Y-17948D01*
X125824Y-18057D01*
X125810Y-18159D01*
X125802Y-18247D01*
X125795Y-18327D01*
X125788Y-18392D01*
Y-18480D01*
X125795Y-18706D01*
X125817Y-18917D01*
X125846Y-19121D01*
X125875Y-19296D01*
X125890Y-19376D01*
X125904Y-19449D01*
X125919Y-19508D01*
X125934Y-19559D01*
X125948Y-19602D01*
X125955Y-19632D01*
X125963Y-19654D01*
Y-19661D01*
X126035Y-19872D01*
X126108Y-20062D01*
X126181Y-20229D01*
X126247Y-20375D01*
X126283Y-20434D01*
X126313Y-20485D01*
X126334Y-20536D01*
X126356Y-20572D01*
X126378Y-20601D01*
X126385Y-20630D01*
X126400Y-20638D01*
Y-20645D01*
X128580Y-21097D01*
Y-18844D01*
X127734Y-18669D01*
Y-19960D01*
X126976Y-19799D01*
X126932Y-19697D01*
X126889Y-19595D01*
X126845Y-19493D01*
X126816Y-19398D01*
X126786Y-19318D01*
X126765Y-19253D01*
X126757Y-19209D01*
X126750Y-19202D01*
Y-19194D01*
X126721Y-19063D01*
X126699Y-18939D01*
X126677Y-18823D01*
X126670Y-18720D01*
X126663Y-18633D01*
X126655Y-18567D01*
Y-18509D01*
X126670Y-18312D01*
X126699Y-18137D01*
X126750Y-17991D01*
X126808Y-17875D01*
X126859Y-17780D01*
X126910Y-17707D01*
X126939Y-17671D01*
X126954Y-17656D01*
X127012Y-17605D01*
X127085Y-17561D01*
X127231Y-17488D01*
X127392Y-17445D01*
X127545Y-17408D01*
X127683Y-17386D01*
X127741Y-17379D01*
X127800D01*
X127843Y-17372D01*
X127873D01*
X127894D01*
X127902D01*
X128142Y-17379D01*
X128361Y-17408D01*
X128565Y-17445D01*
X128660Y-17467D01*
X128740Y-17488D01*
X128820Y-17510D01*
X128893Y-17532D01*
X128952Y-17554D01*
X129003Y-17569D01*
X129046Y-17583D01*
X129076Y-17598D01*
X129090Y-17605D01*
X129097D01*
X129294Y-17700D01*
X129462Y-17809D01*
X129600Y-17919D01*
X129717Y-18021D01*
X129805Y-18115D01*
X129863Y-18195D01*
X129885Y-18225D01*
X129899Y-18247D01*
X129914Y-18254D01*
Y-18261D01*
X130001Y-18421D01*
X130067Y-18582D01*
X130118Y-18735D01*
X130147Y-18881D01*
X130169Y-18997D01*
X130176Y-19048D01*
Y-19099D01*
X130183Y-19129D01*
Y-19180D01*
X130176Y-19333D01*
X130147Y-19471D01*
X130118Y-19595D01*
X130074Y-19697D01*
X130038Y-19785D01*
X130001Y-19843D01*
X129972Y-19880D01*
X129965Y-19894D01*
X129877Y-19996D01*
X129775Y-20076D01*
X129666Y-20149D01*
X129564Y-20208D01*
X129469Y-20251D01*
X129396Y-20288D01*
X129367Y-20295D01*
X129345Y-20302D01*
X129331Y-20310D01*
X129323D01*
X129433Y-21279D01*
D01*
X129571Y-21243D01*
X129702Y-21199D01*
X129826Y-21148D01*
X129943Y-21097D01*
X130052Y-21039D01*
X130147Y-20980D01*
X130235Y-20922D01*
X130315Y-20864D01*
X130380Y-20805D01*
X130446Y-20747D01*
X130497Y-20703D01*
X130541Y-20660D01*
X130570Y-20623D01*
X130592Y-20594D01*
X130606Y-20579D01*
X130614Y-20572D01*
X130687Y-20470D01*
X130752Y-20361D01*
X130803Y-20251D01*
X130847Y-20135D01*
X130920Y-19901D01*
X130971Y-19675D01*
X130985Y-19573D01*
X131000Y-19479D01*
X131007Y-19391D01*
X131015Y-19318D01*
X131022Y-19260D01*
Y-21279D01*
D01*
Y-16366D01*
D02*
G37*
G36*
X130927Y-21512D02*
X125882D01*
Y-26178D01*
Y-22540D01*
X127807Y-22949D01*
Y-23947D01*
X127814Y-24042D01*
Y-24195D01*
X127822Y-24261D01*
Y-24370D01*
X127829Y-24414D01*
Y-24479D01*
X127836Y-24516D01*
Y-24531D01*
X127858Y-24684D01*
X127887Y-24815D01*
X127916Y-24931D01*
X127945Y-25026D01*
X127967Y-25099D01*
X127989Y-25157D01*
X127997Y-25187D01*
X128004Y-25201D01*
X128055Y-25296D01*
X128106Y-25376D01*
X128157Y-25456D01*
X128215Y-25522D01*
X128259Y-25580D01*
X128295Y-25624D01*
X128325Y-25653D01*
X128332Y-25660D01*
X128419Y-25741D01*
X128514Y-25814D01*
X128609Y-25872D01*
X128704Y-25923D01*
X128784Y-25967D01*
X128849Y-25996D01*
X128893Y-26018D01*
X128901Y-26025D01*
X128908D01*
X129046Y-26076D01*
X129177Y-26112D01*
X129309Y-26142D01*
X129418Y-26156D01*
X129520Y-26171D01*
X129593Y-26178D01*
X129659D01*
X129805Y-26171D01*
X129943Y-26149D01*
X130060Y-26120D01*
X130169Y-26083D01*
X130249Y-26047D01*
X130315Y-26018D01*
X130351Y-25996D01*
X130366Y-25989D01*
X130468Y-25916D01*
X130563Y-25828D01*
X130635Y-25741D01*
X130694Y-25660D01*
X130738Y-25588D01*
X130774Y-25529D01*
X130789Y-25493D01*
X130796Y-25486D01*
Y-25478D01*
X130840Y-25354D01*
X130869Y-25209D01*
X130898Y-25070D01*
X130913Y-24931D01*
X130920Y-24807D01*
Y-24757D01*
X130927Y-24705D01*
Y-21512D01*
D02*
G37*
G36*
Y-26229D02*
X125882D01*
Y-30253D01*
X130927Y-31317D01*
D01*
Y-30282D01*
X128981Y-29874D01*
Y-27913D01*
X130927Y-28321D01*
Y-27286D01*
X125882Y-26229D01*
X130927D01*
D01*
D02*
G37*
G36*
X127224Y-31303D02*
Y-31317D01*
Y-33410D01*
Y-33220D01*
X128179Y-33410D01*
D01*
Y-31492D01*
X127297Y-31317D01*
D01*
X127224Y-31303D01*
D02*
G37*
G36*
X130956Y-33723D02*
X125788D01*
D01*
X130956D01*
D01*
D02*
G37*
G36*
X127187D02*
X127063Y-33745D01*
X126954Y-33767D01*
X126845Y-33803D01*
X126743Y-33840D01*
X126648Y-33876D01*
X126568Y-33920D01*
X126488Y-33964D01*
X126422Y-34007D01*
X126356Y-34051D01*
X126305Y-34088D01*
X126254Y-34124D01*
X126218Y-34161D01*
X126189Y-34190D01*
X126167Y-34212D01*
X126160Y-34219D01*
X126152Y-34226D01*
X126087Y-34306D01*
X126035Y-34394D01*
X125985Y-34481D01*
X125941Y-34569D01*
X125875Y-34744D01*
X125831Y-34912D01*
X125817Y-34984D01*
X125810Y-35057D01*
X125802Y-35123D01*
X125795Y-35174D01*
X125788Y-35225D01*
Y-35283D01*
X125795Y-35436D01*
X125817Y-35589D01*
X125846Y-35728D01*
X125890Y-35859D01*
X125934Y-35983D01*
X125992Y-36100D01*
X126050Y-36202D01*
X126108Y-36297D01*
X126167Y-36384D01*
X126225Y-36457D01*
X126283Y-36523D01*
X126327Y-36581D01*
X126371Y-36617D01*
X126400Y-36654D01*
X126422Y-36668D01*
X126429Y-36676D01*
X126517Y-36749D01*
X126604Y-36807D01*
X126699Y-36865D01*
X126786Y-36909D01*
X126961Y-36982D01*
X127122Y-37026D01*
X127187Y-37040D01*
X127253Y-37055D01*
X127311Y-37062D01*
X127362Y-37069D01*
X127406Y-37077D01*
X127435D01*
X127450D01*
X127457D01*
X127566Y-37069D01*
X127668Y-37055D01*
X127763Y-37026D01*
X127851Y-37004D01*
X127916Y-36974D01*
X127975Y-36945D01*
X128004Y-36931D01*
X128018Y-36924D01*
X128113Y-36858D01*
X128201Y-36785D01*
X128274Y-36705D01*
X128339Y-36632D01*
X128390Y-36559D01*
X128427Y-36501D01*
X128448Y-36464D01*
X128456Y-36457D01*
Y-36450D01*
X128521Y-36595D01*
X128587Y-36719D01*
X128667Y-36829D01*
X128747Y-36916D01*
X128813Y-36989D01*
X128871Y-37040D01*
X128908Y-37077D01*
X128922Y-37084D01*
X129046Y-37164D01*
X129170Y-37222D01*
X129287Y-37259D01*
X129403Y-37288D01*
X129498Y-37303D01*
X129571Y-37317D01*
X129637D01*
X129739Y-37310D01*
X129834Y-37303D01*
X130009Y-37259D01*
X130169Y-37200D01*
X130300Y-37135D01*
X130410Y-37069D01*
X130453Y-37040D01*
X130497Y-37011D01*
X130526Y-36989D01*
X130548Y-36967D01*
X130555Y-36960D01*
X130563Y-36953D01*
X130635Y-36880D01*
X130694Y-36800D01*
X130745Y-36719D01*
X130789Y-36632D01*
X130861Y-36457D01*
X130905Y-36289D01*
X130934Y-36136D01*
X130942Y-36071D01*
X130949Y-36012D01*
X130956Y-35961D01*
Y-35852D01*
Y-35896D01*
X130949Y-35772D01*
X130934Y-35655D01*
X130913Y-35538D01*
X130883Y-35429D01*
X130810Y-35232D01*
X130774Y-35152D01*
X130730Y-35072D01*
X130687Y-34999D01*
X130650Y-34933D01*
X130606Y-34882D01*
X130577Y-34831D01*
X130548Y-34802D01*
X130526Y-34773D01*
X130512Y-34758D01*
X130504Y-34751D01*
X130380Y-34642D01*
X130242Y-34547D01*
X130103Y-34467D01*
X129965Y-34401D01*
X129841Y-34350D01*
X129790Y-34328D01*
X129746Y-34306D01*
X129702Y-34292D01*
X129673Y-34284D01*
X129659Y-34277D01*
X129651D01*
X129476Y-35181D01*
X129608Y-35218D01*
X129717Y-35261D01*
X129812Y-35305D01*
X129885Y-35349D01*
X129936Y-35385D01*
X129979Y-35414D01*
X130001Y-35436D01*
X130009Y-35444D01*
X130060Y-35509D01*
X130103Y-35575D01*
X130132Y-35640D01*
X130147Y-35699D01*
X130162Y-35750D01*
X130169Y-35786D01*
Y-35823D01*
X130162Y-35903D01*
X130147Y-35976D01*
X130125Y-36034D01*
X130096Y-36092D01*
X130067Y-36129D01*
X130045Y-36165D01*
X130031Y-36180D01*
X130023Y-36187D01*
X129965Y-36238D01*
X129899Y-36275D01*
X129834Y-36297D01*
X129775Y-36318D01*
X129717Y-36326D01*
X129673Y-36333D01*
X129644D01*
X129630D01*
X129506Y-36326D01*
X129396Y-36304D01*
X129302Y-36267D01*
X129221Y-36231D01*
X129156Y-36187D01*
X129112Y-36158D01*
X129083Y-36129D01*
X129076Y-36122D01*
X129010Y-36034D01*
X128959Y-35939D01*
X128930Y-35845D01*
X128901Y-35750D01*
X128886Y-35662D01*
X128879Y-35589D01*
Y-35422D01*
X128062Y-35254D01*
X128069Y-35312D01*
X128077Y-35364D01*
Y-35407D01*
X128069Y-35517D01*
X128048Y-35611D01*
X128018Y-35699D01*
X127989Y-35764D01*
X127953Y-35823D01*
X127924Y-35859D01*
X127902Y-35888D01*
X127894Y-35896D01*
X127822Y-35954D01*
X127741Y-35998D01*
X127661Y-36034D01*
X127581Y-36056D01*
X127508Y-36071D01*
X127450Y-36078D01*
X127413D01*
X127406D01*
X127399D01*
X127275Y-36071D01*
X127158Y-36041D01*
X127056Y-36005D01*
X126976Y-35969D01*
X126903Y-35925D01*
X126859Y-35888D01*
X126823Y-35859D01*
X126816Y-35852D01*
X126743Y-35764D01*
X126684Y-35670D01*
X126648Y-35575D01*
X126619Y-35487D01*
X126604Y-35407D01*
X126597Y-35349D01*
X126590Y-35305D01*
Y-35291D01*
X126597Y-35203D01*
X126611Y-35123D01*
X126641Y-35050D01*
X126670Y-34992D01*
X126692Y-34948D01*
X126721Y-34912D01*
X126735Y-34890D01*
X126743Y-34882D01*
X126808Y-34831D01*
X126896Y-34787D01*
X126990Y-34751D01*
X127078Y-34722D01*
X127165Y-34700D01*
X127238Y-34686D01*
X127268Y-34678D01*
X127289Y-34671D01*
X127297D01*
X127304D01*
X127187Y-33723D01*
D02*
G37*
G36*
X130956Y-38126D02*
X125882D01*
D01*
X130956D01*
Y-40284D01*
X130818Y-40146D01*
X130687Y-40000D01*
X130563Y-39840D01*
X130439Y-39679D01*
X130329Y-39519D01*
X130220Y-39351D01*
X130118Y-39191D01*
X130031Y-39038D01*
X129943Y-38892D01*
X129870Y-38753D01*
X129812Y-38629D01*
X129761Y-38527D01*
X129717Y-38440D01*
X129681Y-38374D01*
X129666Y-38331D01*
X129659Y-38323D01*
Y-38316D01*
X128777Y-38126D01*
X128806Y-38250D01*
X128842Y-38367D01*
X128879Y-38491D01*
X128915Y-38600D01*
X128952Y-38695D01*
X128973Y-38775D01*
X128988Y-38804D01*
X128995Y-38826D01*
X129003Y-38833D01*
Y-38841D01*
X129068Y-38987D01*
X129134Y-39125D01*
X129192Y-39249D01*
X129250Y-39351D01*
X129302Y-39439D01*
X129338Y-39504D01*
X129367Y-39541D01*
X129374Y-39555D01*
X125882Y-38826D01*
Y-38804D01*
Y-39818D01*
X130956Y-40882D01*
D01*
Y-38126D01*
D02*
G37*
G36*
Y-42048D02*
X125882D01*
D01*
X130956D01*
Y-44206D01*
X130818Y-44068D01*
X130687Y-43922D01*
X130563Y-43762D01*
X130439Y-43601D01*
X130329Y-43441D01*
X130220Y-43273D01*
X130118Y-43113D01*
X130031Y-42960D01*
X129943Y-42814D01*
X129870Y-42675D01*
X129812Y-42551D01*
X129761Y-42449D01*
X129717Y-42362D01*
X129681Y-42296D01*
X129666Y-42252D01*
X129659Y-42245D01*
Y-42238D01*
X128777Y-42048D01*
X128806Y-42172D01*
X128842Y-42289D01*
X128879Y-42413D01*
X128915Y-42522D01*
X128952Y-42617D01*
X128973Y-42697D01*
X128988Y-42726D01*
X128995Y-42748D01*
X129003Y-42755D01*
Y-42763D01*
X129068Y-42909D01*
X129134Y-43047D01*
X129192Y-43171D01*
X129250Y-43273D01*
X129302Y-43361D01*
X129338Y-43426D01*
X129367Y-43463D01*
X129374Y-43477D01*
X125882Y-42748D01*
Y-42726D01*
Y-43740D01*
X130956Y-44804D01*
D01*
Y-42048D01*
D02*
G37*
G36*
Y-45577D02*
X125788D01*
D01*
X127515D01*
X127362Y-45584D01*
X127216Y-45591D01*
X127085Y-45613D01*
X126961Y-45635D01*
X126845Y-45671D01*
X126743Y-45701D01*
X126648Y-45737D01*
X126560Y-45774D01*
X126480Y-45810D01*
X126415Y-45847D01*
X126364Y-45883D01*
X126313Y-45912D01*
X126276Y-45934D01*
X126254Y-45956D01*
X126240Y-45963D01*
X126232Y-45970D01*
X126152Y-46051D01*
X126087Y-46131D01*
X126028Y-46211D01*
X125977Y-46299D01*
X125934Y-46386D01*
X125897Y-46466D01*
X125846Y-46626D01*
X125810Y-46772D01*
X125802Y-46831D01*
X125795Y-46882D01*
X125788Y-46925D01*
Y-46984D01*
X125795Y-47100D01*
X125810Y-47210D01*
X125831Y-47319D01*
X125861Y-47421D01*
X125934Y-47603D01*
X126021Y-47771D01*
X126057Y-47844D01*
X126101Y-47902D01*
X126138Y-47961D01*
X126174Y-48004D01*
X126203Y-48041D01*
X126225Y-48070D01*
X126240Y-48085D01*
X126247Y-48092D01*
X126334Y-48179D01*
X126436Y-48267D01*
X126648Y-48420D01*
X126867Y-48551D01*
X127078Y-48668D01*
X127180Y-48711D01*
X127268Y-48755D01*
X127355Y-48792D01*
X127428Y-48821D01*
X127486Y-48843D01*
X127530Y-48857D01*
X127559Y-48872D01*
X127566D01*
X127887Y-48967D01*
X128193Y-49040D01*
X128332Y-49069D01*
X128470Y-49090D01*
X128594Y-49112D01*
X128718Y-49127D01*
X128828Y-49142D01*
X128922Y-49149D01*
X129010Y-49156D01*
X129076D01*
X129134Y-49163D01*
X129214D01*
X129367Y-49156D01*
X129513Y-49149D01*
X129644Y-49127D01*
X129775Y-49098D01*
X129885Y-49069D01*
X129994Y-49040D01*
X130089Y-49003D01*
X130176Y-48967D01*
X130256Y-48923D01*
X130322Y-48886D01*
X130373Y-48857D01*
X130424Y-48828D01*
X130461Y-48799D01*
X130482Y-48777D01*
X130497Y-48770D01*
X130504Y-48763D01*
X130585Y-48690D01*
X130650Y-48609D01*
X130716Y-48522D01*
X130767Y-48442D01*
X130810Y-48354D01*
X130847Y-48274D01*
X130898Y-48114D01*
X130934Y-47968D01*
X130942Y-47910D01*
X130949Y-47859D01*
X130956Y-47815D01*
Y-48886D01*
Y-47756D01*
X130949Y-47640D01*
X130934Y-47530D01*
X130913Y-47428D01*
X130883Y-47326D01*
X130810Y-47137D01*
X130723Y-46976D01*
X130679Y-46903D01*
X130635Y-46838D01*
X130599Y-46780D01*
X130563Y-46736D01*
X130534Y-46699D01*
X130512Y-46670D01*
X130497Y-46656D01*
X130490Y-46648D01*
X130395Y-46561D01*
X130293Y-46473D01*
X130183Y-46386D01*
X130067Y-46313D01*
X129834Y-46174D01*
X129600Y-46058D01*
X129491Y-46007D01*
X129389Y-45963D01*
X129302Y-45919D01*
X129221Y-45890D01*
X129156Y-45868D01*
X129105Y-45847D01*
X129076Y-45839D01*
X129061Y-45832D01*
X128769Y-45744D01*
X128492Y-45686D01*
X128230Y-45642D01*
X128106Y-45621D01*
X127997Y-45606D01*
X127894Y-45599D01*
X127800Y-45591D01*
X127719Y-45584D01*
X127647D01*
X127588Y-45577D01*
X130956D01*
D01*
D02*
G37*
G36*
X132400Y-51307D02*
X125882D01*
D01*
X132400D01*
Y-54376D01*
X131365Y-53654D01*
Y-54310D01*
X132400Y-55426D01*
Y-56103D01*
D01*
Y-51307D01*
D02*
G37*
G36*
X125882D02*
Y-55243D01*
X126728Y-55426D01*
Y-52488D01*
X128099Y-52787D01*
Y-55418D01*
X128944Y-55593D01*
Y-52976D01*
X130081Y-53224D01*
Y-55928D01*
X130927Y-56103D01*
D01*
Y-52364D01*
X125882Y-51307D01*
D02*
G37*
G36*
X129622Y-56140D02*
X124490D01*
Y-60120D01*
Y-59070D01*
X129542Y-60120D01*
D01*
Y-59216D01*
X128959Y-59092D01*
X129076Y-59020D01*
X129177Y-58939D01*
X129265Y-58852D01*
X129345Y-58764D01*
X129403Y-58670D01*
X129462Y-58575D01*
X129506Y-58480D01*
X129542Y-58385D01*
X129564Y-58298D01*
X129586Y-58218D01*
X129600Y-58145D01*
X129615Y-58079D01*
Y-58021D01*
X129622Y-57984D01*
Y-57875D01*
Y-57948D01*
X129608Y-57766D01*
X129571Y-57598D01*
X129527Y-57438D01*
X129469Y-57306D01*
X129411Y-57190D01*
X129389Y-57146D01*
X129367Y-57102D01*
X129345Y-57073D01*
X129331Y-57051D01*
X129323Y-57037D01*
X129316Y-57029D01*
X129192Y-56884D01*
X129054Y-56752D01*
X128915Y-56643D01*
X128777Y-56548D01*
X128653Y-56468D01*
X128594Y-56439D01*
X128551Y-56417D01*
X128507Y-56395D01*
X128478Y-56388D01*
X128463Y-56373D01*
X128456D01*
X128244Y-56293D01*
X128040Y-56242D01*
X127851Y-56198D01*
X127676Y-56169D01*
X127596Y-56162D01*
X127523Y-56155D01*
X127464Y-56147D01*
X127413D01*
X127370Y-56140D01*
X129622D01*
D01*
D02*
G37*
G36*
X129542Y-60514D02*
X125788D01*
D01*
X126743D01*
X126590Y-60521D01*
X126451Y-60550D01*
X126327Y-60587D01*
X126232Y-60631D01*
X126152Y-60674D01*
X126094Y-60711D01*
X126057Y-60740D01*
X126043Y-60747D01*
X125955Y-60842D01*
X125897Y-60951D01*
X125853Y-61061D01*
X125817Y-61163D01*
X125802Y-61257D01*
X125795Y-61338D01*
X125788Y-61367D01*
Y-64261D01*
Y-61403D01*
X125795Y-61527D01*
X125810Y-61644D01*
X125839Y-61761D01*
X125875Y-61870D01*
X125963Y-62074D01*
X126014Y-62169D01*
X126072Y-62256D01*
X126123Y-62336D01*
X126174Y-62402D01*
X126218Y-62468D01*
X126261Y-62519D01*
X126298Y-62555D01*
X126327Y-62592D01*
X126342Y-62606D01*
X126349Y-62613D01*
X125882Y-62511D01*
Y-63437D01*
X129542Y-64261D01*
D01*
Y-60514D01*
D02*
G37*
G36*
X130927Y-64618D02*
X125882D01*
Y-66251D01*
X124490D01*
D01*
X125882D01*
Y-65595D01*
X129542Y-66368D01*
Y-66251D01*
Y-65384D01*
X125882Y-64618D01*
X130927D01*
D01*
D02*
G37*
G36*
X130038Y-65486D02*
Y-66470D01*
X130927Y-66652D01*
D01*
Y-65675D01*
X130038Y-65486D01*
D02*
G37*
G36*
X124490Y-66251D02*
Y-67228D01*
X126371Y-67614D01*
X126269Y-67687D01*
X126181Y-67768D01*
X126101Y-67855D01*
X126035Y-67950D01*
X125977Y-68037D01*
X125934Y-68132D01*
X125890Y-68220D01*
X125861Y-68314D01*
X125839Y-68394D01*
X125817Y-68475D01*
X125802Y-68540D01*
X125795Y-68606D01*
Y-68650D01*
X125788Y-68693D01*
Y-68722D01*
X125795Y-68854D01*
X125810Y-68978D01*
X125839Y-69102D01*
X125875Y-69218D01*
X125919Y-69328D01*
X125970Y-69430D01*
X126021Y-69517D01*
X126079Y-69605D01*
X126130Y-69685D01*
X126181Y-69750D01*
X126232Y-69816D01*
X126276Y-69860D01*
X126313Y-69903D01*
X126342Y-69933D01*
X126356Y-69947D01*
X126364Y-69955D01*
X126495Y-70064D01*
X126633Y-70159D01*
X126772Y-70239D01*
X126918Y-70312D01*
X127056Y-70370D01*
X127195Y-70421D01*
X127333Y-70458D01*
X127457Y-70494D01*
X127581Y-70516D01*
X127690Y-70538D01*
X127792Y-70545D01*
X127873Y-70560D01*
X127945D01*
X127997Y-70567D01*
X128040D01*
X128186Y-70560D01*
X128317Y-70552D01*
X128441Y-70538D01*
X128558Y-70509D01*
X128660Y-70487D01*
X128762Y-70458D01*
X128849Y-70421D01*
X128930Y-70392D01*
X128995Y-70355D01*
X129054Y-70326D01*
X129105Y-70290D01*
X129148Y-70268D01*
X129177Y-70246D01*
X129207Y-70224D01*
X129214Y-70217D01*
X129221Y-70210D01*
X129294Y-70144D01*
X129352Y-70071D01*
X129411Y-69991D01*
X129455Y-69918D01*
X129527Y-69765D01*
X129571Y-69619D01*
X129600Y-69488D01*
X129608Y-69430D01*
X129615Y-69379D01*
X129622Y-69342D01*
Y-69284D01*
X129615Y-69174D01*
X129608Y-69065D01*
X129586Y-68970D01*
X129571Y-68883D01*
X129549Y-68817D01*
X129527Y-68759D01*
X129520Y-68730D01*
X129513Y-68715D01*
X129469Y-68613D01*
X129411Y-68518D01*
X129352Y-68424D01*
X129294Y-68336D01*
X129243Y-68263D01*
X129199Y-68205D01*
X129170Y-68168D01*
X129156Y-68154D01*
X129542Y-68227D01*
Y-67301D01*
X124490Y-66251D01*
D02*
G37*
G36*
X129622Y-66652D02*
D01*
Y-68555D01*
Y-66652D01*
D02*
G37*
G36*
Y-71012D02*
X125788D01*
D01*
X127486D01*
X127348Y-71019D01*
X127216Y-71033D01*
X127085Y-71055D01*
X126969Y-71084D01*
X126859Y-71121D01*
X126757Y-71157D01*
X126670Y-71201D01*
X126582Y-71245D01*
X126509Y-71281D01*
X126444Y-71325D01*
X126385Y-71362D01*
X126342Y-71398D01*
X126305Y-71427D01*
X126276Y-71449D01*
X126261Y-71464D01*
X126254Y-71471D01*
X126174Y-71558D01*
X126101Y-71653D01*
X126035Y-71755D01*
X125985Y-71850D01*
X125941Y-71952D01*
X125904Y-72054D01*
X125846Y-72244D01*
X125824Y-72331D01*
X125810Y-72411D01*
X125802Y-72484D01*
X125795Y-72550D01*
X125788Y-72601D01*
Y-72674D01*
X125802Y-72870D01*
X125831Y-73045D01*
X125868Y-73213D01*
X125919Y-73352D01*
X125970Y-73476D01*
X125992Y-73519D01*
X126006Y-73563D01*
X126028Y-73592D01*
X126035Y-73614D01*
X126050Y-73629D01*
Y-73636D01*
X126160Y-73789D01*
X126291Y-73928D01*
X126422Y-74051D01*
X126553Y-74154D01*
X126677Y-74226D01*
X126728Y-74263D01*
X126772Y-74285D01*
X126808Y-74307D01*
X126837Y-74321D01*
X126852Y-74336D01*
X126859D01*
X127005Y-73454D01*
X126918Y-73403D01*
X126837Y-73344D01*
X126772Y-73279D01*
X126714Y-73213D01*
X126663Y-73155D01*
X126619Y-73089D01*
X126582Y-73024D01*
X126560Y-72965D01*
X126524Y-72856D01*
X126509Y-72805D01*
X126502Y-72761D01*
X126495Y-72732D01*
Y-72681D01*
X126502Y-72572D01*
X126531Y-72470D01*
X126568Y-72382D01*
X126604Y-72309D01*
X126648Y-72244D01*
X126677Y-72200D01*
X126706Y-72171D01*
X126714Y-72163D01*
X126801Y-72098D01*
X126903Y-72047D01*
X126998Y-72010D01*
X127093Y-71988D01*
X127180Y-71974D01*
X127246Y-71959D01*
X127289D01*
X127297D01*
X127304D01*
X127333D01*
X127362Y-71966D01*
X127392D01*
X127399D01*
Y-74445D01*
X127618Y-74489D01*
X127727Y-74503D01*
X127829Y-74511D01*
X127909Y-74518D01*
X128040D01*
X128179Y-74511D01*
X128303Y-74503D01*
X128427Y-74482D01*
X128536Y-74452D01*
X128645Y-74423D01*
X128740Y-74394D01*
X128828Y-74358D01*
X128908Y-74321D01*
X128973Y-74278D01*
X129039Y-74241D01*
X129090Y-74212D01*
X129134Y-74183D01*
X129163Y-74154D01*
X129185Y-74132D01*
X129199Y-74124D01*
X129207Y-74117D01*
X129280Y-74037D01*
X129345Y-73957D01*
X129396Y-73869D01*
X129447Y-73782D01*
X129491Y-73694D01*
X129520Y-73607D01*
X129571Y-73432D01*
X129586Y-73352D01*
X129600Y-73279D01*
X129608Y-73213D01*
X129615Y-73155D01*
X129622Y-73111D01*
Y-74518D01*
D01*
Y-73045D01*
X129615Y-72856D01*
X129586Y-72674D01*
X129549Y-72506D01*
X129498Y-72353D01*
X129440Y-72207D01*
X129374Y-72076D01*
X129302Y-71952D01*
X129229Y-71843D01*
X129148Y-71748D01*
X129083Y-71660D01*
X129010Y-71595D01*
X128952Y-71529D01*
X128901Y-71485D01*
X128864Y-71456D01*
X128835Y-71434D01*
X128828Y-71427D01*
X128718Y-71354D01*
X128602Y-71289D01*
X128485Y-71237D01*
X128368Y-71187D01*
X128252Y-71150D01*
X128142Y-71114D01*
X127938Y-71063D01*
X127843Y-71048D01*
X127756Y-71033D01*
X127676Y-71026D01*
X127610Y-71019D01*
X127559Y-71012D01*
X129622D01*
D01*
D02*
G37*
G36*
X130927Y-76734D02*
X125882D01*
Y-77762D01*
X130927Y-78826D01*
D01*
Y-79752D01*
X126509Y-78826D01*
X125882Y-78695D01*
Y-79723D01*
X130305Y-80656D01*
D01*
X130927Y-80787D01*
Y-81713D01*
X126509Y-80787D01*
D01*
X125882Y-80656D01*
Y-81684D01*
X130927Y-82749D01*
D01*
Y-77791D01*
X125882Y-76734D01*
X130927D01*
D01*
D02*
G37*
%LPD*%
G36*
X131022Y-19172D02*
X131015Y-19012D01*
X131000Y-18859D01*
X130978Y-18706D01*
X130949Y-18567D01*
X130920Y-18429D01*
X130876Y-18305D01*
X130840Y-18188D01*
X130796Y-18086D01*
X130752Y-17984D01*
X130716Y-17904D01*
X130672Y-17824D01*
X130643Y-17765D01*
X130614Y-17714D01*
X130592Y-17678D01*
X130577Y-17656D01*
X130570Y-17649D01*
X130482Y-17532D01*
X130388Y-17423D01*
X130183Y-17226D01*
X130074Y-17131D01*
X129972Y-17051D01*
X129870Y-16978D01*
X129768Y-16913D01*
X129673Y-16854D01*
X129586Y-16803D01*
X129513Y-16759D01*
X129440Y-16723D01*
X129389Y-16694D01*
X129345Y-16672D01*
X129316Y-16665D01*
X129309Y-16657D01*
X129054Y-16563D01*
X128798Y-16490D01*
X128558Y-16439D01*
X128448Y-16417D01*
X128347Y-16402D01*
X128244Y-16388D01*
X128157Y-16380D01*
X128084Y-16373D01*
X128011D01*
X127960Y-16366D01*
X131022D01*
Y-19172D01*
D02*
G37*
G36*
X130927Y-22569D02*
X125882Y-21512D01*
X130927D01*
Y-22569D01*
D02*
G37*
G36*
X130096Y-23430D02*
Y-24348D01*
X130089Y-24421D01*
Y-24487D01*
X130081Y-24603D01*
X130067Y-24684D01*
X130060Y-24749D01*
X130045Y-24793D01*
X130038Y-24815D01*
Y-24822D01*
X129987Y-24917D01*
X129936Y-24990D01*
X129892Y-25034D01*
X129877Y-25048D01*
X129870D01*
X129826Y-25077D01*
X129775Y-25099D01*
X129681Y-25128D01*
X129637D01*
X129600Y-25136D01*
X129578D01*
X129571D01*
X129469Y-25128D01*
X129382Y-25114D01*
X129294Y-25085D01*
X129221Y-25055D01*
X129163Y-25026D01*
X129112Y-24997D01*
X129083Y-24983D01*
X129076Y-24975D01*
X129003Y-24910D01*
X128937Y-24837D01*
X128879Y-24764D01*
X128835Y-24698D01*
X128798Y-24633D01*
X128777Y-24581D01*
X128762Y-24552D01*
X128755Y-24538D01*
X128740Y-24479D01*
X128718Y-24414D01*
X128711Y-24334D01*
X128696Y-24253D01*
X128674Y-24071D01*
X128667Y-23889D01*
X128660Y-23721D01*
X128653Y-23641D01*
Y-23124D01*
X130096Y-23430D01*
D02*
G37*
G36*
X128135Y-27731D02*
Y-29692D01*
X125882Y-29225D01*
Y-27257D01*
X128135Y-27731D01*
D02*
G37*
G36*
X127515Y-46546D02*
X127734Y-46568D01*
X127945Y-46597D01*
X128157Y-46634D01*
X128252Y-46648D01*
X128339Y-46663D01*
X128419Y-46678D01*
X128485Y-46692D01*
X128543Y-46707D01*
X128580Y-46714D01*
X128609Y-46721D01*
X128616D01*
X128784Y-46765D01*
X128937Y-46809D01*
X129083Y-46852D01*
X129207Y-46896D01*
X129331Y-46940D01*
X129433Y-46984D01*
X129527Y-47028D01*
X129615Y-47071D01*
X129688Y-47108D01*
X129746Y-47137D01*
X129797Y-47173D01*
X129841Y-47195D01*
X129870Y-47217D01*
X129899Y-47232D01*
X129906Y-47246D01*
X129914D01*
X130001Y-47326D01*
X130060Y-47407D01*
X130103Y-47487D01*
X130140Y-47560D01*
X130154Y-47625D01*
X130162Y-47676D01*
X130169Y-47705D01*
Y-47720D01*
X130162Y-47793D01*
X130140Y-47866D01*
X130111Y-47924D01*
X130081Y-47968D01*
X130052Y-48012D01*
X130023Y-48041D01*
X130001Y-48055D01*
X129994Y-48063D01*
X129921Y-48106D01*
X129841Y-48143D01*
X129746Y-48165D01*
X129659Y-48187D01*
X129578Y-48194D01*
X129513Y-48201D01*
X129462D01*
X129455D01*
X129447D01*
X129360D01*
X129258Y-48194D01*
X129054Y-48172D01*
X128842Y-48143D01*
X128638Y-48114D01*
X128543Y-48092D01*
X128456Y-48077D01*
X128376Y-48063D01*
X128310Y-48048D01*
X128259Y-48033D01*
X128215Y-48026D01*
X128186Y-48019D01*
X128179D01*
X127997Y-47975D01*
X127829Y-47931D01*
X127683Y-47888D01*
X127545Y-47844D01*
X127421Y-47800D01*
X127311Y-47756D01*
X127209Y-47720D01*
X127129Y-47676D01*
X127056Y-47640D01*
X126990Y-47611D01*
X126939Y-47581D01*
X126903Y-47560D01*
X126867Y-47538D01*
X126845Y-47523D01*
X126837Y-47509D01*
X126830D01*
X126743Y-47421D01*
X126684Y-47341D01*
X126641Y-47253D01*
X126604Y-47181D01*
X126590Y-47115D01*
X126582Y-47057D01*
X126575Y-47028D01*
Y-47013D01*
X126582Y-46940D01*
X126597Y-46867D01*
X126626Y-46809D01*
X126655Y-46765D01*
X126684Y-46721D01*
X126714Y-46692D01*
X126728Y-46678D01*
X126735Y-46670D01*
X126808Y-46626D01*
X126896Y-46597D01*
X126990Y-46568D01*
X127085Y-46554D01*
X127173Y-46546D01*
X127246Y-46539D01*
X127275D01*
X127297D01*
X127304D01*
X127311D01*
X127515Y-46546D01*
D02*
G37*
G36*
X127173Y-56147D02*
X127049Y-56155D01*
X126925Y-56169D01*
X126816Y-56198D01*
X126714Y-56220D01*
X126619Y-56249D01*
X126539Y-56286D01*
X126458Y-56315D01*
X126393Y-56351D01*
X126334Y-56380D01*
X126283Y-56410D01*
X126247Y-56439D01*
X126218Y-56461D01*
X126196Y-56475D01*
X126181Y-56483D01*
X126174Y-56490D01*
X126108Y-56555D01*
X126050Y-56628D01*
X125992Y-56709D01*
X125948Y-56782D01*
X125882Y-56942D01*
X125839Y-57088D01*
X125810Y-57219D01*
X125802Y-57277D01*
X125795Y-57328D01*
X125788Y-57365D01*
Y-57423D01*
X125795Y-57532D01*
X125802Y-57627D01*
X125817Y-57715D01*
X125839Y-57795D01*
X125853Y-57860D01*
X125868Y-57904D01*
X125875Y-57941D01*
X125882Y-57948D01*
X125919Y-58035D01*
X125970Y-58123D01*
X126014Y-58203D01*
X126065Y-58283D01*
X126108Y-58341D01*
X126145Y-58393D01*
X126174Y-58422D01*
X126181Y-58436D01*
X124490Y-58086D01*
Y-56140D01*
X127311D01*
X127173Y-56147D01*
D02*
G37*
G36*
X127479Y-57102D02*
X127618Y-57117D01*
X127749Y-57139D01*
X127873Y-57168D01*
X127975Y-57197D01*
X128048Y-57219D01*
X128084Y-57226D01*
X128106Y-57234D01*
X128113Y-57241D01*
X128121D01*
X128266Y-57299D01*
X128383Y-57365D01*
X128485Y-57430D01*
X128572Y-57489D01*
X128631Y-57547D01*
X128674Y-57591D01*
X128704Y-57620D01*
X128711Y-57627D01*
X128769Y-57715D01*
X128813Y-57795D01*
X128849Y-57875D01*
X128871Y-57948D01*
X128886Y-58006D01*
X128893Y-58050D01*
Y-58086D01*
X128886Y-58188D01*
X128857Y-58283D01*
X128820Y-58363D01*
X128777Y-58436D01*
X128733Y-58495D01*
X128696Y-58538D01*
X128667Y-58568D01*
X128660Y-58575D01*
X128565Y-58648D01*
X128463Y-58699D01*
X128354Y-58735D01*
X128252Y-58757D01*
X128157Y-58779D01*
X128084Y-58786D01*
X128055D01*
X128040D01*
X128026D01*
X128018D01*
X127880Y-58779D01*
X127749Y-58764D01*
X127618Y-58742D01*
X127501Y-58713D01*
X127406Y-58684D01*
X127326Y-58662D01*
X127297Y-58655D01*
X127275Y-58648D01*
X127268Y-58640D01*
X127260D01*
X127122Y-58582D01*
X127005Y-58517D01*
X126910Y-58451D01*
X126830Y-58393D01*
X126772Y-58341D01*
X126728Y-58298D01*
X126706Y-58261D01*
X126699Y-58254D01*
X126641Y-58167D01*
X126604Y-58079D01*
X126575Y-57999D01*
X126553Y-57926D01*
X126539Y-57860D01*
X126531Y-57817D01*
Y-57773D01*
X126539Y-57671D01*
X126568Y-57576D01*
X126597Y-57496D01*
X126641Y-57423D01*
X126677Y-57372D01*
X126714Y-57328D01*
X126735Y-57299D01*
X126743Y-57292D01*
X126830Y-57226D01*
X126925Y-57175D01*
X127027Y-57146D01*
X127122Y-57117D01*
X127202Y-57102D01*
X127275Y-57095D01*
X127319D01*
X127326D01*
X127333D01*
X127479Y-57102D01*
D02*
G37*
G36*
X129542Y-61097D02*
X127501Y-60638D01*
X127399Y-60616D01*
X127304Y-60594D01*
X127216Y-60580D01*
X127144Y-60565D01*
X127071Y-60558D01*
X127012Y-60543D01*
X126910Y-60528D01*
X126830Y-60521D01*
X126779Y-60514D01*
X129542D01*
Y-61097D01*
D02*
G37*
G36*
X126932Y-61527D02*
X126998Y-61535D01*
X127078Y-61549D01*
X127158Y-61564D01*
X127238Y-61578D01*
X127304Y-61593D01*
X127348Y-61607D01*
X127355D01*
X127362D01*
X129542Y-62096D01*
Y-63277D01*
X127792Y-62883D01*
X127676Y-62854D01*
X127581Y-62832D01*
X127494Y-62810D01*
X127428Y-62788D01*
X127370Y-62774D01*
X127333Y-62759D01*
X127311Y-62752D01*
X127304D01*
X127224Y-62723D01*
X127151Y-62686D01*
X127093Y-62657D01*
X127034Y-62628D01*
X126998Y-62606D01*
X126961Y-62584D01*
X126947Y-62577D01*
X126939Y-62570D01*
X126845Y-62497D01*
X126772Y-62424D01*
X126743Y-62395D01*
X126721Y-62373D01*
X126706Y-62358D01*
X126699Y-62351D01*
X126633Y-62264D01*
X126582Y-62191D01*
X126568Y-62161D01*
X126553Y-62140D01*
X126546Y-62125D01*
Y-62118D01*
X126517Y-62038D01*
X126502Y-61965D01*
X126495Y-61936D01*
Y-61892D01*
X126502Y-61834D01*
X126509Y-61782D01*
X126531Y-61739D01*
X126553Y-61695D01*
X126568Y-61666D01*
X126590Y-61644D01*
X126597Y-61629D01*
X126604Y-61622D01*
X126648Y-61586D01*
X126699Y-61564D01*
X126786Y-61535D01*
X126823Y-61527D01*
X126852Y-61520D01*
X126874D01*
X126881D01*
X126932Y-61527D01*
D02*
G37*
G36*
X127559Y-67884D02*
X127668Y-67899D01*
X127785Y-67921D01*
X127894Y-67943D01*
X127982Y-67964D01*
X128055Y-67986D01*
X128084Y-67993D01*
X128106Y-68001D01*
X128113Y-68008D01*
X128121D01*
X128259Y-68059D01*
X128376Y-68117D01*
X128478Y-68183D01*
X128558Y-68241D01*
X128623Y-68292D01*
X128674Y-68336D01*
X128704Y-68365D01*
X128711Y-68373D01*
X128777Y-68467D01*
X128828Y-68555D01*
X128864Y-68642D01*
X128893Y-68722D01*
X128908Y-68795D01*
X128915Y-68846D01*
Y-68897D01*
X128908Y-69007D01*
X128879Y-69109D01*
X128842Y-69189D01*
X128806Y-69262D01*
X128762Y-69320D01*
X128726Y-69364D01*
X128696Y-69393D01*
X128689Y-69401D01*
X128602Y-69466D01*
X128500Y-69517D01*
X128398Y-69554D01*
X128295Y-69583D01*
X128201Y-69597D01*
X128128Y-69605D01*
X128099D01*
X128077D01*
X128069D01*
X128062D01*
X127931Y-69597D01*
X127792Y-69583D01*
X127668Y-69554D01*
X127552Y-69532D01*
X127450Y-69503D01*
X127370Y-69473D01*
X127340Y-69466D01*
X127319Y-69459D01*
X127304Y-69451D01*
X127297D01*
X127151Y-69393D01*
X127027Y-69328D01*
X126925Y-69262D01*
X126845Y-69204D01*
X126786Y-69145D01*
X126743Y-69102D01*
X126714Y-69072D01*
X126706Y-69065D01*
X126648Y-68978D01*
X126604Y-68897D01*
X126575Y-68817D01*
X126553Y-68744D01*
X126539Y-68679D01*
X126531Y-68635D01*
Y-68591D01*
X126539Y-68489D01*
X126568Y-68387D01*
X126604Y-68307D01*
X126648Y-68234D01*
X126692Y-68168D01*
X126728Y-68125D01*
X126757Y-68096D01*
X126765Y-68088D01*
X126867Y-68015D01*
X126969Y-67964D01*
X127085Y-67928D01*
X127195Y-67906D01*
X127289Y-67891D01*
X127370Y-67877D01*
X127399D01*
X127421D01*
X127435D01*
X127443D01*
X127559Y-67884D01*
D02*
G37*
G36*
X128164Y-72098D02*
X128295Y-72149D01*
X128412Y-72207D01*
X128507Y-72258D01*
X128587Y-72309D01*
X128638Y-72353D01*
X128674Y-72382D01*
X128682Y-72389D01*
X128762Y-72484D01*
X128820Y-72579D01*
X128857Y-72674D01*
X128886Y-72761D01*
X128901Y-72834D01*
X128915Y-72892D01*
Y-72943D01*
X128908Y-73053D01*
X128886Y-73147D01*
X128849Y-73235D01*
X128813Y-73301D01*
X128777Y-73359D01*
X128740Y-73395D01*
X128718Y-73425D01*
X128711Y-73432D01*
X128623Y-73490D01*
X128529Y-73534D01*
X128427Y-73570D01*
X128332Y-73592D01*
X128237Y-73607D01*
X128164Y-73614D01*
X128135D01*
X128113D01*
X128106D01*
X128099D01*
X128069D01*
X128040D01*
X128011D01*
X128004D01*
Y-72061D01*
X128164Y-72098D01*
D02*
G37*
%LPC*%
G36*
X143613Y-37395D02*
Y-38154D01*
X140952Y-37556D01*
X140857Y-37534D01*
X140777Y-37519D01*
X140704Y-37505D01*
X140639Y-37490D01*
X140580Y-37476D01*
X140529Y-37468D01*
X140442Y-37454D01*
X140391Y-37439D01*
X140347D01*
X140332Y-37432D01*
X140325D01*
X140209Y-37417D01*
X140158Y-37410D01*
X140106Y-37403D01*
X140070D01*
X140041Y-37395D01*
X140019D01*
X139895Y-37403D01*
X139778Y-37417D01*
X139662Y-37439D01*
X139560Y-37468D01*
X139458Y-37505D01*
X139370Y-37549D01*
X139283Y-37592D01*
X139210Y-37636D01*
X139137Y-37680D01*
X139079Y-37723D01*
X139028Y-37767D01*
X138984Y-37804D01*
X138947Y-37833D01*
X138926Y-37855D01*
X138911Y-37869D01*
X138904Y-37877D01*
X138831Y-37971D01*
X138765Y-38081D01*
X138707Y-38190D01*
X138656Y-38299D01*
X138612Y-38416D01*
X138576Y-38540D01*
X138525Y-38766D01*
X138510Y-38868D01*
X138496Y-38970D01*
X138488Y-39058D01*
X138481Y-39130D01*
X138474Y-39196D01*
Y-37395D01*
Y-42323D01*
Y-39284D01*
X138488Y-39553D01*
X138503Y-39685D01*
X138517Y-39801D01*
X138539Y-39911D01*
X138561Y-40013D01*
X138583Y-40107D01*
X138612Y-40195D01*
X138641Y-40275D01*
X138663Y-40341D01*
X138685Y-40399D01*
X138707Y-40450D01*
X138729Y-40486D01*
X138736Y-40516D01*
X138751Y-40530D01*
Y-40537D01*
X138860Y-40712D01*
X138984Y-40865D01*
X139101Y-40997D01*
X139217Y-41099D01*
X139319Y-41186D01*
X139399Y-41245D01*
X139429Y-41259D01*
X139450Y-41274D01*
X139465Y-41288D01*
X139472D01*
X139560Y-41332D01*
X139655Y-41376D01*
X139859Y-41463D01*
X140077Y-41536D01*
X140281Y-41594D01*
X140376Y-41624D01*
X140464Y-41646D01*
X140544Y-41667D01*
X140617Y-41689D01*
X140675Y-41704D01*
X140719Y-41711D01*
X140748Y-41718D01*
X140755D01*
X142821Y-42156D01*
X143613Y-42323D01*
Y-41288D01*
X140850Y-40705D01*
X140726Y-40676D01*
X140617Y-40654D01*
X140515Y-40625D01*
X140420Y-40596D01*
X140332Y-40574D01*
X140252Y-40552D01*
X140187Y-40523D01*
X140121Y-40508D01*
X140070Y-40486D01*
X140019Y-40464D01*
X139983Y-40450D01*
X139953Y-40435D01*
X139910Y-40421D01*
X139895Y-40413D01*
X139800Y-40355D01*
X139713Y-40290D01*
X139640Y-40217D01*
X139582Y-40151D01*
X139538Y-40093D01*
X139509Y-40042D01*
X139487Y-40013D01*
X139480Y-39998D01*
X139436Y-39896D01*
X139399Y-39779D01*
X139377Y-39670D01*
X139356Y-39568D01*
X139348Y-39473D01*
X139341Y-39393D01*
Y-39327D01*
X139348Y-39167D01*
X139370Y-39028D01*
X139399Y-38912D01*
X139429Y-38810D01*
X139458Y-38737D01*
X139487Y-38679D01*
X139509Y-38649D01*
X139516Y-38635D01*
X139589Y-38555D01*
X139662Y-38504D01*
X139742Y-38460D01*
X139815Y-38431D01*
X139881Y-38416D01*
X139932Y-38409D01*
X139961Y-38401D01*
X139975D01*
X140063Y-38416D01*
X140136Y-38423D01*
X140179Y-38431D01*
X140187D01*
X140194D01*
X140865Y-38584D01*
X143613Y-39182D01*
Y-37395D01*
D02*
G37*
G36*
X138568Y-42156D02*
Y-42323D01*
Y-45772D01*
X139414Y-45947D01*
Y-43366D01*
X143613Y-44248D01*
Y-43213D01*
X138568Y-42156D01*
D02*
G37*
G36*
X139589Y-46464D02*
X139538D01*
D01*
X138474D01*
X139538D01*
X139370Y-46479D01*
X139217Y-46508D01*
X139086Y-46559D01*
X138977Y-46610D01*
X138882Y-46661D01*
X138816Y-46712D01*
X138780Y-46741D01*
X138765Y-46756D01*
X138670Y-46872D01*
X138598Y-46996D01*
X138547Y-47128D01*
X138510Y-47244D01*
X138488Y-47346D01*
X138481Y-47434D01*
X138474Y-47463D01*
Y-46464D01*
X138474D01*
X138474D01*
Y-49905D01*
Y-47507D01*
X138481Y-47616D01*
X138496Y-47718D01*
X138517Y-47813D01*
X138539Y-47900D01*
X138561Y-47973D01*
X138583Y-48024D01*
X138598Y-48061D01*
X138605Y-48075D01*
X138656Y-48177D01*
X138721Y-48272D01*
X138780Y-48360D01*
X138838Y-48432D01*
X138896Y-48491D01*
X138940Y-48542D01*
X138969Y-48571D01*
X138977Y-48578D01*
X138823Y-48593D01*
X138758Y-48608D01*
X138692Y-48615D01*
X138641Y-48629D01*
X138605Y-48644D01*
X138576Y-48651D01*
X138568D01*
Y-49606D01*
X138670Y-49577D01*
X138772Y-49562D01*
X138860Y-49548D01*
X138933Y-49533D01*
X138998D01*
X139042Y-49526D01*
X139079D01*
X139086D01*
X139137D01*
X139203Y-49533D01*
X139341Y-49548D01*
X139487Y-49570D01*
X139640Y-49599D01*
X139778Y-49621D01*
X139837Y-49635D01*
X139895Y-49643D01*
X139939Y-49650D01*
X139968Y-49657D01*
X139990Y-49665D01*
X139997D01*
X140136Y-49694D01*
X140267Y-49723D01*
X140384Y-49752D01*
X140486Y-49774D01*
X140573Y-49788D01*
X140653Y-49803D01*
X140726Y-49818D01*
X140785Y-49832D01*
X140835Y-49839D01*
X140872Y-49854D01*
X140908D01*
X140930Y-49861D01*
X140967Y-49869D01*
X140974D01*
X141113Y-49891D01*
X141171Y-49898D01*
X141222D01*
X141266Y-49905D01*
X142308D01*
X141404D01*
X141477Y-49891D01*
X141608Y-49854D01*
X141725Y-49796D01*
X141827Y-49737D01*
X141914Y-49672D01*
X141973Y-49613D01*
X142009Y-49577D01*
X142024Y-49570D01*
Y-49562D01*
X142075Y-49497D01*
X142119Y-49424D01*
X142192Y-49256D01*
X142243Y-49089D01*
X142272Y-48914D01*
X142294Y-48761D01*
X142301Y-48695D01*
Y-48637D01*
X142308Y-48586D01*
Y-48520D01*
X142294Y-48279D01*
X142264Y-48061D01*
X142243Y-47966D01*
X142221Y-47879D01*
X142199Y-47791D01*
X142170Y-47718D01*
X142140Y-47653D01*
X142119Y-47594D01*
X142097Y-47543D01*
X142075Y-47499D01*
X142060Y-47470D01*
X142046Y-47448D01*
X142031Y-47434D01*
Y-47427D01*
X141922Y-47288D01*
X141798Y-47164D01*
X141667Y-47069D01*
X141550Y-46989D01*
X141441Y-46931D01*
X141353Y-46887D01*
X141317Y-46872D01*
X141295Y-46865D01*
X141280Y-46858D01*
X141273D01*
X141193Y-47820D01*
X141258Y-47842D01*
X141317Y-47871D01*
X141368Y-47908D01*
X141411Y-47944D01*
X141448Y-47973D01*
X141470Y-48002D01*
X141484Y-48017D01*
X141492Y-48024D01*
X141528Y-48090D01*
X141557Y-48156D01*
X141572Y-48228D01*
X141586Y-48294D01*
X141594Y-48352D01*
X141601Y-48403D01*
Y-48447D01*
X141594Y-48535D01*
X141586Y-48615D01*
X141565Y-48673D01*
X141550Y-48731D01*
X141528Y-48775D01*
X141506Y-48804D01*
X141499Y-48819D01*
X141492Y-48826D01*
X141448Y-48870D01*
X141404Y-48899D01*
X141360Y-48928D01*
X141317Y-48943D01*
X141280Y-48950D01*
X141258Y-48957D01*
X141236D01*
X141229D01*
X141178D01*
X141127Y-48950D01*
X141018Y-48928D01*
X140974Y-48914D01*
X140938Y-48899D01*
X140908Y-48892D01*
X140901D01*
X140887Y-48841D01*
X140872Y-48782D01*
X140857Y-48717D01*
X140843Y-48644D01*
X140814Y-48491D01*
X140799Y-48331D01*
X140777Y-48185D01*
X140770Y-48119D01*
X140763Y-48068D01*
Y-48017D01*
X140755Y-47980D01*
Y-47951D01*
X140741Y-47798D01*
X140719Y-47660D01*
X140697Y-47536D01*
X140668Y-47419D01*
X140639Y-47310D01*
X140610Y-47215D01*
X140573Y-47128D01*
X140544Y-47055D01*
X140507Y-46989D01*
X140478Y-46931D01*
X140449Y-46887D01*
X140427Y-46851D01*
X140405Y-46821D01*
X140391Y-46799D01*
X140384Y-46792D01*
X140376Y-46785D01*
X140318Y-46727D01*
X140252Y-46683D01*
X140114Y-46603D01*
X139975Y-46544D01*
X139837Y-46508D01*
X139720Y-46479D01*
X139669Y-46472D01*
X139625D01*
X139589Y-46464D01*
D02*
G37*
G36*
X142228Y-50605D02*
X138568Y-51334D01*
Y-52180D01*
X142228Y-54432D01*
Y-54308D01*
Y-53368D01*
X140675Y-52457D01*
X140631Y-52435D01*
X140566Y-52398D01*
X140493Y-52355D01*
X140413Y-52311D01*
X140332Y-52267D01*
X140267Y-52231D01*
X140223Y-52201D01*
X140216Y-52194D01*
X140209D01*
X140143Y-52158D01*
X140077Y-52121D01*
X139975Y-52070D01*
X139902Y-52026D01*
X139844Y-51997D01*
X139808Y-51976D01*
X139786Y-51961D01*
X139771Y-51954D01*
X139815Y-51946D01*
X139866Y-51939D01*
X139990Y-51924D01*
X140128Y-51903D01*
X140274Y-51881D01*
X140405Y-51859D01*
X140471Y-51844D01*
X140522Y-51837D01*
X140566Y-51830D01*
X140595D01*
X140617Y-51822D01*
X140624D01*
X142228Y-51574D01*
Y-50605D01*
D02*
G37*
G36*
X139589Y-54308D02*
X139560D01*
X139545D01*
X139538D01*
X139370Y-54323D01*
X139217Y-54352D01*
D01*
X139086Y-54403D01*
X138977Y-54454D01*
X138882Y-54505D01*
X138816Y-54556D01*
X138780Y-54585D01*
X138765Y-54600D01*
X138670Y-54716D01*
X138598Y-54840D01*
X138547Y-54972D01*
X138510Y-55088D01*
X138488Y-55190D01*
X138481Y-55278D01*
X138474Y-55307D01*
Y-55351D01*
X138481Y-55460D01*
X138496Y-55562D01*
X138517Y-55657D01*
X138539Y-55744D01*
X138561Y-55817D01*
X138583Y-55868D01*
X138598Y-55905D01*
X138605Y-55919D01*
X138656Y-56021D01*
X138721Y-56116D01*
X138780Y-56204D01*
X138838Y-56277D01*
X138896Y-56335D01*
X138940Y-56386D01*
X138969Y-56415D01*
X138977Y-56422D01*
X138823Y-56437D01*
X138758Y-56451D01*
X138692Y-56459D01*
X138641Y-56473D01*
X138605Y-56488D01*
X138576Y-56495D01*
X138568D01*
Y-57450D01*
X138670Y-57421D01*
X138772Y-57407D01*
X138860Y-57392D01*
X138933Y-57377D01*
X138998D01*
X139042Y-57370D01*
X139079D01*
X139086D01*
X139137D01*
X139203Y-57377D01*
X139341Y-57392D01*
X139487Y-57414D01*
X139640Y-57443D01*
X139778Y-57465D01*
X139837Y-57479D01*
X139895Y-57487D01*
X139939Y-57494D01*
X139968Y-57501D01*
X139990Y-57509D01*
X139997D01*
X140136Y-57538D01*
X140267Y-57567D01*
X140384Y-57596D01*
X140486Y-57618D01*
X140573Y-57632D01*
X140653Y-57647D01*
X140726Y-57662D01*
X140785Y-57676D01*
X140835Y-57683D01*
X140872Y-57698D01*
X140908D01*
X140930Y-57705D01*
X140967Y-57713D01*
X140974D01*
X141113Y-57735D01*
X141171Y-57742D01*
X141222D01*
X141266Y-57749D01*
X142308D01*
X141404D01*
X141477Y-57735D01*
X141608Y-57698D01*
X141725Y-57640D01*
X141827Y-57582D01*
X141914Y-57516D01*
X141973Y-57458D01*
X142009Y-57421D01*
X142024Y-57414D01*
Y-57407D01*
X142075Y-57341D01*
X142119Y-57268D01*
X142192Y-57100D01*
X142243Y-56933D01*
X142272Y-56758D01*
X142294Y-56605D01*
X142301Y-56539D01*
Y-56481D01*
X142308Y-56430D01*
Y-56291D01*
Y-56364D01*
X142294Y-56124D01*
X142264Y-55905D01*
X142243Y-55810D01*
X142221Y-55722D01*
X142199Y-55635D01*
X142170Y-55562D01*
X142140Y-55497D01*
X142119Y-55438D01*
X142097Y-55387D01*
X142075Y-55343D01*
X142060Y-55314D01*
X142046Y-55292D01*
X142031Y-55278D01*
Y-55270D01*
X141922Y-55132D01*
X141798Y-55008D01*
X141667Y-54913D01*
X141550Y-54833D01*
X141441Y-54775D01*
X141353Y-54731D01*
X141317Y-54716D01*
X141295Y-54709D01*
X141280Y-54702D01*
X141273D01*
X141193Y-55664D01*
X141258Y-55686D01*
X141317Y-55715D01*
X141368Y-55752D01*
X141411Y-55788D01*
X141448Y-55817D01*
X141470Y-55846D01*
X141484Y-55861D01*
X141492Y-55868D01*
X141528Y-55934D01*
X141557Y-55999D01*
X141572Y-56072D01*
X141586Y-56138D01*
X141594Y-56196D01*
X141601Y-56247D01*
Y-56291D01*
X141594Y-56379D01*
X141586Y-56459D01*
X141565Y-56517D01*
X141550Y-56575D01*
X141528Y-56619D01*
X141506Y-56648D01*
X141499Y-56663D01*
X141492Y-56670D01*
X141448Y-56714D01*
X141404Y-56743D01*
X141360Y-56772D01*
X141317Y-56787D01*
X141280Y-56794D01*
X141258Y-56801D01*
X141236D01*
X141229D01*
X141178D01*
X141127Y-56794D01*
X141018Y-56772D01*
X140974Y-56758D01*
X140938Y-56743D01*
X140908Y-56736D01*
X140901D01*
X140887Y-56685D01*
X140872Y-56626D01*
X140857Y-56561D01*
X140843Y-56488D01*
X140814Y-56335D01*
X140799Y-56174D01*
X140777Y-56029D01*
X140770Y-55963D01*
X140763Y-55912D01*
Y-55861D01*
X140755Y-55825D01*
Y-55795D01*
X140741Y-55642D01*
X140719Y-55504D01*
X140697Y-55380D01*
X140668Y-55263D01*
X140639Y-55154D01*
X140610Y-55059D01*
X140573Y-54972D01*
X140544Y-54899D01*
X140507Y-54833D01*
X140478Y-54775D01*
X140449Y-54731D01*
X140427Y-54695D01*
X140405Y-54665D01*
X140391Y-54644D01*
X140384Y-54636D01*
X140376Y-54629D01*
X140318Y-54571D01*
X140252Y-54527D01*
X140114Y-54447D01*
X139975Y-54388D01*
X139837Y-54352D01*
X139720Y-54323D01*
X139669Y-54316D01*
X139625D01*
X139589Y-54308D01*
D02*
G37*
G36*
X143613Y-58194D02*
X138568D01*
Y-59171D01*
X143613Y-60228D01*
D01*
Y-59251D01*
X138568Y-58194D01*
X143613D01*
D01*
D02*
G37*
%LPD*%
G36*
X139698Y-47397D02*
X139764Y-47412D01*
X139822Y-47441D01*
X139873Y-47470D01*
X139910Y-47499D01*
X139939Y-47529D01*
X139953Y-47543D01*
X139961Y-47550D01*
X139990Y-47601D01*
X140019Y-47660D01*
X140048Y-47725D01*
X140077Y-47798D01*
X140121Y-47959D01*
X140158Y-48119D01*
X140187Y-48272D01*
X140201Y-48338D01*
X140209Y-48403D01*
X140216Y-48447D01*
Y-48491D01*
X140223Y-48513D01*
Y-48520D01*
X140238Y-48622D01*
X140260Y-48695D01*
X140267Y-48724D01*
Y-48746D01*
X140274Y-48753D01*
Y-48761D01*
X140136Y-48731D01*
X140012Y-48702D01*
X139902Y-48673D01*
X139808Y-48644D01*
X139735Y-48615D01*
X139676Y-48593D01*
X139640Y-48571D01*
X139611Y-48564D01*
X139603Y-48556D01*
X139538Y-48520D01*
X139487Y-48469D01*
X139436Y-48418D01*
X139399Y-48374D01*
X139363Y-48331D01*
X139341Y-48294D01*
X139327Y-48265D01*
X139319Y-48257D01*
X139283Y-48185D01*
X139261Y-48112D01*
X139239Y-48039D01*
X139232Y-47973D01*
X139225Y-47922D01*
X139217Y-47879D01*
Y-47842D01*
X139225Y-47769D01*
X139239Y-47703D01*
X139254Y-47645D01*
X139276Y-47601D01*
X139297Y-47565D01*
X139319Y-47536D01*
X139327Y-47521D01*
X139334Y-47514D01*
X139377Y-47470D01*
X139429Y-47441D01*
X139480Y-47419D01*
X139523Y-47405D01*
X139567Y-47397D01*
X139596Y-47390D01*
X139618D01*
X139625D01*
X139698Y-47397D01*
D02*
G37*
G36*
Y-55241D02*
X139764Y-55256D01*
X139822Y-55285D01*
X139873Y-55314D01*
X139910Y-55343D01*
X139939Y-55373D01*
X139953Y-55387D01*
X139961Y-55395D01*
X139990Y-55445D01*
X140019Y-55504D01*
X140048Y-55569D01*
X140077Y-55642D01*
X140121Y-55803D01*
X140158Y-55963D01*
X140187Y-56116D01*
X140201Y-56182D01*
X140209Y-56247D01*
X140216Y-56291D01*
Y-56335D01*
X140223Y-56357D01*
Y-56364D01*
X140238Y-56466D01*
X140260Y-56539D01*
X140267Y-56568D01*
Y-56590D01*
X140274Y-56597D01*
Y-56605D01*
X140136Y-56575D01*
X140012Y-56546D01*
X139902Y-56517D01*
X139808Y-56488D01*
X139735Y-56459D01*
X139676Y-56437D01*
X139640Y-56415D01*
X139611Y-56408D01*
X139603Y-56401D01*
X139538Y-56364D01*
X139487Y-56313D01*
X139436Y-56262D01*
X139399Y-56218D01*
X139363Y-56174D01*
X139341Y-56138D01*
X139327Y-56109D01*
X139319Y-56102D01*
X139283Y-56029D01*
X139261Y-55956D01*
X139239Y-55883D01*
X139232Y-55817D01*
X139225Y-55766D01*
X139217Y-55722D01*
Y-55686D01*
X139225Y-55613D01*
X139239Y-55548D01*
X139254Y-55489D01*
X139276Y-55445D01*
X139297Y-55409D01*
X139319Y-55380D01*
X139327Y-55365D01*
X139334Y-55358D01*
X139377Y-55314D01*
X139429Y-55285D01*
X139480Y-55263D01*
X139523Y-55249D01*
X139567Y-55241D01*
X139596Y-55234D01*
X139618D01*
X139625D01*
X139698Y-55241D01*
D02*
G37*
%LPC*%
G36*
X146551Y-16412D02*
X146005D01*
Y-18709D01*
X144131D01*
X143475Y-21245D01*
X144022D01*
X144554Y-19248D01*
X145997D01*
X145458Y-21245D01*
X146012D01*
X146544Y-19248D01*
X147980D01*
X147448Y-21245D01*
X147995D01*
X148651Y-18709D01*
X146551D01*
Y-16412D01*
D02*
G37*
G36*
X103478Y-7153D02*
X96445D01*
X101529D01*
X101665Y-7435D01*
X101802Y-7681D01*
X101866Y-7791D01*
X101929Y-7891D01*
X101993Y-7982D01*
X102048Y-8064D01*
X102102Y-8137D01*
X102157Y-8201D01*
X102193Y-8255D01*
X102230Y-8301D01*
X102266Y-8337D01*
X102285Y-8365D01*
X102294Y-8374D01*
X102303Y-8383D01*
X96445D01*
D01*
Y-10023D01*
Y-8793D01*
X102303D01*
X102203Y-8929D01*
X102111Y-9048D01*
X102039Y-9139D01*
X101984Y-9221D01*
X101938Y-9285D01*
X101911Y-9330D01*
X101893Y-9358D01*
X101884Y-9367D01*
X101838Y-9449D01*
X101775Y-9549D01*
X101720Y-9658D01*
X101665Y-9759D01*
X101611Y-9859D01*
X101565Y-9950D01*
X101538Y-10004D01*
X101529Y-10013D01*
Y-10023D01*
X101829D01*
X102021Y-9813D01*
X102193Y-9640D01*
X102348Y-9485D01*
X102485Y-9358D01*
X102594Y-9267D01*
X102667Y-9194D01*
X102722Y-9157D01*
X102740Y-9139D01*
X102886Y-9030D01*
X103023Y-8939D01*
X103141Y-8866D01*
X103259Y-8802D01*
X103350Y-8756D01*
X103414Y-8720D01*
X103460Y-8702D01*
X103478Y-8693D01*
Y-8383D01*
Y-8510D01*
X103332Y-8438D01*
X103187Y-8355D01*
X103059Y-8274D01*
X102941Y-8201D01*
X102840Y-8128D01*
X102768Y-8073D01*
X102722Y-8037D01*
X102704Y-8028D01*
X102558Y-7900D01*
X102412Y-7763D01*
X102266Y-7618D01*
X102121Y-7481D01*
X102002Y-7353D01*
X101902Y-7244D01*
X101866Y-7208D01*
X101838Y-7180D01*
X101829Y-7162D01*
X101820Y-7153D01*
X103478D01*
D01*
D02*
G37*
G36*
Y-13621D02*
X96445D01*
X101529D01*
X101665Y-13904D01*
X101802Y-14150D01*
X101866Y-14259D01*
X101929Y-14359D01*
X101993Y-14450D01*
X102048Y-14532D01*
X102102Y-14605D01*
X102157Y-14669D01*
X102193Y-14723D01*
X102230Y-14769D01*
X102266Y-14805D01*
X102285Y-14833D01*
X102294Y-14842D01*
X102303Y-14851D01*
X96445D01*
Y-15261D01*
X102303D01*
X102203Y-15398D01*
X102111Y-15516D01*
X102039Y-15607D01*
X101984Y-15689D01*
X101938Y-15753D01*
X101911Y-15798D01*
X101893Y-15826D01*
X101884Y-15835D01*
X101838Y-15917D01*
X101775Y-16017D01*
X101720Y-16126D01*
X101665Y-16227D01*
X101611Y-16327D01*
X101565Y-16418D01*
X101538Y-16473D01*
X101529Y-16482D01*
Y-16491D01*
X101829D01*
X102021Y-16281D01*
X102193Y-16108D01*
X102348Y-15953D01*
X102485Y-15826D01*
X102594Y-15735D01*
X102667Y-15662D01*
X102722Y-15625D01*
X102740Y-15607D01*
X102886Y-15498D01*
X103023Y-15407D01*
X103141Y-15334D01*
X103259Y-15270D01*
X103350Y-15225D01*
X103414Y-15188D01*
X103460Y-15170D01*
X103478Y-15161D01*
Y-16491D01*
D01*
Y-13621D01*
D02*
G37*
G36*
X101775Y-17356D02*
X95844D01*
D01*
X98823D01*
X98513Y-17374D01*
X98222Y-17411D01*
X97966Y-17466D01*
X97857Y-17493D01*
X97748Y-17529D01*
X97657Y-17566D01*
X97575Y-17593D01*
X97502Y-17620D01*
X97438Y-17648D01*
X97393Y-17666D01*
X97356Y-17684D01*
X97338Y-17702D01*
X97329D01*
X97101Y-17839D01*
X96901Y-17985D01*
X96728Y-18140D01*
X96582Y-18285D01*
X96473Y-18422D01*
X96381Y-18522D01*
X96354Y-18568D01*
X96336Y-18595D01*
X96318Y-18613D01*
Y-18622D01*
X96208Y-18805D01*
X96126Y-18987D01*
X96053Y-19160D01*
X96008Y-19315D01*
X95971Y-19452D01*
X95953Y-19506D01*
X95944Y-19561D01*
X95935Y-19597D01*
X95926Y-19625D01*
Y-19652D01*
X95898Y-19861D01*
X95880Y-20062D01*
X95862Y-20262D01*
X95853Y-20435D01*
X95844Y-20590D01*
Y-22658D01*
X101775D01*
Y-17356D01*
D02*
G37*
G36*
Y-23861D02*
X95844D01*
Y-25218D01*
X99242D01*
X95844Y-27122D01*
Y-28944D01*
X101775D01*
Y-23861D01*
D02*
G37*
G36*
X101902Y-30065D02*
X95735D01*
D01*
X98522D01*
Y-32661D01*
X99643D01*
Y-31504D01*
X100809D01*
X100818Y-31568D01*
Y-31887D01*
X100809Y-32051D01*
X100800Y-32206D01*
X100772Y-32351D01*
X100745Y-32488D01*
X100699Y-32615D01*
X100663Y-32734D01*
X100618Y-32843D01*
X100572Y-32934D01*
X100526Y-33016D01*
X100481Y-33098D01*
X100435Y-33162D01*
X100399Y-33217D01*
X100372Y-33253D01*
X100344Y-33281D01*
X100335Y-33299D01*
X100326Y-33308D01*
X100226Y-33399D01*
X100117Y-33481D01*
X99998Y-33545D01*
X99880Y-33608D01*
X99752Y-33654D01*
X99625Y-33700D01*
X99379Y-33763D01*
X99260Y-33781D01*
X99151Y-33800D01*
X99051Y-33809D01*
X98969Y-33818D01*
X98896Y-33827D01*
X98841D01*
X98805D01*
X98795D01*
X98622Y-33818D01*
X98458Y-33809D01*
X98313Y-33781D01*
X98194Y-33754D01*
X98085Y-33736D01*
X98012Y-33709D01*
X97966Y-33700D01*
X97948Y-33690D01*
X97812Y-33636D01*
X97693Y-33572D01*
X97593Y-33517D01*
X97502Y-33454D01*
X97429Y-33408D01*
X97383Y-33362D01*
X97347Y-33335D01*
X97338Y-33326D01*
X97247Y-33235D01*
X97174Y-33135D01*
X97110Y-33044D01*
X97065Y-32952D01*
X97028Y-32880D01*
X96992Y-32825D01*
X96983Y-32779D01*
X96974Y-32770D01*
X96928Y-32652D01*
X96901Y-32524D01*
X96873Y-32406D01*
X96864Y-32297D01*
X96855Y-32206D01*
X96846Y-32133D01*
Y-31950D01*
X96864Y-31832D01*
X96873Y-31732D01*
X96891Y-31632D01*
X96910Y-31559D01*
X96919Y-31504D01*
X96937Y-31459D01*
Y-31449D01*
X96974Y-31340D01*
X97010Y-31249D01*
X97046Y-31158D01*
X97083Y-31076D01*
X97110Y-31021D01*
X97137Y-30966D01*
X97147Y-30939D01*
X97156Y-30930D01*
X97247Y-30784D01*
X97329Y-30666D01*
X97365Y-30611D01*
X97393Y-30575D01*
X97411Y-30547D01*
X97420Y-30538D01*
X97520Y-30402D01*
X97557Y-30356D01*
X97584Y-30311D01*
X97611Y-30274D01*
X97629Y-30247D01*
X97648Y-30238D01*
Y-30092D01*
X96263D01*
X96172Y-30274D01*
X96099Y-30456D01*
X96035Y-30620D01*
X95981Y-30766D01*
X95935Y-30885D01*
X95908Y-30976D01*
X95898Y-31012D01*
X95889Y-31039D01*
X95880Y-31049D01*
Y-31058D01*
X95835Y-31240D01*
X95798Y-31440D01*
X95771Y-31641D01*
X95753Y-31841D01*
X95744Y-32005D01*
X95735Y-32078D01*
Y-32269D01*
X95744Y-32533D01*
X95771Y-32779D01*
X95816Y-33016D01*
X95862Y-33235D01*
X95935Y-33435D01*
X95999Y-33617D01*
X96081Y-33791D01*
X96154Y-33946D01*
X96236Y-34082D01*
X96318Y-34201D01*
X96381Y-34301D01*
X96445Y-34383D01*
X96500Y-34456D01*
X96545Y-34501D01*
X96573Y-34529D01*
X96582Y-34538D01*
X96746Y-34683D01*
X96919Y-34811D01*
X97101Y-34920D01*
X97283Y-35021D01*
X97475Y-35093D01*
X97657Y-35166D01*
X97839Y-35221D01*
X98012Y-35267D01*
X98176Y-35294D01*
X98331Y-35321D01*
X98468Y-35339D01*
X98586Y-35358D01*
X98677D01*
X98750Y-35367D01*
X98814D01*
X99078Y-35358D01*
X99333Y-35330D01*
X99570Y-35294D01*
X99798Y-35239D01*
X99998Y-35175D01*
X100189Y-35102D01*
X100353Y-35030D01*
X100508Y-34948D01*
X100645Y-34875D01*
X100763Y-34802D01*
X100864Y-34729D01*
X100955Y-34665D01*
X101018Y-34611D01*
X101064Y-34574D01*
X101091Y-34547D01*
X101100Y-34538D01*
X101237Y-34374D01*
X101365Y-34201D01*
X101474Y-34027D01*
X101565Y-33836D01*
X101638Y-33654D01*
X101702Y-33472D01*
X101756Y-33290D01*
X101802Y-33116D01*
X101838Y-32952D01*
X101857Y-32798D01*
X101875Y-32661D01*
X101893Y-32543D01*
Y-32452D01*
X101902Y-32379D01*
Y-35367D01*
D01*
Y-30065D01*
D02*
G37*
%LPD*%
G36*
X103478Y-14978D02*
X103332Y-14906D01*
X103187Y-14824D01*
X103059Y-14742D01*
X102941Y-14669D01*
X102840Y-14596D01*
X102768Y-14541D01*
X102722Y-14505D01*
X102704Y-14496D01*
X102558Y-14368D01*
X102412Y-14232D01*
X102266Y-14086D01*
X102121Y-13949D01*
X102002Y-13822D01*
X101902Y-13712D01*
X101866Y-13676D01*
X101838Y-13648D01*
X101829Y-13630D01*
X101820Y-13621D01*
X103478D01*
Y-14978D01*
D02*
G37*
G36*
X101775Y-20581D02*
X101765Y-20362D01*
X101747Y-20171D01*
X101729Y-19998D01*
X101720Y-19852D01*
X101711Y-19798D01*
X101702Y-19743D01*
Y-19707D01*
X101692Y-19679D01*
Y-19652D01*
X101656Y-19452D01*
X101601Y-19260D01*
X101538Y-19087D01*
X101474Y-18941D01*
X101410Y-18814D01*
X101355Y-18723D01*
X101337Y-18686D01*
X101319Y-18659D01*
X101310Y-18650D01*
Y-18641D01*
X101164Y-18440D01*
X101000Y-18258D01*
X100836Y-18103D01*
X100672Y-17976D01*
X100526Y-17866D01*
X100472Y-17821D01*
X100417Y-17784D01*
X100372Y-17757D01*
X100335Y-17739D01*
X100317Y-17721D01*
X100308D01*
X100053Y-17602D01*
X99798Y-17511D01*
X99552Y-17447D01*
X99315Y-17402D01*
X99215Y-17383D01*
X99124Y-17374D01*
X99032Y-17365D01*
X98959D01*
X98905Y-17356D01*
X101775D01*
Y-20581D01*
D02*
G37*
G36*
X99014Y-18905D02*
X99205Y-18923D01*
X99379Y-18960D01*
X99515Y-18987D01*
X99634Y-19023D01*
X99725Y-19060D01*
X99779Y-19078D01*
X99788Y-19087D01*
X99798D01*
X99943Y-19169D01*
X100062Y-19260D01*
X100171Y-19351D01*
X100262Y-19442D01*
X100335Y-19524D01*
X100381Y-19588D01*
X100417Y-19634D01*
X100426Y-19652D01*
X100490Y-19770D01*
X100545Y-19889D01*
X100581Y-19998D01*
X100608Y-20098D01*
X100627Y-20180D01*
X100636Y-20244D01*
X100645Y-20290D01*
Y-20445D01*
X100654Y-20581D01*
Y-21173D01*
X96946D01*
Y-20827D01*
X96955Y-20700D01*
Y-20490D01*
X96964Y-20417D01*
Y-20362D01*
X96974Y-20235D01*
X97001Y-20117D01*
X97028Y-20016D01*
X97065Y-19916D01*
X97092Y-19834D01*
X97119Y-19780D01*
X97137Y-19734D01*
X97147Y-19725D01*
X97247Y-19579D01*
X97347Y-19452D01*
X97456Y-19342D01*
X97566Y-19260D01*
X97657Y-19187D01*
X97730Y-19142D01*
X97784Y-19114D01*
X97793Y-19105D01*
X97803D01*
X97966Y-19032D01*
X98131Y-18987D01*
X98304Y-18950D01*
X98458Y-18923D01*
X98595Y-18905D01*
X98659D01*
X98704Y-18896D01*
X98750D01*
X98777D01*
X98795D01*
X98805D01*
X99014Y-18905D01*
D02*
G37*
G36*
X101775Y-27587D02*
X97648D01*
X101775Y-25291D01*
Y-27587D01*
D02*
G37*
G36*
X101902Y-32315D02*
X101893Y-32087D01*
X101875Y-31868D01*
X101857Y-31659D01*
X101829Y-31468D01*
X101802Y-31313D01*
X101793Y-31249D01*
X101775Y-31194D01*
X101765Y-31149D01*
Y-31112D01*
X101756Y-31094D01*
Y-31085D01*
X101702Y-30857D01*
X101638Y-30657D01*
X101592Y-30484D01*
X101547Y-30338D01*
X101501Y-30220D01*
X101474Y-30138D01*
X101456Y-30083D01*
X101446Y-30065D01*
X101902D01*
Y-32315D01*
D02*
G37*
%LPC*%
G36*
X131015Y69952D02*
D01*
X127938Y68560D01*
X125970Y68968D01*
Y67940D01*
X127836Y67546D01*
X131015Y65228D01*
Y69952D01*
D02*
G37*
G36*
X127647Y65651D02*
X127610D01*
X127581D01*
X127574D01*
X127435Y65644D01*
X127304Y65629D01*
X127173Y65607D01*
X127056Y65578D01*
X126947Y65542D01*
X126845Y65505D01*
X126757Y65461D01*
X126670Y65418D01*
X126597Y65381D01*
X126531Y65338D01*
X126473Y65301D01*
X126429Y65265D01*
X126393Y65236D01*
X126364Y65214D01*
X126349Y65199D01*
X126342Y65192D01*
X126261Y65104D01*
X126189Y65009D01*
X126123Y64907D01*
X126072Y64813D01*
X126028Y64711D01*
X125992Y64609D01*
X125934Y64419D01*
X125912Y64332D01*
X125897Y64251D01*
X125890Y64179D01*
X125882Y64113D01*
X125875Y64062D01*
Y63989D01*
X125890Y63792D01*
X125919Y63617D01*
X125955Y63450D01*
X126006Y63311D01*
X126057Y63187D01*
X126079Y63143D01*
X126094Y63099D01*
X126116Y63070D01*
X126123Y63048D01*
X126138Y63034D01*
Y63027D01*
X126247Y62874D01*
X126378Y62735D01*
X126509Y62611D01*
X126641Y62509D01*
X126765Y62436D01*
X126816Y62400D01*
X126859Y62378D01*
X126896Y62356D01*
X126925Y62341D01*
X126939Y62327D01*
X126947D01*
X127093Y63209D01*
X127005Y63260D01*
X126925Y63318D01*
X126859Y63384D01*
X126801Y63450D01*
X126750Y63508D01*
X126706Y63573D01*
X126670Y63639D01*
X126648Y63697D01*
X126611Y63807D01*
X126597Y63858D01*
X126590Y63901D01*
X126582Y63931D01*
Y63982D01*
X126590Y64091D01*
X126619Y64193D01*
X126655Y64280D01*
X126692Y64353D01*
X126735Y64419D01*
X126765Y64463D01*
X126794Y64492D01*
X126801Y64499D01*
X126889Y64565D01*
X126990Y64616D01*
X127085Y64652D01*
X127180Y64674D01*
X127268Y64689D01*
X127333Y64703D01*
X127377D01*
X127384D01*
X127392D01*
X127421D01*
X127450Y64696D01*
X127479D01*
X127486D01*
Y62217D01*
X127705Y62174D01*
X127814Y62159D01*
X127916Y62152D01*
X127997Y62145D01*
X128128D01*
X129710D01*
X128128D01*
X128266Y62152D01*
X128390Y62159D01*
X128514Y62181D01*
X128623Y62210D01*
X128733Y62239D01*
X128828Y62269D01*
X128915Y62305D01*
X128995Y62341D01*
X129061Y62385D01*
X129127Y62422D01*
X129177Y62451D01*
X129221Y62480D01*
X129250Y62509D01*
X129272Y62531D01*
X129287Y62538D01*
X129294Y62546D01*
X129367Y62626D01*
X129433Y62706D01*
X129484Y62793D01*
X129535Y62881D01*
X129578Y62968D01*
X129608Y63056D01*
X129659Y63231D01*
X129673Y63311D01*
X129688Y63384D01*
X129695Y63450D01*
X129702Y63508D01*
X129710Y63551D01*
Y62145D01*
D01*
Y63617D01*
X129702Y63807D01*
X129673Y63989D01*
X129637Y64157D01*
X129586Y64310D01*
X129527Y64455D01*
X129462Y64587D01*
X129389Y64711D01*
X129316Y64820D01*
X129236Y64915D01*
X129170Y65002D01*
X129097Y65068D01*
X129039Y65134D01*
X128988Y65177D01*
X128952Y65206D01*
X128922Y65228D01*
X128915Y65236D01*
X128806Y65308D01*
X128689Y65374D01*
X128572Y65425D01*
X128456Y65476D01*
X128339Y65513D01*
X128230Y65549D01*
X128026Y65600D01*
X127931Y65615D01*
X127843Y65629D01*
X127763Y65636D01*
X127698Y65644D01*
X127647Y65651D01*
D02*
G37*
%LPD*%
G36*
X128128Y62145D02*
D01*
D01*
D01*
D02*
G37*
%LPC*%
G36*
X126983Y61984D02*
X126794Y61919D01*
X126633Y61831D01*
X126488Y61729D01*
X126371Y61634D01*
X126283Y61547D01*
X126210Y61474D01*
X126189Y61445D01*
X126174Y61423D01*
X126160Y61408D01*
Y61401D01*
X126108Y61313D01*
X126065Y61226D01*
X125992Y61029D01*
X125948Y60825D01*
X125912Y60628D01*
X125897Y60533D01*
X125890Y60453D01*
X125882Y60373D01*
Y60308D01*
X125875Y60249D01*
Y61984D01*
D01*
Y58244D01*
Y60176D01*
X125882Y60031D01*
X125890Y59892D01*
X125912Y59768D01*
X125934Y59651D01*
X125963Y59535D01*
X125992Y59440D01*
X126028Y59345D01*
X126065Y59265D01*
X126101Y59192D01*
X126138Y59127D01*
X126167Y59068D01*
X126196Y59024D01*
X126218Y58988D01*
X126240Y58966D01*
X126247Y58951D01*
X126254Y58944D01*
X126327Y58864D01*
X126407Y58798D01*
X126480Y58740D01*
X126560Y58689D01*
X126633Y58645D01*
X126714Y58609D01*
X126852Y58558D01*
X126976Y58521D01*
X127027Y58514D01*
X127071Y58507D01*
X127107Y58500D01*
X127136D01*
X127151D01*
X127158D01*
X127231Y58507D01*
X127304Y58514D01*
X127435Y58551D01*
X127552Y58609D01*
X127654Y58675D01*
X127734Y58740D01*
X127800Y58791D01*
X127836Y58835D01*
X127851Y58842D01*
Y58850D01*
X127887Y58900D01*
X127924Y58959D01*
X127960Y59032D01*
X127997Y59105D01*
X128069Y59265D01*
X128128Y59425D01*
X128179Y59579D01*
X128201Y59644D01*
X128223Y59702D01*
X128237Y59753D01*
X128252Y59790D01*
X128259Y59812D01*
Y59819D01*
X128281Y59907D01*
X128310Y59979D01*
X128332Y60045D01*
X128347Y60103D01*
X128368Y60162D01*
X128383Y60205D01*
X128412Y60278D01*
X128427Y60329D01*
X128441Y60359D01*
X128456Y60373D01*
Y60380D01*
X128492Y60424D01*
X128529Y60453D01*
X128565Y60482D01*
X128602Y60497D01*
X128631Y60504D01*
X128660Y60512D01*
X128674D01*
X128682D01*
X128733Y60504D01*
X128777Y60490D01*
X128849Y60446D01*
X128879Y60424D01*
X128901Y60402D01*
X128908Y60388D01*
X128915Y60380D01*
X128952Y60322D01*
X128981Y60249D01*
X128995Y60176D01*
X129010Y60103D01*
X129017Y60038D01*
X129024Y59979D01*
Y59928D01*
X129017Y59812D01*
X129003Y59710D01*
X128981Y59622D01*
X128959Y59542D01*
X128930Y59484D01*
X128908Y59433D01*
X128893Y59404D01*
X128886Y59396D01*
X128849Y59338D01*
X128798Y59287D01*
X128755Y59243D01*
X128704Y59214D01*
X128660Y59185D01*
X128623Y59170D01*
X128602Y59156D01*
X128594D01*
X128747Y58244D01*
D01*
X128908Y58295D01*
X129046Y58361D01*
X129163Y58434D01*
X129265Y58514D01*
X129345Y58587D01*
X129403Y58653D01*
X129433Y58696D01*
X129447Y58704D01*
Y58711D01*
X129491Y58784D01*
X129535Y58857D01*
X129600Y59024D01*
X129644Y59207D01*
X129681Y59374D01*
X129695Y59535D01*
X129702Y59600D01*
Y59659D01*
X129710Y59710D01*
Y59775D01*
X129702Y59936D01*
X129688Y60089D01*
X129666Y60227D01*
X129644Y60359D01*
X129608Y60482D01*
X129571Y60592D01*
X129527Y60687D01*
X129491Y60781D01*
X129447Y60861D01*
X129403Y60927D01*
X129367Y60985D01*
X129338Y61029D01*
X129309Y61066D01*
X129287Y61095D01*
X129272Y61109D01*
X129265Y61117D01*
X129207Y61175D01*
X129141Y61219D01*
X129017Y61299D01*
X128893Y61357D01*
X128777Y61394D01*
X128674Y61423D01*
X128594Y61430D01*
X128565Y61437D01*
X128543D01*
X128529D01*
X128521D01*
X128441Y61430D01*
X128368Y61423D01*
X128230Y61386D01*
X128106Y61335D01*
X128004Y61270D01*
X127924Y61211D01*
X127865Y61160D01*
X127829Y61124D01*
X127814Y61109D01*
X127785Y61058D01*
X127749Y61000D01*
X127712Y60927D01*
X127668Y60840D01*
X127596Y60657D01*
X127515Y60468D01*
X127450Y60286D01*
X127421Y60205D01*
X127399Y60140D01*
X127377Y60081D01*
X127362Y60031D01*
X127348Y60001D01*
Y59994D01*
X127311Y59877D01*
X127275Y59790D01*
X127238Y59717D01*
X127209Y59659D01*
X127187Y59622D01*
X127173Y59593D01*
X127165Y59586D01*
X127158Y59579D01*
X127100Y59535D01*
X127042Y59513D01*
X126998Y59506D01*
X126990D01*
X126983D01*
X126925Y59513D01*
X126881Y59527D01*
X126801Y59579D01*
X126772Y59608D01*
X126750Y59629D01*
X126735Y59644D01*
X126728Y59651D01*
X126677Y59732D01*
X126641Y59819D01*
X126619Y59914D01*
X126604Y60001D01*
X126590Y60081D01*
X126582Y60140D01*
Y60198D01*
X126590Y60315D01*
X126604Y60417D01*
X126619Y60504D01*
X126648Y60577D01*
X126670Y60636D01*
X126684Y60679D01*
X126699Y60708D01*
X126706Y60716D01*
X126757Y60781D01*
X126823Y60847D01*
X126896Y60898D01*
X126969Y60942D01*
X127034Y60978D01*
X127085Y61007D01*
X127122Y61022D01*
X127136Y61029D01*
X126983Y61984D01*
D02*
G37*
G36*
X131015Y55941D02*
D01*
Y54884D01*
X125970Y55941D01*
Y54986D01*
X129360Y54271D01*
X125970Y52901D01*
Y51946D01*
X131015Y50889D01*
X125970D01*
X131015D01*
Y55941D01*
D02*
G37*
G36*
X129710Y50736D02*
X127479D01*
X127319Y50728D01*
X127165Y50706D01*
X127027Y50677D01*
X126910Y50641D01*
X126808Y50604D01*
X126728Y50575D01*
X126699Y50561D01*
X126677Y50554D01*
X126670Y50546D01*
X126663D01*
X126531Y50466D01*
X126415Y50371D01*
X126313Y50269D01*
X126232Y50174D01*
X126167Y50087D01*
X126116Y50014D01*
X126101Y49985D01*
X126087Y49963D01*
X126079Y49956D01*
Y49948D01*
X126014Y49795D01*
X125963Y49635D01*
X125926Y49482D01*
X125904Y49336D01*
X125890Y49212D01*
X125882Y49161D01*
X125875Y49117D01*
Y49030D01*
X125882Y48855D01*
X125904Y48687D01*
X125934Y48534D01*
X125977Y48388D01*
X126021Y48250D01*
X126079Y48126D01*
X126138Y48017D01*
X126196Y47907D01*
X126254Y47820D01*
X126313Y47739D01*
X126371Y47667D01*
X126415Y47608D01*
X126458Y47565D01*
X126488Y47535D01*
X126509Y47513D01*
X126517Y47506D01*
X126641Y47404D01*
X126772Y47317D01*
X126903Y47244D01*
X127034Y47178D01*
X127158Y47120D01*
X127289Y47076D01*
X127413Y47040D01*
X127530Y47010D01*
X127639Y46989D01*
X127741Y46967D01*
X127829Y46952D01*
X127909Y46945D01*
X127967Y46938D01*
X128055D01*
X128193Y46945D01*
X128325Y46959D01*
X128448Y46981D01*
X128565Y47010D01*
X128667Y47047D01*
X128769Y47083D01*
X128857Y47127D01*
X128944Y47164D01*
X129017Y47207D01*
X129076Y47251D01*
X129134Y47287D01*
X129177Y47324D01*
X129214Y47353D01*
X129236Y47375D01*
X129250Y47390D01*
X129258Y47397D01*
X129338Y47484D01*
X129403Y47579D01*
X129469Y47681D01*
X129520Y47783D01*
X129564Y47893D01*
X129600Y47995D01*
X129651Y48199D01*
X129673Y48294D01*
X129688Y48381D01*
X129695Y48454D01*
X129702Y48527D01*
X129710Y48578D01*
Y48658D01*
X129702Y48826D01*
X129681Y48993D01*
X129651Y49147D01*
X129615Y49285D01*
X129571Y49424D01*
X129513Y49547D01*
X129462Y49657D01*
X129403Y49759D01*
X129345Y49854D01*
X129294Y49934D01*
X129243Y50007D01*
X129192Y50065D01*
X129156Y50109D01*
X129127Y50138D01*
X129105Y50160D01*
X129097Y50167D01*
X128981Y50269D01*
X128857Y50357D01*
X128726Y50429D01*
X128587Y50495D01*
X128456Y50554D01*
X128317Y50597D01*
X128186Y50634D01*
X128062Y50663D01*
X127945Y50685D01*
X127829Y50706D01*
X127734Y50721D01*
X127647Y50728D01*
X127574D01*
X127523Y50736D01*
X129710D01*
D02*
G37*
G36*
X131015Y44051D02*
D01*
Y43883D01*
X130169Y44051D01*
Y42578D01*
X125970Y43453D01*
Y42418D01*
X130169Y41543D01*
Y40070D01*
X131015Y39903D01*
Y44051D01*
D02*
G37*
G36*
X127523Y40158D02*
X127494D01*
X127479D01*
X127319Y40151D01*
X127165Y40129D01*
X127027Y40100D01*
X126910Y40063D01*
X126808Y40027D01*
X126728Y39998D01*
X126699Y39983D01*
X126677Y39976D01*
X126670Y39968D01*
X126663D01*
X126531Y39888D01*
X126415Y39793D01*
X126313Y39691D01*
X126232Y39597D01*
X126167Y39509D01*
X126116Y39436D01*
X126101Y39407D01*
X126087Y39385D01*
X126079Y39378D01*
Y39371D01*
X126014Y39217D01*
X125963Y39057D01*
X125926Y38904D01*
X125904Y38758D01*
X125890Y38634D01*
X125882Y38583D01*
X125875Y38539D01*
Y38452D01*
X125882Y38277D01*
X125904Y38109D01*
X125934Y37956D01*
X125977Y37811D01*
X126021Y37672D01*
X126079Y37548D01*
X126138Y37439D01*
X126196Y37329D01*
X126254Y37242D01*
X126313Y37162D01*
X126371Y37089D01*
X126415Y37031D01*
X126458Y36987D01*
X126488Y36958D01*
X126509Y36936D01*
X126517Y36928D01*
X126641Y36826D01*
X126772Y36739D01*
X126903Y36666D01*
X127034Y36600D01*
X127158Y36542D01*
X127289Y36498D01*
X127413Y36462D01*
X127530Y36433D01*
X127639Y36411D01*
X127741Y36389D01*
X127829Y36374D01*
X127909Y36367D01*
X127967Y36360D01*
X128055D01*
X128193Y36367D01*
X128325Y36382D01*
X128448Y36404D01*
X128565Y36433D01*
X128667Y36469D01*
X128769Y36506D01*
X128857Y36549D01*
X128944Y36586D01*
X129017Y36630D01*
X129076Y36673D01*
X129134Y36710D01*
X129177Y36746D01*
X129214Y36775D01*
X129236Y36797D01*
X129250Y36812D01*
X129258Y36819D01*
X129338Y36907D01*
X129403Y37001D01*
X129469Y37103D01*
X129520Y37205D01*
X129564Y37315D01*
X129600Y37417D01*
X129651Y37621D01*
X129673Y37716D01*
X129688Y37803D01*
X129695Y37876D01*
X129702Y37949D01*
X129710Y38000D01*
Y36360D01*
D01*
Y38080D01*
X129702Y38248D01*
X129681Y38416D01*
X129651Y38569D01*
X129615Y38707D01*
X129571Y38846D01*
X129513Y38970D01*
X129462Y39079D01*
X129403Y39181D01*
X129345Y39276D01*
X129294Y39356D01*
X129243Y39429D01*
X129192Y39487D01*
X129156Y39531D01*
X129127Y39560D01*
X129105Y39582D01*
X129097Y39589D01*
X128981Y39691D01*
X128857Y39779D01*
X128726Y39852D01*
X128587Y39917D01*
X128456Y39976D01*
X128317Y40019D01*
X128186Y40056D01*
X128062Y40085D01*
X127945Y40107D01*
X127829Y40129D01*
X127734Y40143D01*
X127647Y40151D01*
X127574D01*
X127523Y40158D01*
D02*
G37*
G36*
X129710Y35966D02*
X125875D01*
X126939D01*
X126772Y35952D01*
X126619Y35922D01*
X126488Y35871D01*
X126378Y35820D01*
X126283Y35769D01*
X126218Y35718D01*
X126181Y35689D01*
X126167Y35675D01*
X126072Y35558D01*
X125999Y35434D01*
X125948Y35303D01*
X125912Y35186D01*
X125890Y35084D01*
X125882Y34997D01*
X125875Y34967D01*
Y34924D01*
X125882Y34814D01*
X125897Y34712D01*
X125919Y34617D01*
X125941Y34530D01*
X125963Y34457D01*
X125985Y34406D01*
X125999Y34370D01*
X126006Y34355D01*
X126057Y34253D01*
X126123Y34158D01*
X126181Y34071D01*
X126240Y33998D01*
X126298Y33940D01*
X126342Y33889D01*
X126371Y33859D01*
X126378Y33852D01*
X126225Y33838D01*
X126160Y33823D01*
X126094Y33816D01*
X126043Y33801D01*
X126006Y33786D01*
X125977Y33779D01*
X125970D01*
Y32824D01*
X126072Y32853D01*
X126174Y32868D01*
X126261Y32882D01*
X126334Y32897D01*
X126400D01*
X126444Y32904D01*
X126480D01*
X126488D01*
X126539D01*
X126604Y32897D01*
X126743Y32882D01*
X126889Y32861D01*
X127042Y32831D01*
X127180Y32810D01*
X127238Y32795D01*
X127297Y32788D01*
X127340Y32780D01*
X127370Y32773D01*
X127392Y32766D01*
X127399D01*
X127537Y32737D01*
X127668Y32708D01*
X127785Y32678D01*
X127887Y32656D01*
X127975Y32642D01*
X128055Y32627D01*
X128128Y32613D01*
X128186Y32598D01*
X128237Y32591D01*
X128274Y32576D01*
X128310D01*
X128332Y32569D01*
X128368Y32562D01*
X128376D01*
X128514Y32540D01*
X128572Y32533D01*
X128623D01*
X128667Y32525D01*
X128806D01*
X128879Y32540D01*
X129010Y32576D01*
X129127Y32635D01*
X129229Y32693D01*
X129316Y32759D01*
X129374Y32817D01*
X129411Y32853D01*
X129425Y32861D01*
Y32868D01*
X129476Y32934D01*
X129520Y33006D01*
X129593Y33174D01*
X129644Y33342D01*
X129673Y33517D01*
X129695Y33670D01*
X129702Y33735D01*
Y33794D01*
X129710Y33845D01*
Y33983D01*
Y33910D01*
X129695Y34151D01*
X129666Y34370D01*
X129644Y34464D01*
X129622Y34552D01*
X129600Y34639D01*
X129571Y34712D01*
X129542Y34778D01*
X129520Y34836D01*
X129498Y34887D01*
X129476Y34931D01*
X129462Y34960D01*
X129447Y34982D01*
X129433Y34997D01*
Y35004D01*
X129323Y35142D01*
X129199Y35266D01*
X129068Y35361D01*
X128952Y35441D01*
X128842Y35500D01*
X128755Y35543D01*
X128718Y35558D01*
X128696Y35565D01*
X128682Y35572D01*
X128674D01*
X128594Y34610D01*
X128660Y34588D01*
X128718Y34559D01*
X128769Y34523D01*
X128813Y34486D01*
X128849Y34457D01*
X128871Y34428D01*
X128886Y34413D01*
X128893Y34406D01*
X128930Y34341D01*
X128959Y34275D01*
X128973Y34202D01*
X128988Y34136D01*
X128995Y34078D01*
X129003Y34027D01*
Y33983D01*
X128995Y33896D01*
X128988Y33816D01*
X128966Y33757D01*
X128952Y33699D01*
X128930Y33655D01*
X128908Y33626D01*
X128901Y33612D01*
X128893Y33604D01*
X128849Y33560D01*
X128806Y33531D01*
X128762Y33502D01*
X128718Y33488D01*
X128682Y33480D01*
X128660Y33473D01*
X128638D01*
X128631D01*
X128580D01*
X128529Y33480D01*
X128419Y33502D01*
X128376Y33517D01*
X128339Y33531D01*
X128310Y33539D01*
X128303D01*
X128288Y33590D01*
X128274Y33648D01*
X128259Y33714D01*
X128244Y33786D01*
X128215Y33940D01*
X128201Y34100D01*
X128179Y34246D01*
X128172Y34311D01*
X128164Y34362D01*
Y34413D01*
X128157Y34450D01*
Y34479D01*
X128142Y34632D01*
X128121Y34771D01*
X128099Y34894D01*
X128069Y35011D01*
X128040Y35120D01*
X128011Y35215D01*
X127975Y35303D01*
X127945Y35376D01*
X127909Y35441D01*
X127880Y35500D01*
X127851Y35543D01*
X127829Y35580D01*
X127807Y35609D01*
X127792Y35631D01*
X127785Y35638D01*
X127778Y35645D01*
X127719Y35704D01*
X127654Y35748D01*
X127515Y35828D01*
X127377Y35886D01*
X127238Y35922D01*
X127122Y35952D01*
X127071Y35959D01*
X127027D01*
X126990Y35966D01*
X129710D01*
D02*
G37*
G36*
X126983Y32204D02*
X126794Y32139D01*
X126633Y32051D01*
X126488Y31949D01*
X126371Y31855D01*
X126283Y31767D01*
X126210Y31694D01*
X126189Y31665D01*
X126174Y31643D01*
X126160Y31629D01*
Y31621D01*
X126108Y31534D01*
X126065Y31446D01*
X125992Y31249D01*
X125948Y31045D01*
X125912Y30849D01*
X125897Y30754D01*
X125890Y30674D01*
X125882Y30593D01*
Y30528D01*
X125875Y30470D01*
Y32204D01*
D01*
Y28465D01*
D01*
Y30397D01*
X125882Y30251D01*
X125890Y30112D01*
X125912Y29988D01*
X125934Y29872D01*
X125963Y29755D01*
X125992Y29660D01*
X126028Y29566D01*
X126065Y29485D01*
X126101Y29412D01*
X126138Y29347D01*
X126167Y29289D01*
X126196Y29245D01*
X126218Y29208D01*
X126240Y29186D01*
X126247Y29172D01*
X126254Y29165D01*
X126327Y29084D01*
X126407Y29019D01*
X126480Y28960D01*
X126560Y28909D01*
X126633Y28866D01*
X126714Y28829D01*
X126852Y28778D01*
X126976Y28742D01*
X127027Y28734D01*
X127071Y28727D01*
X127107Y28720D01*
X127136D01*
X127151D01*
X127158D01*
X127231Y28727D01*
X127304Y28734D01*
X127435Y28771D01*
X127552Y28829D01*
X127654Y28895D01*
X127734Y28960D01*
X127800Y29011D01*
X127836Y29055D01*
X127851Y29063D01*
Y29070D01*
X127887Y29121D01*
X127924Y29179D01*
X127960Y29252D01*
X127997Y29325D01*
X128069Y29485D01*
X128128Y29646D01*
X128179Y29799D01*
X128201Y29864D01*
X128223Y29923D01*
X128237Y29974D01*
X128252Y30010D01*
X128259Y30032D01*
Y30039D01*
X128281Y30127D01*
X128310Y30200D01*
X128332Y30265D01*
X128347Y30324D01*
X128368Y30382D01*
X128383Y30426D01*
X128412Y30499D01*
X128427Y30550D01*
X128441Y30579D01*
X128456Y30593D01*
Y30601D01*
X128492Y30645D01*
X128529Y30674D01*
X128565Y30703D01*
X128602Y30717D01*
X128631Y30725D01*
X128660Y30732D01*
X128674D01*
X128682D01*
X128733Y30725D01*
X128777Y30710D01*
X128849Y30666D01*
X128879Y30645D01*
X128901Y30623D01*
X128908Y30608D01*
X128915Y30601D01*
X128952Y30542D01*
X128981Y30470D01*
X128995Y30397D01*
X129010Y30324D01*
X129017Y30258D01*
X129024Y30200D01*
Y30149D01*
X129017Y30032D01*
X129003Y29930D01*
X128981Y29843D01*
X128959Y29762D01*
X128930Y29704D01*
X128908Y29653D01*
X128893Y29624D01*
X128886Y29617D01*
X128849Y29558D01*
X128798Y29507D01*
X128755Y29463D01*
X128704Y29434D01*
X128660Y29405D01*
X128623Y29391D01*
X128602Y29376D01*
X128594D01*
X128747Y28465D01*
D01*
X128908Y28516D01*
X129046Y28581D01*
X129163Y28654D01*
X129265Y28734D01*
X129345Y28807D01*
X129403Y28873D01*
X129433Y28917D01*
X129447Y28924D01*
Y28931D01*
X129491Y29004D01*
X129535Y29077D01*
X129600Y29245D01*
X129644Y29427D01*
X129681Y29595D01*
X129695Y29755D01*
X129702Y29821D01*
Y29879D01*
X129710Y29930D01*
Y29996D01*
X129702Y30156D01*
X129688Y30309D01*
X129666Y30448D01*
X129644Y30579D01*
X129608Y30703D01*
X129571Y30812D01*
X129527Y30907D01*
X129491Y31002D01*
X129447Y31082D01*
X129403Y31148D01*
X129367Y31206D01*
X129338Y31249D01*
X129309Y31286D01*
X129287Y31315D01*
X129272Y31330D01*
X129265Y31337D01*
X129207Y31395D01*
X129141Y31439D01*
X129017Y31519D01*
X128893Y31578D01*
X128777Y31614D01*
X128674Y31643D01*
X128594Y31651D01*
X128565Y31658D01*
X128543D01*
X128529D01*
X128521D01*
X128441Y31651D01*
X128368Y31643D01*
X128230Y31607D01*
X128106Y31556D01*
X128004Y31490D01*
X127924Y31432D01*
X127865Y31381D01*
X127829Y31344D01*
X127814Y31330D01*
X127785Y31279D01*
X127749Y31220D01*
X127712Y31148D01*
X127668Y31060D01*
X127596Y30878D01*
X127515Y30688D01*
X127450Y30506D01*
X127421Y30426D01*
X127399Y30360D01*
X127377Y30302D01*
X127362Y30251D01*
X127348Y30222D01*
Y30214D01*
X127311Y30098D01*
X127275Y30010D01*
X127238Y29937D01*
X127209Y29879D01*
X127187Y29843D01*
X127173Y29813D01*
X127165Y29806D01*
X127158Y29799D01*
X127100Y29755D01*
X127042Y29733D01*
X126998Y29726D01*
X126990D01*
X126983D01*
X126925Y29733D01*
X126881Y29748D01*
X126801Y29799D01*
X126772Y29828D01*
X126750Y29850D01*
X126735Y29864D01*
X126728Y29872D01*
X126677Y29952D01*
X126641Y30039D01*
X126619Y30134D01*
X126604Y30222D01*
X126590Y30302D01*
X126582Y30360D01*
Y30419D01*
X126590Y30535D01*
X126604Y30637D01*
X126619Y30725D01*
X126648Y30798D01*
X126670Y30856D01*
X126684Y30900D01*
X126699Y30929D01*
X126706Y30936D01*
X126757Y31002D01*
X126823Y31067D01*
X126896Y31118D01*
X126969Y31162D01*
X127034Y31198D01*
X127085Y31228D01*
X127122Y31242D01*
X127136Y31249D01*
X126983Y32204D01*
D02*
G37*
G36*
X130891Y27903D02*
D01*
Y26030D01*
X130213Y27153D01*
X129630Y27269D01*
Y27750D01*
X128893Y27903D01*
Y27415D01*
X127421Y27729D01*
X127311Y27750D01*
X127209Y27772D01*
X127122Y27787D01*
X127042Y27801D01*
X126969Y27816D01*
X126903Y27830D01*
X126852Y27838D01*
X126801Y27845D01*
X126728Y27852D01*
X126677Y27860D01*
X126648D01*
X126641D01*
X126509Y27852D01*
X126400Y27823D01*
X126298Y27787D01*
X126218Y27743D01*
X126160Y27699D01*
X126108Y27663D01*
X126079Y27634D01*
X126072Y27626D01*
X126006Y27524D01*
X125955Y27408D01*
X125926Y27277D01*
X125897Y27153D01*
X125882Y27036D01*
Y26992D01*
X125875Y26948D01*
Y26861D01*
X125882Y26664D01*
X125897Y26577D01*
X125904Y26496D01*
X125919Y26431D01*
X125926Y26380D01*
X125934Y26351D01*
Y26336D01*
X126663Y26183D01*
X126655Y26270D01*
X126648Y26343D01*
X126641Y26402D01*
Y26445D01*
X126633Y26475D01*
Y26577D01*
X126641Y26635D01*
X126655Y26686D01*
X126670Y26722D01*
X126677Y26744D01*
X126692Y26766D01*
X126699Y26774D01*
Y26781D01*
X126757Y26817D01*
X126808Y26839D01*
X126859Y26846D01*
X126867D01*
X126874D01*
X126889D01*
X126910Y26839D01*
X126976Y26832D01*
X127049Y26817D01*
X127136Y26803D01*
X127216Y26788D01*
X127282Y26774D01*
X127311Y26766D01*
X127333Y26759D01*
X127340D01*
X127348D01*
X128893Y26438D01*
Y25833D01*
X129630Y25680D01*
Y26285D01*
X130891Y26030D01*
Y25680D01*
X127647D01*
X127610D01*
X127581D01*
X127574D01*
X125875D01*
Y24018D01*
X125890Y23821D01*
X125919Y23646D01*
X125955Y23478D01*
X126006Y23340D01*
X126057Y23216D01*
X126079Y23172D01*
X126094Y23129D01*
X126116Y23099D01*
X126123Y23077D01*
X126138Y23063D01*
Y23056D01*
X126247Y22903D01*
X126378Y22764D01*
X126509Y22640D01*
X126641Y22538D01*
X126765Y22465D01*
X126816Y22429D01*
X126859Y22407D01*
X126896Y22385D01*
X126925Y22370D01*
X126939Y22356D01*
X126947D01*
X127093Y23238D01*
X127005Y23289D01*
X126925Y23347D01*
X126859Y23413D01*
X126801Y23478D01*
X126750Y23537D01*
X126706Y23602D01*
X126670Y23668D01*
X126648Y23726D01*
X126611Y23836D01*
X126597Y23887D01*
X126590Y23930D01*
X126582Y23959D01*
Y24011D01*
X126590Y24120D01*
X126619Y24222D01*
X126655Y24309D01*
X126692Y24382D01*
X126735Y24448D01*
X126765Y24492D01*
X126794Y24521D01*
X126801Y24528D01*
X126889Y24594D01*
X126990Y24645D01*
X127085Y24681D01*
X127180Y24703D01*
X127268Y24718D01*
X127333Y24732D01*
X127377D01*
X127384D01*
X127392D01*
X127421D01*
X127450Y24725D01*
X127479D01*
X127486D01*
Y22246D01*
X127705Y22203D01*
X127814Y22188D01*
X127916Y22181D01*
X127997Y22174D01*
X128128D01*
D01*
X129710D01*
X128128D01*
X128266Y22181D01*
X128390Y22188D01*
X128514Y22210D01*
X128623Y22239D01*
X128733Y22268D01*
X128828Y22297D01*
X128915Y22334D01*
X128995Y22370D01*
X129061Y22414D01*
X129127Y22451D01*
X129177Y22480D01*
X129221Y22509D01*
X129250Y22538D01*
X129272Y22560D01*
X129287Y22567D01*
X129294Y22574D01*
X129367Y22655D01*
X129433Y22735D01*
X129484Y22822D01*
X129535Y22910D01*
X129578Y22997D01*
X129608Y23085D01*
X129659Y23260D01*
X129673Y23340D01*
X129688Y23413D01*
X129695Y23478D01*
X129702Y23537D01*
X129710Y23581D01*
Y23646D01*
X129702Y23836D01*
X129673Y24018D01*
X129637Y24185D01*
X129586Y24339D01*
X129527Y24484D01*
X129462Y24616D01*
X129389Y24740D01*
X129316Y24849D01*
X129236Y24944D01*
X129170Y25031D01*
X129097Y25097D01*
X129039Y25162D01*
X128988Y25206D01*
X128952Y25235D01*
X128922Y25257D01*
X128915Y25264D01*
X128806Y25337D01*
X128689Y25403D01*
X128572Y25454D01*
X128456Y25505D01*
X128339Y25541D01*
X128230Y25578D01*
X128026Y25629D01*
X127931Y25644D01*
X127843Y25658D01*
X127763Y25665D01*
X127698Y25673D01*
X127647Y25680D01*
X129710D01*
X130891D01*
Y27903D01*
D02*
G37*
G36*
X129710Y21940D02*
D01*
Y20395D01*
Y21940D01*
D02*
G37*
G36*
X125970D02*
Y20963D01*
X127114Y20723D01*
X127238Y20694D01*
X127362Y20672D01*
X127472Y20643D01*
X127566Y20613D01*
X127661Y20592D01*
X127749Y20570D01*
X127822Y20540D01*
X127887Y20519D01*
X127945Y20504D01*
X127997Y20482D01*
X128040Y20468D01*
X128077Y20453D01*
X128099Y20446D01*
X128121Y20438D01*
X128135Y20431D01*
X128252Y20373D01*
X128354Y20307D01*
X128441Y20234D01*
X128514Y20169D01*
X128565Y20110D01*
X128609Y20067D01*
X128638Y20038D01*
X128645Y20023D01*
X128711Y19921D01*
X128762Y19826D01*
X128791Y19739D01*
X128820Y19658D01*
X128835Y19593D01*
X128842Y19542D01*
Y19498D01*
X128835Y19389D01*
X128820Y19294D01*
X128806Y19257D01*
X128798Y19228D01*
X128791Y19214D01*
Y19207D01*
X129600Y18827D01*
X129637Y18915D01*
X129666Y19002D01*
X129681Y19083D01*
X129695Y19148D01*
X129702Y19207D01*
X129710Y19250D01*
Y19287D01*
D01*
Y19593D01*
Y19287D01*
X129702Y19396D01*
X129673Y19505D01*
X129637Y19615D01*
X129586Y19710D01*
X129527Y19812D01*
X129462Y19899D01*
X129316Y20067D01*
X129243Y20140D01*
X129170Y20205D01*
X129105Y20264D01*
X129046Y20314D01*
X128995Y20351D01*
X128959Y20380D01*
X128930Y20395D01*
X128922Y20402D01*
X129630Y20256D01*
Y21175D01*
X125970Y21940D01*
D02*
G37*
%LPD*%
G36*
X131015Y66438D02*
X129994Y67146D01*
X129323Y67627D01*
X129148Y67743D01*
X129068Y67794D01*
X128995Y67838D01*
X128937Y67867D01*
X128893Y67896D01*
X128864Y67911D01*
X128857Y67918D01*
X128952Y67955D01*
X129068Y67998D01*
X129192Y68050D01*
X129309Y68101D01*
X129418Y68144D01*
X129469Y68166D01*
X129513Y68181D01*
X129542Y68195D01*
X129571Y68210D01*
X129586Y68217D01*
X129593D01*
X131015Y68844D01*
Y66438D01*
D02*
G37*
G36*
X128252Y64565D02*
X128383Y64514D01*
X128500Y64455D01*
X128594Y64404D01*
X128674Y64353D01*
X128726Y64310D01*
X128762Y64280D01*
X128769Y64273D01*
X128849Y64179D01*
X128908Y64084D01*
X128944Y63989D01*
X128973Y63901D01*
X128988Y63828D01*
X129003Y63770D01*
Y63719D01*
X128995Y63610D01*
X128973Y63515D01*
X128937Y63428D01*
X128901Y63362D01*
X128864Y63304D01*
X128828Y63267D01*
X128806Y63238D01*
X128798Y63231D01*
X128711Y63173D01*
X128616Y63129D01*
X128514Y63092D01*
X128419Y63070D01*
X128325Y63056D01*
X128252Y63048D01*
X128223D01*
X128201D01*
X128193D01*
X128186D01*
X128157D01*
X128128D01*
X128099D01*
X128091D01*
Y64601D01*
X128252Y64565D01*
D02*
G37*
G36*
X131015Y51844D02*
X127639Y52558D01*
X131015Y53929D01*
Y51844D01*
D02*
G37*
G36*
X127610Y49737D02*
X127734Y49722D01*
X127851Y49700D01*
X127960Y49679D01*
X128048Y49657D01*
X128121Y49635D01*
X128150Y49628D01*
X128172Y49620D01*
X128179Y49613D01*
X128186D01*
X128317Y49555D01*
X128434Y49496D01*
X128536Y49431D01*
X128616Y49365D01*
X128682Y49314D01*
X128726Y49270D01*
X128755Y49234D01*
X128762Y49227D01*
X128828Y49132D01*
X128879Y49030D01*
X128915Y48935D01*
X128944Y48848D01*
X128959Y48775D01*
X128966Y48709D01*
Y48658D01*
X128959Y48541D01*
X128930Y48439D01*
X128901Y48352D01*
X128857Y48272D01*
X128820Y48213D01*
X128784Y48170D01*
X128755Y48140D01*
X128747Y48133D01*
X128660Y48060D01*
X128572Y48009D01*
X128478Y47973D01*
X128390Y47951D01*
X128310Y47929D01*
X128244Y47922D01*
X128201D01*
X128193D01*
X128186D01*
X128055Y47929D01*
X127931Y47936D01*
X127698Y47980D01*
X127596Y48009D01*
X127494Y48046D01*
X127406Y48082D01*
X127319Y48119D01*
X127246Y48155D01*
X127180Y48191D01*
X127122Y48221D01*
X127071Y48257D01*
X127034Y48279D01*
X127005Y48301D01*
X126990Y48308D01*
X126983Y48315D01*
X126925Y48366D01*
X126874Y48425D01*
X126786Y48541D01*
X126728Y48651D01*
X126684Y48760D01*
X126663Y48855D01*
X126648Y48935D01*
X126641Y48964D01*
Y49001D01*
X126648Y49117D01*
X126677Y49219D01*
X126714Y49307D01*
X126757Y49387D01*
X126794Y49445D01*
X126830Y49496D01*
X126859Y49526D01*
X126867Y49533D01*
X126961Y49606D01*
X127063Y49657D01*
X127165Y49693D01*
X127268Y49715D01*
X127355Y49730D01*
X127428Y49744D01*
X127457D01*
X127479D01*
X127486D01*
X127494D01*
X127610Y49737D01*
D02*
G37*
G36*
Y39159D02*
X127734Y39145D01*
X127851Y39123D01*
X127960Y39101D01*
X128048Y39079D01*
X128121Y39057D01*
X128150Y39050D01*
X128172Y39042D01*
X128179Y39035D01*
X128186D01*
X128317Y38977D01*
X128434Y38919D01*
X128536Y38853D01*
X128616Y38787D01*
X128682Y38736D01*
X128726Y38693D01*
X128755Y38656D01*
X128762Y38649D01*
X128828Y38554D01*
X128879Y38452D01*
X128915Y38357D01*
X128944Y38270D01*
X128959Y38197D01*
X128966Y38131D01*
Y38080D01*
X128959Y37964D01*
X128930Y37862D01*
X128901Y37774D01*
X128857Y37694D01*
X128820Y37636D01*
X128784Y37592D01*
X128755Y37563D01*
X128747Y37555D01*
X128660Y37483D01*
X128572Y37431D01*
X128478Y37395D01*
X128390Y37373D01*
X128310Y37351D01*
X128244Y37344D01*
X128201D01*
X128193D01*
X128186D01*
X128055Y37351D01*
X127931Y37359D01*
X127698Y37402D01*
X127596Y37431D01*
X127494Y37468D01*
X127406Y37504D01*
X127319Y37541D01*
X127246Y37577D01*
X127180Y37614D01*
X127122Y37643D01*
X127071Y37679D01*
X127034Y37701D01*
X127005Y37723D01*
X126990Y37730D01*
X126983Y37738D01*
X126925Y37789D01*
X126874Y37847D01*
X126786Y37964D01*
X126728Y38073D01*
X126684Y38182D01*
X126663Y38277D01*
X126648Y38357D01*
X126641Y38386D01*
Y38423D01*
X126648Y38539D01*
X126677Y38642D01*
X126714Y38729D01*
X126757Y38809D01*
X126794Y38868D01*
X126830Y38919D01*
X126859Y38948D01*
X126867Y38955D01*
X126961Y39028D01*
X127063Y39079D01*
X127165Y39115D01*
X127268Y39137D01*
X127355Y39152D01*
X127428Y39167D01*
X127457D01*
X127479D01*
X127486D01*
X127494D01*
X127610Y39159D01*
D02*
G37*
G36*
X127100Y35033D02*
X127165Y35019D01*
X127224Y34989D01*
X127275Y34960D01*
X127311Y34931D01*
X127340Y34902D01*
X127355Y34887D01*
X127362Y34880D01*
X127392Y34829D01*
X127421Y34771D01*
X127450Y34705D01*
X127479Y34632D01*
X127523Y34472D01*
X127559Y34311D01*
X127588Y34158D01*
X127603Y34093D01*
X127610Y34027D01*
X127618Y33983D01*
Y33940D01*
X127625Y33918D01*
Y33910D01*
X127639Y33808D01*
X127661Y33735D01*
X127668Y33706D01*
Y33684D01*
X127676Y33677D01*
Y33670D01*
X127537Y33699D01*
X127413Y33728D01*
X127304Y33757D01*
X127209Y33786D01*
X127136Y33816D01*
X127078Y33838D01*
X127042Y33859D01*
X127012Y33867D01*
X127005Y33874D01*
X126939Y33910D01*
X126889Y33961D01*
X126837Y34012D01*
X126801Y34056D01*
X126765Y34100D01*
X126743Y34136D01*
X126728Y34165D01*
X126721Y34173D01*
X126684Y34246D01*
X126663Y34319D01*
X126641Y34391D01*
X126633Y34457D01*
X126626Y34508D01*
X126619Y34552D01*
Y34588D01*
X126626Y34661D01*
X126641Y34727D01*
X126655Y34785D01*
X126677Y34829D01*
X126699Y34865D01*
X126721Y34894D01*
X126728Y34909D01*
X126735Y34916D01*
X126779Y34960D01*
X126830Y34989D01*
X126881Y35011D01*
X126925Y35026D01*
X126969Y35033D01*
X126998Y35040D01*
X127020D01*
X127027D01*
X127100Y35033D01*
D02*
G37*
G36*
X127435Y25673D02*
X127304Y25658D01*
X127173Y25636D01*
X127056Y25607D01*
X126947Y25571D01*
X126845Y25534D01*
X126757Y25490D01*
X126670Y25447D01*
X126597Y25410D01*
X126531Y25367D01*
X126473Y25330D01*
X126429Y25294D01*
X126393Y25264D01*
X126364Y25243D01*
X126349Y25228D01*
X126342Y25221D01*
X126261Y25133D01*
X126189Y25038D01*
X126123Y24936D01*
X126072Y24842D01*
X126028Y24740D01*
X125992Y24637D01*
X125934Y24448D01*
X125912Y24361D01*
X125897Y24280D01*
X125890Y24207D01*
X125882Y24142D01*
X125875Y24091D01*
Y25680D01*
X127574D01*
X127435Y25673D01*
D02*
G37*
G36*
X128252Y24594D02*
X128383Y24543D01*
X128500Y24484D01*
X128594Y24433D01*
X128674Y24382D01*
X128726Y24339D01*
X128762Y24309D01*
X128769Y24302D01*
X128849Y24207D01*
X128908Y24113D01*
X128944Y24018D01*
X128973Y23930D01*
X128988Y23857D01*
X129003Y23799D01*
Y23748D01*
X128995Y23639D01*
X128973Y23544D01*
X128937Y23457D01*
X128901Y23391D01*
X128864Y23333D01*
X128828Y23296D01*
X128806Y23267D01*
X128798Y23260D01*
X128711Y23201D01*
X128616Y23158D01*
X128514Y23121D01*
X128419Y23099D01*
X128325Y23085D01*
X128252Y23077D01*
X128223D01*
X128201D01*
X128193D01*
X128186D01*
X128157D01*
X128128D01*
X128099D01*
X128091D01*
Y24630D01*
X128252Y24594D01*
D02*
G37*
%LPC*%
G36*
X-126526Y79461D02*
X-126818D01*
X-126681Y79179D01*
X-126545Y78933D01*
X-126481Y78824D01*
X-126417Y78723D01*
X-126353Y78632D01*
X-126299Y78550D01*
X-126244Y78477D01*
X-126189Y78413D01*
X-126153Y78359D01*
X-126117Y78313D01*
X-126080Y78277D01*
X-126062Y78250D01*
X-126053Y78240D01*
X-126044Y78231D01*
X-131901D01*
Y76591D01*
X-124868D01*
D01*
X-126517D01*
X-126326Y76801D01*
X-126153Y76974D01*
X-125998Y77129D01*
X-125861Y77257D01*
X-125752Y77348D01*
X-125679Y77421D01*
X-125625Y77457D01*
X-125606Y77475D01*
X-125461Y77584D01*
X-125324Y77676D01*
X-125206Y77749D01*
X-125087Y77812D01*
X-124996Y77858D01*
X-124932Y77894D01*
X-124887Y77912D01*
X-124868Y77922D01*
Y78104D01*
X-125014Y78177D01*
X-125160Y78259D01*
X-125287Y78341D01*
X-125406Y78413D01*
X-125506Y78486D01*
X-125579Y78541D01*
X-125625Y78578D01*
X-125643Y78587D01*
X-125788Y78714D01*
X-125934Y78851D01*
X-126080Y78997D01*
X-126226Y79133D01*
X-126344Y79261D01*
X-126444Y79370D01*
X-126481Y79406D01*
X-126508Y79434D01*
X-126517Y79452D01*
X-126526Y79461D01*
D02*
G37*
G36*
X-124868Y72993D02*
D01*
Y71636D01*
X-125014Y71709D01*
X-125160Y71790D01*
X-125287Y71873D01*
X-125406Y71945D01*
X-125506Y72018D01*
X-125579Y72073D01*
X-125625Y72109D01*
X-125643Y72119D01*
X-125788Y72246D01*
X-125934Y72383D01*
X-126080Y72528D01*
X-126226Y72665D01*
X-126344Y72793D01*
X-126444Y72902D01*
X-126481Y72938D01*
X-126508Y72966D01*
X-126517Y72984D01*
X-126526Y72993D01*
X-126818D01*
X-126681Y72711D01*
X-126545Y72465D01*
X-126481Y72355D01*
X-126417Y72255D01*
X-126353Y72164D01*
X-126299Y72082D01*
X-126244Y72009D01*
X-126189Y71945D01*
X-126153Y71891D01*
X-126117Y71845D01*
X-126080Y71809D01*
X-126062Y71781D01*
X-126053Y71772D01*
X-126044Y71763D01*
X-131901D01*
Y71353D01*
X-126044D01*
X-126144Y71217D01*
X-126235Y71098D01*
X-126308Y71007D01*
X-126362Y70925D01*
X-126408Y70861D01*
X-126435Y70816D01*
X-126453Y70789D01*
X-126463Y70779D01*
X-126508Y70697D01*
X-126572Y70597D01*
X-126627Y70488D01*
X-126681Y70388D01*
X-126736Y70287D01*
X-126781Y70196D01*
X-126809Y70142D01*
X-126818Y70132D01*
Y70123D01*
X-131901D01*
D01*
X-124868D01*
Y72993D01*
D02*
G37*
G36*
X-129442Y69258D02*
X-132503D01*
Y63956D01*
X-126572D01*
Y66179D01*
Y66033D01*
X-126581Y66252D01*
X-126599Y66443D01*
X-126618Y66616D01*
X-126627Y66762D01*
X-126636Y66817D01*
X-126645Y66871D01*
Y66908D01*
X-126654Y66935D01*
Y66962D01*
X-126690Y67163D01*
X-126745Y67354D01*
X-126809Y67527D01*
X-126873Y67673D01*
X-126936Y67800D01*
X-126991Y67892D01*
X-127009Y67928D01*
X-127027Y67955D01*
X-127037Y67964D01*
Y67974D01*
X-127182Y68174D01*
X-127346Y68356D01*
X-127510Y68511D01*
X-127674Y68638D01*
X-127820Y68748D01*
X-127875Y68793D01*
X-127929Y68830D01*
X-127975Y68857D01*
X-128011Y68875D01*
X-128030Y68894D01*
X-128039D01*
X-128294Y69012D01*
X-128549Y69103D01*
X-128795Y69167D01*
X-129032Y69212D01*
X-129132Y69231D01*
X-129223Y69240D01*
X-129314Y69249D01*
X-129387D01*
X-129442Y69258D01*
D02*
G37*
G36*
X-126572Y62753D02*
X-132503D01*
Y57670D01*
X-126572D01*
Y59492D01*
Y59027D01*
X-130699D01*
X-126572Y61323D01*
Y62753D01*
D02*
G37*
G36*
X-126900Y56550D02*
X-129824D01*
Y53953D01*
X-128704D01*
Y55110D01*
X-127538D01*
X-127529Y55046D01*
Y54728D01*
X-127538Y54563D01*
X-127547Y54409D01*
X-127574Y54263D01*
X-127601Y54126D01*
X-127647Y53999D01*
X-127683Y53880D01*
X-127729Y53771D01*
X-127775Y53680D01*
X-127820Y53598D01*
X-127866Y53516D01*
X-127911Y53452D01*
X-127948Y53398D01*
X-127975Y53361D01*
X-128002Y53334D01*
X-128011Y53316D01*
X-128021Y53306D01*
X-128121Y53215D01*
X-128230Y53133D01*
X-128348Y53070D01*
X-128467Y53006D01*
X-128594Y52960D01*
X-128722Y52915D01*
X-128968Y52851D01*
X-129086Y52833D01*
X-129196Y52814D01*
X-129296Y52805D01*
X-129378Y52796D01*
X-129451Y52787D01*
X-129505D01*
X-129542D01*
X-129551D01*
X-129724Y52796D01*
X-129888Y52805D01*
X-130034Y52833D01*
X-130152Y52860D01*
X-130262Y52878D01*
X-130334Y52905D01*
X-130380Y52915D01*
X-130398Y52924D01*
X-130535Y52978D01*
X-130653Y53042D01*
X-130754Y53097D01*
X-130845Y53161D01*
X-130918Y53206D01*
X-130963Y53252D01*
X-130999Y53279D01*
X-131009Y53288D01*
X-131100Y53379D01*
X-131173Y53479D01*
X-131236Y53571D01*
X-131282Y53662D01*
X-131318Y53734D01*
X-131355Y53789D01*
X-131364Y53835D01*
X-131373Y53844D01*
X-131419Y53962D01*
X-131446Y54090D01*
X-131473Y54208D01*
X-131482Y54318D01*
X-131491Y54409D01*
X-131500Y54482D01*
Y54664D01*
X-131482Y54782D01*
X-131473Y54882D01*
X-131455Y54983D01*
X-131437Y55055D01*
X-131428Y55110D01*
X-131409Y55156D01*
Y55165D01*
X-131373Y55274D01*
X-131336Y55365D01*
X-131300Y55456D01*
X-131264Y55538D01*
X-131236Y55593D01*
X-131209Y55648D01*
X-131200Y55675D01*
X-131191Y55684D01*
X-131100Y55830D01*
X-131018Y55948D01*
X-130981Y56003D01*
X-130954Y56039D01*
X-130936Y56067D01*
X-130927Y56076D01*
X-130826Y56213D01*
X-130790Y56258D01*
X-130763Y56304D01*
X-130735Y56340D01*
X-130717Y56367D01*
X-130699Y56376D01*
Y56522D01*
X-132083D01*
X-132175Y56340D01*
X-132247Y56158D01*
X-132311Y55994D01*
X-132366Y55848D01*
X-132412Y55730D01*
X-132439Y55638D01*
X-132448Y55602D01*
X-132457Y55575D01*
X-132466Y55566D01*
Y55556D01*
X-132512Y55374D01*
X-132548Y55174D01*
X-132576Y54974D01*
X-132594Y54773D01*
X-132603Y54609D01*
X-132612Y54536D01*
Y56550D01*
D01*
Y51248D01*
X-126444D01*
X-129533D01*
X-129269Y51257D01*
X-129014Y51284D01*
X-128777Y51320D01*
X-128549Y51375D01*
X-128348Y51439D01*
X-128157Y51512D01*
X-127993Y51585D01*
X-127838Y51667D01*
X-127702Y51739D01*
X-127583Y51812D01*
X-127483Y51885D01*
X-127392Y51949D01*
X-127328Y52004D01*
X-127283Y52040D01*
X-127255Y52067D01*
X-127246Y52077D01*
X-127110Y52241D01*
X-126982Y52414D01*
X-126873Y52587D01*
X-126781Y52778D01*
X-126709Y52960D01*
X-126645Y53142D01*
X-126590Y53325D01*
X-126545Y53498D01*
X-126508Y53662D01*
X-126490Y53816D01*
X-126472Y53953D01*
X-126453Y54072D01*
Y54163D01*
X-126444Y54236D01*
Y54482D01*
Y54299D01*
X-126453Y54527D01*
X-126472Y54746D01*
X-126490Y54955D01*
X-126517Y55147D01*
X-126545Y55301D01*
X-126554Y55365D01*
X-126572Y55420D01*
X-126581Y55465D01*
Y55502D01*
X-126590Y55520D01*
Y55529D01*
X-126645Y55757D01*
X-126709Y55957D01*
X-126754Y56130D01*
X-126800Y56276D01*
X-126845Y56395D01*
X-126873Y56477D01*
X-126891Y56531D01*
X-126900Y56550D01*
D02*
G37*
%LPD*%
G36*
X-126144Y77685D02*
X-126235Y77566D01*
X-126308Y77475D01*
X-126362Y77393D01*
X-126408Y77329D01*
X-126435Y77284D01*
X-126453Y77257D01*
X-126463Y77247D01*
X-126508Y77165D01*
X-126572Y77065D01*
X-126627Y76956D01*
X-126681Y76856D01*
X-126736Y76755D01*
X-126781Y76664D01*
X-126809Y76610D01*
X-126818Y76601D01*
Y76591D01*
X-131901D01*
Y77821D01*
X-126044D01*
X-126144Y77685D01*
D02*
G37*
G36*
X-124868Y70123D02*
X-126517D01*
X-126326Y70333D01*
X-126153Y70506D01*
X-125998Y70661D01*
X-125861Y70789D01*
X-125752Y70880D01*
X-125679Y70952D01*
X-125625Y70989D01*
X-125606Y71007D01*
X-125461Y71116D01*
X-125324Y71207D01*
X-125206Y71280D01*
X-125087Y71344D01*
X-124996Y71390D01*
X-124932Y71426D01*
X-124887Y71444D01*
X-124868Y71453D01*
Y70123D01*
D02*
G37*
G36*
X-129833Y69240D02*
X-130125Y69203D01*
X-130380Y69149D01*
X-130489Y69121D01*
X-130599Y69085D01*
X-130690Y69048D01*
X-130772Y69021D01*
X-130845Y68994D01*
X-130908Y68966D01*
X-130954Y68948D01*
X-130990Y68930D01*
X-131009Y68912D01*
X-131018D01*
X-131245Y68775D01*
X-131446Y68629D01*
X-131619Y68475D01*
X-131765Y68329D01*
X-131874Y68192D01*
X-131965Y68092D01*
X-131992Y68046D01*
X-132011Y68019D01*
X-132029Y68001D01*
Y67992D01*
X-132138Y67809D01*
X-132220Y67627D01*
X-132293Y67454D01*
X-132339Y67299D01*
X-132375Y67163D01*
X-132393Y67108D01*
X-132402Y67053D01*
X-132412Y67017D01*
X-132421Y66990D01*
Y66962D01*
X-132448Y66753D01*
X-132466Y66552D01*
X-132484Y66352D01*
X-132493Y66179D01*
X-132503Y66024D01*
Y69258D01*
X-129524D01*
X-129833Y69240D01*
D02*
G37*
G36*
X-129332Y67709D02*
X-129141Y67691D01*
X-128968Y67655D01*
X-128831Y67627D01*
X-128713Y67591D01*
X-128622Y67554D01*
X-128567Y67536D01*
X-128558Y67527D01*
X-128549D01*
X-128403Y67445D01*
X-128285Y67354D01*
X-128175Y67263D01*
X-128084Y67172D01*
X-128011Y67090D01*
X-127966Y67026D01*
X-127929Y66980D01*
X-127920Y66962D01*
X-127857Y66844D01*
X-127802Y66725D01*
X-127765Y66616D01*
X-127738Y66516D01*
X-127720Y66434D01*
X-127711Y66370D01*
X-127702Y66325D01*
Y66170D01*
X-127692Y66033D01*
Y65441D01*
X-131400D01*
Y65787D01*
X-131391Y65915D01*
Y66124D01*
X-131382Y66197D01*
Y66252D01*
X-131373Y66379D01*
X-131346Y66498D01*
X-131318Y66598D01*
X-131282Y66698D01*
X-131254Y66780D01*
X-131227Y66835D01*
X-131209Y66880D01*
X-131200Y66889D01*
X-131100Y67035D01*
X-130999Y67163D01*
X-130890Y67272D01*
X-130781Y67354D01*
X-130690Y67427D01*
X-130617Y67472D01*
X-130562Y67500D01*
X-130553Y67509D01*
X-130544D01*
X-130380Y67582D01*
X-130216Y67627D01*
X-130043Y67664D01*
X-129888Y67691D01*
X-129751Y67709D01*
X-129688D01*
X-129642Y67718D01*
X-129596D01*
X-129569D01*
X-129551D01*
X-129542D01*
X-129332Y67709D01*
D02*
G37*
G36*
X-132503Y59492D02*
Y61396D01*
X-129105D01*
X-132503Y59492D01*
D02*
G37*
G36*
X-132603Y54081D02*
X-132576Y53835D01*
X-132530Y53598D01*
X-132484Y53379D01*
X-132412Y53179D01*
X-132348Y52997D01*
X-132266Y52824D01*
X-132193Y52669D01*
X-132111Y52532D01*
X-132029Y52414D01*
X-131965Y52313D01*
X-131901Y52231D01*
X-131847Y52158D01*
X-131801Y52113D01*
X-131774Y52086D01*
X-131765Y52077D01*
X-131601Y51931D01*
X-131428Y51803D01*
X-131245Y51694D01*
X-131063Y51594D01*
X-130872Y51521D01*
X-130690Y51448D01*
X-130508Y51393D01*
X-130334Y51348D01*
X-130170Y51320D01*
X-130016Y51293D01*
X-129879Y51275D01*
X-129761Y51257D01*
X-129669D01*
X-129596Y51248D01*
X-132612D01*
Y54345D01*
X-132603Y54081D01*
D02*
G37*
%LPC*%
G36*
X-145640Y49103D02*
X-145647D01*
X-145684D01*
X-145728Y49095D01*
X-145786D01*
X-145844Y49088D01*
X-145917Y49073D01*
X-146056Y49044D01*
X-146063D01*
X-146085Y49037D01*
X-146114Y49022D01*
X-146158Y49008D01*
X-146252Y48957D01*
X-146347Y48891D01*
X-146354Y48884D01*
X-146369Y48869D01*
X-146391Y48847D01*
X-146420Y48818D01*
X-146457Y48782D01*
X-146486Y48738D01*
X-146551Y48621D01*
Y48614D01*
X-146566Y48592D01*
X-146573Y48556D01*
X-146588Y48512D01*
X-146602Y48454D01*
X-146610Y48388D01*
X-146624Y48308D01*
Y48133D01*
X-146617Y48082D01*
X-146610Y48016D01*
X-146595Y47943D01*
X-146551Y47812D01*
Y47805D01*
X-146537Y47783D01*
X-146522Y47754D01*
X-146500Y47710D01*
X-146435Y47615D01*
X-146340Y47506D01*
X-146333Y47499D01*
X-146318Y47484D01*
X-146289Y47455D01*
X-146252Y47426D01*
X-146201Y47397D01*
X-146150Y47360D01*
X-146027Y47295D01*
X-146019D01*
X-145997Y47287D01*
X-145961Y47273D01*
X-145917Y47258D01*
X-145859Y47244D01*
X-145793Y47236D01*
X-145720Y47222D01*
X-145640Y47214D01*
Y49103D01*
D02*
G37*
G36*
X-144328Y42170D02*
X-145319D01*
Y42162D01*
X-145312Y42133D01*
Y42082D01*
X-145305Y42017D01*
X-145298Y41944D01*
X-145283Y41849D01*
X-145276Y41740D01*
X-145261Y41623D01*
Y41609D01*
X-145254Y41572D01*
X-145246Y41514D01*
X-145239Y41441D01*
X-145225Y41353D01*
X-145210Y41266D01*
X-145188Y41178D01*
X-145166Y41098D01*
Y41091D01*
X-145152Y41062D01*
X-145137Y41011D01*
X-145108Y40960D01*
X-145079Y40894D01*
X-145042Y40828D01*
X-144991Y40763D01*
X-144940Y40705D01*
X-144933Y40697D01*
X-144911Y40683D01*
X-144882Y40653D01*
X-144831Y40632D01*
X-144773Y40602D01*
X-144707Y40573D01*
X-144620Y40559D01*
X-144525Y40551D01*
X-144510D01*
X-144474D01*
X-144423Y40559D01*
X-144350Y40573D01*
X-144277Y40595D01*
X-144204Y40624D01*
X-144131Y40661D01*
X-144065Y40719D01*
X-144058Y40726D01*
X-144044Y40748D01*
X-144014Y40792D01*
X-143993Y40850D01*
X-143963Y40916D01*
X-143934Y41003D01*
X-143920Y41105D01*
X-143912Y41222D01*
Y41273D01*
X-143920Y41324D01*
X-143927Y41390D01*
X-143941Y41470D01*
X-143963Y41557D01*
X-143993Y41645D01*
X-144029Y41732D01*
X-144036Y41740D01*
X-144051Y41769D01*
X-144080Y41820D01*
X-144116Y41878D01*
X-144160Y41944D01*
X-144211Y42017D01*
X-144328Y42170D01*
D02*
G37*
G36*
X-145604Y33116D02*
X-147448D01*
X-145604Y31519D01*
Y33116D01*
D02*
G37*
G36*
X4064Y-150295D02*
X4021D01*
X3969Y-150303D01*
X3911Y-150310D01*
X3838Y-150325D01*
X3765Y-150354D01*
X3692Y-150383D01*
X3627Y-150427D01*
X3620Y-150434D01*
X3598Y-150449D01*
X3569Y-150478D01*
X3532Y-150522D01*
X3488Y-150573D01*
X3445Y-150638D01*
X3401Y-150711D01*
X3357Y-150798D01*
X3350Y-150813D01*
X3343Y-150842D01*
X3328Y-150893D01*
X3306Y-150966D01*
X3284Y-151061D01*
X3262Y-151163D01*
X3241Y-151287D01*
X3226Y-151418D01*
Y-151426D01*
Y-151433D01*
Y-151455D01*
X3219Y-151484D01*
Y-151557D01*
X3211Y-151659D01*
X3204Y-151783D01*
Y-151921D01*
X3197Y-152082D01*
Y-152249D01*
Y-152257D01*
Y-152271D01*
Y-152300D01*
Y-152329D01*
Y-152373D01*
Y-152424D01*
X3204Y-152541D01*
Y-152672D01*
X3211Y-152818D01*
X3219Y-152956D01*
X3226Y-153088D01*
Y-153102D01*
X3233Y-153146D01*
X3241Y-153204D01*
X3255Y-153284D01*
X3270Y-153379D01*
X3291Y-153481D01*
X3357Y-153685D01*
X3364Y-153693D01*
X3372Y-153729D01*
X3394Y-153773D01*
X3423Y-153824D01*
X3459Y-153890D01*
X3503Y-153948D01*
X3554Y-154013D01*
X3612Y-154065D01*
X3620Y-154072D01*
X3641Y-154086D01*
X3685Y-154108D01*
X3736Y-154130D01*
X3802Y-154152D01*
X3875Y-154174D01*
X3962Y-154188D01*
X4064Y-154196D01*
X4108D01*
X4159Y-154188D01*
X4217Y-154181D01*
X4283Y-154166D01*
X4356Y-154145D01*
X4429Y-154115D01*
X4494Y-154072D01*
X4502Y-154065D01*
X4524Y-154050D01*
X4553Y-154021D01*
X4589Y-153977D01*
X4633Y-153926D01*
X4677Y-153860D01*
X4720Y-153787D01*
X4757Y-153700D01*
X4764Y-153685D01*
X4771Y-153656D01*
X4786Y-153605D01*
X4808Y-153532D01*
X4830Y-153445D01*
X4852Y-153343D01*
X4874Y-153233D01*
X4888Y-153102D01*
Y-153095D01*
Y-153088D01*
X4895Y-153066D01*
Y-153037D01*
X4903Y-152964D01*
X4910Y-152862D01*
X4917Y-152730D01*
X4924Y-152592D01*
X4932Y-152424D01*
Y-152249D01*
Y-152242D01*
Y-152227D01*
Y-152198D01*
Y-152169D01*
Y-152125D01*
Y-152074D01*
X4924Y-151958D01*
Y-151826D01*
X4917Y-151681D01*
X4903Y-151535D01*
X4888Y-151396D01*
Y-151389D01*
Y-151382D01*
X4881Y-151338D01*
X4874Y-151265D01*
X4859Y-151185D01*
X4837Y-151090D01*
X4815Y-150988D01*
X4793Y-150886D01*
X4757Y-150791D01*
X4750Y-150784D01*
X4742Y-150755D01*
X4720Y-150711D01*
X4691Y-150653D01*
X4655Y-150594D01*
X4604Y-150536D01*
X4553Y-150478D01*
X4494Y-150427D01*
X4487Y-150419D01*
X4465Y-150405D01*
X4429Y-150383D01*
X4378Y-150361D01*
X4319Y-150339D01*
X4239Y-150317D01*
X4159Y-150303D01*
X4064Y-150295D01*
D02*
G37*
G36*
X-9123D02*
X-9167D01*
X-9218Y-150303D01*
X-9276Y-150310D01*
X-9349Y-150325D01*
X-9422Y-150354D01*
X-9495Y-150383D01*
X-9561Y-150427D01*
X-9568Y-150434D01*
X-9590Y-150449D01*
X-9619Y-150478D01*
X-9656Y-150522D01*
X-9699Y-150573D01*
X-9743Y-150638D01*
X-9787Y-150711D01*
X-9831Y-150798D01*
X-9838Y-150813D01*
X-9845Y-150842D01*
X-9860Y-150893D01*
X-9882Y-150966D01*
X-9903Y-151061D01*
X-9925Y-151163D01*
X-9947Y-151287D01*
X-9962Y-151418D01*
Y-151426D01*
Y-151433D01*
Y-151455D01*
X-9969Y-151484D01*
Y-151557D01*
X-9976Y-151659D01*
X-9984Y-151783D01*
Y-151921D01*
X-9991Y-152082D01*
Y-152249D01*
Y-152257D01*
Y-152271D01*
Y-152300D01*
Y-152329D01*
Y-152373D01*
Y-152424D01*
X-9984Y-152541D01*
Y-152672D01*
X-9976Y-152818D01*
X-9969Y-152956D01*
X-9962Y-153088D01*
Y-153102D01*
X-9954Y-153146D01*
X-9947Y-153204D01*
X-9933Y-153284D01*
X-9918Y-153379D01*
X-9896Y-153481D01*
X-9831Y-153685D01*
X-9823Y-153693D01*
X-9816Y-153729D01*
X-9794Y-153773D01*
X-9765Y-153824D01*
X-9728Y-153890D01*
X-9685Y-153948D01*
X-9634Y-154013D01*
X-9575Y-154065D01*
X-9568Y-154072D01*
X-9546Y-154086D01*
X-9502Y-154108D01*
X-9451Y-154130D01*
X-9386Y-154152D01*
X-9313Y-154174D01*
X-9225Y-154188D01*
X-9123Y-154196D01*
X-9080D01*
X-9029Y-154188D01*
X-8970Y-154181D01*
X-8905Y-154166D01*
X-8832Y-154145D01*
X-8759Y-154115D01*
X-8693Y-154072D01*
X-8686Y-154065D01*
X-8664Y-154050D01*
X-8635Y-154021D01*
X-8598Y-153977D01*
X-8555Y-153926D01*
X-8511Y-153860D01*
X-8467Y-153787D01*
X-8431Y-153700D01*
X-8423Y-153685D01*
X-8416Y-153656D01*
X-8402Y-153605D01*
X-8380Y-153532D01*
X-8358Y-153445D01*
X-8336Y-153343D01*
X-8314Y-153233D01*
X-8300Y-153102D01*
Y-153095D01*
Y-153088D01*
X-8292Y-153066D01*
Y-153037D01*
X-8285Y-152964D01*
X-8278Y-152862D01*
X-8270Y-152730D01*
X-8263Y-152592D01*
X-8256Y-152424D01*
Y-152249D01*
Y-152242D01*
Y-152227D01*
Y-152198D01*
Y-152169D01*
Y-152125D01*
Y-152074D01*
X-8263Y-151958D01*
Y-151826D01*
X-8270Y-151681D01*
X-8285Y-151535D01*
X-8300Y-151396D01*
Y-151389D01*
Y-151382D01*
X-8307Y-151338D01*
X-8314Y-151265D01*
X-8329Y-151185D01*
X-8351Y-151090D01*
X-8372Y-150988D01*
X-8394Y-150886D01*
X-8431Y-150791D01*
X-8438Y-150784D01*
X-8445Y-150755D01*
X-8467Y-150711D01*
X-8496Y-150653D01*
X-8533Y-150594D01*
X-8584Y-150536D01*
X-8635Y-150478D01*
X-8693Y-150427D01*
X-8700Y-150419D01*
X-8722Y-150405D01*
X-8759Y-150383D01*
X-8810Y-150361D01*
X-8868Y-150339D01*
X-8948Y-150317D01*
X-9029Y-150303D01*
X-9123Y-150295D01*
D02*
G37*
G36*
X-146362Y-16412D02*
X-146909D01*
Y-18709D01*
X-148782D01*
X-149438Y-21245D01*
X-148892D01*
X-148359Y-19248D01*
X-146916D01*
X-147456Y-21245D01*
X-146901D01*
X-146369Y-19248D01*
X-144933D01*
X-145465Y-21245D01*
X-144919D01*
X-144262Y-18709D01*
X-146362D01*
Y-16412D01*
D02*
G37*
G36*
X103478Y79461D02*
X101529D01*
X101665Y79179D01*
X101802Y78933D01*
X101866Y78824D01*
X101929Y78723D01*
X101993Y78632D01*
X102048Y78550D01*
X102102Y78477D01*
X102157Y78413D01*
X102194Y78359D01*
X102230Y78313D01*
X102266Y78277D01*
X102285Y78250D01*
X102294Y78240D01*
X102303Y78231D01*
X96445D01*
D01*
Y76591D01*
Y77821D01*
X102303D01*
X102203Y77685D01*
X102112Y77566D01*
X102039Y77475D01*
X101984Y77393D01*
X101938Y77329D01*
X101911Y77284D01*
X101893Y77257D01*
X101884Y77247D01*
X101838Y77165D01*
X101775Y77065D01*
X101720Y76956D01*
X101665Y76856D01*
X101611Y76755D01*
X101565Y76664D01*
X101538Y76610D01*
X101529Y76601D01*
Y76591D01*
X101829D01*
X102021Y76801D01*
X102194Y76974D01*
X102348Y77129D01*
X102485Y77257D01*
X102594Y77348D01*
X102667Y77421D01*
X102722Y77457D01*
X102740Y77475D01*
X102886Y77584D01*
X103023Y77676D01*
X103141Y77749D01*
X103259Y77812D01*
X103350Y77858D01*
X103414Y77894D01*
X103460Y77912D01*
X103478Y77922D01*
Y78231D01*
Y78104D01*
X103332Y78177D01*
X103187Y78259D01*
X103059Y78341D01*
X102941Y78413D01*
X102840Y78486D01*
X102768Y78541D01*
X102722Y78578D01*
X102704Y78587D01*
X102558Y78714D01*
X102412Y78851D01*
X102266Y78997D01*
X102121Y79133D01*
X102002Y79261D01*
X101902Y79370D01*
X101866Y79406D01*
X101838Y79434D01*
X101829Y79452D01*
X101820Y79461D01*
X103478D01*
D02*
G37*
G36*
X101529Y76591D02*
X96445D01*
X101529D01*
D01*
D02*
G37*
G36*
X103478Y72993D02*
X101529D01*
X101665Y72711D01*
X101802Y72465D01*
X101866Y72355D01*
X101929Y72255D01*
X101993Y72164D01*
X102048Y72082D01*
X102102Y72009D01*
X102157Y71945D01*
X102194Y71891D01*
X102230Y71845D01*
X102266Y71809D01*
X102285Y71781D01*
X102294Y71772D01*
X102303Y71763D01*
X96445D01*
D01*
Y70123D01*
Y71353D01*
X102303D01*
X102203Y71217D01*
X102112Y71098D01*
X102039Y71007D01*
X101984Y70925D01*
X101938Y70861D01*
X101911Y70816D01*
X101893Y70788D01*
X101884Y70779D01*
X101838Y70697D01*
X101775Y70597D01*
X101720Y70488D01*
X101665Y70388D01*
X101611Y70287D01*
X101565Y70196D01*
X101538Y70142D01*
X101529Y70132D01*
Y70123D01*
X101829D01*
X102021Y70333D01*
X102194Y70506D01*
X102348Y70661D01*
X102485Y70788D01*
X102594Y70880D01*
X102667Y70952D01*
X102722Y70989D01*
X102740Y71007D01*
X102886Y71116D01*
X103023Y71207D01*
X103141Y71280D01*
X103259Y71344D01*
X103350Y71390D01*
X103414Y71426D01*
X103460Y71444D01*
X103478Y71453D01*
Y71763D01*
Y71636D01*
X103332Y71709D01*
X103187Y71790D01*
X103059Y71873D01*
X102941Y71945D01*
X102840Y72018D01*
X102768Y72073D01*
X102722Y72109D01*
X102704Y72119D01*
X102558Y72246D01*
X102412Y72383D01*
X102266Y72528D01*
X102121Y72665D01*
X102002Y72793D01*
X101902Y72902D01*
X101866Y72938D01*
X101838Y72966D01*
X101829Y72984D01*
X101820Y72993D01*
X103478D01*
D02*
G37*
G36*
X101529Y70123D02*
X96445D01*
X101529D01*
D01*
D02*
G37*
G36*
X98905Y69258D02*
X95844D01*
X98823D01*
X98513Y69240D01*
X98222Y69203D01*
X97966Y69149D01*
X97857Y69121D01*
X97748Y69085D01*
X97657Y69048D01*
X97575Y69021D01*
X97502Y68994D01*
X97438Y68966D01*
X97393Y68948D01*
X97356Y68930D01*
X97338Y68912D01*
X97329D01*
X97101Y68775D01*
X96901Y68629D01*
X96728Y68475D01*
X96582Y68329D01*
X96473Y68192D01*
X96381Y68092D01*
X96354Y68046D01*
X96336Y68019D01*
X96318Y68001D01*
Y67992D01*
X96208Y67809D01*
X96126Y67627D01*
X96053Y67454D01*
X96008Y67299D01*
X95971Y67163D01*
X95953Y67108D01*
X95944Y67053D01*
X95935Y67017D01*
X95926Y66990D01*
Y66962D01*
X95899Y66753D01*
X95880Y66552D01*
X95862Y66352D01*
X95853Y66179D01*
X95844Y66024D01*
Y63956D01*
X101775D01*
Y66033D01*
X101765Y66252D01*
X101747Y66443D01*
X101729Y66616D01*
X101720Y66762D01*
X101711Y66817D01*
X101702Y66871D01*
Y66908D01*
X101692Y66935D01*
Y66962D01*
X101656Y67163D01*
X101601Y67354D01*
X101538Y67527D01*
X101474Y67673D01*
X101410Y67800D01*
X101355Y67892D01*
X101337Y67928D01*
X101319Y67955D01*
X101310Y67964D01*
Y67974D01*
X101164Y68174D01*
X101000Y68356D01*
X100836Y68511D01*
X100672Y68638D01*
X100526Y68748D01*
X100472Y68793D01*
X100417Y68830D01*
X100372Y68857D01*
X100335Y68875D01*
X100317Y68894D01*
X100308D01*
X100053Y69012D01*
X99798Y69103D01*
X99552Y69167D01*
X99315Y69212D01*
X99215Y69231D01*
X99124Y69240D01*
X99032Y69249D01*
X98959D01*
X98905Y69258D01*
D02*
G37*
G36*
X101775Y62753D02*
X95844D01*
Y57670D01*
X101775D01*
Y59027D01*
X97648D01*
X101775Y61323D01*
Y59492D01*
D01*
Y62753D01*
D02*
G37*
G36*
X101447Y56550D02*
X98522D01*
Y53953D01*
X99643D01*
Y55110D01*
X100809D01*
X100818Y55046D01*
Y54728D01*
X100809Y54563D01*
X100800Y54409D01*
X100772Y54263D01*
X100745Y54126D01*
X100699Y53999D01*
X100663Y53880D01*
X100618Y53771D01*
X100572Y53680D01*
X100526Y53598D01*
X100481Y53516D01*
X100435Y53452D01*
X100399Y53398D01*
X100372Y53361D01*
X100344Y53334D01*
X100335Y53316D01*
X100326Y53306D01*
X100226Y53215D01*
X100117Y53133D01*
X99998Y53070D01*
X99880Y53006D01*
X99752Y52960D01*
X99625Y52915D01*
X99379Y52851D01*
X99260Y52833D01*
X99151Y52814D01*
X99051Y52805D01*
X98969Y52796D01*
X98896Y52787D01*
X98841D01*
X98805D01*
X98795D01*
X98623Y52796D01*
X98458Y52805D01*
X98313Y52833D01*
X98194Y52860D01*
X98085Y52878D01*
X98012Y52905D01*
X97966Y52915D01*
X97948Y52924D01*
X97812Y52978D01*
X97693Y53042D01*
X97593Y53097D01*
X97502Y53161D01*
X97429Y53206D01*
X97383Y53252D01*
X97347Y53279D01*
X97338Y53288D01*
X97247Y53379D01*
X97174Y53479D01*
X97110Y53570D01*
X97065Y53662D01*
X97028Y53734D01*
X96992Y53789D01*
X96983Y53835D01*
X96974Y53844D01*
X96928Y53962D01*
X96901Y54090D01*
X96873Y54208D01*
X96864Y54318D01*
X96855Y54409D01*
X96846Y54482D01*
Y54664D01*
X96864Y54782D01*
X96873Y54882D01*
X96891Y54983D01*
X96910Y55055D01*
X96919Y55110D01*
X96937Y55156D01*
Y55165D01*
X96974Y55274D01*
X97010Y55365D01*
X97046Y55456D01*
X97083Y55538D01*
X97110Y55593D01*
X97137Y55648D01*
X97147Y55675D01*
X97156Y55684D01*
X97247Y55830D01*
X97329Y55948D01*
X97365Y56003D01*
X97393Y56039D01*
X97411Y56067D01*
X97420Y56076D01*
X97520Y56212D01*
X97557Y56258D01*
X97584Y56304D01*
X97611Y56340D01*
X97629Y56367D01*
X97648Y56376D01*
Y56522D01*
X96263D01*
X96172Y56340D01*
X96099Y56158D01*
X96035Y55994D01*
X95981Y55848D01*
X95935Y55730D01*
X95908Y55638D01*
X95899Y55602D01*
X95889Y55575D01*
X95880Y55566D01*
Y55556D01*
X95835Y55374D01*
X95798Y55174D01*
X95771Y54974D01*
X95753Y54773D01*
X95744Y54609D01*
X95735Y54536D01*
Y54345D01*
X95744Y54081D01*
X95771Y53835D01*
X95817Y53598D01*
X95862Y53379D01*
X95935Y53179D01*
X95999Y52997D01*
X96081Y52824D01*
X96154Y52669D01*
X96236Y52532D01*
X96318Y52414D01*
X96381Y52313D01*
X96445Y52231D01*
X96500Y52158D01*
X96545Y52113D01*
X96573Y52086D01*
X96582Y52077D01*
X96746Y51931D01*
X96919Y51803D01*
X97101Y51694D01*
X97283Y51594D01*
X97475Y51521D01*
X97657Y51448D01*
X97839Y51393D01*
X98012Y51348D01*
X98176Y51320D01*
X98331Y51293D01*
X98468Y51275D01*
X98586Y51257D01*
X98677D01*
X98750Y51248D01*
X95735D01*
D01*
X101902D01*
Y54955D01*
Y54299D01*
X101893Y54527D01*
X101875Y54746D01*
X101857Y54955D01*
X101829Y55147D01*
X101802Y55301D01*
X101793Y55365D01*
X101775Y55420D01*
X101765Y55465D01*
Y55502D01*
X101756Y55520D01*
Y55529D01*
X101702Y55757D01*
X101638Y55957D01*
X101592Y56130D01*
X101547Y56276D01*
X101501Y56395D01*
X101474Y56477D01*
X101456Y56531D01*
X101447Y56550D01*
D02*
G37*
%LPD*%
G36*
X99014Y67709D02*
X99205Y67691D01*
X99379Y67655D01*
X99515Y67627D01*
X99634Y67591D01*
X99725Y67554D01*
X99779Y67536D01*
X99788Y67527D01*
X99798D01*
X99943Y67445D01*
X100062Y67354D01*
X100171Y67263D01*
X100262Y67172D01*
X100335Y67090D01*
X100381Y67026D01*
X100417Y66980D01*
X100426Y66962D01*
X100490Y66844D01*
X100545Y66725D01*
X100581Y66616D01*
X100608Y66516D01*
X100627Y66434D01*
X100636Y66370D01*
X100645Y66325D01*
Y66170D01*
X100654Y66033D01*
Y65441D01*
X96946D01*
Y65787D01*
X96955Y65915D01*
Y66124D01*
X96964Y66197D01*
Y66252D01*
X96974Y66379D01*
X97001Y66498D01*
X97028Y66598D01*
X97065Y66698D01*
X97092Y66780D01*
X97119Y66835D01*
X97137Y66880D01*
X97147Y66889D01*
X97247Y67035D01*
X97347Y67163D01*
X97456Y67272D01*
X97566Y67354D01*
X97657Y67427D01*
X97730Y67472D01*
X97784Y67500D01*
X97793Y67509D01*
X97803D01*
X97966Y67582D01*
X98131Y67627D01*
X98304Y67664D01*
X98458Y67691D01*
X98595Y67709D01*
X98659D01*
X98704Y67718D01*
X98750D01*
X98777D01*
X98795D01*
X98805D01*
X99014Y67709D01*
D02*
G37*
G36*
X95844Y59492D02*
Y61396D01*
X99242D01*
X95844Y59492D01*
D02*
G37*
G36*
X101902Y51248D02*
X98814D01*
X99078Y51257D01*
X99333Y51284D01*
X99570Y51320D01*
X99798Y51375D01*
X99998Y51439D01*
X100189Y51512D01*
X100353Y51585D01*
X100508Y51666D01*
X100645Y51739D01*
X100763Y51812D01*
X100864Y51885D01*
X100955Y51949D01*
X101018Y52004D01*
X101064Y52040D01*
X101091Y52067D01*
X101100Y52077D01*
X101237Y52241D01*
X101365Y52414D01*
X101474Y52587D01*
X101565Y52778D01*
X101638Y52960D01*
X101702Y53142D01*
X101756Y53325D01*
X101802Y53498D01*
X101838Y53662D01*
X101857Y53816D01*
X101875Y53953D01*
X101893Y54072D01*
Y54163D01*
X101902Y54236D01*
Y51248D01*
D02*
G37*
D10*
X-16732Y97638D02*
G03*
X-16732Y97638I-492J0D01*
G01*
X60236Y-59449D02*
G03*
X60236Y-59449I-492J0D01*
G01*
X-70571Y54707D02*
G03*
X-70571Y54707I-492J0D01*
G01*
X-71457Y5500D02*
G03*
X-71457Y5500I-492J0D01*
G01*
Y-42926D02*
G03*
X-71457Y-42926I-492J0D01*
G01*
Y-94500D02*
G03*
X-71457Y-94500I-492J0D01*
G01*
X77953Y126279D02*
G03*
X77953Y126279I-492J0D01*
G01*
X26870Y95087D02*
G03*
X26870Y95087I-492J0D01*
G01*
X8334Y66574D02*
G03*
X8334Y66574I-492J0D01*
G01*
Y36771D02*
G03*
X8334Y36771I-492J0D01*
G01*
Y-15551D02*
G03*
X8334Y-15551I-492J0D01*
G01*
X8727Y-62913D02*
G03*
X8727Y-62913I-492J0D01*
G01*
X60236Y92090D02*
G03*
X60236Y92090I-492J0D01*
G01*
Y42858D02*
G03*
X60236Y42858I-492J0D01*
G01*
Y-6028D02*
G03*
X60236Y-6028I-492J0D01*
G01*
D11*
X-60154Y-115215D02*
G03*
X-60154Y-115215I-300J0D01*
G01*
X-45369Y116024D02*
G03*
X-45369Y116024I-300J0D01*
G01*
X-53735Y132659D02*
G03*
X-53735Y132659I-300J0D01*
G01*
X-54071Y-113365D02*
X-51638D01*
X-54071Y-122265D02*
X-51638D01*
D12*
X68012Y-63287D02*
G03*
X68012Y-63287I-787J0D01*
G01*
Y88252D02*
G03*
X68012Y88252I-787J0D01*
G01*
Y39020D02*
G03*
X68012Y39020I-787J0D01*
G01*
Y-9866D02*
G03*
X68012Y-9866I-787J0D01*
G01*
D13*
X-117323Y-2065D02*
G03*
X-117323Y-2065I-394J0D01*
G01*
X110236Y88575D02*
G03*
X110236Y88575I-394J0D01*
G01*
Y-2065D02*
G03*
X110236Y-2065I-394J0D01*
G01*
X-117323Y88589D02*
G03*
X-117323Y88589I-394J0D01*
G01*
X-13484Y102362D02*
X-12894D01*
X-8071Y104035D02*
Y106201D01*
X-15059Y107874D02*
X-12894D01*
X-19882Y104035D02*
Y106201D01*
X-35138Y24213D02*
Y31496D01*
X-42421Y24213D02*
X-35138D01*
X-42421Y31496D02*
X-35138D01*
X-42421Y24213D02*
Y31496D01*
X-84442Y123228D02*
Y129528D01*
X-78442Y123228D02*
Y124846D01*
X-90442Y123228D02*
Y124846D01*
X-78442Y127910D02*
Y129528D01*
X-90442Y127878D02*
Y129528D01*
X-78442D01*
X-90442Y123228D02*
X-78442D01*
X-90650Y108992D02*
Y120992D01*
X-84350Y108992D02*
Y120992D01*
X-86000D02*
X-84350D01*
X-85969Y108992D02*
X-84350D01*
X-90650Y120992D02*
X-89031D01*
X-90650Y108992D02*
X-89031D01*
X-90650Y114992D02*
X-84350D01*
X64075Y-71949D02*
Y-60138D01*
X72736Y-71949D02*
Y-60138D01*
X64075D02*
X72736D01*
X64075Y-71949D02*
X72736D01*
X-67716Y129724D02*
X-65354D01*
Y118307D02*
Y129724D01*
X-67716Y118307D02*
X-65354D01*
X-67716D02*
Y129724D01*
X-73819Y130315D02*
X-69095D01*
X-24213Y125433D02*
X-21654D01*
X-24213Y122559D02*
Y125433D01*
Y113937D02*
X-21654D01*
X-24213D02*
Y116811D01*
X-48669Y101376D02*
X-47244D01*
X-44094D02*
X-42669D01*
X-48669Y114171D02*
X-47244D01*
X-44094D02*
X-42669D01*
X-48669Y107774D02*
X-42669D01*
X-48669Y101376D02*
Y114171D01*
X-42669Y101376D02*
Y114171D01*
X-105512Y-85136D02*
Y-5609D01*
X-122047Y-85136D02*
X-105512D01*
X-122047D02*
Y-5609D01*
X-105512D01*
X52559Y101870D02*
X54528D01*
X53543Y100886D02*
Y102854D01*
X54437Y94370D02*
X78437D01*
X54437Y109370D02*
X78437D01*
X54437Y105433D02*
Y109370D01*
X78437Y105433D02*
Y109370D01*
Y94370D02*
Y98307D01*
X54437Y94370D02*
Y98307D01*
X-48425Y124409D02*
X-42913D01*
Y118654D02*
Y130154D01*
X-48425Y118665D02*
Y130154D01*
X-48413Y130165D02*
X-47232D01*
X-44094Y130154D02*
X-42913D01*
X-48425Y118665D02*
X-47244D01*
X-44094Y118654D02*
X-42913D01*
X-57035Y124409D02*
X-51035D01*
X-57035Y118504D02*
Y130315D01*
X-51035Y118504D02*
Y130315D01*
X-57035D02*
X-55610D01*
X-52461D02*
X-51035D01*
X-57035Y118504D02*
X-55610D01*
X-52461D02*
X-51035D01*
X-71949Y67327D02*
Y78332D01*
X-52264D01*
Y67327D02*
Y78332D01*
X-71949Y67327D02*
X-52264D01*
X-72835Y18119D02*
X-53150D01*
Y29125D01*
X-72835D02*
X-53150D01*
X-72835Y18119D02*
Y29125D01*
Y-30306D02*
Y-19300D01*
X-53150D01*
Y-30306D02*
Y-19300D01*
X-72835Y-30306D02*
X-53150D01*
X-72835Y-81881D02*
X-53150D01*
Y-70875D01*
X-72835D02*
X-53150D01*
X-72835Y-81881D02*
Y-70875D01*
X81102Y124902D02*
X84252D01*
X81102Y113484D02*
X84252D01*
X81102D02*
Y124902D01*
X84252Y113484D02*
Y124902D01*
X19587Y96465D02*
X22736D01*
X19587Y107882D02*
X22736D01*
Y96465D02*
Y107882D01*
X19587Y96465D02*
Y107882D01*
X43016Y120276D02*
X55016D01*
X43016Y126575D02*
X55016D01*
X43016Y124925D02*
Y126575D01*
X55016Y124957D02*
Y126575D01*
X43016Y120276D02*
Y121894D01*
X55016Y120276D02*
Y121894D01*
X49016Y120276D02*
Y126575D01*
X56704D02*
X68704D01*
X56704Y120276D02*
X68704D01*
Y121925D01*
X56704Y120276D02*
Y121894D01*
X68704Y124957D02*
Y126575D01*
X56704Y124957D02*
Y126575D01*
X62704Y120276D02*
Y126575D01*
X-19291Y61817D02*
Y68116D01*
X-13291Y61817D02*
Y63435D01*
X-25291Y61817D02*
Y63435D01*
X-13291Y66498D02*
Y68116D01*
X-25291Y66467D02*
Y68116D01*
X-13291D01*
X-25291Y61817D02*
X-13291D01*
X-3248Y68024D02*
X3051D01*
X1433Y74024D02*
X3051D01*
X1433Y62024D02*
X3051D01*
X-3248Y74024D02*
X-1630D01*
X-3248Y62024D02*
X-1598D01*
X-3248D02*
Y74024D01*
X3051Y62024D02*
Y74024D01*
X-25291Y50078D02*
X-13291D01*
X-25291Y56377D02*
X-13291D01*
X-25291Y54728D02*
Y56377D01*
X-13291Y54759D02*
Y56377D01*
X-25291Y50078D02*
Y51696D01*
X-13291Y50078D02*
Y51696D01*
X-19291Y50078D02*
Y56377D01*
X-25291Y25275D02*
X-13291D01*
X-25291Y31574D02*
X-13291D01*
X-25291Y29924D02*
Y31574D01*
X-13291Y29956D02*
Y31574D01*
X-25291Y25275D02*
Y26893D01*
X-13291Y25275D02*
Y26893D01*
X-19291Y25275D02*
Y31574D01*
X-6102Y31482D02*
X197D01*
X-1421Y37482D02*
X197D01*
X-1421Y25482D02*
X197D01*
X-6102Y37482D02*
X-4484D01*
X-6102Y25482D02*
X-4453D01*
X-6102D02*
Y37482D01*
X197Y25482D02*
Y37482D01*
X-19291Y16043D02*
Y22343D01*
X-13291Y16043D02*
Y17661D01*
X-25291Y16043D02*
Y17661D01*
X-13291Y20724D02*
Y22343D01*
X-25291Y20693D02*
Y22343D01*
X-13291D01*
X-25291Y16043D02*
X-13291D01*
X-25291Y-25591D02*
X-13291D01*
X-25291Y-19291D02*
X-13291D01*
X-25291Y-20941D02*
Y-19291D01*
X-13291Y-20909D02*
Y-19291D01*
X-25291Y-25591D02*
Y-23972D01*
X-13291Y-25591D02*
Y-23972D01*
X-19291Y-25591D02*
Y-19291D01*
X197Y-25337D02*
Y-13337D01*
X-6102Y-25337D02*
Y-13337D01*
Y-25337D02*
X-4453D01*
X-6102Y-13337D02*
X-4484D01*
X-1421Y-25337D02*
X197D01*
X-1421Y-13337D02*
X197D01*
X-6102Y-19337D02*
X197D01*
X-19291Y-33957D02*
Y-27657D01*
X-13291Y-33957D02*
Y-32339D01*
X-25291Y-33957D02*
Y-32339D01*
X-13291Y-29276D02*
Y-27657D01*
X-25291Y-29307D02*
Y-27657D01*
X-13291D01*
X-25291Y-33957D02*
X-13291D01*
X-25300Y-72500D02*
X-13300D01*
X-25300Y-66201D02*
X-13300D01*
X-25300Y-67850D02*
Y-66201D01*
X-13300Y-67819D02*
Y-66201D01*
X-25300Y-72500D02*
Y-70882D01*
X-13300Y-72500D02*
Y-70882D01*
X-19300Y-72500D02*
Y-66201D01*
X-2854Y-66293D02*
X3445D01*
X1827Y-60293D02*
X3445D01*
X1827Y-72293D02*
X3445D01*
X-2854Y-60293D02*
X-1236D01*
X-2854Y-72293D02*
X-1205D01*
X-2854D02*
Y-60293D01*
X3445Y-72293D02*
Y-60293D01*
X-19291Y-81850D02*
Y-75551D01*
X-13291Y-81850D02*
Y-80232D01*
X-25291Y-81850D02*
Y-80232D01*
X-13291Y-77169D02*
Y-75551D01*
X-25291Y-77201D02*
Y-75551D01*
X-13291D01*
X-25291Y-81850D02*
X-13291D01*
X11680Y46082D02*
X26444D01*
X11680Y65373D02*
X26444D01*
Y46082D02*
Y65373D01*
X11680Y46082D02*
Y65373D01*
Y16279D02*
Y35570D01*
X26444Y16279D02*
Y35570D01*
X11680D02*
X26444D01*
X11680Y16279D02*
X26444D01*
X11680Y-36043D02*
X26444D01*
X11680Y-16752D02*
X26444D01*
Y-36043D02*
Y-16752D01*
X11680Y-36043D02*
Y-16752D01*
X12074Y-83406D02*
X26838D01*
X12074Y-64114D02*
X26838D01*
Y-83406D02*
Y-64114D01*
X12074Y-83406D02*
Y-64114D01*
X64075Y79590D02*
X72736D01*
X64075Y91402D02*
X72736D01*
Y79590D02*
Y91402D01*
X64075Y79590D02*
Y91402D01*
Y30358D02*
Y42169D01*
X72736Y30358D02*
Y42169D01*
X64075D02*
X72736D01*
X64075Y30358D02*
X72736D01*
X64075Y-18528D02*
X72736D01*
X64075Y-6717D02*
X72736D01*
Y-18528D02*
Y-6717D01*
X64075Y-18528D02*
Y-6717D01*
X54339Y45354D02*
Y49291D01*
X78339Y45354D02*
Y49291D01*
Y56417D02*
Y60354D01*
X54339Y56417D02*
Y60354D01*
X78339D01*
X54339Y45354D02*
X78339D01*
X53445Y51870D02*
Y53839D01*
X52461Y52854D02*
X54429D01*
X52658Y4232D02*
X54626D01*
X53642Y3248D02*
Y5217D01*
X54535Y-3268D02*
X78535D01*
X54535Y11732D02*
X78535D01*
X54535Y7795D02*
Y11732D01*
X78535Y7795D02*
Y11732D01*
Y-3268D02*
Y669D01*
X54535Y-3268D02*
Y669D01*
X52461Y-50492D02*
X54429D01*
X53445Y-51476D02*
Y-49508D01*
X54339Y-57992D02*
X78339D01*
X54339Y-42992D02*
X78339D01*
X54339Y-46929D02*
Y-42992D01*
X78339Y-46929D02*
Y-42992D01*
Y-57992D02*
Y-54055D01*
X54339Y-57992D02*
Y-54055D01*
X122047Y5504D02*
Y85031D01*
X105512Y5504D02*
X122047D01*
X105512D02*
Y85031D01*
X122047D01*
Y-85136D02*
Y-5609D01*
X105512Y-85136D02*
X122047D01*
X105512D02*
Y-5609D01*
X122047D01*
X-105512Y5518D02*
Y85045D01*
X-122047Y5518D02*
X-105512D01*
X-122047D02*
Y85045D01*
X-105512D01*
X37697Y110039D02*
X44980D01*
Y102756D02*
Y110039D01*
X37697Y102756D02*
X44980D01*
X37697D02*
Y110039D01*
X-57677Y141535D02*
Y148819D01*
Y141535D02*
X-50394D01*
Y148819D01*
X-57677D02*
X-50394D01*
X36122Y69980D02*
X43406D01*
Y62697D02*
Y69980D01*
X36122Y62697D02*
X43406D01*
X36122D02*
Y69980D01*
X-41732Y77461D02*
Y84744D01*
Y77461D02*
X-34449D01*
Y84744D01*
X-41732D02*
X-34449D01*
X36122Y15943D02*
X43406D01*
Y8660D02*
Y15943D01*
X36122Y8660D02*
X43406D01*
X36122D02*
Y15943D01*
X39615Y-32482D02*
X46899D01*
X39615Y-39765D02*
Y-32482D01*
Y-39765D02*
X46899D01*
Y-32482D01*
X47539Y-92716D02*
Y-85433D01*
X54823D01*
X47539Y-92716D02*
X54823D01*
Y-85433D01*
X-34646Y-73622D02*
Y-66339D01*
X-41929Y-73622D02*
X-34646D01*
X-41929Y-66339D02*
X-34646D01*
X-41929Y-73622D02*
Y-66339D01*
X-41732Y57867D02*
Y65151D01*
X-34449D01*
X-41732Y57867D02*
X-34449D01*
Y65151D01*
X80512Y-122244D02*
Y-114961D01*
Y-122244D02*
X87795D01*
Y-114961D01*
X80512D02*
X87795D01*
X36122Y56869D02*
X43406D01*
Y49586D02*
Y56869D01*
X36122Y49586D02*
X43406D01*
X36122D02*
Y56869D01*
X36122Y19783D02*
Y27066D01*
Y19783D02*
X43406D01*
Y27066D01*
X36122D02*
X43406D01*
X36122Y-14961D02*
X43406D01*
Y-22244D02*
Y-14961D01*
X36122Y-22244D02*
X43406D01*
X36122D02*
Y-14961D01*
X37402Y-71653D02*
Y-64370D01*
Y-71653D02*
X44685D01*
Y-64370D01*
X37402D02*
X44685D01*
X-41732Y-39765D02*
X-34449D01*
X-41732D02*
Y-32482D01*
X-34449Y-39765D02*
Y-32482D01*
X-41732D02*
X-34449D01*
X-41929Y-85236D02*
Y-77953D01*
Y-85236D02*
X-34646D01*
Y-77953D01*
X-41929D02*
X-34646D01*
X34744Y-132972D02*
Y-125689D01*
X42028D01*
X34744Y-132972D02*
X42028D01*
Y-125689D01*
X73786Y132382D02*
Y139665D01*
Y132382D02*
X81070D01*
Y139665D01*
X73786D02*
X81070D01*
X-41929Y-8980D02*
X-34646D01*
Y-16264D02*
Y-8980D01*
X-41929Y-16264D02*
X-34646D01*
X-41929D02*
Y-8980D01*
X53365Y-132972D02*
Y-125689D01*
X46081Y-132972D02*
X53365D01*
X46081Y-125689D02*
X53365D01*
X46081Y-132972D02*
Y-125689D01*
X-40453Y-95864D02*
Y-88581D01*
X-33169D01*
X-40453Y-95864D02*
X-33169D01*
Y-88581D01*
X-18211Y-95864D02*
Y-88581D01*
X-25494Y-95864D02*
X-18211D01*
X-25494Y-88581D02*
X-18211D01*
X-25494Y-95864D02*
Y-88581D01*
X-42421Y8660D02*
X-35138D01*
X-42421D02*
Y15943D01*
X-35138Y8660D02*
Y15943D01*
X-42421D02*
X-35138D01*
X46161Y-46260D02*
X49606Y-49705D01*
Y-51821D02*
Y-49705D01*
X44193Y-46260D02*
X46161D01*
X49803Y33858D02*
Y37402D01*
X48327Y32382D02*
X49803Y33858D01*
X84055Y110630D02*
X87992D01*
X90354Y108268D01*
X82677Y112008D02*
X84055Y110630D01*
X163878Y0D02*
G03*
X163878Y0I-163878J0D01*
G01*
D14*
X-68012Y70280D02*
G03*
X-68012Y70280I-984J0D01*
G01*
X-68898Y21072D02*
G03*
X-68898Y21072I-984J0D01*
G01*
Y-27353D02*
G03*
X-68898Y-27353I-984J0D01*
G01*
Y-78928D02*
G03*
X-68898Y-78928I-984J0D01*
G01*
D15*
X16798Y61436D02*
G03*
X16798Y61436I-1181J0D01*
G01*
Y31633D02*
G03*
X16798Y31633I-1181J0D01*
G01*
Y-20689D02*
G03*
X16798Y-20689I-1181J0D01*
G01*
X17192Y-68051D02*
G03*
X17192Y-68051I-1181J0D01*
G01*
D16*
X-80807Y-72638D02*
X-79626D01*
X-80807Y-83661D02*
Y-72638D01*
Y-83661D02*
X-79626D01*
X-76476D02*
X-75295D01*
Y-72638D01*
X-76476D02*
X-75295D01*
X-98521Y109194D02*
X-97340D01*
X-94190Y109183D02*
X-93009D01*
X-98521Y114938D02*
X-93015D01*
X-93009Y109183D02*
Y120683D01*
X-94190D02*
X-93009D01*
X-98509Y120694D02*
X-97328D01*
X-98521Y109194D02*
Y120683D01*
X51178Y-52720D02*
X52359D01*
X46847Y-52709D02*
X48029D01*
X46853Y-58465D02*
X52359D01*
X46847Y-64209D02*
Y-52709D01*
Y-64209D02*
X48029D01*
X51166Y-64220D02*
X52347D01*
X52359Y-64209D02*
Y-52720D01*
X93113Y113252D02*
X94294D01*
X97444Y113240D02*
X98625D01*
X93113Y118996D02*
X98619D01*
X98625Y113240D02*
Y124740D01*
X97444D02*
X98625D01*
X93125Y124752D02*
X94306D01*
X93113Y113252D02*
Y124740D01*
X-72083Y137399D02*
X-60594D01*
X-60583Y136206D02*
Y137387D01*
X-60594Y131887D02*
Y133068D01*
X-72095Y131887D02*
X-60594D01*
X-66339Y131893D02*
Y137399D01*
X-72095Y131887D02*
Y133068D01*
X-72083Y136217D02*
Y137399D01*
X9774Y107917D02*
X10955D01*
X5443Y107929D02*
X6624D01*
X5449Y102173D02*
X10955D01*
X5443Y96429D02*
Y107929D01*
Y96429D02*
X6624D01*
X9762Y96417D02*
X10943D01*
X10955Y96429D02*
Y107917D01*
X-75590Y76570D02*
X-74409D01*
Y65546D02*
Y76570D01*
X-75590Y65546D02*
X-74409D01*
X-79921D02*
X-78740D01*
X-79921D02*
Y76570D01*
X-78740D01*
X-76476Y27362D02*
X-75295D01*
Y16339D02*
Y27362D01*
X-76476Y16339D02*
X-75295D01*
X-80807D02*
X-79626D01*
X-80807D02*
Y27362D01*
X-79626D01*
X-76476Y-21063D02*
X-75295D01*
Y-32087D02*
Y-21063D01*
X-76476Y-32087D02*
X-75295D01*
X-80807D02*
X-79626D01*
X-80807D02*
Y-21063D01*
X-79626D01*
X92752Y90554D02*
Y91735D01*
X92764Y94885D02*
Y96066D01*
X87008Y90554D02*
Y96060D01*
X81264Y96066D02*
X92764D01*
X81264Y94885D02*
Y96066D01*
X81252Y90566D02*
Y91747D01*
X81264Y90554D02*
X92752D01*
X51473Y87071D02*
Y98559D01*
X50280Y87059D02*
X51462D01*
X45962Y87071D02*
X47143D01*
X45962D02*
Y98571D01*
X45968Y92815D02*
X51473D01*
X45962Y98571D02*
X47143D01*
X50292Y98559D02*
X51473D01*
X85824Y55154D02*
X87005D01*
X81493Y55165D02*
X82674D01*
X81499Y49409D02*
X87005D01*
X81493Y43665D02*
Y55165D01*
Y43665D02*
X82674D01*
X85812Y43654D02*
X86993D01*
X87005Y43665D02*
Y55154D01*
X52359Y38252D02*
Y49740D01*
X51166Y38240D02*
X52347D01*
X46847Y38252D02*
X48029D01*
X46847D02*
Y49752D01*
X46853Y43996D02*
X52359D01*
X46847Y49752D02*
X48029D01*
X51178Y49740D02*
X52359D01*
X87005Y-4465D02*
Y7024D01*
X85812Y-4476D02*
X86993D01*
X81493Y-4465D02*
X82674D01*
X81493D02*
Y7035D01*
X81499Y1280D02*
X87005D01*
X81493Y7035D02*
X82674D01*
X85824Y7024D02*
X87005D01*
X13744Y-9649D02*
Y-8467D01*
X13732Y-13979D02*
Y-12798D01*
X19488Y-13973D02*
Y-8467D01*
X13732Y-13979D02*
X25232D01*
Y-12798D01*
X25244Y-9660D02*
Y-8479D01*
X13744Y-8467D02*
X25232D01*
X50391Y-8598D02*
Y2890D01*
X49198Y-8610D02*
X50379D01*
X44879Y-8598D02*
X46060D01*
X44879D02*
Y2902D01*
X44885Y-2854D02*
X50391D01*
X44879Y2902D02*
X46060D01*
X49210Y2890D02*
X50391D01*
X85332Y-46815D02*
X86513D01*
X81001Y-46803D02*
X82182D01*
X81007Y-52559D02*
X86513D01*
X81001Y-58303D02*
Y-46803D01*
Y-58303D02*
X82182D01*
X85320Y-58315D02*
X86501D01*
X86513Y-58303D02*
Y-46815D01*
X13712Y-57621D02*
Y-56440D01*
X13700Y-61952D02*
Y-60771D01*
X19456Y-61946D02*
Y-56440D01*
X13700Y-61952D02*
X25200D01*
Y-60771D01*
X25212Y-57633D02*
Y-56452D01*
X13712Y-56440D02*
X25200D01*
X13350Y72654D02*
Y73835D01*
X13339Y68323D02*
Y69505D01*
X19094Y68329D02*
Y73835D01*
X13339Y68323D02*
X24839D01*
Y69505D01*
X24850Y72642D02*
Y73823D01*
X13350Y73835D02*
X24839D01*
X13842Y42222D02*
Y43403D01*
X13831Y37891D02*
Y39072D01*
X19587Y37897D02*
Y43403D01*
X13831Y37891D02*
X25331D01*
Y39072D01*
X25343Y42210D02*
Y43391D01*
X13842Y43403D02*
X25331D01*
D17*
X-88405Y-29233D02*
X-89061Y-29889D01*
Y-31201D01*
X-88405Y-31857D01*
X-85781D01*
X-85125Y-31201D01*
Y-29889D01*
X-85781Y-29233D01*
X-88405Y-27921D02*
X-89061Y-27265D01*
Y-25953D01*
X-88405Y-25297D01*
X-87749D01*
X-87093Y-25953D01*
Y-26609D01*
Y-25953D01*
X-86437Y-25297D01*
X-85781D01*
X-85125Y-25953D01*
Y-27265D01*
X-85781Y-27921D01*
X-89061Y-21361D02*
X-88405Y-22673D01*
X-87093Y-23985D01*
X-85781D01*
X-85125Y-23329D01*
Y-22017D01*
X-85781Y-21361D01*
X-86437D01*
X-87093Y-22017D01*
Y-23985D01*
X-17876Y94036D02*
X-20500D01*
Y90100D01*
X-17876D01*
X-20500Y92068D02*
X-19188D01*
X-13940Y93380D02*
X-14596Y94036D01*
X-15908D01*
X-16564Y93380D01*
Y92724D01*
X-15908Y92068D01*
X-14596D01*
X-13940Y91412D01*
Y90756D01*
X-14596Y90100D01*
X-15908D01*
X-16564Y90756D01*
X-12629Y94036D02*
Y90100D01*
X-10661D01*
X-10005Y90756D01*
Y93380D01*
X-10661Y94036D01*
X-12629D01*
X-8693Y90100D02*
X-7381D01*
X-8037D01*
Y94036D01*
X-8693Y93380D01*
X-44000Y38436D02*
X-41376D01*
X-42688D01*
Y34500D01*
X-40064D02*
Y38436D01*
X-38096D01*
X-37440Y37780D01*
Y36468D01*
X-38096Y35812D01*
X-40064D01*
X-36129Y38436D02*
X-33505D01*
Y37780D01*
X-36129Y35156D01*
Y34500D01*
X-87630Y131497D02*
Y135433D01*
X-85662D01*
X-85006Y134776D01*
Y133465D01*
X-85662Y132809D01*
X-87630D01*
X-86318D02*
X-85006Y131497D01*
X-83694Y134776D02*
X-83039Y135433D01*
X-81727D01*
X-81071Y134776D01*
Y134121D01*
X-81727Y133465D01*
X-82383D01*
X-81727D01*
X-81071Y132809D01*
Y132153D01*
X-81727Y131497D01*
X-83039D01*
X-83694Y132153D01*
X-90800Y102000D02*
Y105936D01*
X-88832D01*
X-88176Y105280D01*
Y103968D01*
X-88832Y103312D01*
X-90800D01*
X-89488D02*
X-88176Y102000D01*
X-84896D02*
Y105936D01*
X-86864Y103968D01*
X-84240D01*
X-60900Y-105964D02*
X-58276D01*
X-59588D01*
Y-109900D01*
X-56964Y-105964D02*
Y-108588D01*
X-55652Y-109900D01*
X-54340Y-108588D01*
Y-105964D01*
X-50405Y-106620D02*
X-51061Y-105964D01*
X-52373D01*
X-53029Y-106620D01*
Y-107276D01*
X-52373Y-107932D01*
X-51061D01*
X-50405Y-108588D01*
Y-109244D01*
X-51061Y-109900D01*
X-52373D01*
X-53029Y-109244D01*
X-46469Y-109900D02*
X-49093D01*
X-46469Y-107276D01*
Y-106620D01*
X-47125Y-105964D01*
X-48437D01*
X-49093Y-106620D01*
X61200Y-79200D02*
Y-76576D01*
X62512Y-75264D01*
X63824Y-76576D01*
Y-79200D01*
Y-77232D01*
X61200D01*
X65136Y-75264D02*
Y-79200D01*
X67104D01*
X67760Y-78544D01*
Y-75920D01*
X67104Y-75264D01*
X65136D01*
X71695Y-75920D02*
X71039Y-75264D01*
X69727D01*
X69072Y-75920D01*
Y-78544D01*
X69727Y-79200D01*
X71039D01*
X71695Y-78544D01*
X73007Y-75920D02*
X73663Y-75264D01*
X74975D01*
X75631Y-75920D01*
Y-76576D01*
X74975Y-77232D01*
X75631Y-77888D01*
Y-78544D01*
X74975Y-79200D01*
X73663D01*
X73007Y-78544D01*
Y-77888D01*
X73663Y-77232D01*
X73007Y-76576D01*
Y-75920D01*
X73663Y-77232D02*
X74975D01*
X-75100Y114336D02*
Y111712D01*
X-73788Y110400D01*
X-72476Y111712D01*
Y114336D01*
X-71164Y110400D02*
Y114336D01*
X-69196D01*
X-68540Y113680D01*
Y112368D01*
X-69196Y111712D01*
X-71164D01*
X-69852D02*
X-68540Y110400D01*
X-64605Y114336D02*
X-67229D01*
Y110400D01*
X-64605D01*
X-67229Y112368D02*
X-65917D01*
X-60669Y113680D02*
X-61325Y114336D01*
X-62637D01*
X-63293Y113680D01*
Y111056D01*
X-62637Y110400D01*
X-61325D01*
X-60669Y111056D01*
Y112368D01*
X-61981D01*
X-59357Y110400D02*
X-58045D01*
X-58701D01*
Y114336D01*
X-59357Y113680D01*
X-6676Y118356D02*
Y120980D01*
X-7332Y121636D01*
X-8644D01*
X-9300Y120980D01*
Y118356D01*
X-8644Y117700D01*
X-7332D01*
X-7988Y119012D02*
X-6676Y117700D01*
X-7332D02*
X-6676Y118356D01*
X-5364Y117700D02*
X-4052D01*
X-4708D01*
Y121636D01*
X-5364Y120980D01*
X-39600Y110736D02*
Y106800D01*
X-36976D01*
X-33040D02*
X-35664D01*
X-33040Y109424D01*
Y110080D01*
X-33696Y110736D01*
X-35008D01*
X-35664Y110080D01*
X-114476Y-88164D02*
X-115788D01*
X-115132D01*
Y-91444D01*
X-115788Y-92100D01*
X-116444D01*
X-117100Y-91444D01*
X-110540Y-88164D02*
X-113164D01*
Y-90132D01*
X-111852Y-89476D01*
X-111196D01*
X-110540Y-90132D01*
Y-91444D01*
X-111196Y-92100D01*
X-112508D01*
X-113164Y-91444D01*
X-87580Y-80076D02*
X-88236Y-80732D01*
Y-82044D01*
X-87580Y-82700D01*
X-84956D01*
X-84300Y-82044D01*
Y-80732D01*
X-84956Y-80076D01*
X-84300Y-76796D02*
X-88236D01*
X-86268Y-78764D01*
Y-76140D01*
X-84300Y-74828D02*
Y-73517D01*
Y-74173D01*
X-88236D01*
X-87580Y-74828D01*
X62924Y115680D02*
X62268Y116336D01*
X60956D01*
X60300Y115680D01*
Y113056D01*
X60956Y112400D01*
X62268D01*
X62924Y113056D01*
X66860Y112400D02*
X64236D01*
X66860Y115024D01*
Y115680D01*
X66204Y116336D01*
X64892D01*
X64236Y115680D01*
X68172Y113056D02*
X68827Y112400D01*
X70139D01*
X70795Y113056D01*
Y115680D01*
X70139Y116336D01*
X68827D01*
X68172Y115680D01*
Y115024D01*
X68827Y114368D01*
X70795D01*
X-96325Y125524D02*
X-96981Y126181D01*
X-98293D01*
X-98949Y125524D01*
Y122901D01*
X-98293Y122245D01*
X-96981D01*
X-96325Y122901D01*
X-93046Y122245D02*
Y126181D01*
X-95013Y124213D01*
X-92390D01*
X34778Y-44653D02*
X34122Y-43997D01*
X32810D01*
X32154Y-44653D01*
Y-47276D01*
X32810Y-47932D01*
X34122D01*
X34778Y-47276D01*
X38058Y-47932D02*
Y-43997D01*
X36090Y-45965D01*
X38713D01*
X42649Y-43997D02*
X40025D01*
Y-45965D01*
X41337Y-45309D01*
X41993D01*
X42649Y-45965D01*
Y-47276D01*
X41993Y-47932D01*
X40681D01*
X40025Y-47276D01*
X-46276Y136480D02*
X-46932Y137136D01*
X-48244D01*
X-48900Y136480D01*
Y133856D01*
X-48244Y133200D01*
X-46932D01*
X-46276Y133856D01*
X-42340Y133200D02*
X-44964D01*
X-42340Y135824D01*
Y136480D01*
X-42996Y137136D01*
X-44308D01*
X-44964Y136480D01*
X103248Y120210D02*
X102592Y120865D01*
X101280D01*
X100624Y120210D01*
Y117586D01*
X101280Y116930D01*
X102592D01*
X103248Y117586D01*
X104560Y116930D02*
X105872D01*
X105216D01*
Y120865D01*
X104560Y120210D01*
X-66995Y142650D02*
X-67651Y143306D01*
X-68962D01*
X-69618Y142650D01*
Y140027D01*
X-68962Y139371D01*
X-67651D01*
X-66995Y140027D01*
X-65683Y142650D02*
X-65027Y143306D01*
X-63715D01*
X-63059Y142650D01*
Y141995D01*
X-63715Y141339D01*
X-64371D01*
X-63715D01*
X-63059Y140683D01*
Y140027D01*
X-63715Y139371D01*
X-65027D01*
X-65683Y140027D01*
X7524Y114180D02*
X6868Y114836D01*
X5556D01*
X4900Y114180D01*
Y111556D01*
X5556Y110900D01*
X6868D01*
X7524Y111556D01*
X11460Y114836D02*
X8836D01*
Y112868D01*
X10148Y113524D01*
X10804D01*
X11460Y112868D01*
Y111556D01*
X10804Y110900D01*
X9492D01*
X8836Y111556D01*
X-86680Y68424D02*
X-87336Y67768D01*
Y66456D01*
X-86680Y65800D01*
X-84056D01*
X-83400Y66456D01*
Y67768D01*
X-84056Y68424D01*
X-83400Y72360D02*
Y69736D01*
X-86024Y72360D01*
X-86680D01*
X-87336Y71704D01*
Y70392D01*
X-86680Y69736D01*
X-87336Y76295D02*
X-86680Y74983D01*
X-85368Y73672D01*
X-84056D01*
X-83400Y74327D01*
Y75639D01*
X-84056Y76295D01*
X-84712D01*
X-85368Y75639D01*
Y73672D01*
X-87580Y19924D02*
X-88236Y19268D01*
Y17956D01*
X-87580Y17300D01*
X-84956D01*
X-84300Y17956D01*
Y19268D01*
X-84956Y19924D01*
X-87580Y21236D02*
X-88236Y21892D01*
Y23204D01*
X-87580Y23860D01*
X-86924D01*
X-86268Y23204D01*
Y22548D01*
Y23204D01*
X-85612Y23860D01*
X-84956D01*
X-84300Y23204D01*
Y21892D01*
X-84956Y21236D01*
X-84300Y25172D02*
Y26483D01*
Y25827D01*
X-88236D01*
X-87580Y25172D01*
X-56758Y138582D02*
Y134646D01*
X-54134D01*
X-52822D02*
X-51510D01*
X-52166D01*
Y138582D01*
X-52822Y137926D01*
X-43300Y64800D02*
X-47236D01*
X-45924Y66112D01*
X-47236Y67424D01*
X-43300D01*
X-47236Y68736D02*
X-43956D01*
X-43300Y69392D01*
Y70704D01*
X-43956Y71360D01*
X-47236D01*
Y72672D02*
X-43300Y75295D01*
X-47236D02*
X-43300Y72672D01*
X-47236Y79231D02*
Y76607D01*
X-45268D01*
X-45924Y77919D01*
Y78575D01*
X-45268Y79231D01*
X-43956D01*
X-43300Y78575D01*
Y77263D01*
X-43956Y76607D01*
X-44200Y15600D02*
X-48136D01*
X-46824Y16912D01*
X-48136Y18224D01*
X-44200D01*
X-48136Y19536D02*
X-44856D01*
X-44200Y20192D01*
Y21504D01*
X-44856Y22160D01*
X-48136D01*
Y23471D02*
X-44200Y26095D01*
X-48136D02*
X-44200Y23471D01*
X-48136Y30031D02*
X-47480Y28719D01*
X-46168Y27407D01*
X-44856D01*
X-44200Y28063D01*
Y29375D01*
X-44856Y30031D01*
X-45512D01*
X-46168Y29375D01*
Y27407D01*
X-44200Y-32800D02*
X-48136D01*
X-46824Y-31488D01*
X-48136Y-30176D01*
X-44200D01*
X-48136Y-28864D02*
X-44856D01*
X-44200Y-28208D01*
Y-26896D01*
X-44856Y-26240D01*
X-48136D01*
Y-24928D02*
X-44200Y-22305D01*
X-48136D02*
X-44200Y-24928D01*
X-48136Y-20993D02*
Y-18369D01*
X-47480D01*
X-44856Y-20993D01*
X-44200D01*
Y-84400D02*
X-48136D01*
X-46824Y-83088D01*
X-48136Y-81776D01*
X-44200D01*
X-48136Y-80464D02*
X-44856D01*
X-44200Y-79808D01*
Y-78496D01*
X-44856Y-77840D01*
X-48136D01*
Y-76529D02*
X-44200Y-73905D01*
X-48136D02*
X-44200Y-76529D01*
X-47480Y-72593D02*
X-48136Y-71937D01*
Y-70625D01*
X-47480Y-69969D01*
X-46824D01*
X-46168Y-70625D01*
X-45512Y-69969D01*
X-44856D01*
X-44200Y-70625D01*
Y-71937D01*
X-44856Y-72593D01*
X-45512D01*
X-46168Y-71937D01*
X-46824Y-72593D01*
X-47480D01*
X-46168Y-71937D02*
Y-70625D01*
X91768Y110137D02*
Y107513D01*
X93080Y106201D01*
X94392Y107513D01*
Y110137D01*
X95704Y106201D02*
Y110137D01*
X97672D01*
X98327Y109481D01*
Y108169D01*
X97672Y107513D01*
X95704D01*
X97016D02*
X98327Y106201D01*
X102263Y110137D02*
X99639D01*
Y106201D01*
X102263D01*
X99639Y108169D02*
X100951D01*
X106199Y110137D02*
X103575D01*
Y108169D01*
X104887D01*
X103575D01*
Y106201D01*
X107511D02*
X108823D01*
X108167D01*
Y110137D01*
X107511Y109481D01*
X12000Y91436D02*
Y88812D01*
X13312Y87500D01*
X14624Y88812D01*
Y91436D01*
X15936Y87500D02*
Y91436D01*
X17904D01*
X18560Y90780D01*
Y89468D01*
X17904Y88812D01*
X15936D01*
X17248D02*
X18560Y87500D01*
X22495Y91436D02*
X19872D01*
Y87500D01*
X22495D01*
X19872Y89468D02*
X21183D01*
X26431Y91436D02*
X23807D01*
Y89468D01*
X25119D01*
X23807D01*
Y87500D01*
X30367D02*
X27743D01*
X30367Y90124D01*
Y90780D01*
X29711Y91436D01*
X28399D01*
X27743Y90780D01*
X46400Y113300D02*
Y117236D01*
X48368D01*
X49024Y116580D01*
Y115268D01*
X48368Y114612D01*
X46400D01*
X47712D02*
X49024Y113300D01*
X50336D02*
X51648D01*
X50992D01*
Y117236D01*
X50336Y116580D01*
X59400Y129600D02*
Y133536D01*
X61368D01*
X62024Y132880D01*
Y131568D01*
X61368Y130912D01*
X59400D01*
X60712D02*
X62024Y129600D01*
X65960D02*
X63336D01*
X65960Y132224D01*
Y132880D01*
X65304Y133536D01*
X63992D01*
X63336Y132880D01*
X-24200Y71100D02*
Y75036D01*
X-22232D01*
X-21576Y74380D01*
Y73068D01*
X-22232Y72412D01*
X-24200D01*
X-22888D02*
X-21576Y71100D01*
X-20264D02*
X-18952D01*
X-19608D01*
Y75036D01*
X-20264Y74380D01*
X-16984Y75036D02*
X-14361D01*
Y74380D01*
X-16984Y71756D01*
Y71100D01*
X-5000Y77000D02*
Y80936D01*
X-3032D01*
X-2376Y80280D01*
Y78968D01*
X-3032Y78312D01*
X-5000D01*
X-3688D02*
X-2376Y77000D01*
X-1064D02*
X248D01*
X-408D01*
Y80936D01*
X-1064Y80280D01*
X2215D02*
X2871Y80936D01*
X4183D01*
X4839Y80280D01*
Y79624D01*
X4183Y78968D01*
X4839Y78312D01*
Y77656D01*
X4183Y77000D01*
X2871D01*
X2215Y77656D01*
Y78312D01*
X2871Y78968D01*
X2215Y79624D01*
Y80280D01*
X2871Y78968D02*
X4183D01*
X-24200Y43100D02*
Y47036D01*
X-22232D01*
X-21576Y46380D01*
Y45068D01*
X-22232Y44412D01*
X-24200D01*
X-22888D02*
X-21576Y43100D01*
X-20264D02*
X-18952D01*
X-19608D01*
Y47036D01*
X-20264Y46380D01*
X-16984Y43756D02*
X-16329Y43100D01*
X-15017D01*
X-14361Y43756D01*
Y46380D01*
X-15017Y47036D01*
X-16329D01*
X-16984Y46380D01*
Y45724D01*
X-16329Y45068D01*
X-14361D01*
X-24500Y34600D02*
Y38536D01*
X-22532D01*
X-21876Y37880D01*
Y36568D01*
X-22532Y35912D01*
X-24500D01*
X-23188D02*
X-21876Y34600D01*
X-17940D02*
X-20564D01*
X-17940Y37224D01*
Y37880D01*
X-18596Y38536D01*
X-19908D01*
X-20564Y37880D01*
X-16628D02*
X-15973Y38536D01*
X-14661D01*
X-14005Y37880D01*
Y35256D01*
X-14661Y34600D01*
X-15973D01*
X-16628Y35256D01*
Y37880D01*
X-7500Y18500D02*
Y22436D01*
X-5532D01*
X-4876Y21780D01*
Y20468D01*
X-5532Y19812D01*
X-7500D01*
X-6188D02*
X-4876Y18500D01*
X-940D02*
X-3564D01*
X-940Y21124D01*
Y21780D01*
X-1596Y22436D01*
X-2908D01*
X-3564Y21780D01*
X372Y18500D02*
X1683D01*
X1027D01*
Y22436D01*
X372Y21780D01*
X-24500Y9100D02*
Y13036D01*
X-22532D01*
X-21876Y12380D01*
Y11068D01*
X-22532Y10412D01*
X-24500D01*
X-23188D02*
X-21876Y9100D01*
X-17940D02*
X-20564D01*
X-17940Y11724D01*
Y12380D01*
X-18596Y13036D01*
X-19908D01*
X-20564Y12380D01*
X-14005Y9100D02*
X-16628D01*
X-14005Y11724D01*
Y12380D01*
X-14661Y13036D01*
X-15973D01*
X-16628Y12380D01*
X-24500Y-16300D02*
Y-12364D01*
X-22532D01*
X-21876Y-13020D01*
Y-14332D01*
X-22532Y-14988D01*
X-24500D01*
X-23188D02*
X-21876Y-16300D01*
X-17940D02*
X-20564D01*
X-17940Y-13676D01*
Y-13020D01*
X-18596Y-12364D01*
X-19908D01*
X-20564Y-13020D01*
X-16628D02*
X-15973Y-12364D01*
X-14661D01*
X-14005Y-13020D01*
Y-13676D01*
X-14661Y-14332D01*
X-15317D01*
X-14661D01*
X-14005Y-14988D01*
Y-15644D01*
X-14661Y-16300D01*
X-15973D01*
X-16628Y-15644D01*
X-8200Y-10300D02*
Y-6364D01*
X-6232D01*
X-5576Y-7020D01*
Y-8332D01*
X-6232Y-8988D01*
X-8200D01*
X-6888D02*
X-5576Y-10300D01*
X-1640D02*
X-4264D01*
X-1640Y-7676D01*
Y-7020D01*
X-2296Y-6364D01*
X-3608D01*
X-4264Y-7020D01*
X1639Y-10300D02*
Y-6364D01*
X-329Y-8332D01*
X2295D01*
X-24500Y-40900D02*
Y-36964D01*
X-22532D01*
X-21876Y-37620D01*
Y-38932D01*
X-22532Y-39588D01*
X-24500D01*
X-23188D02*
X-21876Y-40900D01*
X-17940D02*
X-20564D01*
X-17940Y-38276D01*
Y-37620D01*
X-18596Y-36964D01*
X-19908D01*
X-20564Y-37620D01*
X-14005Y-36964D02*
X-16628D01*
Y-38932D01*
X-15317Y-38276D01*
X-14661D01*
X-14005Y-38932D01*
Y-40244D01*
X-14661Y-40900D01*
X-15973D01*
X-16628Y-40244D01*
X-24500Y-63200D02*
Y-59264D01*
X-22532D01*
X-21876Y-59920D01*
Y-61232D01*
X-22532Y-61888D01*
X-24500D01*
X-23188D02*
X-21876Y-63200D01*
X-17940D02*
X-20564D01*
X-17940Y-60576D01*
Y-59920D01*
X-18596Y-59264D01*
X-19908D01*
X-20564Y-59920D01*
X-14005Y-59264D02*
X-15317Y-59920D01*
X-16628Y-61232D01*
Y-62544D01*
X-15973Y-63200D01*
X-14661D01*
X-14005Y-62544D01*
Y-61888D01*
X-14661Y-61232D01*
X-16628D01*
X-5000Y-57300D02*
Y-53364D01*
X-3032D01*
X-2376Y-54020D01*
Y-55332D01*
X-3032Y-55988D01*
X-5000D01*
X-3688D02*
X-2376Y-57300D01*
X1560D02*
X-1064D01*
X1560Y-54676D01*
Y-54020D01*
X904Y-53364D01*
X-408D01*
X-1064Y-54020D01*
X2871Y-53364D02*
X5495D01*
Y-54020D01*
X2871Y-56644D01*
Y-57300D01*
X-10300Y-80700D02*
Y-76764D01*
X-8332D01*
X-7676Y-77420D01*
Y-78732D01*
X-8332Y-79388D01*
X-10300D01*
X-8988D02*
X-7676Y-80700D01*
X-3740D02*
X-6364D01*
X-3740Y-78076D01*
Y-77420D01*
X-4396Y-76764D01*
X-5708D01*
X-6364Y-77420D01*
X-2428D02*
X-1773Y-76764D01*
X-461D01*
X195Y-77420D01*
Y-78076D01*
X-461Y-78732D01*
X195Y-79388D01*
Y-80044D01*
X-461Y-80700D01*
X-1773D01*
X-2428Y-80044D01*
Y-79388D01*
X-1773Y-78732D01*
X-2428Y-78076D01*
Y-77420D01*
X-1773Y-78732D02*
X-461D01*
X-4600Y58336D02*
Y55056D01*
X-3944Y54400D01*
X-2632D01*
X-1976Y55056D01*
Y58336D01*
X1960D02*
X-664D01*
Y56368D01*
X648Y57024D01*
X1304D01*
X1960Y56368D01*
Y55056D01*
X1304Y54400D01*
X-8D01*
X-664Y55056D01*
X15800Y12736D02*
Y9456D01*
X16456Y8800D01*
X17768D01*
X18424Y9456D01*
Y12736D01*
X22360D02*
X21048Y12080D01*
X19736Y10768D01*
Y9456D01*
X20392Y8800D01*
X21704D01*
X22360Y9456D01*
Y10112D01*
X21704Y10768D01*
X19736D01*
X15800Y-39664D02*
Y-42944D01*
X16456Y-43600D01*
X17768D01*
X18424Y-42944D01*
Y-39664D01*
X19736D02*
X22360D01*
Y-40320D01*
X19736Y-42944D01*
Y-43600D01*
X16200Y-86964D02*
Y-90244D01*
X16856Y-90900D01*
X18168D01*
X18824Y-90244D01*
Y-86964D01*
X20136Y-87620D02*
X20792Y-86964D01*
X22104D01*
X22760Y-87620D01*
Y-88276D01*
X22104Y-88932D01*
X22760Y-89588D01*
Y-90244D01*
X22104Y-90900D01*
X20792D01*
X20136Y-90244D01*
Y-89588D01*
X20792Y-88932D01*
X20136Y-88276D01*
Y-87620D01*
X20792Y-88932D02*
X22104D01*
X61200Y72300D02*
Y74924D01*
X62512Y76236D01*
X63824Y74924D01*
Y72300D01*
Y74268D01*
X61200D01*
X65136Y76236D02*
Y72300D01*
X67104D01*
X67760Y72956D01*
Y75580D01*
X67104Y76236D01*
X65136D01*
X71695Y75580D02*
X71039Y76236D01*
X69727D01*
X69072Y75580D01*
Y72956D01*
X69727Y72300D01*
X71039D01*
X71695Y72956D01*
X75631Y76236D02*
X73007D01*
Y74268D01*
X74319Y74924D01*
X74975D01*
X75631Y74268D01*
Y72956D01*
X74975Y72300D01*
X73663D01*
X73007Y72956D01*
X61200Y23100D02*
Y25724D01*
X62512Y27036D01*
X63824Y25724D01*
Y23100D01*
Y25068D01*
X61200D01*
X65136Y27036D02*
Y23100D01*
X67104D01*
X67760Y23756D01*
Y26380D01*
X67104Y27036D01*
X65136D01*
X71695Y26380D02*
X71039Y27036D01*
X69727D01*
X69072Y26380D01*
Y23756D01*
X69727Y23100D01*
X71039D01*
X71695Y23756D01*
X75631Y27036D02*
X74319Y26380D01*
X73007Y25068D01*
Y23756D01*
X73663Y23100D01*
X74975D01*
X75631Y23756D01*
Y24412D01*
X74975Y25068D01*
X73007D01*
X61200Y-25800D02*
Y-23176D01*
X62512Y-21864D01*
X63824Y-23176D01*
Y-25800D01*
Y-23832D01*
X61200D01*
X65136Y-21864D02*
Y-25800D01*
X67104D01*
X67760Y-25144D01*
Y-22520D01*
X67104Y-21864D01*
X65136D01*
X71695Y-22520D02*
X71039Y-21864D01*
X69727D01*
X69072Y-22520D01*
Y-25144D01*
X69727Y-25800D01*
X71039D01*
X71695Y-25144D01*
X73007Y-21864D02*
X75631D01*
Y-22520D01*
X73007Y-25144D01*
Y-25800D01*
X98424Y94580D02*
X97768Y95236D01*
X96456D01*
X95800Y94580D01*
Y91956D01*
X96456Y91300D01*
X97768D01*
X98424Y91956D01*
X102360Y91300D02*
X99736D01*
X102360Y93924D01*
Y94580D01*
X101704Y95236D01*
X100392D01*
X99736Y94580D01*
X103672Y95236D02*
X106295D01*
Y94580D01*
X103672Y91956D01*
Y91300D01*
X46124Y83380D02*
X45468Y84036D01*
X44156D01*
X43500Y83380D01*
Y80756D01*
X44156Y80100D01*
X45468D01*
X46124Y80756D01*
X47436Y83380D02*
X48092Y84036D01*
X49404D01*
X50060Y83380D01*
Y82724D01*
X49404Y82068D01*
X48748D01*
X49404D01*
X50060Y81412D01*
Y80756D01*
X49404Y80100D01*
X48092D01*
X47436Y80756D01*
X51372Y83380D02*
X52027Y84036D01*
X53339D01*
X53995Y83380D01*
Y80756D01*
X53339Y80100D01*
X52027D01*
X51372Y80756D01*
Y83380D01*
X90223Y46786D02*
X89568Y46130D01*
Y44818D01*
X90223Y44162D01*
X92847D01*
X93503Y44818D01*
Y46130D01*
X92847Y46786D01*
X90223Y48098D02*
X89568Y48753D01*
Y50065D01*
X90223Y50721D01*
X90879D01*
X91535Y50065D01*
Y49409D01*
Y50065D01*
X92191Y50721D01*
X92847D01*
X93503Y50065D01*
Y48753D01*
X92847Y48098D01*
X93503Y54657D02*
Y52033D01*
X90879Y54657D01*
X90223D01*
X89568Y54001D01*
Y52689D01*
X90223Y52033D01*
X62824Y66680D02*
X62168Y67336D01*
X60856D01*
X60200Y66680D01*
Y64056D01*
X60856Y63400D01*
X62168D01*
X62824Y64056D01*
X64136Y66680D02*
X64792Y67336D01*
X66104D01*
X66760Y66680D01*
Y66024D01*
X66104Y65368D01*
X65448D01*
X66104D01*
X66760Y64712D01*
Y64056D01*
X66104Y63400D01*
X64792D01*
X64136Y64056D01*
X70039Y63400D02*
Y67336D01*
X68072Y65368D01*
X70695D01*
X39108Y33595D02*
X38453Y34251D01*
X37141D01*
X36485Y33595D01*
Y30972D01*
X37141Y30316D01*
X38453D01*
X39108Y30972D01*
X40420Y33595D02*
X41076Y34251D01*
X42388D01*
X43044Y33595D01*
Y32939D01*
X42388Y32283D01*
X41732D01*
X42388D01*
X43044Y31628D01*
Y30972D01*
X42388Y30316D01*
X41076D01*
X40420Y30972D01*
X46980Y34251D02*
X44356D01*
Y32283D01*
X45668Y32939D01*
X46324D01*
X46980Y32283D01*
Y30972D01*
X46324Y30316D01*
X45012D01*
X44356Y30972D01*
X90720Y-1376D02*
X90064Y-2032D01*
Y-3344D01*
X90720Y-4000D01*
X93344D01*
X94000Y-3344D01*
Y-2032D01*
X93344Y-1376D01*
X90720Y-64D02*
X90064Y592D01*
Y1904D01*
X90720Y2560D01*
X91376D01*
X92032Y1904D01*
Y1248D01*
Y1904D01*
X92688Y2560D01*
X93344D01*
X94000Y1904D01*
Y592D01*
X93344Y-64D01*
X90064Y3872D02*
Y6495D01*
X90720D01*
X93344Y3872D01*
X94000D01*
X16824Y-2120D02*
X16168Y-1464D01*
X14856D01*
X14200Y-2120D01*
Y-4744D01*
X14856Y-5400D01*
X16168D01*
X16824Y-4744D01*
X18136Y-2120D02*
X18792Y-1464D01*
X20104D01*
X20760Y-2120D01*
Y-2776D01*
X20104Y-3432D01*
X19448D01*
X20104D01*
X20760Y-4088D01*
Y-4744D01*
X20104Y-5400D01*
X18792D01*
X18136Y-4744D01*
X22072D02*
X22727Y-5400D01*
X24039D01*
X24695Y-4744D01*
Y-2120D01*
X24039Y-1464D01*
X22727D01*
X22072Y-2120D01*
Y-2776D01*
X22727Y-3432D01*
X24695D01*
X62924Y18080D02*
X62268Y18736D01*
X60956D01*
X60300Y18080D01*
Y15456D01*
X60956Y14800D01*
X62268D01*
X62924Y15456D01*
X64236Y18080D02*
X64892Y18736D01*
X66204D01*
X66860Y18080D01*
Y17424D01*
X66204Y16768D01*
X65548D01*
X66204D01*
X66860Y16112D01*
Y15456D01*
X66204Y14800D01*
X64892D01*
X64236Y15456D01*
X68172Y18080D02*
X68827Y18736D01*
X70139D01*
X70795Y18080D01*
Y17424D01*
X70139Y16768D01*
X70795Y16112D01*
Y15456D01*
X70139Y14800D01*
X68827D01*
X68172Y15456D01*
Y16112D01*
X68827Y16768D01*
X68172Y17424D01*
Y18080D01*
X68827Y16768D02*
X70139D01*
X38520Y-5476D02*
X37864Y-6132D01*
Y-7444D01*
X38520Y-8100D01*
X41144D01*
X41800Y-7444D01*
Y-6132D01*
X41144Y-5476D01*
X41800Y-2196D02*
X37864D01*
X39832Y-4164D01*
Y-1540D01*
X38520Y-228D02*
X37864Y427D01*
Y1739D01*
X38520Y2395D01*
X41144D01*
X41800Y1739D01*
Y427D01*
X41144Y-228D01*
X38520D01*
X90220Y-55176D02*
X89564Y-55832D01*
Y-57144D01*
X90220Y-57800D01*
X92844D01*
X93500Y-57144D01*
Y-55832D01*
X92844Y-55176D01*
X93500Y-51896D02*
X89564D01*
X91532Y-53864D01*
Y-51240D01*
X93500Y-47305D02*
Y-49929D01*
X90876Y-47305D01*
X90220D01*
X89564Y-47961D01*
Y-49273D01*
X90220Y-49929D01*
X16824Y-50120D02*
X16168Y-49464D01*
X14856D01*
X14200Y-50120D01*
Y-52744D01*
X14856Y-53400D01*
X16168D01*
X16824Y-52744D01*
X20104Y-53400D02*
Y-49464D01*
X18136Y-51432D01*
X20760D01*
X22072Y-50120D02*
X22727Y-49464D01*
X24039D01*
X24695Y-50120D01*
Y-50776D01*
X24039Y-51432D01*
X23383D01*
X24039D01*
X24695Y-52088D01*
Y-52744D01*
X24039Y-53400D01*
X22727D01*
X22072Y-52744D01*
X16424Y80180D02*
X15768Y80836D01*
X14456D01*
X13800Y80180D01*
Y77556D01*
X14456Y76900D01*
X15768D01*
X16424Y77556D01*
X20360Y76900D02*
X17736D01*
X20360Y79524D01*
Y80180D01*
X19704Y80836D01*
X18392D01*
X17736Y80180D01*
X21671D02*
X22327Y80836D01*
X23639D01*
X24295Y80180D01*
Y79524D01*
X23639Y78868D01*
X24295Y78212D01*
Y77556D01*
X23639Y76900D01*
X22327D01*
X21671Y77556D01*
Y78212D01*
X22327Y78868D01*
X21671Y79524D01*
Y80180D01*
X22327Y78868D02*
X23639D01*
X2924Y41980D02*
X2268Y42636D01*
X956D01*
X300Y41980D01*
Y39356D01*
X956Y38700D01*
X2268D01*
X2924Y39356D01*
X4236Y41980D02*
X4892Y42636D01*
X6204D01*
X6860Y41980D01*
Y41324D01*
X6204Y40668D01*
X5548D01*
X6204D01*
X6860Y40012D01*
Y39356D01*
X6204Y38700D01*
X4892D01*
X4236Y39356D01*
X8172Y41980D02*
X8827Y42636D01*
X10139D01*
X10795Y41980D01*
Y41324D01*
X10139Y40668D01*
X9483D01*
X10139D01*
X10795Y40012D01*
Y39356D01*
X10139Y38700D01*
X8827D01*
X8172Y39356D01*
X62824Y-36720D02*
X62168Y-36064D01*
X60856D01*
X60200Y-36720D01*
Y-39344D01*
X60856Y-40000D01*
X62168D01*
X62824Y-39344D01*
X66104Y-40000D02*
Y-36064D01*
X64136Y-38032D01*
X66760D01*
X70039Y-40000D02*
Y-36064D01*
X68072Y-38032D01*
X70695D01*
X113124Y95936D02*
X111812D01*
X112468D01*
Y92656D01*
X111812Y92000D01*
X111156D01*
X110500Y92656D01*
X117060Y92000D02*
X114436D01*
X117060Y94624D01*
Y95280D01*
X116404Y95936D01*
X115092D01*
X114436Y95280D01*
X113124Y-88164D02*
X111812D01*
X112468D01*
Y-91444D01*
X111812Y-92100D01*
X111156D01*
X110500Y-91444D01*
X114436Y-88820D02*
X115092Y-88164D01*
X116404D01*
X117060Y-88820D01*
Y-89476D01*
X116404Y-90132D01*
X115748D01*
X116404D01*
X117060Y-90788D01*
Y-91444D01*
X116404Y-92100D01*
X115092D01*
X114436Y-91444D01*
X-114476Y95936D02*
X-115788D01*
X-115132D01*
Y92656D01*
X-115788Y92000D01*
X-116444D01*
X-117100Y92656D01*
X-111196Y92000D02*
Y95936D01*
X-113164Y93968D01*
X-110540D01*
X57800Y-87064D02*
X60424D01*
X59112D01*
Y-91000D01*
X61736D02*
Y-87064D01*
X63704D01*
X64360Y-87720D01*
Y-89032D01*
X63704Y-89688D01*
X61736D01*
X65671Y-91000D02*
X66983D01*
X66327D01*
Y-87064D01*
X65671Y-87720D01*
X68951D02*
X69607Y-87064D01*
X70919D01*
X71575Y-87720D01*
Y-90344D01*
X70919Y-91000D01*
X69607D01*
X68951Y-90344D01*
Y-87720D01*
X-44500Y-59364D02*
X-41876D01*
X-43188D01*
Y-63300D01*
X-40564D02*
Y-59364D01*
X-38596D01*
X-37940Y-60020D01*
Y-61332D01*
X-38596Y-61988D01*
X-40564D01*
X-36628Y-63300D02*
X-35317D01*
X-35973D01*
Y-59364D01*
X-36628Y-60020D01*
X-33349Y-63300D02*
X-32037D01*
X-32693D01*
Y-59364D01*
X-33349Y-60020D01*
X76900Y-107964D02*
X79524D01*
X78212D01*
Y-111900D01*
X80836D02*
Y-107964D01*
X82804D01*
X83460Y-108620D01*
Y-109932D01*
X82804Y-110588D01*
X80836D01*
X87395Y-111900D02*
X84772D01*
X87395Y-109276D01*
Y-108620D01*
X86739Y-107964D01*
X85427D01*
X84772Y-108620D01*
X91331Y-111900D02*
X88707D01*
X91331Y-109276D01*
Y-108620D01*
X90675Y-107964D01*
X89363D01*
X88707Y-108620D01*
X-45000Y-42764D02*
X-42376D01*
X-43688D01*
Y-46700D01*
X-41064D02*
Y-42764D01*
X-39096D01*
X-38440Y-43420D01*
Y-44732D01*
X-39096Y-45388D01*
X-41064D01*
X-37128Y-46700D02*
X-35817D01*
X-36473D01*
Y-42764D01*
X-37128Y-43420D01*
X-31225Y-42764D02*
X-32537Y-43420D01*
X-33849Y-44732D01*
Y-46044D01*
X-33193Y-46700D01*
X-31881D01*
X-31225Y-46044D01*
Y-45388D01*
X-31881Y-44732D01*
X-33849D01*
X17300Y-127364D02*
X19924D01*
X18612D01*
Y-131300D01*
X21236D02*
Y-127364D01*
X23204D01*
X23860Y-128020D01*
Y-129332D01*
X23204Y-129988D01*
X21236D01*
X27795Y-131300D02*
X25172D01*
X27795Y-128676D01*
Y-128020D01*
X27139Y-127364D01*
X25827D01*
X25172Y-128020D01*
X29107D02*
X29763Y-127364D01*
X31075D01*
X31731Y-128020D01*
Y-130644D01*
X31075Y-131300D01*
X29763D01*
X29107Y-130644D01*
Y-128020D01*
X56400Y-127364D02*
X59024D01*
X57712D01*
Y-131300D01*
X60336D02*
Y-127364D01*
X62304D01*
X62960Y-128020D01*
Y-129332D01*
X62304Y-129988D01*
X60336D01*
X66895Y-131300D02*
X64271D01*
X66895Y-128676D01*
Y-128020D01*
X66239Y-127364D01*
X64927D01*
X64271Y-128020D01*
X68207Y-131300D02*
X69519D01*
X68863D01*
Y-127364D01*
X68207Y-128020D01*
X-44000Y-98864D02*
X-41376D01*
X-42688D01*
Y-102800D01*
X-40064D02*
Y-98864D01*
X-38096D01*
X-37440Y-99520D01*
Y-100832D01*
X-38096Y-101488D01*
X-40064D01*
X-33505Y-102800D02*
X-36129D01*
X-33505Y-100176D01*
Y-99520D01*
X-34161Y-98864D01*
X-35473D01*
X-36129Y-99520D01*
X-32193D02*
X-31537Y-98864D01*
X-30225D01*
X-29569Y-99520D01*
Y-100176D01*
X-30225Y-100832D01*
X-30881D01*
X-30225D01*
X-29569Y-101488D01*
Y-102144D01*
X-30225Y-102800D01*
X-31537D01*
X-32193Y-102144D01*
X-15200Y-90264D02*
X-12576D01*
X-13888D01*
Y-94200D01*
X-11264D02*
Y-90264D01*
X-9296D01*
X-8640Y-90920D01*
Y-92232D01*
X-9296Y-92888D01*
X-11264D01*
X-4705Y-94200D02*
X-7328D01*
X-4705Y-91576D01*
Y-90920D01*
X-5361Y-90264D01*
X-6673D01*
X-7328Y-90920D01*
X-1425Y-94200D02*
Y-90264D01*
X-3393Y-92232D01*
X-769D01*
X-45700Y5636D02*
X-43076D01*
X-44388D01*
Y1700D01*
X-41764D02*
Y5636D01*
X-39796D01*
X-39140Y4980D01*
Y3668D01*
X-39796Y3012D01*
X-41764D01*
X-37828Y1700D02*
X-36517D01*
X-37173D01*
Y5636D01*
X-37828Y4980D01*
X-32581Y1700D02*
Y5636D01*
X-34549Y3668D01*
X-31925D01*
X41005Y131929D02*
X44941D01*
Y134553D01*
X41005Y138489D02*
Y135865D01*
X44941D01*
Y138489D01*
X42973Y135865D02*
Y137177D01*
X41005Y139801D02*
X44941D01*
Y141769D01*
X44285Y142424D01*
X41661D01*
X41005Y141769D01*
Y139801D01*
X44941Y143736D02*
Y145048D01*
Y144392D01*
X41005D01*
X41661Y143736D01*
M02*
