G04*
G04 #@! TF.GenerationSoftware,Altium Limited,Altium Designer,23.3.1 (30)*
G04*
G04 Layer_Physical_Order=1*
G04 Layer_Color=255*
%FSLAX25Y25*%
%MOIN*%
G70*
G04*
G04 #@! TF.SameCoordinates,7FDB2B4D-D7D5-4B3D-9FC9-9F88D19D1CF5*
G04*
G04*
G04 #@! TF.FilePolarity,Positive*
G04*
G01*
G75*
%ADD10C,0.00984*%
%ADD12C,0.01575*%
%ADD13C,0.00787*%
%ADD14C,0.01968*%
%ADD20R,0.03381X0.03591*%
%ADD21R,0.03788X0.03681*%
%ADD22O,0.03300X0.01600*%
%ADD23R,0.03300X0.01600*%
%ADD24R,0.05512X0.00984*%
%ADD25O,0.05512X0.00984*%
%ADD26O,0.04724X0.02362*%
%ADD27R,0.04724X0.02362*%
G04:AMPARAMS|DCode=28|XSize=73.79mil|YSize=24.1mil|CornerRadius=12.05mil|HoleSize=0mil|Usage=FLASHONLY|Rotation=180.000|XOffset=0mil|YOffset=0mil|HoleType=Round|Shape=RoundedRectangle|*
%AMROUNDEDRECTD28*
21,1,0.07379,0.00000,0,0,180.0*
21,1,0.04969,0.02410,0,0,180.0*
1,1,0.02410,-0.02485,0.00000*
1,1,0.02410,0.02485,0.00000*
1,1,0.02410,0.02485,0.00000*
1,1,0.02410,-0.02485,0.00000*
%
%ADD28ROUNDEDRECTD28*%
%ADD29R,0.07379X0.02410*%
%ADD30R,0.03500X0.04000*%
%ADD31R,0.03543X0.03150*%
%ADD32R,0.07087X0.11811*%
%ADD33R,0.03591X0.03970*%
%ADD34R,0.03591X0.04166*%
%ADD35R,0.03591X0.03775*%
%ADD36R,0.04166X0.03591*%
%ADD37R,0.01657X0.07699*%
G04:AMPARAMS|DCode=38|XSize=76.99mil|YSize=16.57mil|CornerRadius=8.28mil|HoleSize=0mil|Usage=FLASHONLY|Rotation=90.000|XOffset=0mil|YOffset=0mil|HoleType=Round|Shape=RoundedRectangle|*
%AMROUNDEDRECTD38*
21,1,0.07699,0.00000,0,0,90.0*
21,1,0.06042,0.01657,0,0,90.0*
1,1,0.01657,0.00000,0.03021*
1,1,0.01657,0.00000,-0.03021*
1,1,0.01657,0.00000,-0.03021*
1,1,0.01657,0.00000,0.03021*
%
%ADD38ROUNDEDRECTD38*%
%ADD39R,0.04134X0.02362*%
%ADD40O,0.04134X0.02362*%
%ADD41R,0.03591X0.03381*%
%ADD42O,0.06102X0.02362*%
%ADD43R,0.06102X0.02362*%
%ADD44R,0.02362X0.02756*%
%ADD45R,0.03937X0.02756*%
%ADD56C,0.06299*%
%ADD57R,0.05512X0.05512*%
%ADD61C,0.05906*%
%ADD67C,0.01181*%
%ADD68C,0.01000*%
%ADD69C,0.03543*%
%ADD70O,0.05118X0.07874*%
%ADD71R,0.05118X0.05118*%
%ADD72R,0.06299X0.06299*%
%ADD73R,0.25591X0.25591*%
%ADD74C,0.05512*%
%ADD75C,0.12598*%
%ADD76O,0.14173X0.07874*%
%ADD77O,0.07874X0.14173*%
%ADD78R,0.05118X0.05118*%
%ADD79C,0.02756*%
D10*
X73794Y77264D02*
G03*
X77067Y80536I0J3272D01*
G01*
X41512Y-12622D02*
G03*
X39862Y-14272I0J-1650D01*
G01*
X47638Y-8957D02*
G03*
X49335Y-10654I1697J0D01*
G01*
X54134Y88583D02*
G03*
X50351Y90150I-3783J-3783D01*
G01*
X54134Y88583D02*
G03*
X56833Y87465I2699J2699D01*
G01*
X43139Y53228D02*
G03*
X44685Y54773I0J1546D01*
G01*
X48882Y85496D02*
G03*
X44685Y81299I0J-4197D01*
G01*
X55020Y28445D02*
G03*
X52658Y26083I0J-2362D01*
G01*
X75689Y28445D02*
G03*
X77067Y29823I0J1378D01*
G01*
X-49508Y-23130D02*
G03*
X-51968Y-20669I-2461J0D01*
G01*
X-52658Y-81201D02*
G03*
X-49508Y-78051I0J3150D01*
G01*
X79815Y-55224D02*
G03*
X78556Y-56484I0J-1259D01*
G01*
X59744Y-73819D02*
Y-69980D01*
Y-16559D02*
Y-14591D01*
Y-18209D02*
Y-16559D01*
X65945Y77264D02*
X73794D01*
X52658Y-41437D02*
Y-15280D01*
X61024Y-21654D02*
Y-19488D01*
X59744Y-18209D02*
X61024Y-19488D01*
X41512Y-12622D02*
X59744D01*
X39862Y-18504D02*
Y-14272D01*
X197Y-118701D02*
X3051D01*
X-14272Y-133169D02*
X197Y-118701D01*
X77067Y-64075D02*
Y-62106D01*
X47638Y-8957D02*
Y-5520D01*
X49335Y-10654D02*
X59744D01*
X48720Y90150D02*
X50351D01*
X56833Y87465D02*
X59744D01*
X44685Y54773D02*
Y81299D01*
X52658Y-5709D02*
Y26083D01*
X55020Y28445D02*
X75689D01*
X77067Y80536D02*
Y81559D01*
X-49508Y-31693D02*
Y-23130D01*
X-61024Y-20669D02*
X-51968D01*
X-56595Y-81201D02*
X-52658D01*
X-21850Y-133169D02*
X-14272D01*
X39764Y53228D02*
X43139D01*
X48882Y85496D02*
X59744D01*
X-49508Y-78051D02*
Y-39665D01*
X41043Y-68012D02*
X53051D01*
X41043D02*
X41043D01*
X82721Y36264D02*
X85094Y38637D01*
X77067Y36264D02*
X82721D01*
X85094Y38637D02*
X87456D01*
X77067Y29823D02*
Y32327D01*
X81363Y40201D02*
X82296Y41134D01*
X77067Y40201D02*
X81363D01*
X78556Y-58551D02*
Y-56484D01*
X78543Y-62106D02*
Y-58563D01*
X79815Y-55224D02*
X83760D01*
X-88284Y-68015D02*
X-80424D01*
X85563Y-9909D02*
X87795D01*
X82850Y-12622D02*
X85563Y-9909D01*
X77067Y-12622D02*
X82850D01*
X81496Y-7382D02*
X84252D01*
X53051Y-68012D02*
X55020Y-66043D01*
X49606Y-61130D02*
X53158D01*
X56102Y-64075D02*
X59744D01*
X53158Y-61130D02*
X56102Y-64075D01*
X55020Y-66043D02*
X59744D01*
X53992Y32327D02*
X59744D01*
X77067Y-68012D02*
X90551D01*
X86767Y-65004D02*
X87106Y-64665D01*
X82141Y-65004D02*
X86767D01*
X81102Y-66043D02*
X82141Y-65004D01*
X78543Y-58563D02*
X78556Y-58551D01*
X77067Y-66043D02*
X81102D01*
X81126Y-14591D02*
X82874Y-16339D01*
X77067Y-14591D02*
X81126D01*
X85862Y85496D02*
X87697Y83661D01*
X77067Y85496D02*
X85862D01*
X77067Y83528D02*
X80252D01*
X82874Y80905D01*
X80568Y34295D02*
X82677Y32186D01*
X77067Y34295D02*
X80568D01*
X-88287Y32186D02*
X-77363D01*
X-88287Y-16437D02*
X-77264D01*
X59744Y32327D02*
Y34295D01*
X77067Y38232D02*
Y40201D01*
X53980Y36264D02*
X59744D01*
X56354Y38232D02*
X59744D01*
X53256Y41331D02*
X56354Y38232D01*
X49606Y41331D02*
X53256D01*
X52819Y81559D02*
X59744D01*
X59744Y4232D02*
X59744Y4232D01*
Y-8685D02*
Y4232D01*
Y89433D02*
Y99409D01*
X59646Y50984D02*
X59744Y50886D01*
Y40201D02*
Y50886D01*
Y81559D02*
Y83528D01*
X77067Y89433D02*
X83528D01*
X84343Y90248D01*
Y93307D01*
X77067Y-10654D02*
Y-8685D01*
X80193D02*
X81496Y-7382D01*
X77067Y-8685D02*
X80193D01*
X59744Y-62106D02*
Y-50689D01*
Y-69980D02*
Y-68012D01*
X77067Y87465D02*
Y89433D01*
D12*
X-13681Y-73524D02*
G03*
X-15707Y-75550I0J-2026D01*
G01*
X-62500Y-129921D02*
G03*
X-60335Y-132087I2165J0D01*
G01*
X-66339Y-29528D02*
G03*
X-64272Y-27461I0J2067D01*
G01*
X-65453Y68105D02*
G03*
X-63386Y70172I0J2067D01*
G01*
X-66142Y18898D02*
G03*
X-64272Y20768I0J1870D01*
G01*
X-66339Y-81102D02*
G03*
X-64272Y-79036I0J2067D01*
G01*
X-13681Y-73524D02*
X-9843D01*
X-15707Y-78175D02*
Y-75550D01*
X-16233Y-78701D02*
X-15707Y-78175D01*
X-46046Y-120420D02*
X-38850Y-127616D01*
X-49200Y-120420D02*
X-46046D01*
X-66929Y-117815D02*
Y-117815D01*
X-56504D01*
X-62402Y-122835D02*
X-59982Y-120415D01*
X-62500Y-129921D02*
Y-122933D01*
X-59982Y-120415D02*
X-56504D01*
X-60335Y-132087D02*
X-55413D01*
X-48820Y-87698D02*
X-42717Y-81595D01*
X-54035Y-87698D02*
X-48820D01*
X-42717Y-81595D02*
X-38287D01*
X-69390Y-29528D02*
X-66339D01*
X-68504Y68105D02*
X-65453D01*
X-69390Y18898D02*
X-66142D01*
X-64272Y20768D02*
Y34942D01*
X-69390Y-81102D02*
X-66339D01*
X-71101Y83563D02*
Y83661D01*
X-97441D02*
X-71101D01*
X-54035Y12302D02*
X-38780D01*
X-49204Y-117815D02*
X-41535D01*
X-39370Y-119980D01*
X-69390Y-89470D02*
Y-87698D01*
X-78002Y-75246D02*
X-69439D01*
X-69390Y-75124D02*
X-66831Y-72565D01*
X-54035Y-36124D02*
X-38091D01*
X-78051Y-23622D02*
X-78018Y-23655D01*
X-69433D01*
X-77165Y74011D02*
X-76974Y73819D01*
X-68405D01*
X-77658Y25197D02*
X-69390D01*
X-66831Y27756D01*
Y34942D01*
Y-72565D02*
Y-65057D01*
X-77101Y68169D02*
X-68696D01*
X-77165Y68105D02*
X-77101Y68169D01*
X-68405Y73819D02*
X-65945Y76279D01*
Y84150D01*
X-64272Y-27461D02*
Y-13483D01*
X-69390Y-37895D02*
Y-36124D01*
X-78051Y-29528D02*
X-69390D01*
X-66831Y-21063D02*
Y-13483D01*
X-69390Y-23622D02*
X-66831Y-21063D01*
X-16237Y53231D02*
Y59249D01*
X-16240Y59252D02*
X-16237Y59249D01*
Y53231D02*
X-16233Y53228D01*
X-38091Y61509D02*
X-38091Y61509D01*
X-53150Y61509D02*
X-38091D01*
X-64272Y-79036D02*
Y-65057D01*
X-63386Y70172D02*
Y84150D01*
X-68504Y61509D02*
Y68105D01*
X-68504Y61509D02*
X-68504Y61509D01*
X-78051Y18898D02*
X-69390D01*
Y12302D02*
Y18898D01*
X-69390Y12302D02*
X-69390Y12302D01*
X-69390Y10530D02*
Y12302D01*
X-69390Y-36124D02*
Y-29528D01*
X-69390Y-36124D02*
X-69390Y-36124D01*
X-69390Y-87698D02*
X-69390Y-87698D01*
Y-81102D01*
X-78051D02*
X-69390D01*
D13*
X75689Y-72146D02*
G03*
X76642Y-71192I0J953D01*
G01*
X-37315Y-103248D02*
G03*
X-49532Y-108296I0J-17310D01*
G01*
X-37325Y-101673D02*
G03*
X-50651Y-107187I11J-18885D01*
G01*
X-49532Y-108296D02*
G03*
X-52067Y-114349I6054J-6092D01*
G01*
X-50651Y-107187D02*
G03*
X-53642Y-114428I7173J-7201D01*
G01*
X-52067Y-114723D02*
G03*
X-51837Y-114984I2177J1684D01*
G01*
X-28709Y-103740D02*
G03*
X-29897Y-103248I-1188J-1188D01*
G01*
X-51837Y-114984D02*
G03*
X-51279Y-115215I557J556D01*
G01*
X-29897Y-101673D02*
G03*
X-28709Y-101181I0J1680D01*
G01*
X-28543Y-103906D02*
G03*
X-27756Y-104232I787J787D01*
G01*
Y-100689D02*
G03*
X-28543Y-101015I0J-1114D01*
G01*
X-53872Y-114984D02*
G03*
X-53642Y-114428I-557J557D01*
G01*
X66043Y-19094D02*
G03*
X64468Y-20669I0J-1575D01*
G01*
X76181Y-19094D02*
G03*
X77067Y-18209I0J886D01*
G01*
X-114764Y96457D02*
G03*
X-122835Y88386I0J-8071D01*
G01*
X-106588Y29533D02*
G03*
X-104823Y31299I0J1766D01*
G01*
X-105412Y-29625D02*
G03*
X-104035Y-28248I0J1376D01*
G01*
X-54035Y-52658D02*
G03*
X-56693Y-50000I-2657J0D01*
G01*
X-56595Y-54134D02*
G03*
X-58760Y-51968I-2165J0D01*
G01*
X-59153Y-55610D02*
G03*
X-60827Y-53937I-1673J0D01*
G01*
X-61713Y-57579D02*
G03*
X-63583Y-55709I-1870J0D01*
G01*
X-59055Y-48130D02*
G03*
X-56595Y-45669I0J2461D01*
G01*
X-61122Y-46358D02*
G03*
X-59153Y-44390I0J1969D01*
G01*
X-62992Y-44587D02*
G03*
X-61713Y-43307I0J1280D01*
G01*
X-65059Y-42618D02*
G03*
X-64272Y-41831I0J787D01*
G01*
X-58957Y-97539D02*
G03*
X-56595Y-95177I0J2362D01*
G01*
X-60728Y-95965D02*
G03*
X-59153Y-94390I0J1575D01*
G01*
X-62795Y-94390D02*
G03*
X-61713Y-93307I0J1083D01*
G01*
X-64961Y-92815D02*
G03*
X-64272Y-92126I0J689D01*
G01*
X-105807Y7480D02*
G03*
X-103839Y5512I1969J0D01*
G01*
Y8858D02*
G03*
X-102252Y7271I1587J0D01*
G01*
X-113779Y5610D02*
G03*
X-112106Y3937I1673J0D01*
G01*
X-117717Y4331D02*
G03*
X-115551Y2165I2165J0D01*
G01*
X-119980Y591D02*
G03*
X-123031Y-2461I0J-3051D01*
G01*
X-111614Y-984D02*
G03*
X-113779Y-3150I0J-2165D01*
G01*
X-102165Y-4134D02*
G03*
X-104035Y-6004I0J-1870D01*
G01*
Y-2559D02*
G03*
X-105807Y-4331I0J-1772D01*
G01*
X-54035Y-1378D02*
G03*
X-56004Y591I-1969J0D01*
G01*
X-56595Y-3051D02*
G03*
X-58661Y-984I-2067J0D01*
G01*
X-59055Y-4134D02*
G03*
X-60630Y-2559I-1575J0D01*
G01*
X-61713Y-5217D02*
G03*
X-62795Y-4134I-1083J0D01*
G01*
X-58858Y2165D02*
G03*
X-56595Y4429I0J2264D01*
G01*
X-60728Y3937D02*
G03*
X-59153Y5512I0J1575D01*
G01*
X-62697D02*
G03*
X-61713Y6496I0J984D01*
G01*
X-65217Y7271D02*
G03*
X-64373Y8115I0J844D01*
G01*
X-64075Y56299D02*
G03*
X-63386Y56988I0J689D01*
G01*
X-62008Y54724D02*
G03*
X-60827Y55905I0J1181D01*
G01*
X-60335Y53150D02*
G03*
X-58268Y55216I0J2067D01*
G01*
Y51575D02*
G03*
X-55709Y54134I0J2559D01*
G01*
X-54035Y47835D02*
G03*
X-56201Y50000I-2165J0D01*
G01*
X-56595Y45768D02*
G03*
X-58760Y47933I-2165J0D01*
G01*
X-59153Y44587D02*
G03*
X-60532Y45965I-1378J0D01*
G01*
X-61713Y42913D02*
G03*
X-62894Y44094I-1181J0D01*
G01*
X-106687Y61030D02*
G03*
X-104331Y63386I0J2356D01*
G01*
X-108169Y94488D02*
G03*
X-113779Y88878I0J-5610D01*
G01*
X-102362Y90551D02*
G03*
X-104331Y88583I0J-1969D01*
G01*
X-104134Y92520D02*
G03*
X-105905Y90748I0J-1772D01*
G01*
X-53150Y93142D02*
G03*
X-56464Y96457I-3315J0D01*
G01*
X-55709Y92421D02*
G03*
X-57776Y94488I-2067J0D01*
G01*
X-58268Y90748D02*
G03*
X-60039Y92520I-1772J0D01*
G01*
X-60827Y89567D02*
G03*
X-61811Y90551I-984J0D01*
G01*
X46332Y-84350D02*
G03*
X50000Y-80682I0J3668D01*
G01*
X52362Y-77362D02*
G03*
X50000Y-79724I0J-2362D01*
G01*
X66831Y-77362D02*
G03*
X70374Y-73819I0J3543D01*
G01*
X72047Y-72146D02*
G03*
X70374Y-73819I0J-1673D01*
G01*
X-103839Y-90748D02*
G03*
X-101772Y-92815I2067J0D01*
G01*
X-105807Y-92520D02*
G03*
X-103937Y-94390I1870J0D01*
G01*
X-117717Y-89056D02*
G03*
X-109234Y-97539I8483J0D01*
G01*
X-113779Y-89961D02*
G03*
X-107776Y-95965I6004J0D01*
G01*
X-12303Y-84350D02*
X-12303Y-84350D01*
X46332D01*
X72047Y-72146D02*
X75689D01*
X76642Y-71192D02*
Y-70071D01*
X-37318Y-101673D02*
X-29897D01*
X-37315Y-103248D02*
X-29897D01*
X-37325Y-101673D02*
X-37318Y-101673D01*
X-52067Y-114723D02*
Y-114349D01*
X-28709Y-103740D02*
X-28543Y-103906D01*
X-51279Y-115215D02*
X-49204D01*
X-51837Y-114984D02*
X-51837Y-114984D01*
X-28709Y-101181D02*
X-28543Y-101015D01*
X-56504Y-115215D02*
X-54429D01*
X-44783Y-129373D02*
Y-126927D01*
X-52067Y-121204D02*
Y-115676D01*
X-51606Y-115215D01*
X-46797Y-125197D02*
X-46513D01*
X-44783Y-126927D01*
X-49598Y-122396D02*
X-46797Y-125197D01*
X-47343Y-131932D02*
X-44783Y-129373D01*
X-50140Y-131932D02*
X-47343D01*
X-50875Y-122396D02*
X-49598D01*
X-52067Y-121204D02*
X-50875Y-122396D01*
X-50295Y-132087D02*
X-50140Y-131932D01*
X-50250Y-123971D02*
X-49789Y-124432D01*
X-51527Y-123971D02*
X-50250D01*
X-49789Y-125084D02*
Y-124432D01*
X-52854Y-128150D02*
X-49789Y-125084D01*
X-53642Y-121856D02*
Y-115676D01*
X-54103Y-115215D02*
X-53642Y-115676D01*
Y-121856D02*
X-51527Y-123971D01*
X64468Y-23622D02*
Y-20669D01*
X66043Y-19094D02*
X76181D01*
X-122835Y70085D02*
Y88386D01*
Y70085D02*
X-117717Y64967D01*
X-113779Y29533D02*
X-106588D01*
X-113779Y-29625D02*
X-105412D01*
X-104035Y-28248D02*
Y-6004D01*
X-108200Y-50000D02*
X-56693D01*
X-54035Y-65057D02*
Y-52658D01*
X-56595Y-65057D02*
Y-54134D01*
X-105703Y-51968D02*
X-58760D01*
X-59153Y-65057D02*
Y-55610D01*
X-105444Y-53937D02*
X-60827D01*
X-102362Y-55709D02*
X-63583D01*
X-61713Y-65057D02*
Y-57579D01*
X-105020Y-48130D02*
X-59055D01*
X-56595Y-45669D02*
Y-36124D01*
X-103974Y-46358D02*
X-61122D01*
X-101044Y-44587D02*
X-62992D01*
X-98622Y-42618D02*
X-65059D01*
X-61713Y-43307D02*
Y-36124D01*
X-59153Y-44390D02*
Y-36124D01*
X-109234Y-97539D02*
X-58957D01*
X-107776Y-95965D02*
X-60728D01*
X-103937Y-94390D02*
X-62795D01*
X-61713Y-93307D02*
Y-87698D01*
X-59153Y-94390D02*
Y-87698D01*
X-56595Y-95177D02*
Y-87698D01*
X-101772Y-92815D02*
X-64961D01*
X-109843Y17722D02*
X-105807Y13687D01*
Y7480D02*
Y13687D01*
X-103839Y8858D02*
Y19593D01*
X-102252Y7271D02*
X-65217D01*
X-103839Y5512D02*
X-62697D01*
X-113779Y5610D02*
Y13785D01*
X-112106Y3937D02*
X-60728D01*
X-117717Y4331D02*
Y9849D01*
X-115551Y2165D02*
X-58858D01*
X-123031Y-20372D02*
Y-2461D01*
X-119980Y591D02*
X-56004D01*
X-111614Y-984D02*
X-58661D01*
X-113779Y-13876D02*
Y-3150D01*
X-102165Y-4134D02*
X-62795D01*
X-104035Y-2559D02*
X-60630D01*
X-105807Y-22933D02*
Y-4331D01*
X-54035Y-13483D02*
Y-1378D01*
X-56595Y-13483D02*
Y-3051D01*
X-59055Y-13384D02*
Y-4134D01*
X-61713Y-13483D02*
Y-5217D01*
X-59153Y5512D02*
Y12302D01*
X-56595Y4429D02*
Y12302D01*
X-109049Y56299D02*
X-64075D01*
X-106004Y54724D02*
X-62008D01*
X-60827Y55905D02*
Y61509D01*
X-104232Y53150D02*
X-60335D01*
X-58268Y55216D02*
Y61509D01*
X-101839Y51575D02*
X-58268D01*
X-55709Y54134D02*
Y61509D01*
X-54035Y34942D02*
Y47835D01*
X-100000Y50000D02*
X-56201D01*
X-56595Y34942D02*
Y45768D01*
X-97638Y47933D02*
X-58760D01*
X-59153Y34942D02*
Y44587D01*
X-96358Y45965D02*
X-60532D01*
X-61713Y34942D02*
Y42913D01*
X-95472Y44094D02*
X-62894D01*
X-104823Y31299D02*
Y34744D01*
X-104331Y63386D02*
Y88583D01*
X-111473Y61030D02*
X-106687D01*
X-113779Y76778D02*
X-109843Y72841D01*
X-114764Y96457D02*
X-56464D01*
X-108169Y94488D02*
X-57776D01*
X-113779Y76778D02*
Y88878D01*
X-102362Y90551D02*
X-61811D01*
X-105905Y68904D02*
Y90748D01*
X-104134Y92520D02*
X-60039D01*
X-53150Y84150D02*
Y93142D01*
X-55709Y84150D02*
Y92421D01*
X-58268Y84150D02*
Y90748D01*
X-60827Y84150D02*
Y89567D01*
X50000Y-80682D02*
Y-79724D01*
X52362Y-77362D02*
X66831D01*
X-103839Y-90748D02*
Y-71061D01*
X-105807Y-92520D02*
Y-76967D01*
X-64272Y-41831D02*
Y-36124D01*
X-108133Y-37499D02*
X-101044Y-44587D01*
X-106775Y-34465D02*
X-98622Y-42618D01*
X-108939Y-34465D02*
X-106775D01*
X-64272Y-92126D02*
Y-87698D01*
X-117717Y-89056D02*
Y-80806D01*
X-113779Y-89961D02*
Y-76869D01*
X-107774Y-61120D02*
X-102362Y-55709D01*
X-113779Y-61120D02*
X-107774D01*
X-108268Y-53248D02*
X-106982D01*
X-105703Y-51968D01*
X-108691Y-57183D02*
X-105444Y-53937D01*
X-113779Y-53246D02*
X-108269D01*
X-117717Y-57183D02*
X-113779Y-53246D01*
X-108269D02*
X-108268Y-53248D01*
X-108891Y-49310D02*
X-108200Y-50000D01*
X-107777Y-45373D02*
X-105020Y-48130D01*
X-108897Y-41436D02*
X-103974Y-46358D01*
X-109843Y-65057D02*
X-103839Y-71061D01*
X-109843Y64967D02*
X-105905Y68904D01*
X-111473Y-45373D02*
X-107777D01*
X-109843Y-41436D02*
X-108897D01*
X-113779Y-37499D02*
X-108133D01*
X-109843Y-72932D02*
X-105807Y-76967D01*
X-109843Y25596D02*
X-103839Y19593D01*
X-108852Y33470D02*
X-96358Y45965D01*
X-104823Y34744D02*
X-95472Y44094D01*
X-107259Y50122D02*
X-104232Y53150D01*
X-108939Y50122D02*
X-107259D01*
X-107573Y53156D02*
X-106004Y54724D01*
X-109843Y49219D02*
X-108939Y50122D01*
X-113779Y53156D02*
X-107573D01*
X-117717Y49219D02*
X-113779Y53156D01*
X-108163Y37407D02*
X-97638Y47933D01*
X-113779Y37407D02*
X-108163D01*
X-108655Y41345D02*
X-100000Y50000D01*
X-109843Y41345D02*
X-108655D01*
X-111473Y45282D02*
X-108133D01*
X-101839Y51575D01*
X-107205Y-24331D02*
X-105807Y-22933D01*
X-113779Y-13876D02*
X-109843Y-17813D01*
X-123031Y-20372D02*
X-117717Y-25688D01*
X-107208Y-24331D02*
X-107205D01*
X-108564Y-25688D02*
X-107208Y-24331D01*
X-113779Y61030D02*
X-111473D01*
X-111473Y61030D01*
X-117717Y57093D02*
X-113779Y61030D01*
Y45282D02*
X-111473D01*
X-111473Y45282D01*
X-117717Y41345D02*
X-113779Y45282D01*
X-117717Y33470D02*
X-113779Y37407D01*
X-117717Y25596D02*
X-113779Y29533D01*
X-64373Y12200D02*
X-64272Y12302D01*
X-64373Y8115D02*
Y12200D01*
X-117717Y17722D02*
X-113779Y13785D01*
X-61713Y6496D02*
Y12302D01*
X-117717Y-72932D02*
X-113779Y-76869D01*
X-117717Y-65057D02*
X-113779Y-61120D01*
X-111473Y-45373D02*
X-111473Y-45373D01*
X-113779Y-45373D02*
X-111473D01*
X-117717Y-49310D02*
X-113779Y-45373D01*
X-117717Y-41436D02*
X-113779Y-37499D01*
X-117717Y-33562D02*
X-113779Y-29625D01*
X77067Y-18209D02*
Y-16559D01*
X-63386Y56988D02*
Y61509D01*
X-59153Y-13483D02*
X-59055Y-13384D01*
X163878Y0D02*
G03*
X163878Y0I-163878J0D01*
G01*
D14*
X-60039Y145177D02*
G03*
X-63673Y141543I0J-3634D01*
G01*
X-10375Y115945D02*
G03*
X-4134Y122186I0J6241D01*
G01*
X73228Y111558D02*
G03*
X67365Y117421I-5863J0D01*
G01*
X-198Y48228D02*
G03*
X-2953Y45472I0J-2755D01*
G01*
X47433Y-394D02*
G03*
X47638Y-189I0J205D01*
G01*
X47736Y-73819D02*
G03*
X45866Y-75689I0J-1870D01*
G01*
X43839Y-81260D02*
G03*
X45866Y-79232I0J2028D01*
G01*
X30283Y2198D02*
G03*
X32874Y-394I2592J0D01*
G01*
X3011Y-33898D02*
G03*
X492Y-34941I0J-3562D01*
G01*
X-3051Y-36713D02*
G03*
X-27Y-35460I0J4277D01*
G01*
X-45669Y98138D02*
G03*
X-43406Y95874I2264J0D01*
G01*
X-3044Y-9151D02*
G03*
X-4429Y-5807I-4729J0D01*
G01*
X-6004Y-2005D02*
G03*
X-4429Y-5807I5377J0D01*
G01*
X-27559Y112516D02*
G03*
X-31185Y116142I-3626J0D01*
G01*
X-27559Y104626D02*
G03*
X-24114Y101181I3445J0D01*
G01*
X37539Y-28898D02*
G03*
X39764Y-26673I0J2224D01*
G01*
X19783Y-21358D02*
G03*
X17323Y-18898I-2461J0D01*
G01*
X19783Y-26358D02*
G03*
X22323Y-28898I2539J0D01*
G01*
X-37402Y111024D02*
G03*
X-35433Y112992I0J1969D01*
G01*
X36909Y98425D02*
G03*
X41339Y102854I0J4429D01*
G01*
X-27349Y-78270D02*
G03*
X-26102Y-78720I1246J1498D01*
G01*
X-28051Y-76772D02*
G03*
X-27601Y-78018I1949J0D01*
G01*
X86516Y98917D02*
G03*
X87795Y102006I-3089J3089D01*
G01*
X85033Y97435D02*
G03*
X84343Y95768I1667J-1667D01*
G01*
X14665Y60925D02*
G03*
X9107Y63228I-5559J-5559D01*
G01*
X19980Y55610D02*
G03*
X25732Y53228I5752J5752D01*
G01*
X19783Y25964D02*
G03*
X22323Y23424I2539J0D01*
G01*
X19783Y30964D02*
G03*
X17323Y33424I-2461J0D01*
G01*
X-98Y60630D02*
G03*
X2304Y58228I2402J0D01*
G01*
X10236Y137795D02*
G03*
X7884Y136821I0J-3327D01*
G01*
X2461Y133858D02*
G03*
X6661Y135598I0J5940D01*
G01*
X-394Y133858D02*
G03*
X-4134Y130118I0J-3740D01*
G01*
X-16094Y130658D02*
G03*
X-17972Y128780I0J-1878D01*
G01*
X-20276Y138976D02*
G03*
X-25335Y133917I0J-5060D01*
G01*
X38504Y-76260D02*
G03*
X41043Y-73721I0J2539D01*
G01*
X20177Y-68721D02*
G03*
X17717Y-66260I-2461J0D01*
G01*
X20177Y-73721D02*
G03*
X22717Y-76260I2539J0D01*
G01*
X-13981Y-26476D02*
G03*
X-15555Y-28051I0J-1575D01*
G01*
X-661Y-28898D02*
G03*
X-2657Y-29724I0J-2823D01*
G01*
X-5271Y-30807D02*
G03*
X-2657Y-29724I0J3697D01*
G01*
X-56496Y106299D02*
G03*
X-54035Y108760I0J2461D01*
G01*
X-87500Y108169D02*
G03*
X-85630Y106299I1870J0D01*
G01*
X-63386Y115354D02*
G03*
X-61614Y117126I0J1772D01*
G01*
X35433Y123917D02*
G03*
X32579Y126772I-2854J0D01*
G01*
X-40846Y-136516D02*
G03*
X-38780Y-134449I0J2067D01*
G01*
X-66929Y-134350D02*
G03*
X-64764Y-136516I2165J0D01*
G01*
X-63673Y134646D02*
Y141543D01*
X-60039Y145177D02*
X-54035D01*
X2657Y116929D02*
X23228D01*
X-5217Y109055D02*
X2657Y116929D01*
X-10236Y109055D02*
X-5217D01*
X-17937Y115945D02*
X-10375D01*
X-4134Y122186D02*
Y130118D01*
X52658Y102953D02*
X57382D01*
X57972Y103543D01*
X-49016Y82087D02*
X-38583Y71653D01*
X-49016Y82087D02*
Y91929D01*
X64862Y117421D02*
X67365D01*
X73228Y101870D02*
Y111558D01*
X-198Y48228D02*
X7842D01*
X30283Y2198D02*
Y18424D01*
X-2953Y40650D02*
Y45472D01*
X40650Y-394D02*
X47433D01*
X47736Y-73819D02*
X59744D01*
X45866Y-79232D02*
Y-75689D01*
X30676Y-81260D02*
X43839D01*
X32874Y-394D02*
X40650D01*
X-3044Y-16188D02*
Y-9151D01*
X3011Y-33898D02*
X7842D01*
X-27Y-35460D02*
X492Y-34941D01*
X-43406Y95874D02*
X-37984D01*
X-45669Y98138D02*
Y104524D01*
X-6004Y-2005D02*
Y5413D01*
X-5906Y-36713D02*
X-3051D01*
X-13287Y77854D02*
X41142D01*
X-19685Y71457D02*
X-13287Y77854D01*
X-45669Y127270D02*
Y143209D01*
X59744Y21752D02*
X62598Y24606D01*
X59744Y4232D02*
Y21752D01*
X4139Y-53440D02*
X32377D01*
X1476Y-56102D02*
X4139Y-53440D01*
X-16233Y-78701D02*
X-5177D01*
X-2696Y-76220D01*
X8195D01*
X-35433Y116142D02*
X-31185D01*
X-27559Y104626D02*
Y112516D01*
X-24114Y101181D02*
X-16929D01*
X-10236D01*
X19783Y-26358D02*
Y-21358D01*
X7842Y-18898D02*
X17323D01*
X30283Y-28898D02*
X37539D01*
X22323D02*
X30283D01*
X59350Y-29204D02*
X61024Y-27531D01*
X59350Y-50295D02*
Y-29204D01*
X655Y-62875D02*
X3759D01*
X7441Y-59193D02*
X16791D01*
X3759Y-62875D02*
X7441Y-59193D01*
X41433Y95575D02*
X48626D01*
X-45669Y111024D02*
X-37402D01*
X-35433Y112992D02*
Y116142D01*
X36902Y98433D02*
X36909Y98425D01*
X41339Y102854D02*
Y106398D01*
X26378Y98433D02*
X36902D01*
X40650Y-5512D02*
X47630D01*
X59350Y-50295D02*
X59547Y-50492D01*
Y62697D02*
X62008Y65158D01*
Y68405D01*
X-27601Y-78018D02*
X-27349Y-78270D01*
X-28051Y-76772D02*
Y-74311D01*
X-26102Y-78720D02*
X-22369D01*
X11319Y-41831D02*
X32972D01*
X38730Y-36074D01*
X-38583Y71653D02*
X-19882D01*
X85033Y97435D02*
X86516Y98917D01*
X84343Y93307D02*
Y95768D01*
X14665Y60925D02*
X19980Y55610D01*
X25732Y53228D02*
X30283D01*
X15404Y66092D02*
X24557D01*
X22323Y23424D02*
X30283D01*
X7842Y33424D02*
X17323D01*
X19783Y25964D02*
Y30964D01*
X38730Y-36074D02*
X43207D01*
X2304Y58228D02*
X7842D01*
X-98Y60630D02*
Y64967D01*
X29020Y105989D02*
X35433Y112402D01*
Y123917D01*
X26453Y105989D02*
X29020D01*
X10236Y137795D02*
X18504D01*
X-394Y133858D02*
X2461D01*
X6661Y135598D02*
X7884Y136821D01*
X-17972Y123425D02*
Y128780D01*
X-16094Y130658D02*
X-12649D01*
X-25335Y119685D02*
Y133917D01*
X-20276Y138976D02*
X-12205D01*
X70276Y123425D02*
X74508Y119193D01*
X77461D01*
X65762Y123425D02*
X70276D01*
X30676Y-76260D02*
X38504D01*
X41043Y-73721D02*
Y-68012D01*
X20177Y-73721D02*
Y-68721D01*
X8235Y-66260D02*
X17717D01*
X22717Y-76260D02*
X30676D01*
X39764Y-26673D02*
Y-18602D01*
X-15555Y-30129D02*
Y-28051D01*
X-13981Y-26476D02*
X-9252D01*
X-661Y-28898D02*
X7842D01*
X-16233Y-30807D02*
X-5271D01*
X1529Y-22395D02*
X3032Y-23898D01*
X-2953Y-22395D02*
X1529D01*
X3032Y-23898D02*
X7842D01*
X59744Y-73819D02*
X60532D01*
X-85630Y106299D02*
X-56496D01*
X-54035Y108760D02*
Y121160D01*
X-87500Y108169D02*
Y112175D01*
X-66535Y115354D02*
X-63386D01*
X8661Y126772D02*
X32579D01*
X-5709Y-63386D02*
X144D01*
X-58268Y-136516D02*
X-40846D01*
X-38780Y-134449D02*
Y-129016D01*
X-66929Y-134350D02*
Y-129016D01*
X-64764Y-136516D02*
X-58268D01*
X-58268Y-136516D01*
X30283Y23424D02*
X39764D01*
X35335Y-61614D02*
Y-56398D01*
Y-61614D02*
X35433Y-61713D01*
X32377Y-53440D02*
X35335Y-56398D01*
X22148Y-59220D02*
X30676D01*
X30709Y-66227D02*
Y-59252D01*
X-22354Y-69346D02*
Y-30811D01*
X-22358Y-69350D02*
X-22354Y-69346D01*
Y-30811D02*
X-22349Y-30807D01*
X-16233D02*
X-15555Y-30129D01*
X13386Y7874D02*
X25295D01*
X-16233Y19193D02*
X-16188Y19147D01*
Y12349D02*
Y19147D01*
Y12349D02*
X-16142Y12303D01*
X-37598Y89961D02*
X41142D01*
X21769Y71073D02*
X30207D01*
X21760Y71082D02*
X21769Y71073D01*
X-22349Y68792D02*
X-19685Y71457D01*
X-22349Y53228D02*
Y68792D01*
X-14862Y-63878D02*
Y-54035D01*
X642Y-16188D02*
X5610Y-11220D01*
X16823D01*
X30217Y-18832D02*
Y-11220D01*
X22153D02*
X30217D01*
X30283Y-23898D02*
Y-18898D01*
X-45669Y104524D02*
Y104657D01*
X-2861Y-16188D02*
X642D01*
X41342Y90153D02*
X48717D01*
X7842Y-33898D02*
X30283D01*
Y23424D02*
X30283Y23424D01*
X-61614Y117126D02*
Y120276D01*
Y124016D01*
X-95768Y112175D02*
X-87500D01*
X59547Y52854D02*
Y62697D01*
X46010Y117375D02*
Y123373D01*
X87795Y102006D02*
Y105512D01*
X87845Y105561D02*
Y115404D01*
X-1272Y104831D02*
X8194D01*
X9013Y105913D02*
X15945D01*
X-102348Y112190D02*
X-95782D01*
X-95768Y112175D01*
X49319Y-55512D02*
X49606Y-55799D01*
X41339Y-55512D02*
X49319D01*
X41339Y-61024D02*
X49500D01*
X41433Y46756D02*
X49512D01*
X41342Y41335D02*
X49602D01*
X-45669Y121548D02*
X-45666Y121552D01*
X-40259D01*
X-22349Y28424D02*
Y53228D01*
Y28424D02*
X-22349Y28424D01*
X-22349Y-30807D02*
Y-22441D01*
X65755Y123432D02*
Y136312D01*
X-17937Y115945D02*
X-17717Y115724D01*
X-17972Y115945D02*
X-17937D01*
X-17717Y109055D02*
Y115724D01*
X-61566Y127708D02*
X-54084D01*
X-61614Y127756D02*
X-61566Y127708D01*
X-63386Y134646D02*
X-61614Y132874D01*
Y127756D02*
Y132874D01*
X-71457Y132480D02*
X-69291Y134646D01*
X-71457Y127756D02*
Y132480D01*
X-77461Y126378D02*
X-75098Y124016D01*
X-71457D01*
X-81384Y126378D02*
X-77461D01*
X-81384D02*
Y131706D01*
X-76772Y136319D01*
X-102355Y117709D02*
X-95775D01*
X-78543Y120276D02*
X-71457D01*
X-81011Y117808D02*
X-78543Y120276D01*
X-87500Y117808D02*
X-81011D01*
X77444Y122949D02*
Y136007D01*
X30283Y53228D02*
X39764D01*
X30283Y53228D02*
X30283Y53228D01*
X30250Y63261D02*
Y71030D01*
X30283Y28424D02*
Y33424D01*
X30299Y33441D01*
Y40633D01*
X22252Y40650D02*
X30315D01*
X9013Y98433D02*
X15945D01*
X26378Y102173D02*
Y105913D01*
X15945Y102173D02*
X26378D01*
X92094Y116339D02*
X95858D01*
X95866Y116331D01*
X87969Y115528D02*
X91283D01*
X92094Y116339D01*
X91897Y121653D02*
X95858D01*
X87969Y122858D02*
X90693D01*
X91897Y121653D01*
X77461Y119193D02*
X87894D01*
X77461Y115453D02*
Y119193D01*
X52074Y123425D02*
Y132087D01*
Y123425D02*
X59646D01*
X-87500Y117808D02*
Y126378D01*
X-95768Y112175D02*
X-95768Y112175D01*
X-16233Y19193D02*
X-2854D01*
X1377Y23424D01*
X7842D01*
X-16233Y53228D02*
X7842D01*
X-2953Y40650D02*
X16921D01*
X-2953Y34540D02*
Y40650D01*
X-98Y71082D02*
X16429D01*
X-5964Y71122D02*
X-138D01*
X-16233Y64967D02*
X-98D01*
X-22349Y-22441D02*
Y19193D01*
X-22349Y19193D01*
Y28424D01*
X-2953D02*
X7842D01*
X-16233D02*
X-2953D01*
X7832Y18415D02*
X7842Y18424D01*
X30676Y-71260D02*
Y-66260D01*
X1107Y-70107D02*
X2260Y-71260D01*
X8235D01*
X-16242Y-69350D02*
X295D01*
X-22354Y-78697D02*
Y-69355D01*
X8235Y-81260D02*
X30676D01*
X-16211Y-22418D02*
X-2976D01*
X7842Y18424D02*
X30283D01*
Y58228D02*
Y63228D01*
X7842Y48228D02*
X30283D01*
D20*
X-81384Y126378D02*
D03*
X-87500D02*
D03*
X45958Y123425D02*
D03*
X52074D02*
D03*
X59646D02*
D03*
X65762D02*
D03*
X-16233Y64967D02*
D03*
X-22349D02*
D03*
Y53228D02*
D03*
X-16233D02*
D03*
X-22349Y28424D02*
D03*
X-16233D02*
D03*
X-16233Y19193D02*
D03*
X-22349D02*
D03*
Y-22441D02*
D03*
X-16233D02*
D03*
Y-30807D02*
D03*
X-22349D02*
D03*
X-22358Y-69350D02*
D03*
X-16242D02*
D03*
X-16233Y-78701D02*
D03*
X-22349D02*
D03*
D21*
X-87500Y117808D02*
D03*
Y112175D02*
D03*
D22*
X-56504Y-117815D02*
D03*
X-49204Y-120415D02*
D03*
X-56504D02*
D03*
X-49204Y-117815D02*
D03*
Y-115215D02*
D03*
D23*
X-56504D02*
D03*
D24*
X59744Y-62106D02*
D03*
Y89433D02*
D03*
Y40201D02*
D03*
Y-8685D02*
D03*
D25*
Y-64075D02*
D03*
Y-66043D02*
D03*
Y-68012D02*
D03*
Y-69980D02*
D03*
X77067Y-62106D02*
D03*
Y-64075D02*
D03*
Y-66043D02*
D03*
Y-68012D02*
D03*
Y-69980D02*
D03*
Y81559D02*
D03*
Y83528D02*
D03*
Y85496D02*
D03*
Y87465D02*
D03*
Y89433D02*
D03*
X59744Y81559D02*
D03*
Y83528D02*
D03*
Y85496D02*
D03*
Y87465D02*
D03*
Y38232D02*
D03*
Y36264D02*
D03*
Y34295D02*
D03*
Y32327D02*
D03*
X77067Y40201D02*
D03*
Y38232D02*
D03*
Y36264D02*
D03*
Y34295D02*
D03*
Y32327D02*
D03*
Y-16559D02*
D03*
Y-14591D02*
D03*
Y-12622D02*
D03*
Y-10654D02*
D03*
Y-8685D02*
D03*
X59744Y-16559D02*
D03*
Y-14591D02*
D03*
Y-12622D02*
D03*
Y-10654D02*
D03*
D26*
X-61614Y120276D02*
D03*
Y124016D02*
D03*
Y127756D02*
D03*
X-71457Y120276D02*
D03*
Y124016D02*
D03*
D27*
Y127756D02*
D03*
D28*
X-17972Y123425D02*
D03*
X-25335Y119685D02*
D03*
D29*
X-17972Y115945D02*
D03*
D30*
X-45669Y104524D02*
D03*
Y111024D02*
D03*
X-54035Y127659D02*
D03*
Y121160D02*
D03*
D31*
X-78051Y-75197D02*
D03*
Y-81102D02*
D03*
X-77165Y68105D02*
D03*
Y74011D02*
D03*
X-78051Y18898D02*
D03*
Y24803D02*
D03*
Y-29528D02*
D03*
Y-23622D02*
D03*
D32*
X59646Y101870D02*
D03*
X73228D02*
D03*
X73130Y52854D02*
D03*
X59547D02*
D03*
X59744Y4232D02*
D03*
X73327D02*
D03*
X59547Y-50492D02*
D03*
X73130D02*
D03*
D33*
X-95768Y112175D02*
D03*
Y117702D02*
D03*
D34*
X49606Y-61130D02*
D03*
Y-55799D02*
D03*
X95866Y121661D02*
D03*
Y116331D02*
D03*
X8202Y99508D02*
D03*
Y104839D02*
D03*
X48720Y95480D02*
D03*
Y90150D02*
D03*
X84252Y52075D02*
D03*
Y46744D02*
D03*
X49606Y46661D02*
D03*
Y41331D02*
D03*
X84252Y-1386D02*
D03*
Y3945D02*
D03*
X47638Y-189D02*
D03*
Y-5520D02*
D03*
X83760Y-49894D02*
D03*
Y-55224D02*
D03*
D35*
X-45669Y127270D02*
D03*
Y121548D02*
D03*
D36*
X-69004Y134646D02*
D03*
X-63673D02*
D03*
X89673Y93307D02*
D03*
X84343D02*
D03*
X16823Y-11220D02*
D03*
X22153D02*
D03*
X16791Y-59193D02*
D03*
X22121D02*
D03*
X16429Y71082D02*
D03*
X21760D02*
D03*
X16921Y40650D02*
D03*
X22252D02*
D03*
D37*
X-71063Y61509D02*
D03*
X-71949Y12302D02*
D03*
Y-36124D02*
D03*
Y-87698D02*
D03*
D38*
X-68504Y61509D02*
D03*
X-65945D02*
D03*
X-63386D02*
D03*
X-60827D02*
D03*
X-58268D02*
D03*
X-55709D02*
D03*
X-53150D02*
D03*
Y84150D02*
D03*
X-55709D02*
D03*
X-58268D02*
D03*
X-60827D02*
D03*
X-63386D02*
D03*
X-65945D02*
D03*
X-68504D02*
D03*
X-71063D02*
D03*
X-71949Y34942D02*
D03*
X-69390D02*
D03*
X-66831D02*
D03*
X-64272D02*
D03*
X-61713D02*
D03*
X-59153D02*
D03*
X-56595D02*
D03*
X-54035D02*
D03*
Y12302D02*
D03*
X-56595D02*
D03*
X-59153D02*
D03*
X-61713D02*
D03*
X-64272D02*
D03*
X-66831D02*
D03*
X-69390D02*
D03*
Y-36124D02*
D03*
X-66831D02*
D03*
X-64272D02*
D03*
X-61713D02*
D03*
X-59153D02*
D03*
X-56595D02*
D03*
X-54035D02*
D03*
Y-13483D02*
D03*
X-56595D02*
D03*
X-59153D02*
D03*
X-61713D02*
D03*
X-64272D02*
D03*
X-66831D02*
D03*
X-69390D02*
D03*
X-71949D02*
D03*
Y-65057D02*
D03*
X-69390D02*
D03*
X-66831D02*
D03*
X-64272D02*
D03*
X-61713D02*
D03*
X-59153D02*
D03*
X-56595D02*
D03*
X-54035D02*
D03*
Y-87698D02*
D03*
X-56595D02*
D03*
X-59153D02*
D03*
X-61713D02*
D03*
X-64272D02*
D03*
X-66831D02*
D03*
X-69390D02*
D03*
D39*
X77461Y122933D02*
D03*
X26378Y98433D02*
D03*
D40*
X87894Y115453D02*
D03*
Y122933D02*
D03*
X77461Y119193D02*
D03*
Y115453D02*
D03*
X87894Y119193D02*
D03*
X15945Y105913D02*
D03*
Y98433D02*
D03*
X26378Y102173D02*
D03*
Y105913D02*
D03*
X15945Y102173D02*
D03*
D41*
X-98Y71082D02*
D03*
Y64967D02*
D03*
X-2953Y34540D02*
D03*
Y28424D02*
D03*
X-2953Y-22395D02*
D03*
Y-16280D02*
D03*
X295Y-63235D02*
D03*
Y-69350D02*
D03*
D42*
X30283Y48228D02*
D03*
Y53228D02*
D03*
Y58228D02*
D03*
Y63228D02*
D03*
X7842Y48228D02*
D03*
Y53228D02*
D03*
Y58228D02*
D03*
Y28424D02*
D03*
Y23424D02*
D03*
Y18424D02*
D03*
X30283Y33424D02*
D03*
Y28424D02*
D03*
Y23424D02*
D03*
Y18424D02*
D03*
Y-33898D02*
D03*
Y-28898D02*
D03*
Y-23898D02*
D03*
Y-18898D02*
D03*
X7842Y-33898D02*
D03*
Y-28898D02*
D03*
Y-23898D02*
D03*
X30676Y-81260D02*
D03*
Y-76260D02*
D03*
Y-71260D02*
D03*
Y-66260D02*
D03*
X8235Y-81260D02*
D03*
Y-76260D02*
D03*
Y-71260D02*
D03*
D43*
X7842Y63228D02*
D03*
Y33424D02*
D03*
Y-18898D02*
D03*
X8235Y-66260D02*
D03*
D44*
X-10236Y101181D02*
D03*
X-17717Y109055D02*
D03*
X-10236D02*
D03*
D45*
X-16929Y101181D02*
D03*
D56*
X52074Y132087D02*
D03*
D57*
X-117717Y-9939D02*
D03*
X109843Y80701D02*
D03*
Y-9939D02*
D03*
X-117717Y80715D02*
D03*
D61*
X-12205Y146850D02*
D03*
Y138976D02*
D03*
Y131102D02*
D03*
X-31890Y146850D02*
D03*
Y138976D02*
D03*
Y131102D02*
D03*
D67*
X37609Y-146949D02*
G03*
X49723Y-134835I0J12113D01*
G01*
X56790Y77264D02*
G03*
X47736Y68210I0J-9054D01*
G01*
X-70177Y77067D02*
G03*
X-68504Y78740I0J1673D01*
G01*
X-70965Y29035D02*
G03*
X-69390Y30610I0J1575D01*
G01*
X-71161Y-19882D02*
G03*
X-69390Y-18110I0J1772D01*
G01*
X-70866Y-71358D02*
G03*
X-69390Y-69882I0J1476D01*
G01*
X-21852Y-99606D02*
G03*
X-24018Y-97441I-2165J0D01*
G01*
X-45768Y-46752D02*
G03*
X-44291Y-43188I-3564J3564D01*
G01*
Y-21570D02*
G03*
X-45972Y-17512I-5739J0D01*
G01*
X-45768Y-46752D02*
G03*
X-46752Y-49128I2376J-2376D01*
G01*
X-21852Y-103543D02*
G03*
X-19884Y-105512I1969J0D01*
G01*
X-48228Y21752D02*
G03*
X-50590Y24114I-2362J0D01*
G01*
X-48228Y-13168D02*
G03*
X-46752Y-16732I5041J0D01*
G01*
X42421Y36220D02*
G03*
X39764Y33563I0J-2657D01*
G01*
X-84153Y-110689D02*
G03*
X-74197Y-134785I34621J200D01*
G01*
X-74197Y-134785D02*
G03*
X-56179Y-142224I17985J18020D01*
G01*
X-15256Y-88583D02*
G03*
X-17717Y-86122I-2461J0D01*
G01*
X-32579Y64862D02*
G03*
X-34843Y67126I-2264J0D01*
G01*
X-32579Y-81004D02*
G03*
X-27461Y-86122I5118J0D01*
G01*
X24596Y-131890D02*
G03*
X26575Y-129911I0J1979D01*
G01*
X89075Y-112697D02*
G03*
X93510Y-108262I0J4435D01*
G01*
X-18799Y-112697D02*
G03*
X-25098Y-118996I0J-6299D01*
G01*
X98524Y93307D02*
G03*
X100000Y94784I0J1476D01*
G01*
X-27268Y-149126D02*
G03*
X-25098Y-144222I-4443J4898D01*
G01*
X-35565Y-152202D02*
G03*
X-35606Y-152202I-21J-1181D01*
G01*
X-35565Y-152202D02*
G03*
X-27271Y-149129I248J12059D01*
G01*
X-86468Y-131777D02*
G03*
X-35611Y-152202I49371J49402D01*
G01*
X-93996Y-113334D02*
G03*
X-86468Y-131777I26394J16D01*
G01*
X49723Y-134835D02*
Y-129331D01*
X49723Y-134835D02*
X49723D01*
X-59055Y76968D02*
X-51378D01*
X-41535Y67126D01*
X56790Y77264D02*
X65945D01*
X-93996Y63484D02*
X-71301D01*
X-71063Y63247D01*
X47736Y-50197D02*
Y-23130D01*
X-14272Y-115847D02*
X8957D01*
X11909Y-118799D01*
X-3937Y-142224D02*
X13287D01*
X-39469Y-108760D02*
X-10830D01*
X-42520Y-111811D02*
X-39469Y-108760D01*
X8747Y-91056D02*
X8760Y-91043D01*
X8747Y-94599D02*
Y-91056D01*
X4429Y-98917D02*
X8747Y-94599D01*
X56693Y-94488D02*
Y-82284D01*
X101378Y29134D02*
Y82677D01*
X-101378Y77067D02*
X-70177D01*
X-101378Y-19882D02*
X-71161D01*
X-101378Y29035D02*
X-70965D01*
X-97441Y-71358D02*
X-70866D01*
X68701Y19193D02*
X73327Y14567D01*
Y4232D02*
Y14567D01*
X65945Y19193D02*
X68701D01*
X-46752Y-97441D02*
X-24018D01*
X-46752Y-72342D02*
Y-49128D01*
Y-72342D02*
X-43799Y-75295D01*
X-44291Y-31791D02*
Y-21570D01*
X-19884Y-105512D02*
X-7382D01*
X-21852Y-103543D02*
Y-99606D01*
X-56398Y24114D02*
X-50590D01*
X-48228Y15748D02*
Y21752D01*
X-46752Y-16732D02*
X-45972Y-17512D01*
X-48228Y-13168D02*
Y-5906D01*
X-3839Y-146949D02*
X37609D01*
X47736Y52165D02*
Y68210D01*
Y7874D02*
Y16732D01*
X42421Y36220D02*
X53937D01*
X39764Y23424D02*
Y33563D01*
X64468Y-70538D02*
X65453Y-71523D01*
X64468Y-70538D02*
Y-23622D01*
X65453Y-71949D02*
Y-71523D01*
Y-92716D02*
Y-81201D01*
Y-92716D02*
X71358Y-98622D01*
X62119Y74102D02*
X63989D01*
X73130Y64961D01*
Y52854D02*
Y64961D01*
X-74197Y-134785D02*
X-74197Y-134785D01*
X101378Y-113681D02*
Y-66437D01*
Y-19193D01*
Y29134D01*
X-56595Y-106004D02*
Y-99902D01*
X-27461Y-86122D02*
X-17717D01*
X-15256Y-102362D02*
Y-88583D01*
X-32579Y-81004D02*
Y64862D01*
X-41535Y67126D02*
X-34843D01*
X-10824Y-108760D02*
X88580D01*
X-18799Y-112697D02*
X-10830D01*
X-10824D02*
X89075D01*
X-2657Y-131890D02*
X24596D01*
X26575Y-129911D02*
Y-125984D01*
X11909Y-118799D02*
X83957D01*
X93510Y-108262D02*
Y-87615D01*
X-84153Y-110689D02*
Y-104331D01*
X-44291Y-43188D02*
Y-39862D01*
X-69390Y-18110D02*
Y-13483D01*
X89673Y93307D02*
X98524D01*
X100000Y94784D02*
Y98917D01*
X82776Y41146D02*
X84243Y42613D01*
Y46735D01*
X-93996Y-113334D02*
Y-100394D01*
X-25098Y-144222D02*
Y-118996D01*
X-27271Y-149129D02*
X-27268Y-149126D01*
X-35611Y-152202D02*
X-35606Y-152202D01*
X-56179Y-142224D02*
X-29035D01*
X93608Y-36124D02*
X93654Y-36077D01*
X93562Y-36170D02*
X93608Y-36124D01*
X93562Y-87564D02*
Y-36170D01*
X97638Y-13484D02*
Y37402D01*
Y-58858D02*
Y-13484D01*
X97539Y-108760D02*
Y-58957D01*
X97638Y-58858D01*
X71358Y-102854D02*
Y-98622D01*
X75787Y-102854D02*
Y-88386D01*
X-93996Y-87106D02*
X-72186D01*
X-93996Y-35433D02*
X-72186D01*
Y13780D02*
X-71949Y13542D01*
X-93996Y13780D02*
X-72186D01*
X-101378Y-67421D02*
X-97441Y-71358D01*
X-72168Y-64468D02*
X-71949Y-64688D01*
Y-65057D02*
Y-64688D01*
X-97441Y-64468D02*
X-72168D01*
X-71949Y-13483D02*
Y-13015D01*
X-72168Y-12795D02*
X-71949Y-13015D01*
X-97441Y-12795D02*
X-72168D01*
X-97439Y34942D02*
X-71949D01*
X-68504Y78740D02*
Y84150D01*
X-88386Y80020D02*
X-78839D01*
X93898Y68504D02*
Y80807D01*
X84252Y-7382D02*
Y-1386D01*
X84153Y-102362D02*
Y-89714D01*
X-60236Y27953D02*
X-56398Y24114D01*
X75787Y-88386D02*
X87106Y-77067D01*
Y-70866D01*
X69587Y-39665D02*
X73130Y-43209D01*
X69587Y-39665D02*
Y-28937D01*
X84153Y-89714D02*
X90551Y-83316D01*
Y-68012D01*
Y-16339D01*
X87106Y-64665D02*
Y-15886D01*
X87795Y-15197D01*
Y-9909D02*
Y38976D01*
Y-15197D02*
Y-9909D01*
X97638Y37402D02*
Y86614D01*
X87746Y39026D02*
Y83612D01*
X90551Y65158D02*
X93898Y68504D01*
X84243Y46735D02*
X84252Y46744D01*
X90551Y32283D02*
Y65158D01*
Y-16339D02*
Y32283D01*
X93654Y12552D02*
X93701Y12598D01*
X93654Y-36077D02*
Y12552D01*
X93701Y12598D02*
Y61417D01*
X73130Y-50492D02*
Y-43209D01*
X84252Y3945D02*
Y9843D01*
X84350Y52173D02*
Y58366D01*
X84252Y52075D02*
X84350Y52173D01*
X83760Y-49894D02*
Y-40354D01*
X-69390Y30610D02*
Y34942D01*
Y-69882D02*
Y-65057D01*
D68*
X-157268Y15961D02*
X-155268D01*
X-156268D01*
Y21959D01*
X-157268Y20959D01*
D69*
X-50295Y-132087D02*
D03*
X-55413D02*
D03*
X-57972Y-128150D02*
D03*
X-52854D02*
D03*
X-47736D02*
D03*
X30217Y71063D02*
D03*
X52658Y102953D02*
D03*
X-49016Y91929D02*
D03*
X41142Y77854D02*
D03*
X-45669Y143209D02*
D03*
X62598Y24606D02*
D03*
X1476Y-56102D02*
D03*
X-9843Y-73524D02*
D03*
X46260Y-94980D02*
D03*
X61024Y-27264D02*
D03*
X41433Y95575D02*
D03*
X-35433Y116142D02*
D03*
X-62402Y-122835D02*
D03*
X1280Y-158169D02*
D03*
X62008Y68405D02*
D03*
X15354Y66043D02*
D03*
X-5709Y-63386D02*
D03*
X-28051Y-74311D02*
D03*
X-37598Y-54331D02*
D03*
X30709Y-59252D02*
D03*
X35433Y-61713D02*
D03*
X-39370Y-119980D02*
D03*
X-9252Y-26476D02*
D03*
X-28150Y-36713D02*
D03*
X25295Y7874D02*
D03*
X-16142Y12303D02*
D03*
X24606Y66142D02*
D03*
X-19685Y71457D02*
D03*
X-14862Y-63878D02*
D03*
X-54626Y-28543D02*
D03*
X60532Y-73819D02*
D03*
X64862Y117421D02*
D03*
X30217Y-11220D02*
D03*
X11319Y-41831D02*
D03*
X-54724Y20669D02*
D03*
X-37795Y89764D02*
D03*
X41339Y90158D02*
D03*
X13386Y7874D02*
D03*
X-37795Y-5906D02*
D03*
X-66535Y115354D02*
D03*
X-14862Y-54035D02*
D03*
X-28150Y-22441D02*
D03*
X74803Y19587D02*
D03*
X46063Y117323D02*
D03*
X87795Y105512D02*
D03*
X-57087Y68898D02*
D03*
X-1280Y104823D02*
D03*
X-102362Y112205D02*
D03*
X41339Y-61024D02*
D03*
Y-55512D02*
D03*
X40650Y-5512D02*
D03*
Y-394D02*
D03*
X41339Y46850D02*
D03*
Y41339D02*
D03*
X-40256Y121555D02*
D03*
X65748Y136319D02*
D03*
X-76772Y136319D02*
D03*
X-102362Y117717D02*
D03*
X-37894Y95965D02*
D03*
Y45374D02*
D03*
Y40059D02*
D03*
Y197D02*
D03*
X-37598Y-59646D02*
D03*
X30315Y40650D02*
D03*
X-6004Y5413D02*
D03*
X-28346Y97933D02*
D03*
X-4528Y97835D02*
D03*
X-5906Y-36713D02*
D03*
X-28346Y40650D02*
D03*
X-16240Y59252D02*
D03*
X-2953Y40650D02*
D03*
X-28150Y5413D02*
D03*
X-6004Y71161D02*
D03*
D70*
X-66929Y-129016D02*
D03*
X-38780D02*
D03*
D71*
X-38780Y27854D02*
D03*
X41339Y106398D02*
D03*
X-54035Y145177D02*
D03*
X39764Y66339D02*
D03*
X-38091Y81102D02*
D03*
X39764Y12302D02*
D03*
X51181Y-89075D02*
D03*
X-38287Y-69980D02*
D03*
X-38091Y61509D02*
D03*
X84153Y-118602D02*
D03*
X39764Y53228D02*
D03*
X39764Y23424D02*
D03*
Y-18602D02*
D03*
X41043Y-68012D02*
D03*
X-38287Y-81595D02*
D03*
X38386Y-129331D02*
D03*
X77428Y136024D02*
D03*
X-38287Y-12622D02*
D03*
X49723Y-129331D02*
D03*
X-36811Y-92222D02*
D03*
X-21852D02*
D03*
D72*
X52074Y142087D02*
D03*
D73*
X-146457Y0D02*
D03*
X146457D02*
D03*
D74*
X-117717Y-25688D02*
D03*
X-109843D02*
D03*
X-117717Y-17813D02*
D03*
X-109843D02*
D03*
Y-9939D02*
D03*
X-117717Y-80806D02*
D03*
X-109843D02*
D03*
X-117717Y-72932D02*
D03*
X-109843D02*
D03*
X-117717Y-65057D02*
D03*
X-109843D02*
D03*
Y-57183D02*
D03*
X-117717Y-49310D02*
D03*
X-109843D02*
D03*
X-117717Y-41436D02*
D03*
X-109843D02*
D03*
X-117717Y-33562D02*
D03*
X-109843D02*
D03*
X-117717Y-57183D02*
D03*
X109843Y64953D02*
D03*
X117717D02*
D03*
X109843Y72827D02*
D03*
X117717D02*
D03*
Y80701D02*
D03*
X109843Y9835D02*
D03*
X117717D02*
D03*
X109843Y17709D02*
D03*
X117717D02*
D03*
X109843Y25583D02*
D03*
X117717D02*
D03*
Y33457D02*
D03*
X109843Y41331D02*
D03*
X117717D02*
D03*
X109843Y49205D02*
D03*
X117717D02*
D03*
X109843Y57079D02*
D03*
X117717D02*
D03*
X109843Y33457D02*
D03*
Y-25688D02*
D03*
X117717D02*
D03*
X109843Y-17813D02*
D03*
X117717D02*
D03*
Y-9939D02*
D03*
X109843Y-80806D02*
D03*
X117717D02*
D03*
X109843Y-72932D02*
D03*
X117717D02*
D03*
X109843Y-65057D02*
D03*
X117717D02*
D03*
Y-57183D02*
D03*
X109843Y-49310D02*
D03*
X117717D02*
D03*
X109843Y-41436D02*
D03*
X117717D02*
D03*
X109843Y-33562D02*
D03*
X117717D02*
D03*
X109843Y-57183D02*
D03*
X-117717Y64967D02*
D03*
X-109843D02*
D03*
X-117717Y72841D02*
D03*
X-109843D02*
D03*
Y80715D02*
D03*
X-117717Y9849D02*
D03*
X-109843D02*
D03*
X-117717Y17722D02*
D03*
X-109843D02*
D03*
X-117717Y25596D02*
D03*
X-109843D02*
D03*
Y33470D02*
D03*
X-117717Y41345D02*
D03*
X-109843D02*
D03*
X-117717Y49219D02*
D03*
X-109843D02*
D03*
X-117717Y57093D02*
D03*
X-109843D02*
D03*
X-117717Y33470D02*
D03*
D75*
X18504Y137795D02*
D03*
D76*
X8661Y126772D02*
D03*
X23228Y116929D02*
D03*
D77*
X394Y143701D02*
D03*
D78*
X43257Y-36124D02*
D03*
X-38091D02*
D03*
X-38780Y12302D02*
D03*
D79*
X82677Y32186D02*
D03*
X87697Y83661D02*
D03*
X-59055Y76968D02*
D03*
X-12303Y-84350D02*
D03*
X65945Y77264D02*
D03*
X74311Y74311D02*
D03*
X-78642Y60532D02*
D03*
X52658Y-15280D02*
D03*
X61024Y-21654D02*
D03*
X47736Y-23130D02*
D03*
X74902Y-80709D02*
D03*
Y-74705D02*
D03*
X3051Y-118701D02*
D03*
X13287Y-142224D02*
D03*
X-7874Y-131398D02*
D03*
X-42520Y-111811D02*
D03*
X8760Y-91043D02*
D03*
X56693Y-94488D02*
D03*
X-27756Y-100689D02*
D03*
Y-104232D02*
D03*
X101378Y82677D02*
D03*
X-66929Y-117815D02*
D03*
X-80118Y-39370D02*
D03*
X65945Y19193D02*
D03*
X-43799Y-75295D02*
D03*
X-3839Y-146949D02*
D03*
X47736Y52165D02*
D03*
Y16732D02*
D03*
Y7874D02*
D03*
Y-50197D02*
D03*
X52658Y-5709D02*
D03*
Y-41437D02*
D03*
X56595Y-82185D02*
D03*
X64468Y-23622D02*
D03*
X65453Y-81201D02*
D03*
Y-71949D02*
D03*
X62008Y74213D02*
D03*
X101378Y-113681D02*
D03*
Y-66437D02*
D03*
Y-19193D02*
D03*
Y29134D02*
D03*
X-56595Y-106004D02*
D03*
Y-99902D02*
D03*
X4429Y-98917D02*
D03*
X-7382Y-105512D02*
D03*
X-10827Y-112697D02*
D03*
X-14272Y-115847D02*
D03*
X-46752Y-97441D02*
D03*
X-2559Y-101083D02*
D03*
X-6594Y-97638D02*
D03*
X-10827Y-108760D02*
D03*
X-21850Y-133169D02*
D03*
X-2657Y-131890D02*
D03*
X26575Y-125984D02*
D03*
X-84153Y-104331D02*
D03*
X82776Y41134D02*
D03*
X87795Y38976D02*
D03*
X-93996Y-100394D02*
D03*
X-29035Y-142224D02*
D03*
X97539Y-108760D02*
D03*
X88583D02*
D03*
X71358Y-102854D02*
D03*
X75787D02*
D03*
X-3937Y-142224D02*
D03*
X-93996Y-87106D02*
D03*
Y-35433D02*
D03*
Y13780D02*
D03*
Y63484D02*
D03*
X-101378Y-67421D02*
D03*
X-97441Y-64468D02*
D03*
X-75787Y-59055D02*
D03*
X-80420Y-68019D02*
D03*
X-84153Y-60532D02*
D03*
X-97441Y-12795D02*
D03*
X-84153Y-8366D02*
D03*
X-97441Y34941D02*
D03*
Y83661D02*
D03*
X-84153Y87598D02*
D03*
X-101378Y-19882D02*
D03*
Y29035D02*
D03*
Y77067D02*
D03*
X-88386Y80020D02*
D03*
X-78839D02*
D03*
X93799Y80905D02*
D03*
X84252Y-7382D02*
D03*
X-56595Y-81201D02*
D03*
X84153Y-102362D02*
D03*
X-15256D02*
D03*
X-44291Y-39862D02*
D03*
Y-31791D02*
D03*
X-48228Y-5906D02*
D03*
Y15748D02*
D03*
X69587Y-28937D02*
D03*
X53992Y32327D02*
D03*
X-69390Y-81102D02*
D03*
Y-75295D02*
D03*
X90551Y-68012D02*
D03*
X87106Y-64665D02*
D03*
X93515Y-87610D02*
D03*
X87106Y-70866D02*
D03*
X97539Y-58957D02*
D03*
X78543Y-58563D02*
D03*
X82874Y-16339D02*
D03*
Y80905D02*
D03*
X-59941Y-26476D02*
D03*
X-49508Y-31693D02*
D03*
Y-39665D02*
D03*
X-58169Y-75689D02*
D03*
X-77362Y32185D02*
D03*
X-77264Y-16437D02*
D03*
X90551Y-16339D02*
D03*
X97638Y-13484D02*
D03*
Y86614D02*
D03*
Y37402D02*
D03*
X93701Y12598D02*
D03*
X84252Y9843D02*
D03*
X93608Y-36124D02*
D03*
X87795Y-9909D02*
D03*
X84350Y58366D02*
D03*
X93701Y61417D02*
D03*
X90551Y32283D02*
D03*
X-79134Y10039D02*
D03*
X-61024Y-20669D02*
D03*
X-69400Y-23688D02*
D03*
X-54626Y28051D02*
D03*
X-78740Y40354D02*
D03*
X100000Y98917D02*
D03*
X-79134Y-7087D02*
D03*
X53937Y36220D02*
D03*
X-68405Y73819D02*
D03*
X-54724Y73622D02*
D03*
X-69390Y25197D02*
D03*
X52756Y81496D02*
D03*
X-60236Y27953D02*
D03*
X-68632Y68233D02*
D03*
X74803Y68307D02*
D03*
Y-22638D02*
D03*
Y-28543D02*
D03*
Y25098D02*
D03*
X83760Y-40354D02*
D03*
X-88287Y-68012D02*
D03*
X-84153Y38386D02*
D03*
X-89567Y87598D02*
D03*
X-88287Y-16437D02*
D03*
Y32186D02*
D03*
X-69390Y18898D02*
D03*
Y-29528D02*
D03*
M02*
