G04*
G04 #@! TF.GenerationSoftware,Altium Limited,Altium Designer,23.3.1 (30)*
G04*
G04 Layer_Physical_Order=3*
G04 Layer_Color=16440176*
%FSLAX25Y25*%
%MOIN*%
G70*
G04*
G04 #@! TF.SameCoordinates,7FDB2B4D-D7D5-4B3D-9FC9-9F88D19D1CF5*
G04*
G04*
G04 #@! TF.FilePolarity,Positive*
G04*
G01*
G75*
%ADD13C,0.00787*%
%ADD68C,0.01000*%
%ADD69C,0.03543*%
%ADD71R,0.05118X0.05118*%
%ADD79C,0.02756*%
G36*
X7983Y162500D02*
X15947Y161912D01*
X23872Y160935D01*
X31740Y159570D01*
X39532Y157820D01*
X47228Y155690D01*
X54811Y153185D01*
X62261Y150311D01*
X69561Y147075D01*
X76694Y143485D01*
X83642Y139549D01*
X90389Y135277D01*
X96918Y130678D01*
X103213Y125766D01*
X109260Y120550D01*
X115043Y115043D01*
X120550Y109260D01*
X125766Y103213D01*
X130678Y96918D01*
X135277Y90389D01*
X139549Y83642D01*
X143485Y76694D01*
X147075Y69561D01*
X150311Y62261D01*
X153185Y54811D01*
X155690Y47228D01*
X157820Y39532D01*
X159570Y31740D01*
X160935Y23872D01*
X161912Y15947D01*
X162500Y7983D01*
X162693Y99D01*
X162674Y0D01*
X162693Y-99D01*
X162500Y-7983D01*
X161912Y-15947D01*
X160935Y-23872D01*
X159570Y-31740D01*
X157820Y-39532D01*
X155690Y-47228D01*
X153185Y-54811D01*
X150311Y-62261D01*
X147075Y-69561D01*
X143485Y-76694D01*
X139549Y-83642D01*
X135277Y-90389D01*
X130678Y-96918D01*
X125766Y-103213D01*
X120550Y-109260D01*
X115043Y-115043D01*
X109260Y-120550D01*
X103213Y-125766D01*
X96918Y-130678D01*
X90389Y-135277D01*
X83642Y-139549D01*
X76694Y-143485D01*
X69561Y-147075D01*
X62261Y-150311D01*
X54811Y-153185D01*
X47228Y-155690D01*
X39532Y-157820D01*
X31740Y-159570D01*
X23872Y-160935D01*
X15947Y-161912D01*
X7983Y-162500D01*
X99Y-162693D01*
X0Y-162674D01*
X-99Y-162693D01*
X-7983Y-162500D01*
X-15947Y-161912D01*
X-23872Y-160935D01*
X-31740Y-159570D01*
X-39532Y-157820D01*
X-47228Y-155690D01*
X-54811Y-153185D01*
X-62261Y-150311D01*
X-69561Y-147075D01*
X-76694Y-143485D01*
X-83642Y-139549D01*
X-90389Y-135277D01*
X-96918Y-130678D01*
X-103213Y-125766D01*
X-109260Y-120550D01*
X-115043Y-115043D01*
X-120550Y-109260D01*
X-125766Y-103213D01*
X-130678Y-96918D01*
X-135277Y-90389D01*
X-139549Y-83642D01*
X-143485Y-76694D01*
X-147075Y-69561D01*
X-150311Y-62261D01*
X-153185Y-54811D01*
X-155690Y-47228D01*
X-157820Y-39532D01*
X-159570Y-31740D01*
X-160935Y-23872D01*
X-161912Y-15947D01*
X-162500Y-7983D01*
X-162693Y-99D01*
X-162674Y0D01*
X-162693Y99D01*
X-162500Y7983D01*
X-161912Y15947D01*
X-160935Y23872D01*
X-159570Y31740D01*
X-157820Y39532D01*
X-155690Y47228D01*
X-153185Y54811D01*
X-150311Y62261D01*
X-147075Y69561D01*
X-143485Y76694D01*
X-139549Y83642D01*
X-135277Y90389D01*
X-130678Y96918D01*
X-125766Y103213D01*
X-120550Y109260D01*
X-115043Y115043D01*
X-109260Y120550D01*
X-103213Y125766D01*
X-96918Y130678D01*
X-90389Y135277D01*
X-83642Y139549D01*
X-76694Y143485D01*
X-69561Y147075D01*
X-62261Y150311D01*
X-54811Y153185D01*
X-47228Y155690D01*
X-39532Y157820D01*
X-31740Y159570D01*
X-23872Y160935D01*
X-15947Y161912D01*
X-7983Y162500D01*
X-99Y162693D01*
X0Y162674D01*
X99Y162693D01*
X7983Y162500D01*
D02*
G37*
%LPC*%
G36*
X-50689Y148524D02*
X-57382D01*
Y141831D01*
X-50689D01*
Y148524D01*
D02*
G37*
G36*
X-45332Y145768D02*
X-46006D01*
X-46657Y145593D01*
X-47241Y145256D01*
X-47717Y144780D01*
X-48054Y144196D01*
X-48228Y143546D01*
Y142872D01*
X-48054Y142221D01*
X-47717Y141637D01*
X-47241Y141161D01*
X-46657Y140824D01*
X-46006Y140650D01*
X-45332D01*
X-44682Y140824D01*
X-44098Y141161D01*
X-43622Y141637D01*
X-43285Y142221D01*
X-43110Y142872D01*
Y143546D01*
X-43285Y144196D01*
X-43622Y144780D01*
X-44098Y145256D01*
X-44682Y145593D01*
X-45332Y145768D01*
D02*
G37*
G36*
X56011Y146024D02*
X48137D01*
Y138150D01*
X56011D01*
Y146024D01*
D02*
G37*
G36*
X394Y151616D02*
X-840Y151453D01*
X-1989Y150977D01*
X-2976Y150220D01*
X-3733Y149233D01*
X-4209Y148084D01*
X-4372Y146850D01*
Y140551D01*
X-4209Y139318D01*
X-3733Y138169D01*
X-2976Y137182D01*
X-1989Y136424D01*
X-840Y135948D01*
X394Y135786D01*
X1627Y135948D01*
X2776Y136424D01*
X3763Y137182D01*
X4521Y138169D01*
X4997Y139318D01*
X5159Y140551D01*
Y146850D01*
X4997Y148084D01*
X4521Y149233D01*
X3763Y150220D01*
X2776Y150977D01*
X1627Y151453D01*
X394Y151616D01*
D02*
G37*
G36*
X-76435Y138878D02*
X-77109D01*
X-77759Y138704D01*
X-78343Y138367D01*
X-78819Y137890D01*
X-79156Y137307D01*
X-79331Y136656D01*
Y135982D01*
X-79156Y135331D01*
X-78819Y134748D01*
X-78343Y134271D01*
X-77759Y133934D01*
X-77109Y133760D01*
X-76435D01*
X-75784Y133934D01*
X-75200Y134271D01*
X-74724Y134748D01*
X-74387Y135331D01*
X-74213Y135982D01*
Y136656D01*
X-74387Y137307D01*
X-74724Y137890D01*
X-75200Y138367D01*
X-75784Y138704D01*
X-76435Y138878D01*
D02*
G37*
G36*
X66085Y138878D02*
X65411D01*
X64760Y138704D01*
X64177Y138367D01*
X63700Y137890D01*
X63363Y137307D01*
X63189Y136656D01*
Y135982D01*
X63363Y135331D01*
X63700Y134748D01*
X64177Y134271D01*
X64760Y133934D01*
X65411Y133760D01*
X66085D01*
X66736Y133934D01*
X67319Y134271D01*
X67796Y134748D01*
X68133Y135331D01*
X68307Y135982D01*
Y136656D01*
X68133Y137307D01*
X67796Y137890D01*
X67319Y138367D01*
X66736Y138704D01*
X66085Y138878D01*
D02*
G37*
G36*
X80775Y139370D02*
X74082D01*
Y132677D01*
X80775D01*
Y139370D01*
D02*
G37*
G36*
X19202Y144882D02*
X17806D01*
X16437Y144610D01*
X15147Y144075D01*
X13986Y143300D01*
X12999Y142313D01*
X12224Y141152D01*
X11690Y139862D01*
X11417Y138493D01*
Y137097D01*
X11690Y135728D01*
X12224Y134439D01*
X12999Y133278D01*
X13986Y132291D01*
X15147Y131515D01*
X16437Y130981D01*
X17806Y130709D01*
X19202D01*
X20571Y130981D01*
X21861Y131515D01*
X23021Y132291D01*
X24009Y133278D01*
X24784Y134439D01*
X25318Y135728D01*
X25591Y137097D01*
Y138493D01*
X25318Y139862D01*
X24784Y141152D01*
X24009Y142313D01*
X23021Y143300D01*
X21861Y144075D01*
X20571Y144610D01*
X19202Y144882D01*
D02*
G37*
G36*
X52592Y136024D02*
X51555D01*
X50554Y135755D01*
X49656Y135237D01*
X48923Y134504D01*
X48405Y133606D01*
X48137Y132605D01*
Y131568D01*
X48405Y130567D01*
X48923Y129669D01*
X49656Y128936D01*
X50554Y128418D01*
X51555Y128150D01*
X52592D01*
X53593Y128418D01*
X54491Y128936D01*
X55224Y129669D01*
X55742Y130567D01*
X56011Y131568D01*
Y132605D01*
X55742Y133606D01*
X55224Y134504D01*
X54491Y135237D01*
X53593Y135755D01*
X52592Y136024D01*
D02*
G37*
G36*
X-11712Y150591D02*
X-12697D01*
X-13648Y150336D01*
X-14501Y149843D01*
X-15198Y149147D01*
X-15690Y148294D01*
X-15945Y147343D01*
Y146358D01*
X-15690Y145407D01*
X-15198Y144554D01*
X-14501Y143858D01*
X-13648Y143365D01*
X-12928Y143172D01*
Y142655D01*
X-13648Y142462D01*
X-14501Y141969D01*
X-15198Y141273D01*
X-15690Y140420D01*
X-15945Y139469D01*
Y138484D01*
X-15690Y137533D01*
X-15198Y136680D01*
X-14501Y135984D01*
X-13648Y135491D01*
X-12928Y135298D01*
Y134781D01*
X-13648Y134588D01*
X-14501Y134095D01*
X-15198Y133399D01*
X-15690Y132546D01*
X-15945Y131595D01*
Y130610D01*
X-15690Y129659D01*
X-15198Y128806D01*
X-14501Y128110D01*
X-13648Y127617D01*
X-12697Y127362D01*
X-11712D01*
X-10761Y127617D01*
X-9908Y128110D01*
X-9212Y128806D01*
X-8720Y129659D01*
X-8465Y130610D01*
Y131595D01*
X-8720Y132546D01*
X-9212Y133399D01*
X-9908Y134095D01*
X-10761Y134588D01*
X-11481Y134781D01*
Y135298D01*
X-10761Y135491D01*
X-9908Y135984D01*
X-9212Y136680D01*
X-8720Y137533D01*
X-8465Y138484D01*
Y139469D01*
X-8720Y140420D01*
X-9212Y141273D01*
X-9908Y141969D01*
X-10761Y142462D01*
X-11481Y142655D01*
Y143172D01*
X-10761Y143365D01*
X-9908Y143858D01*
X-9212Y144554D01*
X-8720Y145407D01*
X-8465Y146358D01*
Y147343D01*
X-8720Y148294D01*
X-9212Y149147D01*
X-9908Y149843D01*
X-10761Y150336D01*
X-11712Y150591D01*
D02*
G37*
G36*
X-31397D02*
X-32382D01*
X-33333Y150336D01*
X-34186Y149843D01*
X-34883Y149147D01*
X-35375Y148294D01*
X-35630Y147343D01*
Y146358D01*
X-35375Y145407D01*
X-34883Y144554D01*
X-34186Y143858D01*
X-33333Y143365D01*
X-32613Y143172D01*
Y142655D01*
X-33333Y142462D01*
X-34186Y141969D01*
X-34883Y141273D01*
X-35375Y140420D01*
X-35630Y139469D01*
Y138484D01*
X-35375Y137533D01*
X-34883Y136680D01*
X-34186Y135984D01*
X-33333Y135491D01*
X-32613Y135298D01*
Y134781D01*
X-33333Y134588D01*
X-34186Y134095D01*
X-34883Y133399D01*
X-35375Y132546D01*
X-35630Y131595D01*
Y130610D01*
X-35375Y129659D01*
X-34883Y128806D01*
X-34186Y128110D01*
X-33333Y127617D01*
X-32382Y127362D01*
X-31397D01*
X-30446Y127617D01*
X-29593Y128110D01*
X-28897Y128806D01*
X-28405Y129659D01*
X-28150Y130610D01*
Y131595D01*
X-28405Y132546D01*
X-28897Y133399D01*
X-29593Y134095D01*
X-30446Y134588D01*
X-31166Y134781D01*
Y135298D01*
X-30446Y135491D01*
X-29593Y135984D01*
X-28897Y136680D01*
X-28405Y137533D01*
X-28150Y138484D01*
Y139469D01*
X-28405Y140420D01*
X-28897Y141273D01*
X-29593Y141969D01*
X-30446Y142462D01*
X-31166Y142655D01*
Y143172D01*
X-30446Y143365D01*
X-29593Y143858D01*
X-28897Y144554D01*
X-28405Y145407D01*
X-28150Y146358D01*
Y147343D01*
X-28405Y148294D01*
X-28897Y149147D01*
X-29593Y149843D01*
X-30446Y150336D01*
X-31397Y150591D01*
D02*
G37*
G36*
X11811Y131537D02*
X5512D01*
X4279Y131375D01*
X3129Y130898D01*
X2142Y130141D01*
X1385Y129154D01*
X909Y128005D01*
X747Y126772D01*
X909Y125538D01*
X1385Y124389D01*
X2142Y123402D01*
X3129Y122645D01*
X4279Y122169D01*
X5512Y122006D01*
X11811D01*
X13044Y122169D01*
X14194Y122645D01*
X15180Y123402D01*
X15938Y124389D01*
X16414Y125538D01*
X16576Y126772D01*
X16414Y128005D01*
X15938Y129154D01*
X15180Y130141D01*
X14194Y130898D01*
X13044Y131375D01*
X11811Y131537D01*
D02*
G37*
G36*
X-39919Y124114D02*
X-40593D01*
X-41244Y123940D01*
X-41827Y123603D01*
X-42304Y123126D01*
X-42641Y122543D01*
X-42815Y121892D01*
Y121218D01*
X-42641Y120567D01*
X-42304Y119984D01*
X-41827Y119507D01*
X-41244Y119170D01*
X-40593Y118996D01*
X-39919D01*
X-39268Y119170D01*
X-38685Y119507D01*
X-38208Y119984D01*
X-37871Y120567D01*
X-37697Y121218D01*
Y121892D01*
X-37871Y122543D01*
X-38208Y123126D01*
X-38685Y123603D01*
X-39268Y123940D01*
X-39919Y124114D01*
D02*
G37*
G36*
X46563Y120058D02*
Y117823D01*
X48798D01*
X48646Y118393D01*
X48281Y119025D01*
X47765Y119541D01*
X47133Y119906D01*
X46563Y120058D01*
D02*
G37*
G36*
X45563D02*
X44993Y119906D01*
X44361Y119541D01*
X43845Y119025D01*
X43480Y118393D01*
X43328Y117823D01*
X45563D01*
Y120058D01*
D02*
G37*
G36*
X65199Y119980D02*
X64525D01*
X63874Y119806D01*
X63291Y119469D01*
X62814Y118993D01*
X62477Y118409D01*
X62303Y117758D01*
Y117084D01*
X62477Y116434D01*
X62814Y115850D01*
X63291Y115374D01*
X63874Y115037D01*
X64525Y114862D01*
X65199D01*
X65850Y115037D01*
X66434Y115374D01*
X66910Y115850D01*
X67247Y116434D01*
X67421Y117084D01*
Y117758D01*
X67247Y118409D01*
X66910Y118993D01*
X66434Y119469D01*
X65850Y119806D01*
X65199Y119980D01*
D02*
G37*
G36*
X48798Y116823D02*
X46563D01*
Y114587D01*
X47133Y114740D01*
X47765Y115105D01*
X48281Y115621D01*
X48646Y116253D01*
X48798Y116823D01*
D02*
G37*
G36*
X45563D02*
X43328D01*
X43480Y116253D01*
X43845Y115621D01*
X44361Y115105D01*
X44993Y114740D01*
X45563Y114587D01*
Y116823D01*
D02*
G37*
G36*
X-35096Y118701D02*
X-35770D01*
X-36421Y118526D01*
X-37004Y118190D01*
X-37481Y117713D01*
X-37818Y117130D01*
X-37992Y116479D01*
Y115805D01*
X-37818Y115154D01*
X-37481Y114570D01*
X-37004Y114094D01*
X-36421Y113757D01*
X-35770Y113583D01*
X-35096D01*
X-34445Y113757D01*
X-33862Y114094D01*
X-33385Y114570D01*
X-33048Y115154D01*
X-32874Y115805D01*
Y116479D01*
X-33048Y117130D01*
X-33385Y117713D01*
X-33862Y118190D01*
X-34445Y118526D01*
X-35096Y118701D01*
D02*
G37*
G36*
X70866Y113007D02*
X48047D01*
X47740Y112946D01*
X47646Y112883D01*
X47551Y112946D01*
X47244Y113007D01*
X35433D01*
X35126Y112946D01*
X34865Y112772D01*
X34691Y112512D01*
X34630Y112205D01*
Y-59153D01*
X34654Y-59272D01*
X34445Y-59328D01*
X33980Y-59596D01*
X33617Y-59456D01*
X33480Y-59339D01*
Y-58887D01*
X33291Y-58182D01*
X32926Y-57550D01*
X32410Y-57034D01*
X31778Y-56669D01*
X31209Y-56516D01*
Y-59252D01*
Y-61987D01*
X31778Y-61835D01*
X32374Y-61491D01*
X32530Y-61533D01*
X32874Y-61713D01*
Y-62050D01*
X33048Y-62700D01*
X33385Y-63284D01*
X33862Y-63760D01*
X34445Y-64097D01*
X34654Y-64153D01*
X34630Y-64272D01*
Y-66929D01*
X34691Y-67236D01*
X34865Y-67497D01*
X35126Y-67671D01*
X35433Y-67732D01*
X37697D01*
Y-71358D01*
X44390D01*
Y-67732D01*
X47244D01*
X47551Y-67671D01*
X47646Y-67608D01*
X47740Y-67671D01*
X48047Y-67732D01*
X70866D01*
X71173Y-67671D01*
X71434Y-67497D01*
X71608Y-67236D01*
X71669Y-66929D01*
Y-31292D01*
X71653Y-31214D01*
Y-31135D01*
X71623Y-31062D01*
X71608Y-30985D01*
X71564Y-30919D01*
X71534Y-30846D01*
X71478Y-30790D01*
X71434Y-30724D01*
X71375Y-30211D01*
X71422Y-30164D01*
X71752Y-29368D01*
Y-28506D01*
X71422Y-27710D01*
X71418Y-27706D01*
X71396Y-27481D01*
X71434Y-27150D01*
X71478Y-27084D01*
X71534Y-27028D01*
X71564Y-26955D01*
X71608Y-26889D01*
X71623Y-26812D01*
X71653Y-26739D01*
Y-26660D01*
X71669Y-26582D01*
Y18643D01*
X72169Y18709D01*
X72220Y18517D01*
X72585Y17885D01*
X73101Y17369D01*
X73733Y17004D01*
X74303Y16851D01*
Y19587D01*
Y22322D01*
X73733Y22169D01*
X73101Y21804D01*
X72585Y21289D01*
X72220Y20656D01*
X72169Y20465D01*
X71669Y20530D01*
Y73824D01*
X72146Y73880D01*
X72475Y73084D01*
X73084Y72475D01*
X73880Y72146D01*
X74742D01*
X75538Y72475D01*
X76147Y73084D01*
X76476Y73880D01*
Y74742D01*
X76147Y75538D01*
X75538Y76147D01*
X74742Y76476D01*
X73880D01*
X73084Y76147D01*
X72475Y75538D01*
X72146Y74742D01*
X71669Y74798D01*
Y112205D01*
X71608Y112512D01*
X71434Y112772D01*
X71173Y112946D01*
X70866Y113007D01*
D02*
G37*
G36*
X-102025Y120276D02*
X-102699D01*
X-103350Y120101D01*
X-103934Y119764D01*
X-104410Y119288D01*
X-104747Y118704D01*
X-104921Y118053D01*
Y117380D01*
X-104747Y116729D01*
X-104410Y116145D01*
X-103934Y115669D01*
X-103350Y115332D01*
X-103341Y115330D01*
Y114812D01*
X-103432Y114787D01*
X-104064Y114423D01*
X-104580Y113907D01*
X-104945Y113275D01*
X-105098Y112705D01*
X-99627D01*
X-99779Y113275D01*
X-100144Y113907D01*
X-100660Y114423D01*
X-101292Y114787D01*
X-101383Y114812D01*
Y115330D01*
X-101374Y115332D01*
X-100791Y115669D01*
X-100314Y116145D01*
X-99977Y116729D01*
X-99803Y117380D01*
Y118053D01*
X-99977Y118704D01*
X-100314Y119288D01*
X-100791Y119764D01*
X-101374Y120101D01*
X-102025Y120276D01*
D02*
G37*
G36*
X26378Y121694D02*
X20079D01*
X18845Y121532D01*
X17696Y121056D01*
X16709Y120299D01*
X15952Y119312D01*
X15476Y118163D01*
X15314Y116929D01*
X15476Y115696D01*
X15952Y114547D01*
X16709Y113560D01*
X17696Y112802D01*
X18845Y112326D01*
X20079Y112164D01*
X26378D01*
X27611Y112326D01*
X28760Y112802D01*
X29747Y113560D01*
X30505Y114547D01*
X30981Y115696D01*
X31143Y116929D01*
X30981Y118163D01*
X30505Y119312D01*
X29747Y120299D01*
X28760Y121056D01*
X27611Y121532D01*
X26378Y121694D01*
D02*
G37*
G36*
X-99627Y111705D02*
X-101862D01*
Y109469D01*
X-101292Y109622D01*
X-100660Y109987D01*
X-100144Y110503D01*
X-99779Y111135D01*
X-99627Y111705D01*
D02*
G37*
G36*
X-102862D02*
X-105098D01*
X-104945Y111135D01*
X-104580Y110503D01*
X-104064Y109987D01*
X-103432Y109622D01*
X-102862Y109469D01*
Y111705D01*
D02*
G37*
G36*
X88295Y108247D02*
Y106012D01*
X90531D01*
X90378Y106582D01*
X90013Y107214D01*
X89497Y107730D01*
X88865Y108095D01*
X88295Y108247D01*
D02*
G37*
G36*
X87295D02*
X86725Y108095D01*
X86093Y107730D01*
X85577Y107214D01*
X85212Y106582D01*
X85060Y106012D01*
X87295D01*
Y108247D01*
D02*
G37*
G36*
X-779Y107558D02*
Y105323D01*
X1456D01*
X1303Y105893D01*
X938Y106525D01*
X422Y107041D01*
X-210Y107406D01*
X-779Y107558D01*
D02*
G37*
G36*
X-1780D02*
X-2349Y107406D01*
X-2981Y107041D01*
X-3497Y106525D01*
X-3862Y105893D01*
X-4015Y105323D01*
X-1780D01*
Y107558D01*
D02*
G37*
G36*
X90531Y105012D02*
X88295D01*
Y102776D01*
X88865Y102929D01*
X89497Y103294D01*
X90013Y103810D01*
X90378Y104442D01*
X90531Y105012D01*
D02*
G37*
G36*
X87295D02*
X85060D01*
X85212Y104442D01*
X85577Y103810D01*
X86093Y103294D01*
X86725Y102929D01*
X87295Y102776D01*
Y105012D01*
D02*
G37*
G36*
X1456Y104323D02*
X-779D01*
Y102087D01*
X-210Y102240D01*
X422Y102605D01*
X938Y103121D01*
X1303Y103753D01*
X1456Y104323D01*
D02*
G37*
G36*
X-1780D02*
X-4015D01*
X-3862Y103753D01*
X-3497Y103121D01*
X-2981Y102605D01*
X-2349Y102240D01*
X-1780Y102087D01*
Y104323D01*
D02*
G37*
G36*
X-27847Y100669D02*
Y98433D01*
X-25611D01*
X-25764Y99003D01*
X-26129Y99635D01*
X-26645Y100151D01*
X-27277Y100516D01*
X-27847Y100669D01*
D02*
G37*
G36*
X100431Y101083D02*
X99569D01*
X98773Y100753D01*
X98164Y100144D01*
X97835Y99348D01*
Y98487D01*
X98164Y97691D01*
X98773Y97082D01*
X99569Y96752D01*
X100431D01*
X101227Y97082D01*
X101836Y97691D01*
X102165Y98487D01*
Y99348D01*
X101836Y100144D01*
X101227Y100753D01*
X100431Y101083D01*
D02*
G37*
G36*
X-4191Y100394D02*
X-4865D01*
X-5515Y100219D01*
X-6099Y99882D01*
X-6575Y99406D01*
X-6912Y98822D01*
X-7087Y98172D01*
Y97498D01*
X-6912Y96847D01*
X-6575Y96263D01*
X-6099Y95787D01*
X-5515Y95450D01*
X-4865Y95276D01*
X-4191D01*
X-3540Y95450D01*
X-2956Y95787D01*
X-2480Y96263D01*
X-2143Y96847D01*
X-1969Y97498D01*
Y98172D01*
X-2143Y98822D01*
X-2480Y99406D01*
X-2956Y99882D01*
X-3540Y100219D01*
X-4191Y100394D01*
D02*
G37*
G36*
X-25611Y97433D02*
X-27847D01*
Y95198D01*
X-27277Y95350D01*
X-26645Y95715D01*
X-26129Y96231D01*
X-25764Y96863D01*
X-25611Y97433D01*
D02*
G37*
G36*
X-66198Y117913D02*
X-66872D01*
X-67523Y117739D01*
X-68107Y117402D01*
X-68583Y116926D01*
X-68920Y116342D01*
X-69095Y115691D01*
Y115017D01*
X-68920Y114367D01*
X-68583Y113783D01*
X-68107Y113307D01*
X-67810Y113135D01*
X-67794Y113117D01*
X-67665Y112529D01*
X-67671Y112512D01*
X-67732Y112205D01*
Y76147D01*
X-67975Y75984D01*
X-68836D01*
X-69632Y75655D01*
X-70241Y75046D01*
X-70571Y74250D01*
Y73388D01*
X-70241Y72592D01*
X-69632Y71983D01*
X-68836Y71653D01*
X-67975D01*
X-67732Y71491D01*
Y70884D01*
X-68132Y70617D01*
Y68233D01*
Y65849D01*
X-67732Y65582D01*
Y27255D01*
X-68232Y27061D01*
X-68959Y27362D01*
X-69820D01*
X-70616Y27033D01*
X-71226Y26423D01*
X-71555Y25628D01*
Y24766D01*
X-71226Y23970D01*
X-70616Y23361D01*
X-69820Y23031D01*
X-68959D01*
X-68232Y23333D01*
X-67732Y23139D01*
Y21256D01*
X-68232Y20992D01*
X-68890Y21264D01*
Y18898D01*
Y16531D01*
X-68232Y16803D01*
X-67732Y16539D01*
Y-21641D01*
X-68232Y-21829D01*
X-68970Y-21523D01*
X-69831D01*
X-70627Y-21853D01*
X-71236Y-22462D01*
X-71566Y-23258D01*
Y-24119D01*
X-71236Y-24915D01*
X-70627Y-25524D01*
X-69831Y-25854D01*
X-68970D01*
X-68232Y-25548D01*
X-67732Y-25736D01*
Y-27169D01*
X-68232Y-27433D01*
X-68890Y-27161D01*
Y-29528D01*
Y-31894D01*
X-68232Y-31622D01*
X-67732Y-31886D01*
Y-66929D01*
X-67671Y-67236D01*
X-67497Y-67497D01*
X-67236Y-67671D01*
X-66929Y-67732D01*
X-43307D01*
X-43000Y-67671D01*
X-42906Y-67608D01*
X-42812Y-67671D01*
X-42504Y-67732D01*
X-41634D01*
Y-73327D01*
X-34941D01*
Y-67732D01*
X-31496D01*
X-31189Y-67671D01*
X-30928Y-67497D01*
X-30754Y-67236D01*
X-30693Y-66929D01*
Y-38796D01*
X-30193Y-38589D01*
X-29851Y-38930D01*
X-29219Y-39295D01*
X-28650Y-39448D01*
Y-36713D01*
Y-33977D01*
X-29219Y-34130D01*
X-29851Y-34495D01*
X-30193Y-34837D01*
X-30693Y-34629D01*
Y-24153D01*
X-30213Y-24017D01*
X-30193Y-24016D01*
X-29721Y-24489D01*
X-29137Y-24826D01*
X-28486Y-25000D01*
X-27813D01*
X-27162Y-24826D01*
X-26578Y-24489D01*
X-26102Y-24012D01*
X-25765Y-23429D01*
X-25591Y-22778D01*
Y-22104D01*
X-25765Y-21453D01*
X-26102Y-20870D01*
X-26578Y-20393D01*
X-27162Y-20056D01*
X-27813Y-19882D01*
X-28486D01*
X-29137Y-20056D01*
X-29721Y-20393D01*
X-30193Y-20865D01*
X-30213Y-20865D01*
X-30693Y-20729D01*
Y3330D01*
X-30193Y3537D01*
X-29851Y3196D01*
X-29219Y2831D01*
X-28650Y2678D01*
Y5413D01*
Y8149D01*
X-29219Y7996D01*
X-29851Y7631D01*
X-30193Y7289D01*
X-30693Y7497D01*
Y38370D01*
X-30193Y38577D01*
X-30048Y38432D01*
X-29416Y38067D01*
X-28846Y37914D01*
Y40650D01*
Y43385D01*
X-29416Y43232D01*
X-30048Y42867D01*
X-30193Y42723D01*
X-30693Y42930D01*
Y95653D01*
X-30193Y95860D01*
X-30048Y95715D01*
X-29416Y95350D01*
X-28846Y95198D01*
Y97933D01*
Y100669D01*
X-29416Y100516D01*
X-30048Y100151D01*
X-30193Y100006D01*
X-30693Y100213D01*
Y112205D01*
X-30754Y112512D01*
X-30928Y112772D01*
X-31189Y112946D01*
X-31496Y113007D01*
X-42504D01*
X-42812Y112946D01*
X-42906Y112883D01*
X-43000Y112946D01*
X-43307Y113007D01*
X-64556D01*
X-64763Y113507D01*
X-64488Y113783D01*
X-64151Y114367D01*
X-63976Y115017D01*
Y115691D01*
X-64151Y116342D01*
X-64488Y116926D01*
X-64964Y117402D01*
X-65548Y117739D01*
X-66198Y117913D01*
D02*
G37*
G36*
X-83723Y89764D02*
X-84584D01*
X-85380Y89434D01*
X-85989Y88825D01*
X-86319Y88029D01*
Y87168D01*
X-85989Y86372D01*
X-85380Y85763D01*
X-84584Y85433D01*
X-83723D01*
X-82927Y85763D01*
X-82318Y86372D01*
X-81988Y87168D01*
Y88029D01*
X-82318Y88825D01*
X-82927Y89434D01*
X-83723Y89764D01*
D02*
G37*
G36*
X-89136D02*
X-89998D01*
X-90794Y89434D01*
X-91403Y88825D01*
X-91732Y88029D01*
Y87168D01*
X-91403Y86372D01*
X-90794Y85763D01*
X-89998Y85433D01*
X-89136D01*
X-88340Y85763D01*
X-87731Y86372D01*
X-87402Y87168D01*
Y88029D01*
X-87731Y88825D01*
X-88340Y89434D01*
X-89136Y89764D01*
D02*
G37*
G36*
X98068Y88779D02*
X97207D01*
X96411Y88450D01*
X95802Y87841D01*
X95473Y87045D01*
Y86184D01*
X95802Y85388D01*
X96411Y84778D01*
X97207Y84449D01*
X98068D01*
X98864Y84778D01*
X99474Y85388D01*
X99803Y86184D01*
Y87045D01*
X99474Y87841D01*
X98864Y88450D01*
X98068Y88779D01*
D02*
G37*
G36*
X88128Y85827D02*
X87266D01*
X86470Y85497D01*
X85861Y84888D01*
X85532Y84092D01*
Y83231D01*
X85861Y82435D01*
X86470Y81826D01*
X87266Y81496D01*
X88128D01*
X88923Y81826D01*
X89533Y82435D01*
X89862Y83231D01*
Y84092D01*
X89533Y84888D01*
X88923Y85497D01*
X88128Y85827D01*
D02*
G37*
G36*
X-97010D02*
X-97872D01*
X-98668Y85497D01*
X-99277Y84888D01*
X-99606Y84092D01*
Y83231D01*
X-99277Y82435D01*
X-98668Y81826D01*
X-97872Y81496D01*
X-97010D01*
X-96214Y81826D01*
X-95605Y82435D01*
X-95276Y83231D01*
Y84092D01*
X-95605Y84888D01*
X-96214Y85497D01*
X-97010Y85827D01*
D02*
G37*
G36*
X101809Y84842D02*
X100947D01*
X100151Y84513D01*
X99542Y83904D01*
X99213Y83108D01*
Y82247D01*
X99542Y81451D01*
X100151Y80841D01*
X100947Y80512D01*
X101809D01*
X102604Y80841D01*
X103214Y81451D01*
X103543Y82247D01*
Y83108D01*
X103214Y83904D01*
X102604Y84513D01*
X101809Y84842D01*
D02*
G37*
G36*
X94230Y83071D02*
X93369D01*
X92573Y82741D01*
X91963Y82132D01*
X91634Y81336D01*
Y80475D01*
X91963Y79679D01*
X92573Y79070D01*
X93369Y78740D01*
X94230D01*
X95026Y79070D01*
X95635Y79679D01*
X95965Y80475D01*
Y81336D01*
X95635Y82132D01*
X95026Y82741D01*
X94230Y83071D01*
D02*
G37*
G36*
X83305D02*
X82443D01*
X81647Y82741D01*
X81038Y82132D01*
X80709Y81336D01*
Y80475D01*
X81038Y79679D01*
X81647Y79070D01*
X82443Y78740D01*
X83305D01*
X84101Y79070D01*
X84710Y79679D01*
X85039Y80475D01*
Y81336D01*
X84710Y82132D01*
X84101Y82741D01*
X83305Y83071D01*
D02*
G37*
G36*
X-78408Y82185D02*
X-79269D01*
X-80065Y81855D01*
X-80674Y81246D01*
X-81004Y80450D01*
Y79589D01*
X-80674Y78793D01*
X-80065Y78184D01*
X-79269Y77854D01*
X-78408D01*
X-77612Y78184D01*
X-77003Y78793D01*
X-76673Y79589D01*
Y80450D01*
X-77003Y81246D01*
X-77612Y81855D01*
X-78408Y82185D01*
D02*
G37*
G36*
X-87955D02*
X-88816D01*
X-89612Y81855D01*
X-90222Y81246D01*
X-90551Y80450D01*
Y79589D01*
X-90222Y78793D01*
X-89612Y78184D01*
X-88816Y77854D01*
X-87955D01*
X-87159Y78184D01*
X-86550Y78793D01*
X-86221Y79589D01*
Y80450D01*
X-86550Y81246D01*
X-87159Y81855D01*
X-87955Y82185D01*
D02*
G37*
G36*
X-109376Y84258D02*
X-110309D01*
X-111210Y84017D01*
X-112018Y83550D01*
X-112678Y82890D01*
X-113144Y82082D01*
X-113386Y81181D01*
Y80248D01*
X-113144Y79347D01*
X-112678Y78539D01*
X-112018Y77879D01*
X-111210Y77413D01*
X-110309Y77171D01*
X-109376D01*
X-108475Y77413D01*
X-107667Y77879D01*
X-107007Y78539D01*
X-106541Y79347D01*
X-106299Y80248D01*
Y81181D01*
X-106541Y82082D01*
X-107007Y82890D01*
X-107667Y83550D01*
X-108475Y84017D01*
X-109376Y84258D01*
D02*
G37*
G36*
X-114173D02*
X-121260D01*
Y77171D01*
X-114173D01*
Y84258D01*
D02*
G37*
G36*
X118183Y84244D02*
X117250D01*
X116349Y84003D01*
X115541Y83536D01*
X114881Y82876D01*
X114415Y82068D01*
X114173Y81167D01*
Y80234D01*
X114415Y79333D01*
X114881Y78525D01*
X115541Y77865D01*
X116349Y77399D01*
X117250Y77157D01*
X118183D01*
X119084Y77399D01*
X119892Y77865D01*
X120552Y78525D01*
X121019Y79333D01*
X121260Y80234D01*
Y81167D01*
X121019Y82068D01*
X120552Y82876D01*
X119892Y83536D01*
X119084Y84003D01*
X118183Y84244D01*
D02*
G37*
G36*
X113386D02*
X106299D01*
Y77157D01*
X113386D01*
Y84244D01*
D02*
G37*
G36*
X-100947Y79232D02*
X-101809D01*
X-102604Y78903D01*
X-103214Y78294D01*
X-103543Y77498D01*
Y76636D01*
X-103214Y75840D01*
X-102604Y75231D01*
X-101809Y74902D01*
X-100947D01*
X-100151Y75231D01*
X-99542Y75840D01*
X-99213Y76636D01*
Y77498D01*
X-99542Y78294D01*
X-100151Y78903D01*
X-100947Y79232D01*
D02*
G37*
G36*
X30716Y73798D02*
Y71563D01*
X32952D01*
X32799Y72133D01*
X32434Y72765D01*
X31918Y73281D01*
X31286Y73646D01*
X30716Y73798D01*
D02*
G37*
G36*
X29717D02*
X29147Y73646D01*
X28515Y73281D01*
X27999Y72765D01*
X27634Y72133D01*
X27481Y71563D01*
X29717D01*
Y73798D01*
D02*
G37*
G36*
X-109376Y76384D02*
X-110309D01*
X-111210Y76142D01*
X-112018Y75676D01*
X-112678Y75016D01*
X-113144Y74208D01*
X-113386Y73307D01*
Y72374D01*
X-113144Y71473D01*
X-112678Y70665D01*
X-112018Y70005D01*
X-111210Y69539D01*
X-110309Y69297D01*
X-109376D01*
X-108475Y69539D01*
X-107667Y70005D01*
X-107007Y70665D01*
X-106541Y71473D01*
X-106299Y72374D01*
Y73307D01*
X-106541Y74208D01*
X-107007Y75016D01*
X-107667Y75676D01*
X-108475Y76142D01*
X-109376Y76384D01*
D02*
G37*
G36*
X-117250D02*
X-118183D01*
X-119084Y76142D01*
X-119892Y75676D01*
X-120552Y75016D01*
X-121018Y74208D01*
X-121260Y73307D01*
Y72374D01*
X-121018Y71473D01*
X-120552Y70665D01*
X-119892Y70005D01*
X-119084Y69539D01*
X-118183Y69297D01*
X-117250D01*
X-116349Y69539D01*
X-115541Y70005D01*
X-114881Y70665D01*
X-114415Y71473D01*
X-114173Y72374D01*
Y73307D01*
X-114415Y74208D01*
X-114881Y75016D01*
X-115541Y75676D01*
X-116349Y76142D01*
X-117250Y76384D01*
D02*
G37*
G36*
X118183Y76370D02*
X117250D01*
X116349Y76129D01*
X115541Y75662D01*
X114881Y75002D01*
X114415Y74194D01*
X114173Y73293D01*
Y72360D01*
X114415Y71459D01*
X114881Y70651D01*
X115541Y69991D01*
X116349Y69525D01*
X117250Y69283D01*
X118183D01*
X119084Y69525D01*
X119892Y69991D01*
X120552Y70651D01*
X121019Y71459D01*
X121260Y72360D01*
Y73293D01*
X121019Y74194D01*
X120552Y75002D01*
X119892Y75662D01*
X119084Y76129D01*
X118183Y76370D01*
D02*
G37*
G36*
X110309D02*
X109376D01*
X108475Y76129D01*
X107667Y75662D01*
X107007Y75002D01*
X106541Y74194D01*
X106299Y73293D01*
Y72360D01*
X106541Y71459D01*
X107007Y70651D01*
X107667Y69991D01*
X108475Y69525D01*
X109376Y69283D01*
X110309D01*
X111210Y69525D01*
X112018Y69991D01*
X112678Y70651D01*
X113144Y71459D01*
X113386Y72360D01*
Y73293D01*
X113144Y74194D01*
X112678Y75002D01*
X112018Y75662D01*
X111210Y76129D01*
X110309Y76370D01*
D02*
G37*
G36*
X-19348Y74016D02*
X-20022D01*
X-20673Y73841D01*
X-21256Y73504D01*
X-21733Y73028D01*
X-22070Y72444D01*
X-22244Y71794D01*
Y71120D01*
X-22070Y70469D01*
X-21733Y69885D01*
X-21256Y69409D01*
X-20673Y69072D01*
X-20022Y68898D01*
X-19348D01*
X-18697Y69072D01*
X-18114Y69409D01*
X-17637Y69885D01*
X-17300Y70469D01*
X-17126Y71120D01*
Y71794D01*
X-17300Y72444D01*
X-17637Y73028D01*
X-18114Y73504D01*
X-18697Y73841D01*
X-19348Y74016D01*
D02*
G37*
G36*
X75303Y70674D02*
Y68807D01*
X77170D01*
X76819Y69654D01*
X76150Y70323D01*
X75303Y70674D01*
D02*
G37*
G36*
X74303D02*
X73456Y70323D01*
X72787Y69654D01*
X72436Y68807D01*
X74303D01*
Y70674D01*
D02*
G37*
G36*
X-69132Y70600D02*
X-69979Y70249D01*
X-70648Y69580D01*
X-70999Y68733D01*
X-69132D01*
Y70600D01*
D02*
G37*
G36*
X-5667Y73721D02*
X-6341D01*
X-6992Y73546D01*
X-7575Y73209D01*
X-8052Y72733D01*
X-8389Y72149D01*
X-8563Y71498D01*
Y70824D01*
X-8389Y70174D01*
X-8052Y69590D01*
X-7575Y69114D01*
X-6992Y68777D01*
X-6341Y68602D01*
X-5667D01*
X-5016Y68777D01*
X-4433Y69114D01*
X-3956Y69590D01*
X-3619Y70174D01*
X-3445Y70824D01*
Y71498D01*
X-3619Y72149D01*
X-3956Y72733D01*
X-4433Y73209D01*
X-5016Y73546D01*
X-5667Y73721D01*
D02*
G37*
G36*
X32952Y70563D02*
X30716D01*
Y68327D01*
X31286Y68480D01*
X31918Y68845D01*
X32434Y69361D01*
X32799Y69993D01*
X32952Y70563D01*
D02*
G37*
G36*
X29717D02*
X27481D01*
X27634Y69993D01*
X27999Y69361D01*
X28515Y68845D01*
X29147Y68480D01*
X29717Y68327D01*
Y70563D01*
D02*
G37*
G36*
X77170Y67807D02*
X75303D01*
Y65940D01*
X76150Y66291D01*
X76819Y66960D01*
X77170Y67807D01*
D02*
G37*
G36*
X74303D02*
X72436D01*
X72787Y66960D01*
X73456Y66291D01*
X74303Y65940D01*
Y67807D01*
D02*
G37*
G36*
X-69132Y67733D02*
X-70999D01*
X-70648Y66886D01*
X-69979Y66217D01*
X-69132Y65866D01*
Y67733D01*
D02*
G37*
G36*
X24943Y68701D02*
X24269D01*
X23618Y68526D01*
X23035Y68190D01*
X22558Y67713D01*
X22222Y67129D01*
X22047Y66479D01*
Y65805D01*
X22222Y65154D01*
X22558Y64570D01*
X23035Y64094D01*
X23618Y63757D01*
X24269Y63583D01*
X24943D01*
X25594Y63757D01*
X26178Y64094D01*
X26654Y64570D01*
X26991Y65154D01*
X27165Y65805D01*
Y66479D01*
X26991Y67129D01*
X26654Y67713D01*
X26178Y68190D01*
X25594Y68526D01*
X24943Y68701D01*
D02*
G37*
G36*
X15691Y68602D02*
X15017D01*
X14367Y68428D01*
X13783Y68091D01*
X13307Y67615D01*
X12970Y67031D01*
X12795Y66380D01*
Y65706D01*
X12970Y65056D01*
X13307Y64472D01*
X13783Y63996D01*
X14367Y63659D01*
X15017Y63484D01*
X15691D01*
X16342Y63659D01*
X16926Y63996D01*
X17402Y64472D01*
X17739Y65056D01*
X17913Y65706D01*
Y66380D01*
X17739Y67031D01*
X17402Y67615D01*
X16926Y68091D01*
X16342Y68428D01*
X15691Y68602D01*
D02*
G37*
G36*
X-109376Y68510D02*
X-110309D01*
X-111210Y68268D01*
X-112018Y67802D01*
X-112678Y67142D01*
X-113144Y66334D01*
X-113386Y65433D01*
Y64500D01*
X-113144Y63599D01*
X-112678Y62791D01*
X-112018Y62131D01*
X-111210Y61665D01*
X-110309Y61423D01*
X-109376D01*
X-108475Y61665D01*
X-107667Y62131D01*
X-107007Y62791D01*
X-106541Y63599D01*
X-106299Y64500D01*
Y65433D01*
X-106541Y66334D01*
X-107007Y67142D01*
X-107667Y67802D01*
X-108475Y68268D01*
X-109376Y68510D01*
D02*
G37*
G36*
X-117250D02*
X-118183D01*
X-119084Y68268D01*
X-119892Y67802D01*
X-120552Y67142D01*
X-121018Y66334D01*
X-121260Y65433D01*
Y64500D01*
X-121018Y63599D01*
X-120552Y62791D01*
X-119892Y62131D01*
X-119084Y61665D01*
X-118183Y61423D01*
X-117250D01*
X-116349Y61665D01*
X-115541Y62131D01*
X-114881Y62791D01*
X-114415Y63599D01*
X-114173Y64500D01*
Y65433D01*
X-114415Y66334D01*
X-114881Y67142D01*
X-115541Y67802D01*
X-116349Y68268D01*
X-117250Y68510D01*
D02*
G37*
G36*
X118183Y68496D02*
X117250D01*
X116349Y68255D01*
X115541Y67788D01*
X114881Y67128D01*
X114415Y66320D01*
X114173Y65419D01*
Y64486D01*
X114415Y63585D01*
X114881Y62777D01*
X115541Y62117D01*
X116349Y61651D01*
X117250Y61409D01*
X118183D01*
X119084Y61651D01*
X119892Y62117D01*
X120552Y62777D01*
X121019Y63585D01*
X121260Y64486D01*
Y65419D01*
X121019Y66320D01*
X120552Y67128D01*
X119892Y67788D01*
X119084Y68255D01*
X118183Y68496D01*
D02*
G37*
G36*
X110309D02*
X109376D01*
X108475Y68255D01*
X107667Y67788D01*
X107007Y67128D01*
X106541Y66320D01*
X106299Y65419D01*
Y64486D01*
X106541Y63585D01*
X107007Y62777D01*
X107667Y62117D01*
X108475Y61651D01*
X109376Y61409D01*
X110309D01*
X111210Y61651D01*
X112018Y62117D01*
X112678Y62777D01*
X113144Y63585D01*
X113386Y64486D01*
Y65419D01*
X113144Y66320D01*
X112678Y67128D01*
X112018Y67788D01*
X111210Y68255D01*
X110309Y68496D01*
D02*
G37*
G36*
X-93565Y65650D02*
X-94427D01*
X-95223Y65320D01*
X-95832Y64711D01*
X-96161Y63915D01*
Y63054D01*
X-95832Y62258D01*
X-95223Y61649D01*
X-94427Y61319D01*
X-93565D01*
X-92769Y61649D01*
X-92160Y62258D01*
X-91831Y63054D01*
Y63915D01*
X-92160Y64711D01*
X-92769Y65320D01*
X-93565Y65650D01*
D02*
G37*
G36*
X94131Y63583D02*
X93270D01*
X92474Y63253D01*
X91865Y62644D01*
X91535Y61848D01*
Y60987D01*
X91865Y60191D01*
X92474Y59582D01*
X93270Y59252D01*
X94131D01*
X94927Y59582D01*
X95537Y60191D01*
X95866Y60987D01*
Y61848D01*
X95537Y62644D01*
X94927Y63253D01*
X94131Y63583D01*
D02*
G37*
G36*
X-78211Y62697D02*
X-79072D01*
X-79868Y62367D01*
X-80477Y61758D01*
X-80807Y60962D01*
Y60101D01*
X-80477Y59305D01*
X-79868Y58696D01*
X-79072Y58366D01*
X-78211D01*
X-77415Y58696D01*
X-76806Y59305D01*
X-76476Y60101D01*
Y60962D01*
X-76806Y61758D01*
X-77415Y62367D01*
X-78211Y62697D01*
D02*
G37*
G36*
X-15903Y61811D02*
X-16577D01*
X-17228Y61637D01*
X-17811Y61300D01*
X-18288Y60823D01*
X-18625Y60240D01*
X-18799Y59589D01*
Y58915D01*
X-18625Y58264D01*
X-18288Y57681D01*
X-17811Y57204D01*
X-17228Y56867D01*
X-16577Y56693D01*
X-15903D01*
X-15252Y56867D01*
X-14669Y57204D01*
X-14192Y57681D01*
X-13856Y58264D01*
X-13681Y58915D01*
Y59589D01*
X-13856Y60240D01*
X-14192Y60823D01*
X-14669Y61300D01*
X-15252Y61637D01*
X-15903Y61811D01*
D02*
G37*
G36*
X84781Y60532D02*
X83920D01*
X83124Y60202D01*
X82515Y59593D01*
X82185Y58797D01*
Y57935D01*
X82515Y57140D01*
X83124Y56530D01*
X83920Y56201D01*
X84781D01*
X85577Y56530D01*
X86186Y57140D01*
X86516Y57935D01*
Y58797D01*
X86186Y59593D01*
X85577Y60202D01*
X84781Y60532D01*
D02*
G37*
G36*
X-109376Y60636D02*
X-110309D01*
X-111210Y60394D01*
X-112018Y59928D01*
X-112678Y59268D01*
X-113144Y58460D01*
X-113386Y57559D01*
Y56626D01*
X-113144Y55725D01*
X-112678Y54917D01*
X-112018Y54257D01*
X-111210Y53791D01*
X-110309Y53549D01*
X-109376D01*
X-108475Y53791D01*
X-107667Y54257D01*
X-107007Y54917D01*
X-106541Y55725D01*
X-106299Y56626D01*
Y57559D01*
X-106541Y58460D01*
X-107007Y59268D01*
X-107667Y59928D01*
X-108475Y60394D01*
X-109376Y60636D01*
D02*
G37*
G36*
X-117250D02*
X-118183D01*
X-119084Y60394D01*
X-119892Y59928D01*
X-120552Y59268D01*
X-121018Y58460D01*
X-121260Y57559D01*
Y56626D01*
X-121018Y55725D01*
X-120552Y54917D01*
X-119892Y54257D01*
X-119084Y53791D01*
X-118183Y53549D01*
X-117250D01*
X-116349Y53791D01*
X-115541Y54257D01*
X-114881Y54917D01*
X-114415Y55725D01*
X-114173Y56626D01*
Y57559D01*
X-114415Y58460D01*
X-114881Y59268D01*
X-115541Y59928D01*
X-116349Y60394D01*
X-117250Y60636D01*
D02*
G37*
G36*
X118183Y60622D02*
X117250D01*
X116349Y60381D01*
X115541Y59914D01*
X114881Y59254D01*
X114415Y58446D01*
X114173Y57545D01*
Y56612D01*
X114415Y55711D01*
X114881Y54903D01*
X115541Y54243D01*
X116349Y53777D01*
X117250Y53535D01*
X118183D01*
X119084Y53777D01*
X119892Y54243D01*
X120552Y54903D01*
X121019Y55711D01*
X121260Y56612D01*
Y57545D01*
X121019Y58446D01*
X120552Y59254D01*
X119892Y59914D01*
X119084Y60381D01*
X118183Y60622D01*
D02*
G37*
G36*
X110309D02*
X109376D01*
X108475Y60381D01*
X107667Y59914D01*
X107007Y59254D01*
X106541Y58446D01*
X106299Y57545D01*
Y56612D01*
X106541Y55711D01*
X107007Y54903D01*
X107667Y54243D01*
X108475Y53777D01*
X109376Y53535D01*
X110309D01*
X111210Y53777D01*
X112018Y54243D01*
X112678Y54903D01*
X113144Y55711D01*
X113386Y56612D01*
Y57545D01*
X113144Y58446D01*
X112678Y59254D01*
X112018Y59914D01*
X111210Y60381D01*
X110309Y60622D01*
D02*
G37*
G36*
X-109376Y52762D02*
X-110309D01*
X-111210Y52520D01*
X-112018Y52054D01*
X-112678Y51394D01*
X-113144Y50586D01*
X-113386Y49685D01*
Y48752D01*
X-113144Y47851D01*
X-112678Y47043D01*
X-112018Y46383D01*
X-111210Y45917D01*
X-110309Y45675D01*
X-109376D01*
X-108475Y45917D01*
X-107667Y46383D01*
X-107007Y47043D01*
X-106541Y47851D01*
X-106299Y48752D01*
Y49685D01*
X-106541Y50586D01*
X-107007Y51394D01*
X-107667Y52054D01*
X-108475Y52520D01*
X-109376Y52762D01*
D02*
G37*
G36*
X-117250D02*
X-118183D01*
X-119084Y52520D01*
X-119892Y52054D01*
X-120552Y51394D01*
X-121018Y50586D01*
X-121260Y49685D01*
Y48752D01*
X-121018Y47851D01*
X-120552Y47043D01*
X-119892Y46383D01*
X-119084Y45917D01*
X-118183Y45675D01*
X-117250D01*
X-116349Y45917D01*
X-115541Y46383D01*
X-114881Y47043D01*
X-114415Y47851D01*
X-114173Y48752D01*
Y49685D01*
X-114415Y50586D01*
X-114881Y51394D01*
X-115541Y52054D01*
X-116349Y52520D01*
X-117250Y52762D01*
D02*
G37*
G36*
X118183Y52748D02*
X117250D01*
X116349Y52507D01*
X115541Y52040D01*
X114881Y51380D01*
X114415Y50572D01*
X114173Y49671D01*
Y48738D01*
X114415Y47837D01*
X114881Y47029D01*
X115541Y46369D01*
X116349Y45903D01*
X117250Y45661D01*
X118183D01*
X119084Y45903D01*
X119892Y46369D01*
X120552Y47029D01*
X121019Y47837D01*
X121260Y48738D01*
Y49671D01*
X121019Y50572D01*
X120552Y51380D01*
X119892Y52040D01*
X119084Y52507D01*
X118183Y52748D01*
D02*
G37*
G36*
X110309D02*
X109376D01*
X108475Y52507D01*
X107667Y52040D01*
X107007Y51380D01*
X106541Y50572D01*
X106299Y49671D01*
Y48738D01*
X106541Y47837D01*
X107007Y47029D01*
X107667Y46369D01*
X108475Y45903D01*
X109376Y45661D01*
X110309D01*
X111210Y45903D01*
X112018Y46369D01*
X112678Y47029D01*
X113144Y47837D01*
X113386Y48738D01*
Y49671D01*
X113144Y50572D01*
X112678Y51380D01*
X112018Y52040D01*
X111210Y52507D01*
X110309Y52748D01*
D02*
G37*
G36*
X83276Y43501D02*
Y41634D01*
X85142D01*
X84791Y42481D01*
X84123Y43150D01*
X83276Y43501D01*
D02*
G37*
G36*
X82276D02*
X81429Y43150D01*
X80760Y42481D01*
X80409Y41634D01*
X82276D01*
Y43501D01*
D02*
G37*
G36*
X30815Y43385D02*
Y41150D01*
X33050D01*
X32898Y41719D01*
X32533Y42351D01*
X32017Y42867D01*
X31385Y43232D01*
X30815Y43385D01*
D02*
G37*
G36*
X29815D02*
X29245Y43232D01*
X28613Y42867D01*
X28097Y42351D01*
X27732Y41719D01*
X27580Y41150D01*
X29815D01*
Y43385D01*
D02*
G37*
G36*
X-27847D02*
Y41150D01*
X-25611D01*
X-25764Y41719D01*
X-26129Y42351D01*
X-26645Y42867D01*
X-27277Y43232D01*
X-27847Y43385D01*
D02*
G37*
G36*
X-78240Y42721D02*
Y40854D01*
X-76373D01*
X-76724Y41701D01*
X-77393Y42370D01*
X-78240Y42721D01*
D02*
G37*
G36*
X-79240D02*
X-80087Y42370D01*
X-80756Y41701D01*
X-81107Y40854D01*
X-79240D01*
Y42721D01*
D02*
G37*
G36*
X85142Y40634D02*
X83276D01*
Y38767D01*
X84123Y39118D01*
X84791Y39787D01*
X85142Y40634D01*
D02*
G37*
G36*
X82276D02*
X80409D01*
X80760Y39787D01*
X81429Y39118D01*
X82276Y38767D01*
Y40634D01*
D02*
G37*
G36*
X-2616Y43209D02*
X-3290D01*
X-3940Y43034D01*
X-4524Y42697D01*
X-5001Y42221D01*
X-5337Y41637D01*
X-5512Y40986D01*
Y40313D01*
X-5337Y39662D01*
X-5001Y39078D01*
X-4524Y38602D01*
X-3940Y38265D01*
X-3290Y38091D01*
X-2616D01*
X-1965Y38265D01*
X-1381Y38602D01*
X-905Y39078D01*
X-568Y39662D01*
X-394Y40313D01*
Y40986D01*
X-568Y41637D01*
X-905Y42221D01*
X-1381Y42697D01*
X-1965Y43034D01*
X-2616Y43209D01*
D02*
G37*
G36*
X-76373Y39854D02*
X-78240D01*
Y37988D01*
X-77393Y38338D01*
X-76724Y39007D01*
X-76373Y39854D01*
D02*
G37*
G36*
X-79240D02*
X-81107D01*
X-80756Y39007D01*
X-80087Y38338D01*
X-79240Y37988D01*
Y39854D01*
D02*
G37*
G36*
X33050Y40150D02*
X30815D01*
Y37914D01*
X31385Y38067D01*
X32017Y38432D01*
X32533Y38948D01*
X32898Y39580D01*
X33050Y40150D01*
D02*
G37*
G36*
X29815D02*
X27580D01*
X27732Y39580D01*
X28097Y38948D01*
X28613Y38432D01*
X29245Y38067D01*
X29815Y37914D01*
Y40150D01*
D02*
G37*
G36*
X-25611D02*
X-27847D01*
Y37914D01*
X-27277Y38067D01*
X-26645Y38432D01*
X-26129Y38948D01*
X-25764Y39580D01*
X-25611Y40150D01*
D02*
G37*
G36*
X-109376Y44888D02*
X-110309D01*
X-111210Y44646D01*
X-112018Y44180D01*
X-112678Y43520D01*
X-113144Y42712D01*
X-113386Y41811D01*
Y40878D01*
X-113144Y39977D01*
X-112678Y39169D01*
X-112018Y38509D01*
X-111210Y38043D01*
X-110309Y37801D01*
X-109376D01*
X-108475Y38043D01*
X-107667Y38509D01*
X-107007Y39169D01*
X-106541Y39977D01*
X-106299Y40878D01*
Y41811D01*
X-106541Y42712D01*
X-107007Y43520D01*
X-107667Y44180D01*
X-108475Y44646D01*
X-109376Y44888D01*
D02*
G37*
G36*
X-117250D02*
X-118183D01*
X-119084Y44646D01*
X-119892Y44180D01*
X-120552Y43520D01*
X-121018Y42712D01*
X-121260Y41811D01*
Y40878D01*
X-121018Y39977D01*
X-120552Y39169D01*
X-119892Y38509D01*
X-119084Y38043D01*
X-118183Y37801D01*
X-117250D01*
X-116349Y38043D01*
X-115541Y38509D01*
X-114881Y39169D01*
X-114415Y39977D01*
X-114173Y40878D01*
Y41811D01*
X-114415Y42712D01*
X-114881Y43520D01*
X-115541Y44180D01*
X-116349Y44646D01*
X-117250Y44888D01*
D02*
G37*
G36*
X118183Y44874D02*
X117250D01*
X116349Y44633D01*
X115541Y44166D01*
X114881Y43506D01*
X114415Y42698D01*
X114173Y41797D01*
Y40864D01*
X114415Y39963D01*
X114881Y39155D01*
X115541Y38495D01*
X116349Y38029D01*
X117250Y37787D01*
X118183D01*
X119084Y38029D01*
X119892Y38495D01*
X120552Y39155D01*
X121019Y39963D01*
X121260Y40864D01*
Y41797D01*
X121019Y42698D01*
X120552Y43506D01*
X119892Y44166D01*
X119084Y44633D01*
X118183Y44874D01*
D02*
G37*
G36*
X110309D02*
X109376D01*
X108475Y44633D01*
X107667Y44166D01*
X107007Y43506D01*
X106541Y42698D01*
X106299Y41797D01*
Y40864D01*
X106541Y39963D01*
X107007Y39155D01*
X107667Y38495D01*
X108475Y38029D01*
X109376Y37787D01*
X110309D01*
X111210Y38029D01*
X112018Y38495D01*
X112678Y39155D01*
X113144Y39963D01*
X113386Y40864D01*
Y41797D01*
X113144Y42698D01*
X112678Y43506D01*
X112018Y44166D01*
X111210Y44633D01*
X110309Y44874D01*
D02*
G37*
G36*
X88226Y41142D02*
X87365D01*
X86569Y40812D01*
X85960Y40203D01*
X85630Y39407D01*
Y38546D01*
X85960Y37750D01*
X86569Y37141D01*
X87365Y36811D01*
X88226D01*
X89022Y37141D01*
X89631Y37750D01*
X89961Y38546D01*
Y39407D01*
X89631Y40203D01*
X89022Y40812D01*
X88226Y41142D01*
D02*
G37*
G36*
X-83723Y40551D02*
X-84584D01*
X-85380Y40222D01*
X-85989Y39612D01*
X-86319Y38816D01*
Y37955D01*
X-85989Y37159D01*
X-85380Y36550D01*
X-84584Y36220D01*
X-83723D01*
X-82927Y36550D01*
X-82318Y37159D01*
X-81988Y37955D01*
Y38816D01*
X-82318Y39612D01*
X-82927Y40222D01*
X-83723Y40551D01*
D02*
G37*
G36*
X98068Y39567D02*
X97207D01*
X96411Y39237D01*
X95802Y38628D01*
X95473Y37832D01*
Y36971D01*
X95802Y36175D01*
X96411Y35566D01*
X97207Y35236D01*
X98068D01*
X98864Y35566D01*
X99474Y36175D01*
X99803Y36971D01*
Y37832D01*
X99474Y38628D01*
X98864Y39237D01*
X98068Y39567D01*
D02*
G37*
G36*
X-97010Y37106D02*
X-97872D01*
X-98668Y36777D01*
X-99277Y36167D01*
X-99606Y35372D01*
Y34510D01*
X-99277Y33714D01*
X-98668Y33105D01*
X-97872Y32776D01*
X-97010D01*
X-96214Y33105D01*
X-95605Y33714D01*
X-95276Y34510D01*
Y35372D01*
X-95605Y36167D01*
X-96214Y36777D01*
X-97010Y37106D01*
D02*
G37*
G36*
X90982Y34449D02*
X90121D01*
X89325Y34119D01*
X88715Y33510D01*
X88386Y32714D01*
Y31853D01*
X88715Y31057D01*
X89325Y30448D01*
X90121Y30118D01*
X90982D01*
X91778Y30448D01*
X92387Y31057D01*
X92716Y31853D01*
Y32714D01*
X92387Y33510D01*
X91778Y34119D01*
X90982Y34449D01*
D02*
G37*
G36*
X83108Y34352D02*
X82247D01*
X81451Y34022D01*
X80841Y33413D01*
X80512Y32617D01*
Y31756D01*
X80841Y30960D01*
X81451Y30351D01*
X82247Y30021D01*
X83108D01*
X83904Y30351D01*
X84513Y30960D01*
X84842Y31756D01*
Y32617D01*
X84513Y33413D01*
X83904Y34022D01*
X83108Y34352D01*
D02*
G37*
G36*
X-87857D02*
X-88718D01*
X-89514Y34022D01*
X-90123Y33413D01*
X-90453Y32617D01*
Y31756D01*
X-90123Y30960D01*
X-89514Y30351D01*
X-88718Y30021D01*
X-87857D01*
X-87061Y30351D01*
X-86452Y30960D01*
X-86122Y31756D01*
Y32617D01*
X-86452Y33413D01*
X-87061Y34022D01*
X-87857Y34352D01*
D02*
G37*
G36*
X-76932Y34350D02*
X-77793D01*
X-78589Y34021D01*
X-79198Y33412D01*
X-79527Y32616D01*
Y31754D01*
X-79198Y30959D01*
X-78589Y30349D01*
X-77793Y30020D01*
X-76932D01*
X-76136Y30349D01*
X-75526Y30959D01*
X-75197Y31754D01*
Y32616D01*
X-75526Y33412D01*
X-76136Y34021D01*
X-76932Y34350D01*
D02*
G37*
G36*
X-109376Y37014D02*
X-110309D01*
X-111210Y36772D01*
X-112018Y36306D01*
X-112678Y35646D01*
X-113144Y34838D01*
X-113386Y33937D01*
Y33004D01*
X-113144Y32103D01*
X-112678Y31295D01*
X-112018Y30635D01*
X-111210Y30169D01*
X-110309Y29927D01*
X-109376D01*
X-108475Y30169D01*
X-107667Y30635D01*
X-107007Y31295D01*
X-106541Y32103D01*
X-106299Y33004D01*
Y33937D01*
X-106541Y34838D01*
X-107007Y35646D01*
X-107667Y36306D01*
X-108475Y36772D01*
X-109376Y37014D01*
D02*
G37*
G36*
X-117250D02*
X-118183D01*
X-119084Y36772D01*
X-119892Y36306D01*
X-120552Y35646D01*
X-121018Y34838D01*
X-121260Y33937D01*
Y33004D01*
X-121018Y32103D01*
X-120552Y31295D01*
X-119892Y30635D01*
X-119084Y30169D01*
X-118183Y29927D01*
X-117250D01*
X-116349Y30169D01*
X-115541Y30635D01*
X-114881Y31295D01*
X-114415Y32103D01*
X-114173Y33004D01*
Y33937D01*
X-114415Y34838D01*
X-114881Y35646D01*
X-115541Y36306D01*
X-116349Y36772D01*
X-117250Y37014D01*
D02*
G37*
G36*
X118183Y37000D02*
X117250D01*
X116349Y36759D01*
X115541Y36292D01*
X114881Y35632D01*
X114415Y34824D01*
X114173Y33923D01*
Y32990D01*
X114415Y32089D01*
X114881Y31281D01*
X115541Y30621D01*
X116349Y30155D01*
X117250Y29913D01*
X118183D01*
X119084Y30155D01*
X119892Y30621D01*
X120552Y31281D01*
X121019Y32089D01*
X121260Y32990D01*
Y33923D01*
X121019Y34824D01*
X120552Y35632D01*
X119892Y36292D01*
X119084Y36759D01*
X118183Y37000D01*
D02*
G37*
G36*
X110309D02*
X109376D01*
X108475Y36759D01*
X107667Y36292D01*
X107007Y35632D01*
X106541Y34824D01*
X106299Y33923D01*
Y32990D01*
X106541Y32089D01*
X107007Y31281D01*
X107667Y30621D01*
X108475Y30155D01*
X109376Y29913D01*
X110309D01*
X111210Y30155D01*
X112018Y30621D01*
X112678Y31281D01*
X113144Y32089D01*
X113386Y32990D01*
Y33923D01*
X113144Y34824D01*
X112678Y35632D01*
X112018Y36292D01*
X111210Y36759D01*
X110309Y37000D01*
D02*
G37*
G36*
X101809Y31299D02*
X100947D01*
X100151Y30970D01*
X99542Y30360D01*
X99213Y29565D01*
Y28703D01*
X99542Y27907D01*
X100151Y27298D01*
X100947Y26969D01*
X101809D01*
X102604Y27298D01*
X103214Y27907D01*
X103543Y28703D01*
Y29565D01*
X103214Y30360D01*
X102604Y30970D01*
X101809Y31299D01*
D02*
G37*
G36*
X-100947Y31201D02*
X-101809D01*
X-102604Y30871D01*
X-103214Y30262D01*
X-103543Y29466D01*
Y28605D01*
X-103214Y27809D01*
X-102604Y27200D01*
X-101809Y26870D01*
X-100947D01*
X-100151Y27200D01*
X-99542Y27809D01*
X-99213Y28605D01*
Y29466D01*
X-99542Y30262D01*
X-100151Y30871D01*
X-100947Y31201D01*
D02*
G37*
G36*
X75234Y27264D02*
X74372D01*
X73577Y26934D01*
X72967Y26325D01*
X72638Y25529D01*
Y24668D01*
X72967Y23872D01*
X73577Y23263D01*
X74372Y22933D01*
X75234D01*
X76030Y23263D01*
X76639Y23872D01*
X76968Y24668D01*
Y25529D01*
X76639Y26325D01*
X76030Y26934D01*
X75234Y27264D01*
D02*
G37*
G36*
X-109376Y29140D02*
X-110309D01*
X-111210Y28898D01*
X-112018Y28432D01*
X-112678Y27772D01*
X-113144Y26964D01*
X-113386Y26063D01*
Y25130D01*
X-113144Y24229D01*
X-112678Y23421D01*
X-112018Y22761D01*
X-111210Y22295D01*
X-110309Y22053D01*
X-109376D01*
X-108475Y22295D01*
X-107667Y22761D01*
X-107007Y23421D01*
X-106541Y24229D01*
X-106299Y25130D01*
Y26063D01*
X-106541Y26964D01*
X-107007Y27772D01*
X-107667Y28432D01*
X-108475Y28898D01*
X-109376Y29140D01*
D02*
G37*
G36*
X-117250D02*
X-118183D01*
X-119084Y28898D01*
X-119892Y28432D01*
X-120552Y27772D01*
X-121018Y26964D01*
X-121260Y26063D01*
Y25130D01*
X-121018Y24229D01*
X-120552Y23421D01*
X-119892Y22761D01*
X-119084Y22295D01*
X-118183Y22053D01*
X-117250D01*
X-116349Y22295D01*
X-115541Y22761D01*
X-114881Y23421D01*
X-114415Y24229D01*
X-114173Y25130D01*
Y26063D01*
X-114415Y26964D01*
X-114881Y27772D01*
X-115541Y28432D01*
X-116349Y28898D01*
X-117250Y29140D01*
D02*
G37*
G36*
X118183Y29126D02*
X117250D01*
X116349Y28885D01*
X115541Y28418D01*
X114881Y27758D01*
X114415Y26950D01*
X114173Y26049D01*
Y25116D01*
X114415Y24215D01*
X114881Y23407D01*
X115541Y22747D01*
X116349Y22281D01*
X117250Y22039D01*
X118183D01*
X119084Y22281D01*
X119892Y22747D01*
X120552Y23407D01*
X121019Y24215D01*
X121260Y25116D01*
Y26049D01*
X121019Y26950D01*
X120552Y27758D01*
X119892Y28418D01*
X119084Y28885D01*
X118183Y29126D01*
D02*
G37*
G36*
X110309D02*
X109376D01*
X108475Y28885D01*
X107667Y28418D01*
X107007Y27758D01*
X106541Y26950D01*
X106299Y26049D01*
Y25116D01*
X106541Y24215D01*
X107007Y23407D01*
X107667Y22747D01*
X108475Y22281D01*
X109376Y22039D01*
X110309D01*
X111210Y22281D01*
X112018Y22747D01*
X112678Y23407D01*
X113144Y24215D01*
X113386Y25116D01*
Y26049D01*
X113144Y26950D01*
X112678Y27758D01*
X112018Y28418D01*
X111210Y28885D01*
X110309Y29126D01*
D02*
G37*
G36*
X75303Y22322D02*
Y20087D01*
X77539D01*
X77386Y20656D01*
X77021Y21289D01*
X76505Y21804D01*
X75873Y22169D01*
X75303Y22322D01*
D02*
G37*
G36*
X-69890Y21264D02*
X-70737Y20914D01*
X-71406Y20245D01*
X-71757Y19398D01*
X-69890D01*
Y21264D01*
D02*
G37*
G36*
X77539Y19087D02*
X75303D01*
Y16851D01*
X75873Y17004D01*
X76505Y17369D01*
X77021Y17885D01*
X77386Y18517D01*
X77539Y19087D01*
D02*
G37*
G36*
X-69890Y18398D02*
X-71757D01*
X-71406Y17551D01*
X-70737Y16882D01*
X-69890Y16531D01*
Y18398D01*
D02*
G37*
G36*
X-109376Y21266D02*
X-110309D01*
X-111210Y21024D01*
X-112018Y20558D01*
X-112678Y19898D01*
X-113144Y19090D01*
X-113386Y18189D01*
Y17256D01*
X-113144Y16355D01*
X-112678Y15547D01*
X-112018Y14887D01*
X-111210Y14421D01*
X-110309Y14179D01*
X-109376D01*
X-108475Y14421D01*
X-107667Y14887D01*
X-107007Y15547D01*
X-106541Y16355D01*
X-106299Y17256D01*
Y18189D01*
X-106541Y19090D01*
X-107007Y19898D01*
X-107667Y20558D01*
X-108475Y21024D01*
X-109376Y21266D01*
D02*
G37*
G36*
X-117250D02*
X-118183D01*
X-119084Y21024D01*
X-119892Y20558D01*
X-120552Y19898D01*
X-121018Y19090D01*
X-121260Y18189D01*
Y17256D01*
X-121018Y16355D01*
X-120552Y15547D01*
X-119892Y14887D01*
X-119084Y14421D01*
X-118183Y14179D01*
X-117250D01*
X-116349Y14421D01*
X-115541Y14887D01*
X-114881Y15547D01*
X-114415Y16355D01*
X-114173Y17256D01*
Y18189D01*
X-114415Y19090D01*
X-114881Y19898D01*
X-115541Y20558D01*
X-116349Y21024D01*
X-117250Y21266D01*
D02*
G37*
G36*
X118183Y21252D02*
X117250D01*
X116349Y21011D01*
X115541Y20544D01*
X114881Y19884D01*
X114415Y19076D01*
X114173Y18175D01*
Y17242D01*
X114415Y16341D01*
X114881Y15533D01*
X115541Y14873D01*
X116349Y14407D01*
X117250Y14165D01*
X118183D01*
X119084Y14407D01*
X119892Y14873D01*
X120552Y15533D01*
X121019Y16341D01*
X121260Y17242D01*
Y18175D01*
X121019Y19076D01*
X120552Y19884D01*
X119892Y20544D01*
X119084Y21011D01*
X118183Y21252D01*
D02*
G37*
G36*
X110309D02*
X109376D01*
X108475Y21011D01*
X107667Y20544D01*
X107007Y19884D01*
X106541Y19076D01*
X106299Y18175D01*
Y17242D01*
X106541Y16341D01*
X107007Y15533D01*
X107667Y14873D01*
X108475Y14407D01*
X109376Y14165D01*
X110309D01*
X111210Y14407D01*
X112018Y14873D01*
X112678Y15533D01*
X113144Y16341D01*
X113386Y17242D01*
Y18175D01*
X113144Y19076D01*
X112678Y19884D01*
X112018Y20544D01*
X111210Y21011D01*
X110309Y21252D01*
D02*
G37*
G36*
X-93565Y15945D02*
X-94427D01*
X-95223Y15615D01*
X-95832Y15006D01*
X-96161Y14210D01*
Y13349D01*
X-95832Y12553D01*
X-95223Y11944D01*
X-94427Y11614D01*
X-93565D01*
X-92769Y11944D01*
X-92160Y12553D01*
X-91831Y13349D01*
Y14210D01*
X-92160Y15006D01*
X-92769Y15615D01*
X-93565Y15945D01*
D02*
G37*
G36*
X94131Y14764D02*
X93270D01*
X92474Y14434D01*
X91865Y13825D01*
X91535Y13029D01*
Y12168D01*
X91865Y11372D01*
X92474Y10763D01*
X93270Y10433D01*
X94131D01*
X94927Y10763D01*
X95537Y11372D01*
X95866Y12168D01*
Y13029D01*
X95537Y13825D01*
X94927Y14434D01*
X94131Y14764D01*
D02*
G37*
G36*
X-15805Y14862D02*
X-16479D01*
X-17130Y14688D01*
X-17713Y14351D01*
X-18190Y13874D01*
X-18526Y13291D01*
X-18701Y12640D01*
Y11966D01*
X-18526Y11315D01*
X-18190Y10732D01*
X-17713Y10255D01*
X-17130Y9918D01*
X-16479Y9744D01*
X-15805D01*
X-15154Y9918D01*
X-14570Y10255D01*
X-14094Y10732D01*
X-13757Y11315D01*
X-13583Y11966D01*
Y12640D01*
X-13757Y13291D01*
X-14094Y13874D01*
X-14570Y14351D01*
X-15154Y14688D01*
X-15805Y14862D01*
D02*
G37*
G36*
X-78703Y12205D02*
X-79565D01*
X-80360Y11875D01*
X-80970Y11266D01*
X-81299Y10470D01*
Y9609D01*
X-80970Y8813D01*
X-80360Y8204D01*
X-79565Y7874D01*
X-78703D01*
X-77907Y8204D01*
X-77298Y8813D01*
X-76968Y9609D01*
Y10470D01*
X-77298Y11266D01*
X-77907Y11875D01*
X-78703Y12205D01*
D02*
G37*
G36*
X84683Y12008D02*
X83821D01*
X83025Y11678D01*
X82416Y11069D01*
X82087Y10273D01*
Y9412D01*
X82416Y8616D01*
X83025Y8007D01*
X83821Y7677D01*
X84683D01*
X85479Y8007D01*
X86088Y8616D01*
X86417Y9412D01*
Y10273D01*
X86088Y11069D01*
X85479Y11678D01*
X84683Y12008D01*
D02*
G37*
G36*
X-109376Y13392D02*
X-110309D01*
X-111210Y13150D01*
X-112018Y12684D01*
X-112678Y12024D01*
X-113144Y11216D01*
X-113386Y10315D01*
Y9382D01*
X-113144Y8481D01*
X-112678Y7673D01*
X-112018Y7013D01*
X-111210Y6547D01*
X-110309Y6305D01*
X-109376D01*
X-108475Y6547D01*
X-107667Y7013D01*
X-107007Y7673D01*
X-106541Y8481D01*
X-106299Y9382D01*
Y10315D01*
X-106541Y11216D01*
X-107007Y12024D01*
X-107667Y12684D01*
X-108475Y13150D01*
X-109376Y13392D01*
D02*
G37*
G36*
X-117250D02*
X-118183D01*
X-119084Y13150D01*
X-119892Y12684D01*
X-120552Y12024D01*
X-121018Y11216D01*
X-121260Y10315D01*
Y9382D01*
X-121018Y8481D01*
X-120552Y7673D01*
X-119892Y7013D01*
X-119084Y6547D01*
X-118183Y6305D01*
X-117250D01*
X-116349Y6547D01*
X-115541Y7013D01*
X-114881Y7673D01*
X-114415Y8481D01*
X-114173Y9382D01*
Y10315D01*
X-114415Y11216D01*
X-114881Y12024D01*
X-115541Y12684D01*
X-116349Y13150D01*
X-117250Y13392D01*
D02*
G37*
G36*
X118183Y13378D02*
X117250D01*
X116349Y13137D01*
X115541Y12670D01*
X114881Y12010D01*
X114415Y11202D01*
X114173Y10301D01*
Y9368D01*
X114415Y8467D01*
X114881Y7659D01*
X115541Y6999D01*
X116349Y6533D01*
X117250Y6291D01*
X118183D01*
X119084Y6533D01*
X119892Y6999D01*
X120552Y7659D01*
X121019Y8467D01*
X121260Y9368D01*
Y10301D01*
X121019Y11202D01*
X120552Y12010D01*
X119892Y12670D01*
X119084Y13137D01*
X118183Y13378D01*
D02*
G37*
G36*
X110309D02*
X109376D01*
X108475Y13137D01*
X107667Y12670D01*
X107007Y12010D01*
X106541Y11202D01*
X106299Y10301D01*
Y9368D01*
X106541Y8467D01*
X107007Y7659D01*
X107667Y6999D01*
X108475Y6533D01*
X109376Y6291D01*
X110309D01*
X111210Y6533D01*
X112018Y6999D01*
X112678Y7659D01*
X113144Y8467D01*
X113386Y9368D01*
Y10301D01*
X113144Y11202D01*
X112678Y12010D01*
X112018Y12670D01*
X111210Y13137D01*
X110309Y13378D01*
D02*
G37*
G36*
X-27650Y8149D02*
Y5913D01*
X-25414D01*
X-25567Y6483D01*
X-25932Y7115D01*
X-26448Y7631D01*
X-27080Y7996D01*
X-27650Y8149D01*
D02*
G37*
G36*
X25632Y10433D02*
X24958D01*
X24307Y10259D01*
X23724Y9922D01*
X23247Y9445D01*
X22911Y8862D01*
X22736Y8211D01*
Y7537D01*
X22911Y6886D01*
X23247Y6303D01*
X23724Y5826D01*
X24307Y5489D01*
X24958Y5315D01*
X25632D01*
X26283Y5489D01*
X26867Y5826D01*
X27343Y6303D01*
X27680Y6886D01*
X27854Y7537D01*
Y8211D01*
X27680Y8862D01*
X27343Y9445D01*
X26867Y9922D01*
X26283Y10259D01*
X25632Y10433D01*
D02*
G37*
G36*
X13723D02*
X13049D01*
X12398Y10259D01*
X11814Y9922D01*
X11338Y9445D01*
X11001Y8862D01*
X10827Y8211D01*
Y7537D01*
X11001Y6886D01*
X11338Y6303D01*
X11814Y5826D01*
X12398Y5489D01*
X13049Y5315D01*
X13723D01*
X14374Y5489D01*
X14957Y5826D01*
X15434Y6303D01*
X15770Y6886D01*
X15945Y7537D01*
Y8211D01*
X15770Y8862D01*
X15434Y9445D01*
X14957Y9922D01*
X14374Y10259D01*
X13723Y10433D01*
D02*
G37*
G36*
X-5667Y7972D02*
X-6341D01*
X-6992Y7798D01*
X-7575Y7461D01*
X-8052Y6985D01*
X-8389Y6401D01*
X-8563Y5750D01*
Y5077D01*
X-8389Y4426D01*
X-8052Y3842D01*
X-7575Y3366D01*
X-6992Y3029D01*
X-6341Y2854D01*
X-5667D01*
X-5016Y3029D01*
X-4433Y3366D01*
X-3956Y3842D01*
X-3619Y4426D01*
X-3445Y5077D01*
Y5750D01*
X-3619Y6401D01*
X-3956Y6985D01*
X-4433Y7461D01*
X-5016Y7798D01*
X-5667Y7972D01*
D02*
G37*
G36*
X-25414Y4913D02*
X-27650D01*
Y2678D01*
X-27080Y2831D01*
X-26448Y3196D01*
X-25932Y3712D01*
X-25567Y4344D01*
X-25414Y4913D01*
D02*
G37*
G36*
X-78634Y-4720D02*
Y-6587D01*
X-76767D01*
X-77118Y-5740D01*
X-77787Y-5071D01*
X-78634Y-4720D01*
D02*
G37*
G36*
X-79634D02*
X-80481Y-5071D01*
X-81150Y-5740D01*
X-81501Y-6587D01*
X-79634D01*
Y-4720D01*
D02*
G37*
G36*
X83752Y-5015D02*
X82905Y-5366D01*
X82236Y-6035D01*
X81885Y-6882D01*
X83752D01*
Y-5015D01*
D02*
G37*
G36*
X-76767Y-7587D02*
X-78634D01*
Y-9453D01*
X-77787Y-9103D01*
X-77118Y-8434D01*
X-76767Y-7587D01*
D02*
G37*
G36*
X-79634D02*
X-81501D01*
X-81150Y-8434D01*
X-80481Y-9103D01*
X-79634Y-9453D01*
Y-7587D01*
D02*
G37*
G36*
X83752Y-7882D02*
X81885D01*
X82236Y-8729D01*
X82905Y-9398D01*
X83752Y-9749D01*
Y-7882D01*
D02*
G37*
G36*
X-83723Y-6201D02*
X-84584D01*
X-85380Y-6531D01*
X-85989Y-7140D01*
X-86319Y-7935D01*
Y-8797D01*
X-85989Y-9593D01*
X-85380Y-10202D01*
X-84584Y-10531D01*
X-83723D01*
X-82927Y-10202D01*
X-82318Y-9593D01*
X-81988Y-8797D01*
Y-7935D01*
X-82318Y-7140D01*
X-82927Y-6531D01*
X-83723Y-6201D01*
D02*
G37*
G36*
X30716Y-8485D02*
Y-10721D01*
X32952D01*
X32799Y-10151D01*
X32434Y-9519D01*
X31918Y-9003D01*
X31286Y-8638D01*
X30716Y-8485D01*
D02*
G37*
G36*
X29717D02*
X29147Y-8638D01*
X28515Y-9003D01*
X27999Y-9519D01*
X27634Y-10151D01*
X27481Y-10721D01*
X29717D01*
Y-8485D01*
D02*
G37*
G36*
X84752Y-5015D02*
Y-7382D01*
Y-9749D01*
X85130Y-9592D01*
X85630Y-9926D01*
Y-10340D01*
X85960Y-11136D01*
X86569Y-11745D01*
X87365Y-12075D01*
X88226D01*
X89022Y-11745D01*
X89631Y-11136D01*
X89961Y-10340D01*
Y-9479D01*
X89631Y-8683D01*
X89022Y-8074D01*
X88226Y-7744D01*
X87365D01*
X87130Y-7841D01*
X86630Y-7507D01*
Y-6909D01*
X86268Y-6035D01*
X85599Y-5366D01*
X84752Y-5015D01*
D02*
G37*
G36*
X118183Y-6396D02*
X117250D01*
X116349Y-6638D01*
X115541Y-7104D01*
X114881Y-7764D01*
X114415Y-8572D01*
X114173Y-9473D01*
Y-10406D01*
X114415Y-11307D01*
X114881Y-12115D01*
X115541Y-12775D01*
X116349Y-13241D01*
X117250Y-13483D01*
X118183D01*
X119084Y-13241D01*
X119892Y-12775D01*
X120552Y-12115D01*
X121019Y-11307D01*
X121260Y-10406D01*
Y-9473D01*
X121019Y-8572D01*
X120552Y-7764D01*
X119892Y-7104D01*
X119084Y-6638D01*
X118183Y-6396D01*
D02*
G37*
G36*
X113386D02*
X106299D01*
Y-13483D01*
X113386D01*
Y-6396D01*
D02*
G37*
G36*
X-109376D02*
X-110309D01*
X-111210Y-6638D01*
X-112018Y-7104D01*
X-112678Y-7764D01*
X-113144Y-8572D01*
X-113386Y-9473D01*
Y-10406D01*
X-113144Y-11307D01*
X-112678Y-12115D01*
X-112018Y-12775D01*
X-111210Y-13241D01*
X-110309Y-13483D01*
X-109376D01*
X-108475Y-13241D01*
X-107667Y-12775D01*
X-107007Y-12115D01*
X-106541Y-11307D01*
X-106299Y-10406D01*
Y-9473D01*
X-106541Y-8572D01*
X-107007Y-7764D01*
X-107667Y-7104D01*
X-108475Y-6638D01*
X-109376Y-6396D01*
D02*
G37*
G36*
X-114173D02*
X-121260D01*
Y-13483D01*
X-114173D01*
Y-6396D01*
D02*
G37*
G36*
X160039Y13583D02*
X132874D01*
Y-13583D01*
X160039D01*
Y13583D01*
D02*
G37*
G36*
X-133071Y24409D02*
X-159843D01*
X-160039Y13583D01*
Y-13583D01*
X-132874D01*
Y13583D01*
X-133071Y13780D01*
Y24409D01*
D02*
G37*
G36*
X32952Y-11721D02*
X30716D01*
Y-13956D01*
X31286Y-13803D01*
X31918Y-13438D01*
X32434Y-12922D01*
X32799Y-12290D01*
X32952Y-11721D01*
D02*
G37*
G36*
X29717D02*
X27481D01*
X27634Y-12290D01*
X27999Y-12922D01*
X28515Y-13438D01*
X29147Y-13803D01*
X29717Y-13956D01*
Y-11721D01*
D02*
G37*
G36*
X-97010Y-10630D02*
X-97872D01*
X-98668Y-10960D01*
X-99277Y-11569D01*
X-99606Y-12365D01*
Y-13226D01*
X-99277Y-14022D01*
X-98668Y-14631D01*
X-97872Y-14961D01*
X-97010D01*
X-96214Y-14631D01*
X-95605Y-14022D01*
X-95276Y-13226D01*
Y-12365D01*
X-95605Y-11569D01*
X-96214Y-10960D01*
X-97010Y-10630D01*
D02*
G37*
G36*
X98068Y-11319D02*
X97207D01*
X96411Y-11649D01*
X95802Y-12258D01*
X95473Y-13054D01*
Y-13915D01*
X95802Y-14711D01*
X96411Y-15320D01*
X97207Y-15650D01*
X98068D01*
X98864Y-15320D01*
X99474Y-14711D01*
X99803Y-13915D01*
Y-13054D01*
X99474Y-12258D01*
X98864Y-11649D01*
X98068Y-11319D01*
D02*
G37*
G36*
X90982Y-14173D02*
X90121D01*
X89325Y-14503D01*
X88715Y-15112D01*
X88386Y-15908D01*
Y-16769D01*
X88715Y-17565D01*
X89325Y-18174D01*
X90121Y-18504D01*
X90982D01*
X91778Y-18174D01*
X92387Y-17565D01*
X92716Y-16769D01*
Y-15908D01*
X92387Y-15112D01*
X91778Y-14503D01*
X90982Y-14173D01*
D02*
G37*
G36*
X83305D02*
X82443D01*
X81647Y-14503D01*
X81038Y-15112D01*
X80709Y-15908D01*
Y-16769D01*
X81038Y-17565D01*
X81647Y-18174D01*
X82443Y-18504D01*
X83305D01*
X84101Y-18174D01*
X84710Y-17565D01*
X85039Y-16769D01*
Y-15908D01*
X84710Y-15112D01*
X84101Y-14503D01*
X83305Y-14173D01*
D02*
G37*
G36*
X-76833Y-14272D02*
X-77694D01*
X-78490Y-14601D01*
X-79100Y-15210D01*
X-79429Y-16006D01*
Y-16868D01*
X-79100Y-17664D01*
X-78490Y-18273D01*
X-77694Y-18602D01*
X-76833D01*
X-76037Y-18273D01*
X-75428Y-17664D01*
X-75098Y-16868D01*
Y-16006D01*
X-75428Y-15210D01*
X-76037Y-14601D01*
X-76833Y-14272D01*
D02*
G37*
G36*
X-87857D02*
X-88718D01*
X-89514Y-14601D01*
X-90123Y-15210D01*
X-90453Y-16006D01*
Y-16868D01*
X-90123Y-17664D01*
X-89514Y-18273D01*
X-88718Y-18602D01*
X-87857D01*
X-87061Y-18273D01*
X-86452Y-17664D01*
X-86122Y-16868D01*
Y-16006D01*
X-86452Y-15210D01*
X-87061Y-14601D01*
X-87857Y-14272D01*
D02*
G37*
G36*
X118183Y-14270D02*
X117250D01*
X116349Y-14512D01*
X115541Y-14978D01*
X114881Y-15638D01*
X114415Y-16446D01*
X114173Y-17347D01*
Y-18280D01*
X114415Y-19181D01*
X114881Y-19989D01*
X115541Y-20649D01*
X116349Y-21115D01*
X117250Y-21357D01*
X118183D01*
X119084Y-21115D01*
X119892Y-20649D01*
X120552Y-19989D01*
X121019Y-19181D01*
X121260Y-18280D01*
Y-17347D01*
X121019Y-16446D01*
X120552Y-15638D01*
X119892Y-14978D01*
X119084Y-14512D01*
X118183Y-14270D01*
D02*
G37*
G36*
X110309D02*
X109376D01*
X108475Y-14512D01*
X107667Y-14978D01*
X107007Y-15638D01*
X106541Y-16446D01*
X106299Y-17347D01*
Y-18280D01*
X106541Y-19181D01*
X107007Y-19989D01*
X107667Y-20649D01*
X108475Y-21115D01*
X109376Y-21357D01*
X110309D01*
X111210Y-21115D01*
X112018Y-20649D01*
X112678Y-19989D01*
X113144Y-19181D01*
X113386Y-18280D01*
Y-17347D01*
X113144Y-16446D01*
X112678Y-15638D01*
X112018Y-14978D01*
X111210Y-14512D01*
X110309Y-14270D01*
D02*
G37*
G36*
X-109376D02*
X-110309D01*
X-111210Y-14512D01*
X-112018Y-14978D01*
X-112678Y-15638D01*
X-113144Y-16446D01*
X-113386Y-17347D01*
Y-18280D01*
X-113144Y-19181D01*
X-112678Y-19989D01*
X-112018Y-20649D01*
X-111210Y-21115D01*
X-110309Y-21357D01*
X-109376D01*
X-108475Y-21115D01*
X-107667Y-20649D01*
X-107007Y-19989D01*
X-106541Y-19181D01*
X-106299Y-18280D01*
Y-17347D01*
X-106541Y-16446D01*
X-107007Y-15638D01*
X-107667Y-14978D01*
X-108475Y-14512D01*
X-109376Y-14270D01*
D02*
G37*
G36*
X-117250D02*
X-118183D01*
X-119084Y-14512D01*
X-119892Y-14978D01*
X-120552Y-15638D01*
X-121018Y-16446D01*
X-121260Y-17347D01*
Y-18280D01*
X-121018Y-19181D01*
X-120552Y-19989D01*
X-119892Y-20649D01*
X-119084Y-21115D01*
X-118183Y-21357D01*
X-117250D01*
X-116349Y-21115D01*
X-115541Y-20649D01*
X-114881Y-19989D01*
X-114415Y-19181D01*
X-114173Y-18280D01*
Y-17347D01*
X-114415Y-16446D01*
X-114881Y-15638D01*
X-115541Y-14978D01*
X-116349Y-14512D01*
X-117250Y-14270D01*
D02*
G37*
G36*
X101809Y-17028D02*
X100947D01*
X100151Y-17357D01*
X99542Y-17966D01*
X99213Y-18762D01*
Y-19624D01*
X99542Y-20419D01*
X100151Y-21029D01*
X100947Y-21358D01*
X101809D01*
X102604Y-21029D01*
X103214Y-20419D01*
X103543Y-19624D01*
Y-18762D01*
X103214Y-17966D01*
X102604Y-17357D01*
X101809Y-17028D01*
D02*
G37*
G36*
X-100947Y-17717D02*
X-101809D01*
X-102604Y-18046D01*
X-103214Y-18655D01*
X-103543Y-19451D01*
Y-20313D01*
X-103214Y-21109D01*
X-102604Y-21718D01*
X-101809Y-22047D01*
X-100947D01*
X-100151Y-21718D01*
X-99542Y-21109D01*
X-99213Y-20313D01*
Y-19451D01*
X-99542Y-18655D01*
X-100151Y-18046D01*
X-100947Y-17717D01*
D02*
G37*
G36*
X75234Y-20472D02*
X74372D01*
X73577Y-20802D01*
X72967Y-21411D01*
X72638Y-22207D01*
Y-23068D01*
X72967Y-23864D01*
X73577Y-24474D01*
X74372Y-24803D01*
X75234D01*
X76030Y-24474D01*
X76639Y-23864D01*
X76968Y-23068D01*
Y-22207D01*
X76639Y-21411D01*
X76030Y-20802D01*
X75234Y-20472D01*
D02*
G37*
G36*
X75303Y-26177D02*
Y-28043D01*
X77170D01*
X76819Y-27196D01*
X76150Y-26527D01*
X75303Y-26177D01*
D02*
G37*
G36*
X74303D02*
X73456Y-26527D01*
X72787Y-27196D01*
X72436Y-28043D01*
X74303D01*
Y-26177D01*
D02*
G37*
G36*
X-69890Y-27161D02*
X-70737Y-27512D01*
X-71406Y-28181D01*
X-71757Y-29028D01*
X-69890D01*
Y-27161D01*
D02*
G37*
G36*
X-8915Y-23917D02*
X-9589D01*
X-10240Y-24092D01*
X-10823Y-24429D01*
X-11300Y-24905D01*
X-11637Y-25489D01*
X-11811Y-26140D01*
Y-26813D01*
X-11637Y-27464D01*
X-11300Y-28048D01*
X-10823Y-28524D01*
X-10240Y-28861D01*
X-9589Y-29035D01*
X-8915D01*
X-8264Y-28861D01*
X-7681Y-28524D01*
X-7204Y-28048D01*
X-6867Y-27464D01*
X-6693Y-26813D01*
Y-26140D01*
X-6867Y-25489D01*
X-7204Y-24905D01*
X-7681Y-24429D01*
X-8264Y-24092D01*
X-8915Y-23917D01*
D02*
G37*
G36*
X118183Y-22144D02*
X117250D01*
X116349Y-22386D01*
X115541Y-22852D01*
X114881Y-23512D01*
X114415Y-24320D01*
X114173Y-25221D01*
Y-26154D01*
X114415Y-27055D01*
X114881Y-27863D01*
X115541Y-28523D01*
X116349Y-28989D01*
X117250Y-29231D01*
X118183D01*
X119084Y-28989D01*
X119892Y-28523D01*
X120552Y-27863D01*
X121019Y-27055D01*
X121260Y-26154D01*
Y-25221D01*
X121019Y-24320D01*
X120552Y-23512D01*
X119892Y-22852D01*
X119084Y-22386D01*
X118183Y-22144D01*
D02*
G37*
G36*
X110309D02*
X109376D01*
X108475Y-22386D01*
X107667Y-22852D01*
X107007Y-23512D01*
X106541Y-24320D01*
X106299Y-25221D01*
Y-26154D01*
X106541Y-27055D01*
X107007Y-27863D01*
X107667Y-28523D01*
X108475Y-28989D01*
X109376Y-29231D01*
X110309D01*
X111210Y-28989D01*
X112018Y-28523D01*
X112678Y-27863D01*
X113144Y-27055D01*
X113386Y-26154D01*
Y-25221D01*
X113144Y-24320D01*
X112678Y-23512D01*
X112018Y-22852D01*
X111210Y-22386D01*
X110309Y-22144D01*
D02*
G37*
G36*
X-109376D02*
X-110309D01*
X-111210Y-22386D01*
X-112018Y-22852D01*
X-112678Y-23512D01*
X-113144Y-24320D01*
X-113386Y-25221D01*
Y-26154D01*
X-113144Y-27055D01*
X-112678Y-27863D01*
X-112018Y-28523D01*
X-111210Y-28989D01*
X-110309Y-29231D01*
X-109376D01*
X-108475Y-28989D01*
X-107667Y-28523D01*
X-107007Y-27863D01*
X-106541Y-27055D01*
X-106299Y-26154D01*
Y-25221D01*
X-106541Y-24320D01*
X-107007Y-23512D01*
X-107667Y-22852D01*
X-108475Y-22386D01*
X-109376Y-22144D01*
D02*
G37*
G36*
X-117250D02*
X-118183D01*
X-119084Y-22386D01*
X-119892Y-22852D01*
X-120552Y-23512D01*
X-121018Y-24320D01*
X-121260Y-25221D01*
Y-26154D01*
X-121018Y-27055D01*
X-120552Y-27863D01*
X-119892Y-28523D01*
X-119084Y-28989D01*
X-118183Y-29231D01*
X-117250D01*
X-116349Y-28989D01*
X-115541Y-28523D01*
X-114881Y-27863D01*
X-114415Y-27055D01*
X-114173Y-26154D01*
Y-25221D01*
X-114415Y-24320D01*
X-114881Y-23512D01*
X-115541Y-22852D01*
X-116349Y-22386D01*
X-117250Y-22144D01*
D02*
G37*
G36*
X77170Y-29043D02*
X75303D01*
Y-30910D01*
X76150Y-30559D01*
X76819Y-29890D01*
X77170Y-29043D01*
D02*
G37*
G36*
X74303D02*
X72436D01*
X72787Y-29890D01*
X73456Y-30559D01*
X74303Y-30910D01*
Y-29043D01*
D02*
G37*
G36*
X-69890Y-30028D02*
X-71757D01*
X-71406Y-30875D01*
X-70737Y-31543D01*
X-69890Y-31894D01*
Y-30028D01*
D02*
G37*
G36*
X-27650Y-33977D02*
Y-36213D01*
X-25414D01*
X-25567Y-35643D01*
X-25932Y-35011D01*
X-26448Y-34495D01*
X-27080Y-34130D01*
X-27650Y-33977D01*
D02*
G37*
G36*
X118183Y-30018D02*
X117250D01*
X116349Y-30260D01*
X115541Y-30726D01*
X114881Y-31386D01*
X114415Y-32194D01*
X114173Y-33095D01*
Y-34028D01*
X114415Y-34929D01*
X114881Y-35737D01*
X115541Y-36397D01*
X116349Y-36863D01*
X117250Y-37105D01*
X118183D01*
X119084Y-36863D01*
X119892Y-36397D01*
X120552Y-35737D01*
X121019Y-34929D01*
X121260Y-34028D01*
Y-33095D01*
X121019Y-32194D01*
X120552Y-31386D01*
X119892Y-30726D01*
X119084Y-30260D01*
X118183Y-30018D01*
D02*
G37*
G36*
X110309D02*
X109376D01*
X108475Y-30260D01*
X107667Y-30726D01*
X107007Y-31386D01*
X106541Y-32194D01*
X106299Y-33095D01*
Y-34028D01*
X106541Y-34929D01*
X107007Y-35737D01*
X107667Y-36397D01*
X108475Y-36863D01*
X109376Y-37105D01*
X110309D01*
X111210Y-36863D01*
X112018Y-36397D01*
X112678Y-35737D01*
X113144Y-34929D01*
X113386Y-34028D01*
Y-33095D01*
X113144Y-32194D01*
X112678Y-31386D01*
X112018Y-30726D01*
X111210Y-30260D01*
X110309Y-30018D01*
D02*
G37*
G36*
X-109376D02*
X-110309D01*
X-111210Y-30260D01*
X-112018Y-30726D01*
X-112678Y-31386D01*
X-113144Y-32194D01*
X-113386Y-33095D01*
Y-34028D01*
X-113144Y-34929D01*
X-112678Y-35737D01*
X-112018Y-36397D01*
X-111210Y-36863D01*
X-110309Y-37105D01*
X-109376D01*
X-108475Y-36863D01*
X-107667Y-36397D01*
X-107007Y-35737D01*
X-106541Y-34929D01*
X-106299Y-34028D01*
Y-33095D01*
X-106541Y-32194D01*
X-107007Y-31386D01*
X-107667Y-30726D01*
X-108475Y-30260D01*
X-109376Y-30018D01*
D02*
G37*
G36*
X-117250D02*
X-118183D01*
X-119084Y-30260D01*
X-119892Y-30726D01*
X-120552Y-31386D01*
X-121018Y-32194D01*
X-121260Y-33095D01*
Y-34028D01*
X-121018Y-34929D01*
X-120552Y-35737D01*
X-119892Y-36397D01*
X-119084Y-36863D01*
X-118183Y-37105D01*
X-117250D01*
X-116349Y-36863D01*
X-115541Y-36397D01*
X-114881Y-35737D01*
X-114415Y-34929D01*
X-114173Y-34028D01*
Y-33095D01*
X-114415Y-32194D01*
X-114881Y-31386D01*
X-115541Y-30726D01*
X-116349Y-30260D01*
X-117250Y-30018D01*
D02*
G37*
G36*
X-93565Y-33268D02*
X-94427D01*
X-95223Y-33597D01*
X-95832Y-34207D01*
X-96161Y-35002D01*
Y-35864D01*
X-95832Y-36660D01*
X-95223Y-37269D01*
X-94427Y-37598D01*
X-93565D01*
X-92769Y-37269D01*
X-92160Y-36660D01*
X-91831Y-35864D01*
Y-35002D01*
X-92160Y-34207D01*
X-92769Y-33597D01*
X-93565Y-33268D01*
D02*
G37*
G36*
X94038Y-33958D02*
X93177D01*
X92381Y-34288D01*
X91772Y-34897D01*
X91443Y-35693D01*
Y-36554D01*
X91772Y-37350D01*
X92381Y-37959D01*
X93177Y-38289D01*
X94038D01*
X94834Y-37959D01*
X95443Y-37350D01*
X95773Y-36554D01*
Y-35693D01*
X95443Y-34897D01*
X94834Y-34288D01*
X94038Y-33958D01*
D02*
G37*
G36*
X-5569Y-34154D02*
X-6242D01*
X-6893Y-34328D01*
X-7477Y-34665D01*
X-7953Y-35141D01*
X-8290Y-35725D01*
X-8465Y-36376D01*
Y-37049D01*
X-8290Y-37700D01*
X-7953Y-38284D01*
X-7477Y-38760D01*
X-6893Y-39097D01*
X-6242Y-39272D01*
X-5569D01*
X-4918Y-39097D01*
X-4334Y-38760D01*
X-3858Y-38284D01*
X-3521Y-37700D01*
X-3347Y-37049D01*
Y-36376D01*
X-3521Y-35725D01*
X-3858Y-35141D01*
X-4334Y-34665D01*
X-4918Y-34328D01*
X-5569Y-34154D01*
D02*
G37*
G36*
X-25414Y-37213D02*
X-27650D01*
Y-39448D01*
X-27080Y-39295D01*
X-26448Y-38930D01*
X-25932Y-38414D01*
X-25567Y-37782D01*
X-25414Y-37213D01*
D02*
G37*
G36*
X-79687Y-37205D02*
X-80549D01*
X-81345Y-37534D01*
X-81954Y-38144D01*
X-82284Y-38939D01*
Y-39801D01*
X-81954Y-40597D01*
X-81345Y-41206D01*
X-80549Y-41535D01*
X-79687D01*
X-78891Y-41206D01*
X-78282Y-40597D01*
X-77953Y-39801D01*
Y-38939D01*
X-78282Y-38144D01*
X-78891Y-37534D01*
X-79687Y-37205D01*
D02*
G37*
G36*
X84190Y-38189D02*
X83329D01*
X82533Y-38519D01*
X81924Y-39128D01*
X81595Y-39924D01*
Y-40785D01*
X81924Y-41581D01*
X82533Y-42190D01*
X83329Y-42520D01*
X84190D01*
X84986Y-42190D01*
X85596Y-41581D01*
X85925Y-40785D01*
Y-39924D01*
X85596Y-39128D01*
X84986Y-38519D01*
X84190Y-38189D01*
D02*
G37*
G36*
X11656Y-39272D02*
X10982D01*
X10331Y-39446D01*
X9748Y-39783D01*
X9271Y-40259D01*
X8934Y-40843D01*
X8760Y-41494D01*
Y-42168D01*
X8934Y-42818D01*
X9271Y-43402D01*
X9748Y-43878D01*
X10331Y-44215D01*
X10982Y-44390D01*
X11656D01*
X12307Y-44215D01*
X12890Y-43878D01*
X13367Y-43402D01*
X13704Y-42818D01*
X13878Y-42168D01*
Y-41494D01*
X13704Y-40843D01*
X13367Y-40259D01*
X12890Y-39783D01*
X12307Y-39446D01*
X11656Y-39272D01*
D02*
G37*
G36*
X118183Y-37892D02*
X117250D01*
X116349Y-38134D01*
X115541Y-38600D01*
X114881Y-39260D01*
X114415Y-40068D01*
X114173Y-40969D01*
Y-41902D01*
X114415Y-42803D01*
X114881Y-43611D01*
X115541Y-44271D01*
X116349Y-44737D01*
X117250Y-44979D01*
X118183D01*
X119084Y-44737D01*
X119892Y-44271D01*
X120552Y-43611D01*
X121019Y-42803D01*
X121260Y-41902D01*
Y-40969D01*
X121019Y-40068D01*
X120552Y-39260D01*
X119892Y-38600D01*
X119084Y-38134D01*
X118183Y-37892D01*
D02*
G37*
G36*
X110309D02*
X109376D01*
X108475Y-38134D01*
X107667Y-38600D01*
X107007Y-39260D01*
X106541Y-40068D01*
X106299Y-40969D01*
Y-41902D01*
X106541Y-42803D01*
X107007Y-43611D01*
X107667Y-44271D01*
X108475Y-44737D01*
X109376Y-44979D01*
X110309D01*
X111210Y-44737D01*
X112018Y-44271D01*
X112678Y-43611D01*
X113144Y-42803D01*
X113386Y-41902D01*
Y-40969D01*
X113144Y-40068D01*
X112678Y-39260D01*
X112018Y-38600D01*
X111210Y-38134D01*
X110309Y-37892D01*
D02*
G37*
G36*
X-109376D02*
X-110309D01*
X-111210Y-38134D01*
X-112018Y-38600D01*
X-112678Y-39260D01*
X-113144Y-40068D01*
X-113386Y-40969D01*
Y-41902D01*
X-113144Y-42803D01*
X-112678Y-43611D01*
X-112018Y-44271D01*
X-111210Y-44737D01*
X-110309Y-44979D01*
X-109376D01*
X-108475Y-44737D01*
X-107667Y-44271D01*
X-107007Y-43611D01*
X-106541Y-42803D01*
X-106299Y-41902D01*
Y-40969D01*
X-106541Y-40068D01*
X-107007Y-39260D01*
X-107667Y-38600D01*
X-108475Y-38134D01*
X-109376Y-37892D01*
D02*
G37*
G36*
X-117250D02*
X-118183D01*
X-119084Y-38134D01*
X-119892Y-38600D01*
X-120552Y-39260D01*
X-121018Y-40068D01*
X-121260Y-40969D01*
Y-41902D01*
X-121018Y-42803D01*
X-120552Y-43611D01*
X-119892Y-44271D01*
X-119084Y-44737D01*
X-118183Y-44979D01*
X-117250D01*
X-116349Y-44737D01*
X-115541Y-44271D01*
X-114881Y-43611D01*
X-114415Y-42803D01*
X-114173Y-41902D01*
Y-40969D01*
X-114415Y-40068D01*
X-114881Y-39260D01*
X-115541Y-38600D01*
X-116349Y-38134D01*
X-117250Y-37892D01*
D02*
G37*
G36*
X118183Y-45766D02*
X117250D01*
X116349Y-46008D01*
X115541Y-46474D01*
X114881Y-47134D01*
X114415Y-47942D01*
X114173Y-48843D01*
Y-49776D01*
X114415Y-50677D01*
X114881Y-51485D01*
X115541Y-52145D01*
X116349Y-52611D01*
X117250Y-52853D01*
X118183D01*
X119084Y-52611D01*
X119892Y-52145D01*
X120552Y-51485D01*
X121019Y-50677D01*
X121260Y-49776D01*
Y-48843D01*
X121019Y-47942D01*
X120552Y-47134D01*
X119892Y-46474D01*
X119084Y-46008D01*
X118183Y-45766D01*
D02*
G37*
G36*
X110309D02*
X109376D01*
X108475Y-46008D01*
X107667Y-46474D01*
X107007Y-47134D01*
X106541Y-47942D01*
X106299Y-48843D01*
Y-49776D01*
X106541Y-50677D01*
X107007Y-51485D01*
X107667Y-52145D01*
X108475Y-52611D01*
X109376Y-52853D01*
X110309D01*
X111210Y-52611D01*
X112018Y-52145D01*
X112678Y-51485D01*
X113144Y-50677D01*
X113386Y-49776D01*
Y-48843D01*
X113144Y-47942D01*
X112678Y-47134D01*
X112018Y-46474D01*
X111210Y-46008D01*
X110309Y-45766D01*
D02*
G37*
G36*
X-109376D02*
X-110309D01*
X-111210Y-46008D01*
X-112018Y-46474D01*
X-112678Y-47134D01*
X-113144Y-47942D01*
X-113386Y-48843D01*
Y-49776D01*
X-113144Y-50677D01*
X-112678Y-51485D01*
X-112018Y-52145D01*
X-111210Y-52611D01*
X-110309Y-52853D01*
X-109376D01*
X-108475Y-52611D01*
X-107667Y-52145D01*
X-107007Y-51485D01*
X-106541Y-50677D01*
X-106299Y-49776D01*
Y-48843D01*
X-106541Y-47942D01*
X-107007Y-47134D01*
X-107667Y-46474D01*
X-108475Y-46008D01*
X-109376Y-45766D01*
D02*
G37*
G36*
X-117250D02*
X-118183D01*
X-119084Y-46008D01*
X-119892Y-46474D01*
X-120552Y-47134D01*
X-121018Y-47942D01*
X-121260Y-48843D01*
Y-49776D01*
X-121018Y-50677D01*
X-120552Y-51485D01*
X-119892Y-52145D01*
X-119084Y-52611D01*
X-118183Y-52853D01*
X-117250D01*
X-116349Y-52611D01*
X-115541Y-52145D01*
X-114881Y-51485D01*
X-114415Y-50677D01*
X-114173Y-49776D01*
Y-48843D01*
X-114415Y-47942D01*
X-114881Y-47134D01*
X-115541Y-46474D01*
X-116349Y-46008D01*
X-117250Y-45766D01*
D02*
G37*
G36*
X-14525Y-51476D02*
X-15199D01*
X-15850Y-51651D01*
X-16433Y-51988D01*
X-16910Y-52464D01*
X-17247Y-53048D01*
X-17421Y-53698D01*
Y-54372D01*
X-17247Y-55023D01*
X-16910Y-55607D01*
X-16433Y-56083D01*
X-15850Y-56420D01*
X-15199Y-56595D01*
X-14525D01*
X-13874Y-56420D01*
X-13291Y-56083D01*
X-12814Y-55607D01*
X-12477Y-55023D01*
X-12303Y-54372D01*
Y-53698D01*
X-12477Y-53048D01*
X-12814Y-52464D01*
X-13291Y-51988D01*
X-13874Y-51651D01*
X-14525Y-51476D01*
D02*
G37*
G36*
X79043Y-56196D02*
Y-58063D01*
X80910D01*
X80559Y-57216D01*
X79890Y-56547D01*
X79043Y-56196D01*
D02*
G37*
G36*
X78043D02*
X77196Y-56547D01*
X76527Y-57216D01*
X76177Y-58063D01*
X78043D01*
Y-56196D01*
D02*
G37*
G36*
X-75287Y-56688D02*
Y-58555D01*
X-73421D01*
X-73772Y-57708D01*
X-74440Y-57039D01*
X-75287Y-56688D01*
D02*
G37*
G36*
X-76287D02*
X-77134Y-57039D01*
X-77803Y-57708D01*
X-78154Y-58555D01*
X-76287D01*
Y-56688D01*
D02*
G37*
G36*
X1813Y-53543D02*
X1139D01*
X489Y-53718D01*
X-95Y-54055D01*
X-571Y-54531D01*
X-908Y-55115D01*
X-1083Y-55765D01*
Y-56439D01*
X-908Y-57090D01*
X-571Y-57674D01*
X-95Y-58150D01*
X489Y-58487D01*
X1139Y-58661D01*
X1813D01*
X2464Y-58487D01*
X3048Y-58150D01*
X3524Y-57674D01*
X3861Y-57090D01*
X4035Y-56439D01*
Y-55765D01*
X3861Y-55115D01*
X3524Y-54531D01*
X3048Y-54055D01*
X2464Y-53718D01*
X1813Y-53543D01*
D02*
G37*
G36*
X30209Y-56516D02*
X29639Y-56669D01*
X29007Y-57034D01*
X28491Y-57550D01*
X28126Y-58182D01*
X27973Y-58752D01*
X30209D01*
Y-56516D01*
D02*
G37*
G36*
X118183Y-53640D02*
X117250D01*
X116349Y-53882D01*
X115541Y-54348D01*
X114881Y-55008D01*
X114415Y-55816D01*
X114173Y-56717D01*
Y-57650D01*
X114415Y-58551D01*
X114881Y-59359D01*
X115541Y-60019D01*
X116349Y-60485D01*
X117250Y-60727D01*
X118183D01*
X119084Y-60485D01*
X119892Y-60019D01*
X120552Y-59359D01*
X121019Y-58551D01*
X121260Y-57650D01*
Y-56717D01*
X121019Y-55816D01*
X120552Y-55008D01*
X119892Y-54348D01*
X119084Y-53882D01*
X118183Y-53640D01*
D02*
G37*
G36*
X110309D02*
X109376D01*
X108475Y-53882D01*
X107667Y-54348D01*
X107007Y-55008D01*
X106541Y-55816D01*
X106299Y-56717D01*
Y-57650D01*
X106541Y-58551D01*
X107007Y-59359D01*
X107667Y-60019D01*
X108475Y-60485D01*
X109376Y-60727D01*
X110309D01*
X111210Y-60485D01*
X112018Y-60019D01*
X112678Y-59359D01*
X113144Y-58551D01*
X113386Y-57650D01*
Y-56717D01*
X113144Y-55816D01*
X112678Y-55008D01*
X112018Y-54348D01*
X111210Y-53882D01*
X110309Y-53640D01*
D02*
G37*
G36*
X-109376D02*
X-110309D01*
X-111210Y-53882D01*
X-112018Y-54348D01*
X-112678Y-55008D01*
X-113144Y-55816D01*
X-113386Y-56717D01*
Y-57650D01*
X-113144Y-58551D01*
X-112678Y-59359D01*
X-112018Y-60019D01*
X-111210Y-60485D01*
X-110309Y-60727D01*
X-109376D01*
X-108475Y-60485D01*
X-107667Y-60019D01*
X-107007Y-59359D01*
X-106541Y-58551D01*
X-106299Y-57650D01*
Y-56717D01*
X-106541Y-55816D01*
X-107007Y-55008D01*
X-107667Y-54348D01*
X-108475Y-53882D01*
X-109376Y-53640D01*
D02*
G37*
G36*
X-117250D02*
X-118183D01*
X-119084Y-53882D01*
X-119892Y-54348D01*
X-120552Y-55008D01*
X-121018Y-55816D01*
X-121260Y-56717D01*
Y-57650D01*
X-121018Y-58551D01*
X-120552Y-59359D01*
X-119892Y-60019D01*
X-119084Y-60485D01*
X-118183Y-60727D01*
X-117250D01*
X-116349Y-60485D01*
X-115541Y-60019D01*
X-114881Y-59359D01*
X-114415Y-58551D01*
X-114173Y-57650D01*
Y-56717D01*
X-114415Y-55816D01*
X-114881Y-55008D01*
X-115541Y-54348D01*
X-116349Y-53882D01*
X-117250Y-53640D01*
D02*
G37*
G36*
X80910Y-59063D02*
X79043D01*
Y-60930D01*
X79890Y-60579D01*
X80559Y-59910D01*
X80910Y-59063D01*
D02*
G37*
G36*
X78043D02*
X76177D01*
X76527Y-59910D01*
X77196Y-60579D01*
X78043Y-60930D01*
Y-59063D01*
D02*
G37*
G36*
X97970Y-56791D02*
X97109D01*
X96313Y-57121D01*
X95704Y-57730D01*
X95374Y-58526D01*
Y-59387D01*
X95704Y-60183D01*
X96313Y-60792D01*
X97109Y-61122D01*
X97970D01*
X98766Y-60792D01*
X99375Y-60183D01*
X99705Y-59387D01*
Y-58526D01*
X99375Y-57730D01*
X98766Y-57121D01*
X97970Y-56791D01*
D02*
G37*
G36*
X-73421Y-59555D02*
X-75287D01*
Y-61422D01*
X-74440Y-61071D01*
X-73772Y-60402D01*
X-73421Y-59555D01*
D02*
G37*
G36*
X-76287D02*
X-78154D01*
X-77803Y-60402D01*
X-77134Y-61071D01*
X-76287Y-61422D01*
Y-59555D01*
D02*
G37*
G36*
X30209Y-59752D02*
X27973D01*
X28126Y-60322D01*
X28491Y-60954D01*
X29007Y-61470D01*
X29639Y-61835D01*
X30209Y-61987D01*
Y-59752D01*
D02*
G37*
G36*
X-83723Y-58366D02*
X-84584D01*
X-85380Y-58696D01*
X-85989Y-59305D01*
X-86319Y-60101D01*
Y-60962D01*
X-85989Y-61758D01*
X-85380Y-62367D01*
X-84584Y-62697D01*
X-83723D01*
X-82927Y-62367D01*
X-82318Y-61758D01*
X-81988Y-60962D01*
Y-60101D01*
X-82318Y-59305D01*
X-82927Y-58696D01*
X-83723Y-58366D01*
D02*
G37*
G36*
X-5372Y-60827D02*
X-6046D01*
X-6696Y-61001D01*
X-7280Y-61338D01*
X-7756Y-61814D01*
X-8093Y-62398D01*
X-8268Y-63049D01*
Y-63723D01*
X-8093Y-64374D01*
X-7756Y-64957D01*
X-7280Y-65434D01*
X-6696Y-65771D01*
X-6046Y-65945D01*
X-5372D01*
X-4721Y-65771D01*
X-4137Y-65434D01*
X-3661Y-64957D01*
X-3324Y-64374D01*
X-3150Y-63723D01*
Y-63049D01*
X-3324Y-62398D01*
X-3661Y-61814D01*
X-4137Y-61338D01*
X-4721Y-61001D01*
X-5372Y-60827D01*
D02*
G37*
G36*
X-14525Y-61319D02*
X-15199D01*
X-15850Y-61493D01*
X-16433Y-61830D01*
X-16910Y-62307D01*
X-17247Y-62890D01*
X-17421Y-63541D01*
Y-64215D01*
X-17247Y-64866D01*
X-16910Y-65449D01*
X-16433Y-65926D01*
X-15850Y-66263D01*
X-15199Y-66437D01*
X-14525D01*
X-13874Y-66263D01*
X-13291Y-65926D01*
X-12814Y-65449D01*
X-12477Y-64866D01*
X-12303Y-64215D01*
Y-63541D01*
X-12477Y-62890D01*
X-12814Y-62307D01*
X-13291Y-61830D01*
X-13874Y-61493D01*
X-14525Y-61319D01*
D02*
G37*
G36*
X-97010Y-62303D02*
X-97872D01*
X-98668Y-62633D01*
X-99277Y-63242D01*
X-99606Y-64038D01*
Y-64899D01*
X-99277Y-65695D01*
X-98668Y-66304D01*
X-97872Y-66634D01*
X-97010D01*
X-96214Y-66304D01*
X-95605Y-65695D01*
X-95276Y-64899D01*
Y-64038D01*
X-95605Y-63242D01*
X-96214Y-62633D01*
X-97010Y-62303D01*
D02*
G37*
G36*
X118183Y-61514D02*
X117250D01*
X116349Y-61756D01*
X115541Y-62222D01*
X114881Y-62882D01*
X114415Y-63690D01*
X114173Y-64591D01*
Y-65524D01*
X114415Y-66425D01*
X114881Y-67233D01*
X115541Y-67893D01*
X116349Y-68359D01*
X117250Y-68601D01*
X118183D01*
X119084Y-68359D01*
X119892Y-67893D01*
X120552Y-67233D01*
X121019Y-66425D01*
X121260Y-65524D01*
Y-64591D01*
X121019Y-63690D01*
X120552Y-62882D01*
X119892Y-62222D01*
X119084Y-61756D01*
X118183Y-61514D01*
D02*
G37*
G36*
X110309D02*
X109376D01*
X108475Y-61756D01*
X107667Y-62222D01*
X107007Y-62882D01*
X106541Y-63690D01*
X106299Y-64591D01*
Y-65524D01*
X106541Y-66425D01*
X107007Y-67233D01*
X107667Y-67893D01*
X108475Y-68359D01*
X109376Y-68601D01*
X110309D01*
X111210Y-68359D01*
X112018Y-67893D01*
X112678Y-67233D01*
X113144Y-66425D01*
X113386Y-65524D01*
Y-64591D01*
X113144Y-63690D01*
X112678Y-62882D01*
X112018Y-62222D01*
X111210Y-61756D01*
X110309Y-61514D01*
D02*
G37*
G36*
X-109376D02*
X-110309D01*
X-111210Y-61756D01*
X-112018Y-62222D01*
X-112678Y-62882D01*
X-113144Y-63690D01*
X-113386Y-64591D01*
Y-65524D01*
X-113144Y-66425D01*
X-112678Y-67233D01*
X-112018Y-67893D01*
X-111210Y-68359D01*
X-110309Y-68601D01*
X-109376D01*
X-108475Y-68359D01*
X-107667Y-67893D01*
X-107007Y-67233D01*
X-106541Y-66425D01*
X-106299Y-65524D01*
Y-64591D01*
X-106541Y-63690D01*
X-107007Y-62882D01*
X-107667Y-62222D01*
X-108475Y-61756D01*
X-109376Y-61514D01*
D02*
G37*
G36*
X-117250D02*
X-118183D01*
X-119084Y-61756D01*
X-119892Y-62222D01*
X-120552Y-62882D01*
X-121018Y-63690D01*
X-121260Y-64591D01*
Y-65524D01*
X-121018Y-66425D01*
X-120552Y-67233D01*
X-119892Y-67893D01*
X-119084Y-68359D01*
X-118183Y-68601D01*
X-117250D01*
X-116349Y-68359D01*
X-115541Y-67893D01*
X-114881Y-67233D01*
X-114415Y-66425D01*
X-114173Y-65524D01*
Y-64591D01*
X-114415Y-63690D01*
X-114881Y-62882D01*
X-115541Y-62222D01*
X-116349Y-61756D01*
X-117250Y-61514D01*
D02*
G37*
G36*
X101809Y-64272D02*
X100947D01*
X100151Y-64601D01*
X99542Y-65210D01*
X99213Y-66006D01*
Y-66868D01*
X99542Y-67664D01*
X100151Y-68273D01*
X100947Y-68602D01*
X101809D01*
X102604Y-68273D01*
X103214Y-67664D01*
X103543Y-66868D01*
Y-66006D01*
X103214Y-65210D01*
X102604Y-64601D01*
X101809Y-64272D01*
D02*
G37*
G36*
X87537Y-62500D02*
X86676D01*
X85880Y-62830D01*
X85271Y-63439D01*
X84941Y-64235D01*
Y-65096D01*
X85271Y-65892D01*
X85880Y-66501D01*
X86676Y-66831D01*
X87537D01*
X88333Y-66501D01*
X88333Y-66501D01*
X88715Y-66785D01*
X88386Y-67581D01*
Y-68442D01*
X88420Y-68525D01*
X88038Y-68908D01*
X87537Y-68701D01*
X86676D01*
X85880Y-69030D01*
X85271Y-69640D01*
X84941Y-70435D01*
Y-71297D01*
X85271Y-72093D01*
X85880Y-72702D01*
X86676Y-73032D01*
X87537D01*
X88333Y-72702D01*
X88942Y-72093D01*
X89272Y-71297D01*
Y-70435D01*
X89237Y-70353D01*
X89620Y-69970D01*
X90121Y-70177D01*
X90982D01*
X91778Y-69848D01*
X92387Y-69238D01*
X92716Y-68442D01*
Y-67581D01*
X92387Y-66785D01*
X91778Y-66176D01*
X90982Y-65847D01*
X90121D01*
X89325Y-66176D01*
X89324Y-66177D01*
X88942Y-65892D01*
X89272Y-65096D01*
Y-64235D01*
X88942Y-63439D01*
X88333Y-62830D01*
X87537Y-62500D01*
D02*
G37*
G36*
X-100947Y-65256D02*
X-101809D01*
X-102604Y-65586D01*
X-103214Y-66195D01*
X-103543Y-66991D01*
Y-67852D01*
X-103214Y-68648D01*
X-102604Y-69257D01*
X-101809Y-69587D01*
X-100947D01*
X-100151Y-69257D01*
X-99542Y-68648D01*
X-99213Y-67852D01*
Y-66991D01*
X-99542Y-66195D01*
X-100151Y-65586D01*
X-100947Y-65256D01*
D02*
G37*
G36*
X-87857Y-65847D02*
X-88718D01*
X-89514Y-66176D01*
X-90123Y-66785D01*
X-90453Y-67581D01*
Y-68442D01*
X-90123Y-69238D01*
X-89514Y-69848D01*
X-88718Y-70177D01*
X-87857D01*
X-87061Y-69848D01*
X-86452Y-69238D01*
X-86122Y-68442D01*
Y-67581D01*
X-86452Y-66785D01*
X-87061Y-66176D01*
X-87857Y-65847D01*
D02*
G37*
G36*
X-79989Y-65854D02*
X-80851D01*
X-81647Y-66183D01*
X-82256Y-66792D01*
X-82585Y-67588D01*
Y-68450D01*
X-82256Y-69246D01*
X-81647Y-69855D01*
X-80851Y-70184D01*
X-79989D01*
X-79193Y-69855D01*
X-78584Y-69246D01*
X-78255Y-68450D01*
Y-67588D01*
X-78584Y-66792D01*
X-79193Y-66183D01*
X-79989Y-65854D01*
D02*
G37*
G36*
X65883Y-69784D02*
X65022D01*
X64226Y-70113D01*
X63617Y-70722D01*
X63287Y-71518D01*
Y-72379D01*
X63617Y-73175D01*
X64226Y-73785D01*
X65022Y-74114D01*
X65883D01*
X66679Y-73785D01*
X67289Y-73175D01*
X67618Y-72379D01*
Y-71518D01*
X67289Y-70722D01*
X66679Y-70113D01*
X65883Y-69784D01*
D02*
G37*
G36*
X-9506Y-70965D02*
X-10179D01*
X-10830Y-71139D01*
X-11414Y-71476D01*
X-11890Y-71952D01*
X-12227Y-72536D01*
X-12402Y-73187D01*
Y-73861D01*
X-12227Y-74511D01*
X-11890Y-75095D01*
X-11414Y-75571D01*
X-10830Y-75908D01*
X-10179Y-76083D01*
X-9506D01*
X-8855Y-75908D01*
X-8271Y-75571D01*
X-7795Y-75095D01*
X-7458Y-74511D01*
X-7283Y-73861D01*
Y-73187D01*
X-7458Y-72536D01*
X-7795Y-71952D01*
X-8271Y-71476D01*
X-8855Y-71139D01*
X-9506Y-70965D01*
D02*
G37*
G36*
X60868Y-71260D02*
X60195D01*
X59544Y-71434D01*
X58960Y-71771D01*
X58484Y-72248D01*
X58147Y-72831D01*
X57973Y-73482D01*
Y-74156D01*
X58147Y-74807D01*
X58484Y-75390D01*
X58960Y-75867D01*
X59544Y-76204D01*
X60195Y-76378D01*
X60868D01*
X61519Y-76204D01*
X62103Y-75867D01*
X62579Y-75390D01*
X62916Y-74807D01*
X63090Y-74156D01*
Y-73482D01*
X62916Y-72831D01*
X62579Y-72248D01*
X62103Y-71771D01*
X61519Y-71434D01*
X60868Y-71260D01*
D02*
G37*
G36*
X118183Y-69388D02*
X117250D01*
X116349Y-69630D01*
X115541Y-70096D01*
X114881Y-70756D01*
X114415Y-71564D01*
X114173Y-72465D01*
Y-73398D01*
X114415Y-74299D01*
X114881Y-75107D01*
X115541Y-75767D01*
X116349Y-76233D01*
X117250Y-76475D01*
X118183D01*
X119084Y-76233D01*
X119892Y-75767D01*
X120552Y-75107D01*
X121019Y-74299D01*
X121260Y-73398D01*
Y-72465D01*
X121019Y-71564D01*
X120552Y-70756D01*
X119892Y-70096D01*
X119084Y-69630D01*
X118183Y-69388D01*
D02*
G37*
G36*
X110309D02*
X109376D01*
X108475Y-69630D01*
X107667Y-70096D01*
X107007Y-70756D01*
X106541Y-71564D01*
X106299Y-72465D01*
Y-73398D01*
X106541Y-74299D01*
X107007Y-75107D01*
X107667Y-75767D01*
X108475Y-76233D01*
X109376Y-76475D01*
X110309D01*
X111210Y-76233D01*
X112018Y-75767D01*
X112678Y-75107D01*
X113144Y-74299D01*
X113386Y-73398D01*
Y-72465D01*
X113144Y-71564D01*
X112678Y-70756D01*
X112018Y-70096D01*
X111210Y-69630D01*
X110309Y-69388D01*
D02*
G37*
G36*
X-109376D02*
X-110309D01*
X-111210Y-69630D01*
X-112018Y-70096D01*
X-112678Y-70756D01*
X-113144Y-71564D01*
X-113386Y-72465D01*
Y-73398D01*
X-113144Y-74299D01*
X-112678Y-75107D01*
X-112018Y-75767D01*
X-111210Y-76233D01*
X-110309Y-76475D01*
X-109376D01*
X-108475Y-76233D01*
X-107667Y-75767D01*
X-107007Y-75107D01*
X-106541Y-74299D01*
X-106299Y-73398D01*
Y-72465D01*
X-106541Y-71564D01*
X-107007Y-70756D01*
X-107667Y-70096D01*
X-108475Y-69630D01*
X-109376Y-69388D01*
D02*
G37*
G36*
X-117250D02*
X-118183D01*
X-119084Y-69630D01*
X-119892Y-70096D01*
X-120552Y-70756D01*
X-121018Y-71564D01*
X-121260Y-72465D01*
Y-73398D01*
X-121018Y-74299D01*
X-120552Y-75107D01*
X-119892Y-75767D01*
X-119084Y-76233D01*
X-118183Y-76475D01*
X-117250D01*
X-116349Y-76233D01*
X-115541Y-75767D01*
X-114881Y-75107D01*
X-114415Y-74299D01*
X-114173Y-73398D01*
Y-72465D01*
X-114415Y-71564D01*
X-114881Y-70756D01*
X-115541Y-70096D01*
X-116349Y-69630D01*
X-117250Y-69388D01*
D02*
G37*
G36*
X75332Y-72539D02*
X74471D01*
X73675Y-72869D01*
X73066Y-73478D01*
X72736Y-74274D01*
Y-75135D01*
X73066Y-75931D01*
X73675Y-76540D01*
X74471Y-76870D01*
X75332D01*
X76128Y-76540D01*
X76737Y-75931D01*
X77067Y-75135D01*
Y-74274D01*
X76737Y-73478D01*
X76128Y-72869D01*
X75332Y-72539D01*
D02*
G37*
G36*
X-27714Y-71752D02*
X-28388D01*
X-29039Y-71926D01*
X-29623Y-72263D01*
X-30099Y-72740D01*
X-30436Y-73323D01*
X-30610Y-73974D01*
Y-74648D01*
X-30436Y-75299D01*
X-30099Y-75882D01*
X-29623Y-76359D01*
X-29039Y-76696D01*
X-28388Y-76870D01*
X-27714D01*
X-27063Y-76696D01*
X-26480Y-76359D01*
X-26003Y-75882D01*
X-25666Y-75299D01*
X-25492Y-74648D01*
Y-73974D01*
X-25666Y-73323D01*
X-26003Y-72740D01*
X-26480Y-72263D01*
X-27063Y-71926D01*
X-27714Y-71752D01*
D02*
G37*
G36*
X-43369Y-73130D02*
X-44230D01*
X-45026Y-73460D01*
X-45635Y-74069D01*
X-45965Y-74865D01*
Y-75726D01*
X-45635Y-76522D01*
X-45026Y-77131D01*
X-44230Y-77461D01*
X-43369D01*
X-42573Y-77131D01*
X-41963Y-76522D01*
X-41634Y-75726D01*
Y-74865D01*
X-41963Y-74069D01*
X-42573Y-73460D01*
X-43369Y-73130D01*
D02*
G37*
G36*
X-68959D02*
X-69820D01*
X-70616Y-73460D01*
X-71226Y-74069D01*
X-71555Y-74865D01*
Y-75726D01*
X-71226Y-76522D01*
X-70616Y-77131D01*
X-69820Y-77461D01*
X-68959D01*
X-68163Y-77131D01*
X-67554Y-76522D01*
X-67224Y-75726D01*
Y-74865D01*
X-67554Y-74069D01*
X-68163Y-73460D01*
X-68959Y-73130D01*
D02*
G37*
G36*
X-57739Y-73524D02*
X-58600D01*
X-59396Y-73853D01*
X-60005Y-74462D01*
X-60335Y-75258D01*
Y-76120D01*
X-60005Y-76916D01*
X-59396Y-77525D01*
X-58600Y-77854D01*
X-57739D01*
X-56943Y-77525D01*
X-56334Y-76916D01*
X-56004Y-76120D01*
Y-75258D01*
X-56334Y-74462D01*
X-56943Y-73853D01*
X-57739Y-73524D01*
D02*
G37*
G36*
X75402Y-78342D02*
Y-80209D01*
X77268D01*
X76917Y-79362D01*
X76249Y-78693D01*
X75402Y-78342D01*
D02*
G37*
G36*
X74402D02*
X73555Y-78693D01*
X72886Y-79362D01*
X72535Y-80209D01*
X74402D01*
Y-78342D01*
D02*
G37*
G36*
X-68890Y-78736D02*
Y-80602D01*
X-67023D01*
X-67374Y-79755D01*
X-68043Y-79086D01*
X-68890Y-78736D01*
D02*
G37*
G36*
X-69890D02*
X-70737Y-79086D01*
X-71406Y-79755D01*
X-71757Y-80602D01*
X-69890D01*
Y-78736D01*
D02*
G37*
G36*
X77268Y-81209D02*
X75402D01*
Y-83075D01*
X76249Y-82725D01*
X76917Y-82056D01*
X77268Y-81209D01*
D02*
G37*
G36*
X74402D02*
X72535D01*
X72886Y-82056D01*
X73555Y-82725D01*
X74402Y-83075D01*
Y-81209D01*
D02*
G37*
G36*
X65883Y-79035D02*
X65022D01*
X64226Y-79365D01*
X63617Y-79974D01*
X63287Y-80770D01*
Y-81631D01*
X63617Y-82427D01*
X64226Y-83037D01*
X65022Y-83366D01*
X65883D01*
X66679Y-83037D01*
X67289Y-82427D01*
X67618Y-81631D01*
Y-80770D01*
X67289Y-79974D01*
X66679Y-79365D01*
X65883Y-79035D01*
D02*
G37*
G36*
X-56164D02*
X-57025D01*
X-57821Y-79365D01*
X-58430Y-79974D01*
X-58760Y-80770D01*
Y-81631D01*
X-58430Y-82427D01*
X-57821Y-83037D01*
X-57025Y-83366D01*
X-56164D01*
X-55368Y-83037D01*
X-54759Y-82427D01*
X-54429Y-81631D01*
Y-80770D01*
X-54759Y-79974D01*
X-55368Y-79365D01*
X-56164Y-79035D01*
D02*
G37*
G36*
X-67023Y-81602D02*
X-68890D01*
Y-83469D01*
X-68043Y-83118D01*
X-67374Y-82449D01*
X-67023Y-81602D01*
D02*
G37*
G36*
X-69890D02*
X-71757D01*
X-71406Y-82449D01*
X-70737Y-83118D01*
X-69890Y-83469D01*
Y-81602D01*
D02*
G37*
G36*
X118183Y-77262D02*
X117250D01*
X116349Y-77504D01*
X115541Y-77970D01*
X114881Y-78630D01*
X114415Y-79438D01*
X114173Y-80339D01*
Y-81272D01*
X114415Y-82173D01*
X114881Y-82981D01*
X115541Y-83641D01*
X116349Y-84107D01*
X117250Y-84349D01*
X118183D01*
X119084Y-84107D01*
X119892Y-83641D01*
X120552Y-82981D01*
X121019Y-82173D01*
X121260Y-81272D01*
Y-80339D01*
X121019Y-79438D01*
X120552Y-78630D01*
X119892Y-77970D01*
X119084Y-77504D01*
X118183Y-77262D01*
D02*
G37*
G36*
X110309D02*
X109376D01*
X108475Y-77504D01*
X107667Y-77970D01*
X107007Y-78630D01*
X106541Y-79438D01*
X106299Y-80339D01*
Y-81272D01*
X106541Y-82173D01*
X107007Y-82981D01*
X107667Y-83641D01*
X108475Y-84107D01*
X109376Y-84349D01*
X110309D01*
X111210Y-84107D01*
X112018Y-83641D01*
X112678Y-82981D01*
X113144Y-82173D01*
X113386Y-81272D01*
Y-80339D01*
X113144Y-79438D01*
X112678Y-78630D01*
X112018Y-77970D01*
X111210Y-77504D01*
X110309Y-77262D01*
D02*
G37*
G36*
X-109376D02*
X-110309D01*
X-111210Y-77504D01*
X-112018Y-77970D01*
X-112678Y-78630D01*
X-113144Y-79438D01*
X-113386Y-80339D01*
Y-81272D01*
X-113144Y-82173D01*
X-112678Y-82981D01*
X-112018Y-83641D01*
X-111210Y-84107D01*
X-110309Y-84349D01*
X-109376D01*
X-108475Y-84107D01*
X-107667Y-83641D01*
X-107007Y-82981D01*
X-106541Y-82173D01*
X-106299Y-81272D01*
Y-80339D01*
X-106541Y-79438D01*
X-107007Y-78630D01*
X-107667Y-77970D01*
X-108475Y-77504D01*
X-109376Y-77262D01*
D02*
G37*
G36*
X-117250D02*
X-118183D01*
X-119084Y-77504D01*
X-119892Y-77970D01*
X-120552Y-78630D01*
X-121018Y-79438D01*
X-121260Y-80339D01*
Y-81272D01*
X-121018Y-82173D01*
X-120552Y-82981D01*
X-119892Y-83641D01*
X-119084Y-84107D01*
X-118183Y-84349D01*
X-117250D01*
X-116349Y-84107D01*
X-115541Y-83641D01*
X-114881Y-82981D01*
X-114415Y-82173D01*
X-114173Y-81272D01*
Y-80339D01*
X-114415Y-79438D01*
X-114881Y-78630D01*
X-115541Y-77970D01*
X-116349Y-77504D01*
X-117250Y-77262D01*
D02*
G37*
G36*
X57025Y-80020D02*
X56164D01*
X55368Y-80349D01*
X54759Y-80958D01*
X54429Y-81754D01*
Y-82616D01*
X54759Y-83412D01*
X55368Y-84021D01*
X56164Y-84350D01*
X57025D01*
X57821Y-84021D01*
X58430Y-83412D01*
X58760Y-82616D01*
Y-81754D01*
X58430Y-80958D01*
X57821Y-80349D01*
X57025Y-80020D01*
D02*
G37*
G36*
X-34941Y-78248D02*
X-41634D01*
Y-84941D01*
X-34941D01*
Y-78248D01*
D02*
G37*
G36*
X-11872Y-82185D02*
X-12734D01*
X-13530Y-82515D01*
X-14139Y-83124D01*
X-14469Y-83920D01*
Y-84781D01*
X-14139Y-85577D01*
X-13530Y-86186D01*
X-12734Y-86516D01*
X-11872D01*
X-11077Y-86186D01*
X-10468Y-85577D01*
X-10138Y-84781D01*
Y-83920D01*
X-10468Y-83124D01*
X-11077Y-82515D01*
X-11872Y-82185D01*
D02*
G37*
G36*
X-93565Y-84941D02*
X-94427D01*
X-95223Y-85271D01*
X-95832Y-85880D01*
X-96161Y-86676D01*
Y-87537D01*
X-95832Y-88333D01*
X-95223Y-88942D01*
X-94427Y-89272D01*
X-93565D01*
X-92769Y-88942D01*
X-92160Y-88333D01*
X-91831Y-87537D01*
Y-86676D01*
X-92160Y-85880D01*
X-92769Y-85271D01*
X-93565Y-84941D01*
D02*
G37*
G36*
X93946Y-85444D02*
X93085D01*
X92289Y-85774D01*
X91680Y-86383D01*
X91350Y-87179D01*
Y-88041D01*
X91680Y-88836D01*
X92289Y-89446D01*
X93085Y-89775D01*
X93946D01*
X94742Y-89446D01*
X95351Y-88836D01*
X95681Y-88041D01*
Y-87179D01*
X95351Y-86383D01*
X94742Y-85774D01*
X93946Y-85444D01*
D02*
G37*
G36*
X54527Y-85728D02*
X47835D01*
Y-91959D01*
X47835Y-92357D01*
X47457Y-92716D01*
X47248Y-92596D01*
X46597Y-92421D01*
X45923D01*
X45272Y-92596D01*
X44688Y-92933D01*
X44212Y-93409D01*
X43875Y-93993D01*
X43701Y-94643D01*
Y-95317D01*
X43875Y-95968D01*
X44212Y-96552D01*
X44688Y-97028D01*
X45272Y-97365D01*
X45923Y-97539D01*
X46597D01*
X47248Y-97365D01*
X47831Y-97028D01*
X48308Y-96552D01*
X48645Y-95968D01*
X48819Y-95317D01*
Y-94643D01*
X48645Y-93993D01*
X48308Y-93409D01*
X47831Y-92933D01*
X47753Y-92887D01*
X47945Y-92421D01*
X48308Y-92421D01*
X54527D01*
Y-85728D01*
D02*
G37*
G36*
X9191Y-88878D02*
X8329D01*
X7533Y-89208D01*
X6924Y-89817D01*
X6594Y-90613D01*
Y-91474D01*
X6924Y-92270D01*
X7533Y-92879D01*
X8329Y-93209D01*
X9191D01*
X9986Y-92879D01*
X10595Y-92270D01*
X10925Y-91474D01*
Y-90613D01*
X10595Y-89817D01*
X9986Y-89208D01*
X9191Y-88878D01*
D02*
G37*
G36*
X-18506Y-88876D02*
X-25199D01*
Y-95569D01*
X-18506D01*
Y-88876D01*
D02*
G37*
G36*
X-33465D02*
X-40157D01*
Y-95569D01*
X-33465D01*
Y-88876D01*
D02*
G37*
G36*
X57124Y-92323D02*
X56262D01*
X55466Y-92652D01*
X54857Y-93262D01*
X54528Y-94058D01*
Y-94919D01*
X54857Y-95715D01*
X55466Y-96324D01*
X56262Y-96653D01*
X57124D01*
X57920Y-96324D01*
X58529Y-95715D01*
X58858Y-94919D01*
Y-94058D01*
X58529Y-93262D01*
X57920Y-92652D01*
X57124Y-92323D01*
D02*
G37*
G36*
X-46321Y-95276D02*
X-47183D01*
X-47978Y-95605D01*
X-48588Y-96214D01*
X-48917Y-97010D01*
Y-97872D01*
X-48588Y-98668D01*
X-47978Y-99277D01*
X-47183Y-99606D01*
X-46321D01*
X-45525Y-99277D01*
X-44916Y-98668D01*
X-44587Y-97872D01*
Y-97010D01*
X-44916Y-96214D01*
X-45525Y-95605D01*
X-46321Y-95276D01*
D02*
G37*
G36*
X-6164Y-95473D02*
X-7025D01*
X-7821Y-95802D01*
X-8430Y-96411D01*
X-8760Y-97207D01*
Y-98068D01*
X-8430Y-98864D01*
X-7821Y-99474D01*
X-7025Y-99803D01*
X-6164D01*
X-5368Y-99474D01*
X-4759Y-98864D01*
X-4429Y-98068D01*
Y-97207D01*
X-4759Y-96411D01*
X-5368Y-95802D01*
X-6164Y-95473D01*
D02*
G37*
G36*
X4860Y-96752D02*
X3998D01*
X3203Y-97082D01*
X2593Y-97691D01*
X2264Y-98487D01*
Y-99348D01*
X2593Y-100144D01*
X3203Y-100753D01*
X3998Y-101083D01*
X4860D01*
X5656Y-100753D01*
X6265Y-100144D01*
X6594Y-99348D01*
Y-98487D01*
X6265Y-97691D01*
X5656Y-97082D01*
X4860Y-96752D01*
D02*
G37*
G36*
X76218Y-100689D02*
X75357D01*
X74561Y-101019D01*
X73952Y-101628D01*
X73843Y-101889D01*
X73302D01*
X73194Y-101628D01*
X72585Y-101019D01*
X71789Y-100689D01*
X70928D01*
X70132Y-101019D01*
X69523Y-101628D01*
X69193Y-102424D01*
Y-103285D01*
X69523Y-104081D01*
X70132Y-104690D01*
X70928Y-105020D01*
X71789D01*
X72585Y-104690D01*
X73194Y-104081D01*
X73302Y-103820D01*
X73843D01*
X73952Y-104081D01*
X74561Y-104690D01*
X75357Y-105020D01*
X76218D01*
X77014Y-104690D01*
X77623Y-104081D01*
X77953Y-103285D01*
Y-102424D01*
X77623Y-101628D01*
X77014Y-101019D01*
X76218Y-100689D01*
D02*
G37*
G36*
X-56164Y-97736D02*
X-57025D01*
X-57821Y-98066D01*
X-58430Y-98675D01*
X-58760Y-99471D01*
Y-100332D01*
X-58430Y-101128D01*
X-57821Y-101737D01*
X-57025Y-102067D01*
X-56164D01*
X-55368Y-101737D01*
X-54759Y-101128D01*
X-54429Y-100332D01*
Y-99471D01*
X-54759Y-98675D01*
X-55368Y-98066D01*
X-56164Y-97736D01*
D02*
G37*
G36*
X-93565Y-98228D02*
X-94427D01*
X-95223Y-98558D01*
X-95832Y-99167D01*
X-96161Y-99963D01*
Y-100824D01*
X-95832Y-101620D01*
X-95223Y-102229D01*
X-94427Y-102559D01*
X-93565D01*
X-92769Y-102229D01*
X-92160Y-101620D01*
X-91831Y-100824D01*
Y-99963D01*
X-92160Y-99167D01*
X-92769Y-98558D01*
X-93565Y-98228D01*
D02*
G37*
G36*
X-2128Y-98917D02*
X-2990D01*
X-3786Y-99247D01*
X-4395Y-99856D01*
X-4724Y-100652D01*
Y-101513D01*
X-4395Y-102309D01*
X-3786Y-102918D01*
X-2990Y-103248D01*
X-2128D01*
X-1333Y-102918D01*
X-723Y-102309D01*
X-394Y-101513D01*
Y-100652D01*
X-723Y-99856D01*
X-1333Y-99247D01*
X-2128Y-98917D01*
D02*
G37*
G36*
X84584Y-100197D02*
X83723D01*
X82927Y-100526D01*
X82318Y-101136D01*
X81988Y-101932D01*
Y-102793D01*
X82318Y-103589D01*
X82927Y-104198D01*
X83723Y-104527D01*
X84584D01*
X85380Y-104198D01*
X85989Y-103589D01*
X86319Y-102793D01*
Y-101932D01*
X85989Y-101136D01*
X85380Y-100526D01*
X84584Y-100197D01*
D02*
G37*
G36*
X-14825D02*
X-15687D01*
X-16483Y-100526D01*
X-17092Y-101136D01*
X-17421Y-101932D01*
Y-102793D01*
X-17092Y-103589D01*
X-16483Y-104198D01*
X-15687Y-104527D01*
X-14825D01*
X-14029Y-104198D01*
X-13420Y-103589D01*
X-13091Y-102793D01*
Y-101932D01*
X-13420Y-101136D01*
X-14029Y-100526D01*
X-14825Y-100197D01*
D02*
G37*
G36*
X-27325Y-98524D02*
X-28187D01*
X-28982Y-98853D01*
X-29592Y-99462D01*
X-29921Y-100258D01*
Y-101120D01*
X-29592Y-101916D01*
X-29046Y-102461D01*
X-29592Y-103006D01*
X-29921Y-103802D01*
Y-104663D01*
X-29592Y-105459D01*
X-28982Y-106068D01*
X-28187Y-106398D01*
X-27325D01*
X-26529Y-106068D01*
X-25920Y-105459D01*
X-25591Y-104663D01*
Y-103802D01*
X-25920Y-103006D01*
X-26465Y-102461D01*
X-25920Y-101916D01*
X-25591Y-101120D01*
Y-100258D01*
X-25920Y-99462D01*
X-26529Y-98853D01*
X-27325Y-98524D01*
D02*
G37*
G36*
X-83723Y-102165D02*
X-84584D01*
X-85380Y-102495D01*
X-85989Y-103104D01*
X-86319Y-103900D01*
Y-104761D01*
X-85989Y-105557D01*
X-85380Y-106166D01*
X-84584Y-106496D01*
X-83723D01*
X-82927Y-106166D01*
X-82318Y-105557D01*
X-81988Y-104761D01*
Y-103900D01*
X-82318Y-103104D01*
X-82927Y-102495D01*
X-83723Y-102165D01*
D02*
G37*
G36*
X-6951Y-103347D02*
X-7813D01*
X-8608Y-103676D01*
X-9218Y-104285D01*
X-9547Y-105081D01*
Y-105942D01*
X-9296Y-106550D01*
X-9398Y-106676D01*
X-9699Y-106883D01*
X-10396Y-106595D01*
X-11258D01*
X-12053Y-106924D01*
X-12663Y-107533D01*
X-12992Y-108329D01*
Y-109191D01*
X-12663Y-109986D01*
X-12247Y-110402D01*
X-12109Y-110728D01*
X-12247Y-111055D01*
X-12663Y-111470D01*
X-12992Y-112266D01*
Y-113128D01*
X-12792Y-113610D01*
X-13193Y-113950D01*
X-13841Y-113681D01*
X-14702D01*
X-15498Y-114011D01*
X-16107Y-114620D01*
X-16437Y-115416D01*
Y-116277D01*
X-16107Y-117073D01*
X-15498Y-117682D01*
X-14702Y-118012D01*
X-13841D01*
X-13045Y-117682D01*
X-12436Y-117073D01*
X-12106Y-116277D01*
Y-115416D01*
X-12306Y-114933D01*
X-11906Y-114594D01*
X-11258Y-114862D01*
X-10396D01*
X-9600Y-114532D01*
X-8991Y-113923D01*
X-8661Y-113128D01*
Y-112266D01*
X-8991Y-111470D01*
X-9406Y-111055D01*
X-9544Y-110728D01*
X-9406Y-110402D01*
X-8991Y-109986D01*
X-8661Y-109191D01*
Y-108329D01*
X-8913Y-107721D01*
X-8810Y-107595D01*
X-8510Y-107388D01*
X-7813Y-107677D01*
X-6951D01*
X-6155Y-107348D01*
X-5546Y-106738D01*
X-5217Y-105942D01*
Y-105081D01*
X-5546Y-104285D01*
X-6155Y-103676D01*
X-6951Y-103347D01*
D02*
G37*
G36*
X-56164Y-103839D02*
X-57025D01*
X-57821Y-104168D01*
X-58430Y-104777D01*
X-58760Y-105573D01*
Y-106435D01*
X-58430Y-107230D01*
X-57821Y-107840D01*
X-57025Y-108169D01*
X-56164D01*
X-55368Y-107840D01*
X-54759Y-107230D01*
X-54429Y-106435D01*
Y-105573D01*
X-54759Y-104777D01*
X-55368Y-104168D01*
X-56164Y-103839D01*
D02*
G37*
G36*
X97970Y-106595D02*
X97109D01*
X96313Y-106924D01*
X95704Y-107533D01*
X95374Y-108329D01*
Y-109191D01*
X95704Y-109986D01*
X96313Y-110596D01*
X97109Y-110925D01*
X97970D01*
X98766Y-110596D01*
X99375Y-109986D01*
X99705Y-109191D01*
Y-108329D01*
X99375Y-107533D01*
X98766Y-106924D01*
X97970Y-106595D01*
D02*
G37*
G36*
X89013D02*
X88152D01*
X87356Y-106924D01*
X86747Y-107533D01*
X86417Y-108329D01*
Y-109191D01*
X86747Y-109986D01*
X87356Y-110596D01*
X88152Y-110925D01*
X89013D01*
X89809Y-110596D01*
X90418Y-109986D01*
X90748Y-109191D01*
Y-108329D01*
X90418Y-107533D01*
X89809Y-106924D01*
X89013Y-106595D01*
D02*
G37*
G36*
X-42089Y-109646D02*
X-42950D01*
X-43746Y-109975D01*
X-44355Y-110584D01*
X-44685Y-111380D01*
Y-112242D01*
X-44355Y-113038D01*
X-43746Y-113647D01*
X-42950Y-113976D01*
X-42089D01*
X-41293Y-113647D01*
X-40684Y-113038D01*
X-40354Y-112242D01*
Y-111380D01*
X-40684Y-110584D01*
X-41293Y-109975D01*
X-42089Y-109646D01*
D02*
G37*
G36*
X101809Y-111516D02*
X100947D01*
X100151Y-111845D01*
X99542Y-112454D01*
X99213Y-113250D01*
Y-114112D01*
X99542Y-114908D01*
X100151Y-115517D01*
X100947Y-115847D01*
X101809D01*
X102604Y-115517D01*
X103214Y-114908D01*
X103543Y-114112D01*
Y-113250D01*
X103214Y-112454D01*
X102604Y-111845D01*
X101809Y-111516D01*
D02*
G37*
G36*
X-66498Y-115650D02*
X-67360D01*
X-68156Y-115979D01*
X-68765Y-116588D01*
X-69095Y-117384D01*
Y-118246D01*
X-68765Y-119042D01*
X-68156Y-119651D01*
X-67360Y-119980D01*
X-66498D01*
X-65703Y-119651D01*
X-65093Y-119042D01*
X-64764Y-118246D01*
Y-117384D01*
X-65093Y-116588D01*
X-65703Y-115979D01*
X-66498Y-115650D01*
D02*
G37*
G36*
X3482Y-116535D02*
X2620D01*
X1825Y-116865D01*
X1216Y-117474D01*
X886Y-118270D01*
Y-119132D01*
X1216Y-119927D01*
X1825Y-120536D01*
X2620Y-120866D01*
X3482D01*
X4278Y-120536D01*
X4887Y-119927D01*
X5217Y-119132D01*
Y-118270D01*
X4887Y-117474D01*
X4278Y-116865D01*
X3482Y-116535D01*
D02*
G37*
G36*
X87500Y-115256D02*
X80807D01*
Y-121949D01*
X87500D01*
Y-115256D01*
D02*
G37*
G36*
X-39033Y-117421D02*
X-39707D01*
X-40358Y-117596D01*
X-40941Y-117933D01*
X-41418Y-118409D01*
X-41755Y-118993D01*
X-41929Y-119643D01*
Y-120317D01*
X-41755Y-120968D01*
X-41418Y-121552D01*
X-40941Y-122028D01*
X-40358Y-122365D01*
X-39707Y-122539D01*
X-39033D01*
X-38382Y-122365D01*
X-37799Y-122028D01*
X-37322Y-121552D01*
X-36985Y-120968D01*
X-36811Y-120317D01*
Y-119643D01*
X-36985Y-118993D01*
X-37322Y-118409D01*
X-37799Y-117933D01*
X-38382Y-117596D01*
X-39033Y-117421D01*
D02*
G37*
G36*
X-62065Y-120276D02*
X-62739D01*
X-63389Y-120450D01*
X-63973Y-120787D01*
X-64449Y-121263D01*
X-64786Y-121847D01*
X-64961Y-122498D01*
Y-123172D01*
X-64786Y-123822D01*
X-64449Y-124406D01*
X-63973Y-124882D01*
X-63389Y-125219D01*
X-62739Y-125394D01*
X-62065D01*
X-61414Y-125219D01*
X-60830Y-124882D01*
X-60354Y-124406D01*
X-60017Y-123822D01*
X-59842Y-123172D01*
Y-122498D01*
X-60017Y-121847D01*
X-60354Y-121263D01*
X-60830Y-120787D01*
X-61414Y-120450D01*
X-62065Y-120276D01*
D02*
G37*
G36*
X-47399Y-125591D02*
X-48073D01*
X-48724Y-125765D01*
X-49308Y-126102D01*
X-49784Y-126578D01*
X-50021Y-126988D01*
X-50042Y-126997D01*
X-50548D01*
X-50570Y-126988D01*
X-50807Y-126578D01*
X-51283Y-126102D01*
X-51867Y-125765D01*
X-52517Y-125591D01*
X-53191D01*
X-53842Y-125765D01*
X-54426Y-126102D01*
X-54902Y-126578D01*
X-55139Y-126988D01*
X-55160Y-126997D01*
X-55666D01*
X-55688Y-126988D01*
X-55925Y-126578D01*
X-56401Y-126102D01*
X-56985Y-125765D01*
X-57635Y-125591D01*
X-58309D01*
X-58960Y-125765D01*
X-59544Y-126102D01*
X-60020Y-126578D01*
X-60357Y-127162D01*
X-60532Y-127813D01*
Y-128487D01*
X-60357Y-129137D01*
X-60020Y-129721D01*
X-59544Y-130197D01*
X-58960Y-130534D01*
X-58309Y-130709D01*
X-58150D01*
X-57992Y-130884D01*
X-57827Y-131209D01*
X-57972Y-131750D01*
Y-132423D01*
X-57798Y-133074D01*
X-57461Y-133658D01*
X-56985Y-134134D01*
X-56401Y-134471D01*
X-55750Y-134646D01*
X-55076D01*
X-54426Y-134471D01*
X-53842Y-134134D01*
X-53366Y-133658D01*
X-53129Y-133248D01*
X-53107Y-133240D01*
X-52601D01*
X-52580Y-133248D01*
X-52343Y-133658D01*
X-51867Y-134134D01*
X-51283Y-134471D01*
X-50632Y-134646D01*
X-49958D01*
X-49308Y-134471D01*
X-48724Y-134134D01*
X-48248Y-133658D01*
X-47911Y-133074D01*
X-47736Y-132423D01*
Y-131750D01*
X-47881Y-131209D01*
X-47717Y-130884D01*
X-47559Y-130709D01*
X-47399D01*
X-46749Y-130534D01*
X-46165Y-130197D01*
X-45689Y-129721D01*
X-45352Y-129137D01*
X-45177Y-128487D01*
Y-127813D01*
X-45352Y-127162D01*
X-45689Y-126578D01*
X-46165Y-126102D01*
X-46749Y-125765D01*
X-47399Y-125591D01*
D02*
G37*
G36*
X27005Y-123819D02*
X26144D01*
X25348Y-124149D01*
X24739Y-124758D01*
X24409Y-125554D01*
Y-126415D01*
X24739Y-127211D01*
X25348Y-127820D01*
X26144Y-128150D01*
X27005D01*
X27801Y-127820D01*
X28411Y-127211D01*
X28740Y-126415D01*
Y-125554D01*
X28411Y-124758D01*
X27801Y-124149D01*
X27005Y-123819D01*
D02*
G37*
G36*
X53069Y-125984D02*
X46376D01*
Y-132677D01*
X53069D01*
Y-125984D01*
D02*
G37*
G36*
X41732D02*
X35039D01*
Y-132677D01*
X41732D01*
Y-125984D01*
D02*
G37*
G36*
X-7443Y-129232D02*
X-8305D01*
X-9101Y-129562D01*
X-9710Y-130171D01*
X-10039Y-130967D01*
Y-131828D01*
X-9710Y-132624D01*
X-9101Y-133233D01*
X-8305Y-133563D01*
X-7443D01*
X-6647Y-133233D01*
X-6038Y-132624D01*
X-5709Y-131828D01*
Y-130967D01*
X-6038Y-130171D01*
X-6647Y-129562D01*
X-7443Y-129232D01*
D02*
G37*
G36*
X-38780Y-124262D02*
X-39653Y-124378D01*
X-40467Y-124715D01*
X-41166Y-125251D01*
X-41703Y-125950D01*
X-42040Y-126764D01*
X-42155Y-127638D01*
Y-130394D01*
X-42040Y-131267D01*
X-41703Y-132081D01*
X-41166Y-132780D01*
X-40467Y-133317D01*
X-39653Y-133654D01*
X-38780Y-133769D01*
X-37906Y-133654D01*
X-37092Y-133317D01*
X-36393Y-132780D01*
X-35856Y-132081D01*
X-35519Y-131267D01*
X-35404Y-130394D01*
Y-127638D01*
X-35519Y-126764D01*
X-35856Y-125950D01*
X-36393Y-125251D01*
X-37092Y-124715D01*
X-37906Y-124378D01*
X-38780Y-124262D01*
D02*
G37*
G36*
X-66929D02*
X-67803Y-124378D01*
X-68617Y-124715D01*
X-69316Y-125251D01*
X-69852Y-125950D01*
X-70189Y-126764D01*
X-70304Y-127638D01*
Y-130394D01*
X-70189Y-131267D01*
X-69852Y-132081D01*
X-69316Y-132780D01*
X-68617Y-133317D01*
X-67803Y-133654D01*
X-66929Y-133769D01*
X-66056Y-133654D01*
X-65241Y-133317D01*
X-64542Y-132780D01*
X-64006Y-132081D01*
X-63669Y-131267D01*
X-63554Y-130394D01*
Y-127638D01*
X-63669Y-126764D01*
X-64006Y-125950D01*
X-64542Y-125251D01*
X-65241Y-124715D01*
X-66056Y-124378D01*
X-66929Y-124262D01*
D02*
G37*
G36*
X-2227Y-129724D02*
X-3088D01*
X-3884Y-130054D01*
X-4493Y-130663D01*
X-4823Y-131459D01*
Y-132320D01*
X-4493Y-133116D01*
X-3884Y-133726D01*
X-3088Y-134055D01*
X-2227D01*
X-1431Y-133726D01*
X-822Y-133116D01*
X-492Y-132320D01*
Y-131459D01*
X-822Y-130663D01*
X-1431Y-130054D01*
X-2227Y-129724D01*
D02*
G37*
G36*
X-21420Y-131004D02*
X-22281D01*
X-23077Y-131334D01*
X-23686Y-131943D01*
X-24016Y-132739D01*
Y-133600D01*
X-23686Y-134396D01*
X-23077Y-135005D01*
X-22281Y-135335D01*
X-21420D01*
X-20624Y-135005D01*
X-20015Y-134396D01*
X-19685Y-133600D01*
Y-132739D01*
X-20015Y-131943D01*
X-20624Y-131334D01*
X-21420Y-131004D01*
D02*
G37*
G36*
X13718Y-140059D02*
X12857D01*
X12061Y-140389D01*
X11452Y-140998D01*
X11122Y-141794D01*
Y-142655D01*
X11452Y-143451D01*
X12061Y-144060D01*
X12857Y-144390D01*
X13718D01*
X14514Y-144060D01*
X15123Y-143451D01*
X15453Y-142655D01*
Y-141794D01*
X15123Y-140998D01*
X14514Y-140389D01*
X13718Y-140059D01*
D02*
G37*
G36*
X-28605D02*
X-29466D01*
X-30262Y-140389D01*
X-30871Y-140998D01*
X-31201Y-141794D01*
Y-142655D01*
X-30871Y-143451D01*
X-30262Y-144060D01*
X-29466Y-144390D01*
X-28605D01*
X-27809Y-144060D01*
X-27200Y-143451D01*
X-26870Y-142655D01*
Y-141794D01*
X-27200Y-140998D01*
X-27809Y-140389D01*
X-28605Y-140059D01*
D02*
G37*
G36*
X-3506D02*
X-4368D01*
X-5164Y-140389D01*
X-5773Y-140998D01*
X-6102Y-141794D01*
Y-142655D01*
X-5773Y-143451D01*
X-5164Y-144060D01*
X-4496Y-144336D01*
X-4439Y-144811D01*
X-4447Y-144857D01*
X-5065Y-145113D01*
X-5674Y-145722D01*
X-6004Y-146518D01*
Y-147380D01*
X-5674Y-148175D01*
X-5065Y-148784D01*
X-4269Y-149114D01*
X-3408D01*
X-2612Y-148784D01*
X-2003Y-148175D01*
X-1673Y-147380D01*
Y-146518D01*
X-2003Y-145722D01*
X-2612Y-145113D01*
X-3279Y-144837D01*
X-3337Y-144362D01*
X-3329Y-144316D01*
X-2710Y-144060D01*
X-2101Y-143451D01*
X-1772Y-142655D01*
Y-141794D01*
X-2101Y-140998D01*
X-2710Y-140389D01*
X-3506Y-140059D01*
D02*
G37*
G36*
X1616Y-155610D02*
X943D01*
X292Y-155785D01*
X-292Y-156122D01*
X-768Y-156598D01*
X-1105Y-157182D01*
X-1280Y-157832D01*
Y-158506D01*
X-1105Y-159157D01*
X-768Y-159741D01*
X-292Y-160217D01*
X292Y-160554D01*
X943Y-160728D01*
X1616D01*
X2267Y-160554D01*
X2851Y-160217D01*
X3327Y-159741D01*
X3664Y-159157D01*
X3839Y-158506D01*
Y-157832D01*
X3664Y-157182D01*
X3327Y-156598D01*
X2851Y-156122D01*
X2267Y-155785D01*
X1616Y-155610D01*
D02*
G37*
%LPD*%
G36*
X70866Y-26582D02*
X70366Y-26916D01*
X70017Y-26772D01*
X69156D01*
X68360Y-27101D01*
X67751Y-27710D01*
X67421Y-28506D01*
Y-29368D01*
X67751Y-30164D01*
X68360Y-30773D01*
X69156Y-31102D01*
X70017D01*
X70366Y-30958D01*
X70866Y-31292D01*
Y-66929D01*
X48047D01*
Y-52362D01*
X48167D01*
X48963Y-52033D01*
X49572Y-51423D01*
X49902Y-50628D01*
Y-49766D01*
X49572Y-48970D01*
X48963Y-48361D01*
X48167Y-48031D01*
X48047D01*
Y-25295D01*
X48167D01*
X48963Y-24966D01*
X49572Y-24356D01*
X49902Y-23561D01*
Y-22699D01*
X49572Y-21903D01*
X48963Y-21294D01*
X48167Y-20965D01*
X48047D01*
Y5709D01*
X48167D01*
X48963Y6038D01*
X49572Y6647D01*
X49902Y7443D01*
Y8305D01*
X49572Y9101D01*
X48963Y9710D01*
X48167Y10039D01*
X48047D01*
Y14567D01*
X48167D01*
X48963Y14897D01*
X49572Y15506D01*
X49902Y16302D01*
Y17163D01*
X49572Y17959D01*
X48963Y18568D01*
X48167Y18898D01*
X48047D01*
Y50000D01*
X48167D01*
X48963Y50330D01*
X49572Y50939D01*
X49902Y51735D01*
Y52596D01*
X49572Y53392D01*
X48963Y54001D01*
X48167Y54331D01*
X48047D01*
Y112205D01*
X70866D01*
Y-26582D01*
D02*
G37*
G36*
X47244Y54305D02*
X46510Y54001D01*
X45900Y53392D01*
X45571Y52596D01*
Y51735D01*
X45900Y50939D01*
X46510Y50330D01*
X47244Y50025D01*
Y18872D01*
X46510Y18568D01*
X45900Y17959D01*
X45571Y17163D01*
Y16302D01*
X45900Y15506D01*
X46510Y14897D01*
X47244Y14592D01*
Y10014D01*
X46510Y9710D01*
X45900Y9101D01*
X45571Y8305D01*
Y7443D01*
X45900Y6647D01*
X46510Y6038D01*
X47244Y5734D01*
Y-20990D01*
X46510Y-21294D01*
X45900Y-21903D01*
X45571Y-22699D01*
Y-23561D01*
X45900Y-24356D01*
X46510Y-24966D01*
X47244Y-25270D01*
Y-48057D01*
X46510Y-48361D01*
X45900Y-48970D01*
X45571Y-49766D01*
Y-50628D01*
X45900Y-51423D01*
X46510Y-52033D01*
X47244Y-52337D01*
Y-66929D01*
X44390D01*
Y-64665D01*
X37697D01*
Y-66929D01*
X35433D01*
Y-64272D01*
X35770D01*
X36421Y-64097D01*
X37004Y-63760D01*
X37481Y-63284D01*
X37818Y-62700D01*
X37992Y-62050D01*
Y-61376D01*
X37818Y-60725D01*
X37481Y-60141D01*
X37004Y-59665D01*
X36421Y-59328D01*
X35770Y-59153D01*
X35433D01*
Y112205D01*
X47244D01*
Y54305D01*
D02*
G37*
%LPC*%
G36*
X53158Y105688D02*
Y103453D01*
X55393D01*
X55240Y104023D01*
X54875Y104655D01*
X54359Y105171D01*
X53727Y105535D01*
X53158Y105688D01*
D02*
G37*
G36*
X52157D02*
X51588Y105535D01*
X50956Y105171D01*
X50440Y104655D01*
X50075Y104023D01*
X49922Y103453D01*
X52157D01*
Y105688D01*
D02*
G37*
G36*
X55393Y102453D02*
X53158D01*
Y100217D01*
X53727Y100370D01*
X54359Y100735D01*
X54875Y101251D01*
X55240Y101883D01*
X55393Y102453D01*
D02*
G37*
G36*
X52157D02*
X49922D01*
X50075Y101883D01*
X50440Y101251D01*
X50956Y100735D01*
X51588Y100370D01*
X52157Y100217D01*
Y102453D01*
D02*
G37*
G36*
X53187Y83661D02*
X52325D01*
X51529Y83332D01*
X50920Y82723D01*
X50591Y81927D01*
Y81065D01*
X50920Y80269D01*
X51529Y79660D01*
X52325Y79331D01*
X53187D01*
X53983Y79660D01*
X54592Y80269D01*
X54921Y81065D01*
Y81927D01*
X54592Y82723D01*
X53983Y83332D01*
X53187Y83661D01*
D02*
G37*
G36*
X66376Y79429D02*
X65514D01*
X64718Y79100D01*
X64109Y78490D01*
X63779Y77694D01*
Y76833D01*
X64109Y76037D01*
X64718Y75428D01*
X65514Y75098D01*
X66376D01*
X67172Y75428D01*
X67781Y76037D01*
X68110Y76833D01*
Y77694D01*
X67781Y78490D01*
X67172Y79100D01*
X66376Y79429D01*
D02*
G37*
G36*
X62439Y76378D02*
X61577D01*
X60781Y76048D01*
X60172Y75439D01*
X59842Y74643D01*
Y73782D01*
X60172Y72986D01*
X60781Y72377D01*
X61577Y72047D01*
X62439D01*
X63234Y72377D01*
X63844Y72986D01*
X64173Y73782D01*
Y74643D01*
X63844Y75439D01*
X63234Y76048D01*
X62439Y76378D01*
D02*
G37*
G36*
X62508Y71141D02*
Y68906D01*
X64743D01*
X64591Y69475D01*
X64226Y70107D01*
X63710Y70623D01*
X63078Y70988D01*
X62508Y71141D01*
D02*
G37*
G36*
X61508D02*
X60938Y70988D01*
X60306Y70623D01*
X59790Y70107D01*
X59425Y69475D01*
X59272Y68906D01*
X61508D01*
Y71141D01*
D02*
G37*
G36*
X64743Y67905D02*
X62508D01*
Y65670D01*
X63078Y65823D01*
X63710Y66188D01*
X64226Y66704D01*
X64591Y67336D01*
X64743Y67905D01*
D02*
G37*
G36*
X61508D02*
X59272D01*
X59425Y67336D01*
X59790Y66704D01*
X60306Y66188D01*
X60938Y65823D01*
X61508Y65670D01*
Y67905D01*
D02*
G37*
G36*
X54368Y38386D02*
X53506D01*
X52710Y38056D01*
X52101Y37447D01*
X51772Y36651D01*
Y35790D01*
X52101Y34994D01*
X52522Y34573D01*
X52680Y34308D01*
X52524Y33921D01*
X52156Y33553D01*
X51827Y32757D01*
Y31896D01*
X52156Y31100D01*
X52766Y30491D01*
X53561Y30161D01*
X54423D01*
X55219Y30491D01*
X55828Y31100D01*
X56157Y31896D01*
Y32757D01*
X55828Y33553D01*
X55407Y33974D01*
X55250Y34240D01*
X55405Y34626D01*
X55773Y34994D01*
X56102Y35790D01*
Y36651D01*
X55773Y37447D01*
X55164Y38056D01*
X54368Y38386D01*
D02*
G37*
G36*
X63098Y27342D02*
Y25106D01*
X65334D01*
X65181Y25676D01*
X64816Y26308D01*
X64300Y26824D01*
X63668Y27189D01*
X63098Y27342D01*
D02*
G37*
G36*
X62098D02*
X61529Y27189D01*
X60897Y26824D01*
X60381Y26308D01*
X60016Y25676D01*
X59863Y25106D01*
X62098D01*
Y27342D01*
D02*
G37*
G36*
X65334Y24106D02*
X63098D01*
Y21871D01*
X63668Y22024D01*
X64300Y22388D01*
X64816Y22905D01*
X65181Y23537D01*
X65334Y24106D01*
D02*
G37*
G36*
X62098D02*
X59863D01*
X60016Y23537D01*
X60381Y22905D01*
X60897Y22388D01*
X61529Y22024D01*
X62098Y21871D01*
Y24106D01*
D02*
G37*
G36*
X66376Y21358D02*
X65514D01*
X64718Y21029D01*
X64109Y20419D01*
X63779Y19624D01*
Y18762D01*
X64109Y17966D01*
X64718Y17357D01*
X65514Y17028D01*
X66376D01*
X67172Y17357D01*
X67781Y17966D01*
X68110Y18762D01*
Y19624D01*
X67781Y20419D01*
X67172Y21029D01*
X66376Y21358D01*
D02*
G37*
G36*
X53088Y-3543D02*
X52227D01*
X51431Y-3873D01*
X50822Y-4482D01*
X50492Y-5278D01*
Y-6139D01*
X50822Y-6935D01*
X51431Y-7544D01*
X52227Y-7874D01*
X53088D01*
X53884Y-7544D01*
X54493Y-6935D01*
X54823Y-6139D01*
Y-5278D01*
X54493Y-4482D01*
X53884Y-3873D01*
X53088Y-3543D01*
D02*
G37*
G36*
Y-13114D02*
X52227D01*
X51431Y-13444D01*
X50822Y-14053D01*
X50492Y-14849D01*
Y-15710D01*
X50822Y-16506D01*
X51431Y-17115D01*
X52227Y-17445D01*
X53088D01*
X53884Y-17115D01*
X54493Y-16506D01*
X54823Y-15710D01*
Y-14849D01*
X54493Y-14053D01*
X53884Y-13444D01*
X53088Y-13114D01*
D02*
G37*
G36*
X61454Y-19488D02*
X60593D01*
X59797Y-19818D01*
X59188Y-20427D01*
X58858Y-21223D01*
Y-22084D01*
X59188Y-22880D01*
X59797Y-23489D01*
X60593Y-23819D01*
X61454D01*
X61700Y-23717D01*
X62152Y-23979D01*
X62202Y-24222D01*
X61782Y-24598D01*
X61524Y-24528D01*
Y-26764D01*
X63759D01*
X63606Y-26194D01*
X63573Y-26136D01*
X63921Y-25739D01*
X64038Y-25787D01*
X64899D01*
X65695Y-25458D01*
X66304Y-24849D01*
X66634Y-24053D01*
Y-23191D01*
X66304Y-22396D01*
X65695Y-21786D01*
X64899Y-21457D01*
X64038D01*
X63689Y-21601D01*
X63189Y-21267D01*
Y-21223D01*
X62859Y-20427D01*
X62250Y-19818D01*
X61454Y-19488D01*
D02*
G37*
G36*
X60524Y-24528D02*
X59954Y-24681D01*
X59322Y-25046D01*
X58806Y-25562D01*
X58441Y-26194D01*
X58288Y-26764D01*
X60524D01*
Y-24528D01*
D02*
G37*
G36*
X63759Y-27764D02*
X61524D01*
Y-29999D01*
X62093Y-29847D01*
X62726Y-29482D01*
X63241Y-28966D01*
X63606Y-28334D01*
X63759Y-27764D01*
D02*
G37*
G36*
X60524D02*
X58288D01*
X58441Y-28334D01*
X58806Y-28966D01*
X59322Y-29482D01*
X59954Y-29847D01*
X60524Y-29999D01*
Y-27764D01*
D02*
G37*
G36*
X53088Y-39272D02*
X52227D01*
X51431Y-39601D01*
X50822Y-40210D01*
X50492Y-41006D01*
Y-41868D01*
X50822Y-42664D01*
X51431Y-43273D01*
X52227Y-43602D01*
X53088D01*
X53884Y-43273D01*
X54493Y-42664D01*
X54823Y-41868D01*
Y-41006D01*
X54493Y-40210D01*
X53884Y-39601D01*
X53088Y-39272D01*
D02*
G37*
G36*
X44898Y109957D02*
X41839D01*
Y106898D01*
X44898D01*
Y109957D01*
D02*
G37*
G36*
X40839D02*
X37780D01*
Y106898D01*
X40839D01*
Y109957D01*
D02*
G37*
G36*
X44898Y105898D02*
X41839D01*
Y102839D01*
X44898D01*
Y105898D01*
D02*
G37*
G36*
X40839D02*
X37780D01*
Y102839D01*
X40839D01*
Y105898D01*
D02*
G37*
G36*
X41770Y98134D02*
X41096D01*
X40445Y97959D01*
X39862Y97623D01*
X39385Y97146D01*
X39048Y96562D01*
X38874Y95912D01*
Y95238D01*
X39048Y94587D01*
X39385Y94003D01*
X39862Y93527D01*
X40309Y93269D01*
X40288Y92784D01*
X40272Y92741D01*
X40269Y92740D01*
X39637Y92375D01*
X39121Y91859D01*
X38756Y91227D01*
X38603Y90658D01*
X44074D01*
X43921Y91227D01*
X43556Y91859D01*
X43040Y92375D01*
X42492Y92692D01*
X42451Y92979D01*
X42497Y93234D01*
X43004Y93527D01*
X43481Y94003D01*
X43818Y94587D01*
X43992Y95238D01*
Y95912D01*
X43818Y96562D01*
X43481Y97146D01*
X43004Y97623D01*
X42421Y97959D01*
X41770Y98134D01*
D02*
G37*
G36*
X44074Y89657D02*
X41839D01*
Y87422D01*
X42408Y87575D01*
X43040Y87940D01*
X43556Y88456D01*
X43921Y89088D01*
X44074Y89657D01*
D02*
G37*
G36*
X40839D02*
X38603D01*
X38756Y89088D01*
X39121Y88456D01*
X39637Y87940D01*
X40269Y87575D01*
X40839Y87422D01*
Y89657D01*
D02*
G37*
G36*
X41479Y80413D02*
X40805D01*
X40154Y80239D01*
X39570Y79902D01*
X39094Y79426D01*
X38757Y78842D01*
X38583Y78191D01*
Y77517D01*
X38757Y76867D01*
X39094Y76283D01*
X39570Y75807D01*
X40154Y75470D01*
X40805Y75295D01*
X41479D01*
X42129Y75470D01*
X42713Y75807D01*
X43189Y76283D01*
X43526Y76867D01*
X43701Y77517D01*
Y78191D01*
X43526Y78842D01*
X43189Y79426D01*
X42713Y79902D01*
X42129Y80239D01*
X41479Y80413D01*
D02*
G37*
G36*
X43110Y69685D02*
X36417D01*
Y62992D01*
X43110D01*
Y69685D01*
D02*
G37*
G36*
X43110Y56574D02*
X36417D01*
Y49881D01*
X40830D01*
X40896Y49381D01*
X40351Y49235D01*
X39767Y48898D01*
X39291Y48422D01*
X38954Y47838D01*
X38780Y47187D01*
Y46514D01*
X38954Y45863D01*
X39291Y45279D01*
X39767Y44803D01*
X40351Y44466D01*
X40360Y44463D01*
X40360Y43946D01*
X40269Y43921D01*
X39637Y43556D01*
X39121Y43040D01*
X38756Y42408D01*
X38603Y41839D01*
X44074D01*
X43921Y42408D01*
X43556Y43040D01*
X43040Y43556D01*
X42408Y43921D01*
X42318Y43946D01*
X42318Y44463D01*
X42326Y44466D01*
X42910Y44803D01*
X43386Y45279D01*
X43723Y45863D01*
X43898Y46514D01*
Y47187D01*
X43723Y47838D01*
X43386Y48422D01*
X42910Y48898D01*
X42326Y49235D01*
X41781Y49381D01*
X41847Y49881D01*
X43110D01*
Y56574D01*
D02*
G37*
G36*
X44074Y40839D02*
X41839D01*
Y38603D01*
X42408Y38756D01*
X43040Y39121D01*
X43556Y39637D01*
X43921Y40269D01*
X44074Y40839D01*
D02*
G37*
G36*
X40839D02*
X38603D01*
X38756Y40269D01*
X39121Y39637D01*
X39637Y39121D01*
X40269Y38756D01*
X40839Y38603D01*
Y40839D01*
D02*
G37*
G36*
X43110Y26771D02*
X36417D01*
Y20078D01*
X43110D01*
Y26771D01*
D02*
G37*
G36*
Y15648D02*
X36417D01*
Y8955D01*
X43110D01*
Y15648D01*
D02*
G37*
G36*
X40986Y2165D02*
X40313D01*
X39662Y1991D01*
X39078Y1654D01*
X38602Y1178D01*
X38265Y594D01*
X38091Y-57D01*
Y-731D01*
X38265Y-1381D01*
X38602Y-1965D01*
X39078Y-2441D01*
X39251Y-2541D01*
Y-3119D01*
X38948Y-3294D01*
X38432Y-3810D01*
X38067Y-4442D01*
X37914Y-5012D01*
X43385D01*
X43232Y-4442D01*
X42867Y-3810D01*
X42351Y-3294D01*
X42048Y-3119D01*
Y-2541D01*
X42221Y-2441D01*
X42697Y-1965D01*
X43034Y-1381D01*
X43209Y-731D01*
Y-57D01*
X43034Y594D01*
X42697Y1178D01*
X42221Y1654D01*
X41637Y1991D01*
X40986Y2165D01*
D02*
G37*
G36*
X43385Y-6012D02*
X41150D01*
Y-8247D01*
X41719Y-8095D01*
X42351Y-7730D01*
X42867Y-7214D01*
X43232Y-6582D01*
X43385Y-6012D01*
D02*
G37*
G36*
X40150D02*
X37914D01*
X38067Y-6582D01*
X38432Y-7214D01*
X38948Y-7730D01*
X39580Y-8095D01*
X40150Y-8247D01*
Y-6012D01*
D02*
G37*
G36*
X43110Y-15256D02*
X36417D01*
Y-21949D01*
X43110D01*
Y-15256D01*
D02*
G37*
G36*
X46604Y-32777D02*
X39911D01*
Y-39470D01*
X46604D01*
Y-32777D01*
D02*
G37*
G36*
X41675Y-52953D02*
X41002D01*
X40351Y-53127D01*
X39767Y-53464D01*
X39291Y-53940D01*
X38954Y-54524D01*
X38780Y-55175D01*
Y-55849D01*
X38954Y-56500D01*
X39291Y-57083D01*
X39767Y-57560D01*
X40351Y-57897D01*
X40360Y-57899D01*
X40360Y-58416D01*
X40269Y-58441D01*
X39637Y-58806D01*
X39121Y-59322D01*
X38756Y-59954D01*
X38603Y-60524D01*
X44074D01*
X43921Y-59954D01*
X43556Y-59322D01*
X43040Y-58806D01*
X42408Y-58441D01*
X42318Y-58416D01*
X42318Y-57899D01*
X42326Y-57897D01*
X42910Y-57560D01*
X43386Y-57083D01*
X43723Y-56500D01*
X43898Y-55849D01*
Y-55175D01*
X43723Y-54524D01*
X43386Y-53940D01*
X42910Y-53464D01*
X42326Y-53127D01*
X41675Y-52953D01*
D02*
G37*
G36*
X44074Y-61524D02*
X41839D01*
Y-63759D01*
X42408Y-63606D01*
X43040Y-63241D01*
X43556Y-62726D01*
X43921Y-62093D01*
X44074Y-61524D01*
D02*
G37*
G36*
X40839D02*
X38603D01*
X38756Y-62093D01*
X39121Y-62726D01*
X39637Y-63241D01*
X40269Y-63606D01*
X40839Y-63759D01*
Y-61524D01*
D02*
G37*
%LPD*%
G36*
X-43307Y-29405D02*
X-43723Y-29683D01*
X-43861Y-29626D01*
X-44722D01*
X-45518Y-29956D01*
X-46127Y-30565D01*
X-46457Y-31361D01*
Y-32222D01*
X-46127Y-33018D01*
X-45518Y-33627D01*
X-44722Y-33957D01*
X-43861D01*
X-43723Y-33900D01*
X-43307Y-34177D01*
Y-37476D01*
X-43723Y-37754D01*
X-43861Y-37697D01*
X-44722D01*
X-45518Y-38026D01*
X-46127Y-38636D01*
X-46457Y-39432D01*
Y-40293D01*
X-46127Y-41089D01*
X-45518Y-41698D01*
X-44722Y-42028D01*
X-43861D01*
X-43723Y-41971D01*
X-43307Y-42248D01*
Y-66929D01*
X-66929D01*
Y66873D01*
X-66796Y67006D01*
X-66466Y67802D01*
Y68664D01*
X-66796Y69459D01*
X-66929Y69592D01*
Y72233D01*
X-66570Y72592D01*
X-66240Y73388D01*
Y74250D01*
X-66570Y75046D01*
X-66929Y75405D01*
Y112205D01*
X-43307D01*
Y-29405D01*
D02*
G37*
G36*
X-31496Y-66929D02*
X-34941D01*
Y-66634D01*
X-41634D01*
Y-66929D01*
X-42504D01*
Y-42248D01*
X-42520Y-42171D01*
Y-42092D01*
X-42550Y-42019D01*
X-42565Y-41941D01*
X-42609Y-41875D01*
X-42640Y-41802D01*
X-42696Y-41746D01*
X-42739Y-41681D01*
X-42578Y-41211D01*
X-42456Y-41089D01*
X-42126Y-40293D01*
Y-39432D01*
X-42456Y-38636D01*
X-42578Y-38513D01*
X-42739Y-38044D01*
X-42696Y-37978D01*
X-42640Y-37922D01*
X-42609Y-37849D01*
X-42565Y-37783D01*
X-42550Y-37706D01*
X-42520Y-37633D01*
Y-37554D01*
X-42504Y-37476D01*
Y-34177D01*
X-42520Y-34100D01*
Y-34021D01*
X-42550Y-33948D01*
X-42565Y-33870D01*
X-42609Y-33804D01*
X-42640Y-33731D01*
X-42696Y-33676D01*
X-42739Y-33610D01*
X-42578Y-33140D01*
X-42456Y-33018D01*
X-42126Y-32222D01*
Y-31361D01*
X-42456Y-30565D01*
X-42578Y-30443D01*
X-42739Y-29973D01*
X-42696Y-29907D01*
X-42640Y-29851D01*
X-42609Y-29778D01*
X-42565Y-29713D01*
X-42550Y-29635D01*
X-42520Y-29562D01*
Y-29483D01*
X-42504Y-29405D01*
Y8661D01*
X-42126Y8955D01*
X-42004Y8955D01*
X-35433D01*
Y15648D01*
X-42004D01*
X-42126Y15648D01*
X-42504Y15942D01*
Y24214D01*
X-42126Y24508D01*
X-42004Y24508D01*
X-35433D01*
Y31201D01*
X-42004D01*
X-42126Y31201D01*
X-42504Y31495D01*
Y112205D01*
X-31496D01*
Y-66929D01*
D02*
G37*
%LPC*%
G36*
X-48516Y94665D02*
Y92429D01*
X-46280D01*
X-46433Y92999D01*
X-46798Y93631D01*
X-47314Y94147D01*
X-47946Y94512D01*
X-48516Y94665D01*
D02*
G37*
G36*
X-49516D02*
X-50086Y94512D01*
X-50718Y94147D01*
X-51234Y93631D01*
X-51599Y92999D01*
X-51751Y92429D01*
X-49516D01*
Y94665D01*
D02*
G37*
G36*
X-46280Y91429D02*
X-48516D01*
Y89194D01*
X-47946Y89346D01*
X-47314Y89711D01*
X-46798Y90227D01*
X-46433Y90859D01*
X-46280Y91429D01*
D02*
G37*
G36*
X-49516D02*
X-51751D01*
X-51599Y90859D01*
X-51234Y90227D01*
X-50718Y89711D01*
X-50086Y89346D01*
X-49516Y89194D01*
Y91429D01*
D02*
G37*
G36*
X-58624Y79134D02*
X-59486D01*
X-60282Y78804D01*
X-60891Y78195D01*
X-61221Y77399D01*
Y76538D01*
X-60891Y75742D01*
X-60282Y75133D01*
X-59486Y74803D01*
X-58624D01*
X-57828Y75133D01*
X-57219Y75742D01*
X-56890Y76538D01*
Y77399D01*
X-57219Y78195D01*
X-57828Y78804D01*
X-58624Y79134D01*
D02*
G37*
G36*
X-54294Y75787D02*
X-55155D01*
X-55951Y75458D01*
X-56560Y74849D01*
X-56890Y74053D01*
Y73191D01*
X-56560Y72395D01*
X-56216Y72051D01*
X-56475Y71603D01*
X-56587Y71633D01*
Y69398D01*
X-54351D01*
X-54504Y69968D01*
X-54869Y70600D01*
X-55264Y70995D01*
X-55251Y71051D01*
X-55019Y71457D01*
X-54294D01*
X-53498Y71786D01*
X-52889Y72395D01*
X-52559Y73191D01*
Y74053D01*
X-52889Y74849D01*
X-53498Y75458D01*
X-54294Y75787D01*
D02*
G37*
G36*
X-57587Y71633D02*
X-58156Y71480D01*
X-58789Y71115D01*
X-59304Y70600D01*
X-59669Y69968D01*
X-59822Y69398D01*
X-57587D01*
Y71633D01*
D02*
G37*
G36*
X-54351Y68398D02*
X-56587D01*
Y66162D01*
X-56017Y66315D01*
X-55385Y66680D01*
X-54869Y67196D01*
X-54504Y67828D01*
X-54351Y68398D01*
D02*
G37*
G36*
X-57587D02*
X-59822D01*
X-59669Y67828D01*
X-59304Y67196D01*
X-58789Y66680D01*
X-58156Y66315D01*
X-57587Y66162D01*
Y68398D01*
D02*
G37*
G36*
X-54195Y30217D02*
X-55057D01*
X-55853Y29887D01*
X-56462Y29278D01*
X-56791Y28482D01*
Y27621D01*
X-56462Y26825D01*
X-55853Y26215D01*
X-55057Y25886D01*
X-54195D01*
X-53399Y26215D01*
X-52790Y26825D01*
X-52461Y27621D01*
Y28482D01*
X-52790Y29278D01*
X-53399Y29887D01*
X-54195Y30217D01*
D02*
G37*
G36*
X-59806Y30118D02*
X-60667D01*
X-61463Y29789D01*
X-62072Y29179D01*
X-62402Y28383D01*
Y27522D01*
X-62072Y26726D01*
X-61463Y26117D01*
X-60667Y25787D01*
X-59806D01*
X-59010Y26117D01*
X-58400Y26726D01*
X-58071Y27522D01*
Y28383D01*
X-58400Y29179D01*
X-59010Y29789D01*
X-59806Y30118D01*
D02*
G37*
G36*
X-54224Y23405D02*
Y21169D01*
X-51989D01*
X-52142Y21739D01*
X-52507Y22371D01*
X-53023Y22887D01*
X-53655Y23252D01*
X-54224Y23405D01*
D02*
G37*
G36*
X-55224D02*
X-55794Y23252D01*
X-56426Y22887D01*
X-56942Y22371D01*
X-57307Y21739D01*
X-57460Y21169D01*
X-55224D01*
Y23405D01*
D02*
G37*
G36*
X-51989Y20169D02*
X-54224D01*
Y17934D01*
X-53655Y18087D01*
X-53023Y18451D01*
X-52507Y18967D01*
X-52142Y19600D01*
X-51989Y20169D01*
D02*
G37*
G36*
X-55224D02*
X-57460D01*
X-57307Y19600D01*
X-56942Y18967D01*
X-56426Y18451D01*
X-55794Y18087D01*
X-55224Y17934D01*
Y20169D01*
D02*
G37*
G36*
X-47798Y17913D02*
X-48659D01*
X-49455Y17584D01*
X-50064Y16975D01*
X-50394Y16179D01*
Y15317D01*
X-50064Y14522D01*
X-49455Y13912D01*
X-48659Y13583D01*
X-47798D01*
X-47002Y13912D01*
X-46393Y14522D01*
X-46063Y15317D01*
Y16179D01*
X-46393Y16975D01*
X-47002Y17584D01*
X-47798Y17913D01*
D02*
G37*
G36*
Y-3740D02*
X-48659D01*
X-49455Y-4070D01*
X-50064Y-4679D01*
X-50394Y-5475D01*
Y-6336D01*
X-50064Y-7132D01*
X-49455Y-7741D01*
X-48659Y-8071D01*
X-47798D01*
X-47002Y-7741D01*
X-46393Y-7132D01*
X-46063Y-6336D01*
Y-5475D01*
X-46393Y-4679D01*
X-47002Y-4070D01*
X-47798Y-3740D01*
D02*
G37*
G36*
X-60593Y-18504D02*
X-61454D01*
X-62250Y-18834D01*
X-62859Y-19443D01*
X-63189Y-20239D01*
Y-21100D01*
X-62859Y-21896D01*
X-62250Y-22505D01*
X-61454Y-22835D01*
X-60593D01*
X-59797Y-22505D01*
X-59188Y-21896D01*
X-58858Y-21100D01*
Y-20239D01*
X-59188Y-19443D01*
X-59797Y-18834D01*
X-60593Y-18504D01*
D02*
G37*
G36*
X-54126Y-25808D02*
Y-28043D01*
X-51890D01*
X-52043Y-27474D01*
X-52408Y-26842D01*
X-52924Y-26325D01*
X-53556Y-25960D01*
X-54126Y-25808D01*
D02*
G37*
G36*
X-55126D02*
X-55696Y-25960D01*
X-56328Y-26325D01*
X-56844Y-26842D01*
X-57209Y-27474D01*
X-57361Y-28043D01*
X-55126D01*
Y-25808D01*
D02*
G37*
G36*
X-59510Y-24311D02*
X-60372D01*
X-61168Y-24641D01*
X-61777Y-25250D01*
X-62106Y-26046D01*
Y-26907D01*
X-61777Y-27703D01*
X-61168Y-28312D01*
X-60372Y-28642D01*
X-59510D01*
X-58714Y-28312D01*
X-58105Y-27703D01*
X-57776Y-26907D01*
Y-26046D01*
X-58105Y-25250D01*
X-58714Y-24641D01*
X-59510Y-24311D01*
D02*
G37*
G36*
X-51890Y-29043D02*
X-54126D01*
Y-31279D01*
X-53556Y-31126D01*
X-52924Y-30761D01*
X-52408Y-30245D01*
X-52043Y-29613D01*
X-51890Y-29043D01*
D02*
G37*
G36*
X-55126D02*
X-57361D01*
X-57209Y-29613D01*
X-56844Y-30245D01*
X-56328Y-30761D01*
X-55696Y-31126D01*
X-55126Y-31279D01*
Y-29043D01*
D02*
G37*
G36*
X-49077Y-29528D02*
X-49939D01*
X-50734Y-29857D01*
X-51344Y-30466D01*
X-51673Y-31262D01*
Y-32124D01*
X-51344Y-32919D01*
X-50734Y-33529D01*
X-49939Y-33858D01*
X-49077D01*
X-48281Y-33529D01*
X-47672Y-32919D01*
X-47343Y-32124D01*
Y-31262D01*
X-47672Y-30466D01*
X-48281Y-29857D01*
X-49077Y-29528D01*
D02*
G37*
G36*
Y-37500D02*
X-49939D01*
X-50734Y-37830D01*
X-51344Y-38439D01*
X-51673Y-39235D01*
Y-40096D01*
X-51344Y-40892D01*
X-50734Y-41501D01*
X-49939Y-41831D01*
X-49077D01*
X-48281Y-41501D01*
X-47672Y-40892D01*
X-47343Y-40096D01*
Y-39235D01*
X-47672Y-38439D01*
X-48281Y-37830D01*
X-49077Y-37500D01*
D02*
G37*
G36*
X-37557Y98524D02*
X-38231D01*
X-38881Y98349D01*
X-39465Y98012D01*
X-39941Y97536D01*
X-40278Y96952D01*
X-40453Y96302D01*
Y95628D01*
X-40278Y94977D01*
X-39941Y94393D01*
X-39465Y93917D01*
X-38881Y93580D01*
X-38231Y93405D01*
X-37557D01*
X-36906Y93580D01*
X-36322Y93917D01*
X-35846Y94393D01*
X-35509Y94977D01*
X-35335Y95628D01*
Y96302D01*
X-35509Y96952D01*
X-35846Y97536D01*
X-36322Y98012D01*
X-36906Y98349D01*
X-37557Y98524D01*
D02*
G37*
G36*
X-37295Y92499D02*
Y90264D01*
X-35060D01*
X-35212Y90834D01*
X-35577Y91466D01*
X-36093Y91982D01*
X-36726Y92347D01*
X-37295Y92499D01*
D02*
G37*
G36*
X-38295D02*
X-38865Y92347D01*
X-39497Y91982D01*
X-40013Y91466D01*
X-40378Y90834D01*
X-40531Y90264D01*
X-38295D01*
Y92499D01*
D02*
G37*
G36*
X-35060Y89264D02*
X-37295D01*
Y87028D01*
X-36726Y87181D01*
X-36093Y87546D01*
X-35577Y88062D01*
X-35212Y88694D01*
X-35060Y89264D01*
D02*
G37*
G36*
X-38295D02*
X-40531D01*
X-40378Y88694D01*
X-40013Y88062D01*
X-39497Y87546D01*
X-38865Y87181D01*
X-38295Y87028D01*
Y89264D01*
D02*
G37*
G36*
X-34744Y84449D02*
X-41437D01*
Y77756D01*
X-34744D01*
Y84449D01*
D02*
G37*
G36*
X-34744Y64855D02*
X-41437D01*
Y58163D01*
X-34744D01*
Y64855D01*
D02*
G37*
G36*
X-37557Y47933D02*
X-38231D01*
X-38881Y47759D01*
X-39465Y47422D01*
X-39941Y46945D01*
X-40278Y46362D01*
X-40453Y45711D01*
Y45037D01*
X-40278Y44386D01*
X-39941Y43803D01*
X-39465Y43326D01*
X-39103Y43117D01*
X-39072Y43011D01*
X-39115Y42554D01*
X-39595Y42277D01*
X-40112Y41761D01*
X-40477Y41129D01*
X-40629Y40559D01*
X-35158D01*
X-35311Y41129D01*
X-35676Y41761D01*
X-36192Y42277D01*
X-36672Y42554D01*
X-36716Y43011D01*
X-36685Y43117D01*
X-36322Y43326D01*
X-35846Y43803D01*
X-35509Y44386D01*
X-35335Y45037D01*
Y45711D01*
X-35509Y46362D01*
X-35846Y46945D01*
X-36322Y47422D01*
X-36906Y47759D01*
X-37557Y47933D01*
D02*
G37*
G36*
X-35158Y39559D02*
X-37394D01*
Y37324D01*
X-36824Y37476D01*
X-36192Y37841D01*
X-35676Y38357D01*
X-35311Y38989D01*
X-35158Y39559D01*
D02*
G37*
G36*
X-38394D02*
X-40629D01*
X-40477Y38989D01*
X-40112Y38357D01*
X-39595Y37841D01*
X-38963Y37476D01*
X-38394Y37324D01*
Y39559D01*
D02*
G37*
G36*
X-37557Y2756D02*
X-38231D01*
X-38881Y2582D01*
X-39465Y2245D01*
X-39941Y1768D01*
X-40278Y1185D01*
X-40453Y534D01*
Y-140D01*
X-40278Y-791D01*
X-39941Y-1374D01*
X-39465Y-1851D01*
X-38881Y-2188D01*
X-38231Y-2362D01*
X-37557D01*
X-36906Y-2188D01*
X-36322Y-1851D01*
X-35846Y-1374D01*
X-35509Y-791D01*
X-35335Y-140D01*
Y534D01*
X-35509Y1185D01*
X-35846Y1768D01*
X-36322Y2245D01*
X-36906Y2582D01*
X-37557Y2756D01*
D02*
G37*
G36*
X-37295Y-3170D02*
Y-5406D01*
X-35060D01*
X-35212Y-4836D01*
X-35577Y-4204D01*
X-36093Y-3688D01*
X-36726Y-3323D01*
X-37295Y-3170D01*
D02*
G37*
G36*
X-38295D02*
X-38865Y-3323D01*
X-39497Y-3688D01*
X-40013Y-4204D01*
X-40378Y-4836D01*
X-40531Y-5406D01*
X-38295D01*
Y-3170D01*
D02*
G37*
G36*
X-35060Y-6406D02*
X-37295D01*
Y-8641D01*
X-36726Y-8488D01*
X-36093Y-8123D01*
X-35577Y-7607D01*
X-35212Y-6975D01*
X-35060Y-6406D01*
D02*
G37*
G36*
X-38295D02*
X-40531D01*
X-40378Y-6975D01*
X-40013Y-7607D01*
X-39497Y-8123D01*
X-38865Y-8488D01*
X-38295Y-8641D01*
Y-6406D01*
D02*
G37*
G36*
X-34941Y-9276D02*
X-41634D01*
Y-15969D01*
X-34941D01*
Y-9276D01*
D02*
G37*
G36*
X-34744Y-32777D02*
X-41437D01*
Y-39470D01*
X-34744D01*
Y-32777D01*
D02*
G37*
G36*
X-37262Y-51772D02*
X-37935D01*
X-38586Y-51946D01*
X-39170Y-52283D01*
X-39646Y-52759D01*
X-39983Y-53343D01*
X-40157Y-53994D01*
Y-54668D01*
X-39983Y-55318D01*
X-39646Y-55902D01*
X-39170Y-56379D01*
X-38808Y-56587D01*
X-38776Y-56694D01*
X-38820Y-57151D01*
X-39300Y-57428D01*
X-39816Y-57944D01*
X-40181Y-58576D01*
X-40334Y-59146D01*
X-34863D01*
X-35016Y-58576D01*
X-35381Y-57944D01*
X-35897Y-57428D01*
X-36377Y-57151D01*
X-36421Y-56694D01*
X-36389Y-56587D01*
X-36027Y-56379D01*
X-35551Y-55902D01*
X-35214Y-55318D01*
X-35039Y-54668D01*
Y-53994D01*
X-35214Y-53343D01*
X-35551Y-52759D01*
X-36027Y-52283D01*
X-36611Y-51946D01*
X-37262Y-51772D01*
D02*
G37*
G36*
X-34863Y-60146D02*
X-37098D01*
Y-62381D01*
X-36529Y-62228D01*
X-35897Y-61863D01*
X-35381Y-61348D01*
X-35016Y-60716D01*
X-34863Y-60146D01*
D02*
G37*
G36*
X-38098D02*
X-40334D01*
X-40181Y-60716D01*
X-39816Y-61348D01*
X-39300Y-61863D01*
X-38668Y-62228D01*
X-38098Y-62381D01*
Y-60146D01*
D02*
G37*
%LPD*%
D13*
X163878Y0D02*
G03*
X163878Y0I-163878J0D01*
G01*
D68*
X-145457Y20959D02*
X-144457Y21959D01*
X-142458D01*
X-141458Y20959D01*
Y19959D01*
X-142458Y18960D01*
X-143457D01*
X-142458D01*
X-141458Y17960D01*
Y16960D01*
X-142458Y15961D01*
X-144457D01*
X-145457Y16960D01*
D69*
X30217Y71063D02*
D03*
X52658Y102953D02*
D03*
X-49016Y91929D02*
D03*
X62598Y24606D02*
D03*
X61024Y-27264D02*
D03*
X62008Y68405D02*
D03*
X30709Y-59252D02*
D03*
X-28150Y-36713D02*
D03*
X-54626Y-28543D02*
D03*
X30217Y-11220D02*
D03*
X-54724Y20669D02*
D03*
X-37795Y89764D02*
D03*
X41339Y90158D02*
D03*
X-37795Y-5906D02*
D03*
X74803Y19587D02*
D03*
X46063Y117323D02*
D03*
X87795Y105512D02*
D03*
X-57087Y68898D02*
D03*
X-1280Y104823D02*
D03*
X-102362Y112205D02*
D03*
X41339Y-61024D02*
D03*
X40650Y-5512D02*
D03*
X41339Y41339D02*
D03*
X-37894Y40059D02*
D03*
X-37598Y-59646D02*
D03*
X30315Y40650D02*
D03*
X-28346Y97933D02*
D03*
Y40650D02*
D03*
X-28150Y5413D02*
D03*
D71*
X41339Y106398D02*
D03*
D79*
X74902Y-80709D02*
D03*
X82776Y41134D02*
D03*
X-75787Y-59055D02*
D03*
X84252Y-7382D02*
D03*
X-69390Y-81102D02*
D03*
X78543Y-58563D02*
D03*
X-78740Y40354D02*
D03*
X-79134Y-7087D02*
D03*
X-68632Y68233D02*
D03*
X74803Y68307D02*
D03*
Y-28543D02*
D03*
X-69390Y18898D02*
D03*
Y-29528D02*
D03*
M02*
