M48
;Layer_Color=9474304
;FILE_FORMAT=2:4
INCH,TZ
;TYPE=PLATED
T1F00S00C0.0197
T2F00S00C0.0315
T3F00S00C0.1260
%
T01
X-4724Y-4921
Y-4449
Y-3386
Y-2913
X-3150
Y-3386
Y-4449
Y-4921
X-1575
Y-4449
Y-3386
Y-2913
X-0
Y-3386
Y-4488
Y-4961
Y-6063
Y-6535
X1575
Y-6063
Y-4961
Y-4488
Y-3386
Y-2913
X3150
Y-3386
Y-4488
Y-4961
X4724Y-4961
Y-4488
Y-3386
Y-2913
X-1575Y-6063
Y-6535
X10000Y-10709
Y-11181
X-10000
Y-10709
X-6299Y-1811
Y-1339
Y-236
Y236
X-6299Y1299
Y1772
X-4724
Y1299
X-4724Y236
Y-236
Y-1339
Y-1811
X-3150
Y-1339
Y-236
Y236
X-3150Y1299
Y1772
Y2913
Y3386
Y4449
Y4921
X-4724
Y4449
Y3386
Y2913
X-1575
Y3386
Y4449
Y4921
Y6063
Y6535
X-0
Y6063
Y5000
Y4528
Y3386
Y2913
Y1850
Y1378
Y236
Y-236
Y-1339
Y-1811
X-1575
Y-1339
Y-236
Y236
Y1299
Y1772
X1575Y1811
Y1339
X1575Y236
Y-236
X1575Y-1339
Y-1811
X3150
Y-1339
X3150Y-236
Y236
X3150Y1339
Y1811
Y2913
Y3386
Y4488
Y4961
X1575
Y4488
Y3386
Y2913
X4724
Y3386
Y4488
Y4961
Y1811
Y1339
Y236
Y-236
Y-1339
Y-1811
X6299
Y-1339
Y-236
Y236
Y1339
Y1811
X1575Y6063
Y6535
X-0Y11378
Y11850
T02
X10984Y-8071
Y-7283
Y-6496
Y-5709
Y-4921
Y-4134
Y-3346
Y-2559
X11772
Y-3346
Y-4134
Y-4921
Y-5709
Y-6496
Y-7283
Y-8071
X-10984
Y-7283
X-11772
Y-8071
Y-6496
Y-5709
Y-4921
Y-4134
Y-3346
Y-2559
X-10984
Y-3346
Y-4134
Y-4921
Y-5709
Y-6496
Y-1772
Y-984
X-11772
Y-1772
Y984
Y1772
Y2559
Y3346
Y4134
Y4921
Y5709
Y6496
Y7283
Y8071
X-10984
Y7283
Y6496
Y5709
Y4921
Y4134
Y3346
Y2559
Y1772
Y984
X10984Y984
Y1772
Y2559
Y3346
Y4134
Y4921
Y5709
Y6496
Y7283
Y8071
X11772
Y7283
Y6496
Y5709
Y4921
Y4134
Y3346
Y2559
Y1772
Y984
Y-984
Y-1772
X10984
Y-984
T03
X-39Y-14646
X-14646Y0
X14646
X-0Y14643
M30
